solid OpenSCAD_Model
  facet normal 1 -0 0
    outer loop
      vertex 20 -10 5
      vertex 20 10 -5
      vertex 20 10 5
    endloop
  endfacet
  facet normal 1 0 0
    outer loop
      vertex 20 10 -5
      vertex 20 -10 5
      vertex 20 -10 -5
    endloop
  endfacet
  facet normal -0 0 1
    outer loop
      vertex -20 10 5
      vertex -14 -10 5
      vertex -14 10 5
    endloop
  endfacet
  facet normal 0 0 1
    outer loop
      vertex -14 -10 5
      vertex -20 10 5
      vertex -20 -10 5
    endloop
  endfacet
  facet normal -0 0 1
    outer loop
      vertex 14 10 5
      vertex 20 -10 5
      vertex 20 10 5
    endloop
  endfacet
  facet normal 0 0 1
    outer loop
      vertex 20 -10 5
      vertex 14 10 5
      vertex 14 -10 5
    endloop
  endfacet
  facet normal 0 0 -1
    outer loop
      vertex -20 -10 -5
      vertex 20 10 -5
      vertex 20 -10 -5
    endloop
  endfacet
  facet normal -0 0 -1
    outer loop
      vertex 20 10 -5
      vertex -20 -10 -5
      vertex -20 10 -5
    endloop
  endfacet
  facet normal -1 0 0
    outer loop
      vertex -20 -10 -5
      vertex -20 10 5
      vertex -20 10 -5
    endloop
  endfacet
  facet normal -1 -0 0
    outer loop
      vertex -20 10 5
      vertex -20 -10 -5
      vertex -20 -10 5
    endloop
  endfacet
  facet normal 0 1 0
    outer loop
      vertex 20 10 5
      vertex 14 10 0
      vertex 14 10 5
    endloop
  endfacet
  facet normal 0 1 0
    outer loop
      vertex 14 10 0
      vertex 20 10 -5
      vertex -14 10 0
    endloop
  endfacet
  facet normal 0 1 -0
    outer loop
      vertex 20 10 -5
      vertex 14 10 0
      vertex 20 10 5
    endloop
  endfacet
  facet normal 0 1 -0
    outer loop
      vertex -14 10 0
      vertex -20 10 5
      vertex -14 10 5
    endloop
  endfacet
  facet normal 0 1 0
    outer loop
      vertex -14 10 0
      vertex -20 10 -5
      vertex -20 10 5
    endloop
  endfacet
  facet normal 0 1 0
    outer loop
      vertex -20 10 -5
      vertex -14 10 0
      vertex 20 10 -5
    endloop
  endfacet
  facet normal 0 -1 0
    outer loop
      vertex -20 -10 5
      vertex -14 -10 0
      vertex -14 -10 5
    endloop
  endfacet
  facet normal 0 -1 -0
    outer loop
      vertex -14 -10 0
      vertex -20 -10 -5
      vertex 14 -10 0
    endloop
  endfacet
  facet normal 0 -1 0
    outer loop
      vertex -20 -10 -5
      vertex -14 -10 0
      vertex -20 -10 5
    endloop
  endfacet
  facet normal 0 -1 0
    outer loop
      vertex 14 -10 0
      vertex 20 -10 5
      vertex 14 -10 5
    endloop
  endfacet
  facet normal 0 -1 0
    outer loop
      vertex 14 -10 0
      vertex 20 -10 -5
      vertex 20 -10 5
    endloop
  endfacet
  facet normal 0 -1 0
    outer loop
      vertex 20 -10 -5
      vertex 14 -10 0
      vertex -20 -10 -5
    endloop
  endfacet
  facet normal -1 0 0
    outer loop
      vertex 14 -10 0
      vertex 14 10 5
      vertex 14 10 0
    endloop
  endfacet
  facet normal -1 -0 0
    outer loop
      vertex 14 10 5
      vertex 14 -10 0
      vertex 14 -10 5
    endloop
  endfacet
  facet normal -0 0 1
    outer loop
      vertex -14 10 0
      vertex 14 -10 0
      vertex 14 10 0
    endloop
  endfacet
  facet normal 0 0 1
    outer loop
      vertex 14 -10 0
      vertex -14 10 0
      vertex -14 -10 0
    endloop
  endfacet
  facet normal 1 -0 0
    outer loop
      vertex -14 -10 5
      vertex -14 10 0
      vertex -14 10 5
    endloop
  endfacet
  facet normal 1 0 0
    outer loop
      vertex -14 10 0
      vertex -14 -10 5
      vertex -14 -10 0
    endloop
  endfacet
  facet normal 1 -0 0
    outer loop
      vertex -25 -10 -5
      vertex -25 10 -13
      vertex -25 10 -5
    endloop
  endfacet
  facet normal 1 0 0
    outer loop
      vertex -25 10 -13
      vertex -25 -10 -5
      vertex -25 -10 -13
    endloop
  endfacet
  facet normal -0 0 1
    outer loop
      vertex -45 10 -5
      vertex -25 -10 -5
      vertex -25 10 -5
    endloop
  endfacet
  facet normal 0 0 1
    outer loop
      vertex -25 -10 -5
      vertex -45 10 -5
      vertex -45 -10 -5
    endloop
  endfacet
  facet normal 0 0 -1
    outer loop
      vertex -45 -10 -13
      vertex -25 10 -13
      vertex -25 -10 -13
    endloop
  endfacet
  facet normal -0 0 -1
    outer loop
      vertex -25 10 -13
      vertex -45 -10 -13
      vertex -45 10 -13
    endloop
  endfacet
  facet normal -1 0 0
    outer loop
      vertex -45 -10 -13
      vertex -45 10 -5
      vertex -45 10 -13
    endloop
  endfacet
  facet normal -1 -0 0
    outer loop
      vertex -45 10 -5
      vertex -45 -10 -13
      vertex -45 -10 -5
    endloop
  endfacet
  facet normal 0 1 -0
    outer loop
      vertex -25 10 -13
      vertex -45 10 -5
      vertex -25 10 -5
    endloop
  endfacet
  facet normal 0 1 0
    outer loop
      vertex -45 10 -5
      vertex -25 10 -13
      vertex -45 10 -13
    endloop
  endfacet
  facet normal 0 -1 0
    outer loop
      vertex -45 -10 -13
      vertex -25 -10 -5
      vertex -45 -10 -5
    endloop
  endfacet
  facet normal 0 -1 -0
    outer loop
      vertex -25 -10 -5
      vertex -45 -10 -13
      vertex -25 -10 -13
    endloop
  endfacet
  facet normal 1 -0 0
    outer loop
      vertex 45 -10 -5
      vertex 45 10 -13
      vertex 45 10 -5
    endloop
  endfacet
  facet normal 1 0 0
    outer loop
      vertex 45 10 -13
      vertex 45 -10 -5
      vertex 45 -10 -13
    endloop
  endfacet
  facet normal -0 0 1
    outer loop
      vertex 25 10 -5
      vertex 45 -10 -5
      vertex 45 10 -5
    endloop
  endfacet
  facet normal 0 0 1
    outer loop
      vertex 45 -10 -5
      vertex 25 10 -5
      vertex 25 -10 -5
    endloop
  endfacet
  facet normal 0 0 -1
    outer loop
      vertex 25 -10 -13
      vertex 45 10 -13
      vertex 45 -10 -13
    endloop
  endfacet
  facet normal -0 0 -1
    outer loop
      vertex 45 10 -13
      vertex 25 -10 -13
      vertex 25 10 -13
    endloop
  endfacet
  facet normal -1 0 0
    outer loop
      vertex 25 -10 -13
      vertex 25 10 -5
      vertex 25 10 -13
    endloop
  endfacet
  facet normal -1 -0 0
    outer loop
      vertex 25 10 -5
      vertex 25 -10 -13
      vertex 25 -10 -5
    endloop
  endfacet
  facet normal 0 1 -0
    outer loop
      vertex 45 10 -13
      vertex 25 10 -5
      vertex 45 10 -5
    endloop
  endfacet
  facet normal 0 1 0
    outer loop
      vertex 25 10 -5
      vertex 45 10 -13
      vertex 25 10 -13
    endloop
  endfacet
  facet normal 0 -1 0
    outer loop
      vertex 25 -10 -13
      vertex 45 -10 -5
      vertex 25 -10 -5
    endloop
  endfacet
  facet normal 0 -1 -0
    outer loop
      vertex 45 -10 -5
      vertex 25 -10 -13
      vertex 45 -10 -13
    endloop
  endfacet
endsolid OpenSCAD_Model
