solid OpenSCAD_Model
  facet normal -0 0 1
    outer loop
      vertex -120 10 10
      vertex 120 -10 10
      vertex 120 10 10
    endloop
  endfacet
  facet normal 0 0 1
    outer loop
      vertex 120 -10 10
      vertex -120 10 10
      vertex -120 -10 10
    endloop
  endfacet
  facet normal 0 0 -1
    outer loop
      vertex -120 -10 0
      vertex 120 10 0
      vertex 120 -10 0
    endloop
  endfacet
  facet normal -0 0 -1
    outer loop
      vertex 120 10 0
      vertex -120 -10 0
      vertex -120 10 0
    endloop
  endfacet
  facet normal 0 -1 0
    outer loop
      vertex -120 -10 0
      vertex 120 -10 10
      vertex -120 -10 10
    endloop
  endfacet
  facet normal 0 -1 -0
    outer loop
      vertex 120 -10 10
      vertex -120 -10 0
      vertex 120 -10 0
    endloop
  endfacet
  facet normal 1 -0 0
    outer loop
      vertex 120 -10 10
      vertex 120 10 0
      vertex 120 10 10
    endloop
  endfacet
  facet normal 1 0 0
    outer loop
      vertex 120 10 0
      vertex 120 -10 10
      vertex 120 -10 0
    endloop
  endfacet
  facet normal 0 1 -0
    outer loop
      vertex 120 10 0
      vertex -120 10 10
      vertex 120 10 10
    endloop
  endfacet
  facet normal 0 1 0
    outer loop
      vertex -120 10 10
      vertex 120 10 0
      vertex -120 10 0
    endloop
  endfacet
  facet normal -1 0 0
    outer loop
      vertex -120 -10 0
      vertex -120 10 10
      vertex -120 10 0
    endloop
  endfacet
  facet normal -1 -0 0
    outer loop
      vertex -120 10 10
      vertex -120 -10 0
      vertex -120 -10 10
    endloop
  endfacet
endsolid OpenSCAD_Model
