solid OpenSCAD_Model
  facet normal -0.743147 -0.669129 0
    outer loop
      vertex -6.69131 -7.43145 -0.75
      vertex -8.09017 -5.87785 0.75
      vertex -8.09017 -5.87785 -0.75
    endloop
  endfacet
  facet normal -0.743147 -0.669129 0
    outer loop
      vertex -8.09017 -5.87785 0.75
      vertex -6.69131 -7.43145 -0.75
      vertex -6.69131 -7.43145 0.75
    endloop
  endfacet
  facet normal 0.951055 0.309021 0
    outer loop
      vertex 9.78148 2.07912 0.75
      vertex 9.13545 4.06737 -0.75
      vertex 9.13545 4.06737 0.75
    endloop
  endfacet
  facet normal 0.951055 0.309021 0
    outer loop
      vertex 9.13545 4.06737 -0.75
      vertex 9.78148 2.07912 0.75
      vertex 9.78148 2.07912 -0.75
    endloop
  endfacet
  facet normal 0.994522 0.104526 0
    outer loop
      vertex 10 0 0.75
      vertex 9.78148 2.07912 -0.75
      vertex 9.78148 2.07912 0.75
    endloop
  endfacet
  facet normal 0.994522 0.104526 0
    outer loop
      vertex 9.78148 2.07912 -0.75
      vertex 10 0 0.75
      vertex 10 0 -0.75
    endloop
  endfacet
  facet normal 0.866026 0.5 0
    outer loop
      vertex 9.13545 4.06737 0.75
      vertex 8.09017 5.87785 -0.75
      vertex 8.09017 5.87785 0.75
    endloop
  endfacet
  facet normal 0.866026 0.5 0
    outer loop
      vertex 8.09017 5.87785 -0.75
      vertex 9.13545 4.06737 0.75
      vertex 9.13545 4.06737 -0.75
    endloop
  endfacet
  facet normal 0.951055 -0.309021 0
    outer loop
      vertex 9.13545 -4.06737 0.75
      vertex 9.78148 -2.07912 -0.75
      vertex 9.78148 -2.07912 0.75
    endloop
  endfacet
  facet normal 0.951055 -0.309021 0
    outer loop
      vertex 9.78148 -2.07912 -0.75
      vertex 9.13545 -4.06737 0.75
      vertex 9.13545 -4.06737 -0.75
    endloop
  endfacet
  facet normal 0.587783 -0.809019 0
    outer loop
      vertex 5 -8.66025 -0.75
      vertex 6.69131 -7.43145 0.75
      vertex 5 -8.66025 0.75
    endloop
  endfacet
  facet normal 0.587783 -0.809019 0
    outer loop
      vertex 6.69131 -7.43145 0.75
      vertex 5 -8.66025 -0.75
      vertex 6.69131 -7.43145 -0.75
    endloop
  endfacet
  facet normal 0.743147 -0.669129 0
    outer loop
      vertex 6.69131 -7.43145 0.75
      vertex 8.09017 -5.87785 -0.75
      vertex 8.09017 -5.87785 0.75
    endloop
  endfacet
  facet normal 0.743147 -0.669129 0
    outer loop
      vertex 8.09017 -5.87785 -0.75
      vertex 6.69131 -7.43145 0.75
      vertex 6.69131 -7.43145 -0.75
    endloop
  endfacet
  facet normal 0.994522 -0.104526 0
    outer loop
      vertex 9.78148 -2.07912 0.75
      vertex 10 0 -0.75
      vertex 10 0 0.75
    endloop
  endfacet
  facet normal 0.994522 -0.104526 0
    outer loop
      vertex 10 0 -0.75
      vertex 9.78148 -2.07912 0.75
      vertex 9.78148 -2.07912 -0.75
    endloop
  endfacet
  facet normal -0.406736 -0.913546 0
    outer loop
      vertex -5 -8.66025 -0.75
      vertex -3.09017 -9.51056 0.75
      vertex -5 -8.66025 0.75
    endloop
  endfacet
  facet normal -0.406736 -0.913546 -0
    outer loop
      vertex -3.09017 -9.51056 0.75
      vertex -5 -8.66025 -0.75
      vertex -3.09017 -9.51056 -0.75
    endloop
  endfacet
  facet normal 0.406736 0.913546 -0
    outer loop
      vertex 5 8.66025 -0.75
      vertex 3.09017 9.51056 0.75
      vertex 5 8.66025 0.75
    endloop
  endfacet
  facet normal 0.406736 0.913546 0
    outer loop
      vertex 3.09017 9.51056 0.75
      vertex 5 8.66025 -0.75
      vertex 3.09017 9.51056 -0.75
    endloop
  endfacet
  facet normal 0.743147 0.669129 0
    outer loop
      vertex 8.09017 5.87785 0.75
      vertex 6.69131 7.43145 -0.75
      vertex 6.69131 7.43145 0.75
    endloop
  endfacet
  facet normal 0.743147 0.669129 0
    outer loop
      vertex 6.69131 7.43145 -0.75
      vertex 8.09017 5.87785 0.75
      vertex 8.09017 5.87785 -0.75
    endloop
  endfacet
  facet normal -0.587783 -0.809019 0
    outer loop
      vertex -6.69131 -7.43145 -0.75
      vertex -5 -8.66025 0.75
      vertex -6.69131 -7.43145 0.75
    endloop
  endfacet
  facet normal -0.587783 -0.809019 -0
    outer loop
      vertex -5 -8.66025 0.75
      vertex -6.69131 -7.43145 -0.75
      vertex -5 -8.66025 -0.75
    endloop
  endfacet
  facet normal -0.743147 0.669129 0
    outer loop
      vertex -8.09017 5.87785 -0.75
      vertex -6.69131 7.43145 0.75
      vertex -6.69131 7.43145 -0.75
    endloop
  endfacet
  facet normal -0.743147 0.669129 0
    outer loop
      vertex -6.69131 7.43145 0.75
      vertex -8.09017 5.87785 -0.75
      vertex -8.09017 5.87785 0.75
    endloop
  endfacet
  facet normal 0 1 -0
    outer loop
      vertex 1.04528 9.94522 -0.75
      vertex -1.04528 9.94522 0.75
      vertex 1.04528 9.94522 0.75
    endloop
  endfacet
  facet normal 0 1 0
    outer loop
      vertex -1.04528 9.94522 0.75
      vertex 1.04528 9.94522 -0.75
      vertex -1.04528 9.94522 -0.75
    endloop
  endfacet
  facet normal 0.406736 -0.913546 0
    outer loop
      vertex 3.09017 -9.51056 -0.75
      vertex 5 -8.66025 0.75
      vertex 3.09017 -9.51056 0.75
    endloop
  endfacet
  facet normal 0.406736 -0.913546 0
    outer loop
      vertex 5 -8.66025 0.75
      vertex 3.09017 -9.51056 -0.75
      vertex 5 -8.66025 -0.75
    endloop
  endfacet
  facet normal 0.207914 -0.978147 0
    outer loop
      vertex 1.04528 -9.94522 -0.75
      vertex 3.09017 -9.51056 0.75
      vertex 1.04528 -9.94522 0.75
    endloop
  endfacet
  facet normal 0.207914 -0.978147 0
    outer loop
      vertex 3.09017 -9.51056 0.75
      vertex 1.04528 -9.94522 -0.75
      vertex 3.09017 -9.51056 -0.75
    endloop
  endfacet
  facet normal -0.951055 0.309021 0
    outer loop
      vertex -9.78148 2.07912 -0.75
      vertex -9.13545 4.06737 0.75
      vertex -9.13545 4.06737 -0.75
    endloop
  endfacet
  facet normal -0.951055 0.309021 0
    outer loop
      vertex -9.13545 4.06737 0.75
      vertex -9.78148 2.07912 -0.75
      vertex -9.78148 2.07912 0.75
    endloop
  endfacet
  facet normal 0 0 -1
    outer loop
      vertex 9.78148 -2.07912 -0.75
      vertex 4.6194 -1.91342 -0.75
      vertex 5 0 -0.75
    endloop
  endfacet
  facet normal 0 0 -1
    outer loop
      vertex 6.69131 -7.43145 -0.75
      vertex 3.53553 -3.53553 -0.75
      vertex 4.6194 -1.91342 -0.75
    endloop
  endfacet
  facet normal 0 0 -1
    outer loop
      vertex 1.91342 -4.6194 -0.75
      vertex 5 -8.66025 -0.75
      vertex 3.09017 -9.51056 -0.75
    endloop
  endfacet
  facet normal 0 0 -1
    outer loop
      vertex 5 -8.66025 -0.75
      vertex 1.91342 -4.6194 -0.75
      vertex 3.53553 -3.53553 -0.75
    endloop
  endfacet
  facet normal 0 0 -1
    outer loop
      vertex 1.04528 -9.94522 -0.75
      vertex 1.91342 -4.6194 -0.75
      vertex 3.09017 -9.51056 -0.75
    endloop
  endfacet
  facet normal 0 0 -1
    outer loop
      vertex 1.04528 -9.94522 -0.75
      vertex 0 -5 -0.75
      vertex 1.91342 -4.6194 -0.75
    endloop
  endfacet
  facet normal 0 0 -1
    outer loop
      vertex -1.04528 -9.94522 -0.75
      vertex 0 -5 -0.75
      vertex 1.04528 -9.94522 -0.75
    endloop
  endfacet
  facet normal 0 0 -1
    outer loop
      vertex -1.04528 -9.94522 -0.75
      vertex -1.91342 -4.6194 -0.75
      vertex 0 -5 -0.75
    endloop
  endfacet
  facet normal 0 0 -1
    outer loop
      vertex -3.09017 -9.51056 -0.75
      vertex -1.91342 -4.6194 -0.75
      vertex -1.04528 -9.94522 -0.75
    endloop
  endfacet
  facet normal 0 0 -1
    outer loop
      vertex -5 -8.66025 -0.75
      vertex -1.91342 -4.6194 -0.75
      vertex -3.09017 -9.51056 -0.75
    endloop
  endfacet
  facet normal -0 0 -1
    outer loop
      vertex -1.91342 -4.6194 -0.75
      vertex -5 -8.66025 -0.75
      vertex -3.53553 -3.53553 -0.75
    endloop
  endfacet
  facet normal 0 0 -1
    outer loop
      vertex -6.69131 -7.43145 -0.75
      vertex -3.53553 -3.53553 -0.75
      vertex -5 -8.66025 -0.75
    endloop
  endfacet
  facet normal 0 0 -1
    outer loop
      vertex -8.09017 -5.87785 -0.75
      vertex -3.53553 -3.53553 -0.75
      vertex -6.69131 -7.43145 -0.75
    endloop
  endfacet
  facet normal -0 0 -1
    outer loop
      vertex -3.53553 -3.53553 -0.75
      vertex -8.09017 -5.87785 -0.75
      vertex -4.6194 -1.91342 -0.75
    endloop
  endfacet
  facet normal 0 0 -1
    outer loop
      vertex -9.13545 -4.06737 -0.75
      vertex -4.6194 -1.91342 -0.75
      vertex -8.09017 -5.87785 -0.75
    endloop
  endfacet
  facet normal 0 0 -1
    outer loop
      vertex -5 0 -0.75
      vertex -6.69131 7.43145 -0.75
      vertex -5 8.66025 -0.75
    endloop
  endfacet
  facet normal 0 0 -1
    outer loop
      vertex -9.78148 -2.07912 -0.75
      vertex -4.6194 -1.91342 -0.75
      vertex -9.13545 -4.06737 -0.75
    endloop
  endfacet
  facet normal 0 0 -1
    outer loop
      vertex -5 0 -0.75
      vertex -8.09017 5.87785 -0.75
      vertex -6.69131 7.43145 -0.75
    endloop
  endfacet
  facet normal -0 0 -1
    outer loop
      vertex -4.6194 -1.91342 -0.75
      vertex -9.78148 -2.07912 -0.75
      vertex -5 0 -0.75
    endloop
  endfacet
  facet normal 0 0 -1
    outer loop
      vertex -5 0 -0.75
      vertex -9.13545 4.06737 -0.75
      vertex -8.09017 5.87785 -0.75
    endloop
  endfacet
  facet normal 0 0 -1
    outer loop
      vertex -10 0 -0.75
      vertex -5 0 -0.75
      vertex -9.78148 -2.07912 -0.75
    endloop
  endfacet
  facet normal 0 0 -1
    outer loop
      vertex -5 0 -0.75
      vertex -9.78148 2.07912 -0.75
      vertex -9.13545 4.06737 -0.75
    endloop
  endfacet
  facet normal 0 0 -1
    outer loop
      vertex -5 0 -0.75
      vertex -10 0 -0.75
      vertex -9.78148 2.07912 -0.75
    endloop
  endfacet
  facet normal 0 0 -1
    outer loop
      vertex 5 0 -0.75
      vertex 10 0 -0.75
      vertex 9.78148 -2.07912 -0.75
    endloop
  endfacet
  facet normal 0 0 -1
    outer loop
      vertex 4.6194 -1.91342 -0.75
      vertex 9.78148 -2.07912 -0.75
      vertex 9.13545 -4.06737 -0.75
    endloop
  endfacet
  facet normal 0 0 -1
    outer loop
      vertex 10 0 -0.75
      vertex 5 0 -0.75
      vertex 9.78148 2.07912 -0.75
    endloop
  endfacet
  facet normal 0 0 -1
    outer loop
      vertex 4.6194 -1.91342 -0.75
      vertex 9.13545 -4.06737 -0.75
      vertex 8.09017 -5.87785 -0.75
    endloop
  endfacet
  facet normal 0 0 -1
    outer loop
      vertex 4.6194 1.91342 -0.75
      vertex 9.78148 2.07912 -0.75
      vertex 5 0 -0.75
    endloop
  endfacet
  facet normal 0 0 -1
    outer loop
      vertex 4.6194 -1.91342 -0.75
      vertex 8.09017 -5.87785 -0.75
      vertex 6.69131 -7.43145 -0.75
    endloop
  endfacet
  facet normal -0 0 -1
    outer loop
      vertex 9.78148 2.07912 -0.75
      vertex 4.6194 1.91342 -0.75
      vertex 9.13545 4.06737 -0.75
    endloop
  endfacet
  facet normal 0 0 -1
    outer loop
      vertex 3.53553 -3.53553 -0.75
      vertex 6.69131 -7.43145 -0.75
      vertex 5 -8.66025 -0.75
    endloop
  endfacet
  facet normal -0 0 -1
    outer loop
      vertex 9.13545 4.06737 -0.75
      vertex 4.6194 1.91342 -0.75
      vertex 8.09017 5.87785 -0.75
    endloop
  endfacet
  facet normal 0 0 -1
    outer loop
      vertex 3.53553 3.53553 -0.75
      vertex 8.09017 5.87785 -0.75
      vertex 4.6194 1.91342 -0.75
    endloop
  endfacet
  facet normal -0 0 -1
    outer loop
      vertex 8.09017 5.87785 -0.75
      vertex 3.53553 3.53553 -0.75
      vertex 6.69131 7.43145 -0.75
    endloop
  endfacet
  facet normal -0 0 -1
    outer loop
      vertex 6.69131 7.43145 -0.75
      vertex 3.53553 3.53553 -0.75
      vertex 5 8.66025 -0.75
    endloop
  endfacet
  facet normal 0 0 -1
    outer loop
      vertex 1.91342 4.6194 -0.75
      vertex 5 8.66025 -0.75
      vertex 3.53553 3.53553 -0.75
    endloop
  endfacet
  facet normal -0 0 -1
    outer loop
      vertex 5 8.66025 -0.75
      vertex 1.91342 4.6194 -0.75
      vertex 3.09017 9.51056 -0.75
    endloop
  endfacet
  facet normal 0 0 -1
    outer loop
      vertex 1.91342 4.6194 -0.75
      vertex 1.04528 9.94522 -0.75
      vertex 3.09017 9.51056 -0.75
    endloop
  endfacet
  facet normal 0 0 -1
    outer loop
      vertex 0 5 -0.75
      vertex 1.04528 9.94522 -0.75
      vertex 1.91342 4.6194 -0.75
    endloop
  endfacet
  facet normal 0 0 -1
    outer loop
      vertex 0 5 -0.75
      vertex -1.04528 9.94522 -0.75
      vertex 1.04528 9.94522 -0.75
    endloop
  endfacet
  facet normal 0 0 -1
    outer loop
      vertex -1.91342 4.6194 -0.75
      vertex -1.04528 9.94522 -0.75
      vertex 0 5 -0.75
    endloop
  endfacet
  facet normal 0 0 -1
    outer loop
      vertex -1.91342 4.6194 -0.75
      vertex -3.09017 9.51056 -0.75
      vertex -1.04528 9.94522 -0.75
    endloop
  endfacet
  facet normal 0 0 -1
    outer loop
      vertex -5 8.66025 -0.75
      vertex -1.91342 4.6194 -0.75
      vertex -3.53553 3.53553 -0.75
    endloop
  endfacet
  facet normal 0 0 -1
    outer loop
      vertex -5 8.66025 -0.75
      vertex -3.53553 3.53553 -0.75
      vertex -4.6194 1.91342 -0.75
    endloop
  endfacet
  facet normal 0 0 -1
    outer loop
      vertex -1.91342 4.6194 -0.75
      vertex -5 8.66025 -0.75
      vertex -3.09017 9.51056 -0.75
    endloop
  endfacet
  facet normal 0 0 -1
    outer loop
      vertex -5 8.66025 -0.75
      vertex -4.6194 1.91342 -0.75
      vertex -5 0 -0.75
    endloop
  endfacet
  facet normal -0.951055 -0.309021 0
    outer loop
      vertex -9.13545 -4.06737 -0.75
      vertex -9.78148 -2.07912 0.75
      vertex -9.78148 -2.07912 -0.75
    endloop
  endfacet
  facet normal -0.951055 -0.309021 0
    outer loop
      vertex -9.78148 -2.07912 0.75
      vertex -9.13545 -4.06737 -0.75
      vertex -9.13545 -4.06737 0.75
    endloop
  endfacet
  facet normal -0.406736 0.913546 0
    outer loop
      vertex -3.09017 9.51056 -0.75
      vertex -5 8.66025 0.75
      vertex -3.09017 9.51056 0.75
    endloop
  endfacet
  facet normal -0.406736 0.913546 0
    outer loop
      vertex -5 8.66025 0.75
      vertex -3.09017 9.51056 -0.75
      vertex -5 8.66025 -0.75
    endloop
  endfacet
  facet normal 0 0 1
    outer loop
      vertex 9.78148 2.07912 0.75
      vertex 4.6194 1.91342 0.75
      vertex 5 0 0.75
    endloop
  endfacet
  facet normal 0 0 1
    outer loop
      vertex 6.69131 7.43145 0.75
      vertex 3.53553 3.53553 0.75
      vertex 4.6194 1.91342 0.75
    endloop
  endfacet
  facet normal 0 0 1
    outer loop
      vertex 1.91342 4.6194 0.75
      vertex 5 8.66025 0.75
      vertex 3.09017 9.51056 0.75
    endloop
  endfacet
  facet normal 0 0 1
    outer loop
      vertex 5 8.66025 0.75
      vertex 1.91342 4.6194 0.75
      vertex 3.53553 3.53553 0.75
    endloop
  endfacet
  facet normal 0 0 1
    outer loop
      vertex 1.04528 9.94522 0.75
      vertex 1.91342 4.6194 0.75
      vertex 3.09017 9.51056 0.75
    endloop
  endfacet
  facet normal 0 0 1
    outer loop
      vertex 1.04528 9.94522 0.75
      vertex 0 5 0.75
      vertex 1.91342 4.6194 0.75
    endloop
  endfacet
  facet normal -0 0 1
    outer loop
      vertex -1.04528 9.94522 0.75
      vertex 0 5 0.75
      vertex 1.04528 9.94522 0.75
    endloop
  endfacet
  facet normal 0 0 1
    outer loop
      vertex -1.04528 9.94522 0.75
      vertex -1.91342 4.6194 0.75
      vertex 0 5 0.75
    endloop
  endfacet
  facet normal -0 0 1
    outer loop
      vertex -3.09017 9.51056 0.75
      vertex -1.91342 4.6194 0.75
      vertex -1.04528 9.94522 0.75
    endloop
  endfacet
  facet normal -0 0 1
    outer loop
      vertex -5 8.66025 0.75
      vertex -1.91342 4.6194 0.75
      vertex -3.09017 9.51056 0.75
    endloop
  endfacet
  facet normal 0 0 1
    outer loop
      vertex -1.91342 4.6194 0.75
      vertex -5 8.66025 0.75
      vertex -3.53553 3.53553 0.75
    endloop
  endfacet
  facet normal -0 0 1
    outer loop
      vertex -6.69131 7.43145 0.75
      vertex -3.53553 3.53553 0.75
      vertex -5 8.66025 0.75
    endloop
  endfacet
  facet normal -0 0 1
    outer loop
      vertex -8.09017 5.87785 0.75
      vertex -3.53553 3.53553 0.75
      vertex -6.69131 7.43145 0.75
    endloop
  endfacet
  facet normal 0 0 1
    outer loop
      vertex -3.53553 3.53553 0.75
      vertex -8.09017 5.87785 0.75
      vertex -4.6194 1.91342 0.75
    endloop
  endfacet
  facet normal -0 0 1
    outer loop
      vertex -9.13545 4.06737 0.75
      vertex -4.6194 1.91342 0.75
      vertex -8.09017 5.87785 0.75
    endloop
  endfacet
  facet normal 0 0 1
    outer loop
      vertex -5 0 0.75
      vertex -6.69131 -7.43145 0.75
      vertex -5 -8.66025 0.75
    endloop
  endfacet
  facet normal -0 0 1
    outer loop
      vertex -9.78148 2.07912 0.75
      vertex -4.6194 1.91342 0.75
      vertex -9.13545 4.06737 0.75
    endloop
  endfacet
  facet normal 0 0 1
    outer loop
      vertex -5 0 0.75
      vertex -8.09017 -5.87785 0.75
      vertex -6.69131 -7.43145 0.75
    endloop
  endfacet
  facet normal 0 0 1
    outer loop
      vertex -4.6194 1.91342 0.75
      vertex -9.78148 2.07912 0.75
      vertex -5 0 0.75
    endloop
  endfacet
  facet normal 0 0 1
    outer loop
      vertex -5 0 0.75
      vertex -9.13545 -4.06737 0.75
      vertex -8.09017 -5.87785 0.75
    endloop
  endfacet
  facet normal 0 0 1
    outer loop
      vertex -10 0 0.75
      vertex -5 0 0.75
      vertex -9.78148 2.07912 0.75
    endloop
  endfacet
  facet normal 0 0 1
    outer loop
      vertex -5 0 0.75
      vertex -9.78148 -2.07912 0.75
      vertex -9.13545 -4.06737 0.75
    endloop
  endfacet
  facet normal 0 0 1
    outer loop
      vertex -5 0 0.75
      vertex -10 0 0.75
      vertex -9.78148 -2.07912 0.75
    endloop
  endfacet
  facet normal 0 0 1
    outer loop
      vertex 5 0 0.75
      vertex 10 0 0.75
      vertex 9.78148 2.07912 0.75
    endloop
  endfacet
  facet normal 0 0 1
    outer loop
      vertex 4.6194 1.91342 0.75
      vertex 9.78148 2.07912 0.75
      vertex 9.13545 4.06737 0.75
    endloop
  endfacet
  facet normal 0 0 1
    outer loop
      vertex 10 0 0.75
      vertex 5 0 0.75
      vertex 9.78148 -2.07912 0.75
    endloop
  endfacet
  facet normal 0 0 1
    outer loop
      vertex 4.6194 1.91342 0.75
      vertex 9.13545 4.06737 0.75
      vertex 8.09017 5.87785 0.75
    endloop
  endfacet
  facet normal -0 0 1
    outer loop
      vertex 4.6194 -1.91342 0.75
      vertex 9.78148 -2.07912 0.75
      vertex 5 0 0.75
    endloop
  endfacet
  facet normal 0 0 1
    outer loop
      vertex 4.6194 1.91342 0.75
      vertex 8.09017 5.87785 0.75
      vertex 6.69131 7.43145 0.75
    endloop
  endfacet
  facet normal 0 0 1
    outer loop
      vertex 9.78148 -2.07912 0.75
      vertex 4.6194 -1.91342 0.75
      vertex 9.13545 -4.06737 0.75
    endloop
  endfacet
  facet normal 0 0 1
    outer loop
      vertex 3.53553 3.53553 0.75
      vertex 6.69131 7.43145 0.75
      vertex 5 8.66025 0.75
    endloop
  endfacet
  facet normal 0 0 1
    outer loop
      vertex 9.13545 -4.06737 0.75
      vertex 4.6194 -1.91342 0.75
      vertex 8.09017 -5.87785 0.75
    endloop
  endfacet
  facet normal -0 0 1
    outer loop
      vertex 3.53553 -3.53553 0.75
      vertex 8.09017 -5.87785 0.75
      vertex 4.6194 -1.91342 0.75
    endloop
  endfacet
  facet normal 0 0 1
    outer loop
      vertex 8.09017 -5.87785 0.75
      vertex 3.53553 -3.53553 0.75
      vertex 6.69131 -7.43145 0.75
    endloop
  endfacet
  facet normal 0 0 1
    outer loop
      vertex 6.69131 -7.43145 0.75
      vertex 3.53553 -3.53553 0.75
      vertex 5 -8.66025 0.75
    endloop
  endfacet
  facet normal -0 0 1
    outer loop
      vertex 1.91342 -4.6194 0.75
      vertex 5 -8.66025 0.75
      vertex 3.53553 -3.53553 0.75
    endloop
  endfacet
  facet normal 0 0 1
    outer loop
      vertex 5 -8.66025 0.75
      vertex 1.91342 -4.6194 0.75
      vertex 3.09017 -9.51056 0.75
    endloop
  endfacet
  facet normal 0 0 1
    outer loop
      vertex 1.91342 -4.6194 0.75
      vertex 1.04528 -9.94522 0.75
      vertex 3.09017 -9.51056 0.75
    endloop
  endfacet
  facet normal -0 0 1
    outer loop
      vertex 0 -5 0.75
      vertex 1.04528 -9.94522 0.75
      vertex 1.91342 -4.6194 0.75
    endloop
  endfacet
  facet normal 0 0 1
    outer loop
      vertex 0 -5 0.75
      vertex -1.04528 -9.94522 0.75
      vertex 1.04528 -9.94522 0.75
    endloop
  endfacet
  facet normal 0 0 1
    outer loop
      vertex -1.91342 -4.6194 0.75
      vertex -1.04528 -9.94522 0.75
      vertex 0 -5 0.75
    endloop
  endfacet
  facet normal 0 0 1
    outer loop
      vertex -1.91342 -4.6194 0.75
      vertex -3.09017 -9.51056 0.75
      vertex -1.04528 -9.94522 0.75
    endloop
  endfacet
  facet normal 0 0 1
    outer loop
      vertex -5 -8.66025 0.75
      vertex -1.91342 -4.6194 0.75
      vertex -3.53553 -3.53553 0.75
    endloop
  endfacet
  facet normal 0 0 1
    outer loop
      vertex -5 -8.66025 0.75
      vertex -3.53553 -3.53553 0.75
      vertex -4.6194 -1.91342 0.75
    endloop
  endfacet
  facet normal 0 0 1
    outer loop
      vertex -1.91342 -4.6194 0.75
      vertex -5 -8.66025 0.75
      vertex -3.09017 -9.51056 0.75
    endloop
  endfacet
  facet normal 0 0 1
    outer loop
      vertex -5 -8.66025 0.75
      vertex -4.6194 -1.91342 0.75
      vertex -5 0 0.75
    endloop
  endfacet
  facet normal -0.207914 -0.978147 0
    outer loop
      vertex -3.09017 -9.51056 -0.75
      vertex -1.04528 -9.94522 0.75
      vertex -3.09017 -9.51056 0.75
    endloop
  endfacet
  facet normal -0.207914 -0.978147 -0
    outer loop
      vertex -1.04528 -9.94522 0.75
      vertex -3.09017 -9.51056 -0.75
      vertex -1.04528 -9.94522 -0.75
    endloop
  endfacet
  facet normal 0.207914 0.978147 -0
    outer loop
      vertex 3.09017 9.51056 -0.75
      vertex 1.04528 9.94522 0.75
      vertex 3.09017 9.51056 0.75
    endloop
  endfacet
  facet normal 0.207914 0.978147 0
    outer loop
      vertex 1.04528 9.94522 0.75
      vertex 3.09017 9.51056 -0.75
      vertex 1.04528 9.94522 -0.75
    endloop
  endfacet
  facet normal -0.994522 -0.104526 0
    outer loop
      vertex -9.78148 -2.07912 -0.75
      vertex -10 0 0.75
      vertex -10 0 -0.75
    endloop
  endfacet
  facet normal -0.994522 -0.104526 0
    outer loop
      vertex -10 0 0.75
      vertex -9.78148 -2.07912 -0.75
      vertex -9.78148 -2.07912 0.75
    endloop
  endfacet
  facet normal -0.866026 -0.5 0
    outer loop
      vertex -8.09017 -5.87785 -0.75
      vertex -9.13545 -4.06737 0.75
      vertex -9.13545 -4.06737 -0.75
    endloop
  endfacet
  facet normal -0.866026 -0.5 0
    outer loop
      vertex -9.13545 -4.06737 0.75
      vertex -8.09017 -5.87785 -0.75
      vertex -8.09017 -5.87785 0.75
    endloop
  endfacet
  facet normal -0.866026 0.5 0
    outer loop
      vertex -9.13545 4.06737 -0.75
      vertex -8.09017 5.87785 0.75
      vertex -8.09017 5.87785 -0.75
    endloop
  endfacet
  facet normal -0.866026 0.5 0
    outer loop
      vertex -8.09017 5.87785 0.75
      vertex -9.13545 4.06737 -0.75
      vertex -9.13545 4.06737 0.75
    endloop
  endfacet
  facet normal 0.866026 -0.5 0
    outer loop
      vertex 8.09017 -5.87785 0.75
      vertex 9.13545 -4.06737 -0.75
      vertex 9.13545 -4.06737 0.75
    endloop
  endfacet
  facet normal 0.866026 -0.5 0
    outer loop
      vertex 9.13545 -4.06737 -0.75
      vertex 8.09017 -5.87785 0.75
      vertex 8.09017 -5.87785 -0.75
    endloop
  endfacet
  facet normal 0.587783 0.809019 -0
    outer loop
      vertex 6.69131 7.43145 -0.75
      vertex 5 8.66025 0.75
      vertex 6.69131 7.43145 0.75
    endloop
  endfacet
  facet normal 0.587783 0.809019 0
    outer loop
      vertex 5 8.66025 0.75
      vertex 6.69131 7.43145 -0.75
      vertex 5 8.66025 -0.75
    endloop
  endfacet
  facet normal -0.587783 0.809019 0
    outer loop
      vertex -5 8.66025 -0.75
      vertex -6.69131 7.43145 0.75
      vertex -5 8.66025 0.75
    endloop
  endfacet
  facet normal -0.587783 0.809019 0
    outer loop
      vertex -6.69131 7.43145 0.75
      vertex -5 8.66025 -0.75
      vertex -6.69131 7.43145 -0.75
    endloop
  endfacet
  facet normal -0.207914 0.978147 0
    outer loop
      vertex -1.04528 9.94522 -0.75
      vertex -3.09017 9.51056 0.75
      vertex -1.04528 9.94522 0.75
    endloop
  endfacet
  facet normal -0.207914 0.978147 0
    outer loop
      vertex -3.09017 9.51056 0.75
      vertex -1.04528 9.94522 -0.75
      vertex -3.09017 9.51056 -0.75
    endloop
  endfacet
  facet normal 0 -1 0
    outer loop
      vertex -1.04528 -9.94522 -0.75
      vertex 1.04528 -9.94522 0.75
      vertex -1.04528 -9.94522 0.75
    endloop
  endfacet
  facet normal 0 -1 -0
    outer loop
      vertex 1.04528 -9.94522 0.75
      vertex -1.04528 -9.94522 -0.75
      vertex 1.04528 -9.94522 -0.75
    endloop
  endfacet
  facet normal -0.994522 0.104526 0
    outer loop
      vertex -10 0 -0.75
      vertex -9.78148 2.07912 0.75
      vertex -9.78148 2.07912 -0.75
    endloop
  endfacet
  facet normal -0.994522 0.104526 0
    outer loop
      vertex -9.78148 2.07912 0.75
      vertex -10 0 -0.75
      vertex -10 0 0.75
    endloop
  endfacet
  facet normal 0.555574 -0.831467 0
    outer loop
      vertex -3.53553 3.53553 -0.75
      vertex -1.91342 4.6194 0.75
      vertex -3.53553 3.53553 0.75
    endloop
  endfacet
  facet normal 0.555574 -0.831467 0
    outer loop
      vertex -1.91342 4.6194 0.75
      vertex -3.53553 3.53553 -0.75
      vertex -1.91342 4.6194 -0.75
    endloop
  endfacet
  facet normal -0.831467 -0.555574 0
    outer loop
      vertex 4.6194 1.91342 -0.75
      vertex 3.53553 3.53553 0.75
      vertex 3.53553 3.53553 -0.75
    endloop
  endfacet
  facet normal -0.831467 -0.555574 0
    outer loop
      vertex 3.53553 3.53553 0.75
      vertex 4.6194 1.91342 -0.75
      vertex 4.6194 1.91342 0.75
    endloop
  endfacet
  facet normal -0.980786 -0.195089 0
    outer loop
      vertex 5 0 -0.75
      vertex 4.6194 1.91342 0.75
      vertex 4.6194 1.91342 -0.75
    endloop
  endfacet
  facet normal -0.980786 -0.195089 0
    outer loop
      vertex 4.6194 1.91342 0.75
      vertex 5 0 -0.75
      vertex 5 0 0.75
    endloop
  endfacet
  facet normal 0.831467 -0.555574 0
    outer loop
      vertex -4.6194 1.91342 0.75
      vertex -3.53553 3.53553 -0.75
      vertex -3.53553 3.53553 0.75
    endloop
  endfacet
  facet normal 0.831467 -0.555574 0
    outer loop
      vertex -3.53553 3.53553 -0.75
      vertex -4.6194 1.91342 0.75
      vertex -4.6194 1.91342 -0.75
    endloop
  endfacet
  facet normal 0.195089 0.980786 -0
    outer loop
      vertex 0 -5 -0.75
      vertex -1.91342 -4.6194 0.75
      vertex 0 -5 0.75
    endloop
  endfacet
  facet normal 0.195089 0.980786 0
    outer loop
      vertex -1.91342 -4.6194 0.75
      vertex 0 -5 -0.75
      vertex -1.91342 -4.6194 -0.75
    endloop
  endfacet
  facet normal -0.195089 0.980786 0
    outer loop
      vertex 1.91342 -4.6194 -0.75
      vertex 0 -5 0.75
      vertex 1.91342 -4.6194 0.75
    endloop
  endfacet
  facet normal -0.195089 0.980786 0
    outer loop
      vertex 0 -5 0.75
      vertex 1.91342 -4.6194 -0.75
      vertex 0 -5 -0.75
    endloop
  endfacet
  facet normal -0.555574 0.831467 0
    outer loop
      vertex 3.53553 -3.53553 -0.75
      vertex 1.91342 -4.6194 0.75
      vertex 3.53553 -3.53553 0.75
    endloop
  endfacet
  facet normal -0.555574 0.831467 0
    outer loop
      vertex 1.91342 -4.6194 0.75
      vertex 3.53553 -3.53553 -0.75
      vertex 1.91342 -4.6194 -0.75
    endloop
  endfacet
  facet normal -0.831467 0.555574 0
    outer loop
      vertex 3.53553 -3.53553 -0.75
      vertex 4.6194 -1.91342 0.75
      vertex 4.6194 -1.91342 -0.75
    endloop
  endfacet
  facet normal -0.831467 0.555574 0
    outer loop
      vertex 4.6194 -1.91342 0.75
      vertex 3.53553 -3.53553 -0.75
      vertex 3.53553 -3.53553 0.75
    endloop
  endfacet
  facet normal 0.980786 -0.195089 0
    outer loop
      vertex -5 0 0.75
      vertex -4.6194 1.91342 -0.75
      vertex -4.6194 1.91342 0.75
    endloop
  endfacet
  facet normal 0.980786 -0.195089 0
    outer loop
      vertex -4.6194 1.91342 -0.75
      vertex -5 0 0.75
      vertex -5 0 -0.75
    endloop
  endfacet
  facet normal -0.980786 0.195089 0
    outer loop
      vertex 4.6194 -1.91342 -0.75
      vertex 5 0 0.75
      vertex 5 0 -0.75
    endloop
  endfacet
  facet normal -0.980786 0.195089 0
    outer loop
      vertex 5 0 0.75
      vertex 4.6194 -1.91342 -0.75
      vertex 4.6194 -1.91342 0.75
    endloop
  endfacet
  facet normal 0.195089 -0.980786 0
    outer loop
      vertex -1.91342 4.6194 -0.75
      vertex 0 5 0.75
      vertex -1.91342 4.6194 0.75
    endloop
  endfacet
  facet normal 0.195089 -0.980786 0
    outer loop
      vertex 0 5 0.75
      vertex -1.91342 4.6194 -0.75
      vertex 0 5 -0.75
    endloop
  endfacet
  facet normal -0.195089 -0.980786 0
    outer loop
      vertex 0 5 -0.75
      vertex 1.91342 4.6194 0.75
      vertex 0 5 0.75
    endloop
  endfacet
  facet normal -0.195089 -0.980786 -0
    outer loop
      vertex 1.91342 4.6194 0.75
      vertex 0 5 -0.75
      vertex 1.91342 4.6194 -0.75
    endloop
  endfacet
  facet normal 0.831467 0.555574 0
    outer loop
      vertex -3.53553 -3.53553 0.75
      vertex -4.6194 -1.91342 -0.75
      vertex -4.6194 -1.91342 0.75
    endloop
  endfacet
  facet normal 0.831467 0.555574 0
    outer loop
      vertex -4.6194 -1.91342 -0.75
      vertex -3.53553 -3.53553 0.75
      vertex -3.53553 -3.53553 -0.75
    endloop
  endfacet
  facet normal -0.555574 -0.831467 0
    outer loop
      vertex 1.91342 4.6194 -0.75
      vertex 3.53553 3.53553 0.75
      vertex 1.91342 4.6194 0.75
    endloop
  endfacet
  facet normal -0.555574 -0.831467 -0
    outer loop
      vertex 3.53553 3.53553 0.75
      vertex 1.91342 4.6194 -0.75
      vertex 3.53553 3.53553 -0.75
    endloop
  endfacet
  facet normal 0.980786 0.195089 0
    outer loop
      vertex -4.6194 -1.91342 0.75
      vertex -5 0 -0.75
      vertex -5 0 0.75
    endloop
  endfacet
  facet normal 0.980786 0.195089 0
    outer loop
      vertex -5 0 -0.75
      vertex -4.6194 -1.91342 0.75
      vertex -4.6194 -1.91342 -0.75
    endloop
  endfacet
  facet normal 0.555574 0.831467 -0
    outer loop
      vertex -1.91342 -4.6194 -0.75
      vertex -3.53553 -3.53553 0.75
      vertex -1.91342 -4.6194 0.75
    endloop
  endfacet
  facet normal 0.555574 0.831467 0
    outer loop
      vertex -3.53553 -3.53553 0.75
      vertex -1.91342 -4.6194 -0.75
      vertex -3.53553 -3.53553 -0.75
    endloop
  endfacet
endsolid OpenSCAD_Model
