solid OpenSCAD_Model
  facet normal -0 0 1
    outer loop
      vertex 0 30 5
      vertex 70 0 5
      vertex 70 30 5
    endloop
  endfacet
  facet normal 0 0 1
    outer loop
      vertex 70 0 5
      vertex 0 30 5
      vertex 0 0 5
    endloop
  endfacet
  facet normal 0 0 -1
    outer loop
      vertex 0 0 0
      vertex 70 30 0
      vertex 70 0 0
    endloop
  endfacet
  facet normal -0 0 -1
    outer loop
      vertex 70 30 0
      vertex 0 0 0
      vertex 0 30 0
    endloop
  endfacet
  facet normal 0 -1 0
    outer loop
      vertex 0 0 0
      vertex 70 0 5
      vertex 0 0 5
    endloop
  endfacet
  facet normal 0 -1 -0
    outer loop
      vertex 70 0 5
      vertex 0 0 0
      vertex 70 0 0
    endloop
  endfacet
  facet normal 1 -0 0
    outer loop
      vertex 70 0 5
      vertex 70 30 0
      vertex 70 30 5
    endloop
  endfacet
  facet normal 1 0 0
    outer loop
      vertex 70 30 0
      vertex 70 0 5
      vertex 70 0 0
    endloop
  endfacet
  facet normal 0 1 -0
    outer loop
      vertex 70 30 0
      vertex 0 30 5
      vertex 70 30 5
    endloop
  endfacet
  facet normal 0 1 0
    outer loop
      vertex 0 30 5
      vertex 70 30 0
      vertex 0 30 0
    endloop
  endfacet
  facet normal -1 0 0
    outer loop
      vertex 0 0 0
      vertex 0 30 5
      vertex 0 30 0
    endloop
  endfacet
  facet normal -1 -0 0
    outer loop
      vertex 0 30 5
      vertex 0 0 0
      vertex 0 0 5
    endloop
  endfacet
endsolid OpenSCAD_Model
