solid OpenSCAD_Model
  facet normal 1 0 0
    outer loop
      vertex -45 12.5 7.5
      vertex -45 10 5
      vertex -45 12.5 -7.5
    endloop
  endfacet
  facet normal 1 0 0
    outer loop
      vertex -45 12.5 7.5
      vertex -45 -10 5
      vertex -45 10 5
    endloop
  endfacet
  facet normal 1 0 0
    outer loop
      vertex -45 -10 5
      vertex -45 -12.5 7.5
      vertex -45 -10 -5
    endloop
  endfacet
  facet normal 1 -0 0
    outer loop
      vertex -45 -12.5 7.5
      vertex -45 -10 5
      vertex -45 12.5 7.5
    endloop
  endfacet
  facet normal 1 -0 0
    outer loop
      vertex -45 10 -5
      vertex -45 12.5 -7.5
      vertex -45 10 5
    endloop
  endfacet
  facet normal 1 -0 0
    outer loop
      vertex -45 -10 -5
      vertex -45 12.5 -7.5
      vertex -45 10 -5
    endloop
  endfacet
  facet normal 1 0 0
    outer loop
      vertex -45 -10 -5
      vertex -45 -12.5 -7.5
      vertex -45 12.5 -7.5
    endloop
  endfacet
  facet normal 1 0 0
    outer loop
      vertex -45 -12.5 -7.5
      vertex -45 -10 -5
      vertex -45 -12.5 7.5
    endloop
  endfacet
  facet normal -0 0 1
    outer loop
      vertex -75 12.5 7.5
      vertex -45 -12.5 7.5
      vertex -45 12.5 7.5
    endloop
  endfacet
  facet normal 0 0 1
    outer loop
      vertex -45 -12.5 7.5
      vertex -75 12.5 7.5
      vertex -75 -12.5 7.5
    endloop
  endfacet
  facet normal 0 0 -1
    outer loop
      vertex -75 -12.5 -7.5
      vertex -45 12.5 -7.5
      vertex -45 -12.5 -7.5
    endloop
  endfacet
  facet normal -0 0 -1
    outer loop
      vertex -45 12.5 -7.5
      vertex -75 -12.5 -7.5
      vertex -75 12.5 -7.5
    endloop
  endfacet
  facet normal -1 0 0
    outer loop
      vertex -75 -12.5 -7.5
      vertex -75 12.5 7.5
      vertex -75 12.5 -7.5
    endloop
  endfacet
  facet normal -1 -0 0
    outer loop
      vertex -75 12.5 7.5
      vertex -75 -12.5 -7.5
      vertex -75 -12.5 7.5
    endloop
  endfacet
  facet normal 0 1 -0
    outer loop
      vertex -45 12.5 -7.5
      vertex -75 12.5 7.5
      vertex -45 12.5 7.5
    endloop
  endfacet
  facet normal 0 1 0
    outer loop
      vertex -75 12.5 7.5
      vertex -45 12.5 -7.5
      vertex -75 12.5 -7.5
    endloop
  endfacet
  facet normal 0 -1 0
    outer loop
      vertex -75 -12.5 -7.5
      vertex -45 -12.5 7.5
      vertex -75 -12.5 7.5
    endloop
  endfacet
  facet normal 0 -1 -0
    outer loop
      vertex -45 -12.5 7.5
      vertex -75 -12.5 -7.5
      vertex -45 -12.5 -7.5
    endloop
  endfacet
  facet normal 0 0 1
    outer loop
      vertex 50 15 5
      vertex 42.5 12.5 5
      vertex 50 12.5 5
    endloop
  endfacet
  facet normal 0 0 1
    outer loop
      vertex 42.5 12.5 5
      vertex 20 -5 5
      vertex 42.5 -5 5
    endloop
  endfacet
  facet normal -0 0 1
    outer loop
      vertex 10 15 5
      vertex 42.5 12.5 5
      vertex 50 15 5
    endloop
  endfacet
  facet normal 0 0 1
    outer loop
      vertex 10 10 5
      vertex 42.5 12.5 5
      vertex 10 15 5
    endloop
  endfacet
  facet normal 0 0 1
    outer loop
      vertex 42.5 12.5 5
      vertex 10 10 5
      vertex 20 -5 5
    endloop
  endfacet
  facet normal 0 0 1
    outer loop
      vertex 20 -5 5
      vertex 10 10 5
      vertex 20 -10 5
    endloop
  endfacet
  facet normal 0 0 1
    outer loop
      vertex -45 -10 5
      vertex 10 10 5
      vertex -45 10 5
    endloop
  endfacet
  facet normal 0 0 1
    outer loop
      vertex 10 10 5
      vertex -45 -10 5
      vertex 20 -10 5
    endloop
  endfacet
  facet normal 0 0 -1
    outer loop
      vertex 20 -10 -5
      vertex 10 10 -5
      vertex 20 -5 -5
    endloop
  endfacet
  facet normal 0 0 -1
    outer loop
      vertex -45 -10 -5
      vertex 10 10 -5
      vertex 20 -10 -5
    endloop
  endfacet
  facet normal -0 0 -1
    outer loop
      vertex 10 10 -5
      vertex -45 -10 -5
      vertex -45 10 -5
    endloop
  endfacet
  facet normal 0 0 -1
    outer loop
      vertex 42.5 -5 -5
      vertex 20 -5 -5
      vertex 42.5 12.5 -5
    endloop
  endfacet
  facet normal 0 0 -1
    outer loop
      vertex 42.5 12.5 -5
      vertex 50 15 -5
      vertex 50 12.5 -5
    endloop
  endfacet
  facet normal 0 0 -1
    outer loop
      vertex 10 10 -5
      vertex 42.5 12.5 -5
      vertex 20 -5 -5
    endloop
  endfacet
  facet normal 0 0 -1
    outer loop
      vertex 10 15 -5
      vertex 42.5 12.5 -5
      vertex 10 10 -5
    endloop
  endfacet
  facet normal 0 0 -1
    outer loop
      vertex 42.5 12.5 -5
      vertex 10 15 -5
      vertex 50 15 -5
    endloop
  endfacet
  facet normal 0 1 -0
    outer loop
      vertex 10 10 -5
      vertex -45 10 5
      vertex 10 10 5
    endloop
  endfacet
  facet normal 0 1 0
    outer loop
      vertex -45 10 5
      vertex 10 10 -5
      vertex -45 10 -5
    endloop
  endfacet
  facet normal 0 -1 0
    outer loop
      vertex -45 -10 -5
      vertex 20 -10 5
      vertex -45 -10 5
    endloop
  endfacet
  facet normal 0 -1 -0
    outer loop
      vertex 20 -10 5
      vertex -45 -10 -5
      vertex 20 -10 -5
    endloop
  endfacet
  facet normal 1 -0 0
    outer loop
      vertex 20 -10 5
      vertex 20 -5 -5
      vertex 20 -5 5
    endloop
  endfacet
  facet normal 1 0 0
    outer loop
      vertex 20 -5 -5
      vertex 20 -10 5
      vertex 20 -10 -5
    endloop
  endfacet
  facet normal 1 -0 0
    outer loop
      vertex 50 12.5 5
      vertex 50 15 -5
      vertex 50 15 5
    endloop
  endfacet
  facet normal 1 0 0
    outer loop
      vertex 50 15 -5
      vertex 50 12.5 5
      vertex 50 12.5 -5
    endloop
  endfacet
  facet normal -1 0 0
    outer loop
      vertex 10 10 -5
      vertex 10 15 5
      vertex 10 15 -5
    endloop
  endfacet
  facet normal -1 -0 0
    outer loop
      vertex 10 15 5
      vertex 10 10 -5
      vertex 10 10 5
    endloop
  endfacet
  facet normal 0 1 -0
    outer loop
      vertex 50 15 -5
      vertex 10 15 5
      vertex 50 15 5
    endloop
  endfacet
  facet normal 0 1 0
    outer loop
      vertex 10 15 5
      vertex 50 15 -5
      vertex 10 15 -5
    endloop
  endfacet
  facet normal 0 -1 0
    outer loop
      vertex 20 -5 -5
      vertex 42.5 -5 5
      vertex 20 -5 5
    endloop
  endfacet
  facet normal 0 -1 -0
    outer loop
      vertex 42.5 -5 5
      vertex 20 -5 -5
      vertex 42.5 -5 -5
    endloop
  endfacet
  facet normal 1 0 0
    outer loop
      vertex 77.5 12.5 7.5
      vertex 77.5 10 5
      vertex 77.5 12.5 -7.5
    endloop
  endfacet
  facet normal 1 0 0
    outer loop
      vertex 77.5 12.5 7.5
      vertex 77.5 -10 5
      vertex 77.5 10 5
    endloop
  endfacet
  facet normal 1 0 0
    outer loop
      vertex 77.5 -10 5
      vertex 77.5 -12.5 7.5
      vertex 77.5 -10 -5
    endloop
  endfacet
  facet normal 1 -0 0
    outer loop
      vertex 77.5 -12.5 7.5
      vertex 77.5 -10 5
      vertex 77.5 12.5 7.5
    endloop
  endfacet
  facet normal 1 -0 0
    outer loop
      vertex 77.5 10 -5
      vertex 77.5 12.5 -7.5
      vertex 77.5 10 5
    endloop
  endfacet
  facet normal 1 -0 0
    outer loop
      vertex 77.5 -10 -5
      vertex 77.5 12.5 -7.5
      vertex 77.5 10 -5
    endloop
  endfacet
  facet normal 1 0 0
    outer loop
      vertex 77.5 -10 -5
      vertex 77.5 -12.5 -7.5
      vertex 77.5 12.5 -7.5
    endloop
  endfacet
  facet normal 1 0 0
    outer loop
      vertex 77.5 -12.5 -7.5
      vertex 77.5 -10 -5
      vertex 77.5 -12.5 7.5
    endloop
  endfacet
  facet normal -0 0 1
    outer loop
      vertex 42.5 12.5 7.5
      vertex 77.5 -12.5 7.5
      vertex 77.5 12.5 7.5
    endloop
  endfacet
  facet normal 0 0 1
    outer loop
      vertex 77.5 -12.5 7.5
      vertex 42.5 12.5 7.5
      vertex 42.5 -12.5 7.5
    endloop
  endfacet
  facet normal 0 0 -1
    outer loop
      vertex 42.5 -12.5 -7.5
      vertex 77.5 12.5 -7.5
      vertex 77.5 -12.5 -7.5
    endloop
  endfacet
  facet normal -0 0 -1
    outer loop
      vertex 77.5 12.5 -7.5
      vertex 42.5 -12.5 -7.5
      vertex 42.5 12.5 -7.5
    endloop
  endfacet
  facet normal -1 0 0
    outer loop
      vertex 42.5 12.5 -7.5
      vertex 42.5 -5 -5
      vertex 42.5 12.5 -5
    endloop
  endfacet
  facet normal -1 -0 0
    outer loop
      vertex 42.5 -5 -5
      vertex 42.5 -12.5 -7.5
      vertex 42.5 -5 5
    endloop
  endfacet
  facet normal -1 0 0
    outer loop
      vertex 42.5 -12.5 -7.5
      vertex 42.5 -5 -5
      vertex 42.5 12.5 -7.5
    endloop
  endfacet
  facet normal -1 0 0
    outer loop
      vertex 42.5 -5 5
      vertex 42.5 12.5 7.5
      vertex 42.5 12.5 5
    endloop
  endfacet
  facet normal -1 0 0
    outer loop
      vertex 42.5 -5 5
      vertex 42.5 -12.5 7.5
      vertex 42.5 12.5 7.5
    endloop
  endfacet
  facet normal -1 0 0
    outer loop
      vertex 42.5 -12.5 7.5
      vertex 42.5 -5 5
      vertex 42.5 -12.5 -7.5
    endloop
  endfacet
  facet normal 0 1 0
    outer loop
      vertex 77.5 12.5 7.5
      vertex 50 12.5 5
      vertex 42.5 12.5 7.5
    endloop
  endfacet
  facet normal 0 1 0
    outer loop
      vertex 77.5 12.5 7.5
      vertex 50 12.5 -5
      vertex 50 12.5 5
    endloop
  endfacet
  facet normal 0 1 -0
    outer loop
      vertex 77.5 12.5 -7.5
      vertex 50 12.5 -5
      vertex 77.5 12.5 7.5
    endloop
  endfacet
  facet normal 0 1 0
    outer loop
      vertex 42.5 12.5 -7.5
      vertex 50 12.5 -5
      vertex 77.5 12.5 -7.5
    endloop
  endfacet
  facet normal 0 1 0
    outer loop
      vertex 50 12.5 -5
      vertex 42.5 12.5 -7.5
      vertex 42.5 12.5 -5
    endloop
  endfacet
  facet normal 0 1 0
    outer loop
      vertex 42.5 12.5 7.5
      vertex 50 12.5 5
      vertex 42.5 12.5 5
    endloop
  endfacet
  facet normal 0 -1 0
    outer loop
      vertex 42.5 -12.5 -7.5
      vertex 77.5 -12.5 7.5
      vertex 42.5 -12.5 7.5
    endloop
  endfacet
  facet normal 0 -1 -0
    outer loop
      vertex 77.5 -12.5 7.5
      vertex 42.5 -12.5 -7.5
      vertex 77.5 -12.5 -7.5
    endloop
  endfacet
  facet normal 1 -0 0
    outer loop
      vertex 110 -10 5
      vertex 110 10 -5
      vertex 110 10 5
    endloop
  endfacet
  facet normal 1 0 0
    outer loop
      vertex 110 10 -5
      vertex 110 -10 5
      vertex 110 -10 -5
    endloop
  endfacet
  facet normal -0 0 1
    outer loop
      vertex 77.5 10 5
      vertex 110 -10 5
      vertex 110 10 5
    endloop
  endfacet
  facet normal 0 0 1
    outer loop
      vertex 110 -10 5
      vertex 77.5 10 5
      vertex 77.5 -10 5
    endloop
  endfacet
  facet normal 0 0 -1
    outer loop
      vertex 77.5 -10 -5
      vertex 110 10 -5
      vertex 110 -10 -5
    endloop
  endfacet
  facet normal -0 0 -1
    outer loop
      vertex 110 10 -5
      vertex 77.5 -10 -5
      vertex 77.5 10 -5
    endloop
  endfacet
  facet normal 0 1 -0
    outer loop
      vertex 110 10 -5
      vertex 77.5 10 5
      vertex 110 10 5
    endloop
  endfacet
  facet normal 0 1 0
    outer loop
      vertex 77.5 10 5
      vertex 110 10 -5
      vertex 77.5 10 -5
    endloop
  endfacet
  facet normal 0 -1 0
    outer loop
      vertex 77.5 -10 -5
      vertex 110 -10 5
      vertex 77.5 -10 5
    endloop
  endfacet
  facet normal 0 -1 -0
    outer loop
      vertex 110 -10 5
      vertex 77.5 -10 -5
      vertex 110 -10 -5
    endloop
  endfacet
endsolid OpenSCAD_Model
