solid OpenSCAD_Model
  facet normal 1 -0 0
    outer loop
      vertex 10 -10 60
      vertex 10 10 40
      vertex 10 10 60
    endloop
  endfacet
  facet normal 1 0 0
    outer loop
      vertex 10 10 40
      vertex 10 -10 60
      vertex 10 -10 40
    endloop
  endfacet
  facet normal -0 0 1
    outer loop
      vertex -10 10 60
      vertex 10 -10 60
      vertex 10 10 60
    endloop
  endfacet
  facet normal 0 0 1
    outer loop
      vertex 10 -10 60
      vertex -10 10 60
      vertex -10 -10 60
    endloop
  endfacet
  facet normal 0 0 -1
    outer loop
      vertex -10 -10 40
      vertex 10 10 40
      vertex 10 -10 40
    endloop
  endfacet
  facet normal -0 0 -1
    outer loop
      vertex 10 10 40
      vertex -10 -10 40
      vertex -10 10 40
    endloop
  endfacet
  facet normal -1 0 0
    outer loop
      vertex -10 -10 40
      vertex -10 10 60
      vertex -10 10 40
    endloop
  endfacet
  facet normal -1 -0 0
    outer loop
      vertex -10 10 60
      vertex -10 -10 40
      vertex -10 -10 60
    endloop
  endfacet
  facet normal 0 1 -0
    outer loop
      vertex 10 10 40
      vertex -10 10 60
      vertex 10 10 60
    endloop
  endfacet
  facet normal 0 1 0
    outer loop
      vertex -10 10 60
      vertex 10 10 40
      vertex -10 10 40
    endloop
  endfacet
  facet normal 0 -1 0
    outer loop
      vertex -10 -10 40
      vertex 10 -10 60
      vertex -10 -10 60
    endloop
  endfacet
  facet normal 0 -1 -0
    outer loop
      vertex 10 -10 60
      vertex -10 -10 40
      vertex 10 -10 40
    endloop
  endfacet
  facet normal 0 -1 0
    outer loop
      vertex -50 -10 25
      vertex -30 -10 35
      vertex -50 -10 35
    endloop
  endfacet
  facet normal 0 -1 -0
    outer loop
      vertex -30 -10 35
      vertex -50 -10 25
      vertex -30 -10 25
    endloop
  endfacet
  facet normal 0 0 -1
    outer loop
      vertex -50 -10 25
      vertex -30 10 25
      vertex -30 -10 25
    endloop
  endfacet
  facet normal -0 0 -1
    outer loop
      vertex -30 10 25
      vertex -50 -10 25
      vertex -50 10 25
    endloop
  endfacet
  facet normal -0 0 1
    outer loop
      vertex -50 10 35
      vertex -30 -10 35
      vertex -30 10 35
    endloop
  endfacet
  facet normal 0 0 1
    outer loop
      vertex -30 -10 35
      vertex -50 10 35
      vertex -50 -10 35
    endloop
  endfacet
  facet normal 0 1 -0
    outer loop
      vertex -30 10 25
      vertex -50 10 35
      vertex -30 10 35
    endloop
  endfacet
  facet normal 0 1 0
    outer loop
      vertex -50 10 35
      vertex -30 10 25
      vertex -50 10 25
    endloop
  endfacet
  facet normal 1 -0 0
    outer loop
      vertex -30 -10 35
      vertex -30 10 25
      vertex -30 10 35
    endloop
  endfacet
  facet normal 1 0 0
    outer loop
      vertex -30 10 25
      vertex -30 -10 35
      vertex -30 -10 25
    endloop
  endfacet
  facet normal -1 0 0
    outer loop
      vertex -50 -10 25
      vertex -50 10 35
      vertex -50 10 25
    endloop
  endfacet
  facet normal -1 -0 0
    outer loop
      vertex -50 10 35
      vertex -50 -10 25
      vertex -50 -10 35
    endloop
  endfacet
  facet normal 0 -1 0
    outer loop
      vertex 10 -10 25
      vertex 30 -10 35
      vertex 10 -10 35
    endloop
  endfacet
  facet normal 0 -1 -0
    outer loop
      vertex 30 -10 35
      vertex 10 -10 25
      vertex 30 -10 25
    endloop
  endfacet
  facet normal 0 0 -1
    outer loop
      vertex 10 -10 25
      vertex 30 10 25
      vertex 30 -10 25
    endloop
  endfacet
  facet normal -0 0 -1
    outer loop
      vertex 30 10 25
      vertex 10 -10 25
      vertex 10 10 25
    endloop
  endfacet
  facet normal -0 0 1
    outer loop
      vertex 10 10 35
      vertex 30 -10 35
      vertex 30 10 35
    endloop
  endfacet
  facet normal 0 0 1
    outer loop
      vertex 30 -10 35
      vertex 10 10 35
      vertex 10 -10 35
    endloop
  endfacet
  facet normal 0 1 -0
    outer loop
      vertex 30 10 25
      vertex 10 10 35
      vertex 30 10 35
    endloop
  endfacet
  facet normal 0 1 0
    outer loop
      vertex 10 10 35
      vertex 30 10 25
      vertex 10 10 25
    endloop
  endfacet
  facet normal 1 -0 0
    outer loop
      vertex 30 -10 35
      vertex 30 10 25
      vertex 30 10 35
    endloop
  endfacet
  facet normal 1 0 0
    outer loop
      vertex 30 10 25
      vertex 30 -10 35
      vertex 30 -10 25
    endloop
  endfacet
  facet normal -1 0 0
    outer loop
      vertex 10 -10 25
      vertex 10 10 35
      vertex 10 10 25
    endloop
  endfacet
  facet normal -1 -0 0
    outer loop
      vertex 10 10 35
      vertex 10 -10 25
      vertex 10 -10 35
    endloop
  endfacet
  facet normal 0 -1 0
    outer loop
      vertex -70 -10 5
      vertex -50 -10 15
      vertex -70 -10 15
    endloop
  endfacet
  facet normal 0 -1 -0
    outer loop
      vertex -50 -10 15
      vertex -70 -10 5
      vertex -50 -10 5
    endloop
  endfacet
  facet normal 0 0 -1
    outer loop
      vertex -70 -10 5
      vertex -50 10 5
      vertex -50 -10 5
    endloop
  endfacet
  facet normal -0 0 -1
    outer loop
      vertex -50 10 5
      vertex -70 -10 5
      vertex -70 10 5
    endloop
  endfacet
  facet normal -0 0 1
    outer loop
      vertex -70 10 15
      vertex -50 -10 15
      vertex -50 10 15
    endloop
  endfacet
  facet normal 0 0 1
    outer loop
      vertex -50 -10 15
      vertex -70 10 15
      vertex -70 -10 15
    endloop
  endfacet
  facet normal 0 1 -0
    outer loop
      vertex -50 10 5
      vertex -70 10 15
      vertex -50 10 15
    endloop
  endfacet
  facet normal 0 1 0
    outer loop
      vertex -70 10 15
      vertex -50 10 5
      vertex -70 10 5
    endloop
  endfacet
  facet normal 1 -0 0
    outer loop
      vertex -50 -10 15
      vertex -50 10 5
      vertex -50 10 15
    endloop
  endfacet
  facet normal 1 0 0
    outer loop
      vertex -50 10 5
      vertex -50 -10 15
      vertex -50 -10 5
    endloop
  endfacet
  facet normal -1 0 0
    outer loop
      vertex -70 -10 5
      vertex -70 10 15
      vertex -70 10 5
    endloop
  endfacet
  facet normal -1 -0 0
    outer loop
      vertex -70 10 15
      vertex -70 -10 5
      vertex -70 -10 15
    endloop
  endfacet
  facet normal 0 -1 0
    outer loop
      vertex 30 -10 5
      vertex 50 -10 15
      vertex 30 -10 15
    endloop
  endfacet
  facet normal 0 -1 -0
    outer loop
      vertex 50 -10 15
      vertex 30 -10 5
      vertex 50 -10 5
    endloop
  endfacet
  facet normal 0 0 -1
    outer loop
      vertex 30 -10 5
      vertex 50 10 5
      vertex 50 -10 5
    endloop
  endfacet
  facet normal -0 0 -1
    outer loop
      vertex 50 10 5
      vertex 30 -10 5
      vertex 30 10 5
    endloop
  endfacet
  facet normal -0 0 1
    outer loop
      vertex 30 10 15
      vertex 50 -10 15
      vertex 50 10 15
    endloop
  endfacet
  facet normal 0 0 1
    outer loop
      vertex 50 -10 15
      vertex 30 10 15
      vertex 30 -10 15
    endloop
  endfacet
  facet normal 0 1 -0
    outer loop
      vertex 50 10 5
      vertex 30 10 15
      vertex 50 10 15
    endloop
  endfacet
  facet normal 0 1 0
    outer loop
      vertex 30 10 15
      vertex 50 10 5
      vertex 30 10 5
    endloop
  endfacet
  facet normal 1 -0 0
    outer loop
      vertex 50 -10 15
      vertex 50 10 5
      vertex 50 10 15
    endloop
  endfacet
  facet normal 1 0 0
    outer loop
      vertex 50 10 5
      vertex 50 -10 15
      vertex 50 -10 5
    endloop
  endfacet
  facet normal -1 0 0
    outer loop
      vertex 30 -10 5
      vertex 30 10 15
      vertex 30 10 5
    endloop
  endfacet
  facet normal -1 -0 0
    outer loop
      vertex 30 10 15
      vertex 30 -10 5
      vertex 30 -10 15
    endloop
  endfacet
  facet normal 1 -0 0
    outer loop
      vertex -40 -60 0
      vertex -40 -40 -20
      vertex -40 -40 0
    endloop
  endfacet
  facet normal 1 0 0
    outer loop
      vertex -40 -40 -20
      vertex -40 -60 0
      vertex -40 -60 -20
    endloop
  endfacet
  facet normal -0 0 1
    outer loop
      vertex -60 -40 0
      vertex -40 -60 0
      vertex -40 -40 0
    endloop
  endfacet
  facet normal 0 0 1
    outer loop
      vertex -40 -60 0
      vertex -60 -40 0
      vertex -60 -60 0
    endloop
  endfacet
  facet normal 0 0 -1
    outer loop
      vertex -60 -60 -20
      vertex -40 -40 -20
      vertex -40 -60 -20
    endloop
  endfacet
  facet normal -0 0 -1
    outer loop
      vertex -40 -40 -20
      vertex -60 -60 -20
      vertex -60 -40 -20
    endloop
  endfacet
  facet normal -1 0 0
    outer loop
      vertex -60 -60 -20
      vertex -60 -40 0
      vertex -60 -40 -20
    endloop
  endfacet
  facet normal -1 -0 0
    outer loop
      vertex -60 -40 0
      vertex -60 -60 -20
      vertex -60 -60 0
    endloop
  endfacet
  facet normal 0 1 -0
    outer loop
      vertex -40 -40 -20
      vertex -60 -40 0
      vertex -40 -40 0
    endloop
  endfacet
  facet normal 0 1 0
    outer loop
      vertex -60 -40 0
      vertex -40 -40 -20
      vertex -60 -40 -20
    endloop
  endfacet
  facet normal 0 -1 0
    outer loop
      vertex -60 -60 -20
      vertex -40 -60 0
      vertex -60 -60 0
    endloop
  endfacet
  facet normal 0 -1 -0
    outer loop
      vertex -40 -60 0
      vertex -60 -60 -20
      vertex -40 -60 -20
    endloop
  endfacet
  facet normal 1 -0 0
    outer loop
      vertex 60 -60 0
      vertex 60 -40 -20
      vertex 60 -40 0
    endloop
  endfacet
  facet normal 1 0 0
    outer loop
      vertex 60 -40 -20
      vertex 60 -60 0
      vertex 60 -60 -20
    endloop
  endfacet
  facet normal -0 0 1
    outer loop
      vertex 40 -40 0
      vertex 60 -60 0
      vertex 60 -40 0
    endloop
  endfacet
  facet normal 0 0 1
    outer loop
      vertex 60 -60 0
      vertex 40 -40 0
      vertex 40 -60 0
    endloop
  endfacet
  facet normal 0 0 -1
    outer loop
      vertex 40 -60 -20
      vertex 60 -40 -20
      vertex 60 -60 -20
    endloop
  endfacet
  facet normal -0 0 -1
    outer loop
      vertex 60 -40 -20
      vertex 40 -60 -20
      vertex 40 -40 -20
    endloop
  endfacet
  facet normal -1 0 0
    outer loop
      vertex 40 -60 -20
      vertex 40 -40 0
      vertex 40 -40 -20
    endloop
  endfacet
  facet normal -1 -0 0
    outer loop
      vertex 40 -40 0
      vertex 40 -60 -20
      vertex 40 -60 0
    endloop
  endfacet
  facet normal 0 1 -0
    outer loop
      vertex 60 -40 -20
      vertex 40 -40 0
      vertex 60 -40 0
    endloop
  endfacet
  facet normal 0 1 0
    outer loop
      vertex 40 -40 0
      vertex 60 -40 -20
      vertex 40 -40 -20
    endloop
  endfacet
  facet normal 0 -1 0
    outer loop
      vertex 40 -60 -20
      vertex 60 -60 0
      vertex 40 -60 0
    endloop
  endfacet
  facet normal 0 -1 -0
    outer loop
      vertex 60 -60 0
      vertex 40 -60 -20
      vertex 60 -60 -20
    endloop
  endfacet
  facet normal 1 -0 0
    outer loop
      vertex -40 40 0
      vertex -40 60 -20
      vertex -40 60 0
    endloop
  endfacet
  facet normal 1 0 0
    outer loop
      vertex -40 60 -20
      vertex -40 40 0
      vertex -40 40 -20
    endloop
  endfacet
  facet normal -0 0 1
    outer loop
      vertex -60 60 0
      vertex -40 40 0
      vertex -40 60 0
    endloop
  endfacet
  facet normal 0 0 1
    outer loop
      vertex -40 40 0
      vertex -60 60 0
      vertex -60 40 0
    endloop
  endfacet
  facet normal 0 0 -1
    outer loop
      vertex -60 40 -20
      vertex -40 60 -20
      vertex -40 40 -20
    endloop
  endfacet
  facet normal -0 0 -1
    outer loop
      vertex -40 60 -20
      vertex -60 40 -20
      vertex -60 60 -20
    endloop
  endfacet
  facet normal -1 0 0
    outer loop
      vertex -60 40 -20
      vertex -60 60 0
      vertex -60 60 -20
    endloop
  endfacet
  facet normal -1 -0 0
    outer loop
      vertex -60 60 0
      vertex -60 40 -20
      vertex -60 40 0
    endloop
  endfacet
  facet normal 0 1 -0
    outer loop
      vertex -40 60 -20
      vertex -60 60 0
      vertex -40 60 0
    endloop
  endfacet
  facet normal 0 1 0
    outer loop
      vertex -60 60 0
      vertex -40 60 -20
      vertex -60 60 -20
    endloop
  endfacet
  facet normal 0 -1 0
    outer loop
      vertex -60 40 -20
      vertex -40 40 0
      vertex -60 40 0
    endloop
  endfacet
  facet normal 0 -1 -0
    outer loop
      vertex -40 40 0
      vertex -60 40 -20
      vertex -40 40 -20
    endloop
  endfacet
  facet normal 1 -0 0
    outer loop
      vertex 60 40 0
      vertex 60 60 -20
      vertex 60 60 0
    endloop
  endfacet
  facet normal 1 0 0
    outer loop
      vertex 60 60 -20
      vertex 60 40 0
      vertex 60 40 -20
    endloop
  endfacet
  facet normal -0 0 1
    outer loop
      vertex 40 60 0
      vertex 60 40 0
      vertex 60 60 0
    endloop
  endfacet
  facet normal 0 0 1
    outer loop
      vertex 60 40 0
      vertex 40 60 0
      vertex 40 40 0
    endloop
  endfacet
  facet normal 0 0 -1
    outer loop
      vertex 40 40 -20
      vertex 60 60 -20
      vertex 60 40 -20
    endloop
  endfacet
  facet normal -0 0 -1
    outer loop
      vertex 60 60 -20
      vertex 40 40 -20
      vertex 40 60 -20
    endloop
  endfacet
  facet normal -1 0 0
    outer loop
      vertex 40 40 -20
      vertex 40 60 0
      vertex 40 60 -20
    endloop
  endfacet
  facet normal -1 -0 0
    outer loop
      vertex 40 60 0
      vertex 40 40 -20
      vertex 40 40 0
    endloop
  endfacet
  facet normal 0 1 -0
    outer loop
      vertex 60 60 -20
      vertex 40 60 0
      vertex 60 60 0
    endloop
  endfacet
  facet normal 0 1 0
    outer loop
      vertex 40 60 0
      vertex 60 60 -20
      vertex 40 60 -20
    endloop
  endfacet
  facet normal 0 -1 0
    outer loop
      vertex 40 40 -20
      vertex 60 40 0
      vertex 40 40 0
    endloop
  endfacet
  facet normal 0 -1 -0
    outer loop
      vertex 60 40 0
      vertex 40 40 -20
      vertex 60 40 -20
    endloop
  endfacet
  facet normal 1 -0 0
    outer loop
      vertex -40 -10 -20
      vertex -40 10 -40
      vertex -40 10 -20
    endloop
  endfacet
  facet normal 1 0 0
    outer loop
      vertex -40 10 -40
      vertex -40 -10 -20
      vertex -40 -10 -40
    endloop
  endfacet
  facet normal -0 0 1
    outer loop
      vertex -60 10 -20
      vertex -40 -10 -20
      vertex -40 10 -20
    endloop
  endfacet
  facet normal 0 0 1
    outer loop
      vertex -40 -10 -20
      vertex -60 10 -20
      vertex -60 -10 -20
    endloop
  endfacet
  facet normal 0 0 -1
    outer loop
      vertex -60 -10 -40
      vertex -40 10 -40
      vertex -40 -10 -40
    endloop
  endfacet
  facet normal -0 0 -1
    outer loop
      vertex -40 10 -40
      vertex -60 -10 -40
      vertex -60 10 -40
    endloop
  endfacet
  facet normal -1 0 0
    outer loop
      vertex -60 -10 -40
      vertex -60 10 -20
      vertex -60 10 -40
    endloop
  endfacet
  facet normal -1 -0 0
    outer loop
      vertex -60 10 -20
      vertex -60 -10 -40
      vertex -60 -10 -20
    endloop
  endfacet
  facet normal 0 1 -0
    outer loop
      vertex -40 10 -40
      vertex -60 10 -20
      vertex -40 10 -20
    endloop
  endfacet
  facet normal 0 1 0
    outer loop
      vertex -60 10 -20
      vertex -40 10 -40
      vertex -60 10 -40
    endloop
  endfacet
  facet normal 0 -1 0
    outer loop
      vertex -60 -10 -40
      vertex -40 -10 -20
      vertex -60 -10 -20
    endloop
  endfacet
  facet normal 0 -1 -0
    outer loop
      vertex -40 -10 -20
      vertex -60 -10 -40
      vertex -40 -10 -40
    endloop
  endfacet
  facet normal 1 -0 0
    outer loop
      vertex 60 -10 -20
      vertex 60 10 -40
      vertex 60 10 -20
    endloop
  endfacet
  facet normal 1 0 0
    outer loop
      vertex 60 10 -40
      vertex 60 -10 -20
      vertex 60 -10 -40
    endloop
  endfacet
  facet normal -0 0 1
    outer loop
      vertex 40 10 -20
      vertex 60 -10 -20
      vertex 60 10 -20
    endloop
  endfacet
  facet normal 0 0 1
    outer loop
      vertex 60 -10 -20
      vertex 40 10 -20
      vertex 40 -10 -20
    endloop
  endfacet
  facet normal 0 0 -1
    outer loop
      vertex 40 -10 -40
      vertex 60 10 -40
      vertex 60 -10 -40
    endloop
  endfacet
  facet normal -0 0 -1
    outer loop
      vertex 60 10 -40
      vertex 40 -10 -40
      vertex 40 10 -40
    endloop
  endfacet
  facet normal -1 0 0
    outer loop
      vertex 40 -10 -40
      vertex 40 10 -20
      vertex 40 10 -40
    endloop
  endfacet
  facet normal -1 -0 0
    outer loop
      vertex 40 10 -20
      vertex 40 -10 -40
      vertex 40 -10 -20
    endloop
  endfacet
  facet normal 0 1 -0
    outer loop
      vertex 60 10 -40
      vertex 40 10 -20
      vertex 60 10 -20
    endloop
  endfacet
  facet normal 0 1 0
    outer loop
      vertex 40 10 -20
      vertex 60 10 -40
      vertex 40 10 -40
    endloop
  endfacet
  facet normal 0 -1 0
    outer loop
      vertex 40 -10 -40
      vertex 60 -10 -20
      vertex 40 -10 -20
    endloop
  endfacet
  facet normal 0 -1 -0
    outer loop
      vertex 60 -10 -20
      vertex 40 -10 -40
      vertex 60 -10 -40
    endloop
  endfacet
  facet normal 1 -0 0
    outer loop
      vertex 10 -60 -20
      vertex 10 -40 -40
      vertex 10 -40 -20
    endloop
  endfacet
  facet normal 1 0 0
    outer loop
      vertex 10 -40 -40
      vertex 10 -60 -20
      vertex 10 -60 -40
    endloop
  endfacet
  facet normal -0 0 1
    outer loop
      vertex -10 -40 -20
      vertex 10 -60 -20
      vertex 10 -40 -20
    endloop
  endfacet
  facet normal 0 0 1
    outer loop
      vertex 10 -60 -20
      vertex -10 -40 -20
      vertex -10 -60 -20
    endloop
  endfacet
  facet normal 0 0 -1
    outer loop
      vertex -10 -60 -40
      vertex 10 -40 -40
      vertex 10 -60 -40
    endloop
  endfacet
  facet normal -0 0 -1
    outer loop
      vertex 10 -40 -40
      vertex -10 -60 -40
      vertex -10 -40 -40
    endloop
  endfacet
  facet normal -1 0 0
    outer loop
      vertex -10 -60 -40
      vertex -10 -40 -20
      vertex -10 -40 -40
    endloop
  endfacet
  facet normal -1 -0 0
    outer loop
      vertex -10 -40 -20
      vertex -10 -60 -40
      vertex -10 -60 -20
    endloop
  endfacet
  facet normal 0 1 -0
    outer loop
      vertex 10 -40 -40
      vertex -10 -40 -20
      vertex 10 -40 -20
    endloop
  endfacet
  facet normal 0 1 0
    outer loop
      vertex -10 -40 -20
      vertex 10 -40 -40
      vertex -10 -40 -40
    endloop
  endfacet
  facet normal 0 -1 0
    outer loop
      vertex -10 -60 -40
      vertex 10 -60 -20
      vertex -10 -60 -20
    endloop
  endfacet
  facet normal 0 -1 -0
    outer loop
      vertex 10 -60 -20
      vertex -10 -60 -40
      vertex 10 -60 -40
    endloop
  endfacet
  facet normal 1 -0 0
    outer loop
      vertex 10 40 -20
      vertex 10 60 -40
      vertex 10 60 -20
    endloop
  endfacet
  facet normal 1 0 0
    outer loop
      vertex 10 60 -40
      vertex 10 40 -20
      vertex 10 40 -40
    endloop
  endfacet
  facet normal -0 0 1
    outer loop
      vertex -10 60 -20
      vertex 10 40 -20
      vertex 10 60 -20
    endloop
  endfacet
  facet normal 0 0 1
    outer loop
      vertex 10 40 -20
      vertex -10 60 -20
      vertex -10 40 -20
    endloop
  endfacet
  facet normal 0 0 -1
    outer loop
      vertex -10 40 -40
      vertex 10 60 -40
      vertex 10 40 -40
    endloop
  endfacet
  facet normal -0 0 -1
    outer loop
      vertex 10 60 -40
      vertex -10 40 -40
      vertex -10 60 -40
    endloop
  endfacet
  facet normal -1 0 0
    outer loop
      vertex -10 40 -40
      vertex -10 60 -20
      vertex -10 60 -40
    endloop
  endfacet
  facet normal -1 -0 0
    outer loop
      vertex -10 60 -20
      vertex -10 40 -40
      vertex -10 40 -20
    endloop
  endfacet
  facet normal 0 1 -0
    outer loop
      vertex 10 60 -40
      vertex -10 60 -20
      vertex 10 60 -20
    endloop
  endfacet
  facet normal 0 1 0
    outer loop
      vertex -10 60 -20
      vertex 10 60 -40
      vertex -10 60 -40
    endloop
  endfacet
  facet normal 0 -1 0
    outer loop
      vertex -10 40 -40
      vertex 10 40 -20
      vertex -10 40 -20
    endloop
  endfacet
  facet normal 0 -1 -0
    outer loop
      vertex 10 40 -20
      vertex -10 40 -40
      vertex 10 40 -40
    endloop
  endfacet
  facet normal 1 -0 0
    outer loop
      vertex 10 -10 -40
      vertex 10 10 -60
      vertex 10 10 -40
    endloop
  endfacet
  facet normal 1 0 0
    outer loop
      vertex 10 10 -60
      vertex 10 -10 -40
      vertex 10 -10 -60
    endloop
  endfacet
  facet normal -0 0 1
    outer loop
      vertex -10 10 -40
      vertex 10 -10 -40
      vertex 10 10 -40
    endloop
  endfacet
  facet normal 0 0 1
    outer loop
      vertex 10 -10 -40
      vertex -10 10 -40
      vertex -10 -10 -40
    endloop
  endfacet
  facet normal 0 0 -1
    outer loop
      vertex -10 -10 -60
      vertex 10 10 -60
      vertex 10 -10 -60
    endloop
  endfacet
  facet normal -0 0 -1
    outer loop
      vertex 10 10 -60
      vertex -10 -10 -60
      vertex -10 10 -60
    endloop
  endfacet
  facet normal -1 0 0
    outer loop
      vertex -10 -10 -60
      vertex -10 10 -40
      vertex -10 10 -60
    endloop
  endfacet
  facet normal -1 -0 0
    outer loop
      vertex -10 10 -40
      vertex -10 -10 -60
      vertex -10 -10 -40
    endloop
  endfacet
  facet normal 0 1 -0
    outer loop
      vertex 10 10 -60
      vertex -10 10 -40
      vertex 10 10 -40
    endloop
  endfacet
  facet normal 0 1 0
    outer loop
      vertex -10 10 -40
      vertex 10 10 -60
      vertex -10 10 -60
    endloop
  endfacet
  facet normal 0 -1 0
    outer loop
      vertex -10 -10 -60
      vertex 10 -10 -40
      vertex -10 -10 -40
    endloop
  endfacet
  facet normal 0 -1 -0
    outer loop
      vertex 10 -10 -40
      vertex -10 -10 -60
      vertex 10 -10 -60
    endloop
  endfacet
endsolid OpenSCAD_Model
