solid OpenSCAD_Model
  facet normal -0.382663 -0.923888 0
    outer loop
      vertex -15 -12.5 -2.5
      vertex -13.2322 -13.2322 2.5
      vertex -15 -12.5 2.5
    endloop
  endfacet
  facet normal -0.382663 -0.923888 -0
    outer loop
      vertex -13.2322 -13.2322 2.5
      vertex -15 -12.5 -2.5
      vertex -13.2322 -13.2322 -2.5
    endloop
  endfacet
  facet normal -0.923888 -0.382663 0
    outer loop
      vertex -12.5 -15 -2.5
      vertex -13.2322 -13.2322 2.5
      vertex -13.2322 -13.2322 -2.5
    endloop
  endfacet
  facet normal -0.923888 -0.382663 0
    outer loop
      vertex -13.2322 -13.2322 2.5
      vertex -12.5 -15 -2.5
      vertex -12.5 -15 2.5
    endloop
  endfacet
  facet normal 0.382663 -0.923888 0
    outer loop
      vertex -16.7678 -13.2322 -2.5
      vertex -15 -12.5 2.5
      vertex -16.7678 -13.2322 2.5
    endloop
  endfacet
  facet normal 0.382663 -0.923888 0
    outer loop
      vertex -15 -12.5 2.5
      vertex -16.7678 -13.2322 -2.5
      vertex -15 -12.5 -2.5
    endloop
  endfacet
  facet normal 0.923888 -0.382663 0
    outer loop
      vertex -17.5 -15 2.5
      vertex -16.7678 -13.2322 -2.5
      vertex -16.7678 -13.2322 2.5
    endloop
  endfacet
  facet normal 0.923888 -0.382663 0
    outer loop
      vertex -16.7678 -13.2322 -2.5
      vertex -17.5 -15 2.5
      vertex -17.5 -15 -2.5
    endloop
  endfacet
  facet normal -0.382663 0.923888 0
    outer loop
      vertex -13.2322 -16.7678 -2.5
      vertex -15 -17.5 2.5
      vertex -13.2322 -16.7678 2.5
    endloop
  endfacet
  facet normal -0.382663 0.923888 0
    outer loop
      vertex -15 -17.5 2.5
      vertex -13.2322 -16.7678 -2.5
      vertex -15 -17.5 -2.5
    endloop
  endfacet
  facet normal 0.923888 0.382663 0
    outer loop
      vertex -16.7678 -16.7678 2.5
      vertex -17.5 -15 -2.5
      vertex -17.5 -15 2.5
    endloop
  endfacet
  facet normal 0.923888 0.382663 0
    outer loop
      vertex -17.5 -15 -2.5
      vertex -16.7678 -16.7678 2.5
      vertex -16.7678 -16.7678 -2.5
    endloop
  endfacet
  facet normal -0.923888 0.382663 0
    outer loop
      vertex -13.2322 -16.7678 -2.5
      vertex -12.5 -15 2.5
      vertex -12.5 -15 -2.5
    endloop
  endfacet
  facet normal -0.923888 0.382663 0
    outer loop
      vertex -12.5 -15 2.5
      vertex -13.2322 -16.7678 -2.5
      vertex -13.2322 -16.7678 2.5
    endloop
  endfacet
  facet normal 0.382663 0.923888 -0
    outer loop
      vertex -15 -17.5 -2.5
      vertex -16.7678 -16.7678 2.5
      vertex -15 -17.5 2.5
    endloop
  endfacet
  facet normal 0.382663 0.923888 0
    outer loop
      vertex -16.7678 -16.7678 2.5
      vertex -15 -17.5 -2.5
      vertex -16.7678 -16.7678 -2.5
    endloop
  endfacet
  facet normal 0.923888 0.382663 0
    outer loop
      vertex -16.7678 13.2322 2.5
      vertex -17.5 15 -2.5
      vertex -17.5 15 2.5
    endloop
  endfacet
  facet normal 0.923888 0.382663 0
    outer loop
      vertex -17.5 15 -2.5
      vertex -16.7678 13.2322 2.5
      vertex -16.7678 13.2322 -2.5
    endloop
  endfacet
  facet normal -0.382663 -0.923888 0
    outer loop
      vertex -15 17.5 -2.5
      vertex -13.2322 16.7678 2.5
      vertex -15 17.5 2.5
    endloop
  endfacet
  facet normal -0.382663 -0.923888 -0
    outer loop
      vertex -13.2322 16.7678 2.5
      vertex -15 17.5 -2.5
      vertex -13.2322 16.7678 -2.5
    endloop
  endfacet
  facet normal -0.923888 -0.382663 0
    outer loop
      vertex -12.5 15 -2.5
      vertex -13.2322 16.7678 2.5
      vertex -13.2322 16.7678 -2.5
    endloop
  endfacet
  facet normal -0.923888 -0.382663 0
    outer loop
      vertex -13.2322 16.7678 2.5
      vertex -12.5 15 -2.5
      vertex -12.5 15 2.5
    endloop
  endfacet
  facet normal -0.382663 0.923888 0
    outer loop
      vertex -13.2322 13.2322 -2.5
      vertex -15 12.5 2.5
      vertex -13.2322 13.2322 2.5
    endloop
  endfacet
  facet normal -0.382663 0.923888 0
    outer loop
      vertex -15 12.5 2.5
      vertex -13.2322 13.2322 -2.5
      vertex -15 12.5 -2.5
    endloop
  endfacet
  facet normal 0.923888 -0.382663 0
    outer loop
      vertex -17.5 15 2.5
      vertex -16.7678 16.7678 -2.5
      vertex -16.7678 16.7678 2.5
    endloop
  endfacet
  facet normal 0.923888 -0.382663 0
    outer loop
      vertex -16.7678 16.7678 -2.5
      vertex -17.5 15 2.5
      vertex -17.5 15 -2.5
    endloop
  endfacet
  facet normal -0.923888 0.382663 0
    outer loop
      vertex -13.2322 13.2322 -2.5
      vertex -12.5 15 2.5
      vertex -12.5 15 -2.5
    endloop
  endfacet
  facet normal -0.923888 0.382663 0
    outer loop
      vertex -12.5 15 2.5
      vertex -13.2322 13.2322 -2.5
      vertex -13.2322 13.2322 2.5
    endloop
  endfacet
  facet normal 0.382663 -0.923888 0
    outer loop
      vertex -16.7678 16.7678 -2.5
      vertex -15 17.5 2.5
      vertex -16.7678 16.7678 2.5
    endloop
  endfacet
  facet normal 0.382663 -0.923888 0
    outer loop
      vertex -15 17.5 2.5
      vertex -16.7678 16.7678 -2.5
      vertex -15 17.5 -2.5
    endloop
  endfacet
  facet normal 0.382663 0.923888 -0
    outer loop
      vertex -15 12.5 -2.5
      vertex -16.7678 13.2322 2.5
      vertex -15 12.5 2.5
    endloop
  endfacet
  facet normal 0.382663 0.923888 0
    outer loop
      vertex -16.7678 13.2322 2.5
      vertex -15 12.5 -2.5
      vertex -16.7678 13.2322 -2.5
    endloop
  endfacet
  facet normal -0.382663 -0.923888 0
    outer loop
      vertex 15 -12.5 -2.5
      vertex 16.7678 -13.2322 2.5
      vertex 15 -12.5 2.5
    endloop
  endfacet
  facet normal -0.382663 -0.923888 -0
    outer loop
      vertex 16.7678 -13.2322 2.5
      vertex 15 -12.5 -2.5
      vertex 16.7678 -13.2322 -2.5
    endloop
  endfacet
  facet normal -0.923888 -0.382663 0
    outer loop
      vertex 17.5 -15 -2.5
      vertex 16.7678 -13.2322 2.5
      vertex 16.7678 -13.2322 -2.5
    endloop
  endfacet
  facet normal -0.923888 -0.382663 0
    outer loop
      vertex 16.7678 -13.2322 2.5
      vertex 17.5 -15 -2.5
      vertex 17.5 -15 2.5
    endloop
  endfacet
  facet normal 0.382663 -0.923888 0
    outer loop
      vertex 13.2322 -13.2322 -2.5
      vertex 15 -12.5 2.5
      vertex 13.2322 -13.2322 2.5
    endloop
  endfacet
  facet normal 0.382663 -0.923888 0
    outer loop
      vertex 15 -12.5 2.5
      vertex 13.2322 -13.2322 -2.5
      vertex 15 -12.5 -2.5
    endloop
  endfacet
  facet normal -0.923888 0.382663 0
    outer loop
      vertex 16.7678 -16.7678 -2.5
      vertex 17.5 -15 2.5
      vertex 17.5 -15 -2.5
    endloop
  endfacet
  facet normal -0.923888 0.382663 0
    outer loop
      vertex 17.5 -15 2.5
      vertex 16.7678 -16.7678 -2.5
      vertex 16.7678 -16.7678 2.5
    endloop
  endfacet
  facet normal 0.923888 -0.382663 0
    outer loop
      vertex 12.5 -15 2.5
      vertex 13.2322 -13.2322 -2.5
      vertex 13.2322 -13.2322 2.5
    endloop
  endfacet
  facet normal 0.923888 -0.382663 0
    outer loop
      vertex 13.2322 -13.2322 -2.5
      vertex 12.5 -15 2.5
      vertex 12.5 -15 -2.5
    endloop
  endfacet
  facet normal 0.382663 0.923888 -0
    outer loop
      vertex 15 -17.5 -2.5
      vertex 13.2322 -16.7678 2.5
      vertex 15 -17.5 2.5
    endloop
  endfacet
  facet normal 0.382663 0.923888 0
    outer loop
      vertex 13.2322 -16.7678 2.5
      vertex 15 -17.5 -2.5
      vertex 13.2322 -16.7678 -2.5
    endloop
  endfacet
  facet normal -0.382663 0.923888 0
    outer loop
      vertex 16.7678 -16.7678 -2.5
      vertex 15 -17.5 2.5
      vertex 16.7678 -16.7678 2.5
    endloop
  endfacet
  facet normal -0.382663 0.923888 0
    outer loop
      vertex 15 -17.5 2.5
      vertex 16.7678 -16.7678 -2.5
      vertex 15 -17.5 -2.5
    endloop
  endfacet
  facet normal 0.923888 0.382663 0
    outer loop
      vertex 13.2322 -16.7678 2.5
      vertex 12.5 -15 -2.5
      vertex 12.5 -15 2.5
    endloop
  endfacet
  facet normal 0.923888 0.382663 0
    outer loop
      vertex 12.5 -15 -2.5
      vertex 13.2322 -16.7678 2.5
      vertex 13.2322 -16.7678 -2.5
    endloop
  endfacet
  facet normal 0.382663 0.923888 -0
    outer loop
      vertex 15 12.5 -2.5
      vertex 13.2322 13.2322 2.5
      vertex 15 12.5 2.5
    endloop
  endfacet
  facet normal 0.382663 0.923888 0
    outer loop
      vertex 13.2322 13.2322 2.5
      vertex 15 12.5 -2.5
      vertex 13.2322 13.2322 -2.5
    endloop
  endfacet
  facet normal -0.382663 -0.923888 0
    outer loop
      vertex 15 17.5 -2.5
      vertex 16.7678 16.7678 2.5
      vertex 15 17.5 2.5
    endloop
  endfacet
  facet normal -0.382663 -0.923888 -0
    outer loop
      vertex 16.7678 16.7678 2.5
      vertex 15 17.5 -2.5
      vertex 16.7678 16.7678 -2.5
    endloop
  endfacet
  facet normal -0.923888 -0.382663 0
    outer loop
      vertex 17.5 15 -2.5
      vertex 16.7678 16.7678 2.5
      vertex 16.7678 16.7678 -2.5
    endloop
  endfacet
  facet normal -0.923888 -0.382663 0
    outer loop
      vertex 16.7678 16.7678 2.5
      vertex 17.5 15 -2.5
      vertex 17.5 15 2.5
    endloop
  endfacet
  facet normal 0.382663 -0.923888 0
    outer loop
      vertex 13.2322 16.7678 -2.5
      vertex 15 17.5 2.5
      vertex 13.2322 16.7678 2.5
    endloop
  endfacet
  facet normal 0.382663 -0.923888 0
    outer loop
      vertex 15 17.5 2.5
      vertex 13.2322 16.7678 -2.5
      vertex 15 17.5 -2.5
    endloop
  endfacet
  facet normal -0.382663 0.923888 0
    outer loop
      vertex 16.7678 13.2322 -2.5
      vertex 15 12.5 2.5
      vertex 16.7678 13.2322 2.5
    endloop
  endfacet
  facet normal -0.382663 0.923888 0
    outer loop
      vertex 15 12.5 2.5
      vertex 16.7678 13.2322 -2.5
      vertex 15 12.5 -2.5
    endloop
  endfacet
  facet normal -0.923888 0.382663 0
    outer loop
      vertex 16.7678 13.2322 -2.5
      vertex 17.5 15 2.5
      vertex 17.5 15 -2.5
    endloop
  endfacet
  facet normal -0.923888 0.382663 0
    outer loop
      vertex 17.5 15 2.5
      vertex 16.7678 13.2322 -2.5
      vertex 16.7678 13.2322 2.5
    endloop
  endfacet
  facet normal 0.923888 0.382663 0
    outer loop
      vertex 13.2322 13.2322 2.5
      vertex 12.5 15 -2.5
      vertex 12.5 15 2.5
    endloop
  endfacet
  facet normal 0.923888 0.382663 0
    outer loop
      vertex 12.5 15 -2.5
      vertex 13.2322 13.2322 2.5
      vertex 13.2322 13.2322 -2.5
    endloop
  endfacet
  facet normal 0.923888 -0.382663 0
    outer loop
      vertex 12.5 15 2.5
      vertex 13.2322 16.7678 -2.5
      vertex 13.2322 16.7678 2.5
    endloop
  endfacet
  facet normal 0.923888 -0.382663 0
    outer loop
      vertex 13.2322 16.7678 -2.5
      vertex 12.5 15 2.5
      vertex 12.5 15 -2.5
    endloop
  endfacet
  facet normal 1 -0 0
    outer loop
      vertex 25 -25 2.5
      vertex 25 25 -2.5
      vertex 25 25 2.5
    endloop
  endfacet
  facet normal 1 0 0
    outer loop
      vertex 25 25 -2.5
      vertex 25 -25 2.5
      vertex 25 -25 -2.5
    endloop
  endfacet
  facet normal 0 0 1
    outer loop
      vertex -13.2322 -13.2322 2.5
      vertex 13.2322 -13.2322 2.5
      vertex -13.2322 13.2322 2.5
    endloop
  endfacet
  facet normal 0 0 1
    outer loop
      vertex 13.2322 -13.2322 2.5
      vertex -13.2322 -13.2322 2.5
      vertex -12.5 -15 2.5
    endloop
  endfacet
  facet normal -0 0 1
    outer loop
      vertex -15 12.5 2.5
      vertex -13.2322 -13.2322 2.5
      vertex -13.2322 13.2322 2.5
    endloop
  endfacet
  facet normal 0 0 1
    outer loop
      vertex -15 12.5 2.5
      vertex -15 -12.5 2.5
      vertex -13.2322 -13.2322 2.5
    endloop
  endfacet
  facet normal 0 0 1
    outer loop
      vertex -16.7678 13.2322 2.5
      vertex -15 -12.5 2.5
      vertex -15 12.5 2.5
    endloop
  endfacet
  facet normal 0 0 1
    outer loop
      vertex -16.7678 13.2322 2.5
      vertex -16.7678 -13.2322 2.5
      vertex -15 -12.5 2.5
    endloop
  endfacet
  facet normal 0 0 1
    outer loop
      vertex -25 25 2.5
      vertex -16.7678 13.2322 2.5
      vertex -17.5 15 2.5
    endloop
  endfacet
  facet normal 0 0 1
    outer loop
      vertex -16.7678 13.2322 2.5
      vertex -25 25 2.5
      vertex -16.7678 -13.2322 2.5
    endloop
  endfacet
  facet normal -0 0 1
    outer loop
      vertex 16.7678 -13.2322 2.5
      vertex 25 -25 2.5
      vertex 16.7678 13.2322 2.5
    endloop
  endfacet
  facet normal 0 0 1
    outer loop
      vertex 25 -25 2.5
      vertex 16.7678 -13.2322 2.5
      vertex 17.5 -15 2.5
    endloop
  endfacet
  facet normal -0 0 1
    outer loop
      vertex 15 12.5 2.5
      vertex 16.7678 -13.2322 2.5
      vertex 16.7678 13.2322 2.5
    endloop
  endfacet
  facet normal 0 0 1
    outer loop
      vertex 15 12.5 2.5
      vertex 15 -12.5 2.5
      vertex 16.7678 -13.2322 2.5
    endloop
  endfacet
  facet normal 0 0 1
    outer loop
      vertex 13.2322 13.2322 2.5
      vertex 15 -12.5 2.5
      vertex 15 12.5 2.5
    endloop
  endfacet
  facet normal 0 0 1
    outer loop
      vertex 13.2322 13.2322 2.5
      vertex 13.2322 -13.2322 2.5
      vertex 15 -12.5 2.5
    endloop
  endfacet
  facet normal -0 0 1
    outer loop
      vertex -12.5 15 2.5
      vertex 13.2322 13.2322 2.5
      vertex 12.5 15 2.5
    endloop
  endfacet
  facet normal 0 0 1
    outer loop
      vertex -13.2322 13.2322 2.5
      vertex 13.2322 13.2322 2.5
      vertex -12.5 15 2.5
    endloop
  endfacet
  facet normal 0 0 1
    outer loop
      vertex 16.7678 13.2322 2.5
      vertex 25 25 2.5
      vertex 17.5 15 2.5
    endloop
  endfacet
  facet normal 0 0 1
    outer loop
      vertex 25 25 2.5
      vertex 16.7678 16.7678 2.5
      vertex 17.5 15 2.5
    endloop
  endfacet
  facet normal 0 0 1
    outer loop
      vertex 25 25 2.5
      vertex 15 17.5 2.5
      vertex 16.7678 16.7678 2.5
    endloop
  endfacet
  facet normal 0 0 1
    outer loop
      vertex 25 25 2.5
      vertex 13.2322 16.7678 2.5
      vertex 15 17.5 2.5
    endloop
  endfacet
  facet normal 0 0 1
    outer loop
      vertex 13.2322 13.2322 2.5
      vertex -13.2322 13.2322 2.5
      vertex 13.2322 -13.2322 2.5
    endloop
  endfacet
  facet normal 0 0 1
    outer loop
      vertex 13.2322 16.7678 2.5
      vertex -12.5 15 2.5
      vertex 12.5 15 2.5
    endloop
  endfacet
  facet normal 0 0 1
    outer loop
      vertex -13.2322 16.7678 2.5
      vertex 13.2322 16.7678 2.5
      vertex 25 25 2.5
    endloop
  endfacet
  facet normal 0 0 1
    outer loop
      vertex 13.2322 16.7678 2.5
      vertex -13.2322 16.7678 2.5
      vertex -12.5 15 2.5
    endloop
  endfacet
  facet normal -0 0 1
    outer loop
      vertex -25 25 2.5
      vertex -13.2322 16.7678 2.5
      vertex 25 25 2.5
    endloop
  endfacet
  facet normal 0 0 1
    outer loop
      vertex -25 -25 2.5
      vertex -16.7678 -13.2322 2.5
      vertex -25 25 2.5
    endloop
  endfacet
  facet normal 0 0 1
    outer loop
      vertex -16.7678 16.7678 2.5
      vertex -25 25 2.5
      vertex -17.5 15 2.5
    endloop
  endfacet
  facet normal 0 0 1
    outer loop
      vertex -15 17.5 2.5
      vertex -25 25 2.5
      vertex -16.7678 16.7678 2.5
    endloop
  endfacet
  facet normal 0 0 1
    outer loop
      vertex -13.2322 16.7678 2.5
      vertex -25 25 2.5
      vertex -15 17.5 2.5
    endloop
  endfacet
  facet normal 0 0 1
    outer loop
      vertex 25 25 2.5
      vertex 16.7678 13.2322 2.5
      vertex 25 -25 2.5
    endloop
  endfacet
  facet normal -0 0 1
    outer loop
      vertex 16.7678 -16.7678 2.5
      vertex 25 -25 2.5
      vertex 17.5 -15 2.5
    endloop
  endfacet
  facet normal -0 0 1
    outer loop
      vertex 15 -17.5 2.5
      vertex 25 -25 2.5
      vertex 16.7678 -16.7678 2.5
    endloop
  endfacet
  facet normal 0 0 1
    outer loop
      vertex 13.2322 -16.7678 2.5
      vertex 25 -25 2.5
      vertex 15 -17.5 2.5
    endloop
  endfacet
  facet normal 0 0 1
    outer loop
      vertex 13.2322 -13.2322 2.5
      vertex -12.5 -15 2.5
      vertex 12.5 -15 2.5
    endloop
  endfacet
  facet normal 0 0 1
    outer loop
      vertex 12.5 -15 2.5
      vertex -12.5 -15 2.5
      vertex 13.2322 -16.7678 2.5
    endloop
  endfacet
  facet normal 0 0 1
    outer loop
      vertex -13.2322 -16.7678 2.5
      vertex 13.2322 -16.7678 2.5
      vertex -12.5 -15 2.5
    endloop
  endfacet
  facet normal 0 0 1
    outer loop
      vertex 13.2322 -16.7678 2.5
      vertex -13.2322 -16.7678 2.5
      vertex 25 -25 2.5
    endloop
  endfacet
  facet normal 0 0 1
    outer loop
      vertex -25 -25 2.5
      vertex -13.2322 -16.7678 2.5
      vertex -15 -17.5 2.5
    endloop
  endfacet
  facet normal 0 0 1
    outer loop
      vertex -13.2322 -16.7678 2.5
      vertex -25 -25 2.5
      vertex 25 -25 2.5
    endloop
  endfacet
  facet normal 0 0 1
    outer loop
      vertex -16.7678 -16.7678 2.5
      vertex -25 -25 2.5
      vertex -15 -17.5 2.5
    endloop
  endfacet
  facet normal 0 0 1
    outer loop
      vertex -17.5 -15 2.5
      vertex -25 -25 2.5
      vertex -16.7678 -16.7678 2.5
    endloop
  endfacet
  facet normal 0 0 1
    outer loop
      vertex -16.7678 -13.2322 2.5
      vertex -25 -25 2.5
      vertex -17.5 -15 2.5
    endloop
  endfacet
  facet normal 0 0 -1
    outer loop
      vertex -13.2322 13.2322 -2.5
      vertex 13.2322 13.2322 -2.5
      vertex -13.2322 -13.2322 -2.5
    endloop
  endfacet
  facet normal 0 0 -1
    outer loop
      vertex 13.2322 13.2322 -2.5
      vertex -13.2322 13.2322 -2.5
      vertex -12.5 15 -2.5
    endloop
  endfacet
  facet normal 0 0 -1
    outer loop
      vertex -15 -12.5 -2.5
      vertex -13.2322 13.2322 -2.5
      vertex -13.2322 -13.2322 -2.5
    endloop
  endfacet
  facet normal 0 0 -1
    outer loop
      vertex -15 -12.5 -2.5
      vertex -15 12.5 -2.5
      vertex -13.2322 13.2322 -2.5
    endloop
  endfacet
  facet normal 0 0 -1
    outer loop
      vertex -16.7678 -13.2322 -2.5
      vertex -15 12.5 -2.5
      vertex -15 -12.5 -2.5
    endloop
  endfacet
  facet normal 0 0 -1
    outer loop
      vertex -16.7678 -13.2322 -2.5
      vertex -16.7678 13.2322 -2.5
      vertex -15 12.5 -2.5
    endloop
  endfacet
  facet normal 0 0 -1
    outer loop
      vertex -25 -25 -2.5
      vertex -16.7678 -13.2322 -2.5
      vertex -17.5 -15 -2.5
    endloop
  endfacet
  facet normal -0 0 -1
    outer loop
      vertex -16.7678 -13.2322 -2.5
      vertex -25 -25 -2.5
      vertex -16.7678 13.2322 -2.5
    endloop
  endfacet
  facet normal 0 0 -1
    outer loop
      vertex 16.7678 13.2322 -2.5
      vertex 25 25 -2.5
      vertex 16.7678 -13.2322 -2.5
    endloop
  endfacet
  facet normal 0 0 -1
    outer loop
      vertex 25 25 -2.5
      vertex 16.7678 13.2322 -2.5
      vertex 17.5 15 -2.5
    endloop
  endfacet
  facet normal 0 0 -1
    outer loop
      vertex 15 -12.5 -2.5
      vertex 16.7678 13.2322 -2.5
      vertex 16.7678 -13.2322 -2.5
    endloop
  endfacet
  facet normal 0 0 -1
    outer loop
      vertex 15 -12.5 -2.5
      vertex 15 12.5 -2.5
      vertex 16.7678 13.2322 -2.5
    endloop
  endfacet
  facet normal 0 0 -1
    outer loop
      vertex 13.2322 -13.2322 -2.5
      vertex 15 12.5 -2.5
      vertex 15 -12.5 -2.5
    endloop
  endfacet
  facet normal 0 0 -1
    outer loop
      vertex 13.2322 -13.2322 -2.5
      vertex 13.2322 13.2322 -2.5
      vertex 15 12.5 -2.5
    endloop
  endfacet
  facet normal 0 0 -1
    outer loop
      vertex -12.5 -15 -2.5
      vertex 13.2322 -13.2322 -2.5
      vertex 12.5 -15 -2.5
    endloop
  endfacet
  facet normal 0 0 -1
    outer loop
      vertex -13.2322 -13.2322 -2.5
      vertex 13.2322 -13.2322 -2.5
      vertex -12.5 -15 -2.5
    endloop
  endfacet
  facet normal 0 0 -1
    outer loop
      vertex 16.7678 -13.2322 -2.5
      vertex 25 -25 -2.5
      vertex 17.5 -15 -2.5
    endloop
  endfacet
  facet normal 0 0 -1
    outer loop
      vertex 25 -25 -2.5
      vertex 16.7678 -16.7678 -2.5
      vertex 17.5 -15 -2.5
    endloop
  endfacet
  facet normal 0 0 -1
    outer loop
      vertex 25 -25 -2.5
      vertex 15 -17.5 -2.5
      vertex 16.7678 -16.7678 -2.5
    endloop
  endfacet
  facet normal 0 0 -1
    outer loop
      vertex 25 -25 -2.5
      vertex 13.2322 -16.7678 -2.5
      vertex 15 -17.5 -2.5
    endloop
  endfacet
  facet normal 0 0 -1
    outer loop
      vertex 13.2322 -13.2322 -2.5
      vertex -13.2322 -13.2322 -2.5
      vertex 13.2322 13.2322 -2.5
    endloop
  endfacet
  facet normal 0 0 -1
    outer loop
      vertex 13.2322 -16.7678 -2.5
      vertex -12.5 -15 -2.5
      vertex 12.5 -15 -2.5
    endloop
  endfacet
  facet normal 0 0 -1
    outer loop
      vertex -13.2322 -16.7678 -2.5
      vertex 13.2322 -16.7678 -2.5
      vertex 25 -25 -2.5
    endloop
  endfacet
  facet normal 0 0 -1
    outer loop
      vertex 13.2322 -16.7678 -2.5
      vertex -13.2322 -16.7678 -2.5
      vertex -12.5 -15 -2.5
    endloop
  endfacet
  facet normal 0 0 -1
    outer loop
      vertex -25 -25 -2.5
      vertex -13.2322 -16.7678 -2.5
      vertex 25 -25 -2.5
    endloop
  endfacet
  facet normal 0 0 -1
    outer loop
      vertex -25 25 -2.5
      vertex -16.7678 13.2322 -2.5
      vertex -25 -25 -2.5
    endloop
  endfacet
  facet normal -0 0 -1
    outer loop
      vertex -16.7678 -16.7678 -2.5
      vertex -25 -25 -2.5
      vertex -17.5 -15 -2.5
    endloop
  endfacet
  facet normal -0 0 -1
    outer loop
      vertex -15 -17.5 -2.5
      vertex -25 -25 -2.5
      vertex -16.7678 -16.7678 -2.5
    endloop
  endfacet
  facet normal 0 0 -1
    outer loop
      vertex -13.2322 -16.7678 -2.5
      vertex -25 -25 -2.5
      vertex -15 -17.5 -2.5
    endloop
  endfacet
  facet normal 0 0 -1
    outer loop
      vertex 25 -25 -2.5
      vertex 16.7678 -13.2322 -2.5
      vertex 25 25 -2.5
    endloop
  endfacet
  facet normal 0 0 -1
    outer loop
      vertex 16.7678 16.7678 -2.5
      vertex 25 25 -2.5
      vertex 17.5 15 -2.5
    endloop
  endfacet
  facet normal 0 0 -1
    outer loop
      vertex 15 17.5 -2.5
      vertex 25 25 -2.5
      vertex 16.7678 16.7678 -2.5
    endloop
  endfacet
  facet normal 0 0 -1
    outer loop
      vertex 13.2322 16.7678 -2.5
      vertex 25 25 -2.5
      vertex 15 17.5 -2.5
    endloop
  endfacet
  facet normal 0 0 -1
    outer loop
      vertex 13.2322 13.2322 -2.5
      vertex -12.5 15 -2.5
      vertex 12.5 15 -2.5
    endloop
  endfacet
  facet normal 0 0 -1
    outer loop
      vertex 12.5 15 -2.5
      vertex -12.5 15 -2.5
      vertex 13.2322 16.7678 -2.5
    endloop
  endfacet
  facet normal 0 0 -1
    outer loop
      vertex -13.2322 16.7678 -2.5
      vertex 13.2322 16.7678 -2.5
      vertex -12.5 15 -2.5
    endloop
  endfacet
  facet normal 0 0 -1
    outer loop
      vertex 13.2322 16.7678 -2.5
      vertex -13.2322 16.7678 -2.5
      vertex 25 25 -2.5
    endloop
  endfacet
  facet normal 0 0 -1
    outer loop
      vertex -25 25 -2.5
      vertex -13.2322 16.7678 -2.5
      vertex -15 17.5 -2.5
    endloop
  endfacet
  facet normal 0 0 -1
    outer loop
      vertex -13.2322 16.7678 -2.5
      vertex -25 25 -2.5
      vertex 25 25 -2.5
    endloop
  endfacet
  facet normal 0 0 -1
    outer loop
      vertex -16.7678 16.7678 -2.5
      vertex -25 25 -2.5
      vertex -15 17.5 -2.5
    endloop
  endfacet
  facet normal 0 0 -1
    outer loop
      vertex -17.5 15 -2.5
      vertex -25 25 -2.5
      vertex -16.7678 16.7678 -2.5
    endloop
  endfacet
  facet normal 0 0 -1
    outer loop
      vertex -16.7678 13.2322 -2.5
      vertex -25 25 -2.5
      vertex -17.5 15 -2.5
    endloop
  endfacet
  facet normal -1 0 0
    outer loop
      vertex -25 -25 -2.5
      vertex -25 25 2.5
      vertex -25 25 -2.5
    endloop
  endfacet
  facet normal -1 -0 0
    outer loop
      vertex -25 25 2.5
      vertex -25 -25 -2.5
      vertex -25 -25 2.5
    endloop
  endfacet
  facet normal 0 1 -0
    outer loop
      vertex 25 25 -2.5
      vertex -25 25 2.5
      vertex 25 25 2.5
    endloop
  endfacet
  facet normal 0 1 0
    outer loop
      vertex -25 25 2.5
      vertex 25 25 -2.5
      vertex -25 25 -2.5
    endloop
  endfacet
  facet normal 0 -1 0
    outer loop
      vertex -25 -25 -2.5
      vertex 25 -25 2.5
      vertex -25 -25 2.5
    endloop
  endfacet
  facet normal 0 -1 -0
    outer loop
      vertex 25 -25 2.5
      vertex -25 -25 -2.5
      vertex 25 -25 -2.5
    endloop
  endfacet
endsolid OpenSCAD_Model
