solid OpenSCAD_Model
  facet normal 1 0 0
    outer loop
      vertex 25 25 40
      vertex 25 -12.5 30
      vertex 25 25 30
    endloop
  endfacet
  facet normal 1 -0 0
    outer loop
      vertex 25 -25 40
      vertex 25 -12.5 30
      vertex 25 25 40
    endloop
  endfacet
  facet normal 1 -0 0
    outer loop
      vertex 25 -25 35
      vertex 25 -12.5 30
      vertex 25 -25 40
    endloop
  endfacet
  facet normal 1 0 0
    outer loop
      vertex 25 -12.5 30
      vertex 25 -25 35
      vertex 25 -12.5 25
    endloop
  endfacet
  facet normal 1 0 0
    outer loop
      vertex 25 -37.5 25
      vertex 25 -25 35
      vertex 25 -37.5 35
    endloop
  endfacet
  facet normal 1 0 0
    outer loop
      vertex 25 -25 35
      vertex 25 -37.5 25
      vertex 25 -12.5 25
    endloop
  endfacet
  facet normal -0 0 1
    outer loop
      vertex -25 25 40
      vertex 25 -25 40
      vertex 25 25 40
    endloop
  endfacet
  facet normal 0 0 1
    outer loop
      vertex 25 -25 40
      vertex -25 25 40
      vertex -25 -25 40
    endloop
  endfacet
  facet normal 0 0 -1
    outer loop
      vertex -25 -12.5 30
      vertex 25 25 30
      vertex 25 -12.5 30
    endloop
  endfacet
  facet normal -0 0 -1
    outer loop
      vertex 25 25 30
      vertex -25 -12.5 30
      vertex -25 25 30
    endloop
  endfacet
  facet normal -1 0 0
    outer loop
      vertex -25 -12.5 25
      vertex -25 -25 35
      vertex -25 -12.5 30
    endloop
  endfacet
  facet normal -1 0 0
    outer loop
      vertex -25 -37.5 25
      vertex -25 -25 35
      vertex -25 -12.5 25
    endloop
  endfacet
  facet normal -1 -0 0
    outer loop
      vertex -25 -25 35
      vertex -25 -37.5 25
      vertex -25 -37.5 35
    endloop
  endfacet
  facet normal -1 0 0
    outer loop
      vertex -25 -12.5 30
      vertex -25 25 40
      vertex -25 25 30
    endloop
  endfacet
  facet normal -1 0 0
    outer loop
      vertex -25 -25 40
      vertex -25 -12.5 30
      vertex -25 -25 35
    endloop
  endfacet
  facet normal -1 0 0
    outer loop
      vertex -25 -12.5 30
      vertex -25 -25 40
      vertex -25 25 40
    endloop
  endfacet
  facet normal 0 1 -0
    outer loop
      vertex 25 25 30
      vertex -25 25 40
      vertex 25 25 40
    endloop
  endfacet
  facet normal 0 1 0
    outer loop
      vertex -25 25 40
      vertex 25 25 30
      vertex -25 25 30
    endloop
  endfacet
  facet normal 0 -1 0
    outer loop
      vertex -25 -25 35
      vertex 25 -25 40
      vertex -25 -25 40
    endloop
  endfacet
  facet normal 0 -1 -0
    outer loop
      vertex 25 -25 40
      vertex -25 -25 35
      vertex 25 -25 35
    endloop
  endfacet
  facet normal -0 0 1
    outer loop
      vertex -25 -25 35
      vertex 25 -37.5 35
      vertex 25 -25 35
    endloop
  endfacet
  facet normal 0 0 1
    outer loop
      vertex 25 -37.5 35
      vertex -25 -25 35
      vertex -25 -37.5 35
    endloop
  endfacet
  facet normal 0 0 -1
    outer loop
      vertex 25 -37.5 25
      vertex 20 -20 25
      vertex 25 -12.5 25
    endloop
  endfacet
  facet normal 0 0 -1
    outer loop
      vertex 25 -37.5 25
      vertex -20 -20 25
      vertex 20 -20 25
    endloop
  endfacet
  facet normal 0 0 -1
    outer loop
      vertex -25 -37.5 25
      vertex -20 -20 25
      vertex 25 -37.5 25
    endloop
  endfacet
  facet normal 0 0 -1
    outer loop
      vertex -25 -12.5 25
      vertex -20 -20 25
      vertex -25 -37.5 25
    endloop
  endfacet
  facet normal 0 0 -1
    outer loop
      vertex -20 -20 25
      vertex -25 -12.5 25
      vertex -20 -12.5 25
    endloop
  endfacet
  facet normal -0 0 -1
    outer loop
      vertex 25 -12.5 25
      vertex 20 -20 25
      vertex 20 -12.5 25
    endloop
  endfacet
  facet normal -0 0 1
    outer loop
      vertex -20 20 25
      vertex 20 -12.5 25
      vertex 20 20 25
    endloop
  endfacet
  facet normal 0 0 1
    outer loop
      vertex 20 -12.5 25
      vertex -20 20 25
      vertex -20 -12.5 25
    endloop
  endfacet
  facet normal 0 1 0
    outer loop
      vertex 20 -12.5 25
      vertex 25 -12.5 30
      vertex 25 -12.5 25
    endloop
  endfacet
  facet normal 0 1 0
    outer loop
      vertex 25 -12.5 30
      vertex 20 -12.5 25
      vertex -25 -12.5 30
    endloop
  endfacet
  facet normal 0 1 -0
    outer loop
      vertex -20 -12.5 25
      vertex -25 -12.5 30
      vertex 20 -12.5 25
    endloop
  endfacet
  facet normal 0 1 0
    outer loop
      vertex -25 -12.5 30
      vertex -20 -12.5 25
      vertex -25 -12.5 25
    endloop
  endfacet
  facet normal 0 -1 0
    outer loop
      vertex -25 -37.5 25
      vertex 25 -37.5 35
      vertex -25 -37.5 35
    endloop
  endfacet
  facet normal 0 -1 -0
    outer loop
      vertex 25 -37.5 35
      vertex -25 -37.5 25
      vertex 25 -37.5 25
    endloop
  endfacet
  facet normal 1 -0 0
    outer loop
      vertex 20 -12.5 25
      vertex 20 20 5
      vertex 20 20 25
    endloop
  endfacet
  facet normal 1 0 0
    outer loop
      vertex 20 -20 5
      vertex 20 -12.5 25
      vertex 20 -20 25
    endloop
  endfacet
  facet normal 1 0 0
    outer loop
      vertex 20 -12.5 25
      vertex 20 -20 5
      vertex 20 20 5
    endloop
  endfacet
  facet normal 0 0 1
    outer loop
      vertex 30 30 5
      vertex 20 20 5
      vertex 30 -30 5
    endloop
  endfacet
  facet normal 0 0 1
    outer loop
      vertex 30 30 5
      vertex -20 20 5
      vertex 20 20 5
    endloop
  endfacet
  facet normal 0 0 1
    outer loop
      vertex -20 20 5
      vertex -30 30 5
      vertex -20 -20 5
    endloop
  endfacet
  facet normal -0 0 1
    outer loop
      vertex -30 30 5
      vertex -20 20 5
      vertex 30 30 5
    endloop
  endfacet
  facet normal -0 0 1
    outer loop
      vertex 20 -20 5
      vertex 30 -30 5
      vertex 20 20 5
    endloop
  endfacet
  facet normal -0 0 1
    outer loop
      vertex -20 -20 5
      vertex 30 -30 5
      vertex 20 -20 5
    endloop
  endfacet
  facet normal 0 0 1
    outer loop
      vertex -20 -20 5
      vertex -30 -30 5
      vertex 30 -30 5
    endloop
  endfacet
  facet normal 0 0 1
    outer loop
      vertex -30 -30 5
      vertex -20 -20 5
      vertex -30 30 5
    endloop
  endfacet
  facet normal -1 0 0
    outer loop
      vertex -20 20 5
      vertex -20 -12.5 25
      vertex -20 20 25
    endloop
  endfacet
  facet normal -1 0 0
    outer loop
      vertex -20 -20 5
      vertex -20 -12.5 25
      vertex -20 20 5
    endloop
  endfacet
  facet normal -1 -0 0
    outer loop
      vertex -20 -12.5 25
      vertex -20 -20 5
      vertex -20 -20 25
    endloop
  endfacet
  facet normal 0 1 -0
    outer loop
      vertex 20 20 5
      vertex -20 20 25
      vertex 20 20 25
    endloop
  endfacet
  facet normal 0 1 0
    outer loop
      vertex -20 20 25
      vertex 20 20 5
      vertex -20 20 5
    endloop
  endfacet
  facet normal 0 -1 0
    outer loop
      vertex -20 -20 5
      vertex 20 -20 25
      vertex -20 -20 25
    endloop
  endfacet
  facet normal 0 -1 -0
    outer loop
      vertex 20 -20 25
      vertex -20 -20 5
      vertex 20 -20 5
    endloop
  endfacet
  facet normal 1 -0 0
    outer loop
      vertex 30 -30 5
      vertex 30 30 -15
      vertex 30 30 5
    endloop
  endfacet
  facet normal 1 0 0
    outer loop
      vertex 30 30 -15
      vertex 30 -30 5
      vertex 30 -30 -15
    endloop
  endfacet
  facet normal 0 0 -1
    outer loop
      vertex 30 -30 -15
      vertex 15 -15 -15
      vertex 30 30 -15
    endloop
  endfacet
  facet normal 0 0 -1
    outer loop
      vertex 30 -30 -15
      vertex -15 -15 -15
      vertex 15 -15 -15
    endloop
  endfacet
  facet normal -0 0 -1
    outer loop
      vertex -15 -15 -15
      vertex -30 -30 -15
      vertex -15 15 -15
    endloop
  endfacet
  facet normal 0 0 -1
    outer loop
      vertex -30 -30 -15
      vertex -15 -15 -15
      vertex 30 -30 -15
    endloop
  endfacet
  facet normal 0 0 -1
    outer loop
      vertex 15 15 -15
      vertex 30 30 -15
      vertex 15 -15 -15
    endloop
  endfacet
  facet normal 0 0 -1
    outer loop
      vertex -15 15 -15
      vertex 30 30 -15
      vertex 15 15 -15
    endloop
  endfacet
  facet normal 0 0 -1
    outer loop
      vertex -15 15 -15
      vertex -30 30 -15
      vertex 30 30 -15
    endloop
  endfacet
  facet normal 0 0 -1
    outer loop
      vertex -30 30 -15
      vertex -15 15 -15
      vertex -30 -30 -15
    endloop
  endfacet
  facet normal -1 0 0
    outer loop
      vertex -30 -30 -15
      vertex -30 30 5
      vertex -30 30 -15
    endloop
  endfacet
  facet normal -1 -0 0
    outer loop
      vertex -30 30 5
      vertex -30 -30 -15
      vertex -30 -30 5
    endloop
  endfacet
  facet normal 0 1 -0
    outer loop
      vertex 30 30 -15
      vertex -30 30 5
      vertex 30 30 5
    endloop
  endfacet
  facet normal 0 1 0
    outer loop
      vertex -30 30 5
      vertex 30 30 -15
      vertex -30 30 -15
    endloop
  endfacet
  facet normal 0 -1 0
    outer loop
      vertex -30 -30 -15
      vertex 30 -30 5
      vertex -30 -30 5
    endloop
  endfacet
  facet normal 0 -1 -0
    outer loop
      vertex 30 -30 5
      vertex -30 -30 -15
      vertex 30 -30 -15
    endloop
  endfacet
  facet normal 1 -0 0
    outer loop
      vertex 15 -15 -15
      vertex 15 15 -25
      vertex 15 15 -15
    endloop
  endfacet
  facet normal 1 0 0
    outer loop
      vertex 15 15 -25
      vertex 15 -15 -15
      vertex 15 -15 -25
    endloop
  endfacet
  facet normal 0 0 -1
    outer loop
      vertex -7.5 -7.5 -25
      vertex 15 -15 -25
      vertex -7.5 -15 -25
    endloop
  endfacet
  facet normal 0 0 -1
    outer loop
      vertex 15 -15 -25
      vertex -7.5 -7.5 -25
      vertex 15 15 -25
    endloop
  endfacet
  facet normal 0 0 -1
    outer loop
      vertex -15 15 -25
      vertex -7.5 -7.5 -25
      vertex -15 -7.5 -25
    endloop
  endfacet
  facet normal 0 0 -1
    outer loop
      vertex -7.5 -7.5 -25
      vertex -15 15 -25
      vertex 15 15 -25
    endloop
  endfacet
  facet normal -1 0 0
    outer loop
      vertex -15 -7.5 -20
      vertex -15 15 -25
      vertex -15 -7.5 -25
    endloop
  endfacet
  facet normal -1 0 0
    outer loop
      vertex -15 15 -25
      vertex -15 -7.5 -20
      vertex -15 15 -15
    endloop
  endfacet
  facet normal -1 0 0
    outer loop
      vertex -15 -15 -15
      vertex -15 -7.5 -20
      vertex -15 -15 -20
    endloop
  endfacet
  facet normal -1 0 0
    outer loop
      vertex -15 -7.5 -20
      vertex -15 -15 -15
      vertex -15 15 -15
    endloop
  endfacet
  facet normal 0 1 -0
    outer loop
      vertex 15 15 -25
      vertex -15 15 -15
      vertex 15 15 -15
    endloop
  endfacet
  facet normal 0 1 0
    outer loop
      vertex -15 15 -15
      vertex 15 15 -25
      vertex -15 15 -25
    endloop
  endfacet
  facet normal 0 -1 0
    outer loop
      vertex -7.5 -15 -20
      vertex -15 -15 -15
      vertex -15 -15 -20
    endloop
  endfacet
  facet normal 0 -1 0
    outer loop
      vertex -15 -15 -15
      vertex -7.5 -15 -20
      vertex 15 -15 -15
    endloop
  endfacet
  facet normal 0 -1 0
    outer loop
      vertex 15 -15 -25
      vertex -7.5 -15 -20
      vertex -7.5 -15 -25
    endloop
  endfacet
  facet normal 0 -1 0
    outer loop
      vertex -7.5 -15 -20
      vertex 15 -15 -25
      vertex 15 -15 -15
    endloop
  endfacet
  facet normal -1 0 0
    outer loop
      vertex -7.5 -15 -25
      vertex -7.5 -7.5 -20
      vertex -7.5 -7.5 -25
    endloop
  endfacet
  facet normal -1 -0 0
    outer loop
      vertex -7.5 -7.5 -20
      vertex -7.5 -15 -25
      vertex -7.5 -15 -20
    endloop
  endfacet
  facet normal 0 0 -1
    outer loop
      vertex -15 -15 -20
      vertex -7.5 -7.5 -20
      vertex -7.5 -15 -20
    endloop
  endfacet
  facet normal -0 0 -1
    outer loop
      vertex -7.5 -7.5 -20
      vertex -15 -15 -20
      vertex -15 -7.5 -20
    endloop
  endfacet
  facet normal 0 -1 0
    outer loop
      vertex -15 -7.5 -25
      vertex -7.5 -7.5 -20
      vertex -15 -7.5 -20
    endloop
  endfacet
  facet normal 0 -1 -0
    outer loop
      vertex -7.5 -7.5 -20
      vertex -15 -7.5 -25
      vertex -7.5 -7.5 -25
    endloop
  endfacet
  facet normal 1 -0 0
    outer loop
      vertex 25 -25 52.5
      vertex 25 25 47.5
      vertex 25 25 52.5
    endloop
  endfacet
  facet normal 1 0 0
    outer loop
      vertex 25 25 47.5
      vertex 25 -25 52.5
      vertex 25 -25 47.5
    endloop
  endfacet
  facet normal -0 0 1
    outer loop
      vertex -25 25 52.5
      vertex 25 -25 52.5
      vertex 25 25 52.5
    endloop
  endfacet
  facet normal 0 0 1
    outer loop
      vertex 25 -25 52.5
      vertex -25 25 52.5
      vertex -25 -25 52.5
    endloop
  endfacet
  facet normal 0 0 -1
    outer loop
      vertex -25 -25 47.5
      vertex 25 25 47.5
      vertex 25 -25 47.5
    endloop
  endfacet
  facet normal -0 0 -1
    outer loop
      vertex 25 25 47.5
      vertex -25 -25 47.5
      vertex -25 25 47.5
    endloop
  endfacet
  facet normal -1 0 0
    outer loop
      vertex -25 -25 47.5
      vertex -25 25 52.5
      vertex -25 25 47.5
    endloop
  endfacet
  facet normal -1 -0 0
    outer loop
      vertex -25 25 52.5
      vertex -25 -25 47.5
      vertex -25 -25 52.5
    endloop
  endfacet
  facet normal 0 1 -0
    outer loop
      vertex 25 25 47.5
      vertex -25 25 52.5
      vertex 25 25 52.5
    endloop
  endfacet
  facet normal 0 1 0
    outer loop
      vertex -25 25 52.5
      vertex 25 25 47.5
      vertex -25 25 47.5
    endloop
  endfacet
  facet normal 0 -1 0
    outer loop
      vertex -25 -25 47.5
      vertex 25 -25 52.5
      vertex -25 -25 52.5
    endloop
  endfacet
  facet normal 0 -1 -0
    outer loop
      vertex 25 -25 52.5
      vertex -25 -25 47.5
      vertex 25 -25 47.5
    endloop
  endfacet
endsolid OpenSCAD_Model
