solid OpenSCAD_Model
  facet normal 0 -1 0
    outer loop
      vertex -0.411164 -1.80143 25.7654
      vertex 49.5888 -1.80143 -0.765367
      vertex 49.5888 -1.80143 25.7654
    endloop
  endfacet
  facet normal 0.669361 0.322355 0.669361
    outer loop
      vertex 51.1521 51.4446 25.7654
      vertex 50.7654 50 26.8478
      vertex 51.8478 50 25.7654
    endloop
  endfacet
  facet normal -1 0 0
    outer loop
      vertex -1.66477 50.8017 -0.765367
      vertex -1.66477 -0.801712 -0.765367
      vertex -1.66477 50.8017 25.7654
    endloop
  endfacet
  facet normal 0 -1 0
    outer loop
      vertex -0.411164 -1.80143 -0.765367
      vertex 49.5888 -1.80143 -0.765367
      vertex -0.411164 -1.80143 25.7654
    endloop
  endfacet
  facet normal -1 -0 0
    outer loop
      vertex -1.66477 50.8017 25.7654
      vertex -1.66477 -0.801712 -0.765367
      vertex -1.66477 -0.801712 25.7654
    endloop
  endfacet
  facet normal -0.463215 -0.580853 0.669359
    outer loop
      vertex -0.411164 -1.80143 25.7654
      vertex -0.689571 -0.33208 26.8478
      vertex -1.66477 -0.801712 25.7654
    endloop
  endfacet
  facet normal 0 0 1
    outer loop
      vertex 50.7654 50 26.8478
      vertex 50.4772 -0.598388 26.8478
      vertex 50.7654 0 26.8478
    endloop
  endfacet
  facet normal 0.165317 0.724327 0.669344
    outer loop
      vertex 49.5888 51.8014 25.7654
      vertex 50.4772 50.5984 26.8478
      vertex 51.1521 51.4446 25.7654
    endloop
  endfacet
  facet normal -0.62349 -0.781831 -0
    outer loop
      vertex -0.411164 -1.80143 25.7654
      vertex -1.66477 -0.801712 -0.765367
      vertex -0.411164 -1.80143 -0.765367
    endloop
  endfacet
  facet normal 0.707104 0 -0.707109
    outer loop
      vertex 50.7654 0 -1.84776
      vertex 50.7654 50 -1.84776
      vertex 51.8478 0 -0.765367
    endloop
  endfacet
  facet normal 0.165338 0.724332 0.669333
    outer loop
      vertex 49.8297 50.7462 26.8478
      vertex 50.4772 50.5984 26.8478
      vertex 49.5888 51.8014 25.7654
    endloop
  endfacet
  facet normal -0.62349 -0.781831 -0
    outer loop
      vertex -1.66477 -0.801712 25.7654
      vertex -1.66477 -0.801712 -0.765367
      vertex -0.411164 -1.80143 25.7654
    endloop
  endfacet
  facet normal -0.463214 -0.580851 -0.669361
    outer loop
      vertex -0.411164 -1.80143 -0.765367
      vertex -0.689571 -0.33208 -1.84776
      vertex -0.17031 -0.746177 -1.84776
    endloop
  endfacet
  facet normal 0 1 0
    outer loop
      vertex 49.5888 51.8014 25.7654
      vertex 49.5888 51.8014 -0.765367
      vertex -0.411164 51.8014 25.7654
    endloop
  endfacet
  facet normal 0.707104 0 -0.707109
    outer loop
      vertex 51.8478 0 -0.765367
      vertex 50.7654 50 -1.84776
      vertex 51.8478 50 -0.765367
    endloop
  endfacet
  facet normal -0.623483 0.781837 0
    outer loop
      vertex -1.66477 50.8017 25.7654
      vertex -0.411164 51.8014 -0.765367
      vertex -1.66477 50.8017 -0.765367
    endloop
  endfacet
  facet normal 0.669331 -0.322368 -0.669384
    outer loop
      vertex 50.4772 -0.598388 -1.84776
      vertex 50.7654 0 -1.84776
      vertex 51.1521 -1.44464 -0.765367
    endloop
  endfacet
  facet normal 0.165308 -0.72431 -0.669364
    outer loop
      vertex 49.5888 -1.80143 -0.765367
      vertex 50.4772 -0.598388 -1.84776
      vertex 51.1521 -1.44464 -0.765367
    endloop
  endfacet
  facet normal 0 0.716044 -0.698055
    outer loop
      vertex -0.17031 50.7462 -1.84776
      vertex 49.5888 51.8014 -0.765367
      vertex 49.8297 50.7462 -1.84776
    endloop
  endfacet
  facet normal 0.669361 -0.322346 -0.669365
    outer loop
      vertex 50.7654 0 -1.84776
      vertex 51.8478 0 -0.765367
      vertex 51.1521 -1.44464 -0.765367
    endloop
  endfacet
  facet normal 0 0 -1
    outer loop
      vertex 50.4772 -0.598388 -1.84776
      vertex 50.4772 50.5984 -1.84776
      vertex 50.7654 0 -1.84776
    endloop
  endfacet
  facet normal 0 0 -1
    outer loop
      vertex 49.8297 -0.746177 -1.84776
      vertex 50.4772 50.5984 -1.84776
      vertex 50.4772 -0.598388 -1.84776
    endloop
  endfacet
  facet normal -0.742939 0 0.669359
    outer loop
      vertex -0.689571 -0.33208 26.8478
      vertex -0.689571 50.3321 26.8478
      vertex -1.66477 -0.801712 25.7654
    endloop
  endfacet
  facet normal 0 -0.716029 0.698071
    outer loop
      vertex 49.8297 -0.746177 26.8478
      vertex -0.17031 -0.746177 26.8478
      vertex 49.5888 -1.80143 25.7654
    endloop
  endfacet
  facet normal 0.900965 0.433893 -0
    outer loop
      vertex 51.8478 50 -0.765367
      vertex 51.1521 51.4446 -0.765367
      vertex 51.8478 50 25.7654
    endloop
  endfacet
  facet normal 1 0 0
    outer loop
      vertex 51.8478 50 25.7654
      vertex 51.8478 0 -0.765367
      vertex 51.8478 50 -0.765367
    endloop
  endfacet
  facet normal -0 0.716046 0.698053
    outer loop
      vertex -0.411164 51.8014 25.7654
      vertex -0.17031 50.7462 26.8478
      vertex 49.5888 51.8014 25.7654
    endloop
  endfacet
  facet normal 0 1 0
    outer loop
      vertex -0.411164 51.8014 25.7654
      vertex 49.5888 51.8014 -0.765367
      vertex -0.411164 51.8014 -0.765367
    endloop
  endfacet
  facet normal -0.742937 -0 -0.669361
    outer loop
      vertex -0.689571 50.3321 -1.84776
      vertex -0.689571 -0.33208 -1.84776
      vertex -1.66477 50.8017 -0.765367
    endloop
  endfacet
  facet normal 0.222513 0.97493 0
    outer loop
      vertex 51.1521 51.4446 25.7654
      vertex 49.5888 51.8014 -0.765367
      vertex 49.5888 51.8014 25.7654
    endloop
  endfacet
  facet normal 0 -0.716027 -0.698073
    outer loop
      vertex -0.411164 -1.80143 -0.765367
      vertex 49.8297 -0.746177 -1.84776
      vertex 49.5888 -1.80143 -0.765367
    endloop
  endfacet
  facet normal 0.165321 -0.724313 -0.669357
    outer loop
      vertex 49.5888 -1.80143 -0.765367
      vertex 49.8297 -0.746177 -1.84776
      vertex 50.4772 -0.598388 -1.84776
    endloop
  endfacet
  facet normal -0 0 1
    outer loop
      vertex -0.689571 -0.33208 26.8478
      vertex 50.4772 -0.598388 26.8478
      vertex -0.689571 50.3321 26.8478
    endloop
  endfacet
  facet normal 0.669344 0.322368 0.669371
    outer loop
      vertex 51.1521 51.4446 25.7654
      vertex 50.4772 50.5984 26.8478
      vertex 50.7654 50 26.8478
    endloop
  endfacet
  facet normal 0.900969 -0.433883 0
    outer loop
      vertex 51.8478 0 -0.765367
      vertex 51.1521 -1.44464 25.7654
      vertex 51.1521 -1.44464 -0.765367
    endloop
  endfacet
  facet normal 0.900969 -0.433883 0
    outer loop
      vertex 51.8478 0 25.7654
      vertex 51.1521 -1.44464 25.7654
      vertex 51.8478 0 -0.765367
    endloop
  endfacet
  facet normal 0 -0.716027 -0.698073
    outer loop
      vertex -0.17031 -0.746177 -1.84776
      vertex 49.8297 -0.746177 -1.84776
      vertex -0.411164 -1.80143 -0.765367
    endloop
  endfacet
  facet normal 0 0 -1
    outer loop
      vertex -0.689571 -0.33208 -1.84776
      vertex 50.4772 50.5984 -1.84776
      vertex -0.17031 -0.746177 -1.84776
    endloop
  endfacet
  facet normal 0 0 1
    outer loop
      vertex 50.4772 50.5984 26.8478
      vertex 50.4772 -0.598388 26.8478
      vertex 50.7654 50 26.8478
    endloop
  endfacet
  facet normal 0.222513 0.97493 -0
    outer loop
      vertex 51.1521 51.4446 -0.765367
      vertex 49.5888 51.8014 -0.765367
      vertex 51.1521 51.4446 25.7654
    endloop
  endfacet
  facet normal 0.900965 0.433893 0
    outer loop
      vertex 51.8478 50 25.7654
      vertex 51.1521 51.4446 -0.765367
      vertex 51.1521 51.4446 25.7654
    endloop
  endfacet
  facet normal -0.623483 0.781837 0
    outer loop
      vertex -0.411164 51.8014 25.7654
      vertex -0.411164 51.8014 -0.765367
      vertex -1.66477 50.8017 25.7654
    endloop
  endfacet
  facet normal 0.669359 0.322354 -0.669363
    outer loop
      vertex 50.7654 50 -1.84776
      vertex 51.1521 51.4446 -0.765367
      vertex 51.8478 50 -0.765367
    endloop
  endfacet
  facet normal 0 0.716044 -0.698055
    outer loop
      vertex -0.411164 51.8014 -0.765367
      vertex 49.5888 51.8014 -0.765367
      vertex -0.17031 50.7462 -1.84776
    endloop
  endfacet
  facet normal 0 0 -1
    outer loop
      vertex -0.689571 50.3321 -1.84776
      vertex 50.4772 50.5984 -1.84776
      vertex -0.689571 -0.33208 -1.84776
    endloop
  endfacet
  facet normal 0 0 -1
    outer loop
      vertex -0.17031 -0.746177 -1.84776
      vertex 50.4772 50.5984 -1.84776
      vertex 49.8297 -0.746177 -1.84776
    endloop
  endfacet
  facet normal -0.463214 -0.580851 -0.669361
    outer loop
      vertex -1.66477 -0.801712 -0.765367
      vertex -0.689571 -0.33208 -1.84776
      vertex -0.411164 -1.80143 -0.765367
    endloop
  endfacet
  facet normal -0.742937 -0 -0.669361
    outer loop
      vertex -1.66477 50.8017 -0.765367
      vertex -0.689571 -0.33208 -1.84776
      vertex -1.66477 -0.801712 -0.765367
    endloop
  endfacet
  facet normal -0.463215 -0.580853 0.669359
    outer loop
      vertex -0.411164 -1.80143 25.7654
      vertex -0.17031 -0.746177 26.8478
      vertex -0.689571 -0.33208 26.8478
    endloop
  endfacet
  facet normal 0 -0.716029 0.698071
    outer loop
      vertex 49.5888 -1.80143 25.7654
      vertex -0.17031 -0.746177 26.8478
      vertex -0.411164 -1.80143 25.7654
    endloop
  endfacet
  facet normal 0 0.716046 0.698053
    outer loop
      vertex 49.5888 51.8014 25.7654
      vertex -0.17031 50.7462 26.8478
      vertex 49.8297 50.7462 26.8478
    endloop
  endfacet
  facet normal -0.463226 0.580863 0.669343
    outer loop
      vertex -0.689571 50.3321 26.8478
      vertex -0.17031 50.7462 26.8478
      vertex -0.411164 51.8014 25.7654
    endloop
  endfacet
  facet normal 1 -0 0
    outer loop
      vertex 51.8478 0 25.7654
      vertex 51.8478 0 -0.765367
      vertex 51.8478 50 25.7654
    endloop
  endfacet
  facet normal -0 0 1
    outer loop
      vertex -0.689571 50.3321 26.8478
      vertex 50.4772 -0.598388 26.8478
      vertex -0.17031 50.7462 26.8478
    endloop
  endfacet
  facet normal 0.222507 -0.974931 0
    outer loop
      vertex 49.5888 -1.80143 -0.765367
      vertex 51.1521 -1.44464 25.7654
      vertex 49.5888 -1.80143 25.7654
    endloop
  endfacet
  facet normal 0.222507 -0.974931 0
    outer loop
      vertex 51.1521 -1.44464 -0.765367
      vertex 51.1521 -1.44464 25.7654
      vertex 49.5888 -1.80143 -0.765367
    endloop
  endfacet
  facet normal 0 0 -1
    outer loop
      vertex 50.7654 0 -1.84776
      vertex 50.4772 50.5984 -1.84776
      vertex 50.7654 50 -1.84776
    endloop
  endfacet
  facet normal 0.669342 0.322367 -0.669374
    outer loop
      vertex 50.7654 50 -1.84776
      vertex 50.4772 50.5984 -1.84776
      vertex 51.1521 51.4446 -0.765367
    endloop
  endfacet
  facet normal -0.463216 0.580865 0.669348
    outer loop
      vertex -1.66477 50.8017 25.7654
      vertex -0.689571 50.3321 26.8478
      vertex -0.411164 51.8014 25.7654
    endloop
  endfacet
  facet normal -0.742939 0 0.669359
    outer loop
      vertex -1.66477 -0.801712 25.7654
      vertex -0.689571 50.3321 26.8478
      vertex -1.66477 50.8017 25.7654
    endloop
  endfacet
  facet normal 0.707107 0 0.707107
    outer loop
      vertex 50.7654 50 26.8478
      vertex 50.7654 0 26.8478
      vertex 51.8478 50 25.7654
    endloop
  endfacet
  facet normal 0 -0 1
    outer loop
      vertex -0.17031 -0.746177 26.8478
      vertex 50.4772 -0.598388 26.8478
      vertex -0.689571 -0.33208 26.8478
    endloop
  endfacet
  facet normal -0.463225 0.580861 -0.669345
    outer loop
      vertex -0.689571 50.3321 -1.84776
      vertex -0.411164 51.8014 -0.765367
      vertex -0.17031 50.7462 -1.84776
    endloop
  endfacet
  facet normal -0.463215 0.580863 -0.66935
    outer loop
      vertex -1.66477 50.8017 -0.765367
      vertex -0.411164 51.8014 -0.765367
      vertex -0.689571 50.3321 -1.84776
    endloop
  endfacet
  facet normal 0 -0 -1
    outer loop
      vertex -0.17031 50.7462 -1.84776
      vertex 50.4772 50.5984 -1.84776
      vertex -0.689571 50.3321 -1.84776
    endloop
  endfacet
  facet normal -0 -0 -1
    outer loop
      vertex 49.8297 50.7462 -1.84776
      vertex 50.4772 50.5984 -1.84776
      vertex -0.17031 50.7462 -1.84776
    endloop
  endfacet
  facet normal 0.669333 -0.322369 0.669381
    outer loop
      vertex 50.7654 0 26.8478
      vertex 50.4772 -0.598388 26.8478
      vertex 51.1521 -1.44464 25.7654
    endloop
  endfacet
  facet normal 0.165309 -0.724312 0.669362
    outer loop
      vertex 51.1521 -1.44464 25.7654
      vertex 50.4772 -0.598388 26.8478
      vertex 49.5888 -1.80143 25.7654
    endloop
  endfacet
  facet normal 0 0 1
    outer loop
      vertex 49.8297 50.7462 26.8478
      vertex 50.4772 -0.598388 26.8478
      vertex 50.4772 50.5984 26.8478
    endloop
  endfacet
  facet normal -0 0 1
    outer loop
      vertex -0.17031 50.7462 26.8478
      vertex 50.4772 -0.598388 26.8478
      vertex 49.8297 50.7462 26.8478
    endloop
  endfacet
  facet normal 0.669363 -0.322347 0.669363
    outer loop
      vertex 51.8478 0 25.7654
      vertex 50.7654 0 26.8478
      vertex 51.1521 -1.44464 25.7654
    endloop
  endfacet
  facet normal 0.707107 0 0.707107
    outer loop
      vertex 51.8478 50 25.7654
      vertex 50.7654 0 26.8478
      vertex 51.8478 0 25.7654
    endloop
  endfacet
  facet normal 0.165316 0.724325 -0.669346
    outer loop
      vertex 50.4772 50.5984 -1.84776
      vertex 49.5888 51.8014 -0.765367
      vertex 51.1521 51.4446 -0.765367
    endloop
  endfacet
  facet normal 0.165337 0.72433 -0.669335
    outer loop
      vertex 49.8297 50.7462 -1.84776
      vertex 49.5888 51.8014 -0.765367
      vertex 50.4772 50.5984 -1.84776
    endloop
  endfacet
  facet normal 0 -0 1
    outer loop
      vertex 49.8297 -0.746177 26.8478
      vertex 50.4772 -0.598388 26.8478
      vertex -0.17031 -0.746177 26.8478
    endloop
  endfacet
  facet normal 0.165322 -0.724315 0.669355
    outer loop
      vertex 49.5888 -1.80143 25.7654
      vertex 50.4772 -0.598388 26.8478
      vertex 49.8297 -0.746177 26.8478
    endloop
  endfacet
endsolid OpenSCAD_Model
