solid OpenSCAD_Model
  facet normal 1 0 0
    outer loop
      vertex 5 1.5 75
      vertex 5 1 35
      vertex 5 1.5 35
    endloop
  endfacet
  facet normal 1 0 0
    outer loop
      vertex 5 1 35
      vertex 5 -1 35
      vertex 5 1 26
    endloop
  endfacet
  facet normal 1 0 0
    outer loop
      vertex 5 1.5 75
      vertex 5 -1 35
      vertex 5 1 35
    endloop
  endfacet
  facet normal 1 -0 0
    outer loop
      vertex 5 -1.5 75
      vertex 5 -1 35
      vertex 5 1.5 75
    endloop
  endfacet
  facet normal 1 0 0
    outer loop
      vertex 5 -1 35
      vertex 5 -1.5 75
      vertex 5 -1.5 35
    endloop
  endfacet
  facet normal 1 0 0
    outer loop
      vertex 5 1 26
      vertex 5 -1 35
      vertex 5 -1 26
    endloop
  endfacet
  facet normal -0 0 1
    outer loop
      vertex -5 1.5 75
      vertex 5 -1.5 75
      vertex 5 1.5 75
    endloop
  endfacet
  facet normal 0 0 1
    outer loop
      vertex 5 -1.5 75
      vertex -5 1.5 75
      vertex -5 -1.5 75
    endloop
  endfacet
  facet normal 0 0 -1
    outer loop
      vertex -5 1 35
      vertex 5 1.5 35
      vertex 5 1 35
    endloop
  endfacet
  facet normal -0 0 -1
    outer loop
      vertex 5 1.5 35
      vertex -5 1 35
      vertex -5 1.5 35
    endloop
  endfacet
  facet normal 0 0 -1
    outer loop
      vertex -5 -1.5 35
      vertex 5 -1 35
      vertex 5 -1.5 35
    endloop
  endfacet
  facet normal -0 0 -1
    outer loop
      vertex 5 -1 35
      vertex -5 -1.5 35
      vertex -5 -1 35
    endloop
  endfacet
  facet normal -1 0 0
    outer loop
      vertex -5 1 25
      vertex -5 -1 25
      vertex -5 1 35
    endloop
  endfacet
  facet normal -1 0 0
    outer loop
      vertex -5 1 35
      vertex -5 1.5 75
      vertex -5 1.5 35
    endloop
  endfacet
  facet normal -1 0 0
    outer loop
      vertex -5 -1 35
      vertex -5 1 35
      vertex -5 -1 25
    endloop
  endfacet
  facet normal -1 0 0
    outer loop
      vertex -5 1 35
      vertex -5 -1 35
      vertex -5 1.5 75
    endloop
  endfacet
  facet normal -1 0 0
    outer loop
      vertex -5 -1.5 75
      vertex -5 -1 35
      vertex -5 -1.5 35
    endloop
  endfacet
  facet normal -1 0 0
    outer loop
      vertex -5 -1 35
      vertex -5 -1.5 75
      vertex -5 1.5 75
    endloop
  endfacet
  facet normal 0 1 -0
    outer loop
      vertex 5 1.5 35
      vertex -5 1.5 75
      vertex 5 1.5 75
    endloop
  endfacet
  facet normal 0 1 0
    outer loop
      vertex -5 1.5 75
      vertex 5 1.5 35
      vertex -5 1.5 35
    endloop
  endfacet
  facet normal 0 -1 0
    outer loop
      vertex -5 -1.5 35
      vertex 5 -1.5 75
      vertex -5 -1.5 75
    endloop
  endfacet
  facet normal 0 -1 -0
    outer loop
      vertex 5 -1.5 75
      vertex -5 -1.5 35
      vertex 5 -1.5 35
    endloop
  endfacet
  facet normal 0 0 -1
    outer loop
      vertex -5 -1 25
      vertex 0 1 25
      vertex 0 -1 25
    endloop
  endfacet
  facet normal -0 0 -1
    outer loop
      vertex 0 1 25
      vertex -5 -1 25
      vertex -5 1 25
    endloop
  endfacet
  facet normal 0 1 -0
    outer loop
      vertex 10 1 4
      vertex 5 1 26
      vertex 10 1 26
    endloop
  endfacet
  facet normal 0 1 0
    outer loop
      vertex 0 1 4
      vertex 5 1 26
      vertex 10 1 4
    endloop
  endfacet
  facet normal 0 1 0
    outer loop
      vertex 5 1 26
      vertex 0 1 4
      vertex 0 1 25
    endloop
  endfacet
  facet normal 0 1 0
    outer loop
      vertex 0 1 25
      vertex 5 1 35
      vertex 5 1 26
    endloop
  endfacet
  facet normal 0 1 0
    outer loop
      vertex 5 1 35
      vertex 0 1 25
      vertex -5 1 35
    endloop
  endfacet
  facet normal 0 1 0
    outer loop
      vertex -5 1 35
      vertex 0 1 25
      vertex -5 1 25
    endloop
  endfacet
  facet normal 0 -1 0
    outer loop
      vertex 0 -1 25
      vertex 5 -1 35
      vertex -5 -1 35
    endloop
  endfacet
  facet normal 0 -1 0
    outer loop
      vertex 0 -1 25
      vertex -5 -1 35
      vertex -5 -1 25
    endloop
  endfacet
  facet normal 0 -1 -0
    outer loop
      vertex 5 -1 35
      vertex 0 -1 25
      vertex 5 -1 26
    endloop
  endfacet
  facet normal 0 -1 0
    outer loop
      vertex 0 -1 4
      vertex 5 -1 26
      vertex 0 -1 25
    endloop
  endfacet
  facet normal 0 -1 -0
    outer loop
      vertex 5 -1 26
      vertex 0 -1 4
      vertex 10 -1 4
    endloop
  endfacet
  facet normal 0 -1 0
    outer loop
      vertex 5 -1 26
      vertex 10 -1 4
      vertex 10 -1 26
    endloop
  endfacet
  facet normal 1 -0 0
    outer loop
      vertex 10 -1 26
      vertex 10 1 4
      vertex 10 1 26
    endloop
  endfacet
  facet normal 1 0 0
    outer loop
      vertex 10 1 4
      vertex 10 -1 26
      vertex 10 -1 4
    endloop
  endfacet
  facet normal -0 0 1
    outer loop
      vertex 5 1 26
      vertex 10 -1 26
      vertex 10 1 26
    endloop
  endfacet
  facet normal 0 0 1
    outer loop
      vertex 10 -1 26
      vertex 5 1 26
      vertex 5 -1 26
    endloop
  endfacet
  facet normal 0 0 -1
    outer loop
      vertex 0 -1 4
      vertex 10 1 4
      vertex 10 -1 4
    endloop
  endfacet
  facet normal -0 0 -1
    outer loop
      vertex 10 1 4
      vertex 0 -1 4
      vertex 0 1 4
    endloop
  endfacet
  facet normal -1 0 0
    outer loop
      vertex 0 -1 4
      vertex 0 1 25
      vertex 0 1 4
    endloop
  endfacet
  facet normal -1 -0 0
    outer loop
      vertex 0 1 25
      vertex 0 -1 4
      vertex 0 -1 25
    endloop
  endfacet
  facet normal 1 -0 0
    outer loop
      vertex 6 -6 1
      vertex 6 6 -11
      vertex 6 6 1
    endloop
  endfacet
  facet normal 1 0 0
    outer loop
      vertex 6 6 -11
      vertex 6 -6 1
      vertex 6 -6 -11
    endloop
  endfacet
  facet normal -0 0 1
    outer loop
      vertex -6 6 1
      vertex 6 -6 1
      vertex 6 6 1
    endloop
  endfacet
  facet normal 0 0 1
    outer loop
      vertex 6 -6 1
      vertex -6 6 1
      vertex -6 -6 1
    endloop
  endfacet
  facet normal 0 0 -1
    outer loop
      vertex -6 -6 -11
      vertex 6 6 -11
      vertex 6 -6 -11
    endloop
  endfacet
  facet normal -0 0 -1
    outer loop
      vertex 6 6 -11
      vertex -6 -6 -11
      vertex -6 6 -11
    endloop
  endfacet
  facet normal -1 0 0
    outer loop
      vertex -6 -6 -11
      vertex -6 6 1
      vertex -6 6 -11
    endloop
  endfacet
  facet normal -1 -0 0
    outer loop
      vertex -6 6 1
      vertex -6 -6 -11
      vertex -6 -6 1
    endloop
  endfacet
  facet normal 0 1 -0
    outer loop
      vertex 6 6 -11
      vertex -6 6 1
      vertex 6 6 1
    endloop
  endfacet
  facet normal 0 1 0
    outer loop
      vertex -6 6 1
      vertex 6 6 -11
      vertex -6 6 -11
    endloop
  endfacet
  facet normal 0 -1 0
    outer loop
      vertex -6 -6 -11
      vertex 6 -6 1
      vertex -6 -6 1
    endloop
  endfacet
  facet normal 0 -1 -0
    outer loop
      vertex 6 -6 1
      vertex -6 -6 -11
      vertex 6 -6 -11
    endloop
  endfacet
  facet normal 1 -0 0
    outer loop
      vertex 5 -1 -15
      vertex 5 1 -35
      vertex 5 1 -15
    endloop
  endfacet
  facet normal 1 0 0
    outer loop
      vertex 5 1 -35
      vertex 5 -1 -15
      vertex 5 -1 -35
    endloop
  endfacet
  facet normal -0 0 1
    outer loop
      vertex -5 1 -15
      vertex 5 -1 -15
      vertex 5 1 -15
    endloop
  endfacet
  facet normal 0 0 1
    outer loop
      vertex 5 -1 -15
      vertex -5 1 -15
      vertex -5 -1 -15
    endloop
  endfacet
  facet normal 0 0 -1
    outer loop
      vertex -5 -1 -35
      vertex 5 1 -35
      vertex 5 -1 -35
    endloop
  endfacet
  facet normal -0 0 -1
    outer loop
      vertex 5 1 -35
      vertex -5 -1 -35
      vertex -5 1 -35
    endloop
  endfacet
  facet normal -1 0 0
    outer loop
      vertex -5 -1 -35
      vertex -5 1 -15
      vertex -5 1 -35
    endloop
  endfacet
  facet normal -1 -0 0
    outer loop
      vertex -5 1 -15
      vertex -5 -1 -35
      vertex -5 -1 -15
    endloop
  endfacet
  facet normal 0 1 -0
    outer loop
      vertex 5 1 -35
      vertex -5 1 -15
      vertex 5 1 -15
    endloop
  endfacet
  facet normal 0 1 0
    outer loop
      vertex -5 1 -15
      vertex 5 1 -35
      vertex -5 1 -35
    endloop
  endfacet
  facet normal 0 -1 0
    outer loop
      vertex -5 -1 -35
      vertex 5 -1 -15
      vertex -5 -1 -15
    endloop
  endfacet
  facet normal 0 -1 -0
    outer loop
      vertex 5 -1 -15
      vertex -5 -1 -35
      vertex 5 -1 -35
    endloop
  endfacet
  facet normal 1 -0 0
    outer loop
      vertex 5 -1.5 -37.5
      vertex 5 1.5 -52.5
      vertex 5 1.5 -37.5
    endloop
  endfacet
  facet normal 1 0 0
    outer loop
      vertex 5 1.5 -52.5
      vertex 5 -1.5 -37.5
      vertex 5 -1.5 -52.5
    endloop
  endfacet
  facet normal -0 0 1
    outer loop
      vertex -5 1.5 -37.5
      vertex 5 -1.5 -37.5
      vertex 5 1.5 -37.5
    endloop
  endfacet
  facet normal 0 0 1
    outer loop
      vertex 5 -1.5 -37.5
      vertex -5 1.5 -37.5
      vertex -5 -1.5 -37.5
    endloop
  endfacet
  facet normal 0 0 -1
    outer loop
      vertex -5 -1.5 -52.5
      vertex 5 1.5 -52.5
      vertex 5 -1.5 -52.5
    endloop
  endfacet
  facet normal -0 0 -1
    outer loop
      vertex 5 1.5 -52.5
      vertex -5 -1.5 -52.5
      vertex -5 1.5 -52.5
    endloop
  endfacet
  facet normal -1 0 0
    outer loop
      vertex -5 -1.5 -52.5
      vertex -5 1.5 -37.5
      vertex -5 1.5 -52.5
    endloop
  endfacet
  facet normal -1 -0 0
    outer loop
      vertex -5 1.5 -37.5
      vertex -5 -1.5 -52.5
      vertex -5 -1.5 -37.5
    endloop
  endfacet
  facet normal 0 1 -0
    outer loop
      vertex 5 1.5 -52.5
      vertex -5 1.5 -37.5
      vertex 5 1.5 -37.5
    endloop
  endfacet
  facet normal 0 1 0
    outer loop
      vertex -5 1.5 -37.5
      vertex 5 1.5 -52.5
      vertex -5 1.5 -52.5
    endloop
  endfacet
  facet normal 0 -1 0
    outer loop
      vertex -5 -1.5 -52.5
      vertex 5 -1.5 -37.5
      vertex -5 -1.5 -37.5
    endloop
  endfacet
  facet normal 0 -1 -0
    outer loop
      vertex 5 -1.5 -37.5
      vertex -5 -1.5 -52.5
      vertex 5 -1.5 -52.5
    endloop
  endfacet
endsolid OpenSCAD_Model
