solid OpenSCAD_Model
  facet normal 1 -0 0
    outer loop
      vertex 70 0 40
      vertex 70 50 0
      vertex 70 50 40
    endloop
  endfacet
  facet normal 1 0 0
    outer loop
      vertex 70 50 0
      vertex 70 0 40
      vertex 70 0 0
    endloop
  endfacet
  facet normal -0 0 1
    outer loop
      vertex 0 50 22
      vertex 5 0 22
      vertex 5 50 22
    endloop
  endfacet
  facet normal 0 0 1
    outer loop
      vertex 5 0 22
      vertex 0 50 22
      vertex 0 0 22
    endloop
  endfacet
  facet normal -1 0 0
    outer loop
      vertex 0 0 0
      vertex 0 50 22
      vertex 0 50 0
    endloop
  endfacet
  facet normal -1 -0 0
    outer loop
      vertex 0 50 22
      vertex 0 0 0
      vertex 0 0 22
    endloop
  endfacet
  facet normal 0 1 0
    outer loop
      vertex 70 50 40
      vertex 45 50 38
      vertex 45 50 40
    endloop
  endfacet
  facet normal 0 1 0
    outer loop
      vertex 45 50 38
      vertex 40 50 36
      vertex 40 50 38
    endloop
  endfacet
  facet normal 0 1 -0
    outer loop
      vertex 70 50 0
      vertex 45 50 38
      vertex 70 50 40
    endloop
  endfacet
  facet normal 0 1 0
    outer loop
      vertex 40 50 36
      vertex 35 50 34
      vertex 35 50 36
    endloop
  endfacet
  facet normal 0 1 0
    outer loop
      vertex 45 50 38
      vertex 70 50 0
      vertex 40 50 36
    endloop
  endfacet
  facet normal 0 1 0
    outer loop
      vertex 35 50 34
      vertex 30 50 32
      vertex 30 50 34
    endloop
  endfacet
  facet normal 0 1 0
    outer loop
      vertex 40 50 36
      vertex 70 50 0
      vertex 35 50 34
    endloop
  endfacet
  facet normal 0 1 0
    outer loop
      vertex 30 50 32
      vertex 25 50 30
      vertex 25 50 32
    endloop
  endfacet
  facet normal 0 1 0
    outer loop
      vertex 35 50 34
      vertex 70 50 0
      vertex 30 50 32
    endloop
  endfacet
  facet normal 0 1 0
    outer loop
      vertex 25 50 30
      vertex 20 50 28
      vertex 20 50 30
    endloop
  endfacet
  facet normal 0 1 0
    outer loop
      vertex 30 50 32
      vertex 70 50 0
      vertex 25 50 30
    endloop
  endfacet
  facet normal 0 1 0
    outer loop
      vertex 20 50 28
      vertex 15 50 26
      vertex 15 50 28
    endloop
  endfacet
  facet normal 0 1 0
    outer loop
      vertex 25 50 30
      vertex 70 50 0
      vertex 20 50 28
    endloop
  endfacet
  facet normal 0 1 0
    outer loop
      vertex 15 50 26
      vertex 10 50 24
      vertex 10 50 26
    endloop
  endfacet
  facet normal 0 1 0
    outer loop
      vertex 0 50 0
      vertex 20 50 28
      vertex 70 50 0
    endloop
  endfacet
  facet normal 0 1 0
    outer loop
      vertex 10 50 24
      vertex 5 50 22
      vertex 5 50 24
    endloop
  endfacet
  facet normal 0 1 0
    outer loop
      vertex 20 50 28
      vertex 0 50 0
      vertex 15 50 26
    endloop
  endfacet
  facet normal 0 1 0
    outer loop
      vertex 15 50 26
      vertex 0 50 0
      vertex 10 50 24
    endloop
  endfacet
  facet normal 0 1 0
    outer loop
      vertex 10 50 24
      vertex 0 50 0
      vertex 5 50 22
    endloop
  endfacet
  facet normal 0 1 0
    outer loop
      vertex 5 50 22
      vertex 0 50 0
      vertex 0 50 22
    endloop
  endfacet
  facet normal 0 -1 0
    outer loop
      vertex 0 0 22
      vertex 0 0 0
      vertex 5 0 22
    endloop
  endfacet
  facet normal 0 -1 0
    outer loop
      vertex 5 0 24
      vertex 5 0 22
      vertex 10 0 24
    endloop
  endfacet
  facet normal 0 -1 0
    outer loop
      vertex 10 0 26
      vertex 10 0 24
      vertex 15 0 26
    endloop
  endfacet
  facet normal 0 -1 0
    outer loop
      vertex 15 0 28
      vertex 15 0 26
      vertex 20 0 28
    endloop
  endfacet
  facet normal 0 -1 0
    outer loop
      vertex 20 0 30
      vertex 20 0 28
      vertex 25 0 30
    endloop
  endfacet
  facet normal 0 -1 0
    outer loop
      vertex 25 0 32
      vertex 25 0 30
      vertex 30 0 32
    endloop
  endfacet
  facet normal 0 -1 0
    outer loop
      vertex 30 0 34
      vertex 30 0 32
      vertex 35 0 34
    endloop
  endfacet
  facet normal 0 -1 0
    outer loop
      vertex 35 0 36
      vertex 35 0 34
      vertex 40 0 36
    endloop
  endfacet
  facet normal 0 -1 0
    outer loop
      vertex 40 0 38
      vertex 40 0 36
      vertex 45 0 38
    endloop
  endfacet
  facet normal 0 -1 0
    outer loop
      vertex 45 0 38
      vertex 70 0 40
      vertex 45 0 40
    endloop
  endfacet
  facet normal 0 -1 0
    outer loop
      vertex 70 0 0
      vertex 45 0 38
      vertex 40 0 36
    endloop
  endfacet
  facet normal 0 -1 0
    outer loop
      vertex 70 0 0
      vertex 40 0 36
      vertex 35 0 34
    endloop
  endfacet
  facet normal 0 -1 0
    outer loop
      vertex 70 0 0
      vertex 35 0 34
      vertex 30 0 32
    endloop
  endfacet
  facet normal 0 -1 0
    outer loop
      vertex 70 0 0
      vertex 30 0 32
      vertex 25 0 30
    endloop
  endfacet
  facet normal 0 -1 0
    outer loop
      vertex 70 0 0
      vertex 25 0 30
      vertex 20 0 28
    endloop
  endfacet
  facet normal 0 -1 0
    outer loop
      vertex 0 0 0
      vertex 20 0 28
      vertex 15 0 26
    endloop
  endfacet
  facet normal 0 -1 0
    outer loop
      vertex 0 0 0
      vertex 15 0 26
      vertex 10 0 24
    endloop
  endfacet
  facet normal 0 -1 0
    outer loop
      vertex 0 0 0
      vertex 10 0 24
      vertex 5 0 22
    endloop
  endfacet
  facet normal 0 -1 -0
    outer loop
      vertex 20 0 28
      vertex 0 0 0
      vertex 70 0 0
    endloop
  endfacet
  facet normal 0 -1 0
    outer loop
      vertex 45 0 38
      vertex 70 0 0
      vertex 70 0 40
    endloop
  endfacet
  facet normal -0 0 1
    outer loop
      vertex 5 50 24
      vertex 10 0 24
      vertex 10 50 24
    endloop
  endfacet
  facet normal 0 0 1
    outer loop
      vertex 10 0 24
      vertex 5 50 24
      vertex 5 0 24
    endloop
  endfacet
  facet normal -1 0 0
    outer loop
      vertex 5 0 22
      vertex 5 50 24
      vertex 5 50 22
    endloop
  endfacet
  facet normal -1 -0 0
    outer loop
      vertex 5 50 24
      vertex 5 0 22
      vertex 5 0 24
    endloop
  endfacet
  facet normal -0 0 1
    outer loop
      vertex 10 50 26
      vertex 15 0 26
      vertex 15 50 26
    endloop
  endfacet
  facet normal 0 0 1
    outer loop
      vertex 15 0 26
      vertex 10 50 26
      vertex 10 0 26
    endloop
  endfacet
  facet normal -1 0 0
    outer loop
      vertex 10 0 24
      vertex 10 50 26
      vertex 10 50 24
    endloop
  endfacet
  facet normal -1 -0 0
    outer loop
      vertex 10 50 26
      vertex 10 0 24
      vertex 10 0 26
    endloop
  endfacet
  facet normal -0 0 1
    outer loop
      vertex 15 50 28
      vertex 20 0 28
      vertex 20 50 28
    endloop
  endfacet
  facet normal 0 0 1
    outer loop
      vertex 20 0 28
      vertex 15 50 28
      vertex 15 0 28
    endloop
  endfacet
  facet normal -1 0 0
    outer loop
      vertex 15 0 26
      vertex 15 50 28
      vertex 15 50 26
    endloop
  endfacet
  facet normal -1 -0 0
    outer loop
      vertex 15 50 28
      vertex 15 0 26
      vertex 15 0 28
    endloop
  endfacet
  facet normal -0 0 1
    outer loop
      vertex 20 50 30
      vertex 25 0 30
      vertex 25 50 30
    endloop
  endfacet
  facet normal 0 0 1
    outer loop
      vertex 25 0 30
      vertex 20 50 30
      vertex 20 0 30
    endloop
  endfacet
  facet normal -1 0 0
    outer loop
      vertex 20 0 28
      vertex 20 50 30
      vertex 20 50 28
    endloop
  endfacet
  facet normal -1 -0 0
    outer loop
      vertex 20 50 30
      vertex 20 0 28
      vertex 20 0 30
    endloop
  endfacet
  facet normal -0 0 1
    outer loop
      vertex 25 50 32
      vertex 30 0 32
      vertex 30 50 32
    endloop
  endfacet
  facet normal 0 0 1
    outer loop
      vertex 30 0 32
      vertex 25 50 32
      vertex 25 0 32
    endloop
  endfacet
  facet normal -1 0 0
    outer loop
      vertex 25 0 30
      vertex 25 50 32
      vertex 25 50 30
    endloop
  endfacet
  facet normal -1 -0 0
    outer loop
      vertex 25 50 32
      vertex 25 0 30
      vertex 25 0 32
    endloop
  endfacet
  facet normal -0 0 1
    outer loop
      vertex 30 50 34
      vertex 35 0 34
      vertex 35 50 34
    endloop
  endfacet
  facet normal 0 0 1
    outer loop
      vertex 35 0 34
      vertex 30 50 34
      vertex 30 0 34
    endloop
  endfacet
  facet normal -1 0 0
    outer loop
      vertex 30 0 32
      vertex 30 50 34
      vertex 30 50 32
    endloop
  endfacet
  facet normal -1 -0 0
    outer loop
      vertex 30 50 34
      vertex 30 0 32
      vertex 30 0 34
    endloop
  endfacet
  facet normal -0 0 1
    outer loop
      vertex 35 50 36
      vertex 40 0 36
      vertex 40 50 36
    endloop
  endfacet
  facet normal 0 0 1
    outer loop
      vertex 40 0 36
      vertex 35 50 36
      vertex 35 0 36
    endloop
  endfacet
  facet normal -1 0 0
    outer loop
      vertex 35 0 34
      vertex 35 50 36
      vertex 35 50 34
    endloop
  endfacet
  facet normal -1 -0 0
    outer loop
      vertex 35 50 36
      vertex 35 0 34
      vertex 35 0 36
    endloop
  endfacet
  facet normal -0 0 1
    outer loop
      vertex 40 50 38
      vertex 45 0 38
      vertex 45 50 38
    endloop
  endfacet
  facet normal 0 0 1
    outer loop
      vertex 45 0 38
      vertex 40 50 38
      vertex 40 0 38
    endloop
  endfacet
  facet normal -1 0 0
    outer loop
      vertex 40 0 36
      vertex 40 50 38
      vertex 40 50 36
    endloop
  endfacet
  facet normal -1 -0 0
    outer loop
      vertex 40 50 38
      vertex 40 0 36
      vertex 40 0 38
    endloop
  endfacet
  facet normal -0 0 1
    outer loop
      vertex 45 50 40
      vertex 70 0 40
      vertex 70 50 40
    endloop
  endfacet
  facet normal 0 0 1
    outer loop
      vertex 70 0 40
      vertex 45 50 40
      vertex 45 0 40
    endloop
  endfacet
  facet normal -1 0 0
    outer loop
      vertex 45 0 38
      vertex 45 50 40
      vertex 45 50 38
    endloop
  endfacet
  facet normal -1 -0 0
    outer loop
      vertex 45 50 40
      vertex 45 0 38
      vertex 45 0 40
    endloop
  endfacet
  facet normal 0 0 -1
    outer loop
      vertex 0 0 0
      vertex 70 50 0
      vertex 70 0 0
    endloop
  endfacet
  facet normal -0 0 -1
    outer loop
      vertex 70 50 0
      vertex 0 0 0
      vertex 0 50 0
    endloop
  endfacet
endsolid OpenSCAD_Model
