solid OpenSCAD_Model
  facet normal 1 -0 0
    outer loop
      vertex 25 -10 1
      vertex 25 10 -1
      vertex 25 10 1
    endloop
  endfacet
  facet normal 1 0 0
    outer loop
      vertex 25 10 -1
      vertex 25 -10 1
      vertex 25 -10 -1
    endloop
  endfacet
  facet normal -0 0 1
    outer loop
      vertex -25 10 1
      vertex 25 -10 1
      vertex 25 10 1
    endloop
  endfacet
  facet normal 0 0 1
    outer loop
      vertex 25 -10 1
      vertex -25 10 1
      vertex -25 -10 1
    endloop
  endfacet
  facet normal 0 0 -1
    outer loop
      vertex -25 -10 -1
      vertex 25 10 -1
      vertex 25 -10 -1
    endloop
  endfacet
  facet normal -0 0 -1
    outer loop
      vertex 25 10 -1
      vertex -25 -10 -1
      vertex -25 10 -1
    endloop
  endfacet
  facet normal -1 0 0
    outer loop
      vertex -25 -10 -1
      vertex -25 10 1
      vertex -25 10 -1
    endloop
  endfacet
  facet normal -1 -0 0
    outer loop
      vertex -25 10 1
      vertex -25 -10 -1
      vertex -25 -10 1
    endloop
  endfacet
  facet normal 0 1 -0
    outer loop
      vertex 25 10 -1
      vertex -25 10 1
      vertex 25 10 1
    endloop
  endfacet
  facet normal 0 1 0
    outer loop
      vertex -25 10 1
      vertex 25 10 -1
      vertex -25 10 -1
    endloop
  endfacet
  facet normal 0 -1 0
    outer loop
      vertex -25 -10 -1
      vertex 25 -10 1
      vertex -25 -10 1
    endloop
  endfacet
  facet normal 0 -1 -0
    outer loop
      vertex 25 -10 1
      vertex -25 -10 -1
      vertex 25 -10 -1
    endloop
  endfacet
  facet normal 1 -0 0
    outer loop
      vertex 25 -10 5
      vertex 25 10 3
      vertex 25 10 5
    endloop
  endfacet
  facet normal 1 0 0
    outer loop
      vertex 25 10 3
      vertex 25 -10 5
      vertex 25 -10 3
    endloop
  endfacet
  facet normal -0 0 1
    outer loop
      vertex -25 10 5
      vertex 25 -10 5
      vertex 25 10 5
    endloop
  endfacet
  facet normal 0 0 1
    outer loop
      vertex 25 -10 5
      vertex -25 10 5
      vertex -25 -10 5
    endloop
  endfacet
  facet normal 0 0 -1
    outer loop
      vertex -25 -10 3
      vertex 25 10 3
      vertex 25 -10 3
    endloop
  endfacet
  facet normal -0 0 -1
    outer loop
      vertex 25 10 3
      vertex -25 -10 3
      vertex -25 10 3
    endloop
  endfacet
  facet normal -1 0 0
    outer loop
      vertex -25 -10 3
      vertex -25 10 5
      vertex -25 10 3
    endloop
  endfacet
  facet normal -1 -0 0
    outer loop
      vertex -25 10 5
      vertex -25 -10 3
      vertex -25 -10 5
    endloop
  endfacet
  facet normal 0 1 -0
    outer loop
      vertex 25 10 3
      vertex -25 10 5
      vertex 25 10 5
    endloop
  endfacet
  facet normal 0 1 0
    outer loop
      vertex -25 10 5
      vertex 25 10 3
      vertex -25 10 3
    endloop
  endfacet
  facet normal 0 -1 0
    outer loop
      vertex -25 -10 3
      vertex 25 -10 5
      vertex -25 -10 5
    endloop
  endfacet
  facet normal 0 -1 -0
    outer loop
      vertex 25 -10 5
      vertex -25 -10 3
      vertex 25 -10 3
    endloop
  endfacet
  facet normal 1 -0 0
    outer loop
      vertex 25 -10 9
      vertex 25 10 7
      vertex 25 10 9
    endloop
  endfacet
  facet normal 1 0 0
    outer loop
      vertex 25 10 7
      vertex 25 -10 9
      vertex 25 -10 7
    endloop
  endfacet
  facet normal -0 0 1
    outer loop
      vertex -25 10 9
      vertex 25 -10 9
      vertex 25 10 9
    endloop
  endfacet
  facet normal 0 0 1
    outer loop
      vertex 25 -10 9
      vertex -25 10 9
      vertex -25 -10 9
    endloop
  endfacet
  facet normal 0 0 -1
    outer loop
      vertex -25 -10 7
      vertex 25 10 7
      vertex 25 -10 7
    endloop
  endfacet
  facet normal -0 0 -1
    outer loop
      vertex 25 10 7
      vertex -25 -10 7
      vertex -25 10 7
    endloop
  endfacet
  facet normal -1 0 0
    outer loop
      vertex -25 -10 7
      vertex -25 10 9
      vertex -25 10 7
    endloop
  endfacet
  facet normal -1 -0 0
    outer loop
      vertex -25 10 9
      vertex -25 -10 7
      vertex -25 -10 9
    endloop
  endfacet
  facet normal 0 1 -0
    outer loop
      vertex 25 10 7
      vertex -25 10 9
      vertex 25 10 9
    endloop
  endfacet
  facet normal 0 1 0
    outer loop
      vertex -25 10 9
      vertex 25 10 7
      vertex -25 10 7
    endloop
  endfacet
  facet normal 0 -1 0
    outer loop
      vertex -25 -10 7
      vertex 25 -10 9
      vertex -25 -10 9
    endloop
  endfacet
  facet normal 0 -1 -0
    outer loop
      vertex 25 -10 9
      vertex -25 -10 7
      vertex 25 -10 7
    endloop
  endfacet
  facet normal 1 -0 0
    outer loop
      vertex 25 -10 13
      vertex 25 10 11
      vertex 25 10 13
    endloop
  endfacet
  facet normal 1 0 0
    outer loop
      vertex 25 10 11
      vertex 25 -10 13
      vertex 25 -10 11
    endloop
  endfacet
  facet normal -0 0 1
    outer loop
      vertex -25 10 13
      vertex 25 -10 13
      vertex 25 10 13
    endloop
  endfacet
  facet normal 0 0 1
    outer loop
      vertex 25 -10 13
      vertex -25 10 13
      vertex -25 -10 13
    endloop
  endfacet
  facet normal 0 0 -1
    outer loop
      vertex -25 -10 11
      vertex 25 10 11
      vertex 25 -10 11
    endloop
  endfacet
  facet normal -0 0 -1
    outer loop
      vertex 25 10 11
      vertex -25 -10 11
      vertex -25 10 11
    endloop
  endfacet
  facet normal -1 0 0
    outer loop
      vertex -25 -10 11
      vertex -25 10 13
      vertex -25 10 11
    endloop
  endfacet
  facet normal -1 -0 0
    outer loop
      vertex -25 10 13
      vertex -25 -10 11
      vertex -25 -10 13
    endloop
  endfacet
  facet normal 0 1 -0
    outer loop
      vertex 25 10 11
      vertex -25 10 13
      vertex 25 10 13
    endloop
  endfacet
  facet normal 0 1 0
    outer loop
      vertex -25 10 13
      vertex 25 10 11
      vertex -25 10 11
    endloop
  endfacet
  facet normal 0 -1 0
    outer loop
      vertex -25 -10 11
      vertex 25 -10 13
      vertex -25 -10 13
    endloop
  endfacet
  facet normal 0 -1 -0
    outer loop
      vertex 25 -10 13
      vertex -25 -10 11
      vertex 25 -10 11
    endloop
  endfacet
  facet normal 1 -0 0
    outer loop
      vertex 25 -10 17
      vertex 25 10 15
      vertex 25 10 17
    endloop
  endfacet
  facet normal 1 0 0
    outer loop
      vertex 25 10 15
      vertex 25 -10 17
      vertex 25 -10 15
    endloop
  endfacet
  facet normal -0 0 1
    outer loop
      vertex -25 10 17
      vertex 25 -10 17
      vertex 25 10 17
    endloop
  endfacet
  facet normal 0 0 1
    outer loop
      vertex 25 -10 17
      vertex -25 10 17
      vertex -25 -10 17
    endloop
  endfacet
  facet normal 0 0 -1
    outer loop
      vertex -25 -10 15
      vertex 25 10 15
      vertex 25 -10 15
    endloop
  endfacet
  facet normal -0 0 -1
    outer loop
      vertex 25 10 15
      vertex -25 -10 15
      vertex -25 10 15
    endloop
  endfacet
  facet normal -1 0 0
    outer loop
      vertex -25 -10 15
      vertex -25 10 17
      vertex -25 10 15
    endloop
  endfacet
  facet normal -1 -0 0
    outer loop
      vertex -25 10 17
      vertex -25 -10 15
      vertex -25 -10 17
    endloop
  endfacet
  facet normal 0 1 -0
    outer loop
      vertex 25 10 15
      vertex -25 10 17
      vertex 25 10 17
    endloop
  endfacet
  facet normal 0 1 0
    outer loop
      vertex -25 10 17
      vertex 25 10 15
      vertex -25 10 15
    endloop
  endfacet
  facet normal 0 -1 0
    outer loop
      vertex -25 -10 15
      vertex 25 -10 17
      vertex -25 -10 17
    endloop
  endfacet
  facet normal 0 -1 -0
    outer loop
      vertex 25 -10 17
      vertex -25 -10 15
      vertex 25 -10 15
    endloop
  endfacet
  facet normal 1 -0 0
    outer loop
      vertex 25 -10 21
      vertex 25 10 19
      vertex 25 10 21
    endloop
  endfacet
  facet normal 1 0 0
    outer loop
      vertex 25 10 19
      vertex 25 -10 21
      vertex 25 -10 19
    endloop
  endfacet
  facet normal -0 0 1
    outer loop
      vertex -25 10 21
      vertex 25 -10 21
      vertex 25 10 21
    endloop
  endfacet
  facet normal 0 0 1
    outer loop
      vertex 25 -10 21
      vertex -25 10 21
      vertex -25 -10 21
    endloop
  endfacet
  facet normal 0 0 -1
    outer loop
      vertex -25 -10 19
      vertex 25 10 19
      vertex 25 -10 19
    endloop
  endfacet
  facet normal -0 0 -1
    outer loop
      vertex 25 10 19
      vertex -25 -10 19
      vertex -25 10 19
    endloop
  endfacet
  facet normal -1 0 0
    outer loop
      vertex -25 -10 19
      vertex -25 10 21
      vertex -25 10 19
    endloop
  endfacet
  facet normal -1 -0 0
    outer loop
      vertex -25 10 21
      vertex -25 -10 19
      vertex -25 -10 21
    endloop
  endfacet
  facet normal 0 1 -0
    outer loop
      vertex 25 10 19
      vertex -25 10 21
      vertex 25 10 21
    endloop
  endfacet
  facet normal 0 1 0
    outer loop
      vertex -25 10 21
      vertex 25 10 19
      vertex -25 10 19
    endloop
  endfacet
  facet normal 0 -1 0
    outer loop
      vertex -25 -10 19
      vertex 25 -10 21
      vertex -25 -10 21
    endloop
  endfacet
  facet normal 0 -1 -0
    outer loop
      vertex 25 -10 21
      vertex -25 -10 19
      vertex 25 -10 19
    endloop
  endfacet
endsolid OpenSCAD_Model
