solid OpenSCAD_Model
  facet normal -0 0 1
    outer loop
      vertex -52.5 32.5 5
      vertex 52.5 -32.5 5
      vertex 52.5 32.5 5
    endloop
  endfacet
  facet normal 0 0 1
    outer loop
      vertex 52.5 -32.5 5
      vertex -52.5 32.5 5
      vertex -52.5 -32.5 5
    endloop
  endfacet
  facet normal 0 0 -1
    outer loop
      vertex -52.5 -32.5 0
      vertex 52.5 32.5 0
      vertex 52.5 -32.5 0
    endloop
  endfacet
  facet normal -0 0 -1
    outer loop
      vertex 52.5 32.5 0
      vertex -52.5 -32.5 0
      vertex -52.5 32.5 0
    endloop
  endfacet
  facet normal 0 -1 0
    outer loop
      vertex -52.5 -32.5 0
      vertex 52.5 -32.5 5
      vertex -52.5 -32.5 5
    endloop
  endfacet
  facet normal 0 -1 -0
    outer loop
      vertex 52.5 -32.5 5
      vertex -52.5 -32.5 0
      vertex 52.5 -32.5 0
    endloop
  endfacet
  facet normal 1 -0 0
    outer loop
      vertex 52.5 -32.5 5
      vertex 52.5 32.5 0
      vertex 52.5 32.5 5
    endloop
  endfacet
  facet normal 1 0 0
    outer loop
      vertex 52.5 32.5 0
      vertex 52.5 -32.5 5
      vertex 52.5 -32.5 0
    endloop
  endfacet
  facet normal 0 1 -0
    outer loop
      vertex 52.5 32.5 0
      vertex -52.5 32.5 5
      vertex 52.5 32.5 5
    endloop
  endfacet
  facet normal 0 1 0
    outer loop
      vertex -52.5 32.5 5
      vertex 52.5 32.5 0
      vertex -52.5 32.5 0
    endloop
  endfacet
  facet normal -1 0 0
    outer loop
      vertex -52.5 -32.5 0
      vertex -52.5 32.5 5
      vertex -52.5 32.5 0
    endloop
  endfacet
  facet normal -1 -0 0
    outer loop
      vertex -52.5 32.5 5
      vertex -52.5 -32.5 0
      vertex -52.5 -32.5 5
    endloop
  endfacet
endsolid OpenSCAD_Model
