solid OpenSCAD_Model
  facet normal -1 0 0
    outer loop
      vertex 20 2.5 5
      vertex 20 10 10
      vertex 20 10 5
    endloop
  endfacet
  facet normal -1 0 0
    outer loop
      vertex 20 1.76777 6.76777
      vertex 20 10 10
      vertex 20 2.5 5
    endloop
  endfacet
  facet normal -1 0 0
    outer loop
      vertex 20 0 7.5
      vertex 20 10 10
      vertex 20 1.76777 6.76777
    endloop
  endfacet
  facet normal -1 0 0
    outer loop
      vertex 20 -10 10
      vertex 20 -2.5 5
      vertex 20 -10 5
    endloop
  endfacet
  facet normal -1 0 0
    outer loop
      vertex 20 -2.5 5
      vertex 20 -10 10
      vertex 20 -1.76777 6.76777
    endloop
  endfacet
  facet normal -1 0 0
    outer loop
      vertex 20 -1.76777 6.76777
      vertex 20 -10 10
      vertex 20 0 7.5
    endloop
  endfacet
  facet normal -1 0 0
    outer loop
      vertex 20 0 7.5
      vertex 20 -10 10
      vertex 20 10 10
    endloop
  endfacet
  facet normal 1 -0 0
    outer loop
      vertex 20 2.5 0
      vertex 20 10 -5
      vertex 20 10 0
    endloop
  endfacet
  facet normal 1 -0 0
    outer loop
      vertex 20 1.76777 -1.76777
      vertex 20 10 -5
      vertex 20 2.5 0
    endloop
  endfacet
  facet normal 1 -0 0
    outer loop
      vertex 20 0 -2.5
      vertex 20 10 -5
      vertex 20 1.76777 -1.76777
    endloop
  endfacet
  facet normal 1 0 0
    outer loop
      vertex 20 -10 -5
      vertex 20 -2.5 0
      vertex 20 -10 0
    endloop
  endfacet
  facet normal 1 0 0
    outer loop
      vertex 20 -2.5 0
      vertex 20 -10 -5
      vertex 20 -1.76777 -1.76777
    endloop
  endfacet
  facet normal 1 0 0
    outer loop
      vertex 20 -1.76777 -1.76777
      vertex 20 -10 -5
      vertex 20 0 -2.5
    endloop
  endfacet
  facet normal 1 0 0
    outer loop
      vertex 20 0 -2.5
      vertex 20 -10 -5
      vertex 20 10 -5
    endloop
  endfacet
  facet normal -1 0 0
    outer loop
      vertex 20 2.5 0
      vertex 20 0 2.5
      vertex 20 1.76777 1.76777
    endloop
  endfacet
  facet normal -1 0 0
    outer loop
      vertex 20 2.5 0
      vertex 20 -1.76777 1.76777
      vertex 20 0 2.5
    endloop
  endfacet
  facet normal -1 0 -0
    outer loop
      vertex 20 -1.76777 1.76777
      vertex 20 2.5 0
      vertex 20 -2.5 0
    endloop
  endfacet
  facet normal 1 0 0
    outer loop
      vertex 20 2.5 5
      vertex 20 0 2.5
      vertex 20 1.76777 3.23223
    endloop
  endfacet
  facet normal 1 0 0
    outer loop
      vertex 20 2.5 5
      vertex 20 -1.76777 3.23223
      vertex 20 0 2.5
    endloop
  endfacet
  facet normal 1 0 -0
    outer loop
      vertex 20 -1.76777 3.23223
      vertex 20 2.5 5
      vertex 20 -2.5 5
    endloop
  endfacet
  facet normal 0 0 1
    outer loop
      vertex -20 2.5 5
      vertex 20 2.5 5
      vertex 20 10 5
    endloop
  endfacet
  facet normal 0 0 1
    outer loop
      vertex 20 2.5 5
      vertex -20 2.5 5
      vertex 20 -2.5 5
    endloop
  endfacet
  facet normal 0 0 1
    outer loop
      vertex -20 2.5 5
      vertex 20 10 5
      vertex -20 10 5
    endloop
  endfacet
  facet normal 0 0 1
    outer loop
      vertex -20 -2.5 5
      vertex 20 -2.5 5
      vertex -20 2.5 5
    endloop
  endfacet
  facet normal 0 0 1
    outer loop
      vertex 20 -2.5 5
      vertex -20 -2.5 5
      vertex 20 -10 5
    endloop
  endfacet
  facet normal 0 0 1
    outer loop
      vertex 20 -10 5
      vertex -20 -2.5 5
      vertex -20 -10 5
    endloop
  endfacet
  facet normal 0 0 -1
    outer loop
      vertex -20 -10 -5
      vertex 20 10 -5
      vertex 20 -10 -5
    endloop
  endfacet
  facet normal -0 0 -1
    outer loop
      vertex 20 10 -5
      vertex -20 -10 -5
      vertex -20 10 -5
    endloop
  endfacet
  facet normal 1 0 0
    outer loop
      vertex -20 10 10
      vertex -20 2.5 5
      vertex -20 10 5
    endloop
  endfacet
  facet normal 1 0 0
    outer loop
      vertex -20 10 10
      vertex -20 1.76777 6.76777
      vertex -20 2.5 5
    endloop
  endfacet
  facet normal 1 0 0
    outer loop
      vertex -20 10 10
      vertex -20 0 7.5
      vertex -20 1.76777 6.76777
    endloop
  endfacet
  facet normal 1 -0 0
    outer loop
      vertex -20 -10 10
      vertex -20 0 7.5
      vertex -20 10 10
    endloop
  endfacet
  facet normal 1 0 0
    outer loop
      vertex -20 -10 10
      vertex -20 -1.76777 6.76777
      vertex -20 0 7.5
    endloop
  endfacet
  facet normal 1 0 0
    outer loop
      vertex -20 -10 10
      vertex -20 -2.5 5
      vertex -20 -1.76777 6.76777
    endloop
  endfacet
  facet normal 1 0 0
    outer loop
      vertex -20 -2.5 5
      vertex -20 -10 10
      vertex -20 -10 5
    endloop
  endfacet
  facet normal -1 0 0
    outer loop
      vertex -20 10 -5
      vertex -20 2.5 0
      vertex -20 10 0
    endloop
  endfacet
  facet normal -1 0 0
    outer loop
      vertex -20 10 -5
      vertex -20 1.76777 -1.76777
      vertex -20 2.5 0
    endloop
  endfacet
  facet normal -1 0 0
    outer loop
      vertex -20 10 -5
      vertex -20 0 -2.5
      vertex -20 1.76777 -1.76777
    endloop
  endfacet
  facet normal -1 0 0
    outer loop
      vertex -20 -10 -5
      vertex -20 0 -2.5
      vertex -20 10 -5
    endloop
  endfacet
  facet normal -1 0 0
    outer loop
      vertex -20 -10 -5
      vertex -20 -1.76777 -1.76777
      vertex -20 0 -2.5
    endloop
  endfacet
  facet normal -1 0 0
    outer loop
      vertex -20 -10 -5
      vertex -20 -2.5 0
      vertex -20 -1.76777 -1.76777
    endloop
  endfacet
  facet normal -1 -0 0
    outer loop
      vertex -20 -2.5 0
      vertex -20 -10 -5
      vertex -20 -10 0
    endloop
  endfacet
  facet normal -1 0 0
    outer loop
      vertex -20 0 2.5
      vertex -20 2.5 5
      vertex -20 1.76777 3.23223
    endloop
  endfacet
  facet normal -1 0 0
    outer loop
      vertex -20 -1.76777 3.23223
      vertex -20 2.5 5
      vertex -20 0 2.5
    endloop
  endfacet
  facet normal -1 -0 0
    outer loop
      vertex -20 2.5 5
      vertex -20 -1.76777 3.23223
      vertex -20 -2.5 5
    endloop
  endfacet
  facet normal 1 0 0
    outer loop
      vertex -20 0 2.5
      vertex -20 2.5 0
      vertex -20 1.76777 1.76777
    endloop
  endfacet
  facet normal 1 -0 0
    outer loop
      vertex -20 -1.76777 1.76777
      vertex -20 2.5 0
      vertex -20 0 2.5
    endloop
  endfacet
  facet normal 1 0 0
    outer loop
      vertex -20 2.5 0
      vertex -20 -1.76777 1.76777
      vertex -20 -2.5 0
    endloop
  endfacet
  facet normal 0 1 0
    outer loop
      vertex 40 10 10
      vertex 20 10 5
      vertex 20 10 10
    endloop
  endfacet
  facet normal 0 1 0
    outer loop
      vertex 20 10 0
      vertex 20 10 5
      vertex 40 10 0
    endloop
  endfacet
  facet normal 0 1 -0
    outer loop
      vertex 40 10 0
      vertex 20 10 5
      vertex 40 10 10
    endloop
  endfacet
  facet normal 0 1 -0
    outer loop
      vertex -20 10 5
      vertex -40 10 10
      vertex -20 10 10
    endloop
  endfacet
  facet normal 0 1 0
    outer loop
      vertex 20 10 5
      vertex 20 10 0
      vertex -20 10 5
    endloop
  endfacet
  facet normal 0 1 0
    outer loop
      vertex -20 10 0
      vertex -20 10 5
      vertex 20 10 0
    endloop
  endfacet
  facet normal 0 1 0
    outer loop
      vertex -40 10 0
      vertex -20 10 5
      vertex -20 10 0
    endloop
  endfacet
  facet normal 0 1 0
    outer loop
      vertex -20 10 5
      vertex -40 10 0
      vertex -40 10 10
    endloop
  endfacet
  facet normal 0 1 -0
    outer loop
      vertex 20 10 -5
      vertex -20 10 0
      vertex 20 10 0
    endloop
  endfacet
  facet normal 0 1 0
    outer loop
      vertex -20 10 0
      vertex 20 10 -5
      vertex -20 10 -5
    endloop
  endfacet
  facet normal 0 -1 0
    outer loop
      vertex -40 -10 10
      vertex -20 -10 5
      vertex -20 -10 10
    endloop
  endfacet
  facet normal 0 -1 0
    outer loop
      vertex -20 -10 0
      vertex -20 -10 5
      vertex -40 -10 0
    endloop
  endfacet
  facet normal 0 -1 0
    outer loop
      vertex -40 -10 0
      vertex -20 -10 5
      vertex -40 -10 10
    endloop
  endfacet
  facet normal 0 -1 0
    outer loop
      vertex 20 -10 5
      vertex 40 -10 10
      vertex 20 -10 10
    endloop
  endfacet
  facet normal 0 -1 0
    outer loop
      vertex -20 -10 5
      vertex -20 -10 0
      vertex 20 -10 5
    endloop
  endfacet
  facet normal 0 -1 0
    outer loop
      vertex 20 -10 0
      vertex 20 -10 5
      vertex -20 -10 0
    endloop
  endfacet
  facet normal 0 -1 0
    outer loop
      vertex 40 -10 0
      vertex 20 -10 5
      vertex 20 -10 0
    endloop
  endfacet
  facet normal 0 -1 0
    outer loop
      vertex 20 -10 5
      vertex 40 -10 0
      vertex 40 -10 10
    endloop
  endfacet
  facet normal 0 -1 0
    outer loop
      vertex -20 -10 -5
      vertex 20 -10 0
      vertex -20 -10 0
    endloop
  endfacet
  facet normal 0 -1 -0
    outer loop
      vertex 20 -10 0
      vertex -20 -10 -5
      vertex 20 -10 -5
    endloop
  endfacet
  facet normal 0 0.382682 -0.92388
    outer loop
      vertex -20 0 2.5
      vertex -11.7678 -1.76777 1.76777
      vertex -20 -1.76777 1.76777
    endloop
  endfacet
  facet normal 0 0.382682 -0.92388
    outer loop
      vertex -11.7678 -1.76777 1.76777
      vertex -20 0 2.5
      vertex -10 0 2.5
    endloop
  endfacet
  facet normal 0 0.382682 -0.92388
    outer loop
      vertex 11.7678 -1.76777 1.76777
      vertex 20 0 2.5
      vertex 20 -1.76777 1.76777
    endloop
  endfacet
  facet normal 0 0.382682 -0.92388
    outer loop
      vertex 20 0 2.5
      vertex 11.7678 -1.76777 1.76777
      vertex 10 0 2.5
    endloop
  endfacet
  facet normal 0 0.382682 -0.92388
    outer loop
      vertex -8.23223 -1.76777 1.76777
      vertex 10 0 2.5
      vertex 8.23223 -1.76777 1.76777
    endloop
  endfacet
  facet normal 0 0.382682 -0.92388
    outer loop
      vertex 10 0 2.5
      vertex -8.23223 -1.76777 1.76777
      vertex -10 0 2.5
    endloop
  endfacet
  facet normal -0 0.382682 0.92388
    outer loop
      vertex -20 0 -2.5
      vertex -11.7678 -1.76777 -1.76777
      vertex -10 0 -2.5
    endloop
  endfacet
  facet normal 0 0.382682 0.92388
    outer loop
      vertex -11.7678 -1.76777 -1.76777
      vertex -20 0 -2.5
      vertex -20 -1.76777 -1.76777
    endloop
  endfacet
  facet normal 0 0.382682 0.92388
    outer loop
      vertex 20 0 -2.5
      vertex 11.7678 -1.76777 -1.76777
      vertex 20 -1.76777 -1.76777
    endloop
  endfacet
  facet normal 0 0.382682 0.92388
    outer loop
      vertex 11.7678 -1.76777 -1.76777
      vertex 20 0 -2.5
      vertex 10 0 -2.5
    endloop
  endfacet
  facet normal 0 0.382682 0.92388
    outer loop
      vertex 10 0 -2.5
      vertex -8.23223 -1.76777 -1.76777
      vertex 8.23223 -1.76777 -1.76777
    endloop
  endfacet
  facet normal 0 0.382682 0.92388
    outer loop
      vertex -8.23223 -1.76777 -1.76777
      vertex 10 0 -2.5
      vertex -10 0 -2.5
    endloop
  endfacet
  facet normal 0 -0.382682 0.92388
    outer loop
      vertex 20 1.76777 -1.76777
      vertex 10 0 -2.5
      vertex 20 0 -2.5
    endloop
  endfacet
  facet normal 0 -0.382682 0.92388
    outer loop
      vertex 20 1.76777 -1.76777
      vertex -10 0 -2.5
      vertex 10 0 -2.5
    endloop
  endfacet
  facet normal 0 -0.382682 0.92388
    outer loop
      vertex -20 1.76777 -1.76777
      vertex -10 0 -2.5
      vertex 20 1.76777 -1.76777
    endloop
  endfacet
  facet normal 0 -0.382682 0.92388
    outer loop
      vertex -10 0 -2.5
      vertex -20 1.76777 -1.76777
      vertex -20 0 -2.5
    endloop
  endfacet
  facet normal 0 -0.92388 0.382682
    outer loop
      vertex -20 1.76777 -1.76777
      vertex 20 2.5 0
      vertex -20 2.5 0
    endloop
  endfacet
  facet normal 0 -0.92388 0.382682
    outer loop
      vertex 20 2.5 0
      vertex -20 1.76777 -1.76777
      vertex 20 1.76777 -1.76777
    endloop
  endfacet
  facet normal 0 -0.382682 -0.92388
    outer loop
      vertex 10 0 2.5
      vertex 20 1.76777 1.76777
      vertex 20 0 2.5
    endloop
  endfacet
  facet normal 0 -0.382682 -0.92388
    outer loop
      vertex -10 0 2.5
      vertex 20 1.76777 1.76777
      vertex 10 0 2.5
    endloop
  endfacet
  facet normal 0 -0.382682 -0.92388
    outer loop
      vertex -20 1.76777 1.76777
      vertex -10 0 2.5
      vertex -20 0 2.5
    endloop
  endfacet
  facet normal 0 -0.382682 -0.92388
    outer loop
      vertex -10 0 2.5
      vertex -20 1.76777 1.76777
      vertex 20 1.76777 1.76777
    endloop
  endfacet
  facet normal 0 0.92388 -0.382682
    outer loop
      vertex -12.5 -2.5 0
      vertex -20 -1.76777 1.76777
      vertex -11.7678 -1.76777 1.76777
    endloop
  endfacet
  facet normal 0 0.92388 -0.382682
    outer loop
      vertex -20 -1.76777 1.76777
      vertex -12.5 -2.5 0
      vertex -20 -2.5 0
    endloop
  endfacet
  facet normal 0 0.92388 -0.382682
    outer loop
      vertex 12.5 -2.5 0
      vertex 20 -1.76777 1.76777
      vertex 20 -2.5 0
    endloop
  endfacet
  facet normal 0 0.92388 -0.382682
    outer loop
      vertex 20 -1.76777 1.76777
      vertex 12.5 -2.5 0
      vertex 11.7678 -1.76777 1.76777
    endloop
  endfacet
  facet normal 0 0.92388 -0.382682
    outer loop
      vertex 7.5 -2.5 0
      vertex -8.23223 -1.76777 1.76777
      vertex 8.23223 -1.76777 1.76777
    endloop
  endfacet
  facet normal 0 0.92388 -0.382682
    outer loop
      vertex -8.23223 -1.76777 1.76777
      vertex 7.5 -2.5 0
      vertex -7.5 -2.5 0
    endloop
  endfacet
  facet normal -0 0.92388 0.382682
    outer loop
      vertex -20 -1.76777 -1.76777
      vertex -12.5 -2.5 0
      vertex -11.7678 -1.76777 -1.76777
    endloop
  endfacet
  facet normal 0 0.92388 0.382682
    outer loop
      vertex -12.5 -2.5 0
      vertex -20 -1.76777 -1.76777
      vertex -20 -2.5 0
    endloop
  endfacet
  facet normal 0 0.92388 0.382682
    outer loop
      vertex 20 -1.76777 -1.76777
      vertex 12.5 -2.5 0
      vertex 20 -2.5 0
    endloop
  endfacet
  facet normal 0 0.92388 0.382682
    outer loop
      vertex 12.5 -2.5 0
      vertex 20 -1.76777 -1.76777
      vertex 11.7678 -1.76777 -1.76777
    endloop
  endfacet
  facet normal 0 0.92388 0.382682
    outer loop
      vertex 8.23223 -1.76777 -1.76777
      vertex -7.5 -2.5 0
      vertex 7.5 -2.5 0
    endloop
  endfacet
  facet normal 0 0.92388 0.382682
    outer loop
      vertex -7.5 -2.5 0
      vertex 8.23223 -1.76777 -1.76777
      vertex -8.23223 -1.76777 -1.76777
    endloop
  endfacet
  facet normal 0 -0.92388 -0.382682
    outer loop
      vertex -20 2.5 0
      vertex 20 1.76777 1.76777
      vertex -20 1.76777 1.76777
    endloop
  endfacet
  facet normal 0 -0.92388 -0.382682
    outer loop
      vertex 20 1.76777 1.76777
      vertex -20 2.5 0
      vertex 20 2.5 0
    endloop
  endfacet
  facet normal 0 -0.498883 0.86667
    outer loop
      vertex -30 -2.77785 14.1573
      vertex -40 -10 10
      vertex -20 -10 10
    endloop
  endfacet
  facet normal 0 0.498883 0.86667
    outer loop
      vertex -20 10 10
      vertex -40 10 10
      vertex -30 2.77785 14.1573
    endloop
  endfacet
  facet normal 0.498885 0 0.866668
    outer loop
      vertex -20 10 10
      vertex -27.2221 0 14.1573
      vertex -20 -10 10
    endloop
  endfacet
  facet normal -0.0759012 0.381591 0.92121
    outer loop
      vertex -30 0.975451 14.9039
      vertex -31.063 2.5664 14.1573
      vertex -30.3733 0.901199 14.9039
    endloop
  endfacet
  facet normal -0.129996 -0.360315 0.923728
    outer loop
      vertex -30.3733 -0.901199 14.9039
      vertex -40 -10 10
      vertex -31.063 -2.5664 14.1573
    endloop
  endfacet
  facet normal -0.295152 -0.19726 0.934866
    outer loop
      vertex -30.9012 -0.373289 14.9039
      vertex -40 -10 10
      vertex -30.6897 -0.689748 14.9039
    endloop
  endfacet
  facet normal 0.295152 0.19726 0.934866
    outer loop
      vertex -20 10 10
      vertex -29.3103 0.689748 14.9039
      vertex -29.0988 0.373289 14.9039
    endloop
  endfacet
  facet normal 0.409985 -0.0815696 0.908438
    outer loop
      vertex -27.2221 0 14.1573
      vertex -27.4336 -1.06304 14.1573
      vertex -20 -10 10
    endloop
  endfacet
  facet normal 0.381588 0.0759199 0.921209
    outer loop
      vertex -27.4336 1.06304 14.1573
      vertex -29.0245 0 14.9039
      vertex -27.2221 0 14.1573
    endloop
  endfacet
  facet normal 0.381588 -0.0759199 0.921209
    outer loop
      vertex -27.2221 0 14.1573
      vertex -29.0245 0 14.9039
      vertex -27.4336 -1.06304 14.1573
    endloop
  endfacet
  facet normal 0.409985 0.0815696 0.908438
    outer loop
      vertex -20 10 10
      vertex -27.4336 1.06304 14.1573
      vertex -27.2221 0 14.1573
    endloop
  endfacet
  facet normal 0.295152 -0.19726 0.934866
    outer loop
      vertex -29.0988 -0.373289 14.9039
      vertex -29.3103 -0.689748 14.9039
      vertex -20 -10 10
    endloop
  endfacet
  facet normal 0.381571 -0.0759485 0.921214
    outer loop
      vertex -29.0245 0 14.9039
      vertex -29.0988 -0.373289 14.9039
      vertex -27.4336 -1.06304 14.1573
    endloop
  endfacet
  facet normal 0.129996 0.360315 0.923728
    outer loop
      vertex -28.937 2.5664 14.1573
      vertex -29.6267 0.901199 14.9039
      vertex -20 10 10
    endloop
  endfacet
  facet normal 0.0815561 0.409998 0.908433
    outer loop
      vertex -20 10 10
      vertex -30 2.77785 14.1573
      vertex -28.937 2.5664 14.1573
    endloop
  endfacet
  facet normal 0 0 -1
    outer loop
      vertex -40 -10 0
      vertex -20 -2.5 0
      vertex -20 -10 0
    endloop
  endfacet
  facet normal -0 0 -1
    outer loop
      vertex -20 -2.5 0
      vertex -40 -10 0
      vertex -20 2.5 0
    endloop
  endfacet
  facet normal 0 0 -1
    outer loop
      vertex -40 10 0
      vertex -20 2.5 0
      vertex -40 -10 0
    endloop
  endfacet
  facet normal 0 0 -1
    outer loop
      vertex -20 2.5 0
      vertex -40 10 0
      vertex -20 10 0
    endloop
  endfacet
  facet normal -1 0 0
    outer loop
      vertex -40 10 0
      vertex -40 2.5 5
      vertex -40 10 10
    endloop
  endfacet
  facet normal -1 0 0
    outer loop
      vertex -40 10 0
      vertex -40 1.76777 3.23223
      vertex -40 2.5 5
    endloop
  endfacet
  facet normal -1 0 0
    outer loop
      vertex -40 10 0
      vertex -40 0 2.5
      vertex -40 1.76777 3.23223
    endloop
  endfacet
  facet normal -1 -0 0
    outer loop
      vertex -40 -1.76777 3.23223
      vertex -40 -10 0
      vertex -40 -2.5 5
    endloop
  endfacet
  facet normal -1 -0 0
    outer loop
      vertex -40 0 2.5
      vertex -40 -10 0
      vertex -40 -1.76777 3.23223
    endloop
  endfacet
  facet normal -1 0 0
    outer loop
      vertex -40 -10 0
      vertex -40 0 2.5
      vertex -40 10 0
    endloop
  endfacet
  facet normal -1 0 0
    outer loop
      vertex -40 1.76777 6.76777
      vertex -40 10 10
      vertex -40 2.5 5
    endloop
  endfacet
  facet normal -1 0 0
    outer loop
      vertex -40 0 7.5
      vertex -40 10 10
      vertex -40 1.76777 6.76777
    endloop
  endfacet
  facet normal -1 0 0
    outer loop
      vertex -40 -10 10
      vertex -40 -2.5 5
      vertex -40 -10 0
    endloop
  endfacet
  facet normal -1 0 0
    outer loop
      vertex -40 0 7.5
      vertex -40 -10 10
      vertex -40 10 10
    endloop
  endfacet
  facet normal -1 0 0
    outer loop
      vertex -40 -1.76777 6.76777
      vertex -40 -10 10
      vertex -40 0 7.5
    endloop
  endfacet
  facet normal -1 0 0
    outer loop
      vertex -40 -2.5 5
      vertex -40 -10 10
      vertex -40 -1.76777 6.76777
    endloop
  endfacet
  facet normal 0.075905 0.381589 0.92121
    outer loop
      vertex -30 2.77785 14.1573
      vertex -30 0.975451 14.9039
      vertex -28.937 2.5664 14.1573
    endloop
  endfacet
  facet normal 0.0759012 0.381591 0.92121
    outer loop
      vertex -28.937 2.5664 14.1573
      vertex -30 0.975451 14.9039
      vertex -29.6267 0.901199 14.9039
    endloop
  endfacet
  facet normal -0.381571 0.0759485 0.921214
    outer loop
      vertex -30.9012 0.373289 14.9039
      vertex -32.5664 1.06304 14.1573
      vertex -30.9755 0 14.9039
    endloop
  endfacet
  facet normal -0.0815561 -0.409998 0.908433
    outer loop
      vertex -31.063 -2.5664 14.1573
      vertex -40 -10 10
      vertex -30 -2.77785 14.1573
    endloop
  endfacet
  facet normal 0.36031 0.130002 0.92373
    outer loop
      vertex -20 10 10
      vertex -29.0988 0.373289 14.9039
      vertex -27.4336 1.06304 14.1573
    endloop
  endfacet
  facet normal -0.197254 0.295157 0.934865
    outer loop
      vertex -30.3733 0.901199 14.9039
      vertex -40 10 10
      vertex -30.6897 0.689748 14.9039
    endloop
  endfacet
  facet normal 0.36031 -0.130002 0.92373
    outer loop
      vertex -27.4336 -1.06304 14.1573
      vertex -29.0988 -0.373289 14.9039
      vertex -20 -10 10
    endloop
  endfacet
  facet normal -0.075905 -0.381589 0.92121
    outer loop
      vertex -30 -0.975451 14.9039
      vertex -31.063 -2.5664 14.1573
      vertex -30 -2.77785 14.1573
    endloop
  endfacet
  facet normal -0.381588 0.0759199 0.921209
    outer loop
      vertex -32.5664 1.06304 14.1573
      vertex -32.7779 0 14.1573
      vertex -30.9755 0 14.9039
    endloop
  endfacet
  facet normal -0.381571 -0.0759485 0.921214
    outer loop
      vertex -30.9755 0 14.9039
      vertex -32.5664 -1.06304 14.1573
      vertex -30.9012 -0.373289 14.9039
    endloop
  endfacet
  facet normal -0.498885 0 0.866668
    outer loop
      vertex -40 10 10
      vertex -40 -10 10
      vertex -32.7779 0 14.1573
    endloop
  endfacet
  facet normal -0.129996 0.360315 0.923728
    outer loop
      vertex -31.063 2.5664 14.1573
      vertex -40 10 10
      vertex -30.3733 0.901199 14.9039
    endloop
  endfacet
  facet normal 0.381571 0.0759485 0.921214
    outer loop
      vertex -27.4336 1.06304 14.1573
      vertex -29.0988 0.373289 14.9039
      vertex -29.0245 0 14.9039
    endloop
  endfacet
  facet normal -0.0759012 -0.381591 0.92121
    outer loop
      vertex -30.3733 -0.901199 14.9039
      vertex -31.063 -2.5664 14.1573
      vertex -30 -0.975451 14.9039
    endloop
  endfacet
  facet normal 0.129996 -0.360315 0.923728
    outer loop
      vertex -20 -10 10
      vertex -29.6267 -0.901199 14.9039
      vertex -28.937 -2.5664 14.1573
    endloop
  endfacet
  facet normal 0.0759012 -0.381591 0.92121
    outer loop
      vertex -29.6267 -0.901199 14.9039
      vertex -30 -0.975451 14.9039
      vertex -28.937 -2.5664 14.1573
    endloop
  endfacet
  facet normal -0.409985 0.0815696 0.908438
    outer loop
      vertex -32.5664 1.06304 14.1573
      vertex -40 10 10
      vertex -32.7779 0 14.1573
    endloop
  endfacet
  facet normal -0.197254 -0.295157 0.934865
    outer loop
      vertex -30.6897 -0.689748 14.9039
      vertex -40 -10 10
      vertex -30.3733 -0.901199 14.9039
    endloop
  endfacet
  facet normal -0.295152 0.19726 0.934866
    outer loop
      vertex -30.6897 0.689748 14.9039
      vertex -40 10 10
      vertex -30.9012 0.373289 14.9039
    endloop
  endfacet
  facet normal -0.409985 -0.0815696 0.908438
    outer loop
      vertex -32.7779 0 14.1573
      vertex -40 -10 10
      vertex -32.5664 -1.06304 14.1573
    endloop
  endfacet
  facet normal -0.381588 -0.0759199 0.921209
    outer loop
      vertex -30.9755 0 14.9039
      vertex -32.7779 0 14.1573
      vertex -32.5664 -1.06304 14.1573
    endloop
  endfacet
  facet normal 0 0 1
    outer loop
      vertex -29.0988 0.373289 14.9039
      vertex -29.0988 -0.373289 14.9039
      vertex -29.0245 0 14.9039
    endloop
  endfacet
  facet normal 0 0 1
    outer loop
      vertex -29.3103 0.689748 14.9039
      vertex -29.0988 -0.373289 14.9039
      vertex -29.0988 0.373289 14.9039
    endloop
  endfacet
  facet normal 0 0 1
    outer loop
      vertex -29.3103 0.689748 14.9039
      vertex -29.3103 -0.689748 14.9039
      vertex -29.0988 -0.373289 14.9039
    endloop
  endfacet
  facet normal 0 0 1
    outer loop
      vertex -29.6267 0.901199 14.9039
      vertex -29.3103 -0.689748 14.9039
      vertex -29.3103 0.689748 14.9039
    endloop
  endfacet
  facet normal 0 0 1
    outer loop
      vertex -29.6267 0.901199 14.9039
      vertex -29.6267 -0.901199 14.9039
      vertex -29.3103 -0.689748 14.9039
    endloop
  endfacet
  facet normal 0 0 1
    outer loop
      vertex -30 0.975451 14.9039
      vertex -29.6267 -0.901199 14.9039
      vertex -29.6267 0.901199 14.9039
    endloop
  endfacet
  facet normal 0 0 1
    outer loop
      vertex -30 0.975451 14.9039
      vertex -30 -0.975451 14.9039
      vertex -29.6267 -0.901199 14.9039
    endloop
  endfacet
  facet normal -0 0 1
    outer loop
      vertex -30.3733 0.901199 14.9039
      vertex -30 -0.975451 14.9039
      vertex -30 0.975451 14.9039
    endloop
  endfacet
  facet normal 0 0 1
    outer loop
      vertex -30.3733 0.901199 14.9039
      vertex -30.3733 -0.901199 14.9039
      vertex -30 -0.975451 14.9039
    endloop
  endfacet
  facet normal -0 0 1
    outer loop
      vertex -30.6897 0.689748 14.9039
      vertex -30.3733 -0.901199 14.9039
      vertex -30.3733 0.901199 14.9039
    endloop
  endfacet
  facet normal 0 0 1
    outer loop
      vertex -30.6897 0.689748 14.9039
      vertex -30.6897 -0.689748 14.9039
      vertex -30.3733 -0.901199 14.9039
    endloop
  endfacet
  facet normal -0 0 1
    outer loop
      vertex -30.9012 0.373289 14.9039
      vertex -30.6897 -0.689748 14.9039
      vertex -30.6897 0.689748 14.9039
    endloop
  endfacet
  facet normal 0 0 1
    outer loop
      vertex -30.9012 0.373289 14.9039
      vertex -30.9012 -0.373289 14.9039
      vertex -30.6897 -0.689748 14.9039
    endloop
  endfacet
  facet normal 0 -0 1
    outer loop
      vertex -30.9012 -0.373289 14.9039
      vertex -30.9012 0.373289 14.9039
      vertex -30.9755 0 14.9039
    endloop
  endfacet
  facet normal 0.197254 0.295157 0.934865
    outer loop
      vertex -20 10 10
      vertex -29.6267 0.901199 14.9039
      vertex -29.3103 0.689748 14.9039
    endloop
  endfacet
  facet normal -0.075905 0.381589 0.92121
    outer loop
      vertex -30 2.77785 14.1573
      vertex -31.063 2.5664 14.1573
      vertex -30 0.975451 14.9039
    endloop
  endfacet
  facet normal -0.0815561 0.409998 0.908433
    outer loop
      vertex -30 2.77785 14.1573
      vertex -40 10 10
      vertex -31.063 2.5664 14.1573
    endloop
  endfacet
  facet normal 0.197254 -0.295157 0.934865
    outer loop
      vertex -29.3103 -0.689748 14.9039
      vertex -29.6267 -0.901199 14.9039
      vertex -20 -10 10
    endloop
  endfacet
  facet normal 0.075905 -0.381589 0.92121
    outer loop
      vertex -30 -0.975451 14.9039
      vertex -30 -2.77785 14.1573
      vertex -28.937 -2.5664 14.1573
    endloop
  endfacet
  facet normal 0.0815561 -0.409998 0.908433
    outer loop
      vertex -28.937 -2.5664 14.1573
      vertex -30 -2.77785 14.1573
      vertex -20 -10 10
    endloop
  endfacet
  facet normal -0.36031 -0.130002 0.92373
    outer loop
      vertex -32.5664 -1.06304 14.1573
      vertex -40 -10 10
      vertex -30.9012 -0.373289 14.9039
    endloop
  endfacet
  facet normal -0.36031 0.130002 0.92373
    outer loop
      vertex -30.9012 0.373289 14.9039
      vertex -40 10 10
      vertex -32.5664 1.06304 14.1573
    endloop
  endfacet
  facet normal 0 0.382682 -0.92388
    outer loop
      vertex -40 -1.76777 6.76777
      vertex -20 0 7.5
      vertex -20 -1.76777 6.76777
    endloop
  endfacet
  facet normal 0 0.382682 -0.92388
    outer loop
      vertex -20 0 7.5
      vertex -40 -1.76777 6.76777
      vertex -40 0 7.5
    endloop
  endfacet
  facet normal 0 -0.92388 -0.382682
    outer loop
      vertex -40 2.5 5
      vertex -20 1.76777 6.76777
      vertex -40 1.76777 6.76777
    endloop
  endfacet
  facet normal 0 -0.92388 -0.382682
    outer loop
      vertex -20 1.76777 6.76777
      vertex -40 2.5 5
      vertex -20 2.5 5
    endloop
  endfacet
  facet normal 0 0.92388 0.382682
    outer loop
      vertex -20 -1.76777 3.23223
      vertex -40 -2.5 5
      vertex -20 -2.5 5
    endloop
  endfacet
  facet normal 0 0.92388 0.382682
    outer loop
      vertex -40 -2.5 5
      vertex -20 -1.76777 3.23223
      vertex -40 -1.76777 3.23223
    endloop
  endfacet
  facet normal 0 -0.382682 0.92388
    outer loop
      vertex -40 1.76777 3.23223
      vertex -20 0 2.5
      vertex -20 1.76777 3.23223
    endloop
  endfacet
  facet normal 0 -0.382682 0.92388
    outer loop
      vertex -20 0 2.5
      vertex -40 1.76777 3.23223
      vertex -40 0 2.5
    endloop
  endfacet
  facet normal 0 -0.92388 0.382682
    outer loop
      vertex -40 1.76777 3.23223
      vertex -20 2.5 5
      vertex -40 2.5 5
    endloop
  endfacet
  facet normal 0 -0.92388 0.382682
    outer loop
      vertex -20 2.5 5
      vertex -40 1.76777 3.23223
      vertex -20 1.76777 3.23223
    endloop
  endfacet
  facet normal -0 0.382682 0.92388
    outer loop
      vertex -40 0 2.5
      vertex -20 -1.76777 3.23223
      vertex -20 0 2.5
    endloop
  endfacet
  facet normal 0 0.382682 0.92388
    outer loop
      vertex -20 -1.76777 3.23223
      vertex -40 0 2.5
      vertex -40 -1.76777 3.23223
    endloop
  endfacet
  facet normal 0 0.92388 -0.382682
    outer loop
      vertex -20 -2.5 5
      vertex -40 -1.76777 6.76777
      vertex -20 -1.76777 6.76777
    endloop
  endfacet
  facet normal 0 0.92388 -0.382682
    outer loop
      vertex -40 -1.76777 6.76777
      vertex -20 -2.5 5
      vertex -40 -2.5 5
    endloop
  endfacet
  facet normal 0 -0.382682 -0.92388
    outer loop
      vertex -40 0 7.5
      vertex -20 1.76777 6.76777
      vertex -20 0 7.5
    endloop
  endfacet
  facet normal -0 -0.382682 -0.92388
    outer loop
      vertex -20 1.76777 6.76777
      vertex -40 0 7.5
      vertex -40 1.76777 6.76777
    endloop
  endfacet
  facet normal 0 -0.498883 0.86667
    outer loop
      vertex 40 -10 10
      vertex 30 -2.77785 14.1573
      vertex 20 -10 10
    endloop
  endfacet
  facet normal 0 0.498883 0.86667
    outer loop
      vertex 30 2.77785 14.1573
      vertex 40 10 10
      vertex 20 10 10
    endloop
  endfacet
  facet normal -0.498885 0 0.866668
    outer loop
      vertex 27.2221 0 14.1573
      vertex 20 10 10
      vertex 20 -10 10
    endloop
  endfacet
  facet normal 0.0759012 0.381591 0.92121
    outer loop
      vertex 30.3733 0.901199 14.9039
      vertex 31.063 2.5664 14.1573
      vertex 30 0.975451 14.9039
    endloop
  endfacet
  facet normal 0.129996 -0.360315 0.923728
    outer loop
      vertex 31.063 -2.5664 14.1573
      vertex 40 -10 10
      vertex 30.3733 -0.901199 14.9039
    endloop
  endfacet
  facet normal 0.295152 -0.19726 0.934866
    outer loop
      vertex 40 -10 10
      vertex 30.9012 -0.373289 14.9039
      vertex 30.6897 -0.689748 14.9039
    endloop
  endfacet
  facet normal -0.295152 0.19726 0.934866
    outer loop
      vertex 29.0988 0.373289 14.9039
      vertex 29.3103 0.689748 14.9039
      vertex 20 10 10
    endloop
  endfacet
  facet normal -0.409985 -0.0815696 0.908438
    outer loop
      vertex 27.4336 -1.06304 14.1573
      vertex 27.2221 0 14.1573
      vertex 20 -10 10
    endloop
  endfacet
  facet normal -0.381588 0.0759199 0.921209
    outer loop
      vertex 29.0245 0 14.9039
      vertex 27.4336 1.06304 14.1573
      vertex 27.2221 0 14.1573
    endloop
  endfacet
  facet normal -0.381588 -0.0759199 0.921209
    outer loop
      vertex 27.4336 -1.06304 14.1573
      vertex 29.0245 0 14.9039
      vertex 27.2221 0 14.1573
    endloop
  endfacet
  facet normal -0.409985 0.0815696 0.908438
    outer loop
      vertex 27.2221 0 14.1573
      vertex 27.4336 1.06304 14.1573
      vertex 20 10 10
    endloop
  endfacet
  facet normal -0.295152 -0.19726 0.934866
    outer loop
      vertex 29.3103 -0.689748 14.9039
      vertex 29.0988 -0.373289 14.9039
      vertex 20 -10 10
    endloop
  endfacet
  facet normal -0.381571 -0.0759485 0.921214
    outer loop
      vertex 29.0988 -0.373289 14.9039
      vertex 29.0245 0 14.9039
      vertex 27.4336 -1.06304 14.1573
    endloop
  endfacet
  facet normal -0.129996 0.360315 0.923728
    outer loop
      vertex 29.6267 0.901199 14.9039
      vertex 28.937 2.5664 14.1573
      vertex 20 10 10
    endloop
  endfacet
  facet normal -0.0815561 0.409998 0.908433
    outer loop
      vertex 28.937 2.5664 14.1573
      vertex 30 2.77785 14.1573
      vertex 20 10 10
    endloop
  endfacet
  facet normal 0 0 -1
    outer loop
      vertex 20 -2.5 0
      vertex 40 -10 0
      vertex 20 -10 0
    endloop
  endfacet
  facet normal 0 0 -1
    outer loop
      vertex 40 -10 0
      vertex 20 -2.5 0
      vertex 40 10 0
    endloop
  endfacet
  facet normal 0 0 -1
    outer loop
      vertex 20 2.5 0
      vertex 40 10 0
      vertex 20 -2.5 0
    endloop
  endfacet
  facet normal -0 0 -1
    outer loop
      vertex 40 10 0
      vertex 20 2.5 0
      vertex 20 10 0
    endloop
  endfacet
  facet normal 1 0 0
    outer loop
      vertex 40 10 10
      vertex 40 2.5 5
      vertex 40 10 0
    endloop
  endfacet
  facet normal 1 0 0
    outer loop
      vertex 40 10 10
      vertex 40 1.76777 6.76777
      vertex 40 2.5 5
    endloop
  endfacet
  facet normal 1 0 0
    outer loop
      vertex 40 10 10
      vertex 40 0 7.5
      vertex 40 1.76777 6.76777
    endloop
  endfacet
  facet normal 1 0 0
    outer loop
      vertex 40 -1.76777 6.76777
      vertex 40 -10 10
      vertex 40 -2.5 5
    endloop
  endfacet
  facet normal 1 0 0
    outer loop
      vertex 40 0 7.5
      vertex 40 -10 10
      vertex 40 -1.76777 6.76777
    endloop
  endfacet
  facet normal 1 -0 0
    outer loop
      vertex 40 -10 10
      vertex 40 0 7.5
      vertex 40 10 10
    endloop
  endfacet
  facet normal 1 -0 0
    outer loop
      vertex 40 1.76777 3.23223
      vertex 40 10 0
      vertex 40 2.5 5
    endloop
  endfacet
  facet normal 1 -0 0
    outer loop
      vertex 40 0 2.5
      vertex 40 10 0
      vertex 40 1.76777 3.23223
    endloop
  endfacet
  facet normal 1 0 0
    outer loop
      vertex 40 -10 0
      vertex 40 -2.5 5
      vertex 40 -10 10
    endloop
  endfacet
  facet normal 1 0 0
    outer loop
      vertex 40 0 2.5
      vertex 40 -10 0
      vertex 40 10 0
    endloop
  endfacet
  facet normal 1 0 0
    outer loop
      vertex 40 -1.76777 3.23223
      vertex 40 -10 0
      vertex 40 0 2.5
    endloop
  endfacet
  facet normal 1 0 0
    outer loop
      vertex 40 -2.5 5
      vertex 40 -10 0
      vertex 40 -1.76777 3.23223
    endloop
  endfacet
  facet normal -0.075905 0.381589 0.92121
    outer loop
      vertex 30 0.975451 14.9039
      vertex 30 2.77785 14.1573
      vertex 28.937 2.5664 14.1573
    endloop
  endfacet
  facet normal -0.0759012 0.381591 0.92121
    outer loop
      vertex 29.6267 0.901199 14.9039
      vertex 30 0.975451 14.9039
      vertex 28.937 2.5664 14.1573
    endloop
  endfacet
  facet normal 0.381571 0.0759485 0.921214
    outer loop
      vertex 30.9755 0 14.9039
      vertex 32.5664 1.06304 14.1573
      vertex 30.9012 0.373289 14.9039
    endloop
  endfacet
  facet normal 0.0815561 -0.409998 0.908433
    outer loop
      vertex 40 -10 10
      vertex 31.063 -2.5664 14.1573
      vertex 30 -2.77785 14.1573
    endloop
  endfacet
  facet normal -0.36031 0.130002 0.92373
    outer loop
      vertex 27.4336 1.06304 14.1573
      vertex 29.0988 0.373289 14.9039
      vertex 20 10 10
    endloop
  endfacet
  facet normal 0.197254 0.295157 0.934865
    outer loop
      vertex 30.6897 0.689748 14.9039
      vertex 40 10 10
      vertex 30.3733 0.901199 14.9039
    endloop
  endfacet
  facet normal -0.36031 -0.130002 0.92373
    outer loop
      vertex 29.0988 -0.373289 14.9039
      vertex 27.4336 -1.06304 14.1573
      vertex 20 -10 10
    endloop
  endfacet
  facet normal 0.075905 -0.381589 0.92121
    outer loop
      vertex 31.063 -2.5664 14.1573
      vertex 30 -0.975451 14.9039
      vertex 30 -2.77785 14.1573
    endloop
  endfacet
  facet normal 0.381588 0.0759199 0.921209
    outer loop
      vertex 32.7779 0 14.1573
      vertex 32.5664 1.06304 14.1573
      vertex 30.9755 0 14.9039
    endloop
  endfacet
  facet normal 0.381571 -0.0759485 0.921214
    outer loop
      vertex 32.5664 -1.06304 14.1573
      vertex 30.9755 0 14.9039
      vertex 30.9012 -0.373289 14.9039
    endloop
  endfacet
  facet normal 0.498885 -0 0.866668
    outer loop
      vertex 40 -10 10
      vertex 40 10 10
      vertex 32.7779 0 14.1573
    endloop
  endfacet
  facet normal 0.129996 0.360315 0.923728
    outer loop
      vertex 40 10 10
      vertex 31.063 2.5664 14.1573
      vertex 30.3733 0.901199 14.9039
    endloop
  endfacet
  facet normal -0.381571 0.0759485 0.921214
    outer loop
      vertex 29.0245 0 14.9039
      vertex 29.0988 0.373289 14.9039
      vertex 27.4336 1.06304 14.1573
    endloop
  endfacet
  facet normal 0.0759012 -0.381591 0.92121
    outer loop
      vertex 31.063 -2.5664 14.1573
      vertex 30.3733 -0.901199 14.9039
      vertex 30 -0.975451 14.9039
    endloop
  endfacet
  facet normal -0.129996 -0.360315 0.923728
    outer loop
      vertex 28.937 -2.5664 14.1573
      vertex 29.6267 -0.901199 14.9039
      vertex 20 -10 10
    endloop
  endfacet
  facet normal -0.0759012 -0.381591 0.92121
    outer loop
      vertex 30 -0.975451 14.9039
      vertex 29.6267 -0.901199 14.9039
      vertex 28.937 -2.5664 14.1573
    endloop
  endfacet
  facet normal 0.409985 0.0815696 0.908438
    outer loop
      vertex 32.7779 0 14.1573
      vertex 40 10 10
      vertex 32.5664 1.06304 14.1573
    endloop
  endfacet
  facet normal 0.197254 -0.295157 0.934865
    outer loop
      vertex 40 -10 10
      vertex 30.6897 -0.689748 14.9039
      vertex 30.3733 -0.901199 14.9039
    endloop
  endfacet
  facet normal 0.295152 0.19726 0.934866
    outer loop
      vertex 30.9012 0.373289 14.9039
      vertex 40 10 10
      vertex 30.6897 0.689748 14.9039
    endloop
  endfacet
  facet normal 0.409985 -0.0815696 0.908438
    outer loop
      vertex 40 -10 10
      vertex 32.7779 0 14.1573
      vertex 32.5664 -1.06304 14.1573
    endloop
  endfacet
  facet normal 0.381588 -0.0759199 0.921209
    outer loop
      vertex 32.5664 -1.06304 14.1573
      vertex 32.7779 0 14.1573
      vertex 30.9755 0 14.9039
    endloop
  endfacet
  facet normal 0 0 1
    outer loop
      vertex 30.9012 0.373289 14.9039
      vertex 30.9012 -0.373289 14.9039
      vertex 30.9755 0 14.9039
    endloop
  endfacet
  facet normal 0 0 1
    outer loop
      vertex 30.6897 0.689748 14.9039
      vertex 30.9012 -0.373289 14.9039
      vertex 30.9012 0.373289 14.9039
    endloop
  endfacet
  facet normal 0 0 1
    outer loop
      vertex 30.6897 0.689748 14.9039
      vertex 30.6897 -0.689748 14.9039
      vertex 30.9012 -0.373289 14.9039
    endloop
  endfacet
  facet normal 0 0 1
    outer loop
      vertex 30.3733 0.901199 14.9039
      vertex 30.6897 -0.689748 14.9039
      vertex 30.6897 0.689748 14.9039
    endloop
  endfacet
  facet normal 0 0 1
    outer loop
      vertex 30.3733 0.901199 14.9039
      vertex 30.3733 -0.901199 14.9039
      vertex 30.6897 -0.689748 14.9039
    endloop
  endfacet
  facet normal 0 0 1
    outer loop
      vertex 30 0.975451 14.9039
      vertex 30.3733 -0.901199 14.9039
      vertex 30.3733 0.901199 14.9039
    endloop
  endfacet
  facet normal 0 0 1
    outer loop
      vertex 30 0.975451 14.9039
      vertex 30 -0.975451 14.9039
      vertex 30.3733 -0.901199 14.9039
    endloop
  endfacet
  facet normal -0 0 1
    outer loop
      vertex 29.6267 0.901199 14.9039
      vertex 30 -0.975451 14.9039
      vertex 30 0.975451 14.9039
    endloop
  endfacet
  facet normal 0 0 1
    outer loop
      vertex 29.6267 0.901199 14.9039
      vertex 29.6267 -0.901199 14.9039
      vertex 30 -0.975451 14.9039
    endloop
  endfacet
  facet normal -0 0 1
    outer loop
      vertex 29.3103 0.689748 14.9039
      vertex 29.6267 -0.901199 14.9039
      vertex 29.6267 0.901199 14.9039
    endloop
  endfacet
  facet normal 0 0 1
    outer loop
      vertex 29.3103 0.689748 14.9039
      vertex 29.3103 -0.689748 14.9039
      vertex 29.6267 -0.901199 14.9039
    endloop
  endfacet
  facet normal -0 0 1
    outer loop
      vertex 29.0988 0.373289 14.9039
      vertex 29.3103 -0.689748 14.9039
      vertex 29.3103 0.689748 14.9039
    endloop
  endfacet
  facet normal 0 0 1
    outer loop
      vertex 29.0988 0.373289 14.9039
      vertex 29.0988 -0.373289 14.9039
      vertex 29.3103 -0.689748 14.9039
    endloop
  endfacet
  facet normal 0 -0 1
    outer loop
      vertex 29.0988 -0.373289 14.9039
      vertex 29.0988 0.373289 14.9039
      vertex 29.0245 0 14.9039
    endloop
  endfacet
  facet normal -0.197254 0.295157 0.934865
    outer loop
      vertex 29.3103 0.689748 14.9039
      vertex 29.6267 0.901199 14.9039
      vertex 20 10 10
    endloop
  endfacet
  facet normal 0.075905 0.381589 0.92121
    outer loop
      vertex 31.063 2.5664 14.1573
      vertex 30 2.77785 14.1573
      vertex 30 0.975451 14.9039
    endloop
  endfacet
  facet normal 0.0815561 0.409998 0.908433
    outer loop
      vertex 31.063 2.5664 14.1573
      vertex 40 10 10
      vertex 30 2.77785 14.1573
    endloop
  endfacet
  facet normal -0.197254 -0.295157 0.934865
    outer loop
      vertex 29.6267 -0.901199 14.9039
      vertex 29.3103 -0.689748 14.9039
      vertex 20 -10 10
    endloop
  endfacet
  facet normal -0.075905 -0.381589 0.92121
    outer loop
      vertex 30 -2.77785 14.1573
      vertex 30 -0.975451 14.9039
      vertex 28.937 -2.5664 14.1573
    endloop
  endfacet
  facet normal -0.0815561 -0.409998 0.908433
    outer loop
      vertex 30 -2.77785 14.1573
      vertex 28.937 -2.5664 14.1573
      vertex 20 -10 10
    endloop
  endfacet
  facet normal 0.36031 -0.130002 0.92373
    outer loop
      vertex 40 -10 10
      vertex 32.5664 -1.06304 14.1573
      vertex 30.9012 -0.373289 14.9039
    endloop
  endfacet
  facet normal 0.36031 0.130002 0.92373
    outer loop
      vertex 32.5664 1.06304 14.1573
      vertex 40 10 10
      vertex 30.9012 0.373289 14.9039
    endloop
  endfacet
  facet normal 0 0.382682 -0.92388
    outer loop
      vertex 20 -1.76777 6.76777
      vertex 40 0 7.5
      vertex 40 -1.76777 6.76777
    endloop
  endfacet
  facet normal 0 0.382682 -0.92388
    outer loop
      vertex 40 0 7.5
      vertex 20 -1.76777 6.76777
      vertex 20 0 7.5
    endloop
  endfacet
  facet normal 0 -0.92388 -0.382682
    outer loop
      vertex 20 2.5 5
      vertex 40 1.76777 6.76777
      vertex 20 1.76777 6.76777
    endloop
  endfacet
  facet normal 0 -0.92388 -0.382682
    outer loop
      vertex 40 1.76777 6.76777
      vertex 20 2.5 5
      vertex 40 2.5 5
    endloop
  endfacet
  facet normal 0 0.92388 0.382682
    outer loop
      vertex 40 -1.76777 3.23223
      vertex 20 -2.5 5
      vertex 40 -2.5 5
    endloop
  endfacet
  facet normal 0 0.92388 0.382682
    outer loop
      vertex 20 -2.5 5
      vertex 40 -1.76777 3.23223
      vertex 20 -1.76777 3.23223
    endloop
  endfacet
  facet normal 0 -0.382682 0.92388
    outer loop
      vertex 20 1.76777 3.23223
      vertex 40 0 2.5
      vertex 40 1.76777 3.23223
    endloop
  endfacet
  facet normal 0 -0.382682 0.92388
    outer loop
      vertex 40 0 2.5
      vertex 20 1.76777 3.23223
      vertex 20 0 2.5
    endloop
  endfacet
  facet normal 0 -0.92388 0.382682
    outer loop
      vertex 20 1.76777 3.23223
      vertex 40 2.5 5
      vertex 20 2.5 5
    endloop
  endfacet
  facet normal 0 -0.92388 0.382682
    outer loop
      vertex 40 2.5 5
      vertex 20 1.76777 3.23223
      vertex 40 1.76777 3.23223
    endloop
  endfacet
  facet normal -0 0.382682 0.92388
    outer loop
      vertex 20 0 2.5
      vertex 40 -1.76777 3.23223
      vertex 40 0 2.5
    endloop
  endfacet
  facet normal 0 0.382682 0.92388
    outer loop
      vertex 40 -1.76777 3.23223
      vertex 20 0 2.5
      vertex 20 -1.76777 3.23223
    endloop
  endfacet
  facet normal 0 0.92388 -0.382682
    outer loop
      vertex 40 -2.5 5
      vertex 20 -1.76777 6.76777
      vertex 40 -1.76777 6.76777
    endloop
  endfacet
  facet normal 0 0.92388 -0.382682
    outer loop
      vertex 20 -1.76777 6.76777
      vertex 40 -2.5 5
      vertex 20 -2.5 5
    endloop
  endfacet
  facet normal 0 -0.382682 -0.92388
    outer loop
      vertex 20 0 7.5
      vertex 40 1.76777 6.76777
      vertex 40 0 7.5
    endloop
  endfacet
  facet normal -0 -0.382682 -0.92388
    outer loop
      vertex 40 1.76777 6.76777
      vertex 20 0 7.5
      vertex 20 1.76777 6.76777
    endloop
  endfacet
  facet normal -0.951065 -0.308992 0
    outer loop
      vertex -12.4271 -1.76336 10
      vertex -13 0 14
      vertex -13 0 10
    endloop
  endfacet
  facet normal -0.951065 -0.308992 0
    outer loop
      vertex -13 0 14
      vertex -12.4271 -1.76336 10
      vertex -12.4271 -1.76336 14
    endloop
  endfacet
  facet normal 0.587784 0.809018 -0
    outer loop
      vertex -7.57295 1.76336 10
      vertex -9.07295 2.85317 14
      vertex -7.57295 1.76336 14
    endloop
  endfacet
  facet normal 0.587784 0.809018 0
    outer loop
      vertex -9.07295 2.85317 14
      vertex -7.57295 1.76336 10
      vertex -9.07295 2.85317 10
    endloop
  endfacet
  facet normal 0.951057 0.309017 0
    outer loop
      vertex -7 0 14
      vertex -7.57295 1.76336 10
      vertex -7.57295 1.76336 14
    endloop
  endfacet
  facet normal 0.951057 0.309017 0
    outer loop
      vertex -7.57295 1.76336 10
      vertex -7 0 14
      vertex -7 0 10
    endloop
  endfacet
  facet normal 0 1 -0
    outer loop
      vertex -9.07295 2.85317 10
      vertex -10.9271 2.85317 14
      vertex -9.07295 2.85317 14
    endloop
  endfacet
  facet normal 0 1 0
    outer loop
      vertex -10.9271 2.85317 14
      vertex -9.07295 2.85317 10
      vertex -10.9271 2.85317 10
    endloop
  endfacet
  facet normal 0 0 1
    outer loop
      vertex -7.57295 1.76336 14
      vertex -7.5 0 14
      vertex -7 0 14
    endloop
  endfacet
  facet normal 0 0 1
    outer loop
      vertex -7.57295 1.76336 14
      vertex -8.23223 1.76777 14
      vertex -7.5 0 14
    endloop
  endfacet
  facet normal 0 0 1
    outer loop
      vertex -9.07295 2.85317 14
      vertex -8.23223 1.76777 14
      vertex -7.57295 1.76336 14
    endloop
  endfacet
  facet normal 0 0 1
    outer loop
      vertex -9.07295 2.85317 14
      vertex -10 2.5 14
      vertex -8.23223 1.76777 14
    endloop
  endfacet
  facet normal -0 0 1
    outer loop
      vertex -10.9271 2.85317 14
      vertex -10 2.5 14
      vertex -9.07295 2.85317 14
    endloop
  endfacet
  facet normal 0 0 1
    outer loop
      vertex -10.9271 2.85317 14
      vertex -11.7678 1.76777 14
      vertex -10 2.5 14
    endloop
  endfacet
  facet normal 0 0 1
    outer loop
      vertex -12.4271 1.76336 14
      vertex -11.7678 1.76777 14
      vertex -10.9271 2.85317 14
    endloop
  endfacet
  facet normal -0 0 1
    outer loop
      vertex -12.4271 1.76336 14
      vertex -12.5 0 14
      vertex -11.7678 1.76777 14
    endloop
  endfacet
  facet normal 0 -0 1
    outer loop
      vertex -12.5 0 14
      vertex -12.4271 1.76336 14
      vertex -13 0 14
    endloop
  endfacet
  facet normal -0 0 1
    outer loop
      vertex -7.5 0 14
      vertex -7.57295 -1.76336 14
      vertex -7 0 14
    endloop
  endfacet
  facet normal 0 0 1
    outer loop
      vertex -8.23223 -1.76777 14
      vertex -7.57295 -1.76336 14
      vertex -7.5 0 14
    endloop
  endfacet
  facet normal -0 0 1
    outer loop
      vertex -8.23223 -1.76777 14
      vertex -9.07295 -2.85317 14
      vertex -7.57295 -1.76336 14
    endloop
  endfacet
  facet normal -0 0 1
    outer loop
      vertex -10 -2.5 14
      vertex -9.07295 -2.85317 14
      vertex -8.23223 -1.76777 14
    endloop
  endfacet
  facet normal 0 0 1
    outer loop
      vertex -10 -2.5 14
      vertex -10.9271 -2.85317 14
      vertex -9.07295 -2.85317 14
    endloop
  endfacet
  facet normal 0 0 1
    outer loop
      vertex -11.7678 -1.76777 14
      vertex -10.9271 -2.85317 14
      vertex -10 -2.5 14
    endloop
  endfacet
  facet normal 0 0 1
    outer loop
      vertex -11.7678 -1.76777 14
      vertex -12.4271 -1.76336 14
      vertex -10.9271 -2.85317 14
    endloop
  endfacet
  facet normal 0 0 1
    outer loop
      vertex -12.5 0 14
      vertex -12.4271 -1.76336 14
      vertex -11.7678 -1.76777 14
    endloop
  endfacet
  facet normal 0 0 1
    outer loop
      vertex -12.4271 -1.76336 14
      vertex -12.5 0 14
      vertex -13 0 14
    endloop
  endfacet
  facet normal -0.587784 -0.809018 0
    outer loop
      vertex -12.4271 -1.76336 10
      vertex -10.9271 -2.85317 14
      vertex -12.4271 -1.76336 14
    endloop
  endfacet
  facet normal -0.587784 -0.809018 -0
    outer loop
      vertex -10.9271 -2.85317 14
      vertex -12.4271 -1.76336 10
      vertex -10.9271 -2.85317 10
    endloop
  endfacet
  facet normal 0.951057 -0.309017 0
    outer loop
      vertex -7.57295 -1.76336 14
      vertex -7 0 10
      vertex -7 0 14
    endloop
  endfacet
  facet normal 0.951057 -0.309017 0
    outer loop
      vertex -7 0 10
      vertex -7.57295 -1.76336 14
      vertex -7.57295 -1.76336 10
    endloop
  endfacet
  facet normal -0.587784 0.809018 0
    outer loop
      vertex -10.9271 2.85317 10
      vertex -12.4271 1.76336 14
      vertex -10.9271 2.85317 14
    endloop
  endfacet
  facet normal -0.587784 0.809018 0
    outer loop
      vertex -12.4271 1.76336 14
      vertex -10.9271 2.85317 10
      vertex -12.4271 1.76336 10
    endloop
  endfacet
  facet normal 0 -1 0
    outer loop
      vertex -10.9271 -2.85317 10
      vertex -9.07295 -2.85317 14
      vertex -10.9271 -2.85317 14
    endloop
  endfacet
  facet normal 0 -1 -0
    outer loop
      vertex -9.07295 -2.85317 14
      vertex -10.9271 -2.85317 10
      vertex -9.07295 -2.85317 10
    endloop
  endfacet
  facet normal 0.587784 -0.809018 0
    outer loop
      vertex -9.07295 -2.85317 10
      vertex -7.57295 -1.76336 14
      vertex -9.07295 -2.85317 14
    endloop
  endfacet
  facet normal 0.587784 -0.809018 0
    outer loop
      vertex -7.57295 -1.76336 14
      vertex -9.07295 -2.85317 10
      vertex -7.57295 -1.76336 10
    endloop
  endfacet
  facet normal -0.951065 0.308992 0
    outer loop
      vertex -13 0 10
      vertex -12.4271 1.76336 14
      vertex -12.4271 1.76336 10
    endloop
  endfacet
  facet normal -0.951065 0.308992 0
    outer loop
      vertex -12.4271 1.76336 14
      vertex -13 0 10
      vertex -13 0 14
    endloop
  endfacet
  facet normal 0 0 -1
    outer loop
      vertex -7.57295 -1.76336 10
      vertex -7.5 0 10
      vertex -7 0 10
    endloop
  endfacet
  facet normal -0 0 -1
    outer loop
      vertex -7.57295 -1.76336 10
      vertex -8.23223 -1.76777 10
      vertex -7.5 0 10
    endloop
  endfacet
  facet normal 0 0 -1
    outer loop
      vertex -9.07295 -2.85317 10
      vertex -8.23223 -1.76777 10
      vertex -7.57295 -1.76336 10
    endloop
  endfacet
  facet normal 0 0 -1
    outer loop
      vertex -9.07295 -2.85317 10
      vertex -10 -2.5 10
      vertex -8.23223 -1.76777 10
    endloop
  endfacet
  facet normal 0 0 -1
    outer loop
      vertex -10.9271 -2.85317 10
      vertex -10 -2.5 10
      vertex -9.07295 -2.85317 10
    endloop
  endfacet
  facet normal 0 0 -1
    outer loop
      vertex -10.9271 -2.85317 10
      vertex -11.7678 -1.76777 10
      vertex -10 -2.5 10
    endloop
  endfacet
  facet normal 0 0 -1
    outer loop
      vertex -12.4271 -1.76336 10
      vertex -11.7678 -1.76777 10
      vertex -10.9271 -2.85317 10
    endloop
  endfacet
  facet normal 0 0 -1
    outer loop
      vertex -12.4271 -1.76336 10
      vertex -12.5 0 10
      vertex -11.7678 -1.76777 10
    endloop
  endfacet
  facet normal -0 -0 -1
    outer loop
      vertex -12.5 0 10
      vertex -12.4271 -1.76336 10
      vertex -13 0 10
    endloop
  endfacet
  facet normal 0 0 -1
    outer loop
      vertex -7.5 0 10
      vertex -7.57295 1.76336 10
      vertex -7 0 10
    endloop
  endfacet
  facet normal 0 0 -1
    outer loop
      vertex -8.23223 1.76777 10
      vertex -7.57295 1.76336 10
      vertex -7.5 0 10
    endloop
  endfacet
  facet normal 0 0 -1
    outer loop
      vertex -8.23223 1.76777 10
      vertex -9.07295 2.85317 10
      vertex -7.57295 1.76336 10
    endloop
  endfacet
  facet normal 0 0 -1
    outer loop
      vertex -10 2.5 10
      vertex -9.07295 2.85317 10
      vertex -8.23223 1.76777 10
    endloop
  endfacet
  facet normal 0 0 -1
    outer loop
      vertex -10 2.5 10
      vertex -10.9271 2.85317 10
      vertex -9.07295 2.85317 10
    endloop
  endfacet
  facet normal 0 0 -1
    outer loop
      vertex -11.7678 1.76777 10
      vertex -10.9271 2.85317 10
      vertex -10 2.5 10
    endloop
  endfacet
  facet normal -0 0 -1
    outer loop
      vertex -11.7678 1.76777 10
      vertex -12.4271 1.76336 10
      vertex -10.9271 2.85317 10
    endloop
  endfacet
  facet normal 0 0 -1
    outer loop
      vertex -12.5 0 10
      vertex -12.4271 1.76336 10
      vertex -11.7678 1.76777 10
    endloop
  endfacet
  facet normal 0 0 -1
    outer loop
      vertex -12.4271 1.76336 10
      vertex -12.5 0 10
      vertex -13 0 10
    endloop
  endfacet
  facet normal 0.923886 0.382668 0
    outer loop
      vertex -11.7678 -1.76777 14
      vertex -12.5 0 10
      vertex -12.5 0 14
    endloop
  endfacet
  facet normal 0.923886 0.382668 0
    outer loop
      vertex -12.5 0 10
      vertex -11.7678 -1.76777 14
      vertex -11.7678 -1.76777 10
    endloop
  endfacet
  facet normal -0.382682 -0.92388 0
    outer loop
      vertex -10 2.5 10
      vertex -8.23223 1.76777 14
      vertex -10 2.5 14
    endloop
  endfacet
  facet normal -0.382682 -0.92388 -0
    outer loop
      vertex -8.23223 1.76777 14
      vertex -10 2.5 10
      vertex -8.23223 1.76777 10
    endloop
  endfacet
  facet normal -0.92388 -0.382682 0
    outer loop
      vertex -7.5 0 10
      vertex -8.23223 1.76777 14
      vertex -8.23223 1.76777 10
    endloop
  endfacet
  facet normal -0.92388 -0.382682 0
    outer loop
      vertex -8.23223 1.76777 14
      vertex -7.5 0 10
      vertex -7.5 0 14
    endloop
  endfacet
  facet normal -0.92388 0.382682 0
    outer loop
      vertex -8.23223 -1.76777 10
      vertex -7.5 0 14
      vertex -7.5 0 10
    endloop
  endfacet
  facet normal -0.92388 0.382682 0
    outer loop
      vertex -7.5 0 14
      vertex -8.23223 -1.76777 10
      vertex -8.23223 -1.76777 14
    endloop
  endfacet
  facet normal 0.382676 0.923883 -0
    outer loop
      vertex -10 -2.5 10
      vertex -11.7678 -1.76777 14
      vertex -10 -2.5 14
    endloop
  endfacet
  facet normal 0.382676 0.923883 0
    outer loop
      vertex -11.7678 -1.76777 14
      vertex -10 -2.5 10
      vertex -11.7678 -1.76777 10
    endloop
  endfacet
  facet normal 0.382676 -0.923883 0
    outer loop
      vertex -11.7678 1.76777 10
      vertex -10 2.5 14
      vertex -11.7678 1.76777 14
    endloop
  endfacet
  facet normal 0.382676 -0.923883 0
    outer loop
      vertex -10 2.5 14
      vertex -11.7678 1.76777 10
      vertex -10 2.5 10
    endloop
  endfacet
  facet normal 0.923886 -0.382668 0
    outer loop
      vertex -12.5 0 14
      vertex -11.7678 1.76777 10
      vertex -11.7678 1.76777 14
    endloop
  endfacet
  facet normal 0.923886 -0.382668 0
    outer loop
      vertex -11.7678 1.76777 10
      vertex -12.5 0 14
      vertex -12.5 0 10
    endloop
  endfacet
  facet normal -0.382682 0.92388 0
    outer loop
      vertex -8.23223 -1.76777 10
      vertex -10 -2.5 14
      vertex -8.23223 -1.76777 14
    endloop
  endfacet
  facet normal -0.382682 0.92388 0
    outer loop
      vertex -10 -2.5 14
      vertex -8.23223 -1.76777 10
      vertex -10 -2.5 10
    endloop
  endfacet
  facet normal 0.382682 0 0.92388
    outer loop
      vertex -8.23223 0 1.76777
      vertex -10 0 2.5
      vertex -8.23223 -1.76777 1.76777
    endloop
  endfacet
  facet normal 0.92388 -0 0.382682
    outer loop
      vertex -8.23223 -1.76777 1.76777
      vertex -7.5 0 0
      vertex -8.23223 0 1.76777
    endloop
  endfacet
  facet normal 0.92388 0 0.382682
    outer loop
      vertex -7.5 0 0
      vertex -8.23223 -1.76777 1.76777
      vertex -7.5 -2.5 0
    endloop
  endfacet
  facet normal 0.382682 0 -0.92388
    outer loop
      vertex -8.23223 -1.76777 -1.76777
      vertex -10 0 -2.5
      vertex -8.23223 0 -1.76777
    endloop
  endfacet
  facet normal 0.92388 0 -0.382682
    outer loop
      vertex -7.5 0 0
      vertex -8.23223 -1.76777 -1.76777
      vertex -8.23223 0 -1.76777
    endloop
  endfacet
  facet normal 0.92388 0 -0.382682
    outer loop
      vertex -8.23223 -1.76777 -1.76777
      vertex -7.5 0 0
      vertex -7.5 -2.5 0
    endloop
  endfacet
  facet normal -0.923886 0 -0.382668
    outer loop
      vertex -11.7678 -1.76777 -1.76777
      vertex -12.5 0 0
      vertex -11.7678 0 -1.76777
    endloop
  endfacet
  facet normal -0.923886 -0 -0.382668
    outer loop
      vertex -12.5 0 0
      vertex -11.7678 -1.76777 -1.76777
      vertex -12.5 -2.5 0
    endloop
  endfacet
  facet normal -0.382676 0 -0.923883
    outer loop
      vertex -10 0 -2.5
      vertex -11.7678 -1.76777 -1.76777
      vertex -11.7678 0 -1.76777
    endloop
  endfacet
  facet normal -0.382676 0 0.923883
    outer loop
      vertex -11.7678 0 1.76777
      vertex -11.7678 -1.76777 1.76777
      vertex -10 0 2.5
    endloop
  endfacet
  facet normal -0.923886 0 0.382668
    outer loop
      vertex -12.5 0 0
      vertex -11.7678 -1.76777 1.76777
      vertex -11.7678 0 1.76777
    endloop
  endfacet
  facet normal -0.923886 0 0.382668
    outer loop
      vertex -11.7678 -1.76777 1.76777
      vertex -12.5 0 0
      vertex -12.5 -2.5 0
    endloop
  endfacet
  facet normal 0 1 0
    outer loop
      vertex -8.23223 0 1.76777
      vertex -11.7678 0 1.76777
      vertex -10 0 2.5
    endloop
  endfacet
  facet normal 0 1 0
    outer loop
      vertex -7.5 0 0
      vertex -11.7678 0 1.76777
      vertex -8.23223 0 1.76777
    endloop
  endfacet
  facet normal 0 1 0
    outer loop
      vertex -7.5 0 0
      vertex -12.5 0 0
      vertex -11.7678 0 1.76777
    endloop
  endfacet
  facet normal 0 1 -0
    outer loop
      vertex -8.23223 0 -1.76777
      vertex -12.5 0 0
      vertex -7.5 0 0
    endloop
  endfacet
  facet normal 0 1 0
    outer loop
      vertex -8.23223 0 -1.76777
      vertex -11.7678 0 -1.76777
      vertex -12.5 0 0
    endloop
  endfacet
  facet normal -0 1 0
    outer loop
      vertex -11.7678 0 -1.76777
      vertex -8.23223 0 -1.76777
      vertex -10 0 -2.5
    endloop
  endfacet
  facet normal -0.951057 -0.309017 0
    outer loop
      vertex 7.57295 -1.76336 10
      vertex 7 0 14
      vertex 7 0 10
    endloop
  endfacet
  facet normal -0.951057 -0.309017 0
    outer loop
      vertex 7 0 14
      vertex 7.57295 -1.76336 10
      vertex 7.57295 -1.76336 14
    endloop
  endfacet
  facet normal 0.587784 0.809018 -0
    outer loop
      vertex 12.4271 1.76336 10
      vertex 10.9271 2.85317 14
      vertex 12.4271 1.76336 14
    endloop
  endfacet
  facet normal 0.587784 0.809018 0
    outer loop
      vertex 10.9271 2.85317 14
      vertex 12.4271 1.76336 10
      vertex 10.9271 2.85317 10
    endloop
  endfacet
  facet normal 0.951065 0.308992 0
    outer loop
      vertex 13 0 14
      vertex 12.4271 1.76336 10
      vertex 12.4271 1.76336 14
    endloop
  endfacet
  facet normal 0.951065 0.308992 0
    outer loop
      vertex 12.4271 1.76336 10
      vertex 13 0 14
      vertex 13 0 10
    endloop
  endfacet
  facet normal 0 1 -0
    outer loop
      vertex 10.9271 2.85317 10
      vertex 9.07295 2.85317 14
      vertex 10.9271 2.85317 14
    endloop
  endfacet
  facet normal 0 1 0
    outer loop
      vertex 9.07295 2.85317 14
      vertex 10.9271 2.85317 10
      vertex 9.07295 2.85317 10
    endloop
  endfacet
  facet normal 0 0 1
    outer loop
      vertex 12.4271 1.76336 14
      vertex 12.5 0 14
      vertex 13 0 14
    endloop
  endfacet
  facet normal 0 0 1
    outer loop
      vertex 12.4271 1.76336 14
      vertex 11.7678 1.76777 14
      vertex 12.5 0 14
    endloop
  endfacet
  facet normal 0 0 1
    outer loop
      vertex 10.9271 2.85317 14
      vertex 11.7678 1.76777 14
      vertex 12.4271 1.76336 14
    endloop
  endfacet
  facet normal 0 0 1
    outer loop
      vertex 10.9271 2.85317 14
      vertex 10 2.5 14
      vertex 11.7678 1.76777 14
    endloop
  endfacet
  facet normal -0 0 1
    outer loop
      vertex 9.07295 2.85317 14
      vertex 10 2.5 14
      vertex 10.9271 2.85317 14
    endloop
  endfacet
  facet normal 0 0 1
    outer loop
      vertex 9.07295 2.85317 14
      vertex 8.23223 1.76777 14
      vertex 10 2.5 14
    endloop
  endfacet
  facet normal 0 0 1
    outer loop
      vertex 7.57295 1.76336 14
      vertex 8.23223 1.76777 14
      vertex 9.07295 2.85317 14
    endloop
  endfacet
  facet normal -0 0 1
    outer loop
      vertex 7.57295 1.76336 14
      vertex 7.5 0 14
      vertex 8.23223 1.76777 14
    endloop
  endfacet
  facet normal 0 -0 1
    outer loop
      vertex 7.5 0 14
      vertex 7.57295 1.76336 14
      vertex 7 0 14
    endloop
  endfacet
  facet normal -0 0 1
    outer loop
      vertex 12.5 0 14
      vertex 12.4271 -1.76336 14
      vertex 13 0 14
    endloop
  endfacet
  facet normal 0 0 1
    outer loop
      vertex 11.7678 -1.76777 14
      vertex 12.4271 -1.76336 14
      vertex 12.5 0 14
    endloop
  endfacet
  facet normal -0 0 1
    outer loop
      vertex 11.7678 -1.76777 14
      vertex 10.9271 -2.85317 14
      vertex 12.4271 -1.76336 14
    endloop
  endfacet
  facet normal -0 0 1
    outer loop
      vertex 10 -2.5 14
      vertex 10.9271 -2.85317 14
      vertex 11.7678 -1.76777 14
    endloop
  endfacet
  facet normal 0 0 1
    outer loop
      vertex 10 -2.5 14
      vertex 9.07295 -2.85317 14
      vertex 10.9271 -2.85317 14
    endloop
  endfacet
  facet normal 0 0 1
    outer loop
      vertex 8.23223 -1.76777 14
      vertex 9.07295 -2.85317 14
      vertex 10 -2.5 14
    endloop
  endfacet
  facet normal 0 0 1
    outer loop
      vertex 8.23223 -1.76777 14
      vertex 7.57295 -1.76336 14
      vertex 9.07295 -2.85317 14
    endloop
  endfacet
  facet normal 0 0 1
    outer loop
      vertex 7.5 0 14
      vertex 7.57295 -1.76336 14
      vertex 8.23223 -1.76777 14
    endloop
  endfacet
  facet normal 0 0 1
    outer loop
      vertex 7.57295 -1.76336 14
      vertex 7.5 0 14
      vertex 7 0 14
    endloop
  endfacet
  facet normal -0.587784 -0.809018 0
    outer loop
      vertex 7.57295 -1.76336 10
      vertex 9.07295 -2.85317 14
      vertex 7.57295 -1.76336 14
    endloop
  endfacet
  facet normal -0.587784 -0.809018 -0
    outer loop
      vertex 9.07295 -2.85317 14
      vertex 7.57295 -1.76336 10
      vertex 9.07295 -2.85317 10
    endloop
  endfacet
  facet normal 0.951065 -0.308992 0
    outer loop
      vertex 12.4271 -1.76336 14
      vertex 13 0 10
      vertex 13 0 14
    endloop
  endfacet
  facet normal 0.951065 -0.308992 0
    outer loop
      vertex 13 0 10
      vertex 12.4271 -1.76336 14
      vertex 12.4271 -1.76336 10
    endloop
  endfacet
  facet normal -0.587784 0.809018 0
    outer loop
      vertex 9.07295 2.85317 10
      vertex 7.57295 1.76336 14
      vertex 9.07295 2.85317 14
    endloop
  endfacet
  facet normal -0.587784 0.809018 0
    outer loop
      vertex 7.57295 1.76336 14
      vertex 9.07295 2.85317 10
      vertex 7.57295 1.76336 10
    endloop
  endfacet
  facet normal 0 -1 0
    outer loop
      vertex 9.07295 -2.85317 10
      vertex 10.9271 -2.85317 14
      vertex 9.07295 -2.85317 14
    endloop
  endfacet
  facet normal 0 -1 -0
    outer loop
      vertex 10.9271 -2.85317 14
      vertex 9.07295 -2.85317 10
      vertex 10.9271 -2.85317 10
    endloop
  endfacet
  facet normal 0.587784 -0.809018 0
    outer loop
      vertex 10.9271 -2.85317 10
      vertex 12.4271 -1.76336 14
      vertex 10.9271 -2.85317 14
    endloop
  endfacet
  facet normal 0.587784 -0.809018 0
    outer loop
      vertex 12.4271 -1.76336 14
      vertex 10.9271 -2.85317 10
      vertex 12.4271 -1.76336 10
    endloop
  endfacet
  facet normal -0.951057 0.309017 0
    outer loop
      vertex 7 0 10
      vertex 7.57295 1.76336 14
      vertex 7.57295 1.76336 10
    endloop
  endfacet
  facet normal -0.951057 0.309017 0
    outer loop
      vertex 7.57295 1.76336 14
      vertex 7 0 10
      vertex 7 0 14
    endloop
  endfacet
  facet normal 0 0 -1
    outer loop
      vertex 12.4271 -1.76336 10
      vertex 12.5 0 10
      vertex 13 0 10
    endloop
  endfacet
  facet normal -0 0 -1
    outer loop
      vertex 12.4271 -1.76336 10
      vertex 11.7678 -1.76777 10
      vertex 12.5 0 10
    endloop
  endfacet
  facet normal 0 0 -1
    outer loop
      vertex 10.9271 -2.85317 10
      vertex 11.7678 -1.76777 10
      vertex 12.4271 -1.76336 10
    endloop
  endfacet
  facet normal 0 0 -1
    outer loop
      vertex 10.9271 -2.85317 10
      vertex 10 -2.5 10
      vertex 11.7678 -1.76777 10
    endloop
  endfacet
  facet normal 0 0 -1
    outer loop
      vertex 9.07295 -2.85317 10
      vertex 10 -2.5 10
      vertex 10.9271 -2.85317 10
    endloop
  endfacet
  facet normal 0 0 -1
    outer loop
      vertex 9.07295 -2.85317 10
      vertex 8.23223 -1.76777 10
      vertex 10 -2.5 10
    endloop
  endfacet
  facet normal 0 0 -1
    outer loop
      vertex 7.57295 -1.76336 10
      vertex 8.23223 -1.76777 10
      vertex 9.07295 -2.85317 10
    endloop
  endfacet
  facet normal 0 0 -1
    outer loop
      vertex 7.57295 -1.76336 10
      vertex 7.5 0 10
      vertex 8.23223 -1.76777 10
    endloop
  endfacet
  facet normal -0 -0 -1
    outer loop
      vertex 7.5 0 10
      vertex 7.57295 -1.76336 10
      vertex 7 0 10
    endloop
  endfacet
  facet normal 0 0 -1
    outer loop
      vertex 12.5 0 10
      vertex 12.4271 1.76336 10
      vertex 13 0 10
    endloop
  endfacet
  facet normal 0 0 -1
    outer loop
      vertex 11.7678 1.76777 10
      vertex 12.4271 1.76336 10
      vertex 12.5 0 10
    endloop
  endfacet
  facet normal 0 0 -1
    outer loop
      vertex 11.7678 1.76777 10
      vertex 10.9271 2.85317 10
      vertex 12.4271 1.76336 10
    endloop
  endfacet
  facet normal 0 0 -1
    outer loop
      vertex 10 2.5 10
      vertex 10.9271 2.85317 10
      vertex 11.7678 1.76777 10
    endloop
  endfacet
  facet normal 0 0 -1
    outer loop
      vertex 10 2.5 10
      vertex 9.07295 2.85317 10
      vertex 10.9271 2.85317 10
    endloop
  endfacet
  facet normal 0 0 -1
    outer loop
      vertex 8.23223 1.76777 10
      vertex 9.07295 2.85317 10
      vertex 10 2.5 10
    endloop
  endfacet
  facet normal -0 0 -1
    outer loop
      vertex 8.23223 1.76777 10
      vertex 7.57295 1.76336 10
      vertex 9.07295 2.85317 10
    endloop
  endfacet
  facet normal 0 0 -1
    outer loop
      vertex 7.5 0 10
      vertex 7.57295 1.76336 10
      vertex 8.23223 1.76777 10
    endloop
  endfacet
  facet normal 0 0 -1
    outer loop
      vertex 7.57295 1.76336 10
      vertex 7.5 0 10
      vertex 7 0 10
    endloop
  endfacet
  facet normal 0.92388 0.382682 0
    outer loop
      vertex 8.23223 -1.76777 14
      vertex 7.5 0 10
      vertex 7.5 0 14
    endloop
  endfacet
  facet normal 0.92388 0.382682 0
    outer loop
      vertex 7.5 0 10
      vertex 8.23223 -1.76777 14
      vertex 8.23223 -1.76777 10
    endloop
  endfacet
  facet normal -0.382676 -0.923883 0
    outer loop
      vertex 10 2.5 10
      vertex 11.7678 1.76777 14
      vertex 10 2.5 14
    endloop
  endfacet
  facet normal -0.382676 -0.923883 -0
    outer loop
      vertex 11.7678 1.76777 14
      vertex 10 2.5 10
      vertex 11.7678 1.76777 10
    endloop
  endfacet
  facet normal -0.923886 -0.382668 0
    outer loop
      vertex 12.5 0 10
      vertex 11.7678 1.76777 14
      vertex 11.7678 1.76777 10
    endloop
  endfacet
  facet normal -0.923886 -0.382668 0
    outer loop
      vertex 11.7678 1.76777 14
      vertex 12.5 0 10
      vertex 12.5 0 14
    endloop
  endfacet
  facet normal -0.923886 0.382668 0
    outer loop
      vertex 11.7678 -1.76777 10
      vertex 12.5 0 14
      vertex 12.5 0 10
    endloop
  endfacet
  facet normal -0.923886 0.382668 0
    outer loop
      vertex 12.5 0 14
      vertex 11.7678 -1.76777 10
      vertex 11.7678 -1.76777 14
    endloop
  endfacet
  facet normal 0.382682 0.92388 -0
    outer loop
      vertex 10 -2.5 10
      vertex 8.23223 -1.76777 14
      vertex 10 -2.5 14
    endloop
  endfacet
  facet normal 0.382682 0.92388 0
    outer loop
      vertex 8.23223 -1.76777 14
      vertex 10 -2.5 10
      vertex 8.23223 -1.76777 10
    endloop
  endfacet
  facet normal 0.382682 -0.92388 0
    outer loop
      vertex 8.23223 1.76777 10
      vertex 10 2.5 14
      vertex 8.23223 1.76777 14
    endloop
  endfacet
  facet normal 0.382682 -0.92388 0
    outer loop
      vertex 10 2.5 14
      vertex 8.23223 1.76777 10
      vertex 10 2.5 10
    endloop
  endfacet
  facet normal 0.92388 -0.382682 0
    outer loop
      vertex 7.5 0 14
      vertex 8.23223 1.76777 10
      vertex 8.23223 1.76777 14
    endloop
  endfacet
  facet normal 0.92388 -0.382682 0
    outer loop
      vertex 8.23223 1.76777 10
      vertex 7.5 0 14
      vertex 7.5 0 10
    endloop
  endfacet
  facet normal -0.382676 0.923883 0
    outer loop
      vertex 11.7678 -1.76777 10
      vertex 10 -2.5 14
      vertex 11.7678 -1.76777 14
    endloop
  endfacet
  facet normal -0.382676 0.923883 0
    outer loop
      vertex 10 -2.5 14
      vertex 11.7678 -1.76777 10
      vertex 10 -2.5 10
    endloop
  endfacet
  facet normal 0.382676 0 0.923883
    outer loop
      vertex 11.7678 0 1.76777
      vertex 10 0 2.5
      vertex 11.7678 -1.76777 1.76777
    endloop
  endfacet
  facet normal 0.923886 -0 0.382668
    outer loop
      vertex 11.7678 -1.76777 1.76777
      vertex 12.5 0 0
      vertex 11.7678 0 1.76777
    endloop
  endfacet
  facet normal 0.923886 0 0.382668
    outer loop
      vertex 12.5 0 0
      vertex 11.7678 -1.76777 1.76777
      vertex 12.5 -2.5 0
    endloop
  endfacet
  facet normal 0.923886 0 -0.382668
    outer loop
      vertex 12.5 0 0
      vertex 11.7678 -1.76777 -1.76777
      vertex 11.7678 0 -1.76777
    endloop
  endfacet
  facet normal 0.923886 0 -0.382668
    outer loop
      vertex 11.7678 -1.76777 -1.76777
      vertex 12.5 0 0
      vertex 12.5 -2.5 0
    endloop
  endfacet
  facet normal -0.92388 0 -0.382682
    outer loop
      vertex 8.23223 -1.76777 -1.76777
      vertex 7.5 0 0
      vertex 8.23223 0 -1.76777
    endloop
  endfacet
  facet normal -0.92388 -0 -0.382682
    outer loop
      vertex 7.5 0 0
      vertex 8.23223 -1.76777 -1.76777
      vertex 7.5 -2.5 0
    endloop
  endfacet
  facet normal -0.382682 0 -0.92388
    outer loop
      vertex 10 0 -2.5
      vertex 8.23223 -1.76777 -1.76777
      vertex 8.23223 0 -1.76777
    endloop
  endfacet
  facet normal -0.382682 0 0.92388
    outer loop
      vertex 8.23223 0 1.76777
      vertex 8.23223 -1.76777 1.76777
      vertex 10 0 2.5
    endloop
  endfacet
  facet normal -0.92388 0 0.382682
    outer loop
      vertex 7.5 0 0
      vertex 8.23223 -1.76777 1.76777
      vertex 8.23223 0 1.76777
    endloop
  endfacet
  facet normal -0.92388 0 0.382682
    outer loop
      vertex 8.23223 -1.76777 1.76777
      vertex 7.5 0 0
      vertex 7.5 -2.5 0
    endloop
  endfacet
  facet normal 0.382676 0 -0.923883
    outer loop
      vertex 11.7678 -1.76777 -1.76777
      vertex 10 0 -2.5
      vertex 11.7678 0 -1.76777
    endloop
  endfacet
  facet normal 0 1 0
    outer loop
      vertex 11.7678 0 1.76777
      vertex 8.23223 0 1.76777
      vertex 10 0 2.5
    endloop
  endfacet
  facet normal 0 1 0
    outer loop
      vertex 12.5 0 0
      vertex 8.23223 0 1.76777
      vertex 11.7678 0 1.76777
    endloop
  endfacet
  facet normal 0 1 0
    outer loop
      vertex 12.5 0 0
      vertex 7.5 0 0
      vertex 8.23223 0 1.76777
    endloop
  endfacet
  facet normal 0 1 -0
    outer loop
      vertex 11.7678 0 -1.76777
      vertex 7.5 0 0
      vertex 12.5 0 0
    endloop
  endfacet
  facet normal 0 1 0
    outer loop
      vertex 11.7678 0 -1.76777
      vertex 8.23223 0 -1.76777
      vertex 7.5 0 0
    endloop
  endfacet
  facet normal -0 1 0
    outer loop
      vertex 8.23223 0 -1.76777
      vertex 11.7678 0 -1.76777
      vertex 10 0 -2.5
    endloop
  endfacet
endsolid OpenSCAD_Model
