solid OpenSCAD_Model
  facet normal 1 -0 0
    outer loop
      vertex -6 -9 19
      vertex -6 9 11
      vertex -6 9 19
    endloop
  endfacet
  facet normal 1 0 0
    outer loop
      vertex -6 9 11
      vertex -6 -9 19
      vertex -6 -9 11
    endloop
  endfacet
  facet normal -0 0 1
    outer loop
      vertex -24 9 19
      vertex -6 -9 19
      vertex -6 9 19
    endloop
  endfacet
  facet normal 0 0 1
    outer loop
      vertex -6 -9 19
      vertex -24 9 19
      vertex -24 -9 19
    endloop
  endfacet
  facet normal 0 0 -1
    outer loop
      vertex -24 -9 11
      vertex -6 9 11
      vertex -6 -9 11
    endloop
  endfacet
  facet normal -0 0 -1
    outer loop
      vertex -6 9 11
      vertex -24 -9 11
      vertex -24 9 11
    endloop
  endfacet
  facet normal -1 0 0
    outer loop
      vertex -24 -9 11
      vertex -24 9 19
      vertex -24 9 11
    endloop
  endfacet
  facet normal -1 -0 0
    outer loop
      vertex -24 9 19
      vertex -24 -9 11
      vertex -24 -9 19
    endloop
  endfacet
  facet normal 0 1 -0
    outer loop
      vertex -6 9 11
      vertex -24 9 19
      vertex -6 9 19
    endloop
  endfacet
  facet normal 0 1 0
    outer loop
      vertex -24 9 19
      vertex -6 9 11
      vertex -24 9 11
    endloop
  endfacet
  facet normal 0 -1 0
    outer loop
      vertex -24 -9 11
      vertex -6 -9 19
      vertex -24 -9 19
    endloop
  endfacet
  facet normal 0 -1 -0
    outer loop
      vertex -6 -9 19
      vertex -24 -9 11
      vertex -6 -9 11
    endloop
  endfacet
  facet normal 1 -0 0
    outer loop
      vertex 24 -9 19
      vertex 24 9 11
      vertex 24 9 19
    endloop
  endfacet
  facet normal 1 0 0
    outer loop
      vertex 24 9 11
      vertex 24 -9 19
      vertex 24 -9 11
    endloop
  endfacet
  facet normal -0 0 1
    outer loop
      vertex 6 9 19
      vertex 24 -9 19
      vertex 24 9 19
    endloop
  endfacet
  facet normal 0 0 1
    outer loop
      vertex 24 -9 19
      vertex 6 9 19
      vertex 6 -9 19
    endloop
  endfacet
  facet normal 0 0 -1
    outer loop
      vertex 6 -9 11
      vertex 24 9 11
      vertex 24 -9 11
    endloop
  endfacet
  facet normal -0 0 -1
    outer loop
      vertex 24 9 11
      vertex 6 -9 11
      vertex 6 9 11
    endloop
  endfacet
  facet normal -1 0 0
    outer loop
      vertex 6 -9 11
      vertex 6 9 19
      vertex 6 9 11
    endloop
  endfacet
  facet normal -1 -0 0
    outer loop
      vertex 6 9 19
      vertex 6 -9 11
      vertex 6 -9 19
    endloop
  endfacet
  facet normal 0 1 -0
    outer loop
      vertex 24 9 11
      vertex 6 9 19
      vertex 24 9 19
    endloop
  endfacet
  facet normal 0 1 0
    outer loop
      vertex 6 9 19
      vertex 24 9 11
      vertex 6 9 11
    endloop
  endfacet
  facet normal 0 -1 0
    outer loop
      vertex 6 -9 11
      vertex 24 -9 19
      vertex 6 -9 19
    endloop
  endfacet
  facet normal 0 -1 -0
    outer loop
      vertex 24 -9 19
      vertex 6 -9 11
      vertex 24 -9 11
    endloop
  endfacet
  facet normal 1 -0 0
    outer loop
      vertex -6 -9 8
      vertex -6 9 6
      vertex -6 9 8
    endloop
  endfacet
  facet normal 1 0 0
    outer loop
      vertex -6 9 6
      vertex -6 -9 8
      vertex -6 -9 6
    endloop
  endfacet
  facet normal -0 0 1
    outer loop
      vertex -24 9 8
      vertex -6 -9 8
      vertex -6 9 8
    endloop
  endfacet
  facet normal 0 0 1
    outer loop
      vertex -6 -9 8
      vertex -24 9 8
      vertex -24 -9 8
    endloop
  endfacet
  facet normal 0 0 -1
    outer loop
      vertex -24 -9 6
      vertex -6 9 6
      vertex -6 -9 6
    endloop
  endfacet
  facet normal -0 0 -1
    outer loop
      vertex -6 9 6
      vertex -24 -9 6
      vertex -24 9 6
    endloop
  endfacet
  facet normal -1 0 0
    outer loop
      vertex -24 -9 6
      vertex -24 9 8
      vertex -24 9 6
    endloop
  endfacet
  facet normal -1 -0 0
    outer loop
      vertex -24 9 8
      vertex -24 -9 6
      vertex -24 -9 8
    endloop
  endfacet
  facet normal 0 1 -0
    outer loop
      vertex -6 9 6
      vertex -24 9 8
      vertex -6 9 8
    endloop
  endfacet
  facet normal 0 1 0
    outer loop
      vertex -24 9 8
      vertex -6 9 6
      vertex -24 9 6
    endloop
  endfacet
  facet normal 0 -1 0
    outer loop
      vertex -24 -9 6
      vertex -6 -9 8
      vertex -24 -9 8
    endloop
  endfacet
  facet normal 0 -1 -0
    outer loop
      vertex -6 -9 8
      vertex -24 -9 6
      vertex -6 -9 6
    endloop
  endfacet
  facet normal 1 -0 0
    outer loop
      vertex 24 -9 8
      vertex 24 9 6
      vertex 24 9 8
    endloop
  endfacet
  facet normal 1 0 0
    outer loop
      vertex 24 9 6
      vertex 24 -9 8
      vertex 24 -9 6
    endloop
  endfacet
  facet normal -0 0 1
    outer loop
      vertex 6 9 8
      vertex 24 -9 8
      vertex 24 9 8
    endloop
  endfacet
  facet normal 0 0 1
    outer loop
      vertex 24 -9 8
      vertex 6 9 8
      vertex 6 -9 8
    endloop
  endfacet
  facet normal 0 0 -1
    outer loop
      vertex 6 -9 6
      vertex 24 9 6
      vertex 24 -9 6
    endloop
  endfacet
  facet normal -0 0 -1
    outer loop
      vertex 24 9 6
      vertex 6 -9 6
      vertex 6 9 6
    endloop
  endfacet
  facet normal -1 0 0
    outer loop
      vertex 6 -9 6
      vertex 6 9 8
      vertex 6 9 6
    endloop
  endfacet
  facet normal -1 -0 0
    outer loop
      vertex 6 9 8
      vertex 6 -9 6
      vertex 6 -9 8
    endloop
  endfacet
  facet normal 0 1 -0
    outer loop
      vertex 24 9 6
      vertex 6 9 8
      vertex 24 9 8
    endloop
  endfacet
  facet normal 0 1 0
    outer loop
      vertex 6 9 8
      vertex 24 9 6
      vertex 6 9 6
    endloop
  endfacet
  facet normal 0 -1 0
    outer loop
      vertex 6 -9 6
      vertex 24 -9 8
      vertex 6 -9 8
    endloop
  endfacet
  facet normal 0 -1 -0
    outer loop
      vertex 24 -9 8
      vertex 6 -9 6
      vertex 24 -9 6
    endloop
  endfacet
  facet normal 1 -0 0
    outer loop
      vertex 10 -10 5
      vertex 10 10 -5
      vertex 10 10 5
    endloop
  endfacet
  facet normal 1 0 0
    outer loop
      vertex 10 10 -5
      vertex 10 -10 5
      vertex 10 -10 -5
    endloop
  endfacet
  facet normal -0 0 1
    outer loop
      vertex -10 10 5
      vertex 10 -10 5
      vertex 10 10 5
    endloop
  endfacet
  facet normal 0 0 1
    outer loop
      vertex 10 -10 5
      vertex -10 10 5
      vertex -10 -10 5
    endloop
  endfacet
  facet normal 0 0 -1
    outer loop
      vertex 10 -10 -5
      vertex 5 -5 -5
      vertex 10 10 -5
    endloop
  endfacet
  facet normal 0 0 -1
    outer loop
      vertex 10 -10 -5
      vertex -5 -5 -5
      vertex 5 -5 -5
    endloop
  endfacet
  facet normal -0 0 -1
    outer loop
      vertex -5 -5 -5
      vertex -10 -10 -5
      vertex -5 5 -5
    endloop
  endfacet
  facet normal 0 0 -1
    outer loop
      vertex -10 -10 -5
      vertex -5 -5 -5
      vertex 10 -10 -5
    endloop
  endfacet
  facet normal 0 0 -1
    outer loop
      vertex 5 5 -5
      vertex 10 10 -5
      vertex 5 -5 -5
    endloop
  endfacet
  facet normal 0 0 -1
    outer loop
      vertex -5 5 -5
      vertex 10 10 -5
      vertex 5 5 -5
    endloop
  endfacet
  facet normal 0 0 -1
    outer loop
      vertex -5 5 -5
      vertex -10 10 -5
      vertex 10 10 -5
    endloop
  endfacet
  facet normal 0 0 -1
    outer loop
      vertex -10 10 -5
      vertex -5 5 -5
      vertex -10 -10 -5
    endloop
  endfacet
  facet normal -1 0 0
    outer loop
      vertex -10 -10 -5
      vertex -10 10 5
      vertex -10 10 -5
    endloop
  endfacet
  facet normal -1 -0 0
    outer loop
      vertex -10 10 5
      vertex -10 -10 -5
      vertex -10 -10 5
    endloop
  endfacet
  facet normal 0 1 -0
    outer loop
      vertex 10 10 -5
      vertex -10 10 5
      vertex 10 10 5
    endloop
  endfacet
  facet normal 0 1 0
    outer loop
      vertex -10 10 5
      vertex 10 10 -5
      vertex -10 10 -5
    endloop
  endfacet
  facet normal 0 -1 0
    outer loop
      vertex -10 -10 -5
      vertex 10 -10 5
      vertex -10 -10 5
    endloop
  endfacet
  facet normal 0 -1 -0
    outer loop
      vertex 10 -10 5
      vertex -10 -10 -5
      vertex 10 -10 -5
    endloop
  endfacet
  facet normal 1 -0 0
    outer loop
      vertex 5 -5 -5
      vertex 5 5 -10
      vertex 5 5 -5
    endloop
  endfacet
  facet normal 1 0 0
    outer loop
      vertex 5 5 -10
      vertex 5 -5 -5
      vertex 5 -5 -10
    endloop
  endfacet
  facet normal 0 0 -1
    outer loop
      vertex -5 -5 -10
      vertex 5 5 -10
      vertex 5 -5 -10
    endloop
  endfacet
  facet normal -0 0 -1
    outer loop
      vertex 5 5 -10
      vertex -5 -5 -10
      vertex -5 5 -10
    endloop
  endfacet
  facet normal -1 0 0
    outer loop
      vertex -5 -5 -10
      vertex -5 5 -5
      vertex -5 5 -10
    endloop
  endfacet
  facet normal -1 -0 0
    outer loop
      vertex -5 5 -5
      vertex -5 -5 -10
      vertex -5 -5 -5
    endloop
  endfacet
  facet normal 0 1 -0
    outer loop
      vertex 5 5 -10
      vertex -5 5 -5
      vertex 5 5 -5
    endloop
  endfacet
  facet normal 0 1 0
    outer loop
      vertex -5 5 -5
      vertex 5 5 -10
      vertex -5 5 -10
    endloop
  endfacet
  facet normal 0 -1 0
    outer loop
      vertex -5 -5 -10
      vertex 5 -5 -5
      vertex -5 -5 -5
    endloop
  endfacet
  facet normal 0 -1 -0
    outer loop
      vertex 5 -5 -5
      vertex -5 -5 -10
      vertex 5 -5 -10
    endloop
  endfacet
endsolid OpenSCAD_Model
