solid OpenSCAD_Model
  facet normal 0 0 1
    outer loop
      vertex 25.5524 6.25083 0
      vertex -21.3933 -7.89459 0
      vertex 26.424 -3.71112 0
    endloop
  endfacet
  facet normal 0 -0 1
    outer loop
      vertex -21.3933 -7.89459 0
      vertex 25.5524 6.25083 0
      vertex -22.2649 2.06735 0
    endloop
  endfacet
  facet normal 0 0 -1
    outer loop
      vertex -21.3933 -7.89459 -2
      vertex 25.5524 6.25083 -2
      vertex 26.424 -3.71112 -2
    endloop
  endfacet
  facet normal 0 0 -1
    outer loop
      vertex 25.5524 6.25083 -2
      vertex -21.3933 -7.89459 -2
      vertex -22.2649 2.06735 -2
    endloop
  endfacet
  facet normal 0.0871557 -0.996195 0
    outer loop
      vertex -21.3933 -7.89459 -2
      vertex 26.424 -3.71112 0
      vertex -21.3933 -7.89459 0
    endloop
  endfacet
  facet normal 0.0871557 -0.996195 0
    outer loop
      vertex 26.424 -3.71112 0
      vertex -21.3933 -7.89459 -2
      vertex 26.424 -3.71112 -2
    endloop
  endfacet
  facet normal 0.996194 0.0871599 0
    outer loop
      vertex 26.424 -3.71112 0
      vertex 25.5524 6.25083 -2
      vertex 25.5524 6.25083 0
    endloop
  endfacet
  facet normal 0.996194 0.0871599 0
    outer loop
      vertex 25.5524 6.25083 -2
      vertex 26.424 -3.71112 0
      vertex 26.424 -3.71112 -2
    endloop
  endfacet
  facet normal -0.0871559 0.996195 0
    outer loop
      vertex 25.5524 6.25083 -2
      vertex -22.2649 2.06735 0
      vertex 25.5524 6.25083 0
    endloop
  endfacet
  facet normal -0.0871559 0.996195 0
    outer loop
      vertex -22.2649 2.06735 0
      vertex 25.5524 6.25083 -2
      vertex -22.2649 2.06735 -2
    endloop
  endfacet
  facet normal -0.996194 -0.08716 0
    outer loop
      vertex -21.3933 -7.89459 -2
      vertex -22.2649 2.06735 0
      vertex -22.2649 2.06735 -2
    endloop
  endfacet
  facet normal -0.996194 -0.08716 0
    outer loop
      vertex -22.2649 2.06735 0
      vertex -21.3933 -7.89459 -2
      vertex -21.3933 -7.89459 0
    endloop
  endfacet
endsolid OpenSCAD_Model
