solid OpenSCAD_Model
  facet normal 1 -0 0
    outer loop
      vertex 50 0 30
      vertex 50 30 0
      vertex 50 30 30
    endloop
  endfacet
  facet normal 1 0 0
    outer loop
      vertex 50 30 0
      vertex 50 0 30
      vertex 50 0 0
    endloop
  endfacet
  facet normal -0 0 1
    outer loop
      vertex 0 30 30
      vertex 12.5 0 30
      vertex 12.5 30 30
    endloop
  endfacet
  facet normal 0 0 1
    outer loop
      vertex 12.5 0 30
      vertex 0 30 30
      vertex 0 0 30
    endloop
  endfacet
  facet normal -0 0 1
    outer loop
      vertex 37.5 30 30
      vertex 50 0 30
      vertex 50 30 30
    endloop
  endfacet
  facet normal 0 0 1
    outer loop
      vertex 50 0 30
      vertex 37.5 30 30
      vertex 37.5 0 30
    endloop
  endfacet
  facet normal 0 0 -1
    outer loop
      vertex 0 0 0
      vertex 50 30 0
      vertex 50 0 0
    endloop
  endfacet
  facet normal -0 0 -1
    outer loop
      vertex 50 30 0
      vertex 0 0 0
      vertex 0 30 0
    endloop
  endfacet
  facet normal -1 0 0
    outer loop
      vertex 0 0 0
      vertex 0 30 30
      vertex 0 30 0
    endloop
  endfacet
  facet normal -1 -0 0
    outer loop
      vertex 0 30 30
      vertex 0 0 0
      vertex 0 0 30
    endloop
  endfacet
  facet normal 0 1 -0
    outer loop
      vertex 50 30 0
      vertex 37.5 30 30
      vertex 50 30 30
    endloop
  endfacet
  facet normal 0 1 0
    outer loop
      vertex 37.5 30 30
      vertex 50 30 0
      vertex 12.5 30 30
    endloop
  endfacet
  facet normal 0 1 0
    outer loop
      vertex 0 30 0
      vertex 12.5 30 30
      vertex 50 30 0
    endloop
  endfacet
  facet normal 0 1 0
    outer loop
      vertex 12.5 30 30
      vertex 0 30 0
      vertex 0 30 30
    endloop
  endfacet
  facet normal 0 1 -0
    outer loop
      vertex 37.5 30 30
      vertex 12.5 30 60
      vertex 37.5 30 60
    endloop
  endfacet
  facet normal 0 1 0
    outer loop
      vertex 12.5 30 60
      vertex 37.5 30 30
      vertex 12.5 30 30
    endloop
  endfacet
  facet normal 0 1 0
    outer loop
      vertex 37.5 30 60
      vertex 70 30 70
      vertex 70 30 60
    endloop
  endfacet
  facet normal 0 1 0
    outer loop
      vertex 70 30 70
      vertex 37.5 30 60
      vertex 0 30 70
    endloop
  endfacet
  facet normal 0 1 -0
    outer loop
      vertex 12.5 30 60
      vertex 0 30 70
      vertex 37.5 30 60
    endloop
  endfacet
  facet normal 0 1 0
    outer loop
      vertex 0 30 70
      vertex 12.5 30 60
      vertex 0 30 60
    endloop
  endfacet
  facet normal 0 -1 0
    outer loop
      vertex 0 0 0
      vertex 12.5 0 30
      vertex 0 0 30
    endloop
  endfacet
  facet normal 0 -1 -0
    outer loop
      vertex 12.5 0 30
      vertex 0 0 0
      vertex 37.5 0 30
    endloop
  endfacet
  facet normal 0 -1 0
    outer loop
      vertex 50 0 0
      vertex 37.5 0 30
      vertex 0 0 0
    endloop
  endfacet
  facet normal 0 -1 0
    outer loop
      vertex 37.5 0 30
      vertex 50 0 0
      vertex 50 0 30
    endloop
  endfacet
  facet normal 0 -1 0
    outer loop
      vertex 12.5 0 30
      vertex 37.5 0 70
      vertex 12.5 0 70
    endloop
  endfacet
  facet normal 0 -1 -0
    outer loop
      vertex 37.5 0 70
      vertex 12.5 0 30
      vertex 37.5 0 30
    endloop
  endfacet
  facet normal 1 0 0
    outer loop
      vertex 37.5 10 70
      vertex 37.5 0 70
      vertex 37.5 10 60
    endloop
  endfacet
  facet normal 1 -0 0
    outer loop
      vertex 37.5 10 60
      vertex 37.5 30 30
      vertex 37.5 30 60
    endloop
  endfacet
  facet normal 1 0 0
    outer loop
      vertex 37.5 0 30
      vertex 37.5 10 60
      vertex 37.5 0 70
    endloop
  endfacet
  facet normal 1 0 0
    outer loop
      vertex 37.5 10 60
      vertex 37.5 0 30
      vertex 37.5 30 30
    endloop
  endfacet
  facet normal 0 0 1
    outer loop
      vertex 70 30 70
      vertex 37.5 10 70
      vertex 70 10 70
    endloop
  endfacet
  facet normal 0 0 1
    outer loop
      vertex 37.5 10 70
      vertex 12.5 10 70
      vertex 37.5 0 70
    endloop
  endfacet
  facet normal -0 0 1
    outer loop
      vertex 0 30 70
      vertex 37.5 10 70
      vertex 70 30 70
    endloop
  endfacet
  facet normal 0 0 1
    outer loop
      vertex 37.5 10 70
      vertex 0 30 70
      vertex 12.5 10 70
    endloop
  endfacet
  facet normal 0 0 1
    outer loop
      vertex 12.5 10 70
      vertex 0 30 70
      vertex 0 10 70
    endloop
  endfacet
  facet normal 0 0 1
    outer loop
      vertex 37.5 0 70
      vertex 12.5 10 70
      vertex 12.5 0 70
    endloop
  endfacet
  facet normal -1 0 0
    outer loop
      vertex 12.5 30 30
      vertex 12.5 10 60
      vertex 12.5 30 60
    endloop
  endfacet
  facet normal -1 0 0
    outer loop
      vertex 12.5 0 30
      vertex 12.5 10 60
      vertex 12.5 30 30
    endloop
  endfacet
  facet normal -1 0 0
    outer loop
      vertex 12.5 0 70
      vertex 12.5 10 60
      vertex 12.5 0 30
    endloop
  endfacet
  facet normal -1 0 0
    outer loop
      vertex 12.5 10 60
      vertex 12.5 0 70
      vertex 12.5 10 70
    endloop
  endfacet
  facet normal 1 -0 0
    outer loop
      vertex 70 10 70
      vertex 70 30 60
      vertex 70 30 70
    endloop
  endfacet
  facet normal 1 0 0
    outer loop
      vertex 70 30 60
      vertex 70 10 70
      vertex 70 10 60
    endloop
  endfacet
  facet normal 0 0 -1
    outer loop
      vertex 37.5 10 60
      vertex 70 30 60
      vertex 70 10 60
    endloop
  endfacet
  facet normal -0 0 -1
    outer loop
      vertex 70 30 60
      vertex 37.5 10 60
      vertex 37.5 30 60
    endloop
  endfacet
  facet normal 0 0 -1
    outer loop
      vertex 0 10 60
      vertex 12.5 30 60
      vertex 12.5 10 60
    endloop
  endfacet
  facet normal -0 0 -1
    outer loop
      vertex 12.5 30 60
      vertex 0 10 60
      vertex 0 30 60
    endloop
  endfacet
  facet normal -1 0 0
    outer loop
      vertex 0 10 60
      vertex 0 30 70
      vertex 0 30 60
    endloop
  endfacet
  facet normal -1 -0 0
    outer loop
      vertex 0 30 70
      vertex 0 10 60
      vertex 0 10 70
    endloop
  endfacet
  facet normal 0 -1 0
    outer loop
      vertex 0 10 60
      vertex 12.5 10 70
      vertex 0 10 70
    endloop
  endfacet
  facet normal 0 -1 -0
    outer loop
      vertex 12.5 10 70
      vertex 0 10 60
      vertex 12.5 10 60
    endloop
  endfacet
  facet normal 0 -1 0
    outer loop
      vertex 37.5 10 60
      vertex 70 10 70
      vertex 37.5 10 70
    endloop
  endfacet
  facet normal 0 -1 -0
    outer loop
      vertex 70 10 70
      vertex 37.5 10 60
      vertex 70 10 60
    endloop
  endfacet
endsolid OpenSCAD_Model
