solid OpenSCAD_Model
  facet normal 1 -0 0
    outer loop
      vertex 25 -25 2.5
      vertex 25 25 -2.5
      vertex 25 25 2.5
    endloop
  endfacet
  facet normal 1 0 0
    outer loop
      vertex 25 25 -2.5
      vertex 25 -25 2.5
      vertex 25 -25 -2.5
    endloop
  endfacet
  facet normal 0 0 1
    outer loop
      vertex 25 25 2.5
      vertex 20 0 2.5
      vertex 25 -25 2.5
    endloop
  endfacet
  facet normal 0 0 1
    outer loop
      vertex 25 25 2.5
      vertex 19.9605 1.25581 2.5
      vertex 20 0 2.5
    endloop
  endfacet
  facet normal 0 0 1
    outer loop
      vertex 25 25 2.5
      vertex 19.8423 2.50666 2.5
      vertex 19.9605 1.25581 2.5
    endloop
  endfacet
  facet normal 0 0 1
    outer loop
      vertex 25 25 2.5
      vertex 19.6457 3.74763 2.5
      vertex 19.8423 2.50666 2.5
    endloop
  endfacet
  facet normal 0 0 1
    outer loop
      vertex 25 25 2.5
      vertex 19.3717 4.9738 2.5
      vertex 19.6457 3.74763 2.5
    endloop
  endfacet
  facet normal 0 0 1
    outer loop
      vertex 25 25 2.5
      vertex 19.0211 6.18034 2.5
      vertex 19.3717 4.9738 2.5
    endloop
  endfacet
  facet normal 0 0 1
    outer loop
      vertex 25 25 2.5
      vertex 18.5955 7.36249 2.5
      vertex 19.0211 6.18034 2.5
    endloop
  endfacet
  facet normal 0 0 1
    outer loop
      vertex 25 25 2.5
      vertex 18.0965 8.51558 2.5
      vertex 18.5955 7.36249 2.5
    endloop
  endfacet
  facet normal 0 0 1
    outer loop
      vertex 25 25 2.5
      vertex 17.5261 9.63507 2.5
      vertex 18.0965 8.51558 2.5
    endloop
  endfacet
  facet normal 0 0 1
    outer loop
      vertex 25 25 2.5
      vertex 16.8866 10.7165 2.5
      vertex 17.5261 9.63507 2.5
    endloop
  endfacet
  facet normal 0 0 1
    outer loop
      vertex 25 25 2.5
      vertex 16.1803 11.7557 2.5
      vertex 16.8866 10.7165 2.5
    endloop
  endfacet
  facet normal 0 0 1
    outer loop
      vertex 25 25 2.5
      vertex 15.4103 12.7485 2.5
      vertex 16.1803 11.7557 2.5
    endloop
  endfacet
  facet normal 0 0 1
    outer loop
      vertex 25 25 2.5
      vertex 14.5794 13.6909 2.5
      vertex 15.4103 12.7485 2.5
    endloop
  endfacet
  facet normal 0 0 1
    outer loop
      vertex 25 25 2.5
      vertex 13.6909 14.5794 2.5
      vertex 14.5794 13.6909 2.5
    endloop
  endfacet
  facet normal 0 0 1
    outer loop
      vertex 25 25 2.5
      vertex 12.7485 15.4103 2.5
      vertex 13.6909 14.5794 2.5
    endloop
  endfacet
  facet normal 0 0 1
    outer loop
      vertex 25 25 2.5
      vertex 11.7557 16.1803 2.5
      vertex 12.7485 15.4103 2.5
    endloop
  endfacet
  facet normal 0 0 1
    outer loop
      vertex 25 25 2.5
      vertex 10.7165 16.8866 2.5
      vertex 11.7557 16.1803 2.5
    endloop
  endfacet
  facet normal 0 0 1
    outer loop
      vertex 25 25 2.5
      vertex 9.63507 17.5261 2.5
      vertex 10.7165 16.8866 2.5
    endloop
  endfacet
  facet normal 0 0 1
    outer loop
      vertex 25 25 2.5
      vertex 8.51558 18.0965 2.5
      vertex 9.63507 17.5261 2.5
    endloop
  endfacet
  facet normal 0 0 1
    outer loop
      vertex 25 25 2.5
      vertex 7.36249 18.5955 2.5
      vertex 8.51558 18.0965 2.5
    endloop
  endfacet
  facet normal 0 0 1
    outer loop
      vertex 25 25 2.5
      vertex 6.18034 19.0211 2.5
      vertex 7.36249 18.5955 2.5
    endloop
  endfacet
  facet normal 0 0 1
    outer loop
      vertex 25 25 2.5
      vertex 4.9738 19.3717 2.5
      vertex 6.18034 19.0211 2.5
    endloop
  endfacet
  facet normal 0 0 1
    outer loop
      vertex 25 25 2.5
      vertex 3.74763 19.6457 2.5
      vertex 4.9738 19.3717 2.5
    endloop
  endfacet
  facet normal 0 0 1
    outer loop
      vertex 25 25 2.5
      vertex 2.50666 19.8423 2.5
      vertex 3.74763 19.6457 2.5
    endloop
  endfacet
  facet normal 0 0 1
    outer loop
      vertex 25 25 2.5
      vertex 1.25581 19.9605 2.5
      vertex 2.50666 19.8423 2.5
    endloop
  endfacet
  facet normal 0 0 1
    outer loop
      vertex 25 25 2.5
      vertex 0 20 2.5
      vertex 1.25581 19.9605 2.5
    endloop
  endfacet
  facet normal -0 0 1
    outer loop
      vertex -25 25 2.5
      vertex 0 20 2.5
      vertex 25 25 2.5
    endloop
  endfacet
  facet normal 0 0 1
    outer loop
      vertex 0 20 2.5
      vertex -25 25 2.5
      vertex -1.25581 19.9605 2.5
    endloop
  endfacet
  facet normal 0 0 1
    outer loop
      vertex -1.25581 19.9605 2.5
      vertex -25 25 2.5
      vertex -2.50666 19.8423 2.5
    endloop
  endfacet
  facet normal 0 0 1
    outer loop
      vertex -19.9605 1.25581 2.5
      vertex -25 25 2.5
      vertex -20 0 2.5
    endloop
  endfacet
  facet normal 0 0 1
    outer loop
      vertex -19.8423 2.50666 2.5
      vertex -25 25 2.5
      vertex -19.9605 1.25581 2.5
    endloop
  endfacet
  facet normal 0 0 1
    outer loop
      vertex -19.6457 3.74763 2.5
      vertex -25 25 2.5
      vertex -19.8423 2.50666 2.5
    endloop
  endfacet
  facet normal 0 0 1
    outer loop
      vertex -19.3717 4.9738 2.5
      vertex -25 25 2.5
      vertex -19.6457 3.74763 2.5
    endloop
  endfacet
  facet normal 0 0 1
    outer loop
      vertex -19.0211 6.18034 2.5
      vertex -25 25 2.5
      vertex -19.3717 4.9738 2.5
    endloop
  endfacet
  facet normal 0 0 1
    outer loop
      vertex -18.5955 7.36249 2.5
      vertex -25 25 2.5
      vertex -19.0211 6.18034 2.5
    endloop
  endfacet
  facet normal 0 0 1
    outer loop
      vertex -18.0965 8.51558 2.5
      vertex -25 25 2.5
      vertex -18.5955 7.36249 2.5
    endloop
  endfacet
  facet normal 0 0 1
    outer loop
      vertex -17.5261 9.63507 2.5
      vertex -25 25 2.5
      vertex -18.0965 8.51558 2.5
    endloop
  endfacet
  facet normal 0 0 1
    outer loop
      vertex -16.8866 10.7165 2.5
      vertex -25 25 2.5
      vertex -17.5261 9.63507 2.5
    endloop
  endfacet
  facet normal 0 0 1
    outer loop
      vertex -16.1803 11.7557 2.5
      vertex -25 25 2.5
      vertex -16.8866 10.7165 2.5
    endloop
  endfacet
  facet normal 0 0 1
    outer loop
      vertex -15.4103 12.7485 2.5
      vertex -25 25 2.5
      vertex -16.1803 11.7557 2.5
    endloop
  endfacet
  facet normal 0 0 1
    outer loop
      vertex -14.5794 13.6909 2.5
      vertex -25 25 2.5
      vertex -15.4103 12.7485 2.5
    endloop
  endfacet
  facet normal 0 0 1
    outer loop
      vertex -13.6909 14.5794 2.5
      vertex -25 25 2.5
      vertex -14.5794 13.6909 2.5
    endloop
  endfacet
  facet normal 0 0 1
    outer loop
      vertex -12.7485 15.4103 2.5
      vertex -25 25 2.5
      vertex -13.6909 14.5794 2.5
    endloop
  endfacet
  facet normal 0 0 1
    outer loop
      vertex -11.7557 16.1803 2.5
      vertex -25 25 2.5
      vertex -12.7485 15.4103 2.5
    endloop
  endfacet
  facet normal 0 0 1
    outer loop
      vertex -10.7165 16.8866 2.5
      vertex -25 25 2.5
      vertex -11.7557 16.1803 2.5
    endloop
  endfacet
  facet normal 0 0 1
    outer loop
      vertex -9.63507 17.5261 2.5
      vertex -25 25 2.5
      vertex -10.7165 16.8866 2.5
    endloop
  endfacet
  facet normal 0 0 1
    outer loop
      vertex -8.51558 18.0965 2.5
      vertex -25 25 2.5
      vertex -9.63507 17.5261 2.5
    endloop
  endfacet
  facet normal 0 0 1
    outer loop
      vertex -7.36249 18.5955 2.5
      vertex -25 25 2.5
      vertex -8.51558 18.0965 2.5
    endloop
  endfacet
  facet normal 0 0 1
    outer loop
      vertex -6.18034 19.0211 2.5
      vertex -25 25 2.5
      vertex -7.36249 18.5955 2.5
    endloop
  endfacet
  facet normal 0 0 1
    outer loop
      vertex -4.9738 19.3717 2.5
      vertex -25 25 2.5
      vertex -6.18034 19.0211 2.5
    endloop
  endfacet
  facet normal 0 0 1
    outer loop
      vertex -3.74763 19.6457 2.5
      vertex -25 25 2.5
      vertex -4.9738 19.3717 2.5
    endloop
  endfacet
  facet normal 0 0 1
    outer loop
      vertex -2.50666 19.8423 2.5
      vertex -25 25 2.5
      vertex -3.74763 19.6457 2.5
    endloop
  endfacet
  facet normal -0 0 1
    outer loop
      vertex 19.9605 -1.25581 2.5
      vertex 25 -25 2.5
      vertex 20 0 2.5
    endloop
  endfacet
  facet normal -0 0 1
    outer loop
      vertex 19.8423 -2.50666 2.5
      vertex 25 -25 2.5
      vertex 19.9605 -1.25581 2.5
    endloop
  endfacet
  facet normal -0 0 1
    outer loop
      vertex 19.6457 -3.74763 2.5
      vertex 25 -25 2.5
      vertex 19.8423 -2.50666 2.5
    endloop
  endfacet
  facet normal -0 0 1
    outer loop
      vertex 19.3717 -4.9738 2.5
      vertex 25 -25 2.5
      vertex 19.6457 -3.74763 2.5
    endloop
  endfacet
  facet normal -0 0 1
    outer loop
      vertex 19.0211 -6.18034 2.5
      vertex 25 -25 2.5
      vertex 19.3717 -4.9738 2.5
    endloop
  endfacet
  facet normal -0 0 1
    outer loop
      vertex 18.5955 -7.36249 2.5
      vertex 25 -25 2.5
      vertex 19.0211 -6.18034 2.5
    endloop
  endfacet
  facet normal -0 0 1
    outer loop
      vertex 18.0965 -8.51558 2.5
      vertex 25 -25 2.5
      vertex 18.5955 -7.36249 2.5
    endloop
  endfacet
  facet normal -0 0 1
    outer loop
      vertex 17.5261 -9.63507 2.5
      vertex 25 -25 2.5
      vertex 18.0965 -8.51558 2.5
    endloop
  endfacet
  facet normal -0 0 1
    outer loop
      vertex 16.8866 -10.7165 2.5
      vertex 25 -25 2.5
      vertex 17.5261 -9.63507 2.5
    endloop
  endfacet
  facet normal -0 0 1
    outer loop
      vertex 16.1803 -11.7557 2.5
      vertex 25 -25 2.5
      vertex 16.8866 -10.7165 2.5
    endloop
  endfacet
  facet normal -0 0 1
    outer loop
      vertex 15.4103 -12.7485 2.5
      vertex 25 -25 2.5
      vertex 16.1803 -11.7557 2.5
    endloop
  endfacet
  facet normal -0 0 1
    outer loop
      vertex 14.5794 -13.6909 2.5
      vertex 25 -25 2.5
      vertex 15.4103 -12.7485 2.5
    endloop
  endfacet
  facet normal -0 0 1
    outer loop
      vertex 13.6909 -14.5794 2.5
      vertex 25 -25 2.5
      vertex 14.5794 -13.6909 2.5
    endloop
  endfacet
  facet normal -0 0 1
    outer loop
      vertex 12.7485 -15.4103 2.5
      vertex 25 -25 2.5
      vertex 13.6909 -14.5794 2.5
    endloop
  endfacet
  facet normal -0 0 1
    outer loop
      vertex 11.7557 -16.1803 2.5
      vertex 25 -25 2.5
      vertex 12.7485 -15.4103 2.5
    endloop
  endfacet
  facet normal -0 0 1
    outer loop
      vertex 10.7165 -16.8866 2.5
      vertex 25 -25 2.5
      vertex 11.7557 -16.1803 2.5
    endloop
  endfacet
  facet normal -0 0 1
    outer loop
      vertex 9.63507 -17.5261 2.5
      vertex 25 -25 2.5
      vertex 10.7165 -16.8866 2.5
    endloop
  endfacet
  facet normal -0 0 1
    outer loop
      vertex 8.51558 -18.0965 2.5
      vertex 25 -25 2.5
      vertex 9.63507 -17.5261 2.5
    endloop
  endfacet
  facet normal -0 0 1
    outer loop
      vertex 7.36249 -18.5955 2.5
      vertex 25 -25 2.5
      vertex 8.51558 -18.0965 2.5
    endloop
  endfacet
  facet normal -0 0 1
    outer loop
      vertex 6.18034 -19.0211 2.5
      vertex 25 -25 2.5
      vertex 7.36249 -18.5955 2.5
    endloop
  endfacet
  facet normal -0 0 1
    outer loop
      vertex 4.9738 -19.3717 2.5
      vertex 25 -25 2.5
      vertex 6.18034 -19.0211 2.5
    endloop
  endfacet
  facet normal -0 0 1
    outer loop
      vertex 3.74763 -19.6457 2.5
      vertex 25 -25 2.5
      vertex 4.9738 -19.3717 2.5
    endloop
  endfacet
  facet normal -0 0 1
    outer loop
      vertex 2.50666 -19.8423 2.5
      vertex 25 -25 2.5
      vertex 3.74763 -19.6457 2.5
    endloop
  endfacet
  facet normal -0 0 1
    outer loop
      vertex 1.25581 -19.9605 2.5
      vertex 25 -25 2.5
      vertex 2.50666 -19.8423 2.5
    endloop
  endfacet
  facet normal -0 0 1
    outer loop
      vertex 0 -20 2.5
      vertex 25 -25 2.5
      vertex 1.25581 -19.9605 2.5
    endloop
  endfacet
  facet normal 0 0 1
    outer loop
      vertex -25 -25 2.5
      vertex 0 -20 2.5
      vertex -1.25581 -19.9605 2.5
    endloop
  endfacet
  facet normal 0 0 1
    outer loop
      vertex -25 -25 2.5
      vertex -1.25581 -19.9605 2.5
      vertex -2.50666 -19.8423 2.5
    endloop
  endfacet
  facet normal 0 0 1
    outer loop
      vertex -25 -25 2.5
      vertex -2.50666 -19.8423 2.5
      vertex -3.74763 -19.6457 2.5
    endloop
  endfacet
  facet normal 0 0 1
    outer loop
      vertex -25 -25 2.5
      vertex -20 0 2.5
      vertex -25 25 2.5
    endloop
  endfacet
  facet normal 0 0 1
    outer loop
      vertex -20 0 2.5
      vertex -25 -25 2.5
      vertex -19.9605 -1.25581 2.5
    endloop
  endfacet
  facet normal 0 0 1
    outer loop
      vertex -19.9605 -1.25581 2.5
      vertex -25 -25 2.5
      vertex -19.8423 -2.50666 2.5
    endloop
  endfacet
  facet normal 0 0 1
    outer loop
      vertex 0 -20 2.5
      vertex -25 -25 2.5
      vertex 25 -25 2.5
    endloop
  endfacet
  facet normal 0 0 1
    outer loop
      vertex -4.9738 -19.3717 2.5
      vertex -25 -25 2.5
      vertex -3.74763 -19.6457 2.5
    endloop
  endfacet
  facet normal 0 0 1
    outer loop
      vertex -6.18034 -19.0211 2.5
      vertex -25 -25 2.5
      vertex -4.9738 -19.3717 2.5
    endloop
  endfacet
  facet normal 0 0 1
    outer loop
      vertex -7.36249 -18.5955 2.5
      vertex -25 -25 2.5
      vertex -6.18034 -19.0211 2.5
    endloop
  endfacet
  facet normal 0 0 1
    outer loop
      vertex -8.51558 -18.0965 2.5
      vertex -25 -25 2.5
      vertex -7.36249 -18.5955 2.5
    endloop
  endfacet
  facet normal 0 0 1
    outer loop
      vertex -9.63507 -17.5261 2.5
      vertex -25 -25 2.5
      vertex -8.51558 -18.0965 2.5
    endloop
  endfacet
  facet normal 0 0 1
    outer loop
      vertex -10.7165 -16.8866 2.5
      vertex -25 -25 2.5
      vertex -9.63507 -17.5261 2.5
    endloop
  endfacet
  facet normal 0 0 1
    outer loop
      vertex -11.7557 -16.1803 2.5
      vertex -25 -25 2.5
      vertex -10.7165 -16.8866 2.5
    endloop
  endfacet
  facet normal 0 0 1
    outer loop
      vertex -12.7485 -15.4103 2.5
      vertex -25 -25 2.5
      vertex -11.7557 -16.1803 2.5
    endloop
  endfacet
  facet normal 0 0 1
    outer loop
      vertex -13.6909 -14.5794 2.5
      vertex -25 -25 2.5
      vertex -12.7485 -15.4103 2.5
    endloop
  endfacet
  facet normal 0 0 1
    outer loop
      vertex -14.5794 -13.6909 2.5
      vertex -25 -25 2.5
      vertex -13.6909 -14.5794 2.5
    endloop
  endfacet
  facet normal 0 0 1
    outer loop
      vertex -15.4103 -12.7485 2.5
      vertex -25 -25 2.5
      vertex -14.5794 -13.6909 2.5
    endloop
  endfacet
  facet normal 0 0 1
    outer loop
      vertex -16.1803 -11.7557 2.5
      vertex -25 -25 2.5
      vertex -15.4103 -12.7485 2.5
    endloop
  endfacet
  facet normal 0 0 1
    outer loop
      vertex -16.8866 -10.7165 2.5
      vertex -25 -25 2.5
      vertex -16.1803 -11.7557 2.5
    endloop
  endfacet
  facet normal 0 0 1
    outer loop
      vertex -17.5261 -9.63507 2.5
      vertex -25 -25 2.5
      vertex -16.8866 -10.7165 2.5
    endloop
  endfacet
  facet normal 0 0 1
    outer loop
      vertex -18.0965 -8.51558 2.5
      vertex -25 -25 2.5
      vertex -17.5261 -9.63507 2.5
    endloop
  endfacet
  facet normal 0 0 1
    outer loop
      vertex -18.5955 -7.36249 2.5
      vertex -25 -25 2.5
      vertex -18.0965 -8.51558 2.5
    endloop
  endfacet
  facet normal 0 0 1
    outer loop
      vertex -19.0211 -6.18034 2.5
      vertex -25 -25 2.5
      vertex -18.5955 -7.36249 2.5
    endloop
  endfacet
  facet normal 0 0 1
    outer loop
      vertex -19.3717 -4.9738 2.5
      vertex -25 -25 2.5
      vertex -19.0211 -6.18034 2.5
    endloop
  endfacet
  facet normal 0 0 1
    outer loop
      vertex -19.6457 -3.74763 2.5
      vertex -25 -25 2.5
      vertex -19.3717 -4.9738 2.5
    endloop
  endfacet
  facet normal 0 0 1
    outer loop
      vertex -19.8423 -2.50666 2.5
      vertex -25 -25 2.5
      vertex -19.6457 -3.74763 2.5
    endloop
  endfacet
  facet normal 0 0 -1
    outer loop
      vertex 25 -25 -2.5
      vertex 20 0 -2.5
      vertex 25 25 -2.5
    endloop
  endfacet
  facet normal 0 0 -1
    outer loop
      vertex 25 -25 -2.5
      vertex 19.9605 -1.25581 -2.5
      vertex 20 0 -2.5
    endloop
  endfacet
  facet normal 0 0 -1
    outer loop
      vertex 25 -25 -2.5
      vertex 19.8423 -2.50666 -2.5
      vertex 19.9605 -1.25581 -2.5
    endloop
  endfacet
  facet normal 0 0 -1
    outer loop
      vertex 25 -25 -2.5
      vertex 19.6457 -3.74763 -2.5
      vertex 19.8423 -2.50666 -2.5
    endloop
  endfacet
  facet normal 0 0 -1
    outer loop
      vertex 25 -25 -2.5
      vertex 19.3717 -4.9738 -2.5
      vertex 19.6457 -3.74763 -2.5
    endloop
  endfacet
  facet normal 0 0 -1
    outer loop
      vertex 25 -25 -2.5
      vertex 19.0211 -6.18034 -2.5
      vertex 19.3717 -4.9738 -2.5
    endloop
  endfacet
  facet normal 0 0 -1
    outer loop
      vertex 25 -25 -2.5
      vertex 18.5955 -7.36249 -2.5
      vertex 19.0211 -6.18034 -2.5
    endloop
  endfacet
  facet normal 0 0 -1
    outer loop
      vertex 25 -25 -2.5
      vertex 18.0965 -8.51558 -2.5
      vertex 18.5955 -7.36249 -2.5
    endloop
  endfacet
  facet normal 0 0 -1
    outer loop
      vertex 25 -25 -2.5
      vertex 17.5261 -9.63507 -2.5
      vertex 18.0965 -8.51558 -2.5
    endloop
  endfacet
  facet normal 0 0 -1
    outer loop
      vertex 25 -25 -2.5
      vertex 16.8866 -10.7165 -2.5
      vertex 17.5261 -9.63507 -2.5
    endloop
  endfacet
  facet normal 0 0 -1
    outer loop
      vertex 25 -25 -2.5
      vertex 16.1803 -11.7557 -2.5
      vertex 16.8866 -10.7165 -2.5
    endloop
  endfacet
  facet normal 0 0 -1
    outer loop
      vertex 25 -25 -2.5
      vertex 15.4103 -12.7485 -2.5
      vertex 16.1803 -11.7557 -2.5
    endloop
  endfacet
  facet normal 0 0 -1
    outer loop
      vertex 25 -25 -2.5
      vertex 14.5794 -13.6909 -2.5
      vertex 15.4103 -12.7485 -2.5
    endloop
  endfacet
  facet normal 0 0 -1
    outer loop
      vertex 25 -25 -2.5
      vertex 13.6909 -14.5794 -2.5
      vertex 14.5794 -13.6909 -2.5
    endloop
  endfacet
  facet normal 0 0 -1
    outer loop
      vertex 25 -25 -2.5
      vertex 12.7485 -15.4103 -2.5
      vertex 13.6909 -14.5794 -2.5
    endloop
  endfacet
  facet normal 0 0 -1
    outer loop
      vertex 25 -25 -2.5
      vertex 11.7557 -16.1803 -2.5
      vertex 12.7485 -15.4103 -2.5
    endloop
  endfacet
  facet normal 0 0 -1
    outer loop
      vertex 25 -25 -2.5
      vertex 10.7165 -16.8866 -2.5
      vertex 11.7557 -16.1803 -2.5
    endloop
  endfacet
  facet normal 0 0 -1
    outer loop
      vertex 25 -25 -2.5
      vertex 9.63507 -17.5261 -2.5
      vertex 10.7165 -16.8866 -2.5
    endloop
  endfacet
  facet normal 0 0 -1
    outer loop
      vertex 25 -25 -2.5
      vertex 8.51558 -18.0965 -2.5
      vertex 9.63507 -17.5261 -2.5
    endloop
  endfacet
  facet normal 0 0 -1
    outer loop
      vertex 25 -25 -2.5
      vertex 7.36249 -18.5955 -2.5
      vertex 8.51558 -18.0965 -2.5
    endloop
  endfacet
  facet normal 0 0 -1
    outer loop
      vertex 25 -25 -2.5
      vertex 6.18034 -19.0211 -2.5
      vertex 7.36249 -18.5955 -2.5
    endloop
  endfacet
  facet normal 0 0 -1
    outer loop
      vertex 25 -25 -2.5
      vertex 4.9738 -19.3717 -2.5
      vertex 6.18034 -19.0211 -2.5
    endloop
  endfacet
  facet normal 0 0 -1
    outer loop
      vertex 25 -25 -2.5
      vertex 3.74763 -19.6457 -2.5
      vertex 4.9738 -19.3717 -2.5
    endloop
  endfacet
  facet normal 0 0 -1
    outer loop
      vertex 25 -25 -2.5
      vertex 2.50666 -19.8423 -2.5
      vertex 3.74763 -19.6457 -2.5
    endloop
  endfacet
  facet normal 0 0 -1
    outer loop
      vertex 25 -25 -2.5
      vertex 1.25581 -19.9605 -2.5
      vertex 2.50666 -19.8423 -2.5
    endloop
  endfacet
  facet normal 0 0 -1
    outer loop
      vertex 25 -25 -2.5
      vertex 0 -20 -2.5
      vertex 1.25581 -19.9605 -2.5
    endloop
  endfacet
  facet normal 0 0 -1
    outer loop
      vertex -25 -25 -2.5
      vertex 0 -20 -2.5
      vertex 25 -25 -2.5
    endloop
  endfacet
  facet normal -0 0 -1
    outer loop
      vertex 0 -20 -2.5
      vertex -25 -25 -2.5
      vertex -1.25581 -19.9605 -2.5
    endloop
  endfacet
  facet normal -0 0 -1
    outer loop
      vertex -1.25581 -19.9605 -2.5
      vertex -25 -25 -2.5
      vertex -2.50666 -19.8423 -2.5
    endloop
  endfacet
  facet normal -0 0 -1
    outer loop
      vertex -19.9605 -1.25581 -2.5
      vertex -25 -25 -2.5
      vertex -20 0 -2.5
    endloop
  endfacet
  facet normal -0 0 -1
    outer loop
      vertex -19.8423 -2.50666 -2.5
      vertex -25 -25 -2.5
      vertex -19.9605 -1.25581 -2.5
    endloop
  endfacet
  facet normal -0 0 -1
    outer loop
      vertex -19.6457 -3.74763 -2.5
      vertex -25 -25 -2.5
      vertex -19.8423 -2.50666 -2.5
    endloop
  endfacet
  facet normal -0 0 -1
    outer loop
      vertex -19.3717 -4.9738 -2.5
      vertex -25 -25 -2.5
      vertex -19.6457 -3.74763 -2.5
    endloop
  endfacet
  facet normal -0 0 -1
    outer loop
      vertex -19.0211 -6.18034 -2.5
      vertex -25 -25 -2.5
      vertex -19.3717 -4.9738 -2.5
    endloop
  endfacet
  facet normal -0 0 -1
    outer loop
      vertex -18.5955 -7.36249 -2.5
      vertex -25 -25 -2.5
      vertex -19.0211 -6.18034 -2.5
    endloop
  endfacet
  facet normal -0 0 -1
    outer loop
      vertex -18.0965 -8.51558 -2.5
      vertex -25 -25 -2.5
      vertex -18.5955 -7.36249 -2.5
    endloop
  endfacet
  facet normal -0 0 -1
    outer loop
      vertex -17.5261 -9.63507 -2.5
      vertex -25 -25 -2.5
      vertex -18.0965 -8.51558 -2.5
    endloop
  endfacet
  facet normal -0 0 -1
    outer loop
      vertex -16.8866 -10.7165 -2.5
      vertex -25 -25 -2.5
      vertex -17.5261 -9.63507 -2.5
    endloop
  endfacet
  facet normal -0 0 -1
    outer loop
      vertex -16.1803 -11.7557 -2.5
      vertex -25 -25 -2.5
      vertex -16.8866 -10.7165 -2.5
    endloop
  endfacet
  facet normal -0 0 -1
    outer loop
      vertex -15.4103 -12.7485 -2.5
      vertex -25 -25 -2.5
      vertex -16.1803 -11.7557 -2.5
    endloop
  endfacet
  facet normal -0 0 -1
    outer loop
      vertex -14.5794 -13.6909 -2.5
      vertex -25 -25 -2.5
      vertex -15.4103 -12.7485 -2.5
    endloop
  endfacet
  facet normal -0 0 -1
    outer loop
      vertex -13.6909 -14.5794 -2.5
      vertex -25 -25 -2.5
      vertex -14.5794 -13.6909 -2.5
    endloop
  endfacet
  facet normal -0 0 -1
    outer loop
      vertex -12.7485 -15.4103 -2.5
      vertex -25 -25 -2.5
      vertex -13.6909 -14.5794 -2.5
    endloop
  endfacet
  facet normal -0 0 -1
    outer loop
      vertex -11.7557 -16.1803 -2.5
      vertex -25 -25 -2.5
      vertex -12.7485 -15.4103 -2.5
    endloop
  endfacet
  facet normal -0 0 -1
    outer loop
      vertex -10.7165 -16.8866 -2.5
      vertex -25 -25 -2.5
      vertex -11.7557 -16.1803 -2.5
    endloop
  endfacet
  facet normal -0 0 -1
    outer loop
      vertex -9.63507 -17.5261 -2.5
      vertex -25 -25 -2.5
      vertex -10.7165 -16.8866 -2.5
    endloop
  endfacet
  facet normal -0 0 -1
    outer loop
      vertex -8.51558 -18.0965 -2.5
      vertex -25 -25 -2.5
      vertex -9.63507 -17.5261 -2.5
    endloop
  endfacet
  facet normal -0 0 -1
    outer loop
      vertex -7.36249 -18.5955 -2.5
      vertex -25 -25 -2.5
      vertex -8.51558 -18.0965 -2.5
    endloop
  endfacet
  facet normal -0 0 -1
    outer loop
      vertex -6.18034 -19.0211 -2.5
      vertex -25 -25 -2.5
      vertex -7.36249 -18.5955 -2.5
    endloop
  endfacet
  facet normal -0 0 -1
    outer loop
      vertex -4.9738 -19.3717 -2.5
      vertex -25 -25 -2.5
      vertex -6.18034 -19.0211 -2.5
    endloop
  endfacet
  facet normal -0 0 -1
    outer loop
      vertex -3.74763 -19.6457 -2.5
      vertex -25 -25 -2.5
      vertex -4.9738 -19.3717 -2.5
    endloop
  endfacet
  facet normal -0 0 -1
    outer loop
      vertex -2.50666 -19.8423 -2.5
      vertex -25 -25 -2.5
      vertex -3.74763 -19.6457 -2.5
    endloop
  endfacet
  facet normal 0 0 -1
    outer loop
      vertex 19.9605 1.25581 -2.5
      vertex 25 25 -2.5
      vertex 20 0 -2.5
    endloop
  endfacet
  facet normal 0 0 -1
    outer loop
      vertex 19.8423 2.50666 -2.5
      vertex 25 25 -2.5
      vertex 19.9605 1.25581 -2.5
    endloop
  endfacet
  facet normal 0 0 -1
    outer loop
      vertex 19.6457 3.74763 -2.5
      vertex 25 25 -2.5
      vertex 19.8423 2.50666 -2.5
    endloop
  endfacet
  facet normal 0 0 -1
    outer loop
      vertex 19.3717 4.9738 -2.5
      vertex 25 25 -2.5
      vertex 19.6457 3.74763 -2.5
    endloop
  endfacet
  facet normal 0 0 -1
    outer loop
      vertex 19.0211 6.18034 -2.5
      vertex 25 25 -2.5
      vertex 19.3717 4.9738 -2.5
    endloop
  endfacet
  facet normal 0 0 -1
    outer loop
      vertex 18.5955 7.36249 -2.5
      vertex 25 25 -2.5
      vertex 19.0211 6.18034 -2.5
    endloop
  endfacet
  facet normal 0 0 -1
    outer loop
      vertex 18.0965 8.51558 -2.5
      vertex 25 25 -2.5
      vertex 18.5955 7.36249 -2.5
    endloop
  endfacet
  facet normal 0 0 -1
    outer loop
      vertex 17.5261 9.63507 -2.5
      vertex 25 25 -2.5
      vertex 18.0965 8.51558 -2.5
    endloop
  endfacet
  facet normal 0 0 -1
    outer loop
      vertex 16.8866 10.7165 -2.5
      vertex 25 25 -2.5
      vertex 17.5261 9.63507 -2.5
    endloop
  endfacet
  facet normal 0 0 -1
    outer loop
      vertex 16.1803 11.7557 -2.5
      vertex 25 25 -2.5
      vertex 16.8866 10.7165 -2.5
    endloop
  endfacet
  facet normal 0 0 -1
    outer loop
      vertex 15.4103 12.7485 -2.5
      vertex 25 25 -2.5
      vertex 16.1803 11.7557 -2.5
    endloop
  endfacet
  facet normal 0 0 -1
    outer loop
      vertex 14.5794 13.6909 -2.5
      vertex 25 25 -2.5
      vertex 15.4103 12.7485 -2.5
    endloop
  endfacet
  facet normal 0 0 -1
    outer loop
      vertex 13.6909 14.5794 -2.5
      vertex 25 25 -2.5
      vertex 14.5794 13.6909 -2.5
    endloop
  endfacet
  facet normal 0 0 -1
    outer loop
      vertex 12.7485 15.4103 -2.5
      vertex 25 25 -2.5
      vertex 13.6909 14.5794 -2.5
    endloop
  endfacet
  facet normal 0 0 -1
    outer loop
      vertex 11.7557 16.1803 -2.5
      vertex 25 25 -2.5
      vertex 12.7485 15.4103 -2.5
    endloop
  endfacet
  facet normal 0 0 -1
    outer loop
      vertex 10.7165 16.8866 -2.5
      vertex 25 25 -2.5
      vertex 11.7557 16.1803 -2.5
    endloop
  endfacet
  facet normal 0 0 -1
    outer loop
      vertex 9.63507 17.5261 -2.5
      vertex 25 25 -2.5
      vertex 10.7165 16.8866 -2.5
    endloop
  endfacet
  facet normal 0 0 -1
    outer loop
      vertex 8.51558 18.0965 -2.5
      vertex 25 25 -2.5
      vertex 9.63507 17.5261 -2.5
    endloop
  endfacet
  facet normal 0 0 -1
    outer loop
      vertex 7.36249 18.5955 -2.5
      vertex 25 25 -2.5
      vertex 8.51558 18.0965 -2.5
    endloop
  endfacet
  facet normal 0 0 -1
    outer loop
      vertex 6.18034 19.0211 -2.5
      vertex 25 25 -2.5
      vertex 7.36249 18.5955 -2.5
    endloop
  endfacet
  facet normal 0 0 -1
    outer loop
      vertex 4.9738 19.3717 -2.5
      vertex 25 25 -2.5
      vertex 6.18034 19.0211 -2.5
    endloop
  endfacet
  facet normal 0 0 -1
    outer loop
      vertex 3.74763 19.6457 -2.5
      vertex 25 25 -2.5
      vertex 4.9738 19.3717 -2.5
    endloop
  endfacet
  facet normal 0 0 -1
    outer loop
      vertex 2.50666 19.8423 -2.5
      vertex 25 25 -2.5
      vertex 3.74763 19.6457 -2.5
    endloop
  endfacet
  facet normal 0 0 -1
    outer loop
      vertex 1.25581 19.9605 -2.5
      vertex 25 25 -2.5
      vertex 2.50666 19.8423 -2.5
    endloop
  endfacet
  facet normal 0 0 -1
    outer loop
      vertex 0 20 -2.5
      vertex 25 25 -2.5
      vertex 1.25581 19.9605 -2.5
    endloop
  endfacet
  facet normal 0 0 -1
    outer loop
      vertex -25 25 -2.5
      vertex 0 20 -2.5
      vertex -1.25581 19.9605 -2.5
    endloop
  endfacet
  facet normal 0 0 -1
    outer loop
      vertex -25 25 -2.5
      vertex -1.25581 19.9605 -2.5
      vertex -2.50666 19.8423 -2.5
    endloop
  endfacet
  facet normal 0 0 -1
    outer loop
      vertex -25 25 -2.5
      vertex -2.50666 19.8423 -2.5
      vertex -3.74763 19.6457 -2.5
    endloop
  endfacet
  facet normal 0 0 -1
    outer loop
      vertex -25 25 -2.5
      vertex -20 0 -2.5
      vertex -25 -25 -2.5
    endloop
  endfacet
  facet normal 0 0 -1
    outer loop
      vertex -20 0 -2.5
      vertex -25 25 -2.5
      vertex -19.9605 1.25581 -2.5
    endloop
  endfacet
  facet normal 0 0 -1
    outer loop
      vertex -19.9605 1.25581 -2.5
      vertex -25 25 -2.5
      vertex -19.8423 2.50666 -2.5
    endloop
  endfacet
  facet normal 0 0 -1
    outer loop
      vertex 0 20 -2.5
      vertex -25 25 -2.5
      vertex 25 25 -2.5
    endloop
  endfacet
  facet normal 0 0 -1
    outer loop
      vertex -4.9738 19.3717 -2.5
      vertex -25 25 -2.5
      vertex -3.74763 19.6457 -2.5
    endloop
  endfacet
  facet normal 0 0 -1
    outer loop
      vertex -6.18034 19.0211 -2.5
      vertex -25 25 -2.5
      vertex -4.9738 19.3717 -2.5
    endloop
  endfacet
  facet normal 0 0 -1
    outer loop
      vertex -7.36249 18.5955 -2.5
      vertex -25 25 -2.5
      vertex -6.18034 19.0211 -2.5
    endloop
  endfacet
  facet normal 0 0 -1
    outer loop
      vertex -8.51558 18.0965 -2.5
      vertex -25 25 -2.5
      vertex -7.36249 18.5955 -2.5
    endloop
  endfacet
  facet normal 0 0 -1
    outer loop
      vertex -9.63507 17.5261 -2.5
      vertex -25 25 -2.5
      vertex -8.51558 18.0965 -2.5
    endloop
  endfacet
  facet normal 0 0 -1
    outer loop
      vertex -10.7165 16.8866 -2.5
      vertex -25 25 -2.5
      vertex -9.63507 17.5261 -2.5
    endloop
  endfacet
  facet normal 0 0 -1
    outer loop
      vertex -11.7557 16.1803 -2.5
      vertex -25 25 -2.5
      vertex -10.7165 16.8866 -2.5
    endloop
  endfacet
  facet normal 0 0 -1
    outer loop
      vertex -12.7485 15.4103 -2.5
      vertex -25 25 -2.5
      vertex -11.7557 16.1803 -2.5
    endloop
  endfacet
  facet normal 0 0 -1
    outer loop
      vertex -13.6909 14.5794 -2.5
      vertex -25 25 -2.5
      vertex -12.7485 15.4103 -2.5
    endloop
  endfacet
  facet normal 0 0 -1
    outer loop
      vertex -14.5794 13.6909 -2.5
      vertex -25 25 -2.5
      vertex -13.6909 14.5794 -2.5
    endloop
  endfacet
  facet normal 0 0 -1
    outer loop
      vertex -15.4103 12.7485 -2.5
      vertex -25 25 -2.5
      vertex -14.5794 13.6909 -2.5
    endloop
  endfacet
  facet normal 0 0 -1
    outer loop
      vertex -16.1803 11.7557 -2.5
      vertex -25 25 -2.5
      vertex -15.4103 12.7485 -2.5
    endloop
  endfacet
  facet normal 0 0 -1
    outer loop
      vertex -16.8866 10.7165 -2.5
      vertex -25 25 -2.5
      vertex -16.1803 11.7557 -2.5
    endloop
  endfacet
  facet normal 0 0 -1
    outer loop
      vertex -17.5261 9.63507 -2.5
      vertex -25 25 -2.5
      vertex -16.8866 10.7165 -2.5
    endloop
  endfacet
  facet normal 0 0 -1
    outer loop
      vertex -18.0965 8.51558 -2.5
      vertex -25 25 -2.5
      vertex -17.5261 9.63507 -2.5
    endloop
  endfacet
  facet normal 0 0 -1
    outer loop
      vertex -18.5955 7.36249 -2.5
      vertex -25 25 -2.5
      vertex -18.0965 8.51558 -2.5
    endloop
  endfacet
  facet normal 0 0 -1
    outer loop
      vertex -19.0211 6.18034 -2.5
      vertex -25 25 -2.5
      vertex -18.5955 7.36249 -2.5
    endloop
  endfacet
  facet normal 0 0 -1
    outer loop
      vertex -19.3717 4.9738 -2.5
      vertex -25 25 -2.5
      vertex -19.0211 6.18034 -2.5
    endloop
  endfacet
  facet normal 0 0 -1
    outer loop
      vertex -19.6457 3.74763 -2.5
      vertex -25 25 -2.5
      vertex -19.3717 4.9738 -2.5
    endloop
  endfacet
  facet normal 0 0 -1
    outer loop
      vertex -19.8423 2.50666 -2.5
      vertex -25 25 -2.5
      vertex -19.6457 3.74763 -2.5
    endloop
  endfacet
  facet normal -1 0 0
    outer loop
      vertex -25 -25 -2.5
      vertex -25 25 2.5
      vertex -25 25 -2.5
    endloop
  endfacet
  facet normal -1 -0 0
    outer loop
      vertex -25 25 2.5
      vertex -25 -25 -2.5
      vertex -25 -25 2.5
    endloop
  endfacet
  facet normal 0 1 -0
    outer loop
      vertex 25 25 -2.5
      vertex -25 25 2.5
      vertex 25 25 2.5
    endloop
  endfacet
  facet normal 0 1 0
    outer loop
      vertex -25 25 2.5
      vertex 25 25 -2.5
      vertex -25 25 -2.5
    endloop
  endfacet
  facet normal 0 -1 0
    outer loop
      vertex -25 -25 -2.5
      vertex 25 -25 2.5
      vertex -25 -25 2.5
    endloop
  endfacet
  facet normal 0 -1 -0
    outer loop
      vertex 25 -25 2.5
      vertex -25 -25 -2.5
      vertex 25 -25 -2.5
    endloop
  endfacet
  facet normal 0.750086 -0.66134 0
    outer loop
      vertex -15.4103 12.7485 2.5
      vertex -14.5794 13.6909 -2.5
      vertex -14.5794 13.6909 2.5
    endloop
  endfacet
  facet normal 0.750086 -0.66134 0
    outer loop
      vertex -14.5794 13.6909 -2.5
      vertex -15.4103 12.7485 2.5
      vertex -15.4103 12.7485 -2.5
    endloop
  endfacet
  facet normal -0.995565 -0.0940767 0
    outer loop
      vertex 19.9605 1.25581 -2.5
      vertex 19.8423 2.50666 2.5
      vertex 19.8423 2.50666 -2.5
    endloop
  endfacet
  facet normal -0.995565 -0.0940767 0
    outer loop
      vertex 19.8423 2.50666 2.5
      vertex 19.9605 1.25581 -2.5
      vertex 19.9605 1.25581 2.5
    endloop
  endfacet
  facet normal -0.999506 -0.0314383 0
    outer loop
      vertex 20 0 -2.5
      vertex 19.9605 1.25581 2.5
      vertex 19.9605 1.25581 -2.5
    endloop
  endfacet
  facet normal -0.999506 -0.0314383 0
    outer loop
      vertex 19.9605 1.25581 2.5
      vertex 20 0 -2.5
      vertex 20 0 2.5
    endloop
  endfacet
  facet normal 0.562116 0.827058 -0
    outer loop
      vertex -10.7165 -16.8866 -2.5
      vertex -11.7557 -16.1803 2.5
      vertex -10.7165 -16.8866 2.5
    endloop
  endfacet
  facet normal 0.562116 0.827058 0
    outer loop
      vertex -11.7557 -16.1803 2.5
      vertex -10.7165 -16.8866 -2.5
      vertex -11.7557 -16.1803 -2.5
    endloop
  endfacet
  facet normal -0.0314383 -0.999506 0
    outer loop
      vertex 0 20 -2.5
      vertex 1.25581 19.9605 2.5
      vertex 0 20 2.5
    endloop
  endfacet
  facet normal -0.0314383 -0.999506 -0
    outer loop
      vertex 1.25581 19.9605 2.5
      vertex 0 20 -2.5
      vertex 1.25581 19.9605 -2.5
    endloop
  endfacet
  facet normal -0.562116 -0.827058 0
    outer loop
      vertex 10.7165 16.8866 -2.5
      vertex 11.7557 16.1803 2.5
      vertex 10.7165 16.8866 2.5
    endloop
  endfacet
  facet normal -0.562116 -0.827058 -0
    outer loop
      vertex 11.7557 16.1803 2.5
      vertex 10.7165 16.8866 -2.5
      vertex 11.7557 16.1803 -2.5
    endloop
  endfacet
  facet normal 0.960279 0.279041 0
    outer loop
      vertex -19.0211 -6.18034 2.5
      vertex -19.3717 -4.9738 -2.5
      vertex -19.3717 -4.9738 2.5
    endloop
  endfacet
  facet normal 0.960279 0.279041 0
    outer loop
      vertex -19.3717 -4.9738 -2.5
      vertex -19.0211 -6.18034 2.5
      vertex -19.0211 -6.18034 -2.5
    endloop
  endfacet
  facet normal 0.790191 0.61286 0
    outer loop
      vertex -15.4103 -12.7485 2.5
      vertex -16.1803 -11.7557 -2.5
      vertex -16.1803 -11.7557 2.5
    endloop
  endfacet
  facet normal 0.790191 0.61286 0
    outer loop
      vertex -16.1803 -11.7557 -2.5
      vertex -15.4103 -12.7485 2.5
      vertex -15.4103 -12.7485 -2.5
    endloop
  endfacet
  facet normal -0.750086 0.66134 0
    outer loop
      vertex 14.5794 -13.6909 -2.5
      vertex 15.4103 -12.7485 2.5
      vertex 15.4103 -12.7485 -2.5
    endloop
  endfacet
  facet normal -0.750086 0.66134 0
    outer loop
      vertex 15.4103 -12.7485 2.5
      vertex 14.5794 -13.6909 -2.5
      vertex 14.5794 -13.6909 2.5
    endloop
  endfacet
  facet normal 0.827058 0.562116 0
    outer loop
      vertex -16.1803 -11.7557 2.5
      vertex -16.8866 -10.7165 -2.5
      vertex -16.8866 -10.7165 2.5
    endloop
  endfacet
  facet normal 0.827058 0.562116 0
    outer loop
      vertex -16.8866 -10.7165 -2.5
      vertex -16.1803 -11.7557 2.5
      vertex -16.1803 -11.7557 -2.5
    endloop
  endfacet
  facet normal 0.218081 -0.975931 0
    outer loop
      vertex -4.9738 19.3717 -2.5
      vertex -3.74763 19.6457 2.5
      vertex -4.9738 19.3717 2.5
    endloop
  endfacet
  facet normal 0.218081 -0.975931 0
    outer loop
      vertex -3.74763 19.6457 2.5
      vertex -4.9738 19.3717 -2.5
      vertex -3.74763 19.6457 -2.5
    endloop
  endfacet
  facet normal -0.279041 0.960279 0
    outer loop
      vertex 6.18034 -19.0211 -2.5
      vertex 4.9738 -19.3717 2.5
      vertex 6.18034 -19.0211 2.5
    endloop
  endfacet
  facet normal -0.279041 0.960279 0
    outer loop
      vertex 4.9738 -19.3717 2.5
      vertex 6.18034 -19.0211 -2.5
      vertex 4.9738 -19.3717 -2.5
    endloop
  endfacet
  facet normal -0.960279 -0.279041 0
    outer loop
      vertex 19.3717 4.9738 -2.5
      vertex 19.0211 6.18034 2.5
      vertex 19.0211 6.18034 -2.5
    endloop
  endfacet
  facet normal -0.960279 -0.279041 0
    outer loop
      vertex 19.0211 6.18034 2.5
      vertex 19.3717 4.9738 -2.5
      vertex 19.3717 4.9738 2.5
    endloop
  endfacet
  facet normal -0.999506 0.0314383 0
    outer loop
      vertex 19.9605 -1.25581 -2.5
      vertex 20 0 2.5
      vertex 20 0 -2.5
    endloop
  endfacet
  facet normal -0.999506 0.0314383 0
    outer loop
      vertex 20 0 2.5
      vertex 19.9605 -1.25581 -2.5
      vertex 19.9605 -1.25581 2.5
    endloop
  endfacet
  facet normal 0.397157 0.917751 -0
    outer loop
      vertex -7.36249 -18.5955 -2.5
      vertex -8.51558 -18.0965 2.5
      vertex -7.36249 -18.5955 2.5
    endloop
  endfacet
  facet normal 0.397157 0.917751 0
    outer loop
      vertex -8.51558 -18.0965 2.5
      vertex -7.36249 -18.5955 -2.5
      vertex -8.51558 -18.0965 -2.5
    endloop
  endfacet
  facet normal 0.860762 0.509008 0
    outer loop
      vertex -16.8866 -10.7165 2.5
      vertex -17.5261 -9.63507 -2.5
      vertex -17.5261 -9.63507 2.5
    endloop
  endfacet
  facet normal 0.860762 0.509008 0
    outer loop
      vertex -17.5261 -9.63507 -2.5
      vertex -16.8866 -10.7165 2.5
      vertex -16.8866 -10.7165 -2.5
    endloop
  endfacet
  facet normal 0.891009 -0.453985 0
    outer loop
      vertex -18.0965 8.51558 2.5
      vertex -17.5261 9.63507 -2.5
      vertex -17.5261 9.63507 2.5
    endloop
  endfacet
  facet normal 0.891009 -0.453985 0
    outer loop
      vertex -17.5261 9.63507 -2.5
      vertex -18.0965 8.51558 2.5
      vertex -18.0965 8.51558 -2.5
    endloop
  endfacet
  facet normal -0.66134 -0.750086 0
    outer loop
      vertex 12.7485 15.4103 -2.5
      vertex 13.6909 14.5794 2.5
      vertex 12.7485 15.4103 2.5
    endloop
  endfacet
  facet normal -0.66134 -0.750086 -0
    outer loop
      vertex 13.6909 14.5794 2.5
      vertex 12.7485 15.4103 -2.5
      vertex 13.6909 14.5794 -2.5
    endloop
  endfacet
  facet normal -0.61286 0.790191 0
    outer loop
      vertex 12.7485 -15.4103 -2.5
      vertex 11.7557 -16.1803 2.5
      vertex 12.7485 -15.4103 2.5
    endloop
  endfacet
  facet normal -0.61286 0.790191 0
    outer loop
      vertex 11.7557 -16.1803 2.5
      vertex 12.7485 -15.4103 -2.5
      vertex 11.7557 -16.1803 -2.5
    endloop
  endfacet
  facet normal 0.827058 -0.562116 0
    outer loop
      vertex -16.8866 10.7165 2.5
      vertex -16.1803 11.7557 -2.5
      vertex -16.1803 11.7557 2.5
    endloop
  endfacet
  facet normal 0.827058 -0.562116 0
    outer loop
      vertex -16.1803 11.7557 -2.5
      vertex -16.8866 10.7165 2.5
      vertex -16.8866 10.7165 -2.5
    endloop
  endfacet
  facet normal -0.453985 -0.891009 0
    outer loop
      vertex 8.51558 18.0965 -2.5
      vertex 9.63507 17.5261 2.5
      vertex 8.51558 18.0965 2.5
    endloop
  endfacet
  facet normal -0.453985 -0.891009 -0
    outer loop
      vertex 9.63507 17.5261 2.5
      vertex 8.51558 18.0965 -2.5
      vertex 9.63507 17.5261 -2.5
    endloop
  endfacet
  facet normal 0.66134 -0.750086 0
    outer loop
      vertex -13.6909 14.5794 -2.5
      vertex -12.7485 15.4103 2.5
      vertex -13.6909 14.5794 2.5
    endloop
  endfacet
  facet normal 0.66134 -0.750086 0
    outer loop
      vertex -12.7485 15.4103 2.5
      vertex -13.6909 14.5794 -2.5
      vertex -12.7485 15.4103 -2.5
    endloop
  endfacet
  facet normal -0.156473 -0.987682 0
    outer loop
      vertex 2.50666 19.8423 -2.5
      vertex 3.74763 19.6457 2.5
      vertex 2.50666 19.8423 2.5
    endloop
  endfacet
  facet normal -0.156473 -0.987682 -0
    outer loop
      vertex 3.74763 19.6457 2.5
      vertex 2.50666 19.8423 -2.5
      vertex 3.74763 19.6457 -2.5
    endloop
  endfacet
  facet normal -0.397157 0.917751 0
    outer loop
      vertex 8.51558 -18.0965 -2.5
      vertex 7.36249 -18.5955 2.5
      vertex 8.51558 -18.0965 2.5
    endloop
  endfacet
  facet normal -0.397157 0.917751 0
    outer loop
      vertex 7.36249 -18.5955 2.5
      vertex 8.51558 -18.0965 -2.5
      vertex 7.36249 -18.5955 -2.5
    endloop
  endfacet
  facet normal -0.860762 -0.509008 0
    outer loop
      vertex 17.5261 9.63507 -2.5
      vertex 16.8866 10.7165 2.5
      vertex 16.8866 10.7165 -2.5
    endloop
  endfacet
  facet normal -0.860762 -0.509008 0
    outer loop
      vertex 16.8866 10.7165 2.5
      vertex 17.5261 9.63507 -2.5
      vertex 17.5261 9.63507 2.5
    endloop
  endfacet
  facet normal -0.509008 -0.860762 0
    outer loop
      vertex 9.63507 17.5261 -2.5
      vertex 10.7165 16.8866 2.5
      vertex 9.63507 17.5261 2.5
    endloop
  endfacet
  facet normal -0.509008 -0.860762 -0
    outer loop
      vertex 10.7165 16.8866 2.5
      vertex 9.63507 17.5261 -2.5
      vertex 10.7165 16.8866 -2.5
    endloop
  endfacet
  facet normal 0.790191 -0.61286 0
    outer loop
      vertex -16.1803 11.7557 2.5
      vertex -15.4103 12.7485 -2.5
      vertex -15.4103 12.7485 2.5
    endloop
  endfacet
  facet normal 0.790191 -0.61286 0
    outer loop
      vertex -15.4103 12.7485 -2.5
      vertex -16.1803 11.7557 2.5
      vertex -16.1803 11.7557 -2.5
    endloop
  endfacet
  facet normal 0.0940767 -0.995565 0
    outer loop
      vertex -2.50666 19.8423 -2.5
      vertex -1.25581 19.9605 2.5
      vertex -2.50666 19.8423 2.5
    endloop
  endfacet
  facet normal 0.0940767 -0.995565 0
    outer loop
      vertex -1.25581 19.9605 2.5
      vertex -2.50666 19.8423 -2.5
      vertex -1.25581 19.9605 -2.5
    endloop
  endfacet
  facet normal -0.707107 -0.707107 0
    outer loop
      vertex 14.5794 13.6909 -2.5
      vertex 13.6909 14.5794 2.5
      vertex 13.6909 14.5794 -2.5
    endloop
  endfacet
  facet normal -0.707107 -0.707107 0
    outer loop
      vertex 13.6909 14.5794 2.5
      vertex 14.5794 13.6909 -2.5
      vertex 14.5794 13.6909 2.5
    endloop
  endfacet
  facet normal -0.995565 0.0940767 0
    outer loop
      vertex 19.8423 -2.50666 -2.5
      vertex 19.9605 -1.25581 2.5
      vertex 19.9605 -1.25581 -2.5
    endloop
  endfacet
  facet normal -0.995565 0.0940767 0
    outer loop
      vertex 19.9605 -1.25581 2.5
      vertex 19.8423 -2.50666 -2.5
      vertex 19.8423 -2.50666 2.5
    endloop
  endfacet
  facet normal -0.61286 -0.790191 0
    outer loop
      vertex 11.7557 16.1803 -2.5
      vertex 12.7485 15.4103 2.5
      vertex 11.7557 16.1803 2.5
    endloop
  endfacet
  facet normal -0.61286 -0.790191 -0
    outer loop
      vertex 12.7485 15.4103 2.5
      vertex 11.7557 16.1803 -2.5
      vertex 12.7485 15.4103 -2.5
    endloop
  endfacet
  facet normal -0.156473 0.987682 0
    outer loop
      vertex 3.74763 -19.6457 -2.5
      vertex 2.50666 -19.8423 2.5
      vertex 3.74763 -19.6457 2.5
    endloop
  endfacet
  facet normal -0.156473 0.987682 0
    outer loop
      vertex 2.50666 -19.8423 2.5
      vertex 3.74763 -19.6457 -2.5
      vertex 2.50666 -19.8423 -2.5
    endloop
  endfacet
  facet normal -0.827058 -0.562116 0
    outer loop
      vertex 16.8866 10.7165 -2.5
      vertex 16.1803 11.7557 2.5
      vertex 16.1803 11.7557 -2.5
    endloop
  endfacet
  facet normal -0.827058 -0.562116 0
    outer loop
      vertex 16.1803 11.7557 2.5
      vertex 16.8866 10.7165 -2.5
      vertex 16.8866 10.7165 2.5
    endloop
  endfacet
  facet normal -0.279041 -0.960279 0
    outer loop
      vertex 4.9738 19.3717 -2.5
      vertex 6.18034 19.0211 2.5
      vertex 4.9738 19.3717 2.5
    endloop
  endfacet
  facet normal -0.279041 -0.960279 -0
    outer loop
      vertex 6.18034 19.0211 2.5
      vertex 4.9738 19.3717 -2.5
      vertex 6.18034 19.0211 -2.5
    endloop
  endfacet
  facet normal 0.975931 0.218081 0
    outer loop
      vertex -19.3717 -4.9738 2.5
      vertex -19.6457 -3.74763 -2.5
      vertex -19.6457 -3.74763 2.5
    endloop
  endfacet
  facet normal 0.975931 0.218081 0
    outer loop
      vertex -19.6457 -3.74763 -2.5
      vertex -19.3717 -4.9738 2.5
      vertex -19.3717 -4.9738 -2.5
    endloop
  endfacet
  facet normal 0.156473 0.987682 -0
    outer loop
      vertex -2.50666 -19.8423 -2.5
      vertex -3.74763 -19.6457 2.5
      vertex -2.50666 -19.8423 2.5
    endloop
  endfacet
  facet normal 0.156473 0.987682 0
    outer loop
      vertex -3.74763 -19.6457 2.5
      vertex -2.50666 -19.8423 -2.5
      vertex -3.74763 -19.6457 -2.5
    endloop
  endfacet
  facet normal 0.338738 -0.940881 0
    outer loop
      vertex -7.36249 18.5955 -2.5
      vertex -6.18034 19.0211 2.5
      vertex -7.36249 18.5955 2.5
    endloop
  endfacet
  facet normal 0.338738 -0.940881 0
    outer loop
      vertex -6.18034 19.0211 2.5
      vertex -7.36249 18.5955 -2.5
      vertex -6.18034 19.0211 -2.5
    endloop
  endfacet
  facet normal -0.960279 0.279041 0
    outer loop
      vertex 19.0211 -6.18034 -2.5
      vertex 19.3717 -4.9738 2.5
      vertex 19.3717 -4.9738 -2.5
    endloop
  endfacet
  facet normal -0.960279 0.279041 0
    outer loop
      vertex 19.3717 -4.9738 2.5
      vertex 19.0211 -6.18034 -2.5
      vertex 19.0211 -6.18034 2.5
    endloop
  endfacet
  facet normal -0.509008 0.860762 0
    outer loop
      vertex 10.7165 -16.8866 -2.5
      vertex 9.63507 -17.5261 2.5
      vertex 10.7165 -16.8866 2.5
    endloop
  endfacet
  facet normal -0.509008 0.860762 0
    outer loop
      vertex 9.63507 -17.5261 2.5
      vertex 10.7165 -16.8866 -2.5
      vertex 9.63507 -17.5261 -2.5
    endloop
  endfacet
  facet normal -0.0314383 0.999506 0
    outer loop
      vertex 1.25581 -19.9605 -2.5
      vertex 0 -20 2.5
      vertex 1.25581 -19.9605 2.5
    endloop
  endfacet
  facet normal -0.0314383 0.999506 0
    outer loop
      vertex 0 -20 2.5
      vertex 1.25581 -19.9605 -2.5
      vertex 0 -20 -2.5
    endloop
  endfacet
  facet normal -0.0940767 0.995565 0
    outer loop
      vertex 2.50666 -19.8423 -2.5
      vertex 1.25581 -19.9605 2.5
      vertex 2.50666 -19.8423 2.5
    endloop
  endfacet
  facet normal -0.0940767 0.995565 0
    outer loop
      vertex 1.25581 -19.9605 2.5
      vertex 2.50666 -19.8423 -2.5
      vertex 1.25581 -19.9605 -2.5
    endloop
  endfacet
  facet normal 0.279041 -0.960279 0
    outer loop
      vertex -6.18034 19.0211 -2.5
      vertex -4.9738 19.3717 2.5
      vertex -6.18034 19.0211 2.5
    endloop
  endfacet
  facet normal 0.279041 -0.960279 0
    outer loop
      vertex -4.9738 19.3717 2.5
      vertex -6.18034 19.0211 -2.5
      vertex -4.9738 19.3717 -2.5
    endloop
  endfacet
  facet normal 0.707107 0.707107 0
    outer loop
      vertex -13.6909 -14.5794 2.5
      vertex -14.5794 -13.6909 -2.5
      vertex -14.5794 -13.6909 2.5
    endloop
  endfacet
  facet normal 0.707107 0.707107 0
    outer loop
      vertex -14.5794 -13.6909 -2.5
      vertex -13.6909 -14.5794 2.5
      vertex -13.6909 -14.5794 -2.5
    endloop
  endfacet
  facet normal -0.827058 0.562116 0
    outer loop
      vertex 16.1803 -11.7557 -2.5
      vertex 16.8866 -10.7165 2.5
      vertex 16.8866 -10.7165 -2.5
    endloop
  endfacet
  facet normal -0.827058 0.562116 0
    outer loop
      vertex 16.8866 -10.7165 2.5
      vertex 16.1803 -11.7557 -2.5
      vertex 16.1803 -11.7557 2.5
    endloop
  endfacet
  facet normal -0.707107 0.707107 0
    outer loop
      vertex 13.6909 -14.5794 -2.5
      vertex 14.5794 -13.6909 2.5
      vertex 14.5794 -13.6909 -2.5
    endloop
  endfacet
  facet normal -0.707107 0.707107 0
    outer loop
      vertex 14.5794 -13.6909 2.5
      vertex 13.6909 -14.5794 -2.5
      vertex 13.6909 -14.5794 2.5
    endloop
  endfacet
  facet normal 0.940881 0.338738 0
    outer loop
      vertex -18.5955 -7.36249 2.5
      vertex -19.0211 -6.18034 -2.5
      vertex -19.0211 -6.18034 2.5
    endloop
  endfacet
  facet normal 0.940881 0.338738 0
    outer loop
      vertex -19.0211 -6.18034 -2.5
      vertex -18.5955 -7.36249 2.5
      vertex -18.5955 -7.36249 -2.5
    endloop
  endfacet
  facet normal 0.562116 -0.827058 0
    outer loop
      vertex -11.7557 16.1803 -2.5
      vertex -10.7165 16.8866 2.5
      vertex -11.7557 16.1803 2.5
    endloop
  endfacet
  facet normal 0.562116 -0.827058 0
    outer loop
      vertex -10.7165 16.8866 2.5
      vertex -11.7557 16.1803 -2.5
      vertex -10.7165 16.8866 -2.5
    endloop
  endfacet
  facet normal -0.891009 0.453985 0
    outer loop
      vertex 17.5261 -9.63507 -2.5
      vertex 18.0965 -8.51558 2.5
      vertex 18.0965 -8.51558 -2.5
    endloop
  endfacet
  facet normal -0.891009 0.453985 0
    outer loop
      vertex 18.0965 -8.51558 2.5
      vertex 17.5261 -9.63507 -2.5
      vertex 17.5261 -9.63507 2.5
    endloop
  endfacet
  facet normal -0.917751 -0.397157 0
    outer loop
      vertex 18.5955 7.36249 -2.5
      vertex 18.0965 8.51558 2.5
      vertex 18.0965 8.51558 -2.5
    endloop
  endfacet
  facet normal -0.917751 -0.397157 0
    outer loop
      vertex 18.0965 8.51558 2.5
      vertex 18.5955 7.36249 -2.5
      vertex 18.5955 7.36249 2.5
    endloop
  endfacet
  facet normal -0.0940767 -0.995565 0
    outer loop
      vertex 1.25581 19.9605 -2.5
      vertex 2.50666 19.8423 2.5
      vertex 1.25581 19.9605 2.5
    endloop
  endfacet
  facet normal -0.0940767 -0.995565 -0
    outer loop
      vertex 2.50666 19.8423 2.5
      vertex 1.25581 19.9605 -2.5
      vertex 2.50666 19.8423 -2.5
    endloop
  endfacet
  facet normal -0.453985 0.891009 0
    outer loop
      vertex 9.63507 -17.5261 -2.5
      vertex 8.51558 -18.0965 2.5
      vertex 9.63507 -17.5261 2.5
    endloop
  endfacet
  facet normal -0.453985 0.891009 0
    outer loop
      vertex 8.51558 -18.0965 2.5
      vertex 9.63507 -17.5261 -2.5
      vertex 8.51558 -18.0965 -2.5
    endloop
  endfacet
  facet normal -0.891009 -0.453985 0
    outer loop
      vertex 18.0965 8.51558 -2.5
      vertex 17.5261 9.63507 2.5
      vertex 17.5261 9.63507 -2.5
    endloop
  endfacet
  facet normal -0.891009 -0.453985 0
    outer loop
      vertex 17.5261 9.63507 2.5
      vertex 18.0965 8.51558 -2.5
      vertex 18.0965 8.51558 2.5
    endloop
  endfacet
  facet normal 0.509008 -0.860762 0
    outer loop
      vertex -10.7165 16.8866 -2.5
      vertex -9.63507 17.5261 2.5
      vertex -10.7165 16.8866 2.5
    endloop
  endfacet
  facet normal 0.509008 -0.860762 0
    outer loop
      vertex -9.63507 17.5261 2.5
      vertex -10.7165 16.8866 -2.5
      vertex -9.63507 17.5261 -2.5
    endloop
  endfacet
  facet normal 0.995565 -0.0940767 0
    outer loop
      vertex -19.9605 1.25581 2.5
      vertex -19.8423 2.50666 -2.5
      vertex -19.8423 2.50666 2.5
    endloop
  endfacet
  facet normal 0.995565 -0.0940767 0
    outer loop
      vertex -19.8423 2.50666 -2.5
      vertex -19.9605 1.25581 2.5
      vertex -19.9605 1.25581 -2.5
    endloop
  endfacet
  facet normal 0.975931 -0.218081 0
    outer loop
      vertex -19.6457 3.74763 2.5
      vertex -19.3717 4.9738 -2.5
      vertex -19.3717 4.9738 2.5
    endloop
  endfacet
  facet normal 0.975931 -0.218081 0
    outer loop
      vertex -19.3717 4.9738 -2.5
      vertex -19.6457 3.74763 2.5
      vertex -19.6457 3.74763 -2.5
    endloop
  endfacet
  facet normal 0.156473 -0.987682 0
    outer loop
      vertex -3.74763 19.6457 -2.5
      vertex -2.50666 19.8423 2.5
      vertex -3.74763 19.6457 2.5
    endloop
  endfacet
  facet normal 0.156473 -0.987682 0
    outer loop
      vertex -2.50666 19.8423 2.5
      vertex -3.74763 19.6457 -2.5
      vertex -2.50666 19.8423 -2.5
    endloop
  endfacet
  facet normal 0.987682 0.156473 0
    outer loop
      vertex -19.6457 -3.74763 2.5
      vertex -19.8423 -2.50666 -2.5
      vertex -19.8423 -2.50666 2.5
    endloop
  endfacet
  facet normal 0.987682 0.156473 0
    outer loop
      vertex -19.8423 -2.50666 -2.5
      vertex -19.6457 -3.74763 2.5
      vertex -19.6457 -3.74763 -2.5
    endloop
  endfacet
  facet normal -0.790191 -0.61286 0
    outer loop
      vertex 16.1803 11.7557 -2.5
      vertex 15.4103 12.7485 2.5
      vertex 15.4103 12.7485 -2.5
    endloop
  endfacet
  facet normal -0.790191 -0.61286 0
    outer loop
      vertex 15.4103 12.7485 2.5
      vertex 16.1803 11.7557 -2.5
      vertex 16.1803 11.7557 2.5
    endloop
  endfacet
  facet normal -0.750086 -0.66134 0
    outer loop
      vertex 15.4103 12.7485 -2.5
      vertex 14.5794 13.6909 2.5
      vertex 14.5794 13.6909 -2.5
    endloop
  endfacet
  facet normal -0.750086 -0.66134 0
    outer loop
      vertex 14.5794 13.6909 2.5
      vertex 15.4103 12.7485 -2.5
      vertex 15.4103 12.7485 2.5
    endloop
  endfacet
  facet normal 0.509008 0.860762 -0
    outer loop
      vertex -9.63507 -17.5261 -2.5
      vertex -10.7165 -16.8866 2.5
      vertex -9.63507 -17.5261 2.5
    endloop
  endfacet
  facet normal 0.509008 0.860762 0
    outer loop
      vertex -10.7165 -16.8866 2.5
      vertex -9.63507 -17.5261 -2.5
      vertex -10.7165 -16.8866 -2.5
    endloop
  endfacet
  facet normal -0.338738 0.940881 0
    outer loop
      vertex 7.36249 -18.5955 -2.5
      vertex 6.18034 -19.0211 2.5
      vertex 7.36249 -18.5955 2.5
    endloop
  endfacet
  facet normal -0.338738 0.940881 0
    outer loop
      vertex 6.18034 -19.0211 2.5
      vertex 7.36249 -18.5955 -2.5
      vertex 6.18034 -19.0211 -2.5
    endloop
  endfacet
  facet normal 0.0314383 0.999506 -0
    outer loop
      vertex 0 -20 -2.5
      vertex -1.25581 -19.9605 2.5
      vertex 0 -20 2.5
    endloop
  endfacet
  facet normal 0.0314383 0.999506 0
    outer loop
      vertex -1.25581 -19.9605 2.5
      vertex 0 -20 -2.5
      vertex -1.25581 -19.9605 -2.5
    endloop
  endfacet
  facet normal 0.61286 -0.790191 0
    outer loop
      vertex -12.7485 15.4103 -2.5
      vertex -11.7557 16.1803 2.5
      vertex -12.7485 15.4103 2.5
    endloop
  endfacet
  facet normal 0.61286 -0.790191 0
    outer loop
      vertex -11.7557 16.1803 2.5
      vertex -12.7485 15.4103 -2.5
      vertex -11.7557 16.1803 -2.5
    endloop
  endfacet
  facet normal -0.860762 0.509008 0
    outer loop
      vertex 16.8866 -10.7165 -2.5
      vertex 17.5261 -9.63507 2.5
      vertex 17.5261 -9.63507 -2.5
    endloop
  endfacet
  facet normal -0.860762 0.509008 0
    outer loop
      vertex 17.5261 -9.63507 2.5
      vertex 16.8866 -10.7165 -2.5
      vertex 16.8866 -10.7165 2.5
    endloop
  endfacet
  facet normal -0.987682 0.156473 0
    outer loop
      vertex 19.6457 -3.74763 -2.5
      vertex 19.8423 -2.50666 2.5
      vertex 19.8423 -2.50666 -2.5
    endloop
  endfacet
  facet normal -0.987682 0.156473 0
    outer loop
      vertex 19.8423 -2.50666 2.5
      vertex 19.6457 -3.74763 -2.5
      vertex 19.6457 -3.74763 2.5
    endloop
  endfacet
  facet normal -0.218081 0.975931 0
    outer loop
      vertex 4.9738 -19.3717 -2.5
      vertex 3.74763 -19.6457 2.5
      vertex 4.9738 -19.3717 2.5
    endloop
  endfacet
  facet normal -0.218081 0.975931 0
    outer loop
      vertex 3.74763 -19.6457 2.5
      vertex 4.9738 -19.3717 -2.5
      vertex 3.74763 -19.6457 -2.5
    endloop
  endfacet
  facet normal -0.790191 0.61286 0
    outer loop
      vertex 15.4103 -12.7485 -2.5
      vertex 16.1803 -11.7557 2.5
      vertex 16.1803 -11.7557 -2.5
    endloop
  endfacet
  facet normal -0.790191 0.61286 0
    outer loop
      vertex 16.1803 -11.7557 2.5
      vertex 15.4103 -12.7485 -2.5
      vertex 15.4103 -12.7485 2.5
    endloop
  endfacet
  facet normal 0.0940767 0.995565 -0
    outer loop
      vertex -1.25581 -19.9605 -2.5
      vertex -2.50666 -19.8423 2.5
      vertex -1.25581 -19.9605 2.5
    endloop
  endfacet
  facet normal 0.0940767 0.995565 0
    outer loop
      vertex -2.50666 -19.8423 2.5
      vertex -1.25581 -19.9605 -2.5
      vertex -2.50666 -19.8423 -2.5
    endloop
  endfacet
  facet normal -0.975931 0.218081 0
    outer loop
      vertex 19.3717 -4.9738 -2.5
      vertex 19.6457 -3.74763 2.5
      vertex 19.6457 -3.74763 -2.5
    endloop
  endfacet
  facet normal -0.975931 0.218081 0
    outer loop
      vertex 19.6457 -3.74763 2.5
      vertex 19.3717 -4.9738 -2.5
      vertex 19.3717 -4.9738 2.5
    endloop
  endfacet
  facet normal -0.397157 -0.917751 0
    outer loop
      vertex 7.36249 18.5955 -2.5
      vertex 8.51558 18.0965 2.5
      vertex 7.36249 18.5955 2.5
    endloop
  endfacet
  facet normal -0.397157 -0.917751 -0
    outer loop
      vertex 8.51558 18.0965 2.5
      vertex 7.36249 18.5955 -2.5
      vertex 8.51558 18.0965 -2.5
    endloop
  endfacet
  facet normal -0.940881 0.338738 0
    outer loop
      vertex 18.5955 -7.36249 -2.5
      vertex 19.0211 -6.18034 2.5
      vertex 19.0211 -6.18034 -2.5
    endloop
  endfacet
  facet normal -0.940881 0.338738 0
    outer loop
      vertex 19.0211 -6.18034 2.5
      vertex 18.5955 -7.36249 -2.5
      vertex 18.5955 -7.36249 2.5
    endloop
  endfacet
  facet normal -0.66134 0.750086 0
    outer loop
      vertex 13.6909 -14.5794 -2.5
      vertex 12.7485 -15.4103 2.5
      vertex 13.6909 -14.5794 2.5
    endloop
  endfacet
  facet normal -0.66134 0.750086 0
    outer loop
      vertex 12.7485 -15.4103 2.5
      vertex 13.6909 -14.5794 -2.5
      vertex 12.7485 -15.4103 -2.5
    endloop
  endfacet
  facet normal 0.397157 -0.917751 0
    outer loop
      vertex -8.51558 18.0965 -2.5
      vertex -7.36249 18.5955 2.5
      vertex -8.51558 18.0965 2.5
    endloop
  endfacet
  facet normal 0.397157 -0.917751 0
    outer loop
      vertex -7.36249 18.5955 2.5
      vertex -8.51558 18.0965 -2.5
      vertex -7.36249 18.5955 -2.5
    endloop
  endfacet
  facet normal -0.975931 -0.218081 0
    outer loop
      vertex 19.6457 3.74763 -2.5
      vertex 19.3717 4.9738 2.5
      vertex 19.3717 4.9738 -2.5
    endloop
  endfacet
  facet normal -0.975931 -0.218081 0
    outer loop
      vertex 19.3717 4.9738 2.5
      vertex 19.6457 3.74763 -2.5
      vertex 19.6457 3.74763 2.5
    endloop
  endfacet
  facet normal 0.707107 -0.707107 0
    outer loop
      vertex -14.5794 13.6909 2.5
      vertex -13.6909 14.5794 -2.5
      vertex -13.6909 14.5794 2.5
    endloop
  endfacet
  facet normal 0.707107 -0.707107 0
    outer loop
      vertex -13.6909 14.5794 -2.5
      vertex -14.5794 13.6909 2.5
      vertex -14.5794 13.6909 -2.5
    endloop
  endfacet
  facet normal -0.940881 -0.338738 0
    outer loop
      vertex 19.0211 6.18034 -2.5
      vertex 18.5955 7.36249 2.5
      vertex 18.5955 7.36249 -2.5
    endloop
  endfacet
  facet normal -0.940881 -0.338738 0
    outer loop
      vertex 18.5955 7.36249 2.5
      vertex 19.0211 6.18034 -2.5
      vertex 19.0211 6.18034 2.5
    endloop
  endfacet
  facet normal 0.218081 0.975931 -0
    outer loop
      vertex -3.74763 -19.6457 -2.5
      vertex -4.9738 -19.3717 2.5
      vertex -3.74763 -19.6457 2.5
    endloop
  endfacet
  facet normal 0.218081 0.975931 0
    outer loop
      vertex -4.9738 -19.3717 2.5
      vertex -3.74763 -19.6457 -2.5
      vertex -4.9738 -19.3717 -2.5
    endloop
  endfacet
  facet normal -0.987682 -0.156473 0
    outer loop
      vertex 19.8423 2.50666 -2.5
      vertex 19.6457 3.74763 2.5
      vertex 19.6457 3.74763 -2.5
    endloop
  endfacet
  facet normal -0.987682 -0.156473 0
    outer loop
      vertex 19.6457 3.74763 2.5
      vertex 19.8423 2.50666 -2.5
      vertex 19.8423 2.50666 2.5
    endloop
  endfacet
  facet normal 0.917751 -0.397157 0
    outer loop
      vertex -18.5955 7.36249 2.5
      vertex -18.0965 8.51558 -2.5
      vertex -18.0965 8.51558 2.5
    endloop
  endfacet
  facet normal 0.917751 -0.397157 0
    outer loop
      vertex -18.0965 8.51558 -2.5
      vertex -18.5955 7.36249 2.5
      vertex -18.5955 7.36249 -2.5
    endloop
  endfacet
  facet normal -0.917751 0.397157 0
    outer loop
      vertex 18.0965 -8.51558 -2.5
      vertex 18.5955 -7.36249 2.5
      vertex 18.5955 -7.36249 -2.5
    endloop
  endfacet
  facet normal -0.917751 0.397157 0
    outer loop
      vertex 18.5955 -7.36249 2.5
      vertex 18.0965 -8.51558 -2.5
      vertex 18.0965 -8.51558 2.5
    endloop
  endfacet
  facet normal 0.860762 -0.509008 0
    outer loop
      vertex -17.5261 9.63507 2.5
      vertex -16.8866 10.7165 -2.5
      vertex -16.8866 10.7165 2.5
    endloop
  endfacet
  facet normal 0.860762 -0.509008 0
    outer loop
      vertex -16.8866 10.7165 -2.5
      vertex -17.5261 9.63507 2.5
      vertex -17.5261 9.63507 -2.5
    endloop
  endfacet
  facet normal 0.0314383 -0.999506 0
    outer loop
      vertex -1.25581 19.9605 -2.5
      vertex 0 20 2.5
      vertex -1.25581 19.9605 2.5
    endloop
  endfacet
  facet normal 0.0314383 -0.999506 0
    outer loop
      vertex 0 20 2.5
      vertex -1.25581 19.9605 -2.5
      vertex 0 20 -2.5
    endloop
  endfacet
  facet normal -0.562116 0.827058 0
    outer loop
      vertex 11.7557 -16.1803 -2.5
      vertex 10.7165 -16.8866 2.5
      vertex 11.7557 -16.1803 2.5
    endloop
  endfacet
  facet normal -0.562116 0.827058 0
    outer loop
      vertex 10.7165 -16.8866 2.5
      vertex 11.7557 -16.1803 -2.5
      vertex 10.7165 -16.8866 -2.5
    endloop
  endfacet
  facet normal 0.995565 0.0940767 0
    outer loop
      vertex -19.8423 -2.50666 2.5
      vertex -19.9605 -1.25581 -2.5
      vertex -19.9605 -1.25581 2.5
    endloop
  endfacet
  facet normal 0.995565 0.0940767 0
    outer loop
      vertex -19.9605 -1.25581 -2.5
      vertex -19.8423 -2.50666 2.5
      vertex -19.8423 -2.50666 -2.5
    endloop
  endfacet
  facet normal -0.338738 -0.940881 0
    outer loop
      vertex 6.18034 19.0211 -2.5
      vertex 7.36249 18.5955 2.5
      vertex 6.18034 19.0211 2.5
    endloop
  endfacet
  facet normal -0.338738 -0.940881 -0
    outer loop
      vertex 7.36249 18.5955 2.5
      vertex 6.18034 19.0211 -2.5
      vertex 7.36249 18.5955 -2.5
    endloop
  endfacet
  facet normal 0.987682 -0.156473 0
    outer loop
      vertex -19.8423 2.50666 2.5
      vertex -19.6457 3.74763 -2.5
      vertex -19.6457 3.74763 2.5
    endloop
  endfacet
  facet normal 0.987682 -0.156473 0
    outer loop
      vertex -19.6457 3.74763 -2.5
      vertex -19.8423 2.50666 2.5
      vertex -19.8423 2.50666 -2.5
    endloop
  endfacet
  facet normal 0.960279 -0.279041 0
    outer loop
      vertex -19.3717 4.9738 2.5
      vertex -19.0211 6.18034 -2.5
      vertex -19.0211 6.18034 2.5
    endloop
  endfacet
  facet normal 0.960279 -0.279041 0
    outer loop
      vertex -19.0211 6.18034 -2.5
      vertex -19.3717 4.9738 2.5
      vertex -19.3717 4.9738 -2.5
    endloop
  endfacet
  facet normal 0.750086 0.66134 0
    outer loop
      vertex -14.5794 -13.6909 2.5
      vertex -15.4103 -12.7485 -2.5
      vertex -15.4103 -12.7485 2.5
    endloop
  endfacet
  facet normal 0.750086 0.66134 0
    outer loop
      vertex -15.4103 -12.7485 -2.5
      vertex -14.5794 -13.6909 2.5
      vertex -14.5794 -13.6909 -2.5
    endloop
  endfacet
  facet normal 0.66134 0.750086 -0
    outer loop
      vertex -12.7485 -15.4103 -2.5
      vertex -13.6909 -14.5794 2.5
      vertex -12.7485 -15.4103 2.5
    endloop
  endfacet
  facet normal 0.66134 0.750086 0
    outer loop
      vertex -13.6909 -14.5794 2.5
      vertex -12.7485 -15.4103 -2.5
      vertex -13.6909 -14.5794 -2.5
    endloop
  endfacet
  facet normal 0.999506 0.0314383 0
    outer loop
      vertex -19.9605 -1.25581 2.5
      vertex -20 0 -2.5
      vertex -20 0 2.5
    endloop
  endfacet
  facet normal 0.999506 0.0314383 0
    outer loop
      vertex -20 0 -2.5
      vertex -19.9605 -1.25581 2.5
      vertex -19.9605 -1.25581 -2.5
    endloop
  endfacet
  facet normal 0.61286 0.790191 -0
    outer loop
      vertex -11.7557 -16.1803 -2.5
      vertex -12.7485 -15.4103 2.5
      vertex -11.7557 -16.1803 2.5
    endloop
  endfacet
  facet normal 0.61286 0.790191 0
    outer loop
      vertex -12.7485 -15.4103 2.5
      vertex -11.7557 -16.1803 -2.5
      vertex -12.7485 -15.4103 -2.5
    endloop
  endfacet
  facet normal -0.218081 -0.975931 0
    outer loop
      vertex 3.74763 19.6457 -2.5
      vertex 4.9738 19.3717 2.5
      vertex 3.74763 19.6457 2.5
    endloop
  endfacet
  facet normal -0.218081 -0.975931 -0
    outer loop
      vertex 4.9738 19.3717 2.5
      vertex 3.74763 19.6457 -2.5
      vertex 4.9738 19.3717 -2.5
    endloop
  endfacet
  facet normal 0.940881 -0.338738 0
    outer loop
      vertex -19.0211 6.18034 2.5
      vertex -18.5955 7.36249 -2.5
      vertex -18.5955 7.36249 2.5
    endloop
  endfacet
  facet normal 0.940881 -0.338738 0
    outer loop
      vertex -18.5955 7.36249 -2.5
      vertex -19.0211 6.18034 2.5
      vertex -19.0211 6.18034 -2.5
    endloop
  endfacet
  facet normal 0.279041 0.960279 -0
    outer loop
      vertex -4.9738 -19.3717 -2.5
      vertex -6.18034 -19.0211 2.5
      vertex -4.9738 -19.3717 2.5
    endloop
  endfacet
  facet normal 0.279041 0.960279 0
    outer loop
      vertex -6.18034 -19.0211 2.5
      vertex -4.9738 -19.3717 -2.5
      vertex -6.18034 -19.0211 -2.5
    endloop
  endfacet
  facet normal 0.453985 -0.891009 0
    outer loop
      vertex -9.63507 17.5261 -2.5
      vertex -8.51558 18.0965 2.5
      vertex -9.63507 17.5261 2.5
    endloop
  endfacet
  facet normal 0.453985 -0.891009 0
    outer loop
      vertex -8.51558 18.0965 2.5
      vertex -9.63507 17.5261 -2.5
      vertex -8.51558 18.0965 -2.5
    endloop
  endfacet
  facet normal 0.338738 0.940881 -0
    outer loop
      vertex -6.18034 -19.0211 -2.5
      vertex -7.36249 -18.5955 2.5
      vertex -6.18034 -19.0211 2.5
    endloop
  endfacet
  facet normal 0.338738 0.940881 0
    outer loop
      vertex -7.36249 -18.5955 2.5
      vertex -6.18034 -19.0211 -2.5
      vertex -7.36249 -18.5955 -2.5
    endloop
  endfacet
  facet normal 0.999506 -0.0314383 0
    outer loop
      vertex -20 0 2.5
      vertex -19.9605 1.25581 -2.5
      vertex -19.9605 1.25581 2.5
    endloop
  endfacet
  facet normal 0.999506 -0.0314383 0
    outer loop
      vertex -19.9605 1.25581 -2.5
      vertex -20 0 2.5
      vertex -20 0 -2.5
    endloop
  endfacet
  facet normal 0.453985 0.891009 -0
    outer loop
      vertex -8.51558 -18.0965 -2.5
      vertex -9.63507 -17.5261 2.5
      vertex -8.51558 -18.0965 2.5
    endloop
  endfacet
  facet normal 0.453985 0.891009 0
    outer loop
      vertex -9.63507 -17.5261 2.5
      vertex -8.51558 -18.0965 -2.5
      vertex -9.63507 -17.5261 -2.5
    endloop
  endfacet
  facet normal 0.891009 0.453985 0
    outer loop
      vertex -17.5261 -9.63507 2.5
      vertex -18.0965 -8.51558 -2.5
      vertex -18.0965 -8.51558 2.5
    endloop
  endfacet
  facet normal 0.891009 0.453985 0
    outer loop
      vertex -18.0965 -8.51558 -2.5
      vertex -17.5261 -9.63507 2.5
      vertex -17.5261 -9.63507 -2.5
    endloop
  endfacet
  facet normal 0.917751 0.397157 0
    outer loop
      vertex -18.0965 -8.51558 2.5
      vertex -18.5955 -7.36249 -2.5
      vertex -18.5955 -7.36249 2.5
    endloop
  endfacet
  facet normal 0.917751 0.397157 0
    outer loop
      vertex -18.5955 -7.36249 -2.5
      vertex -18.0965 -8.51558 2.5
      vertex -18.0965 -8.51558 -2.5
    endloop
  endfacet
endsolid OpenSCAD_Model
