solid OpenSCAD_Model
  facet normal 1 -0 0
    outer loop
      vertex 50 -25 2.5
      vertex 50 25 -2.5
      vertex 50 25 2.5
    endloop
  endfacet
  facet normal 1 0 0
    outer loop
      vertex 50 25 -2.5
      vertex 50 -25 2.5
      vertex 50 -25 -2.5
    endloop
  endfacet
  facet normal 0 0 1
    outer loop
      vertex 50 25 2.5
      vertex -20 5 2.5
      vertex 50 -25 2.5
    endloop
  endfacet
  facet normal -0 0 1
    outer loop
      vertex -50 25 2.5
      vertex -20 5 2.5
      vertex 50 25 2.5
    endloop
  endfacet
  facet normal 0 0 1
    outer loop
      vertex -40 5 2.5
      vertex -50 25 2.5
      vertex -40 -5 2.5
    endloop
  endfacet
  facet normal 0 0 1
    outer loop
      vertex -20 5 2.5
      vertex -50 25 2.5
      vertex -40 5 2.5
    endloop
  endfacet
  facet normal -0 0 1
    outer loop
      vertex -20 -5 2.5
      vertex 50 -25 2.5
      vertex -20 5 2.5
    endloop
  endfacet
  facet normal 0 0 1
    outer loop
      vertex -50 -25 2.5
      vertex -20 -5 2.5
      vertex -40 -5 2.5
    endloop
  endfacet
  facet normal 0 0 1
    outer loop
      vertex -20 -5 2.5
      vertex -50 -25 2.5
      vertex 50 -25 2.5
    endloop
  endfacet
  facet normal 0 0 1
    outer loop
      vertex -50 -25 2.5
      vertex -40 -5 2.5
      vertex -50 25 2.5
    endloop
  endfacet
  facet normal 0 0 -1
    outer loop
      vertex -50 -25 -2.5
      vertex 50 25 -2.5
      vertex 50 -25 -2.5
    endloop
  endfacet
  facet normal -0 0 -1
    outer loop
      vertex 50 25 -2.5
      vertex -50 -25 -2.5
      vertex -50 25 -2.5
    endloop
  endfacet
  facet normal -1 0 0
    outer loop
      vertex -50 -25 -2.5
      vertex -50 25 2.5
      vertex -50 25 -2.5
    endloop
  endfacet
  facet normal -1 -0 0
    outer loop
      vertex -50 25 2.5
      vertex -50 -25 -2.5
      vertex -50 -25 2.5
    endloop
  endfacet
  facet normal 0 1 -0
    outer loop
      vertex 50 25 -2.5
      vertex -50 25 2.5
      vertex 50 25 2.5
    endloop
  endfacet
  facet normal 0 1 0
    outer loop
      vertex -50 25 2.5
      vertex 50 25 -2.5
      vertex -50 25 -2.5
    endloop
  endfacet
  facet normal 0 -1 0
    outer loop
      vertex -50 -25 -2.5
      vertex 50 -25 2.5
      vertex -50 -25 2.5
    endloop
  endfacet
  facet normal 0 -1 -0
    outer loop
      vertex 50 -25 2.5
      vertex -50 -25 -2.5
      vertex 50 -25 -2.5
    endloop
  endfacet
  facet normal -1 0 0
    outer loop
      vertex -20 -5 -0.5
      vertex -20 5 2.5
      vertex -20 5 -0.5
    endloop
  endfacet
  facet normal -1 -0 0
    outer loop
      vertex -20 5 2.5
      vertex -20 -5 -0.5
      vertex -20 -5 2.5
    endloop
  endfacet
  facet normal -0 0 1
    outer loop
      vertex -40 5 -0.5
      vertex -20 -5 -0.5
      vertex -20 5 -0.5
    endloop
  endfacet
  facet normal 0 0 1
    outer loop
      vertex -20 -5 -0.5
      vertex -40 5 -0.5
      vertex -40 -5 -0.5
    endloop
  endfacet
  facet normal 1 -0 0
    outer loop
      vertex -40 -5 2.5
      vertex -40 5 -0.5
      vertex -40 5 2.5
    endloop
  endfacet
  facet normal 1 0 0
    outer loop
      vertex -40 5 -0.5
      vertex -40 -5 2.5
      vertex -40 -5 -0.5
    endloop
  endfacet
  facet normal 0 -1 0
    outer loop
      vertex -40 5 -0.5
      vertex -20 5 2.5
      vertex -40 5 2.5
    endloop
  endfacet
  facet normal 0 -1 -0
    outer loop
      vertex -20 5 2.5
      vertex -40 5 -0.5
      vertex -20 5 -0.5
    endloop
  endfacet
  facet normal 0 1 -0
    outer loop
      vertex -20 -5 -0.5
      vertex -40 -5 2.5
      vertex -20 -5 2.5
    endloop
  endfacet
  facet normal 0 1 0
    outer loop
      vertex -40 -5 2.5
      vertex -20 -5 -0.5
      vertex -40 -5 -0.5
    endloop
  endfacet
endsolid OpenSCAD_Model
