solid OpenSCAD_Model
  facet normal 1 -0 0
    outer loop
      vertex 32.5 7.5 30
      vertex 32.5 17.5 10
      vertex 32.5 17.5 30
    endloop
  endfacet
  facet normal 1 0 0
    outer loop
      vertex 32.5 17.5 10
      vertex 32.5 7.5 30
      vertex 32.5 7.5 10
    endloop
  endfacet
  facet normal 0 0 1
    outer loop
      vertex 17.5 32.5 30
      vertex 12.5 27.5 30
      vertex 17.5 27.5 30
    endloop
  endfacet
  facet normal 0 0 1
    outer loop
      vertex 12.5 27.5 30
      vertex 7.5 32.5 30
      vertex 12.5 12.5 30
    endloop
  endfacet
  facet normal -0 0 1
    outer loop
      vertex 7.5 32.5 30
      vertex 12.5 27.5 30
      vertex 17.5 32.5 30
    endloop
  endfacet
  facet normal 0 0 1
    outer loop
      vertex 27.5 12.5 30
      vertex 32.5 17.5 30
      vertex 27.5 17.5 30
    endloop
  endfacet
  facet normal 0 0 1
    outer loop
      vertex 32.5 17.5 30
      vertex 27.5 12.5 30
      vertex 32.5 7.5 30
    endloop
  endfacet
  facet normal -0 0 1
    outer loop
      vertex 12.5 12.5 30
      vertex 32.5 7.5 30
      vertex 27.5 12.5 30
    endloop
  endfacet
  facet normal 0 0 1
    outer loop
      vertex 12.5 12.5 30
      vertex 7.5 7.5 30
      vertex 32.5 7.5 30
    endloop
  endfacet
  facet normal 0 0 1
    outer loop
      vertex 7.5 7.5 30
      vertex 12.5 12.5 30
      vertex 7.5 32.5 30
    endloop
  endfacet
  facet normal 0 0 -1
    outer loop
      vertex 17.5 17.5 30
      vertex 27.5 27.5 30
      vertex 27.5 17.5 30
    endloop
  endfacet
  facet normal -0 0 -1
    outer loop
      vertex 27.5 27.5 30
      vertex 17.5 17.5 30
      vertex 17.5 27.5 30
    endloop
  endfacet
  facet normal 0 0 1
    outer loop
      vertex 40 40 10
      vertex 32.5 17.5 10
      vertex 40 0 10
    endloop
  endfacet
  facet normal 0 0 1
    outer loop
      vertex 40 40 10
      vertex 17.5 32.5 10
      vertex 32.5 17.5 10
    endloop
  endfacet
  facet normal -0 0 1
    outer loop
      vertex 0 40 10
      vertex 17.5 32.5 10
      vertex 40 40 10
    endloop
  endfacet
  facet normal 0 0 1
    outer loop
      vertex 7.5 32.5 10
      vertex 0 40 10
      vertex 7.5 7.5 10
    endloop
  endfacet
  facet normal 0 0 1
    outer loop
      vertex 17.5 32.5 10
      vertex 0 40 10
      vertex 7.5 32.5 10
    endloop
  endfacet
  facet normal -0 0 1
    outer loop
      vertex 32.5 7.5 10
      vertex 40 0 10
      vertex 32.5 17.5 10
    endloop
  endfacet
  facet normal -0 0 1
    outer loop
      vertex 7.5 7.5 10
      vertex 40 0 10
      vertex 32.5 7.5 10
    endloop
  endfacet
  facet normal 0 0 1
    outer loop
      vertex 7.5 7.5 10
      vertex 0 0 10
      vertex 40 0 10
    endloop
  endfacet
  facet normal 0 0 1
    outer loop
      vertex 0 0 10
      vertex 7.5 7.5 10
      vertex 0 40 10
    endloop
  endfacet
  facet normal 0 0 1
    outer loop
      vertex 32.5 17.5 10
      vertex 17.5 32.5 10
      vertex 17.5 17.5 10
    endloop
  endfacet
  facet normal -1 0 0
    outer loop
      vertex 7.5 7.5 10
      vertex 7.5 32.5 30
      vertex 7.5 32.5 10
    endloop
  endfacet
  facet normal -1 -0 0
    outer loop
      vertex 7.5 32.5 30
      vertex 7.5 7.5 10
      vertex 7.5 7.5 30
    endloop
  endfacet
  facet normal 0 1 -0
    outer loop
      vertex 17.5 32.5 10
      vertex 7.5 32.5 30
      vertex 17.5 32.5 30
    endloop
  endfacet
  facet normal 0 1 0
    outer loop
      vertex 7.5 32.5 30
      vertex 17.5 32.5 10
      vertex 7.5 32.5 10
    endloop
  endfacet
  facet normal 0 -1 0
    outer loop
      vertex 7.5 7.5 10
      vertex 32.5 7.5 30
      vertex 7.5 7.5 30
    endloop
  endfacet
  facet normal 0 -1 -0
    outer loop
      vertex 32.5 7.5 30
      vertex 7.5 7.5 10
      vertex 32.5 7.5 10
    endloop
  endfacet
  facet normal 1 -0 0
    outer loop
      vertex 17.5 27.5 30
      vertex 17.5 32.5 10
      vertex 17.5 32.5 30
    endloop
  endfacet
  facet normal 1 0 0
    outer loop
      vertex 17.5 17.5 10
      vertex 17.5 27.5 30
      vertex 17.5 17.5 30
    endloop
  endfacet
  facet normal 1 0 0
    outer loop
      vertex 17.5 27.5 30
      vertex 17.5 17.5 10
      vertex 17.5 32.5 10
    endloop
  endfacet
  facet normal 0 1 -0
    outer loop
      vertex 32.5 17.5 10
      vertex 27.5 17.5 30
      vertex 32.5 17.5 30
    endloop
  endfacet
  facet normal 0 1 0
    outer loop
      vertex 17.5 17.5 10
      vertex 27.5 17.5 30
      vertex 32.5 17.5 10
    endloop
  endfacet
  facet normal 0 1 0
    outer loop
      vertex 27.5 17.5 30
      vertex 17.5 17.5 10
      vertex 17.5 17.5 30
    endloop
  endfacet
  facet normal 1 -0 0
    outer loop
      vertex 40 0 10
      vertex 40 40 0
      vertex 40 40 10
    endloop
  endfacet
  facet normal 1 0 0
    outer loop
      vertex 40 40 0
      vertex 40 0 10
      vertex 40 0 0
    endloop
  endfacet
  facet normal 0 0 -1
    outer loop
      vertex 0 0 0
      vertex 40 40 0
      vertex 40 0 0
    endloop
  endfacet
  facet normal -0 0 -1
    outer loop
      vertex 40 40 0
      vertex 0 0 0
      vertex 0 40 0
    endloop
  endfacet
  facet normal -1 0 0
    outer loop
      vertex 0 0 0
      vertex 0 40 10
      vertex 0 40 0
    endloop
  endfacet
  facet normal -1 -0 0
    outer loop
      vertex 0 40 10
      vertex 0 0 0
      vertex 0 0 10
    endloop
  endfacet
  facet normal 0 1 -0
    outer loop
      vertex 40 40 0
      vertex 0 40 10
      vertex 40 40 10
    endloop
  endfacet
  facet normal 0 1 0
    outer loop
      vertex 0 40 10
      vertex 40 40 0
      vertex 0 40 0
    endloop
  endfacet
  facet normal 0 -1 0
    outer loop
      vertex 0 0 0
      vertex 40 0 10
      vertex 0 0 10
    endloop
  endfacet
  facet normal 0 -1 -0
    outer loop
      vertex 40 0 10
      vertex 0 0 0
      vertex 40 0 0
    endloop
  endfacet
  facet normal 1 0 0
    outer loop
      vertex 27.5 27.5 50
      vertex 27.5 17.5 30
      vertex 27.5 27.5 30
    endloop
  endfacet
  facet normal 1 -0 0
    outer loop
      vertex 27.5 12.5 50
      vertex 27.5 17.5 30
      vertex 27.5 27.5 50
    endloop
  endfacet
  facet normal 1 0 0
    outer loop
      vertex 27.5 17.5 30
      vertex 27.5 12.5 50
      vertex 27.5 12.5 30
    endloop
  endfacet
  facet normal -0 0 1
    outer loop
      vertex 12.5 27.5 50
      vertex 27.5 12.5 50
      vertex 27.5 27.5 50
    endloop
  endfacet
  facet normal 0 0 1
    outer loop
      vertex 27.5 12.5 50
      vertex 12.5 27.5 50
      vertex 12.5 12.5 50
    endloop
  endfacet
  facet normal -1 0 0
    outer loop
      vertex 12.5 12.5 30
      vertex 12.5 27.5 50
      vertex 12.5 27.5 30
    endloop
  endfacet
  facet normal -1 -0 0
    outer loop
      vertex 12.5 27.5 50
      vertex 12.5 12.5 30
      vertex 12.5 12.5 50
    endloop
  endfacet
  facet normal 0 1 0
    outer loop
      vertex 17.5 27.5 30
      vertex 27.5 27.5 50
      vertex 27.5 27.5 30
    endloop
  endfacet
  facet normal 0 1 0
    outer loop
      vertex 27.5 27.5 50
      vertex 17.5 27.5 30
      vertex 12.5 27.5 50
    endloop
  endfacet
  facet normal 0 1 0
    outer loop
      vertex 12.5 27.5 50
      vertex 17.5 27.5 30
      vertex 12.5 27.5 30
    endloop
  endfacet
  facet normal 0 -1 0
    outer loop
      vertex 12.5 12.5 30
      vertex 27.5 12.5 50
      vertex 12.5 12.5 50
    endloop
  endfacet
  facet normal 0 -1 -0
    outer loop
      vertex 27.5 12.5 50
      vertex 12.5 12.5 30
      vertex 27.5 12.5 30
    endloop
  endfacet
endsolid OpenSCAD_Model
