solid OpenSCAD_Model
  facet normal 1 -0 0
    outer loop
      vertex 25 -5 2.5
      vertex 25 5 -2.5
      vertex 25 5 2.5
    endloop
  endfacet
  facet normal 1 0 0
    outer loop
      vertex 25 5 -2.5
      vertex 25 -5 2.5
      vertex 25 -5 -2.5
    endloop
  endfacet
  facet normal -0 0 1
    outer loop
      vertex -25 5 2.5
      vertex 25 -5 2.5
      vertex 25 5 2.5
    endloop
  endfacet
  facet normal 0 0 1
    outer loop
      vertex 25 -5 2.5
      vertex -25 5 2.5
      vertex -25 -5 2.5
    endloop
  endfacet
  facet normal 0 0 -1
    outer loop
      vertex -25 -5 -2.5
      vertex 25 5 -2.5
      vertex 25 -5 -2.5
    endloop
  endfacet
  facet normal -0 0 -1
    outer loop
      vertex 25 5 -2.5
      vertex -25 -5 -2.5
      vertex -25 5 -2.5
    endloop
  endfacet
  facet normal -1 0 0
    outer loop
      vertex -25 -5 -2.5
      vertex -25 5 2.5
      vertex -25 5 -2.5
    endloop
  endfacet
  facet normal -1 -0 0
    outer loop
      vertex -25 5 2.5
      vertex -25 -5 -2.5
      vertex -25 -5 2.5
    endloop
  endfacet
  facet normal 0 1 -0
    outer loop
      vertex 25 5 -2.5
      vertex -25 5 2.5
      vertex 25 5 2.5
    endloop
  endfacet
  facet normal 0 1 0
    outer loop
      vertex -25 5 2.5
      vertex 25 5 -2.5
      vertex -25 5 -2.5
    endloop
  endfacet
  facet normal 0 -1 0
    outer loop
      vertex -25 -5 -2.5
      vertex 25 -5 2.5
      vertex -25 -5 2.5
    endloop
  endfacet
  facet normal 0 -1 -0
    outer loop
      vertex 25 -5 2.5
      vertex -25 -5 -2.5
      vertex 25 -5 -2.5
    endloop
  endfacet
  facet normal 1 -0 0
    outer loop
      vertex 85 -5 2.5
      vertex 85 5 -2.5
      vertex 85 5 2.5
    endloop
  endfacet
  facet normal 1 0 0
    outer loop
      vertex 85 5 -2.5
      vertex 85 -5 2.5
      vertex 85 -5 -2.5
    endloop
  endfacet
  facet normal -0 0 1
    outer loop
      vertex 35 5 2.5
      vertex 85 -5 2.5
      vertex 85 5 2.5
    endloop
  endfacet
  facet normal 0 0 1
    outer loop
      vertex 85 -5 2.5
      vertex 35 5 2.5
      vertex 35 -5 2.5
    endloop
  endfacet
  facet normal 0 0 -1
    outer loop
      vertex 35 -5 -2.5
      vertex 85 5 -2.5
      vertex 85 -5 -2.5
    endloop
  endfacet
  facet normal -0 0 -1
    outer loop
      vertex 85 5 -2.5
      vertex 35 -5 -2.5
      vertex 35 5 -2.5
    endloop
  endfacet
  facet normal -1 0 0
    outer loop
      vertex 35 -5 -2.5
      vertex 35 5 2.5
      vertex 35 5 -2.5
    endloop
  endfacet
  facet normal -1 -0 0
    outer loop
      vertex 35 5 2.5
      vertex 35 -5 -2.5
      vertex 35 -5 2.5
    endloop
  endfacet
  facet normal 0 1 -0
    outer loop
      vertex 85 5 -2.5
      vertex 35 5 2.5
      vertex 85 5 2.5
    endloop
  endfacet
  facet normal 0 1 0
    outer loop
      vertex 35 5 2.5
      vertex 85 5 -2.5
      vertex 35 5 -2.5
    endloop
  endfacet
  facet normal 0 -1 0
    outer loop
      vertex 35 -5 -2.5
      vertex 85 -5 2.5
      vertex 35 -5 2.5
    endloop
  endfacet
  facet normal 0 -1 -0
    outer loop
      vertex 85 -5 2.5
      vertex 35 -5 -2.5
      vertex 85 -5 -2.5
    endloop
  endfacet
  facet normal 1 -0 0
    outer loop
      vertex -35 -5 2.5
      vertex -35 5 -2.5
      vertex -35 5 2.5
    endloop
  endfacet
  facet normal 1 0 0
    outer loop
      vertex -35 5 -2.5
      vertex -35 -5 2.5
      vertex -35 -5 -2.5
    endloop
  endfacet
  facet normal -0 0 1
    outer loop
      vertex -85 5 2.5
      vertex -35 -5 2.5
      vertex -35 5 2.5
    endloop
  endfacet
  facet normal 0 0 1
    outer loop
      vertex -35 -5 2.5
      vertex -85 5 2.5
      vertex -85 -5 2.5
    endloop
  endfacet
  facet normal 0 0 -1
    outer loop
      vertex -85 -5 -2.5
      vertex -35 5 -2.5
      vertex -35 -5 -2.5
    endloop
  endfacet
  facet normal -0 0 -1
    outer loop
      vertex -35 5 -2.5
      vertex -85 -5 -2.5
      vertex -85 5 -2.5
    endloop
  endfacet
  facet normal -1 0 0
    outer loop
      vertex -85 -5 -2.5
      vertex -85 5 2.5
      vertex -85 5 -2.5
    endloop
  endfacet
  facet normal -1 -0 0
    outer loop
      vertex -85 5 2.5
      vertex -85 -5 -2.5
      vertex -85 -5 2.5
    endloop
  endfacet
  facet normal 0 1 -0
    outer loop
      vertex -35 5 -2.5
      vertex -85 5 2.5
      vertex -35 5 2.5
    endloop
  endfacet
  facet normal 0 1 0
    outer loop
      vertex -85 5 2.5
      vertex -35 5 -2.5
      vertex -85 5 -2.5
    endloop
  endfacet
  facet normal 0 -1 0
    outer loop
      vertex -85 -5 -2.5
      vertex -35 -5 2.5
      vertex -85 -5 2.5
    endloop
  endfacet
  facet normal 0 -1 -0
    outer loop
      vertex -35 -5 2.5
      vertex -85 -5 -2.5
      vertex -35 -5 -2.5
    endloop
  endfacet
  facet normal 1 -0 0
    outer loop
      vertex 25 55 2.5
      vertex 25 65 -2.5
      vertex 25 65 2.5
    endloop
  endfacet
  facet normal 1 0 0
    outer loop
      vertex 25 65 -2.5
      vertex 25 55 2.5
      vertex 25 55 -2.5
    endloop
  endfacet
  facet normal -0 0 1
    outer loop
      vertex -25 65 2.5
      vertex 25 55 2.5
      vertex 25 65 2.5
    endloop
  endfacet
  facet normal 0 0 1
    outer loop
      vertex 25 55 2.5
      vertex -25 65 2.5
      vertex -25 55 2.5
    endloop
  endfacet
  facet normal 0 0 -1
    outer loop
      vertex -25 55 -2.5
      vertex 25 65 -2.5
      vertex 25 55 -2.5
    endloop
  endfacet
  facet normal -0 0 -1
    outer loop
      vertex 25 65 -2.5
      vertex -25 55 -2.5
      vertex -25 65 -2.5
    endloop
  endfacet
  facet normal -1 0 0
    outer loop
      vertex -25 55 -2.5
      vertex -25 65 2.5
      vertex -25 65 -2.5
    endloop
  endfacet
  facet normal -1 -0 0
    outer loop
      vertex -25 65 2.5
      vertex -25 55 -2.5
      vertex -25 55 2.5
    endloop
  endfacet
  facet normal 0 1 -0
    outer loop
      vertex 25 65 -2.5
      vertex -25 65 2.5
      vertex 25 65 2.5
    endloop
  endfacet
  facet normal 0 1 0
    outer loop
      vertex -25 65 2.5
      vertex 25 65 -2.5
      vertex -25 65 -2.5
    endloop
  endfacet
  facet normal 0 -1 0
    outer loop
      vertex -25 55 -2.5
      vertex 25 55 2.5
      vertex -25 55 2.5
    endloop
  endfacet
  facet normal 0 -1 -0
    outer loop
      vertex 25 55 2.5
      vertex -25 55 -2.5
      vertex 25 55 -2.5
    endloop
  endfacet
  facet normal 1 -0 0
    outer loop
      vertex 25 -65 2.5
      vertex 25 -55 -2.5
      vertex 25 -55 2.5
    endloop
  endfacet
  facet normal 1 0 0
    outer loop
      vertex 25 -55 -2.5
      vertex 25 -65 2.5
      vertex 25 -65 -2.5
    endloop
  endfacet
  facet normal -0 0 1
    outer loop
      vertex -25 -55 2.5
      vertex 25 -65 2.5
      vertex 25 -55 2.5
    endloop
  endfacet
  facet normal 0 0 1
    outer loop
      vertex 25 -65 2.5
      vertex -25 -55 2.5
      vertex -25 -65 2.5
    endloop
  endfacet
  facet normal 0 0 -1
    outer loop
      vertex -25 -65 -2.5
      vertex 25 -55 -2.5
      vertex 25 -65 -2.5
    endloop
  endfacet
  facet normal -0 0 -1
    outer loop
      vertex 25 -55 -2.5
      vertex -25 -65 -2.5
      vertex -25 -55 -2.5
    endloop
  endfacet
  facet normal -1 0 0
    outer loop
      vertex -25 -65 -2.5
      vertex -25 -55 2.5
      vertex -25 -55 -2.5
    endloop
  endfacet
  facet normal -1 -0 0
    outer loop
      vertex -25 -55 2.5
      vertex -25 -65 -2.5
      vertex -25 -65 2.5
    endloop
  endfacet
  facet normal 0 1 -0
    outer loop
      vertex 25 -55 -2.5
      vertex -25 -55 2.5
      vertex 25 -55 2.5
    endloop
  endfacet
  facet normal 0 1 0
    outer loop
      vertex -25 -55 2.5
      vertex 25 -55 -2.5
      vertex -25 -55 -2.5
    endloop
  endfacet
  facet normal 0 -1 0
    outer loop
      vertex -25 -65 -2.5
      vertex 25 -65 2.5
      vertex -25 -65 2.5
    endloop
  endfacet
  facet normal 0 -1 -0
    outer loop
      vertex 25 -65 2.5
      vertex -25 -65 -2.5
      vertex 25 -65 -2.5
    endloop
  endfacet
  facet normal 1 -0 0
    outer loop
      vertex 85 55 2.5
      vertex 85 65 -2.5
      vertex 85 65 2.5
    endloop
  endfacet
  facet normal 1 0 0
    outer loop
      vertex 85 65 -2.5
      vertex 85 55 2.5
      vertex 85 55 -2.5
    endloop
  endfacet
  facet normal -0 0 1
    outer loop
      vertex 35 65 2.5
      vertex 85 55 2.5
      vertex 85 65 2.5
    endloop
  endfacet
  facet normal 0 0 1
    outer loop
      vertex 85 55 2.5
      vertex 35 65 2.5
      vertex 35 55 2.5
    endloop
  endfacet
  facet normal 0 0 -1
    outer loop
      vertex 35 55 -2.5
      vertex 85 65 -2.5
      vertex 85 55 -2.5
    endloop
  endfacet
  facet normal -0 0 -1
    outer loop
      vertex 85 65 -2.5
      vertex 35 55 -2.5
      vertex 35 65 -2.5
    endloop
  endfacet
  facet normal -1 0 0
    outer loop
      vertex 35 55 -2.5
      vertex 35 65 2.5
      vertex 35 65 -2.5
    endloop
  endfacet
  facet normal -1 -0 0
    outer loop
      vertex 35 65 2.5
      vertex 35 55 -2.5
      vertex 35 55 2.5
    endloop
  endfacet
  facet normal 0 1 -0
    outer loop
      vertex 85 65 -2.5
      vertex 35 65 2.5
      vertex 85 65 2.5
    endloop
  endfacet
  facet normal 0 1 0
    outer loop
      vertex 35 65 2.5
      vertex 85 65 -2.5
      vertex 35 65 -2.5
    endloop
  endfacet
  facet normal 0 -1 0
    outer loop
      vertex 35 55 -2.5
      vertex 85 55 2.5
      vertex 35 55 2.5
    endloop
  endfacet
  facet normal 0 -1 -0
    outer loop
      vertex 85 55 2.5
      vertex 35 55 -2.5
      vertex 85 55 -2.5
    endloop
  endfacet
endsolid OpenSCAD_Model
