solid OpenSCAD_Model
  facet normal 0.879474 0.475947 0
    outer loop
      vertex 5.6749 1.9482 60
      vertex 4.73484 3.68528 -60
      vertex 4.73484 3.68528 60
    endloop
  endfacet
  facet normal 0.879474 0.475947 0
    outer loop
      vertex 4.73484 3.68528 -60
      vertex 5.6749 1.9482 60
      vertex 5.6749 1.9482 -60
    endloop
  endfacet
  facet normal 0.986361 0.164596 0
    outer loop
      vertex 6 0 60
      vertex 5.6749 1.9482 -60
      vertex 5.6749 1.9482 60
    endloop
  endfacet
  facet normal 0.986361 0.164596 0
    outer loop
      vertex 5.6749 1.9482 -60
      vertex 6 0 60
      vertex 6 0 -60
    endloop
  endfacet
  facet normal 0.677282 0.735724 -0
    outer loop
      vertex 4.73484 3.68528 -60
      vertex 3.28169 5.023 60
      vertex 4.73484 3.68528 60
    endloop
  endfacet
  facet normal 0.677282 0.735724 0
    outer loop
      vertex 3.28169 5.023 60
      vertex 4.73484 3.68528 -60
      vertex 3.28169 5.023 -60
    endloop
  endfacet
  facet normal -0.945816 0.324702 0
    outer loop
      vertex -5.91817 0.987567 -60
      vertex -5.27684 2.85568 60
      vertex -5.27684 2.85568 -60
    endloop
  endfacet
  facet normal -0.945816 0.324702 0
    outer loop
      vertex -5.27684 2.85568 60
      vertex -5.91817 0.987567 -60
      vertex -5.91817 0.987567 60
    endloop
  endfacet
  facet normal 0.401694 -0.915774 0
    outer loop
      vertex 1.47291 -5.8164 40.0373
      vertex 3.28169 -5.023 60
      vertex 1.47291 -5.8164 60
    endloop
  endfacet
  facet normal 0.401625 -0.915804 7.37694e-06
    outer loop
      vertex 1.5 -5.80452 40
      vertex 3.28169 -5.023 60
      vertex 1.47291 -5.8164 40.0373
    endloop
  endfacet
  facet normal 0.401617 -0.915808 0
    outer loop
      vertex 1.47291 -5.8164 -39.9627
      vertex 1.5 -5.80452 40
      vertex 1.47291 -5.8164 39.9627
    endloop
  endfacet
  facet normal 0.401617 -0.915808 0
    outer loop
      vertex 1.5 -5.80452 -40
      vertex 1.5 -5.80452 40
      vertex 1.47291 -5.8164 -39.9627
    endloop
  endfacet
  facet normal 0.401695 -0.915774 0
    outer loop
      vertex 1.5 -5.80452 40
      vertex 1.5 -5.80452 -40
      vertex 3.28169 -5.023 60
    endloop
  endfacet
  facet normal 0.401694 -0.915774 0
    outer loop
      vertex 3.28169 -5.023 -60
      vertex 1.47291 -5.8164 -40.0373
      vertex 1.47291 -5.8164 -60
    endloop
  endfacet
  facet normal 0.401625 -0.915804 -7.37694e-06
    outer loop
      vertex 1.47291 -5.8164 -40.0373
      vertex 3.28169 -5.023 -60
      vertex 1.5 -5.80452 -40
    endloop
  endfacet
  facet normal 0.401695 -0.915774 0
    outer loop
      vertex 1.5 -5.80452 -40
      vertex 3.28169 -5.023 -60
      vertex 3.28169 -5.023 60
    endloop
  endfacet
  facet normal 0 0 -1
    outer loop
      vertex 5.6749 -1.9482 -60
      vertex 5.6749 1.9482 -60
      vertex 6 0 -60
    endloop
  endfacet
  facet normal 0 0 -1
    outer loop
      vertex 4.73484 -3.68528 -60
      vertex 5.6749 1.9482 -60
      vertex 5.6749 -1.9482 -60
    endloop
  endfacet
  facet normal 0 0 -1
    outer loop
      vertex 4.73484 -3.68528 -60
      vertex 4.73484 3.68528 -60
      vertex 5.6749 1.9482 -60
    endloop
  endfacet
  facet normal 0 0 -1
    outer loop
      vertex 3.28169 -5.023 -60
      vertex 4.73484 3.68528 -60
      vertex 4.73484 -3.68528 -60
    endloop
  endfacet
  facet normal 0 0 -1
    outer loop
      vertex 3.28169 -5.023 -60
      vertex 3.28169 5.023 -60
      vertex 4.73484 3.68528 -60
    endloop
  endfacet
  facet normal 0 0 -1
    outer loop
      vertex 1.47291 -5.8164 -60
      vertex 3.28169 5.023 -60
      vertex 3.28169 -5.023 -60
    endloop
  endfacet
  facet normal 0 0 -1
    outer loop
      vertex 1.47291 -5.8164 -60
      vertex 1.47291 5.8164 -60
      vertex 3.28169 5.023 -60
    endloop
  endfacet
  facet normal 0 0 -1
    outer loop
      vertex -0.495476 -5.97951 -60
      vertex 1.47291 5.8164 -60
      vertex 1.47291 -5.8164 -60
    endloop
  endfacet
  facet normal 0 0 -1
    outer loop
      vertex -0.495476 -5.97951 -60
      vertex -0.495476 5.97951 -60
      vertex 1.47291 5.8164 -60
    endloop
  endfacet
  facet normal 0 0 -1
    outer loop
      vertex -2.41017 -5.49464 -60
      vertex -0.495476 5.97951 -60
      vertex -0.495476 -5.97951 -60
    endloop
  endfacet
  facet normal 0 0 -1
    outer loop
      vertex -2.41017 -5.49464 -60
      vertex -2.41017 5.49464 -60
      vertex -0.495476 5.97951 -60
    endloop
  endfacet
  facet normal 0 0 -1
    outer loop
      vertex -4.06369 -4.41434 -60
      vertex -2.41017 5.49464 -60
      vertex -2.41017 -5.49464 -60
    endloop
  endfacet
  facet normal 0 0 -1
    outer loop
      vertex -4.06369 -4.41434 -60
      vertex -4.06369 4.41434 -60
      vertex -2.41017 5.49464 -60
    endloop
  endfacet
  facet normal 0 0 -1
    outer loop
      vertex -5.27684 -2.85568 -60
      vertex -4.06369 4.41434 -60
      vertex -4.06369 -4.41434 -60
    endloop
  endfacet
  facet normal 0 0 -1
    outer loop
      vertex -5.27684 -2.85568 -60
      vertex -5.27684 2.85568 -60
      vertex -4.06369 4.41434 -60
    endloop
  endfacet
  facet normal 0 0 -1
    outer loop
      vertex -5.91817 -0.987567 -60
      vertex -5.27684 2.85568 -60
      vertex -5.27684 -2.85568 -60
    endloop
  endfacet
  facet normal 0 0 -1
    outer loop
      vertex -5.27684 2.85568 -60
      vertex -5.91817 -0.987567 -60
      vertex -5.91817 0.987567 -60
    endloop
  endfacet
  facet normal -0.245487 -0.9694 0
    outer loop
      vertex -2.41017 -5.49464 60
      vertex -0.495476 -5.97951 41.115
      vertex -0.495476 -5.97951 60
    endloop
  endfacet
  facet normal -0.245494 -0.969398 -6.895e-07
    outer loop
      vertex -2.41017 -5.49464 60
      vertex -1.21352 -5.79767 40.8817
      vertex -0.495476 -5.97951 41.115
    endloop
  endfacet
  facet normal -0.245483 -0.969401 0
    outer loop
      vertex -2.41017 -5.49464 60
      vertex -1.21352 -5.79767 39.1183
      vertex -1.21352 -5.79767 40.8817
    endloop
  endfacet
  facet normal -0.245494 -0.969398 0
    outer loop
      vertex -1.21352 -5.79767 39.1183
      vertex -0.495476 -5.97951 -38.885
      vertex -0.495476 -5.97951 38.885
    endloop
  endfacet
  facet normal -0.245483 -0.969401 0
    outer loop
      vertex -1.21352 -5.79767 -39.1183
      vertex -1.21352 -5.79767 39.1183
      vertex -2.41017 -5.49464 60
    endloop
  endfacet
  facet normal -0.245494 -0.969398 -0
    outer loop
      vertex -1.21352 -5.79767 39.1183
      vertex -1.21352 -5.79767 -39.1183
      vertex -0.495476 -5.97951 -38.885
    endloop
  endfacet
  facet normal -0.245483 -0.969401 0
    outer loop
      vertex -2.41017 -5.49464 -60
      vertex -1.21352 -5.79767 -39.1183
      vertex -2.41017 -5.49464 60
    endloop
  endfacet
  facet normal -0.245483 -0.969401 -0
    outer loop
      vertex -1.21352 -5.79767 -39.1183
      vertex -2.41017 -5.49464 -60
      vertex -1.21352 -5.79767 -40.8817
    endloop
  endfacet
  facet normal -0.245494 -0.969398 6.895e-07
    outer loop
      vertex -2.41017 -5.49464 -60
      vertex -0.495476 -5.97951 -41.115
      vertex -1.21352 -5.79767 -40.8817
    endloop
  endfacet
  facet normal -0.245487 -0.9694 -0
    outer loop
      vertex -0.495476 -5.97951 -41.115
      vertex -2.41017 -5.49464 -60
      vertex -0.495476 -5.97951 -60
    endloop
  endfacet
  facet normal -0.546949 -0.837166 0
    outer loop
      vertex -4.06369 -4.41434 -60
      vertex -2.41017 -5.49464 60
      vertex -4.06369 -4.41434 60
    endloop
  endfacet
  facet normal -0.546949 -0.837166 -0
    outer loop
      vertex -2.41017 -5.49464 60
      vertex -4.06369 -4.41434 -60
      vertex -2.41017 -5.49464 -60
    endloop
  endfacet
  facet normal -0.546949 0.837166 0
    outer loop
      vertex -2.41017 5.49464 -60
      vertex -4.06369 4.41434 60
      vertex -2.41017 5.49464 60
    endloop
  endfacet
  facet normal -0.546949 0.837166 0
    outer loop
      vertex -4.06369 4.41434 60
      vertex -2.41017 5.49464 -60
      vertex -4.06369 4.41434 -60
    endloop
  endfacet
  facet normal 0.401694 0.915774 0
    outer loop
      vertex 3.28169 5.023 60
      vertex 1.47291 5.8164 40.0373
      vertex 1.47291 5.8164 60
    endloop
  endfacet
  facet normal 0.401625 0.915804 7.37694e-06
    outer loop
      vertex 3.28169 5.023 60
      vertex 1.5 5.80452 40
      vertex 1.47291 5.8164 40.0373
    endloop
  endfacet
  facet normal 0.401617 0.915808 0
    outer loop
      vertex 1.5 5.80452 40
      vertex 1.47291 5.8164 -39.9627
      vertex 1.47291 5.8164 39.9627
    endloop
  endfacet
  facet normal 0.401695 0.915774 -0
    outer loop
      vertex 1.5 5.80452 -40
      vertex 1.5 5.80452 40
      vertex 3.28169 5.023 60
    endloop
  endfacet
  facet normal 0.401617 0.915808 0
    outer loop
      vertex 1.5 5.80452 40
      vertex 1.5 5.80452 -40
      vertex 1.47291 5.8164 -39.9627
    endloop
  endfacet
  facet normal 0.401695 0.915774 -0
    outer loop
      vertex 3.28169 5.023 -60
      vertex 1.5 5.80452 -40
      vertex 3.28169 5.023 60
    endloop
  endfacet
  facet normal 0.401625 0.915804 -7.37694e-06
    outer loop
      vertex 3.28169 5.023 -60
      vertex 1.47291 5.8164 -40.0373
      vertex 1.5 5.80452 -40
    endloop
  endfacet
  facet normal 0.401694 0.915774 0
    outer loop
      vertex 1.47291 5.8164 -40.0373
      vertex 3.28169 5.023 -60
      vertex 1.47291 5.8164 -60
    endloop
  endfacet
  facet normal 0.0825793 0.996584 0
    outer loop
      vertex 1.47291 5.8164 -40.0373
      vertex 1.47291 5.8164 -60
      vertex 0.463525 5.90004 -41.4266
    endloop
  endfacet
  facet normal 0.0825818 0.996584 1.35814e-07
    outer loop
      vertex -0.495476 5.97951 -60
      vertex 0.463525 5.90004 -41.4266
      vertex 1.47291 5.8164 -60
    endloop
  endfacet
  facet normal 0.0825844 0.996584 0
    outer loop
      vertex 0.463525 5.90004 -41.4266
      vertex -0.495476 5.97951 -60
      vertex -0.495476 5.97951 -41.115
    endloop
  endfacet
  facet normal 0.0825818 0.996584 -1.35814e-07
    outer loop
      vertex 1.47291 5.8164 60
      vertex 0.463525 5.90004 41.4266
      vertex -0.495476 5.97951 60
    endloop
  endfacet
  facet normal 0.0825793 0.996584 0
    outer loop
      vertex 0.463525 5.90004 41.4266
      vertex 1.47291 5.8164 60
      vertex 1.47291 5.8164 40.0373
    endloop
  endfacet
  facet normal 0.0825844 0.996584 0
    outer loop
      vertex -0.495476 5.97951 60
      vertex 0.463525 5.90004 41.4266
      vertex -0.495476 5.97951 41.115
    endloop
  endfacet
  facet normal 0.0825793 0.996584 0
    outer loop
      vertex 1.47291 5.8164 39.9627
      vertex 0.463525 5.90004 -38.5734
      vertex 0.463525 5.90004 38.5734
    endloop
  endfacet
  facet normal 0.0825793 0.996584 0
    outer loop
      vertex 0.463525 5.90004 -38.5734
      vertex 1.47291 5.8164 39.9627
      vertex 1.47291 5.8164 -39.9627
    endloop
  endfacet
  facet normal 0.0825844 0.996584 -0
    outer loop
      vertex 0.463525 5.90004 -38.5734
      vertex -0.495476 5.97951 38.885
      vertex 0.463525 5.90004 38.5734
    endloop
  endfacet
  facet normal 0.0825844 0.996584 0
    outer loop
      vertex -0.495476 5.97951 38.885
      vertex 0.463525 5.90004 -38.5734
      vertex -0.495476 5.97951 -38.885
    endloop
  endfacet
  facet normal -0.245487 0.9694 0
    outer loop
      vertex -0.495476 5.97951 41.115
      vertex -2.41017 5.49464 60
      vertex -0.495476 5.97951 60
    endloop
  endfacet
  facet normal -0.245494 0.969398 -6.895e-07
    outer loop
      vertex -1.21352 5.79767 40.8817
      vertex -2.41017 5.49464 60
      vertex -0.495476 5.97951 41.115
    endloop
  endfacet
  facet normal -0.245483 0.969401 0
    outer loop
      vertex -1.21352 5.79767 39.1183
      vertex -2.41017 5.49464 60
      vertex -1.21352 5.79767 40.8817
    endloop
  endfacet
  facet normal -0.245494 0.969398 0
    outer loop
      vertex -0.495476 5.97951 -38.885
      vertex -1.21352 5.79767 39.1183
      vertex -0.495476 5.97951 38.885
    endloop
  endfacet
  facet normal -0.245494 0.969398 0
    outer loop
      vertex -1.21352 5.79767 -39.1183
      vertex -1.21352 5.79767 39.1183
      vertex -0.495476 5.97951 -38.885
    endloop
  endfacet
  facet normal -0.245483 0.969401 0
    outer loop
      vertex -1.21352 5.79767 39.1183
      vertex -1.21352 5.79767 -39.1183
      vertex -2.41017 5.49464 60
    endloop
  endfacet
  facet normal -0.245483 0.969401 0
    outer loop
      vertex -2.41017 5.49464 -60
      vertex -1.21352 5.79767 -39.1183
      vertex -1.21352 5.79767 -40.8817
    endloop
  endfacet
  facet normal -0.245487 0.9694 0
    outer loop
      vertex -2.41017 5.49464 -60
      vertex -0.495476 5.97951 -41.115
      vertex -0.495476 5.97951 -60
    endloop
  endfacet
  facet normal -0.245483 0.969401 0
    outer loop
      vertex -1.21352 5.79767 -39.1183
      vertex -2.41017 5.49464 -60
      vertex -2.41017 5.49464 60
    endloop
  endfacet
  facet normal -0.245494 0.969398 6.895e-07
    outer loop
      vertex -0.495476 5.97951 -41.115
      vertex -2.41017 5.49464 -60
      vertex -1.21352 5.79767 -40.8817
    endloop
  endfacet
  facet normal -1 0 0
    outer loop
      vertex -5.91817 -0.987567 -60
      vertex -5.91817 0.987567 60
      vertex -5.91817 0.987567 -60
    endloop
  endfacet
  facet normal -1 -0 0
    outer loop
      vertex -5.91817 0.987567 60
      vertex -5.91817 -0.987567 -60
      vertex -5.91817 -0.987567 60
    endloop
  endfacet
  facet normal 0.677282 -0.735724 0
    outer loop
      vertex 3.28169 -5.023 -60
      vertex 4.73484 -3.68528 60
      vertex 3.28169 -5.023 60
    endloop
  endfacet
  facet normal 0.677282 -0.735724 0
    outer loop
      vertex 4.73484 -3.68528 60
      vertex 3.28169 -5.023 -60
      vertex 4.73484 -3.68528 -60
    endloop
  endfacet
  facet normal 0.986361 -0.164596 0
    outer loop
      vertex 5.6749 -1.9482 60
      vertex 6 0 -60
      vertex 6 0 60
    endloop
  endfacet
  facet normal 0.986361 -0.164596 0
    outer loop
      vertex 6 0 -60
      vertex 5.6749 -1.9482 60
      vertex 5.6749 -1.9482 -60
    endloop
  endfacet
  facet normal -0.945816 -0.324702 0
    outer loop
      vertex -5.27684 -2.85568 -60
      vertex -5.91817 -0.987567 60
      vertex -5.91817 -0.987567 -60
    endloop
  endfacet
  facet normal -0.945816 -0.324702 0
    outer loop
      vertex -5.91817 -0.987567 60
      vertex -5.27684 -2.85568 -60
      vertex -5.27684 -2.85568 60
    endloop
  endfacet
  facet normal 0 0 1
    outer loop
      vertex 5.6749 1.9482 60
      vertex 5.6749 -1.9482 60
      vertex 6 0 60
    endloop
  endfacet
  facet normal 0 0 1
    outer loop
      vertex 4.73484 3.68528 60
      vertex 5.6749 -1.9482 60
      vertex 5.6749 1.9482 60
    endloop
  endfacet
  facet normal 0 0 1
    outer loop
      vertex 4.73484 3.68528 60
      vertex 4.73484 -3.68528 60
      vertex 5.6749 -1.9482 60
    endloop
  endfacet
  facet normal 0 0 1
    outer loop
      vertex 3.28169 5.023 60
      vertex 4.73484 -3.68528 60
      vertex 4.73484 3.68528 60
    endloop
  endfacet
  facet normal 0 0 1
    outer loop
      vertex 3.28169 5.023 60
      vertex 3.28169 -5.023 60
      vertex 4.73484 -3.68528 60
    endloop
  endfacet
  facet normal 0 0 1
    outer loop
      vertex 1.47291 5.8164 60
      vertex 3.28169 -5.023 60
      vertex 3.28169 5.023 60
    endloop
  endfacet
  facet normal 0 0 1
    outer loop
      vertex 1.47291 5.8164 60
      vertex 1.47291 -5.8164 60
      vertex 3.28169 -5.023 60
    endloop
  endfacet
  facet normal 0 0 1
    outer loop
      vertex -0.495476 5.97951 60
      vertex 1.47291 -5.8164 60
      vertex 1.47291 5.8164 60
    endloop
  endfacet
  facet normal 0 0 1
    outer loop
      vertex -0.495476 5.97951 60
      vertex -0.495476 -5.97951 60
      vertex 1.47291 -5.8164 60
    endloop
  endfacet
  facet normal -0 0 1
    outer loop
      vertex -2.41017 5.49464 60
      vertex -0.495476 -5.97951 60
      vertex -0.495476 5.97951 60
    endloop
  endfacet
  facet normal 0 0 1
    outer loop
      vertex -2.41017 5.49464 60
      vertex -2.41017 -5.49464 60
      vertex -0.495476 -5.97951 60
    endloop
  endfacet
  facet normal -0 0 1
    outer loop
      vertex -4.06369 4.41434 60
      vertex -2.41017 -5.49464 60
      vertex -2.41017 5.49464 60
    endloop
  endfacet
  facet normal 0 0 1
    outer loop
      vertex -4.06369 4.41434 60
      vertex -4.06369 -4.41434 60
      vertex -2.41017 -5.49464 60
    endloop
  endfacet
  facet normal -0 0 1
    outer loop
      vertex -5.27684 2.85568 60
      vertex -4.06369 -4.41434 60
      vertex -4.06369 4.41434 60
    endloop
  endfacet
  facet normal 0 0 1
    outer loop
      vertex -5.27684 2.85568 60
      vertex -5.27684 -2.85568 60
      vertex -4.06369 -4.41434 60
    endloop
  endfacet
  facet normal -0 0 1
    outer loop
      vertex -5.91817 0.987567 60
      vertex -5.27684 -2.85568 60
      vertex -5.27684 2.85568 60
    endloop
  endfacet
  facet normal 0 0 1
    outer loop
      vertex -5.27684 -2.85568 60
      vertex -5.91817 0.987567 60
      vertex -5.91817 -0.987567 60
    endloop
  endfacet
  facet normal -0.789141 -0.614212 0
    outer loop
      vertex -4.06369 -4.41434 -60
      vertex -5.27684 -2.85568 60
      vertex -5.27684 -2.85568 -60
    endloop
  endfacet
  facet normal -0.789141 -0.614212 0
    outer loop
      vertex -5.27684 -2.85568 60
      vertex -4.06369 -4.41434 -60
      vertex -4.06369 -4.41434 60
    endloop
  endfacet
  facet normal 0.879474 -0.475947 0
    outer loop
      vertex 4.73484 -3.68528 60
      vertex 5.6749 -1.9482 -60
      vertex 5.6749 -1.9482 60
    endloop
  endfacet
  facet normal 0.879474 -0.475947 0
    outer loop
      vertex 5.6749 -1.9482 -60
      vertex 4.73484 -3.68528 60
      vertex 4.73484 -3.68528 -60
    endloop
  endfacet
  facet normal -0.789141 0.614212 0
    outer loop
      vertex -5.27684 2.85568 -60
      vertex -4.06369 4.41434 60
      vertex -4.06369 4.41434 -60
    endloop
  endfacet
  facet normal -0.789141 0.614212 0
    outer loop
      vertex -4.06369 4.41434 60
      vertex -5.27684 2.85568 -60
      vertex -5.27684 2.85568 60
    endloop
  endfacet
  facet normal 0.0825818 -0.996584 -1.35814e-07
    outer loop
      vertex -0.495476 -5.97951 60
      vertex 0.463525 -5.90004 41.4266
      vertex 1.47291 -5.8164 60
    endloop
  endfacet
  facet normal 0.0825844 -0.996584 0
    outer loop
      vertex 0.463525 -5.90004 41.4266
      vertex -0.495476 -5.97951 60
      vertex -0.495476 -5.97951 41.115
    endloop
  endfacet
  facet normal 0.0825793 -0.996584 0
    outer loop
      vertex 1.47291 -5.8164 60
      vertex 0.463525 -5.90004 41.4266
      vertex 1.47291 -5.8164 40.0373
    endloop
  endfacet
  facet normal 0.0825844 -0.996584 0
    outer loop
      vertex -0.495476 -5.97951 -41.115
      vertex -0.495476 -5.97951 -60
      vertex 0.463525 -5.90004 -41.4266
    endloop
  endfacet
  facet normal 0.0825818 -0.996584 1.35814e-07
    outer loop
      vertex 1.47291 -5.8164 -60
      vertex 0.463525 -5.90004 -41.4266
      vertex -0.495476 -5.97951 -60
    endloop
  endfacet
  facet normal 0.0825793 -0.996584 0
    outer loop
      vertex 0.463525 -5.90004 -41.4266
      vertex 1.47291 -5.8164 -60
      vertex 1.47291 -5.8164 -40.0373
    endloop
  endfacet
  facet normal 0.0825844 -0.996584 0
    outer loop
      vertex -0.495476 -5.97951 38.885
      vertex 0.463525 -5.90004 -38.5734
      vertex 0.463525 -5.90004 38.5734
    endloop
  endfacet
  facet normal 0.0825844 -0.996584 0
    outer loop
      vertex 0.463525 -5.90004 -38.5734
      vertex -0.495476 -5.97951 38.885
      vertex -0.495476 -5.97951 -38.885
    endloop
  endfacet
  facet normal 0.0825793 -0.996584 0
    outer loop
      vertex 0.463525 -5.90004 -38.5734
      vertex 1.47291 -5.8164 39.9627
      vertex 0.463525 -5.90004 38.5734
    endloop
  endfacet
  facet normal 0.0825793 -0.996584 0
    outer loop
      vertex 1.47291 -5.8164 39.9627
      vertex 0.463525 -5.90004 -38.5734
      vertex 1.47291 -5.8164 -39.9627
    endloop
  endfacet
  facet normal 0.309016 -3.11356e-05 0.951057
    outer loop
      vertex -1.21352 5.79767 -40.8817
      vertex 0.463525 5.90004 -41.4266
      vertex -0.495476 5.97951 -41.115
    endloop
  endfacet
  facet normal 0.309014 0 0.951057
    outer loop
      vertex 0.463525 5.90004 -41.4266
      vertex -1.21352 5.79767 -40.8817
      vertex 0.463525 -5.90004 -41.4266
    endloop
  endfacet
  facet normal 0.309014 -0 0.951057
    outer loop
      vertex -1.21352 -5.79767 -40.8817
      vertex 0.463525 -5.90004 -41.4266
      vertex -1.21352 5.79767 -40.8817
    endloop
  endfacet
  facet normal 0.309016 3.11356e-05 0.951057
    outer loop
      vertex 0.463525 -5.90004 -41.4266
      vertex -1.21352 -5.79767 -40.8817
      vertex -0.495476 -5.97951 -41.115
    endloop
  endfacet
  facet normal 0.309016 3.11356e-05 -0.951057
    outer loop
      vertex -1.21352 -5.79767 -39.1183
      vertex 0.463525 -5.90004 -38.5734
      vertex -0.495476 -5.97951 -38.885
    endloop
  endfacet
  facet normal 0.309014 0 -0.951057
    outer loop
      vertex 0.463525 -5.90004 -38.5734
      vertex -1.21352 -5.79767 -39.1183
      vertex 0.463525 5.90004 -38.5734
    endloop
  endfacet
  facet normal 0.309014 0 -0.951057
    outer loop
      vertex -1.21352 5.79767 -39.1183
      vertex 0.463525 5.90004 -38.5734
      vertex -1.21352 -5.79767 -39.1183
    endloop
  endfacet
  facet normal 0.309016 -3.11356e-05 -0.951057
    outer loop
      vertex 0.463525 5.90004 -38.5734
      vertex -1.21352 5.79767 -39.1183
      vertex -0.495476 5.97951 -38.885
    endloop
  endfacet
  facet normal -0.808993 0.000841533 -0.587818
    outer loop
      vertex 1.5 5.80452 -40
      vertex 0.463525 5.90004 -38.5734
      vertex 1.47291 5.8164 -39.9627
    endloop
  endfacet
  facet normal -0.80902 0 -0.587781
    outer loop
      vertex 1.5 -5.80452 -40
      vertex 0.463525 5.90004 -38.5734
      vertex 1.5 5.80452 -40
    endloop
  endfacet
  facet normal -0.808993 -0.000841533 -0.587818
    outer loop
      vertex 0.463525 -5.90004 -38.5734
      vertex 1.5 -5.80452 -40
      vertex 1.47291 -5.8164 -39.9627
    endloop
  endfacet
  facet normal -0.80902 0 -0.587781
    outer loop
      vertex 1.5 -5.80452 -40
      vertex 0.463525 -5.90004 -38.5734
      vertex 0.463525 5.90004 -38.5734
    endloop
  endfacet
  facet normal 1 -0 0
    outer loop
      vertex -1.21352 -5.79767 -39.1183
      vertex -1.21352 5.79767 -40.8817
      vertex -1.21352 5.79767 -39.1183
    endloop
  endfacet
  facet normal 1 0 0
    outer loop
      vertex -1.21352 5.79767 -40.8817
      vertex -1.21352 -5.79767 -39.1183
      vertex -1.21352 -5.79767 -40.8817
    endloop
  endfacet
  facet normal -0.808993 0.000841533 0.587818
    outer loop
      vertex 0.463525 5.90004 -41.4266
      vertex 1.5 5.80452 -40
      vertex 1.47291 5.8164 -40.0373
    endloop
  endfacet
  facet normal -0.80902 0 0.587781
    outer loop
      vertex 0.463525 5.90004 -41.4266
      vertex 1.5 -5.80452 -40
      vertex 1.5 5.80452 -40
    endloop
  endfacet
  facet normal -0.80902 0 0.587781
    outer loop
      vertex 0.463525 -5.90004 -41.4266
      vertex 1.5 -5.80452 -40
      vertex 0.463525 5.90004 -41.4266
    endloop
  endfacet
  facet normal -0.808993 -0.000841533 0.587818
    outer loop
      vertex 1.5 -5.80452 -40
      vertex 0.463525 -5.90004 -41.4266
      vertex 1.47291 -5.8164 -40.0373
    endloop
  endfacet
  facet normal 0.309016 -3.11356e-05 0.951057
    outer loop
      vertex -1.21352 5.79767 39.1183
      vertex 0.463525 5.90004 38.5734
      vertex -0.495476 5.97951 38.885
    endloop
  endfacet
  facet normal 0.309014 0 0.951057
    outer loop
      vertex 0.463525 5.90004 38.5734
      vertex -1.21352 5.79767 39.1183
      vertex 0.463525 -5.90004 38.5734
    endloop
  endfacet
  facet normal 0.309014 -0 0.951057
    outer loop
      vertex -1.21352 -5.79767 39.1183
      vertex 0.463525 -5.90004 38.5734
      vertex -1.21352 5.79767 39.1183
    endloop
  endfacet
  facet normal 0.309016 3.11356e-05 0.951057
    outer loop
      vertex 0.463525 -5.90004 38.5734
      vertex -1.21352 -5.79767 39.1183
      vertex -0.495476 -5.97951 38.885
    endloop
  endfacet
  facet normal 0.309016 3.11356e-05 -0.951057
    outer loop
      vertex -1.21352 -5.79767 40.8817
      vertex 0.463525 -5.90004 41.4266
      vertex -0.495476 -5.97951 41.115
    endloop
  endfacet
  facet normal 0.309014 0 -0.951057
    outer loop
      vertex 0.463525 -5.90004 41.4266
      vertex -1.21352 -5.79767 40.8817
      vertex 0.463525 5.90004 41.4266
    endloop
  endfacet
  facet normal 0.309014 0 -0.951057
    outer loop
      vertex -1.21352 5.79767 40.8817
      vertex 0.463525 5.90004 41.4266
      vertex -1.21352 -5.79767 40.8817
    endloop
  endfacet
  facet normal 0.309016 -3.11356e-05 -0.951057
    outer loop
      vertex 0.463525 5.90004 41.4266
      vertex -1.21352 5.79767 40.8817
      vertex -0.495476 5.97951 41.115
    endloop
  endfacet
  facet normal -0.808993 0.000841533 -0.587818
    outer loop
      vertex 1.5 5.80452 40
      vertex 0.463525 5.90004 41.4266
      vertex 1.47291 5.8164 40.0373
    endloop
  endfacet
  facet normal -0.80902 0 -0.587781
    outer loop
      vertex 1.5 -5.80452 40
      vertex 0.463525 5.90004 41.4266
      vertex 1.5 5.80452 40
    endloop
  endfacet
  facet normal -0.808993 -0.000841533 -0.587818
    outer loop
      vertex 0.463525 -5.90004 41.4266
      vertex 1.5 -5.80452 40
      vertex 1.47291 -5.8164 40.0373
    endloop
  endfacet
  facet normal -0.80902 0 -0.587781
    outer loop
      vertex 1.5 -5.80452 40
      vertex 0.463525 -5.90004 41.4266
      vertex 0.463525 5.90004 41.4266
    endloop
  endfacet
  facet normal 1 -0 0
    outer loop
      vertex -1.21352 -5.79767 40.8817
      vertex -1.21352 5.79767 39.1183
      vertex -1.21352 5.79767 40.8817
    endloop
  endfacet
  facet normal 1 0 0
    outer loop
      vertex -1.21352 5.79767 39.1183
      vertex -1.21352 -5.79767 40.8817
      vertex -1.21352 -5.79767 39.1183
    endloop
  endfacet
  facet normal -0.808993 0.000841533 0.587818
    outer loop
      vertex 0.463525 5.90004 38.5734
      vertex 1.5 5.80452 40
      vertex 1.47291 5.8164 39.9627
    endloop
  endfacet
  facet normal -0.80902 0 0.587781
    outer loop
      vertex 0.463525 5.90004 38.5734
      vertex 1.5 -5.80452 40
      vertex 1.5 5.80452 40
    endloop
  endfacet
  facet normal -0.80902 0 0.587781
    outer loop
      vertex 0.463525 -5.90004 38.5734
      vertex 1.5 -5.80452 40
      vertex 0.463525 5.90004 38.5734
    endloop
  endfacet
  facet normal -0.808993 -0.000841533 0.587818
    outer loop
      vertex 1.5 -5.80452 40
      vertex 0.463525 -5.90004 38.5734
      vertex 1.47291 -5.8164 39.9627
    endloop
  endfacet
endsolid OpenSCAD_Model
