solid OpenSCAD_Model
  facet normal 1 -0 0
    outer loop
      vertex 5 -1 80
      vertex 5 1 7.5
      vertex 5 1 80
    endloop
  endfacet
  facet normal 1 0 0
    outer loop
      vertex 5 1 7.5
      vertex 5 -1 80
      vertex 5 -1 7.5
    endloop
  endfacet
  facet normal -0 0 1
    outer loop
      vertex -5 1 80
      vertex 5 -1 80
      vertex 5 1 80
    endloop
  endfacet
  facet normal 0 0 1
    outer loop
      vertex 5 -1 80
      vertex -5 1 80
      vertex -5 -1 80
    endloop
  endfacet
  facet normal -1 0 0
    outer loop
      vertex -5 -1 7.5
      vertex -5 1 80
      vertex -5 1 7.5
    endloop
  endfacet
  facet normal -1 -0 0
    outer loop
      vertex -5 1 80
      vertex -5 -1 7.5
      vertex -5 -1 80
    endloop
  endfacet
  facet normal 0 1 -0
    outer loop
      vertex 5 1 7.5
      vertex -5 1 80
      vertex 5 1 80
    endloop
  endfacet
  facet normal 0 1 0
    outer loop
      vertex -5 1 80
      vertex 5 1 7.5
      vertex -5 1 7.5
    endloop
  endfacet
  facet normal 0 -1 0
    outer loop
      vertex -5 -1 7.5
      vertex 5 -1 80
      vertex -5 -1 80
    endloop
  endfacet
  facet normal 0 -1 -0
    outer loop
      vertex 5 -1 80
      vertex -5 -1 7.5
      vertex 5 -1 7.5
    endloop
  endfacet
  facet normal 0 0 -1
    outer loop
      vertex -5 -1 7.5
      vertex 5 1 7.5
      vertex 5 -1 7.5
    endloop
  endfacet
  facet normal -0 0 -1
    outer loop
      vertex 5 1 7.5
      vertex -5 -1 7.5
      vertex -5 1 7.5
    endloop
  endfacet
  facet normal 1 -0 0
    outer loop
      vertex 5 -5 5
      vertex 5 5 -5
      vertex 5 5 5
    endloop
  endfacet
  facet normal 1 0 0
    outer loop
      vertex 5 5 -5
      vertex 5 -5 5
      vertex 5 -5 -5
    endloop
  endfacet
  facet normal -0 0 1
    outer loop
      vertex -5 5 5
      vertex 5 -5 5
      vertex 5 5 5
    endloop
  endfacet
  facet normal 0 0 1
    outer loop
      vertex 5 -5 5
      vertex -5 5 5
      vertex -5 -5 5
    endloop
  endfacet
  facet normal 0 0 -1
    outer loop
      vertex -5 -5 -5
      vertex 5 5 -5
      vertex 5 -5 -5
    endloop
  endfacet
  facet normal -0 0 -1
    outer loop
      vertex 5 5 -5
      vertex -5 -5 -5
      vertex -5 5 -5
    endloop
  endfacet
  facet normal -1 0 0
    outer loop
      vertex -5 -5 -5
      vertex -5 5 5
      vertex -5 5 -5
    endloop
  endfacet
  facet normal -1 -0 0
    outer loop
      vertex -5 5 5
      vertex -5 -5 -5
      vertex -5 -5 5
    endloop
  endfacet
  facet normal 0 1 -0
    outer loop
      vertex 5 5 -5
      vertex -5 5 5
      vertex 5 5 5
    endloop
  endfacet
  facet normal 0 1 0
    outer loop
      vertex -5 5 5
      vertex 5 5 -5
      vertex -5 5 -5
    endloop
  endfacet
  facet normal 0 -1 0
    outer loop
      vertex -5 -5 -5
      vertex 5 -5 5
      vertex -5 -5 5
    endloop
  endfacet
  facet normal 0 -1 -0
    outer loop
      vertex 5 -5 5
      vertex -5 -5 -5
      vertex 5 -5 -5
    endloop
  endfacet
  facet normal 1 -0 0
    outer loop
      vertex 5 -1 -10
      vertex 5 1 -30
      vertex 5 1 -10
    endloop
  endfacet
  facet normal 1 0 0
    outer loop
      vertex 5 1 -30
      vertex 5 -1 -10
      vertex 5 -1 -30
    endloop
  endfacet
  facet normal -0 0 1
    outer loop
      vertex -5 1 -10
      vertex 5 -1 -10
      vertex 5 1 -10
    endloop
  endfacet
  facet normal 0 0 1
    outer loop
      vertex 5 -1 -10
      vertex -5 1 -10
      vertex -5 -1 -10
    endloop
  endfacet
  facet normal 0 0 -1
    outer loop
      vertex -5 -1 -30
      vertex 5 1 -30
      vertex 5 -1 -30
    endloop
  endfacet
  facet normal -0 0 -1
    outer loop
      vertex 5 1 -30
      vertex -5 -1 -30
      vertex -5 1 -30
    endloop
  endfacet
  facet normal -1 0 0
    outer loop
      vertex -5 -1 -30
      vertex -5 1 -10
      vertex -5 1 -30
    endloop
  endfacet
  facet normal -1 -0 0
    outer loop
      vertex -5 1 -10
      vertex -5 -1 -30
      vertex -5 -1 -10
    endloop
  endfacet
  facet normal 0 1 -0
    outer loop
      vertex 5 1 -30
      vertex -5 1 -10
      vertex 5 1 -10
    endloop
  endfacet
  facet normal 0 1 0
    outer loop
      vertex -5 1 -10
      vertex 5 1 -30
      vertex -5 1 -30
    endloop
  endfacet
  facet normal 0 -1 0
    outer loop
      vertex -5 -1 -30
      vertex 5 -1 -10
      vertex -5 -1 -10
    endloop
  endfacet
  facet normal 0 -1 -0
    outer loop
      vertex 5 -1 -10
      vertex -5 -1 -30
      vertex 5 -1 -30
    endloop
  endfacet
  facet normal 1 -0 0
    outer loop
      vertex 5 -1 -32.5
      vertex 5 1 -47.5
      vertex 5 1 -32.5
    endloop
  endfacet
  facet normal 1 0 0
    outer loop
      vertex 5 1 -47.5
      vertex 5 -1 -32.5
      vertex 5 -1 -47.5
    endloop
  endfacet
  facet normal -0 0 1
    outer loop
      vertex -5 1 -32.5
      vertex 5 -1 -32.5
      vertex 5 1 -32.5
    endloop
  endfacet
  facet normal 0 0 1
    outer loop
      vertex 5 -1 -32.5
      vertex -5 1 -32.5
      vertex -5 -1 -32.5
    endloop
  endfacet
  facet normal 0 0 -1
    outer loop
      vertex -5 -1 -47.5
      vertex 5 1 -47.5
      vertex 5 -1 -47.5
    endloop
  endfacet
  facet normal -0 0 -1
    outer loop
      vertex 5 1 -47.5
      vertex -5 -1 -47.5
      vertex -5 1 -47.5
    endloop
  endfacet
  facet normal -1 0 0
    outer loop
      vertex -5 -1 -47.5
      vertex -5 1 -32.5
      vertex -5 1 -47.5
    endloop
  endfacet
  facet normal -1 -0 0
    outer loop
      vertex -5 1 -32.5
      vertex -5 -1 -47.5
      vertex -5 -1 -32.5
    endloop
  endfacet
  facet normal 0 1 -0
    outer loop
      vertex 5 1 -47.5
      vertex -5 1 -32.5
      vertex 5 1 -32.5
    endloop
  endfacet
  facet normal 0 1 0
    outer loop
      vertex -5 1 -32.5
      vertex 5 1 -47.5
      vertex -5 1 -47.5
    endloop
  endfacet
  facet normal 0 -1 0
    outer loop
      vertex -5 -1 -47.5
      vertex 5 -1 -32.5
      vertex -5 -1 -32.5
    endloop
  endfacet
  facet normal 0 -1 -0
    outer loop
      vertex 5 -1 -32.5
      vertex -5 -1 -47.5
      vertex 5 -1 -47.5
    endloop
  endfacet
endsolid OpenSCAD_Model
