solid OpenSCAD_Model
  facet normal 1 -0 0
    outer loop
      vertex 80 0 4
      vertex 80 10 0
      vertex 80 10 4
    endloop
  endfacet
  facet normal 1 0 0
    outer loop
      vertex 80 10 0
      vertex 80 0 4
      vertex 80 0 0
    endloop
  endfacet
  facet normal -0 0 1
    outer loop
      vertex 20 10 4
      vertex 80 0 4
      vertex 80 10 4
    endloop
  endfacet
  facet normal 0 0 1
    outer loop
      vertex 80 0 4
      vertex 20 10 4
      vertex 20 0 4
    endloop
  endfacet
  facet normal 0 0 -1
    outer loop
      vertex 75.6569 0 0
      vertex 80 10 0
      vertex 80 0 0
    endloop
  endfacet
  facet normal -0 0 -1
    outer loop
      vertex 80 10 0
      vertex 75.6569 0 0
      vertex 75.6569 10 0
    endloop
  endfacet
  facet normal 0 0 -1
    outer loop
      vertex 20 0 0
      vertex 70 10 0
      vertex 70 0 0
    endloop
  endfacet
  facet normal -0 0 -1
    outer loop
      vertex 70 10 0
      vertex 20 0 0
      vertex 20 10 0
    endloop
  endfacet
  facet normal -1 0 0
    outer loop
      vertex 20 0 0
      vertex 20 10 4
      vertex 20 10 0
    endloop
  endfacet
  facet normal -1 -0 0
    outer loop
      vertex 20 10 4
      vertex 20 0 0
      vertex 20 0 4
    endloop
  endfacet
  facet normal 0 1 0
    outer loop
      vertex 80 10 4
      vertex 72.8284 10 2.82843
      vertex 20 10 4
    endloop
  endfacet
  facet normal 0 1 0
    outer loop
      vertex 75.6569 10 0
      vertex 80 10 4
      vertex 80 10 0
    endloop
  endfacet
  facet normal 0 1 0
    outer loop
      vertex 80 10 4
      vertex 75.6569 10 0
      vertex 72.8284 10 2.82843
    endloop
  endfacet
  facet normal 0 1 -0
    outer loop
      vertex 70 10 0
      vertex 20 10 4
      vertex 72.8284 10 2.82843
    endloop
  endfacet
  facet normal 0 1 0
    outer loop
      vertex 20 10 4
      vertex 70 10 0
      vertex 20 10 0
    endloop
  endfacet
  facet normal 0 -1 0
    outer loop
      vertex 20 0 4
      vertex 72.8284 0 2.82843
      vertex 80 0 4
    endloop
  endfacet
  facet normal 0 -1 0
    outer loop
      vertex 70 0 0
      vertex 20 0 4
      vertex 20 0 0
    endloop
  endfacet
  facet normal 0 -1 0
    outer loop
      vertex 20 0 4
      vertex 70 0 0
      vertex 72.8284 0 2.82843
    endloop
  endfacet
  facet normal 0 -1 0
    outer loop
      vertex 75.6569 0 0
      vertex 80 0 4
      vertex 72.8284 0 2.82843
    endloop
  endfacet
  facet normal 0 -1 -0
    outer loop
      vertex 80 0 4
      vertex 75.6569 0 0
      vertex 80 0 0
    endloop
  endfacet
  facet normal -0.707098 0 -0.707116
    outer loop
      vertex 75.6569 0 0
      vertex 72.8284 10 2.82843
      vertex 75.6569 10 0
    endloop
  endfacet
  facet normal -0.707098 -0 -0.707116
    outer loop
      vertex 72.8284 10 2.82843
      vertex 75.6569 0 0
      vertex 72.8284 0 2.82843
    endloop
  endfacet
  facet normal 0.707111 0 -0.707103
    outer loop
      vertex 70 0 0
      vertex 72.8284 10 2.82843
      vertex 72.8284 0 2.82843
    endloop
  endfacet
  facet normal 0.707111 0 -0.707103
    outer loop
      vertex 72.8284 10 2.82843
      vertex 70 0 0
      vertex 70 10 0
    endloop
  endfacet
  facet normal 0.499998 0.866027 -0
    outer loop
      vertex 40 69.282 0
      vertex 31.3397 74.282 4
      vertex 40 69.282 4
    endloop
  endfacet
  facet normal 0.499998 0.866027 0
    outer loop
      vertex 31.3397 74.282 4
      vertex 40 69.282 0
      vertex 31.3397 74.282 0
    endloop
  endfacet
  facet normal 0 0 1
    outer loop
      vertex 31.3397 74.282 4
      vertex 10 17.3205 4
      vertex 40 69.282 4
    endloop
  endfacet
  facet normal 0 -0 1
    outer loop
      vertex 10 17.3205 4
      vertex 31.3397 74.282 4
      vertex 1.33975 22.3205 4
    endloop
  endfacet
  facet normal 0 0 -1
    outer loop
      vertex 37.8284 65.5208 0
      vertex 31.3397 74.282 0
      vertex 40 69.282 0
    endloop
  endfacet
  facet normal 0 -0 -1
    outer loop
      vertex 31.3397 74.282 0
      vertex 37.8284 65.5208 0
      vertex 29.1682 70.5208 0
    endloop
  endfacet
  facet normal 0 0 -1
    outer loop
      vertex 10 17.3205 0
      vertex 26.3397 65.6218 0
      vertex 35 60.6218 0
    endloop
  endfacet
  facet normal 0 0 -1
    outer loop
      vertex 26.3397 65.6218 0
      vertex 10 17.3205 0
      vertex 1.33975 22.3205 0
    endloop
  endfacet
  facet normal -0.5 -0.866025 0
    outer loop
      vertex 1.33975 22.3205 0
      vertex 10 17.3205 4
      vertex 1.33975 22.3205 4
    endloop
  endfacet
  facet normal -0.5 -0.866025 -0
    outer loop
      vertex 10 17.3205 4
      vertex 1.33975 22.3205 0
      vertex 10 17.3205 0
    endloop
  endfacet
  facet normal -0.866028 0.499995 0
    outer loop
      vertex 29.1682 70.5208 0
      vertex 31.3397 74.282 4
      vertex 31.3397 74.282 0
    endloop
  endfacet
  facet normal -0.866028 0.499995 8.89917e-09
    outer loop
      vertex 27.754 68.0713 2.82843
      vertex 31.3397 74.282 4
      vertex 29.1682 70.5208 0
    endloop
  endfacet
  facet normal -0.866026 0.499999 0
    outer loop
      vertex 1.33975 22.3205 4
      vertex 26.3397 65.6218 0
      vertex 1.33975 22.3205 0
    endloop
  endfacet
  facet normal -0.866025 0.500001 2.39045e-05
    outer loop
      vertex 26.3397 65.6218 0
      vertex 1.33975 22.3205 4
      vertex 27.754 68.0713 2.82843
    endloop
  endfacet
  facet normal -0.866026 0.5 -3.32733e-05
    outer loop
      vertex 27.754 68.0713 2.82843
      vertex 1.33975 22.3205 4
      vertex 31.3397 74.282 4
    endloop
  endfacet
  facet normal 0.866018 -0.500012 0
    outer loop
      vertex 40 69.282 4
      vertex 37.8284 65.5208 0
      vertex 40 69.282 0
    endloop
  endfacet
  facet normal 0.866023 -0.500004 -1.03891e-05
    outer loop
      vertex 40 69.282 4
      vertex 36.4142 63.0713 2.82843
      vertex 37.8284 65.5208 0
    endloop
  endfacet
  facet normal 0.866025 -0.5 -3.62292e-05
    outer loop
      vertex 10 17.3205 4
      vertex 36.4142 63.0713 2.82843
      vertex 40 69.282 4
    endloop
  endfacet
  facet normal 0.866026 -0.499999 5.2479e-06
    outer loop
      vertex 10 17.3205 4
      vertex 35 60.6218 0
      vertex 36.4142 63.0713 2.82843
    endloop
  endfacet
  facet normal 0.866026 -0.5 0
    outer loop
      vertex 35 60.6218 0
      vertex 10 17.3205 4
      vertex 10 17.3205 0
    endloop
  endfacet
  facet normal -0.353555 -0.612372 -0.707107
    outer loop
      vertex 36.4142 63.0713 2.82843
      vertex 29.1682 70.5208 0
      vertex 37.8284 65.5208 0
    endloop
  endfacet
  facet normal -0.353555 -0.612372 -0.707107
    outer loop
      vertex 29.1682 70.5208 0
      vertex 36.4142 63.0713 2.82843
      vertex 27.754 68.0713 2.82843
    endloop
  endfacet
  facet normal 0.353555 0.612372 -0.707107
    outer loop
      vertex 35 60.6218 0
      vertex 27.754 68.0713 2.82843
      vertex 36.4142 63.0713 2.82843
    endloop
  endfacet
  facet normal 0.353549 0.612368 -0.707113
    outer loop
      vertex 27.754 68.0713 2.82843
      vertex 35 60.6218 0
      vertex 26.3397 65.6218 0
    endloop
  endfacet
  facet normal -0.499998 0.866027 0
    outer loop
      vertex -40 69.282 0
      vertex -48.6603 64.282 4
      vertex -40 69.282 4
    endloop
  endfacet
  facet normal -0.499998 0.866027 0
    outer loop
      vertex -48.6603 64.282 4
      vertex -40 69.282 0
      vertex -48.6603 64.282 0
    endloop
  endfacet
  facet normal 0 0 1
    outer loop
      vertex -40 69.282 4
      vertex -18.6603 12.3205 4
      vertex -10 17.3205 4
    endloop
  endfacet
  facet normal 0 0 1
    outer loop
      vertex -18.6603 12.3205 4
      vertex -40 69.282 4
      vertex -48.6603 64.282 4
    endloop
  endfacet
  facet normal 0 0 -1
    outer loop
      vertex -46.4887 60.5208 0
      vertex -40 69.282 0
      vertex -37.8284 65.5208 0
    endloop
  endfacet
  facet normal 0 0 -1
    outer loop
      vertex -40 69.282 0
      vertex -46.4887 60.5208 0
      vertex -48.6603 64.282 0
    endloop
  endfacet
  facet normal 0 0 -1
    outer loop
      vertex -18.6603 12.3205 0
      vertex -35 60.6218 0
      vertex -10 17.3205 0
    endloop
  endfacet
  facet normal 0 -0 -1
    outer loop
      vertex -35 60.6218 0
      vertex -18.6603 12.3205 0
      vertex -43.6603 55.6218 0
    endloop
  endfacet
  facet normal 0.499998 -0.866027 0
    outer loop
      vertex -18.6603 12.3205 0
      vertex -10 17.3205 4
      vertex -18.6603 12.3205 4
    endloop
  endfacet
  facet normal 0.499998 -0.866027 0
    outer loop
      vertex -10 17.3205 4
      vertex -18.6603 12.3205 0
      vertex -10 17.3205 0
    endloop
  endfacet
  facet normal -0.866018 -0.500012 0
    outer loop
      vertex -46.4887 60.5208 0
      vertex -48.6603 64.282 4
      vertex -48.6603 64.282 0
    endloop
  endfacet
  facet normal -0.866023 -0.500004 -1.03891e-05
    outer loop
      vertex -45.0745 58.0713 2.82843
      vertex -48.6603 64.282 4
      vertex -46.4887 60.5208 0
    endloop
  endfacet
  facet normal -0.866026 -0.5 -0
    outer loop
      vertex -18.6603 12.3205 4
      vertex -43.6603 55.6218 0
      vertex -18.6603 12.3205 0
    endloop
  endfacet
  facet normal -0.866026 -0.499999 5.2479e-06
    outer loop
      vertex -43.6603 55.6218 0
      vertex -18.6603 12.3205 4
      vertex -45.0745 58.0713 2.82843
    endloop
  endfacet
  facet normal -0.866025 -0.5 -3.62292e-05
    outer loop
      vertex -45.0745 58.0713 2.82843
      vertex -18.6603 12.3205 4
      vertex -48.6603 64.282 4
    endloop
  endfacet
  facet normal 0.866018 0.500012 0
    outer loop
      vertex -40 69.282 4
      vertex -37.8284 65.5208 0
      vertex -40 69.282 0
    endloop
  endfacet
  facet normal 0.866023 0.500004 1.03891e-05
    outer loop
      vertex -40 69.282 4
      vertex -36.4142 63.0713 2.82843
      vertex -37.8284 65.5208 0
    endloop
  endfacet
  facet normal 0.866025 0.5 3.62292e-05
    outer loop
      vertex -10 17.3205 4
      vertex -36.4142 63.0713 2.82843
      vertex -40 69.282 4
    endloop
  endfacet
  facet normal 0.866026 0.499999 -5.2479e-06
    outer loop
      vertex -10 17.3205 4
      vertex -35 60.6218 0
      vertex -36.4142 63.0713 2.82843
    endloop
  endfacet
  facet normal 0.866026 0.5 0
    outer loop
      vertex -35 60.6218 0
      vertex -10 17.3205 4
      vertex -10 17.3205 0
    endloop
  endfacet
  facet normal 0.353552 -0.612373 -0.707107
    outer loop
      vertex -45.0745 58.0713 2.82843
      vertex -37.8284 65.5208 0
      vertex -36.4142 63.0713 2.82843
    endloop
  endfacet
  facet normal 0.353552 -0.612373 -0.707107
    outer loop
      vertex -37.8284 65.5208 0
      vertex -45.0745 58.0713 2.82843
      vertex -46.4887 60.5208 0
    endloop
  endfacet
  facet normal -0.353552 0.612373 -0.707107
    outer loop
      vertex -43.6603 55.6218 0
      vertex -36.4142 63.0713 2.82843
      vertex -35 60.6218 0
    endloop
  endfacet
  facet normal -0.353552 0.612373 -0.707107
    outer loop
      vertex -36.4142 63.0713 2.82843
      vertex -43.6603 55.6218 0
      vertex -45.0745 58.0713 2.82843
    endloop
  endfacet
  facet normal -1 0 0
    outer loop
      vertex -80 -10 0
      vertex -80 0 4
      vertex -80 0 0
    endloop
  endfacet
  facet normal -1 -0 0
    outer loop
      vertex -80 0 4
      vertex -80 -10 0
      vertex -80 -10 4
    endloop
  endfacet
  facet normal -0 0 1
    outer loop
      vertex -80 0 4
      vertex -20 -10 4
      vertex -20 0 4
    endloop
  endfacet
  facet normal 0 0 1
    outer loop
      vertex -20 -10 4
      vertex -80 0 4
      vertex -80 -10 4
    endloop
  endfacet
  facet normal 0 0 -1
    outer loop
      vertex -80 -10 0
      vertex -75.6569 0 0
      vertex -75.6569 -10 0
    endloop
  endfacet
  facet normal -0 0 -1
    outer loop
      vertex -75.6569 0 0
      vertex -80 -10 0
      vertex -80 0 0
    endloop
  endfacet
  facet normal 0 0 -1
    outer loop
      vertex -70 -10 0
      vertex -20 0 0
      vertex -20 -10 0
    endloop
  endfacet
  facet normal -0 0 -1
    outer loop
      vertex -20 0 0
      vertex -70 -10 0
      vertex -70 0 0
    endloop
  endfacet
  facet normal 1 -0 0
    outer loop
      vertex -20 -10 4
      vertex -20 0 0
      vertex -20 0 4
    endloop
  endfacet
  facet normal 1 0 0
    outer loop
      vertex -20 0 0
      vertex -20 -10 4
      vertex -20 -10 0
    endloop
  endfacet
  facet normal 0 -1 0
    outer loop
      vertex -80 -10 4
      vertex -72.8284 -10 2.82843
      vertex -20 -10 4
    endloop
  endfacet
  facet normal 0 -1 0
    outer loop
      vertex -75.6569 -10 0
      vertex -80 -10 4
      vertex -80 -10 0
    endloop
  endfacet
  facet normal 0 -1 0
    outer loop
      vertex -80 -10 4
      vertex -75.6569 -10 0
      vertex -72.8284 -10 2.82843
    endloop
  endfacet
  facet normal 0 -1 0
    outer loop
      vertex -70 -10 0
      vertex -20 -10 4
      vertex -72.8284 -10 2.82843
    endloop
  endfacet
  facet normal 0 -1 -0
    outer loop
      vertex -20 -10 4
      vertex -70 -10 0
      vertex -20 -10 0
    endloop
  endfacet
  facet normal 0 1 0
    outer loop
      vertex -20 0 4
      vertex -72.8284 0 2.82843
      vertex -80 0 4
    endloop
  endfacet
  facet normal 0 1 0
    outer loop
      vertex -70 0 0
      vertex -20 0 4
      vertex -20 0 0
    endloop
  endfacet
  facet normal 0 1 0
    outer loop
      vertex -20 0 4
      vertex -70 0 0
      vertex -72.8284 0 2.82843
    endloop
  endfacet
  facet normal 0 1 -0
    outer loop
      vertex -75.6569 0 0
      vertex -80 0 4
      vertex -72.8284 0 2.82843
    endloop
  endfacet
  facet normal 0 1 0
    outer loop
      vertex -80 0 4
      vertex -75.6569 0 0
      vertex -80 0 0
    endloop
  endfacet
  facet normal 0.707098 0 -0.707116
    outer loop
      vertex -72.8284 -10 2.82843
      vertex -75.6569 0 0
      vertex -72.8284 0 2.82843
    endloop
  endfacet
  facet normal 0.707098 0 -0.707116
    outer loop
      vertex -75.6569 0 0
      vertex -72.8284 -10 2.82843
      vertex -75.6569 -10 0
    endloop
  endfacet
  facet normal -0.707111 0 -0.707103
    outer loop
      vertex -72.8284 -10 2.82843
      vertex -70 0 0
      vertex -70 -10 0
    endloop
  endfacet
  facet normal -0.707111 0 -0.707103
    outer loop
      vertex -70 0 0
      vertex -72.8284 -10 2.82843
      vertex -72.8284 0 2.82843
    endloop
  endfacet
  facet normal -0.499998 -0.866027 0
    outer loop
      vertex -40 -69.282 0
      vertex -31.3397 -74.282 4
      vertex -40 -69.282 4
    endloop
  endfacet
  facet normal -0.499998 -0.866027 -0
    outer loop
      vertex -31.3397 -74.282 4
      vertex -40 -69.282 0
      vertex -31.3397 -74.282 0
    endloop
  endfacet
  facet normal 0 0 1
    outer loop
      vertex -10 -17.3205 4
      vertex -31.3397 -74.282 4
      vertex -1.33975 -22.3205 4
    endloop
  endfacet
  facet normal 0 -0 1
    outer loop
      vertex -31.3397 -74.282 4
      vertex -10 -17.3205 4
      vertex -40 -69.282 4
    endloop
  endfacet
  facet normal 0 0 -1
    outer loop
      vertex -31.3397 -74.282 0
      vertex -37.8284 -65.5208 0
      vertex -29.1682 -70.5208 0
    endloop
  endfacet
  facet normal 0 -0 -1
    outer loop
      vertex -37.8284 -65.5208 0
      vertex -31.3397 -74.282 0
      vertex -40 -69.282 0
    endloop
  endfacet
  facet normal 0 0 -1
    outer loop
      vertex -26.3397 -65.6218 0
      vertex -10 -17.3205 0
      vertex -1.33975 -22.3205 0
    endloop
  endfacet
  facet normal 0 0 -1
    outer loop
      vertex -10 -17.3205 0
      vertex -26.3397 -65.6218 0
      vertex -35 -60.6218 0
    endloop
  endfacet
  facet normal 0.5 0.866025 -0
    outer loop
      vertex -1.33975 -22.3205 0
      vertex -10 -17.3205 4
      vertex -1.33975 -22.3205 4
    endloop
  endfacet
  facet normal 0.5 0.866025 0
    outer loop
      vertex -10 -17.3205 4
      vertex -1.33975 -22.3205 0
      vertex -10 -17.3205 0
    endloop
  endfacet
  facet normal 0.866026 -0.499999 0
    outer loop
      vertex -1.33975 -22.3205 4
      vertex -26.3397 -65.6218 0
      vertex -1.33975 -22.3205 0
    endloop
  endfacet
  facet normal 0.866025 -0.500001 2.39045e-05
    outer loop
      vertex -1.33975 -22.3205 4
      vertex -27.754 -68.0713 2.82843
      vertex -26.3397 -65.6218 0
    endloop
  endfacet
  facet normal 0.866026 -0.5 -3.32733e-05
    outer loop
      vertex -31.3397 -74.282 4
      vertex -27.754 -68.0713 2.82843
      vertex -1.33975 -22.3205 4
    endloop
  endfacet
  facet normal 0.866028 -0.499995 8.89917e-09
    outer loop
      vertex -31.3397 -74.282 4
      vertex -29.1682 -70.5208 0
      vertex -27.754 -68.0713 2.82843
    endloop
  endfacet
  facet normal 0.866028 -0.499995 0
    outer loop
      vertex -29.1682 -70.5208 0
      vertex -31.3397 -74.282 4
      vertex -31.3397 -74.282 0
    endloop
  endfacet
  facet normal -0.866026 0.5 0
    outer loop
      vertex -35 -60.6218 0
      vertex -10 -17.3205 4
      vertex -10 -17.3205 0
    endloop
  endfacet
  facet normal -0.866026 0.499999 5.2479e-06
    outer loop
      vertex -36.4142 -63.0713 2.82843
      vertex -10 -17.3205 4
      vertex -35 -60.6218 0
    endloop
  endfacet
  facet normal -0.866018 0.500012 0
    outer loop
      vertex -40 -69.282 4
      vertex -37.8284 -65.5208 0
      vertex -40 -69.282 0
    endloop
  endfacet
  facet normal -0.866025 0.5 -3.62292e-05
    outer loop
      vertex -36.4142 -63.0713 2.82843
      vertex -40 -69.282 4
      vertex -10 -17.3205 4
    endloop
  endfacet
  facet normal -0.866023 0.500004 -1.03891e-05
    outer loop
      vertex -37.8284 -65.5208 0
      vertex -40 -69.282 4
      vertex -36.4142 -63.0713 2.82843
    endloop
  endfacet
  facet normal 0.353555 0.612372 -0.707107
    outer loop
      vertex -29.1682 -70.5208 0
      vertex -36.4142 -63.0713 2.82843
      vertex -27.754 -68.0713 2.82843
    endloop
  endfacet
  facet normal 0.353555 0.612372 -0.707107
    outer loop
      vertex -36.4142 -63.0713 2.82843
      vertex -29.1682 -70.5208 0
      vertex -37.8284 -65.5208 0
    endloop
  endfacet
  facet normal -0.353549 -0.612368 -0.707113
    outer loop
      vertex -27.754 -68.0713 2.82843
      vertex -35 -60.6218 0
      vertex -26.3397 -65.6218 0
    endloop
  endfacet
  facet normal -0.353555 -0.612372 -0.707107
    outer loop
      vertex -35 -60.6218 0
      vertex -27.754 -68.0713 2.82843
      vertex -36.4142 -63.0713 2.82843
    endloop
  endfacet
  facet normal 0.499998 -0.866027 0
    outer loop
      vertex 40 -69.282 0
      vertex 48.6603 -64.282 4
      vertex 40 -69.282 4
    endloop
  endfacet
  facet normal 0.499998 -0.866027 0
    outer loop
      vertex 48.6603 -64.282 4
      vertex 40 -69.282 0
      vertex 48.6603 -64.282 0
    endloop
  endfacet
  facet normal 0 0 1
    outer loop
      vertex 18.6603 -12.3205 4
      vertex 40 -69.282 4
      vertex 48.6603 -64.282 4
    endloop
  endfacet
  facet normal 0 0 1
    outer loop
      vertex 40 -69.282 4
      vertex 18.6603 -12.3205 4
      vertex 10 -17.3205 4
    endloop
  endfacet
  facet normal 0 0 -1
    outer loop
      vertex 40 -69.282 0
      vertex 46.4887 -60.5208 0
      vertex 48.6603 -64.282 0
    endloop
  endfacet
  facet normal 0 0 -1
    outer loop
      vertex 46.4887 -60.5208 0
      vertex 40 -69.282 0
      vertex 37.8284 -65.5208 0
    endloop
  endfacet
  facet normal 0 0 -1
    outer loop
      vertex 35 -60.6218 0
      vertex 18.6603 -12.3205 0
      vertex 43.6603 -55.6218 0
    endloop
  endfacet
  facet normal 0 -0 -1
    outer loop
      vertex 18.6603 -12.3205 0
      vertex 35 -60.6218 0
      vertex 10 -17.3205 0
    endloop
  endfacet
  facet normal -0.499998 0.866027 0
    outer loop
      vertex 18.6603 -12.3205 0
      vertex 10 -17.3205 4
      vertex 18.6603 -12.3205 4
    endloop
  endfacet
  facet normal -0.499998 0.866027 0
    outer loop
      vertex 10 -17.3205 4
      vertex 18.6603 -12.3205 0
      vertex 10 -17.3205 0
    endloop
  endfacet
  facet normal 0.866026 0.5 0
    outer loop
      vertex 18.6603 -12.3205 4
      vertex 43.6603 -55.6218 0
      vertex 18.6603 -12.3205 0
    endloop
  endfacet
  facet normal 0.866026 0.499999 5.2479e-06
    outer loop
      vertex 18.6603 -12.3205 4
      vertex 45.0745 -58.0713 2.82843
      vertex 43.6603 -55.6218 0
    endloop
  endfacet
  facet normal 0.866025 0.5 -3.62292e-05
    outer loop
      vertex 48.6603 -64.282 4
      vertex 45.0745 -58.0713 2.82843
      vertex 18.6603 -12.3205 4
    endloop
  endfacet
  facet normal 0.866023 0.500004 -1.03891e-05
    outer loop
      vertex 48.6603 -64.282 4
      vertex 46.4887 -60.5208 0
      vertex 45.0745 -58.0713 2.82843
    endloop
  endfacet
  facet normal 0.866018 0.500012 0
    outer loop
      vertex 46.4887 -60.5208 0
      vertex 48.6603 -64.282 4
      vertex 48.6603 -64.282 0
    endloop
  endfacet
  facet normal -0.866026 -0.5 0
    outer loop
      vertex 35 -60.6218 0
      vertex 10 -17.3205 4
      vertex 10 -17.3205 0
    endloop
  endfacet
  facet normal -0.866026 -0.499999 -5.2479e-06
    outer loop
      vertex 36.4142 -63.0713 2.82843
      vertex 10 -17.3205 4
      vertex 35 -60.6218 0
    endloop
  endfacet
  facet normal -0.866018 -0.500012 -0
    outer loop
      vertex 40 -69.282 4
      vertex 37.8284 -65.5208 0
      vertex 40 -69.282 0
    endloop
  endfacet
  facet normal -0.866025 -0.5 3.62292e-05
    outer loop
      vertex 36.4142 -63.0713 2.82843
      vertex 40 -69.282 4
      vertex 10 -17.3205 4
    endloop
  endfacet
  facet normal -0.866023 -0.500004 1.03891e-05
    outer loop
      vertex 37.8284 -65.5208 0
      vertex 40 -69.282 4
      vertex 36.4142 -63.0713 2.82843
    endloop
  endfacet
  facet normal -0.353552 0.612373 -0.707107
    outer loop
      vertex 37.8284 -65.5208 0
      vertex 45.0745 -58.0713 2.82843
      vertex 46.4887 -60.5208 0
    endloop
  endfacet
  facet normal -0.353552 0.612373 -0.707107
    outer loop
      vertex 45.0745 -58.0713 2.82843
      vertex 37.8284 -65.5208 0
      vertex 36.4142 -63.0713 2.82843
    endloop
  endfacet
  facet normal 0.353552 -0.612373 -0.707107
    outer loop
      vertex 36.4142 -63.0713 2.82843
      vertex 43.6603 -55.6218 0
      vertex 45.0745 -58.0713 2.82843
    endloop
  endfacet
  facet normal 0.353552 -0.612373 -0.707107
    outer loop
      vertex 43.6603 -55.6218 0
      vertex 36.4142 -63.0713 2.82843
      vertex 35 -60.6218 0
    endloop
  endfacet
endsolid OpenSCAD_Model
