solid OpenSCAD_Model
  facet normal 1 -0 0
    outer loop
      vertex 50 0 20
      vertex 50 30 0
      vertex 50 30 20
    endloop
  endfacet
  facet normal 1 0 0
    outer loop
      vertex 50 30 0
      vertex 50 0 20
      vertex 50 0 0
    endloop
  endfacet
  facet normal -0 0 1
    outer loop
      vertex 0 30 20
      vertex 15 0 20
      vertex 15 30 20
    endloop
  endfacet
  facet normal 0 0 1
    outer loop
      vertex 15 0 20
      vertex 0 30 20
      vertex 0 0 20
    endloop
  endfacet
  facet normal -0 0 1
    outer loop
      vertex 35 30 20
      vertex 50 0 20
      vertex 50 30 20
    endloop
  endfacet
  facet normal 0 0 1
    outer loop
      vertex 50 0 20
      vertex 35 30 20
      vertex 35 0 20
    endloop
  endfacet
  facet normal 0 0 -1
    outer loop
      vertex 0 0 0
      vertex 50 30 0
      vertex 50 0 0
    endloop
  endfacet
  facet normal -0 0 -1
    outer loop
      vertex 50 30 0
      vertex 0 0 0
      vertex 0 30 0
    endloop
  endfacet
  facet normal -1 0 0
    outer loop
      vertex 0 0 0
      vertex 0 30 20
      vertex 0 30 0
    endloop
  endfacet
  facet normal -1 -0 0
    outer loop
      vertex 0 30 20
      vertex 0 0 0
      vertex 0 0 20
    endloop
  endfacet
  facet normal 0 1 -0
    outer loop
      vertex 50 30 0
      vertex 35 30 20
      vertex 50 30 20
    endloop
  endfacet
  facet normal 0 1 0
    outer loop
      vertex 35 30 20
      vertex 50 30 0
      vertex 15 30 20
    endloop
  endfacet
  facet normal 0 1 0
    outer loop
      vertex 0 30 0
      vertex 15 30 20
      vertex 50 30 0
    endloop
  endfacet
  facet normal 0 1 0
    outer loop
      vertex 15 30 20
      vertex 0 30 0
      vertex 0 30 20
    endloop
  endfacet
  facet normal 0 1 -0
    outer loop
      vertex 35 30 20
      vertex 15 30 60
      vertex 35 30 60
    endloop
  endfacet
  facet normal 0 1 0
    outer loop
      vertex 15 30 60
      vertex 35 30 20
      vertex 15 30 20
    endloop
  endfacet
  facet normal 0 1 0
    outer loop
      vertex 35 30 60
      vertex 50 30 70
      vertex 50 30 60
    endloop
  endfacet
  facet normal 0 1 0
    outer loop
      vertex 50 30 70
      vertex 35 30 60
      vertex 0 30 70
    endloop
  endfacet
  facet normal 0 1 -0
    outer loop
      vertex 15 30 60
      vertex 0 30 70
      vertex 35 30 60
    endloop
  endfacet
  facet normal 0 1 0
    outer loop
      vertex 0 30 70
      vertex 15 30 60
      vertex 0 30 60
    endloop
  endfacet
  facet normal 0 -1 0
    outer loop
      vertex 0 0 0
      vertex 15 0 20
      vertex 0 0 20
    endloop
  endfacet
  facet normal 0 -1 -0
    outer loop
      vertex 15 0 20
      vertex 0 0 0
      vertex 35 0 20
    endloop
  endfacet
  facet normal 0 -1 0
    outer loop
      vertex 50 0 0
      vertex 35 0 20
      vertex 0 0 0
    endloop
  endfacet
  facet normal 0 -1 0
    outer loop
      vertex 35 0 20
      vertex 50 0 0
      vertex 50 0 20
    endloop
  endfacet
  facet normal 0 -1 0
    outer loop
      vertex 15 0 20
      vertex 35 0 60
      vertex 15 0 60
    endloop
  endfacet
  facet normal 0 -1 -0
    outer loop
      vertex 35 0 60
      vertex 15 0 20
      vertex 35 0 20
    endloop
  endfacet
  facet normal 1 -0 0
    outer loop
      vertex 35 10 60
      vertex 35 30 20
      vertex 35 30 60
    endloop
  endfacet
  facet normal 1 0 0
    outer loop
      vertex 35 0 20
      vertex 35 10 60
      vertex 35 0 60
    endloop
  endfacet
  facet normal 1 0 0
    outer loop
      vertex 35 10 60
      vertex 35 0 20
      vertex 35 30 20
    endloop
  endfacet
  facet normal 0 0 -1
    outer loop
      vertex 35 10 60
      vertex 50 30 60
      vertex 50 10 60
    endloop
  endfacet
  facet normal -0 0 -1
    outer loop
      vertex 50 30 60
      vertex 35 10 60
      vertex 35 30 60
    endloop
  endfacet
  facet normal 0 0 -1
    outer loop
      vertex 0 10 60
      vertex 15 30 60
      vertex 15 10 60
    endloop
  endfacet
  facet normal -0 0 -1
    outer loop
      vertex 15 30 60
      vertex 0 10 60
      vertex 0 30 60
    endloop
  endfacet
  facet normal -0 0 1
    outer loop
      vertex 15 10 60
      vertex 35 0 60
      vertex 35 10 60
    endloop
  endfacet
  facet normal 0 0 1
    outer loop
      vertex 35 0 60
      vertex 15 10 60
      vertex 15 0 60
    endloop
  endfacet
  facet normal -1 0 0
    outer loop
      vertex 15 30 20
      vertex 15 10 60
      vertex 15 30 60
    endloop
  endfacet
  facet normal -1 0 0
    outer loop
      vertex 15 0 20
      vertex 15 10 60
      vertex 15 30 20
    endloop
  endfacet
  facet normal -1 -0 0
    outer loop
      vertex 15 10 60
      vertex 15 0 20
      vertex 15 0 60
    endloop
  endfacet
  facet normal 1 -0 0
    outer loop
      vertex 50 10 70
      vertex 50 30 60
      vertex 50 30 70
    endloop
  endfacet
  facet normal 1 0 0
    outer loop
      vertex 50 30 60
      vertex 50 10 70
      vertex 50 10 60
    endloop
  endfacet
  facet normal -0 0 1
    outer loop
      vertex 0 30 70
      vertex 50 10 70
      vertex 50 30 70
    endloop
  endfacet
  facet normal 0 0 1
    outer loop
      vertex 50 10 70
      vertex 0 30 70
      vertex 0 10 70
    endloop
  endfacet
  facet normal -1 0 0
    outer loop
      vertex 0 10 60
      vertex 0 30 70
      vertex 0 30 60
    endloop
  endfacet
  facet normal -1 -0 0
    outer loop
      vertex 0 30 70
      vertex 0 10 60
      vertex 0 10 70
    endloop
  endfacet
  facet normal 0 -1 0
    outer loop
      vertex 15 10 60
      vertex 0 10 70
      vertex 0 10 60
    endloop
  endfacet
  facet normal 0 -1 0
    outer loop
      vertex 0 10 70
      vertex 15 10 60
      vertex 50 10 70
    endloop
  endfacet
  facet normal 0 -1 0
    outer loop
      vertex 35 10 60
      vertex 50 10 70
      vertex 15 10 60
    endloop
  endfacet
  facet normal 0 -1 -0
    outer loop
      vertex 50 10 70
      vertex 35 10 60
      vertex 50 10 60
    endloop
  endfacet
endsolid OpenSCAD_Model
