solid OpenSCAD_Model
  facet normal -0.743149 -0.669126 0
    outer loop
      vertex -13.3826 -14.8629 -4
      vertex -16.1803 -11.7557 4
      vertex -16.1803 -11.7557 -4
    endloop
  endfacet
  facet normal -0.743149 -0.669126 0
    outer loop
      vertex -16.1803 -11.7557 4
      vertex -13.3826 -14.8629 -4
      vertex -13.3826 -14.8629 4
    endloop
  endfacet
  facet normal 0.951053 0.309029 0
    outer loop
      vertex 19.563 4.15823 4
      vertex 18.2709 8.13473 -4
      vertex 18.2709 8.13473 4
    endloop
  endfacet
  facet normal 0.951053 0.309029 0
    outer loop
      vertex 18.2709 8.13473 -4
      vertex 19.563 4.15823 4
      vertex 19.563 4.15823 -4
    endloop
  endfacet
  facet normal 0.994523 0.104517 0
    outer loop
      vertex 20 0 4
      vertex 19.563 4.15823 -4
      vertex 19.563 4.15823 4
    endloop
  endfacet
  facet normal 0.994523 0.104517 0
    outer loop
      vertex 19.563 4.15823 -4
      vertex 20 0 4
      vertex 20 0 -4
    endloop
  endfacet
  facet normal 0.866022 0.500006 0
    outer loop
      vertex 18.2709 8.13473 4
      vertex 16.1803 11.7557 -4
      vertex 16.1803 11.7557 4
    endloop
  endfacet
  facet normal 0.866022 0.500006 0
    outer loop
      vertex 16.1803 11.7557 -4
      vertex 18.2709 8.13473 4
      vertex 18.2709 8.13473 -4
    endloop
  endfacet
  facet normal 0.951053 -0.309029 0
    outer loop
      vertex 18.2709 -8.13473 4
      vertex 19.563 -4.15823 -4
      vertex 19.563 -4.15823 4
    endloop
  endfacet
  facet normal 0.951053 -0.309029 0
    outer loop
      vertex 19.563 -4.15823 -4
      vertex 18.2709 -8.13473 4
      vertex 18.2709 -8.13473 -4
    endloop
  endfacet
  facet normal 0.587785 -0.809017 0
    outer loop
      vertex 10 -17.3205 -4
      vertex 13.3826 -14.8629 4
      vertex 10 -17.3205 4
    endloop
  endfacet
  facet normal 0.587785 -0.809017 0
    outer loop
      vertex 13.3826 -14.8629 4
      vertex 10 -17.3205 -4
      vertex 13.3826 -14.8629 -4
    endloop
  endfacet
  facet normal 0.743149 -0.669126 0
    outer loop
      vertex 13.3826 -14.8629 4
      vertex 16.1803 -11.7557 -4
      vertex 16.1803 -11.7557 4
    endloop
  endfacet
  facet normal 0.743149 -0.669126 0
    outer loop
      vertex 16.1803 -11.7557 -4
      vertex 13.3826 -14.8629 4
      vertex 13.3826 -14.8629 -4
    endloop
  endfacet
  facet normal 0.994523 -0.104517 0
    outer loop
      vertex 19.563 -4.15823 4
      vertex 20 0 -4
      vertex 20 0 4
    endloop
  endfacet
  facet normal 0.994523 -0.104517 0
    outer loop
      vertex 20 0 -4
      vertex 19.563 -4.15823 4
      vertex 19.563 -4.15823 -4
    endloop
  endfacet
  facet normal -0.406732 -0.913547 0
    outer loop
      vertex -10 -17.3205 -4
      vertex -6.18034 -19.0211 4
      vertex -10 -17.3205 4
    endloop
  endfacet
  facet normal -0.406732 -0.913547 -0
    outer loop
      vertex -6.18034 -19.0211 4
      vertex -10 -17.3205 -4
      vertex -6.18034 -19.0211 -4
    endloop
  endfacet
  facet normal 0.406732 0.913547 -0
    outer loop
      vertex 10 17.3205 -4
      vertex 6.18034 19.0211 4
      vertex 10 17.3205 4
    endloop
  endfacet
  facet normal 0.406732 0.913547 0
    outer loop
      vertex 6.18034 19.0211 4
      vertex 10 17.3205 -4
      vertex 6.18034 19.0211 -4
    endloop
  endfacet
  facet normal 0.743149 0.669126 0
    outer loop
      vertex 16.1803 11.7557 4
      vertex 13.3826 14.8629 -4
      vertex 13.3826 14.8629 4
    endloop
  endfacet
  facet normal 0.743149 0.669126 0
    outer loop
      vertex 13.3826 14.8629 -4
      vertex 16.1803 11.7557 4
      vertex 16.1803 11.7557 -4
    endloop
  endfacet
  facet normal -0.587785 -0.809017 0
    outer loop
      vertex -13.3826 -14.8629 -4
      vertex -10 -17.3205 4
      vertex -13.3826 -14.8629 4
    endloop
  endfacet
  facet normal -0.587785 -0.809017 -0
    outer loop
      vertex -10 -17.3205 4
      vertex -13.3826 -14.8629 -4
      vertex -10 -17.3205 -4
    endloop
  endfacet
  facet normal -0.743149 0.669126 0
    outer loop
      vertex -16.1803 11.7557 -4
      vertex -13.3826 14.8629 4
      vertex -13.3826 14.8629 -4
    endloop
  endfacet
  facet normal -0.743149 0.669126 0
    outer loop
      vertex -13.3826 14.8629 4
      vertex -16.1803 11.7557 -4
      vertex -16.1803 11.7557 4
    endloop
  endfacet
  facet normal 0 1 -0
    outer loop
      vertex 2.09057 19.8904 -4
      vertex -2.09057 19.8904 4
      vertex 2.09057 19.8904 4
    endloop
  endfacet
  facet normal 0 1 0
    outer loop
      vertex -2.09057 19.8904 4
      vertex 2.09057 19.8904 -4
      vertex -2.09057 19.8904 -4
    endloop
  endfacet
  facet normal 0.406732 -0.913547 0
    outer loop
      vertex 6.18034 -19.0211 -4
      vertex 10 -17.3205 4
      vertex 6.18034 -19.0211 4
    endloop
  endfacet
  facet normal 0.406732 -0.913547 0
    outer loop
      vertex 10 -17.3205 4
      vertex 6.18034 -19.0211 -4
      vertex 10 -17.3205 -4
    endloop
  endfacet
  facet normal 0.20791 -0.978148 0
    outer loop
      vertex 2.09057 -19.8904 -4
      vertex 6.18034 -19.0211 4
      vertex 2.09057 -19.8904 4
    endloop
  endfacet
  facet normal 0.20791 -0.978148 0
    outer loop
      vertex 6.18034 -19.0211 4
      vertex 2.09057 -19.8904 -4
      vertex 6.18034 -19.0211 -4
    endloop
  endfacet
  facet normal -0.951053 0.309029 0
    outer loop
      vertex -19.563 4.15823 -4
      vertex -18.2709 8.13473 4
      vertex -18.2709 8.13473 -4
    endloop
  endfacet
  facet normal -0.951053 0.309029 0
    outer loop
      vertex -18.2709 8.13473 4
      vertex -19.563 4.15823 -4
      vertex -19.563 4.15823 4
    endloop
  endfacet
  facet normal 0 0 -1
    outer loop
      vertex 11 0 -4
      vertex 20 0 -4
      vertex 19.563 -4.15823 -4
    endloop
  endfacet
  facet normal 0 0 -1
    outer loop
      vertex 10.7596 -2.28703 -4
      vertex 19.563 -4.15823 -4
      vertex 18.2709 -8.13473 -4
    endloop
  endfacet
  facet normal 0 0 -1
    outer loop
      vertex 20 0 -4
      vertex 11 0 -4
      vertex 19.563 4.15823 -4
    endloop
  endfacet
  facet normal 0 0 -1
    outer loop
      vertex 10.049 -4.4741 -4
      vertex 18.2709 -8.13473 -4
      vertex 16.1803 -11.7557 -4
    endloop
  endfacet
  facet normal 0 0 -1
    outer loop
      vertex 10.7596 2.28703 -4
      vertex 19.563 4.15823 -4
      vertex 11 0 -4
    endloop
  endfacet
  facet normal 0 0 -1
    outer loop
      vertex 8.89919 -6.46564 -4
      vertex 16.1803 -11.7557 -4
      vertex 13.3826 -14.8629 -4
    endloop
  endfacet
  facet normal -0 0 -1
    outer loop
      vertex 19.563 4.15823 -4
      vertex 10.7596 2.28703 -4
      vertex 18.2709 8.13473 -4
    endloop
  endfacet
  facet normal 0 0 -1
    outer loop
      vertex 10.049 4.4741 -4
      vertex 18.2709 8.13473 -4
      vertex 10.7596 2.28703 -4
    endloop
  endfacet
  facet normal 0 0 -1
    outer loop
      vertex 19.563 -4.15823 -4
      vertex 10.7596 -2.28703 -4
      vertex 11 0 -4
    endloop
  endfacet
  facet normal 0 0 -1
    outer loop
      vertex 18.2709 -8.13473 -4
      vertex 10.049 -4.4741 -4
      vertex 10.7596 -2.28703 -4
    endloop
  endfacet
  facet normal 0 0 -1
    outer loop
      vertex 7.36044 -8.17459 -4
      vertex 13.3826 -14.8629 -4
      vertex 10 -17.3205 -4
    endloop
  endfacet
  facet normal 0 0 -1
    outer loop
      vertex 16.1803 -11.7557 -4
      vertex 8.89919 -6.46564 -4
      vertex 10.049 -4.4741 -4
    endloop
  endfacet
  facet normal 0 0 -1
    outer loop
      vertex 13.3826 -14.8629 -4
      vertex 7.36044 -8.17459 -4
      vertex 8.89919 -6.46564 -4
    endloop
  endfacet
  facet normal 0 0 -1
    outer loop
      vertex 5.5 -9.52628 -4
      vertex 10 -17.3205 -4
      vertex 6.18034 -19.0211 -4
    endloop
  endfacet
  facet normal 0 0 -1
    outer loop
      vertex 10 -17.3205 -4
      vertex 5.5 -9.52628 -4
      vertex 7.36044 -8.17459 -4
    endloop
  endfacet
  facet normal 0 0 -1
    outer loop
      vertex 6.18034 -19.0211 -4
      vertex 3.39919 -10.4616 -4
      vertex 5.5 -9.52628 -4
    endloop
  endfacet
  facet normal 0 0 -1
    outer loop
      vertex 2.09057 -19.8904 -4
      vertex 3.39919 -10.4616 -4
      vertex 6.18034 -19.0211 -4
    endloop
  endfacet
  facet normal 0 0 -1
    outer loop
      vertex 2.09057 -19.8904 -4
      vertex 1.14981 -10.9397 -4
      vertex 3.39919 -10.4616 -4
    endloop
  endfacet
  facet normal 0 0 -1
    outer loop
      vertex 2.09057 -19.8904 -4
      vertex -1.14981 -10.9397 -4
      vertex 1.14981 -10.9397 -4
    endloop
  endfacet
  facet normal 0 0 -1
    outer loop
      vertex -2.09057 -19.8904 -4
      vertex -1.14981 -10.9397 -4
      vertex 2.09057 -19.8904 -4
    endloop
  endfacet
  facet normal 0 0 -1
    outer loop
      vertex -2.09057 -19.8904 -4
      vertex -3.39919 -10.4616 -4
      vertex -1.14981 -10.9397 -4
    endloop
  endfacet
  facet normal 0 0 -1
    outer loop
      vertex -6.18034 -19.0211 -4
      vertex -3.39919 -10.4616 -4
      vertex -2.09057 -19.8904 -4
    endloop
  endfacet
  facet normal -0 0 -1
    outer loop
      vertex -3.39919 -10.4616 -4
      vertex -6.18034 -19.0211 -4
      vertex -5.5 -9.52628 -4
    endloop
  endfacet
  facet normal 0 0 -1
    outer loop
      vertex -10 -17.3205 -4
      vertex -5.5 -9.52628 -4
      vertex -6.18034 -19.0211 -4
    endloop
  endfacet
  facet normal -0 0 -1
    outer loop
      vertex -5.5 -9.52628 -4
      vertex -10 -17.3205 -4
      vertex -7.36044 -8.17459 -4
    endloop
  endfacet
  facet normal 0 0 -1
    outer loop
      vertex -13.3826 -14.8629 -4
      vertex -7.36044 -8.17459 -4
      vertex -10 -17.3205 -4
    endloop
  endfacet
  facet normal -0 0 -1
    outer loop
      vertex -7.36044 -8.17459 -4
      vertex -13.3826 -14.8629 -4
      vertex -8.89919 -6.46564 -4
    endloop
  endfacet
  facet normal 0 0 -1
    outer loop
      vertex -16.1803 -11.7557 -4
      vertex -8.89919 -6.46564 -4
      vertex -13.3826 -14.8629 -4
    endloop
  endfacet
  facet normal -0 0 -1
    outer loop
      vertex -8.89919 -6.46564 -4
      vertex -16.1803 -11.7557 -4
      vertex -10.049 -4.4741 -4
    endloop
  endfacet
  facet normal 0 0 -1
    outer loop
      vertex -18.2709 -8.13473 -4
      vertex -10.049 -4.4741 -4
      vertex -16.1803 -11.7557 -4
    endloop
  endfacet
  facet normal -0 0 -1
    outer loop
      vertex 18.2709 8.13473 -4
      vertex 10.049 4.4741 -4
      vertex 16.1803 11.7557 -4
    endloop
  endfacet
  facet normal 0 0 -1
    outer loop
      vertex 8.89919 6.46564 -4
      vertex 16.1803 11.7557 -4
      vertex 10.049 4.4741 -4
    endloop
  endfacet
  facet normal -0 0 -1
    outer loop
      vertex 16.1803 11.7557 -4
      vertex 8.89919 6.46564 -4
      vertex 13.3826 14.8629 -4
    endloop
  endfacet
  facet normal 0 0 -1
    outer loop
      vertex 7.36044 8.17459 -4
      vertex 13.3826 14.8629 -4
      vertex 8.89919 6.46564 -4
    endloop
  endfacet
  facet normal -0 0 -1
    outer loop
      vertex 13.3826 14.8629 -4
      vertex 7.36044 8.17459 -4
      vertex 10 17.3205 -4
    endloop
  endfacet
  facet normal 0 0 -1
    outer loop
      vertex 5.5 9.52628 -4
      vertex 10 17.3205 -4
      vertex 7.36044 8.17459 -4
    endloop
  endfacet
  facet normal -0 0 -1
    outer loop
      vertex 10 17.3205 -4
      vertex 5.5 9.52628 -4
      vertex 6.18034 19.0211 -4
    endloop
  endfacet
  facet normal 0 0 -1
    outer loop
      vertex 3.39919 10.4616 -4
      vertex 6.18034 19.0211 -4
      vertex 5.5 9.52628 -4
    endloop
  endfacet
  facet normal 0 0 -1
    outer loop
      vertex 3.39919 10.4616 -4
      vertex 2.09057 19.8904 -4
      vertex 6.18034 19.0211 -4
    endloop
  endfacet
  facet normal 0 0 -1
    outer loop
      vertex 1.14981 10.9397 -4
      vertex 2.09057 19.8904 -4
      vertex 3.39919 10.4616 -4
    endloop
  endfacet
  facet normal 0 0 -1
    outer loop
      vertex -1.14981 10.9397 -4
      vertex 2.09057 19.8904 -4
      vertex 1.14981 10.9397 -4
    endloop
  endfacet
  facet normal 0 0 -1
    outer loop
      vertex -1.14981 10.9397 -4
      vertex -2.09057 19.8904 -4
      vertex 2.09057 19.8904 -4
    endloop
  endfacet
  facet normal 0 0 -1
    outer loop
      vertex -3.39919 10.4616 -4
      vertex -2.09057 19.8904 -4
      vertex -1.14981 10.9397 -4
    endloop
  endfacet
  facet normal 0 0 -1
    outer loop
      vertex -6.18034 19.0211 -4
      vertex -3.39919 10.4616 -4
      vertex -5.5 9.52628 -4
    endloop
  endfacet
  facet normal 0 0 -1
    outer loop
      vertex -3.39919 10.4616 -4
      vertex -6.18034 19.0211 -4
      vertex -2.09057 19.8904 -4
    endloop
  endfacet
  facet normal 0 0 -1
    outer loop
      vertex -10 17.3205 -4
      vertex -5.5 9.52628 -4
      vertex -7.36044 8.17459 -4
    endloop
  endfacet
  facet normal 0 0 -1
    outer loop
      vertex -13.3826 14.8629 -4
      vertex -7.36044 8.17459 -4
      vertex -8.89919 6.46564 -4
    endloop
  endfacet
  facet normal 0 0 -1
    outer loop
      vertex -5.5 9.52628 -4
      vertex -10 17.3205 -4
      vertex -6.18034 19.0211 -4
    endloop
  endfacet
  facet normal 0 0 -1
    outer loop
      vertex -16.1803 11.7557 -4
      vertex -8.89919 6.46564 -4
      vertex -10.049 4.4741 -4
    endloop
  endfacet
  facet normal 0 0 -1
    outer loop
      vertex -18.2709 8.13473 -4
      vertex -10.049 4.4741 -4
      vertex -10.7596 2.28703 -4
    endloop
  endfacet
  facet normal 0 0 -1
    outer loop
      vertex -19.563 4.15823 -4
      vertex -10.7596 2.28703 -4
      vertex -11 0 -4
    endloop
  endfacet
  facet normal -0 0 -1
    outer loop
      vertex -10.049 -4.4741 -4
      vertex -18.2709 -8.13473 -4
      vertex -10.7596 -2.28703 -4
    endloop
  endfacet
  facet normal 0 0 -1
    outer loop
      vertex -7.36044 8.17459 -4
      vertex -13.3826 14.8629 -4
      vertex -10 17.3205 -4
    endloop
  endfacet
  facet normal 0 0 -1
    outer loop
      vertex -19.563 -4.15823 -4
      vertex -10.7596 -2.28703 -4
      vertex -18.2709 -8.13473 -4
    endloop
  endfacet
  facet normal 0 0 -1
    outer loop
      vertex -8.89919 6.46564 -4
      vertex -16.1803 11.7557 -4
      vertex -13.3826 14.8629 -4
    endloop
  endfacet
  facet normal -0 0 -1
    outer loop
      vertex -10.7596 -2.28703 -4
      vertex -19.563 -4.15823 -4
      vertex -11 0 -4
    endloop
  endfacet
  facet normal 0 0 -1
    outer loop
      vertex -10.049 4.4741 -4
      vertex -18.2709 8.13473 -4
      vertex -16.1803 11.7557 -4
    endloop
  endfacet
  facet normal 0 0 -1
    outer loop
      vertex -20 0 -4
      vertex -11 0 -4
      vertex -19.563 -4.15823 -4
    endloop
  endfacet
  facet normal 0 0 -1
    outer loop
      vertex -10.7596 2.28703 -4
      vertex -19.563 4.15823 -4
      vertex -18.2709 8.13473 -4
    endloop
  endfacet
  facet normal 0 0 -1
    outer loop
      vertex -11 0 -4
      vertex -20 0 -4
      vertex -19.563 4.15823 -4
    endloop
  endfacet
  facet normal -0.951053 -0.309029 0
    outer loop
      vertex -18.2709 -8.13473 -4
      vertex -19.563 -4.15823 4
      vertex -19.563 -4.15823 -4
    endloop
  endfacet
  facet normal -0.951053 -0.309029 0
    outer loop
      vertex -19.563 -4.15823 4
      vertex -18.2709 -8.13473 -4
      vertex -18.2709 -8.13473 4
    endloop
  endfacet
  facet normal -0.406732 0.913547 0
    outer loop
      vertex -6.18034 19.0211 -4
      vertex -10 17.3205 4
      vertex -6.18034 19.0211 4
    endloop
  endfacet
  facet normal -0.406732 0.913547 0
    outer loop
      vertex -10 17.3205 4
      vertex -6.18034 19.0211 -4
      vertex -10 17.3205 -4
    endloop
  endfacet
  facet normal 0 0 1
    outer loop
      vertex 11 0 4
      vertex 20 0 4
      vertex 19.563 4.15823 4
    endloop
  endfacet
  facet normal 0 0 1
    outer loop
      vertex 10.7596 2.28703 4
      vertex 19.563 4.15823 4
      vertex 18.2709 8.13473 4
    endloop
  endfacet
  facet normal 0 0 1
    outer loop
      vertex 20 0 4
      vertex 11 0 4
      vertex 19.563 -4.15823 4
    endloop
  endfacet
  facet normal 0 0 1
    outer loop
      vertex 10.049 4.4741 4
      vertex 18.2709 8.13473 4
      vertex 16.1803 11.7557 4
    endloop
  endfacet
  facet normal -0 0 1
    outer loop
      vertex 10.7596 -2.28703 4
      vertex 19.563 -4.15823 4
      vertex 11 0 4
    endloop
  endfacet
  facet normal 0 0 1
    outer loop
      vertex 8.89919 6.46564 4
      vertex 16.1803 11.7557 4
      vertex 13.3826 14.8629 4
    endloop
  endfacet
  facet normal 0 0 1
    outer loop
      vertex 19.563 -4.15823 4
      vertex 10.7596 -2.28703 4
      vertex 18.2709 -8.13473 4
    endloop
  endfacet
  facet normal -0 0 1
    outer loop
      vertex 10.049 -4.4741 4
      vertex 18.2709 -8.13473 4
      vertex 10.7596 -2.28703 4
    endloop
  endfacet
  facet normal 0 0 1
    outer loop
      vertex 19.563 4.15823 4
      vertex 10.7596 2.28703 4
      vertex 11 0 4
    endloop
  endfacet
  facet normal 0 0 1
    outer loop
      vertex 18.2709 8.13473 4
      vertex 10.049 4.4741 4
      vertex 10.7596 2.28703 4
    endloop
  endfacet
  facet normal 0 0 1
    outer loop
      vertex 7.36044 8.17459 4
      vertex 13.3826 14.8629 4
      vertex 10 17.3205 4
    endloop
  endfacet
  facet normal 0 0 1
    outer loop
      vertex 16.1803 11.7557 4
      vertex 8.89919 6.46564 4
      vertex 10.049 4.4741 4
    endloop
  endfacet
  facet normal 0 0 1
    outer loop
      vertex 13.3826 14.8629 4
      vertex 7.36044 8.17459 4
      vertex 8.89919 6.46564 4
    endloop
  endfacet
  facet normal 0 0 1
    outer loop
      vertex 5.5 9.52628 4
      vertex 10 17.3205 4
      vertex 6.18034 19.0211 4
    endloop
  endfacet
  facet normal 0 0 1
    outer loop
      vertex 10 17.3205 4
      vertex 5.5 9.52628 4
      vertex 7.36044 8.17459 4
    endloop
  endfacet
  facet normal 0 0 1
    outer loop
      vertex 6.18034 19.0211 4
      vertex 3.39919 10.4616 4
      vertex 5.5 9.52628 4
    endloop
  endfacet
  facet normal 0 0 1
    outer loop
      vertex 2.09057 19.8904 4
      vertex 3.39919 10.4616 4
      vertex 6.18034 19.0211 4
    endloop
  endfacet
  facet normal 0 0 1
    outer loop
      vertex 2.09057 19.8904 4
      vertex 1.14981 10.9397 4
      vertex 3.39919 10.4616 4
    endloop
  endfacet
  facet normal 0 0 1
    outer loop
      vertex 2.09057 19.8904 4
      vertex -1.14981 10.9397 4
      vertex 1.14981 10.9397 4
    endloop
  endfacet
  facet normal -0 0 1
    outer loop
      vertex -2.09057 19.8904 4
      vertex -1.14981 10.9397 4
      vertex 2.09057 19.8904 4
    endloop
  endfacet
  facet normal 0 0 1
    outer loop
      vertex -2.09057 19.8904 4
      vertex -3.39919 10.4616 4
      vertex -1.14981 10.9397 4
    endloop
  endfacet
  facet normal -0 0 1
    outer loop
      vertex -6.18034 19.0211 4
      vertex -3.39919 10.4616 4
      vertex -2.09057 19.8904 4
    endloop
  endfacet
  facet normal 0 0 1
    outer loop
      vertex -3.39919 10.4616 4
      vertex -6.18034 19.0211 4
      vertex -5.5 9.52628 4
    endloop
  endfacet
  facet normal -0 0 1
    outer loop
      vertex -10 17.3205 4
      vertex -5.5 9.52628 4
      vertex -6.18034 19.0211 4
    endloop
  endfacet
  facet normal 0 0 1
    outer loop
      vertex -5.5 9.52628 4
      vertex -10 17.3205 4
      vertex -7.36044 8.17459 4
    endloop
  endfacet
  facet normal -0 0 1
    outer loop
      vertex -13.3826 14.8629 4
      vertex -7.36044 8.17459 4
      vertex -10 17.3205 4
    endloop
  endfacet
  facet normal 0 0 1
    outer loop
      vertex -7.36044 8.17459 4
      vertex -13.3826 14.8629 4
      vertex -8.89919 6.46564 4
    endloop
  endfacet
  facet normal -0 0 1
    outer loop
      vertex -16.1803 11.7557 4
      vertex -8.89919 6.46564 4
      vertex -13.3826 14.8629 4
    endloop
  endfacet
  facet normal 0 0 1
    outer loop
      vertex -8.89919 6.46564 4
      vertex -16.1803 11.7557 4
      vertex -10.049 4.4741 4
    endloop
  endfacet
  facet normal -0 0 1
    outer loop
      vertex -18.2709 8.13473 4
      vertex -10.049 4.4741 4
      vertex -16.1803 11.7557 4
    endloop
  endfacet
  facet normal 0 0 1
    outer loop
      vertex 18.2709 -8.13473 4
      vertex 10.049 -4.4741 4
      vertex 16.1803 -11.7557 4
    endloop
  endfacet
  facet normal -0 0 1
    outer loop
      vertex 8.89919 -6.46564 4
      vertex 16.1803 -11.7557 4
      vertex 10.049 -4.4741 4
    endloop
  endfacet
  facet normal 0 0 1
    outer loop
      vertex 16.1803 -11.7557 4
      vertex 8.89919 -6.46564 4
      vertex 13.3826 -14.8629 4
    endloop
  endfacet
  facet normal -0 0 1
    outer loop
      vertex 7.36044 -8.17459 4
      vertex 13.3826 -14.8629 4
      vertex 8.89919 -6.46564 4
    endloop
  endfacet
  facet normal 0 0 1
    outer loop
      vertex 13.3826 -14.8629 4
      vertex 7.36044 -8.17459 4
      vertex 10 -17.3205 4
    endloop
  endfacet
  facet normal -0 0 1
    outer loop
      vertex 5.5 -9.52628 4
      vertex 10 -17.3205 4
      vertex 7.36044 -8.17459 4
    endloop
  endfacet
  facet normal 0 0 1
    outer loop
      vertex 10 -17.3205 4
      vertex 5.5 -9.52628 4
      vertex 6.18034 -19.0211 4
    endloop
  endfacet
  facet normal -0 0 1
    outer loop
      vertex 3.39919 -10.4616 4
      vertex 6.18034 -19.0211 4
      vertex 5.5 -9.52628 4
    endloop
  endfacet
  facet normal 0 0 1
    outer loop
      vertex 3.39919 -10.4616 4
      vertex 2.09057 -19.8904 4
      vertex 6.18034 -19.0211 4
    endloop
  endfacet
  facet normal -0 0 1
    outer loop
      vertex 1.14981 -10.9397 4
      vertex 2.09057 -19.8904 4
      vertex 3.39919 -10.4616 4
    endloop
  endfacet
  facet normal -0 0 1
    outer loop
      vertex -1.14981 -10.9397 4
      vertex 2.09057 -19.8904 4
      vertex 1.14981 -10.9397 4
    endloop
  endfacet
  facet normal 0 0 1
    outer loop
      vertex -1.14981 -10.9397 4
      vertex -2.09057 -19.8904 4
      vertex 2.09057 -19.8904 4
    endloop
  endfacet
  facet normal 0 0 1
    outer loop
      vertex -3.39919 -10.4616 4
      vertex -2.09057 -19.8904 4
      vertex -1.14981 -10.9397 4
    endloop
  endfacet
  facet normal 0 0 1
    outer loop
      vertex -6.18034 -19.0211 4
      vertex -3.39919 -10.4616 4
      vertex -5.5 -9.52628 4
    endloop
  endfacet
  facet normal 0 0 1
    outer loop
      vertex -3.39919 -10.4616 4
      vertex -6.18034 -19.0211 4
      vertex -2.09057 -19.8904 4
    endloop
  endfacet
  facet normal 0 0 1
    outer loop
      vertex -10 -17.3205 4
      vertex -5.5 -9.52628 4
      vertex -7.36044 -8.17459 4
    endloop
  endfacet
  facet normal 0 0 1
    outer loop
      vertex -13.3826 -14.8629 4
      vertex -7.36044 -8.17459 4
      vertex -8.89919 -6.46564 4
    endloop
  endfacet
  facet normal 0 0 1
    outer loop
      vertex -5.5 -9.52628 4
      vertex -10 -17.3205 4
      vertex -6.18034 -19.0211 4
    endloop
  endfacet
  facet normal 0 0 1
    outer loop
      vertex -16.1803 -11.7557 4
      vertex -8.89919 -6.46564 4
      vertex -10.049 -4.4741 4
    endloop
  endfacet
  facet normal 0 0 1
    outer loop
      vertex -18.2709 -8.13473 4
      vertex -10.049 -4.4741 4
      vertex -10.7596 -2.28703 4
    endloop
  endfacet
  facet normal 0 0 1
    outer loop
      vertex -19.563 -4.15823 4
      vertex -10.7596 -2.28703 4
      vertex -11 0 4
    endloop
  endfacet
  facet normal 0 0 1
    outer loop
      vertex -10.049 4.4741 4
      vertex -18.2709 8.13473 4
      vertex -10.7596 2.28703 4
    endloop
  endfacet
  facet normal 0 0 1
    outer loop
      vertex -7.36044 -8.17459 4
      vertex -13.3826 -14.8629 4
      vertex -10 -17.3205 4
    endloop
  endfacet
  facet normal -0 0 1
    outer loop
      vertex -19.563 4.15823 4
      vertex -10.7596 2.28703 4
      vertex -18.2709 8.13473 4
    endloop
  endfacet
  facet normal 0 0 1
    outer loop
      vertex -8.89919 -6.46564 4
      vertex -16.1803 -11.7557 4
      vertex -13.3826 -14.8629 4
    endloop
  endfacet
  facet normal 0 0 1
    outer loop
      vertex -10.7596 2.28703 4
      vertex -19.563 4.15823 4
      vertex -11 0 4
    endloop
  endfacet
  facet normal 0 0 1
    outer loop
      vertex -10.049 -4.4741 4
      vertex -18.2709 -8.13473 4
      vertex -16.1803 -11.7557 4
    endloop
  endfacet
  facet normal 0 0 1
    outer loop
      vertex -20 0 4
      vertex -11 0 4
      vertex -19.563 4.15823 4
    endloop
  endfacet
  facet normal 0 0 1
    outer loop
      vertex -10.7596 -2.28703 4
      vertex -19.563 -4.15823 4
      vertex -18.2709 -8.13473 4
    endloop
  endfacet
  facet normal 0 0 1
    outer loop
      vertex -11 0 4
      vertex -20 0 4
      vertex -19.563 -4.15823 4
    endloop
  endfacet
  facet normal -0.20791 -0.978148 0
    outer loop
      vertex -6.18034 -19.0211 -4
      vertex -2.09057 -19.8904 4
      vertex -6.18034 -19.0211 4
    endloop
  endfacet
  facet normal -0.20791 -0.978148 -0
    outer loop
      vertex -2.09057 -19.8904 4
      vertex -6.18034 -19.0211 -4
      vertex -2.09057 -19.8904 -4
    endloop
  endfacet
  facet normal 0.20791 0.978148 -0
    outer loop
      vertex 6.18034 19.0211 -4
      vertex 2.09057 19.8904 4
      vertex 6.18034 19.0211 4
    endloop
  endfacet
  facet normal 0.20791 0.978148 0
    outer loop
      vertex 2.09057 19.8904 4
      vertex 6.18034 19.0211 -4
      vertex 2.09057 19.8904 -4
    endloop
  endfacet
  facet normal -0.994523 -0.104517 0
    outer loop
      vertex -19.563 -4.15823 -4
      vertex -20 0 4
      vertex -20 0 -4
    endloop
  endfacet
  facet normal -0.994523 -0.104517 0
    outer loop
      vertex -20 0 4
      vertex -19.563 -4.15823 -4
      vertex -19.563 -4.15823 4
    endloop
  endfacet
  facet normal -0.866022 -0.500006 0
    outer loop
      vertex -16.1803 -11.7557 -4
      vertex -18.2709 -8.13473 4
      vertex -18.2709 -8.13473 -4
    endloop
  endfacet
  facet normal -0.866022 -0.500006 0
    outer loop
      vertex -18.2709 -8.13473 4
      vertex -16.1803 -11.7557 -4
      vertex -16.1803 -11.7557 4
    endloop
  endfacet
  facet normal -0.866022 0.500006 0
    outer loop
      vertex -18.2709 8.13473 -4
      vertex -16.1803 11.7557 4
      vertex -16.1803 11.7557 -4
    endloop
  endfacet
  facet normal -0.866022 0.500006 0
    outer loop
      vertex -16.1803 11.7557 4
      vertex -18.2709 8.13473 -4
      vertex -18.2709 8.13473 4
    endloop
  endfacet
  facet normal 0.866022 -0.500006 0
    outer loop
      vertex 16.1803 -11.7557 4
      vertex 18.2709 -8.13473 -4
      vertex 18.2709 -8.13473 4
    endloop
  endfacet
  facet normal 0.866022 -0.500006 0
    outer loop
      vertex 18.2709 -8.13473 -4
      vertex 16.1803 -11.7557 4
      vertex 16.1803 -11.7557 -4
    endloop
  endfacet
  facet normal 0.587785 0.809017 -0
    outer loop
      vertex 13.3826 14.8629 -4
      vertex 10 17.3205 4
      vertex 13.3826 14.8629 4
    endloop
  endfacet
  facet normal 0.587785 0.809017 0
    outer loop
      vertex 10 17.3205 4
      vertex 13.3826 14.8629 -4
      vertex 10 17.3205 -4
    endloop
  endfacet
  facet normal -0.587785 0.809017 0
    outer loop
      vertex -10 17.3205 -4
      vertex -13.3826 14.8629 4
      vertex -10 17.3205 4
    endloop
  endfacet
  facet normal -0.587785 0.809017 0
    outer loop
      vertex -13.3826 14.8629 4
      vertex -10 17.3205 -4
      vertex -13.3826 14.8629 -4
    endloop
  endfacet
  facet normal -0.20791 0.978148 0
    outer loop
      vertex -2.09057 19.8904 -4
      vertex -6.18034 19.0211 4
      vertex -2.09057 19.8904 4
    endloop
  endfacet
  facet normal -0.20791 0.978148 0
    outer loop
      vertex -6.18034 19.0211 4
      vertex -2.09057 19.8904 -4
      vertex -6.18034 19.0211 -4
    endloop
  endfacet
  facet normal 0 -1 0
    outer loop
      vertex -2.09057 -19.8904 -4
      vertex 2.09057 -19.8904 4
      vertex -2.09057 -19.8904 4
    endloop
  endfacet
  facet normal 0 -1 -0
    outer loop
      vertex 2.09057 -19.8904 4
      vertex -2.09057 -19.8904 -4
      vertex 2.09057 -19.8904 -4
    endloop
  endfacet
  facet normal -0.994523 0.104517 0
    outer loop
      vertex -20 0 -4
      vertex -19.563 4.15823 4
      vertex -19.563 4.15823 -4
    endloop
  endfacet
  facet normal -0.994523 0.104517 0
    outer loop
      vertex -19.563 4.15823 4
      vertex -20 0 -4
      vertex -20 0 4
    endloop
  endfacet
  facet normal -0.951059 -0.309008 0
    outer loop
      vertex 10.7596 2.28703 -4
      vertex 10.049 4.4741 4
      vertex 10.049 4.4741 -4
    endloop
  endfacet
  facet normal -0.951059 -0.309008 0
    outer loop
      vertex 10.049 4.4741 4
      vertex 10.7596 2.28703 -4
      vertex 10.7596 2.28703 4
    endloop
  endfacet
  facet normal -0.994521 -0.104539 0
    outer loop
      vertex 11 0 -4
      vertex 10.7596 2.28703 4
      vertex 10.7596 2.28703 -4
    endloop
  endfacet
  facet normal -0.994521 -0.104539 0
    outer loop
      vertex 10.7596 2.28703 4
      vertex 11 0 -4
      vertex 11 0 4
    endloop
  endfacet
  facet normal -0.951059 0.309008 0
    outer loop
      vertex 10.049 -4.4741 -4
      vertex 10.7596 -2.28703 4
      vertex 10.7596 -2.28703 -4
    endloop
  endfacet
  facet normal -0.951059 0.309008 0
    outer loop
      vertex 10.7596 -2.28703 4
      vertex 10.049 -4.4741 -4
      vertex 10.049 -4.4741 4
    endloop
  endfacet
  facet normal 0.587786 0.809017 -0
    outer loop
      vertex -5.5 -9.52628 -4
      vertex -7.36044 -8.17459 4
      vertex -5.5 -9.52628 4
    endloop
  endfacet
  facet normal 0.587786 0.809017 0
    outer loop
      vertex -7.36044 -8.17459 4
      vertex -5.5 -9.52628 -4
      vertex -7.36044 -8.17459 -4
    endloop
  endfacet
  facet normal -0.207903 0.978149 0
    outer loop
      vertex 3.39919 -10.4616 -4
      vertex 1.14981 -10.9397 4
      vertex 3.39919 -10.4616 4
    endloop
  endfacet
  facet normal -0.207903 0.978149 0
    outer loop
      vertex 1.14981 -10.9397 4
      vertex 3.39919 -10.4616 -4
      vertex 1.14981 -10.9397 -4
    endloop
  endfacet
  facet normal 0.866027 0.499998 0
    outer loop
      vertex -8.89919 -6.46564 4
      vertex -10.049 -4.4741 -4
      vertex -10.049 -4.4741 4
    endloop
  endfacet
  facet normal 0.866027 0.499998 0
    outer loop
      vertex -10.049 -4.4741 -4
      vertex -8.89919 -6.46564 4
      vertex -8.89919 -6.46564 -4
    endloop
  endfacet
  facet normal -0.207903 -0.978149 0
    outer loop
      vertex 1.14981 10.9397 -4
      vertex 3.39919 10.4616 4
      vertex 1.14981 10.9397 4
    endloop
  endfacet
  facet normal -0.207903 -0.978149 -0
    outer loop
      vertex 3.39919 10.4616 4
      vertex 1.14981 10.9397 -4
      vertex 3.39919 10.4616 -4
    endloop
  endfacet
  facet normal 0.207903 0.978149 -0
    outer loop
      vertex -1.14981 -10.9397 -4
      vertex -3.39919 -10.4616 4
      vertex -1.14981 -10.9397 4
    endloop
  endfacet
  facet normal 0.207903 0.978149 0
    outer loop
      vertex -3.39919 -10.4616 4
      vertex -1.14981 -10.9397 -4
      vertex -3.39919 -10.4616 -4
    endloop
  endfacet
  facet normal -0.587786 -0.809017 0
    outer loop
      vertex 5.5 9.52628 -4
      vertex 7.36044 8.17459 4
      vertex 5.5 9.52628 4
    endloop
  endfacet
  facet normal -0.587786 -0.809017 -0
    outer loop
      vertex 7.36044 8.17459 4
      vertex 5.5 9.52628 -4
      vertex 7.36044 8.17459 -4
    endloop
  endfacet
  facet normal -0.406729 -0.913549 0
    outer loop
      vertex 3.39919 10.4616 -4
      vertex 5.5 9.52628 4
      vertex 3.39919 10.4616 4
    endloop
  endfacet
  facet normal -0.406729 -0.913549 -0
    outer loop
      vertex 5.5 9.52628 4
      vertex 3.39919 10.4616 -4
      vertex 5.5 9.52628 -4
    endloop
  endfacet
  facet normal 0.951059 -0.309008 0
    outer loop
      vertex -10.7596 2.28703 4
      vertex -10.049 4.4741 -4
      vertex -10.049 4.4741 4
    endloop
  endfacet
  facet normal 0.951059 -0.309008 0
    outer loop
      vertex -10.049 4.4741 -4
      vertex -10.7596 2.28703 4
      vertex -10.7596 2.28703 -4
    endloop
  endfacet
  facet normal 0.406729 0.913549 -0
    outer loop
      vertex -3.39919 -10.4616 -4
      vertex -5.5 -9.52628 4
      vertex -3.39919 -10.4616 4
    endloop
  endfacet
  facet normal 0.406729 0.913549 0
    outer loop
      vertex -5.5 -9.52628 4
      vertex -3.39919 -10.4616 -4
      vertex -5.5 -9.52628 -4
    endloop
  endfacet
  facet normal 0.866027 -0.499998 0
    outer loop
      vertex -10.049 4.4741 4
      vertex -8.89919 6.46564 -4
      vertex -8.89919 6.46564 4
    endloop
  endfacet
  facet normal 0.866027 -0.499998 0
    outer loop
      vertex -8.89919 6.46564 -4
      vertex -10.049 4.4741 4
      vertex -10.049 4.4741 -4
    endloop
  endfacet
  facet normal -0.587786 0.809017 0
    outer loop
      vertex 7.36044 -8.17459 -4
      vertex 5.5 -9.52628 4
      vertex 7.36044 -8.17459 4
    endloop
  endfacet
  facet normal -0.587786 0.809017 0
    outer loop
      vertex 5.5 -9.52628 4
      vertex 7.36044 -8.17459 -4
      vertex 5.5 -9.52628 -4
    endloop
  endfacet
  facet normal 0.207903 -0.978149 0
    outer loop
      vertex -3.39919 10.4616 -4
      vertex -1.14981 10.9397 4
      vertex -3.39919 10.4616 4
    endloop
  endfacet
  facet normal 0.207903 -0.978149 0
    outer loop
      vertex -1.14981 10.9397 4
      vertex -3.39919 10.4616 -4
      vertex -1.14981 10.9397 -4
    endloop
  endfacet
  facet normal -0.994521 0.104539 0
    outer loop
      vertex 10.7596 -2.28703 -4
      vertex 11 0 4
      vertex 11 0 -4
    endloop
  endfacet
  facet normal -0.994521 0.104539 0
    outer loop
      vertex 11 0 4
      vertex 10.7596 -2.28703 -4
      vertex 10.7596 -2.28703 4
    endloop
  endfacet
  facet normal 0.743144 -0.669132 0
    outer loop
      vertex -8.89919 6.46564 4
      vertex -7.36044 8.17459 -4
      vertex -7.36044 8.17459 4
    endloop
  endfacet
  facet normal 0.743144 -0.669132 0
    outer loop
      vertex -7.36044 8.17459 -4
      vertex -8.89919 6.46564 4
      vertex -8.89919 6.46564 -4
    endloop
  endfacet
  facet normal 0 -1 0
    outer loop
      vertex -1.14981 10.9397 -4
      vertex 1.14981 10.9397 4
      vertex -1.14981 10.9397 4
    endloop
  endfacet
  facet normal 0 -1 -0
    outer loop
      vertex 1.14981 10.9397 4
      vertex -1.14981 10.9397 -4
      vertex 1.14981 10.9397 -4
    endloop
  endfacet
  facet normal -0.866027 0.499998 0
    outer loop
      vertex 8.89919 -6.46564 -4
      vertex 10.049 -4.4741 4
      vertex 10.049 -4.4741 -4
    endloop
  endfacet
  facet normal -0.866027 0.499998 0
    outer loop
      vertex 10.049 -4.4741 4
      vertex 8.89919 -6.46564 -4
      vertex 8.89919 -6.46564 4
    endloop
  endfacet
  facet normal 0.587786 -0.809017 0
    outer loop
      vertex -7.36044 8.17459 -4
      vertex -5.5 9.52628 4
      vertex -7.36044 8.17459 4
    endloop
  endfacet
  facet normal 0.587786 -0.809017 0
    outer loop
      vertex -5.5 9.52628 4
      vertex -7.36044 8.17459 -4
      vertex -5.5 9.52628 -4
    endloop
  endfacet
  facet normal -0.406729 0.913549 0
    outer loop
      vertex 5.5 -9.52628 -4
      vertex 3.39919 -10.4616 4
      vertex 5.5 -9.52628 4
    endloop
  endfacet
  facet normal -0.406729 0.913549 0
    outer loop
      vertex 3.39919 -10.4616 4
      vertex 5.5 -9.52628 -4
      vertex 3.39919 -10.4616 -4
    endloop
  endfacet
  facet normal 0.406729 -0.913549 0
    outer loop
      vertex -5.5 9.52628 -4
      vertex -3.39919 10.4616 4
      vertex -5.5 9.52628 4
    endloop
  endfacet
  facet normal 0.406729 -0.913549 0
    outer loop
      vertex -3.39919 10.4616 4
      vertex -5.5 9.52628 -4
      vertex -3.39919 10.4616 -4
    endloop
  endfacet
  facet normal -0.743144 0.669132 0
    outer loop
      vertex 7.36044 -8.17459 -4
      vertex 8.89919 -6.46564 4
      vertex 8.89919 -6.46564 -4
    endloop
  endfacet
  facet normal -0.743144 0.669132 0
    outer loop
      vertex 8.89919 -6.46564 4
      vertex 7.36044 -8.17459 -4
      vertex 7.36044 -8.17459 4
    endloop
  endfacet
  facet normal -0.743144 -0.669132 0
    outer loop
      vertex 8.89919 6.46564 -4
      vertex 7.36044 8.17459 4
      vertex 7.36044 8.17459 -4
    endloop
  endfacet
  facet normal -0.743144 -0.669132 0
    outer loop
      vertex 7.36044 8.17459 4
      vertex 8.89919 6.46564 -4
      vertex 8.89919 6.46564 4
    endloop
  endfacet
  facet normal 0.994521 -0.104539 0
    outer loop
      vertex -11 0 4
      vertex -10.7596 2.28703 -4
      vertex -10.7596 2.28703 4
    endloop
  endfacet
  facet normal 0.994521 -0.104539 0
    outer loop
      vertex -10.7596 2.28703 -4
      vertex -11 0 4
      vertex -11 0 -4
    endloop
  endfacet
  facet normal -0.866027 -0.499998 0
    outer loop
      vertex 10.049 4.4741 -4
      vertex 8.89919 6.46564 4
      vertex 8.89919 6.46564 -4
    endloop
  endfacet
  facet normal -0.866027 -0.499998 0
    outer loop
      vertex 8.89919 6.46564 4
      vertex 10.049 4.4741 -4
      vertex 10.049 4.4741 4
    endloop
  endfacet
  facet normal 0 1 -0
    outer loop
      vertex 1.14981 -10.9397 -4
      vertex -1.14981 -10.9397 4
      vertex 1.14981 -10.9397 4
    endloop
  endfacet
  facet normal 0 1 0
    outer loop
      vertex -1.14981 -10.9397 4
      vertex 1.14981 -10.9397 -4
      vertex -1.14981 -10.9397 -4
    endloop
  endfacet
  facet normal 0.951059 0.309008 0
    outer loop
      vertex -10.049 -4.4741 4
      vertex -10.7596 -2.28703 -4
      vertex -10.7596 -2.28703 4
    endloop
  endfacet
  facet normal 0.951059 0.309008 0
    outer loop
      vertex -10.7596 -2.28703 -4
      vertex -10.049 -4.4741 4
      vertex -10.049 -4.4741 -4
    endloop
  endfacet
  facet normal 0.743144 0.669132 0
    outer loop
      vertex -7.36044 -8.17459 4
      vertex -8.89919 -6.46564 -4
      vertex -8.89919 -6.46564 4
    endloop
  endfacet
  facet normal 0.743144 0.669132 0
    outer loop
      vertex -8.89919 -6.46564 -4
      vertex -7.36044 -8.17459 4
      vertex -7.36044 -8.17459 -4
    endloop
  endfacet
  facet normal 0.994521 0.104539 0
    outer loop
      vertex -10.7596 -2.28703 4
      vertex -11 0 -4
      vertex -11 0 4
    endloop
  endfacet
  facet normal 0.994521 0.104539 0
    outer loop
      vertex -11 0 -4
      vertex -10.7596 -2.28703 4
      vertex -10.7596 -2.28703 -4
    endloop
  endfacet
endsolid OpenSCAD_Model
