solid OpenSCAD_Model
  facet normal 1 0 0
    outer loop
      vertex 60 50 60
      vertex 60 40 50
      vertex 60 50 50
    endloop
  endfacet
  facet normal 1 0 0
    outer loop
      vertex 60 40 50
      vertex 60 30 40
      vertex 60 40 40
    endloop
  endfacet
  facet normal 1 -0 0
    outer loop
      vertex 60 0 60
      vertex 60 40 50
      vertex 60 50 60
    endloop
  endfacet
  facet normal 1 0 0
    outer loop
      vertex 60 30 40
      vertex 60 20 30
      vertex 60 30 30
    endloop
  endfacet
  facet normal 1 0 0
    outer loop
      vertex 60 40 50
      vertex 60 0 60
      vertex 60 30 40
    endloop
  endfacet
  facet normal 1 0 0
    outer loop
      vertex 60 20 30
      vertex 60 10 20
      vertex 60 20 20
    endloop
  endfacet
  facet normal 1 0 0
    outer loop
      vertex 60 30 40
      vertex 60 0 60
      vertex 60 20 30
    endloop
  endfacet
  facet normal 1 0 0
    outer loop
      vertex 60 20 30
      vertex 60 0 60
      vertex 60 10 20
    endloop
  endfacet
  facet normal 1 0 0
    outer loop
      vertex 60 0 10
      vertex 60 10 20
      vertex 60 0 60
    endloop
  endfacet
  facet normal 1 0 0
    outer loop
      vertex 60 10 20
      vertex 60 0 10
      vertex 60 10 10
    endloop
  endfacet
  facet normal 0 0 -1
    outer loop
      vertex 0 0 10
      vertex 60 10 10
      vertex 60 0 10
    endloop
  endfacet
  facet normal -0 0 -1
    outer loop
      vertex 60 10 10
      vertex 0 0 10
      vertex 0 10 10
    endloop
  endfacet
  facet normal -1 0 0
    outer loop
      vertex 0 10 10
      vertex 0 0 10
      vertex 0 10 20
    endloop
  endfacet
  facet normal -1 0 0
    outer loop
      vertex 0 20 20
      vertex 0 10 20
      vertex 0 20 30
    endloop
  endfacet
  facet normal -1 0 0
    outer loop
      vertex 0 30 30
      vertex 0 20 30
      vertex 0 30 40
    endloop
  endfacet
  facet normal -1 0 0
    outer loop
      vertex 0 40 40
      vertex 0 30 40
      vertex 0 40 50
    endloop
  endfacet
  facet normal -1 0 0
    outer loop
      vertex 0 40 50
      vertex 0 50 60
      vertex 0 50 50
    endloop
  endfacet
  facet normal -1 0 0
    outer loop
      vertex 0 0 60
      vertex 0 40 50
      vertex 0 30 40
    endloop
  endfacet
  facet normal -1 0 0
    outer loop
      vertex 0 0 60
      vertex 0 30 40
      vertex 0 20 30
    endloop
  endfacet
  facet normal -1 0 0
    outer loop
      vertex 0 0 60
      vertex 0 20 30
      vertex 0 10 20
    endloop
  endfacet
  facet normal -1 0 0
    outer loop
      vertex 0 0 60
      vertex 0 10 20
      vertex 0 0 10
    endloop
  endfacet
  facet normal -1 0 0
    outer loop
      vertex 0 40 50
      vertex 0 0 60
      vertex 0 50 60
    endloop
  endfacet
  facet normal 0 1 -0
    outer loop
      vertex 60 10 10
      vertex 0 10 20
      vertex 60 10 20
    endloop
  endfacet
  facet normal 0 1 0
    outer loop
      vertex 0 10 20
      vertex 60 10 10
      vertex 0 10 10
    endloop
  endfacet
  facet normal 0 -1 0
    outer loop
      vertex 0 0 10
      vertex 60 0 60
      vertex 0 0 60
    endloop
  endfacet
  facet normal 0 -1 -0
    outer loop
      vertex 60 0 60
      vertex 0 0 10
      vertex 60 0 10
    endloop
  endfacet
  facet normal 0 0 -1
    outer loop
      vertex 0 10 20
      vertex 60 20 20
      vertex 60 10 20
    endloop
  endfacet
  facet normal -0 0 -1
    outer loop
      vertex 60 20 20
      vertex 0 10 20
      vertex 0 20 20
    endloop
  endfacet
  facet normal 0 1 -0
    outer loop
      vertex 60 20 20
      vertex 0 20 30
      vertex 60 20 30
    endloop
  endfacet
  facet normal 0 1 0
    outer loop
      vertex 0 20 30
      vertex 60 20 20
      vertex 0 20 20
    endloop
  endfacet
  facet normal 0 0 -1
    outer loop
      vertex 0 20 30
      vertex 60 30 30
      vertex 60 20 30
    endloop
  endfacet
  facet normal -0 0 -1
    outer loop
      vertex 60 30 30
      vertex 0 20 30
      vertex 0 30 30
    endloop
  endfacet
  facet normal 0 1 -0
    outer loop
      vertex 60 30 30
      vertex 0 30 40
      vertex 60 30 40
    endloop
  endfacet
  facet normal 0 1 0
    outer loop
      vertex 0 30 40
      vertex 60 30 30
      vertex 0 30 30
    endloop
  endfacet
  facet normal 0 0 -1
    outer loop
      vertex 0 30 40
      vertex 60 40 40
      vertex 60 30 40
    endloop
  endfacet
  facet normal -0 0 -1
    outer loop
      vertex 60 40 40
      vertex 0 30 40
      vertex 0 40 40
    endloop
  endfacet
  facet normal 0 1 -0
    outer loop
      vertex 60 40 40
      vertex 0 40 50
      vertex 60 40 50
    endloop
  endfacet
  facet normal 0 1 0
    outer loop
      vertex 0 40 50
      vertex 60 40 40
      vertex 0 40 40
    endloop
  endfacet
  facet normal 0 0 -1
    outer loop
      vertex 0 40 50
      vertex 60 50 50
      vertex 60 40 50
    endloop
  endfacet
  facet normal -0 0 -1
    outer loop
      vertex 60 50 50
      vertex 0 40 50
      vertex 0 50 50
    endloop
  endfacet
  facet normal 0 1 -0
    outer loop
      vertex 60 50 50
      vertex 0 50 60
      vertex 60 50 60
    endloop
  endfacet
  facet normal 0 1 0
    outer loop
      vertex 0 50 60
      vertex 60 50 50
      vertex 0 50 50
    endloop
  endfacet
  facet normal -0 0 1
    outer loop
      vertex 0 50 60
      vertex 60 0 60
      vertex 60 50 60
    endloop
  endfacet
  facet normal 0 0 1
    outer loop
      vertex 60 0 60
      vertex 0 50 60
      vertex 0 0 60
    endloop
  endfacet
endsolid OpenSCAD_Model
