solid OpenSCAD_Model
  facet normal 1 -0 0
    outer loop
      vertex 50 -5 2.5
      vertex 50 5 -2.5
      vertex 50 5 2.5
    endloop
  endfacet
  facet normal 1 0 0
    outer loop
      vertex 50 5 -2.5
      vertex 50 -5 2.5
      vertex 50 -5 -2.5
    endloop
  endfacet
  facet normal -0 0 1
    outer loop
      vertex -50 5 2.5
      vertex 50 -5 2.5
      vertex 50 5 2.5
    endloop
  endfacet
  facet normal 0 0 1
    outer loop
      vertex 50 -5 2.5
      vertex -50 5 2.5
      vertex -50 -5 2.5
    endloop
  endfacet
  facet normal 0 0 -1
    outer loop
      vertex -50 -5 -2.5
      vertex 50 5 -2.5
      vertex 50 -5 -2.5
    endloop
  endfacet
  facet normal -0 0 -1
    outer loop
      vertex 50 5 -2.5
      vertex -50 -5 -2.5
      vertex -50 5 -2.5
    endloop
  endfacet
  facet normal -1 0 0
    outer loop
      vertex -50 -5 -2.5
      vertex -50 5 2.5
      vertex -50 5 -2.5
    endloop
  endfacet
  facet normal -1 -0 0
    outer loop
      vertex -50 5 2.5
      vertex -50 -5 -2.5
      vertex -50 -5 2.5
    endloop
  endfacet
  facet normal 0 1 -0
    outer loop
      vertex 50 5 -2.5
      vertex -50 5 2.5
      vertex 50 5 2.5
    endloop
  endfacet
  facet normal 0 1 0
    outer loop
      vertex -50 5 2.5
      vertex 50 5 -2.5
      vertex -50 5 -2.5
    endloop
  endfacet
  facet normal 0 -1 0
    outer loop
      vertex -50 -5 -2.5
      vertex 50 -5 2.5
      vertex -50 -5 2.5
    endloop
  endfacet
  facet normal 0 -1 -0
    outer loop
      vertex 50 -5 2.5
      vertex -50 -5 -2.5
      vertex 50 -5 -2.5
    endloop
  endfacet
  facet normal 1 -0 0
    outer loop
      vertex 170 -5 2.5
      vertex 170 5 -2.5
      vertex 170 5 2.5
    endloop
  endfacet
  facet normal 1 0 0
    outer loop
      vertex 170 5 -2.5
      vertex 170 -5 2.5
      vertex 170 -5 -2.5
    endloop
  endfacet
  facet normal -0 0 1
    outer loop
      vertex 70 5 2.5
      vertex 170 -5 2.5
      vertex 170 5 2.5
    endloop
  endfacet
  facet normal 0 0 1
    outer loop
      vertex 170 -5 2.5
      vertex 70 5 2.5
      vertex 70 -5 2.5
    endloop
  endfacet
  facet normal 0 0 -1
    outer loop
      vertex 70 -5 -2.5
      vertex 170 5 -2.5
      vertex 170 -5 -2.5
    endloop
  endfacet
  facet normal -0 0 -1
    outer loop
      vertex 170 5 -2.5
      vertex 70 -5 -2.5
      vertex 70 5 -2.5
    endloop
  endfacet
  facet normal -1 0 0
    outer loop
      vertex 70 -5 -2.5
      vertex 70 5 2.5
      vertex 70 5 -2.5
    endloop
  endfacet
  facet normal -1 -0 0
    outer loop
      vertex 70 5 2.5
      vertex 70 -5 -2.5
      vertex 70 -5 2.5
    endloop
  endfacet
  facet normal 0 1 -0
    outer loop
      vertex 170 5 -2.5
      vertex 70 5 2.5
      vertex 170 5 2.5
    endloop
  endfacet
  facet normal 0 1 0
    outer loop
      vertex 70 5 2.5
      vertex 170 5 -2.5
      vertex 70 5 -2.5
    endloop
  endfacet
  facet normal 0 -1 0
    outer loop
      vertex 70 -5 -2.5
      vertex 170 -5 2.5
      vertex 70 -5 2.5
    endloop
  endfacet
  facet normal 0 -1 -0
    outer loop
      vertex 170 -5 2.5
      vertex 70 -5 -2.5
      vertex 170 -5 -2.5
    endloop
  endfacet
  facet normal 1 -0 0
    outer loop
      vertex 50 55 2.5
      vertex 50 65 -2.5
      vertex 50 65 2.5
    endloop
  endfacet
  facet normal 1 0 0
    outer loop
      vertex 50 65 -2.5
      vertex 50 55 2.5
      vertex 50 55 -2.5
    endloop
  endfacet
  facet normal -0 0 1
    outer loop
      vertex -50 65 2.5
      vertex 50 55 2.5
      vertex 50 65 2.5
    endloop
  endfacet
  facet normal 0 0 1
    outer loop
      vertex 50 55 2.5
      vertex -50 65 2.5
      vertex -50 55 2.5
    endloop
  endfacet
  facet normal 0 0 -1
    outer loop
      vertex -50 55 -2.5
      vertex 50 65 -2.5
      vertex 50 55 -2.5
    endloop
  endfacet
  facet normal -0 0 -1
    outer loop
      vertex 50 65 -2.5
      vertex -50 55 -2.5
      vertex -50 65 -2.5
    endloop
  endfacet
  facet normal -1 0 0
    outer loop
      vertex -50 55 -2.5
      vertex -50 65 2.5
      vertex -50 65 -2.5
    endloop
  endfacet
  facet normal -1 -0 0
    outer loop
      vertex -50 65 2.5
      vertex -50 55 -2.5
      vertex -50 55 2.5
    endloop
  endfacet
  facet normal 0 1 -0
    outer loop
      vertex 50 65 -2.5
      vertex -50 65 2.5
      vertex 50 65 2.5
    endloop
  endfacet
  facet normal 0 1 0
    outer loop
      vertex -50 65 2.5
      vertex 50 65 -2.5
      vertex -50 65 -2.5
    endloop
  endfacet
  facet normal 0 -1 0
    outer loop
      vertex -50 55 -2.5
      vertex 50 55 2.5
      vertex -50 55 2.5
    endloop
  endfacet
  facet normal 0 -1 -0
    outer loop
      vertex 50 55 2.5
      vertex -50 55 -2.5
      vertex 50 55 -2.5
    endloop
  endfacet
  facet normal 1 -0 0
    outer loop
      vertex 170 55 2.5
      vertex 170 65 -2.5
      vertex 170 65 2.5
    endloop
  endfacet
  facet normal 1 0 0
    outer loop
      vertex 170 65 -2.5
      vertex 170 55 2.5
      vertex 170 55 -2.5
    endloop
  endfacet
  facet normal -0 0 1
    outer loop
      vertex 70 65 2.5
      vertex 170 55 2.5
      vertex 170 65 2.5
    endloop
  endfacet
  facet normal 0 0 1
    outer loop
      vertex 170 55 2.5
      vertex 70 65 2.5
      vertex 70 55 2.5
    endloop
  endfacet
  facet normal 0 0 -1
    outer loop
      vertex 70 55 -2.5
      vertex 170 65 -2.5
      vertex 170 55 -2.5
    endloop
  endfacet
  facet normal -0 0 -1
    outer loop
      vertex 170 65 -2.5
      vertex 70 55 -2.5
      vertex 70 65 -2.5
    endloop
  endfacet
  facet normal -1 0 0
    outer loop
      vertex 70 55 -2.5
      vertex 70 65 2.5
      vertex 70 65 -2.5
    endloop
  endfacet
  facet normal -1 -0 0
    outer loop
      vertex 70 65 2.5
      vertex 70 55 -2.5
      vertex 70 55 2.5
    endloop
  endfacet
  facet normal 0 1 -0
    outer loop
      vertex 170 65 -2.5
      vertex 70 65 2.5
      vertex 170 65 2.5
    endloop
  endfacet
  facet normal 0 1 0
    outer loop
      vertex 70 65 2.5
      vertex 170 65 -2.5
      vertex 70 65 -2.5
    endloop
  endfacet
  facet normal 0 -1 0
    outer loop
      vertex 70 55 -2.5
      vertex 170 55 2.5
      vertex 70 55 2.5
    endloop
  endfacet
  facet normal 0 -1 -0
    outer loop
      vertex 170 55 2.5
      vertex 70 55 -2.5
      vertex 170 55 -2.5
    endloop
  endfacet
endsolid OpenSCAD_Model
