solid OpenSCAD_Model
  facet normal 1 -0 0
    outer loop
      vertex 10 0 200
      vertex 10 10 150
      vertex 10 10 200
    endloop
  endfacet
  facet normal 1 0 0
    outer loop
      vertex 10 10 150
      vertex 10 0 200
      vertex 10 0 150
    endloop
  endfacet
  facet normal -0 0 1
    outer loop
      vertex 0 10 200
      vertex 10 0 200
      vertex 10 10 200
    endloop
  endfacet
  facet normal 0 0 1
    outer loop
      vertex 10 0 200
      vertex 0 10 200
      vertex 0 0 200
    endloop
  endfacet
  facet normal 0 0 -1
    outer loop
      vertex 0 0 150
      vertex 10 10 150
      vertex 10 0 150
    endloop
  endfacet
  facet normal -0 0 -1
    outer loop
      vertex 10 10 150
      vertex 0 0 150
      vertex 0 10 150
    endloop
  endfacet
  facet normal -1 0 0
    outer loop
      vertex 0 0 150
      vertex 0 10 200
      vertex 0 10 150
    endloop
  endfacet
  facet normal -1 -0 0
    outer loop
      vertex 0 10 200
      vertex 0 0 150
      vertex 0 0 200
    endloop
  endfacet
  facet normal 0 1 -0
    outer loop
      vertex 10 10 150
      vertex 0 10 200
      vertex 10 10 200
    endloop
  endfacet
  facet normal 0 1 0
    outer loop
      vertex 0 10 200
      vertex 10 10 150
      vertex 0 10 150
    endloop
  endfacet
  facet normal 0 -1 0
    outer loop
      vertex 0 0 150
      vertex 10 0 200
      vertex 0 0 200
    endloop
  endfacet
  facet normal 0 -1 -0
    outer loop
      vertex 10 0 200
      vertex 0 0 150
      vertex 10 0 150
    endloop
  endfacet
  facet normal 1 -0 0
    outer loop
      vertex 50 0 110
      vertex 50 50 100
      vertex 50 50 110
    endloop
  endfacet
  facet normal 1 0 0
    outer loop
      vertex 50 50 100
      vertex 50 0 110
      vertex 50 0 100
    endloop
  endfacet
  facet normal -0 0 1
    outer loop
      vertex 0 50 110
      vertex 50 0 110
      vertex 50 50 110
    endloop
  endfacet
  facet normal 0 0 1
    outer loop
      vertex 50 0 110
      vertex 0 50 110
      vertex 0 0 110
    endloop
  endfacet
  facet normal 0 0 -1
    outer loop
      vertex 50 0 100
      vertex 40 10 100
      vertex 50 50 100
    endloop
  endfacet
  facet normal 0 0 -1
    outer loop
      vertex 50 0 100
      vertex 10 10 100
      vertex 40 10 100
    endloop
  endfacet
  facet normal -0 0 -1
    outer loop
      vertex 10 10 100
      vertex 0 0 100
      vertex 10 40 100
    endloop
  endfacet
  facet normal 0 0 -1
    outer loop
      vertex 0 0 100
      vertex 10 10 100
      vertex 50 0 100
    endloop
  endfacet
  facet normal 0 0 -1
    outer loop
      vertex 40 40 100
      vertex 50 50 100
      vertex 40 10 100
    endloop
  endfacet
  facet normal 0 0 -1
    outer loop
      vertex 10 40 100
      vertex 50 50 100
      vertex 40 40 100
    endloop
  endfacet
  facet normal 0 0 -1
    outer loop
      vertex 10 40 100
      vertex 0 50 100
      vertex 50 50 100
    endloop
  endfacet
  facet normal 0 0 -1
    outer loop
      vertex 0 50 100
      vertex 10 40 100
      vertex 0 0 100
    endloop
  endfacet
  facet normal -1 0 0
    outer loop
      vertex 0 0 100
      vertex 0 50 110
      vertex 0 50 100
    endloop
  endfacet
  facet normal -1 -0 0
    outer loop
      vertex 0 50 110
      vertex 0 0 100
      vertex 0 0 110
    endloop
  endfacet
  facet normal 0 1 -0
    outer loop
      vertex 50 50 100
      vertex 0 50 110
      vertex 50 50 110
    endloop
  endfacet
  facet normal 0 1 0
    outer loop
      vertex 0 50 110
      vertex 50 50 100
      vertex 0 50 100
    endloop
  endfacet
  facet normal 0 -1 0
    outer loop
      vertex 0 0 100
      vertex 50 0 110
      vertex 0 0 110
    endloop
  endfacet
  facet normal 0 -1 -0
    outer loop
      vertex 50 0 110
      vertex 0 0 100
      vertex 50 0 100
    endloop
  endfacet
  facet normal 1 -0 0
    outer loop
      vertex 40 10 100
      vertex 40 40 40
      vertex 40 40 100
    endloop
  endfacet
  facet normal 1 0 0
    outer loop
      vertex 40 40 40
      vertex 40 10 100
      vertex 40 10 40
    endloop
  endfacet
  facet normal -1 0 0
    outer loop
      vertex 10 10 50
      vertex 10 40 40
      vertex 10 10 40
    endloop
  endfacet
  facet normal -1 0 0
    outer loop
      vertex 10 40 40
      vertex 10 10 50
      vertex 10 40 100
    endloop
  endfacet
  facet normal -1 -0 0
    outer loop
      vertex 10 40 100
      vertex 10 10 50
      vertex 10 10 100
    endloop
  endfacet
  facet normal 0 1 -0
    outer loop
      vertex 40 40 40
      vertex 10 40 100
      vertex 40 40 100
    endloop
  endfacet
  facet normal 0 1 0
    outer loop
      vertex 10 40 100
      vertex 40 40 40
      vertex 10 40 40
    endloop
  endfacet
  facet normal 0 -1 0
    outer loop
      vertex 10 10 50
      vertex 40 10 100
      vertex 10 10 100
    endloop
  endfacet
  facet normal 0 -1 0
    outer loop
      vertex 40 10 40
      vertex 10 10 50
      vertex 10 10 40
    endloop
  endfacet
  facet normal 0 -1 0
    outer loop
      vertex 10 10 50
      vertex 40 10 40
      vertex 40 10 100
    endloop
  endfacet
  facet normal 0 0 -1
    outer loop
      vertex 10 10 40
      vertex 40 40 40
      vertex 40 10 40
    endloop
  endfacet
  facet normal -0 0 -1
    outer loop
      vertex 40 40 40
      vertex 10 10 40
      vertex 10 40 40
    endloop
  endfacet
  facet normal 1 -0 0
    outer loop
      vertex 50 0 20
      vertex 50 50 10
      vertex 50 50 20
    endloop
  endfacet
  facet normal 1 0 0
    outer loop
      vertex 50 50 10
      vertex 50 0 20
      vertex 50 0 10
    endloop
  endfacet
  facet normal 0 0 1
    outer loop
      vertex 50 50 20
      vertex 10 10 20
      vertex 50 0 20
    endloop
  endfacet
  facet normal -0 0 1
    outer loop
      vertex 0 50 20
      vertex 10 10 20
      vertex 50 50 20
    endloop
  endfacet
  facet normal 0 0 1
    outer loop
      vertex 10 10 20
      vertex 0 50 20
      vertex 0 10 20
    endloop
  endfacet
  facet normal 0 0 1
    outer loop
      vertex 50 0 20
      vertex 10 10 20
      vertex 10 0 20
    endloop
  endfacet
  facet normal 0 0 -1
    outer loop
      vertex 10 10 10
      vertex 50 0 10
      vertex 10 0 10
    endloop
  endfacet
  facet normal 0 0 -1
    outer loop
      vertex 50 0 10
      vertex 10 10 10
      vertex 50 50 10
    endloop
  endfacet
  facet normal 0 0 -1
    outer loop
      vertex 0 50 10
      vertex 10 10 10
      vertex 0 10 10
    endloop
  endfacet
  facet normal 0 0 -1
    outer loop
      vertex 10 10 10
      vertex 0 50 10
      vertex 50 50 10
    endloop
  endfacet
  facet normal -1 0 0
    outer loop
      vertex 0 0 0
      vertex 0 10 10
      vertex 0 10 0
    endloop
  endfacet
  facet normal -1 -0 0
    outer loop
      vertex 0 10 10
      vertex 0 0 0
      vertex 0 10 20
    endloop
  endfacet
  facet normal -1 0 0
    outer loop
      vertex 0 0 50
      vertex 0 10 20
      vertex 0 0 0
    endloop
  endfacet
  facet normal -1 0 0
    outer loop
      vertex 0 10 20
      vertex 0 0 50
      vertex 0 10 50
    endloop
  endfacet
  facet normal -1 0 0
    outer loop
      vertex 0 10 10
      vertex 0 50 20
      vertex 0 50 10
    endloop
  endfacet
  facet normal -1 -0 0
    outer loop
      vertex 0 50 20
      vertex 0 10 10
      vertex 0 10 20
    endloop
  endfacet
  facet normal 0 1 -0
    outer loop
      vertex 50 50 10
      vertex 0 50 20
      vertex 50 50 20
    endloop
  endfacet
  facet normal 0 1 0
    outer loop
      vertex 0 50 20
      vertex 50 50 10
      vertex 0 50 10
    endloop
  endfacet
  facet normal 0 -1 0
    outer loop
      vertex 0 0 50
      vertex 10 0 20
      vertex 10 0 50
    endloop
  endfacet
  facet normal 0 -1 0
    outer loop
      vertex 10 0 20
      vertex 10 0 10
      vertex 50 0 20
    endloop
  endfacet
  facet normal 0 -1 0
    outer loop
      vertex 0 0 0
      vertex 10 0 20
      vertex 0 0 50
    endloop
  endfacet
  facet normal 0 -1 -0
    outer loop
      vertex 10 0 20
      vertex 0 0 0
      vertex 10 0 10
    endloop
  endfacet
  facet normal 0 -1 -0
    outer loop
      vertex 10 0 10
      vertex 0 0 0
      vertex 10 0 0
    endloop
  endfacet
  facet normal 0 -1 -0
    outer loop
      vertex 50 0 20
      vertex 10 0 10
      vertex 50 0 10
    endloop
  endfacet
  facet normal 1 -0 0
    outer loop
      vertex 10 0 50
      vertex 10 10 40
      vertex 10 10 50
    endloop
  endfacet
  facet normal 1 0 0
    outer loop
      vertex 10 0 20
      vertex 10 10 40
      vertex 10 0 50
    endloop
  endfacet
  facet normal 1 0 0
    outer loop
      vertex 10 10 40
      vertex 10 0 20
      vertex 10 10 20
    endloop
  endfacet
  facet normal 1 -0 0
    outer loop
      vertex 10 0 10
      vertex 10 10 0
      vertex 10 10 10
    endloop
  endfacet
  facet normal 1 0 0
    outer loop
      vertex 10 10 0
      vertex 10 0 10
      vertex 10 0 0
    endloop
  endfacet
  facet normal -0 0 1
    outer loop
      vertex 0 10 50
      vertex 10 0 50
      vertex 10 10 50
    endloop
  endfacet
  facet normal 0 0 1
    outer loop
      vertex 10 0 50
      vertex 0 10 50
      vertex 0 0 50
    endloop
  endfacet
  facet normal 0 0 -1
    outer loop
      vertex 0 0 0
      vertex 10 10 0
      vertex 10 0 0
    endloop
  endfacet
  facet normal -0 0 -1
    outer loop
      vertex 10 10 0
      vertex 0 0 0
      vertex 0 10 0
    endloop
  endfacet
  facet normal 0 1 -0
    outer loop
      vertex 10 10 40
      vertex 0 10 50
      vertex 10 10 50
    endloop
  endfacet
  facet normal 0 1 0
    outer loop
      vertex 0 10 20
      vertex 10 10 40
      vertex 10 10 20
    endloop
  endfacet
  facet normal 0 1 0
    outer loop
      vertex 10 10 40
      vertex 0 10 20
      vertex 0 10 50
    endloop
  endfacet
  facet normal 0 1 -0
    outer loop
      vertex 10 10 0
      vertex 0 10 10
      vertex 10 10 10
    endloop
  endfacet
  facet normal 0 1 0
    outer loop
      vertex 0 10 10
      vertex 10 10 0
      vertex 0 10 0
    endloop
  endfacet
endsolid OpenSCAD_Model
