solid OpenSCAD_Model
  facet normal 1 0 0
    outer loop
      vertex 5 2.5 70
      vertex 5 1 30
      vertex 5 2.5 30
    endloop
  endfacet
  facet normal 1 0 0
    outer loop
      vertex 5 1 30
      vertex 5 -1 30
      vertex 5 1 21
    endloop
  endfacet
  facet normal 1 0 0
    outer loop
      vertex 5 2.5 70
      vertex 5 -1 30
      vertex 5 1 30
    endloop
  endfacet
  facet normal 1 -0 0
    outer loop
      vertex 5 -2.5 70
      vertex 5 -1 30
      vertex 5 2.5 70
    endloop
  endfacet
  facet normal 1 0 0
    outer loop
      vertex 5 -1 30
      vertex 5 -2.5 70
      vertex 5 -2.5 30
    endloop
  endfacet
  facet normal 1 -0 0
    outer loop
      vertex 5 1 21
      vertex 5 1.5 -1
      vertex 5 1.5 21
    endloop
  endfacet
  facet normal 1 0 0
    outer loop
      vertex 5 -1 21
      vertex 5 1 21
      vertex 5 -1 30
    endloop
  endfacet
  facet normal 1 0 0
    outer loop
      vertex 5 1 21
      vertex 5 -1 21
      vertex 5 1.5 -1
    endloop
  endfacet
  facet normal 1 0 0
    outer loop
      vertex 5 -1.5 -1
      vertex 5 -1 21
      vertex 5 -1.5 21
    endloop
  endfacet
  facet normal 1 0 0
    outer loop
      vertex 5 -1 21
      vertex 5 -1.5 -1
      vertex 5 1.5 -1
    endloop
  endfacet
  facet normal -0 0 1
    outer loop
      vertex -5 2.5 70
      vertex 5 -2.5 70
      vertex 5 2.5 70
    endloop
  endfacet
  facet normal 0 0 1
    outer loop
      vertex 5 -2.5 70
      vertex -5 2.5 70
      vertex -5 -2.5 70
    endloop
  endfacet
  facet normal 0 0 -1
    outer loop
      vertex -5 1 30
      vertex 5 2.5 30
      vertex 5 1 30
    endloop
  endfacet
  facet normal -0 0 -1
    outer loop
      vertex 5 2.5 30
      vertex -5 1 30
      vertex -5 2.5 30
    endloop
  endfacet
  facet normal 0 0 -1
    outer loop
      vertex -5 -2.5 30
      vertex 5 -1 30
      vertex 5 -2.5 30
    endloop
  endfacet
  facet normal -0 0 -1
    outer loop
      vertex 5 -1 30
      vertex -5 -2.5 30
      vertex -5 -1 30
    endloop
  endfacet
  facet normal -1 0 0
    outer loop
      vertex -5 1.5 -1
      vertex -5 1 21
      vertex -5 1.5 21
    endloop
  endfacet
  facet normal -1 0 0
    outer loop
      vertex -5 1 21
      vertex -5 -1 21
      vertex -5 1 30
    endloop
  endfacet
  facet normal -1 0 0
    outer loop
      vertex -5 1.5 -1
      vertex -5 -1 21
      vertex -5 1 21
    endloop
  endfacet
  facet normal -1 0 0
    outer loop
      vertex -5 -1.5 -1
      vertex -5 -1 21
      vertex -5 1.5 -1
    endloop
  endfacet
  facet normal -1 -0 0
    outer loop
      vertex -5 -1 21
      vertex -5 -1.5 -1
      vertex -5 -1.5 21
    endloop
  endfacet
  facet normal -1 0 0
    outer loop
      vertex -5 1 30
      vertex -5 2.5 70
      vertex -5 2.5 30
    endloop
  endfacet
  facet normal -1 0 0
    outer loop
      vertex -5 -1 30
      vertex -5 1 30
      vertex -5 -1 21
    endloop
  endfacet
  facet normal -1 0 0
    outer loop
      vertex -5 1 30
      vertex -5 -1 30
      vertex -5 2.5 70
    endloop
  endfacet
  facet normal -1 0 0
    outer loop
      vertex -5 -2.5 70
      vertex -5 -1 30
      vertex -5 -2.5 30
    endloop
  endfacet
  facet normal -1 0 0
    outer loop
      vertex -5 -1 30
      vertex -5 -2.5 70
      vertex -5 2.5 70
    endloop
  endfacet
  facet normal 0 1 -0
    outer loop
      vertex 5 2.5 30
      vertex -5 2.5 70
      vertex 5 2.5 70
    endloop
  endfacet
  facet normal 0 1 0
    outer loop
      vertex -5 2.5 70
      vertex 5 2.5 30
      vertex -5 2.5 30
    endloop
  endfacet
  facet normal 0 -1 0
    outer loop
      vertex -5 -2.5 30
      vertex 5 -2.5 70
      vertex -5 -2.5 70
    endloop
  endfacet
  facet normal 0 -1 -0
    outer loop
      vertex 5 -2.5 70
      vertex -5 -2.5 30
      vertex 5 -2.5 30
    endloop
  endfacet
  facet normal 0 1 -0
    outer loop
      vertex 5 1 21
      vertex -5 1 30
      vertex 5 1 30
    endloop
  endfacet
  facet normal 0 1 0
    outer loop
      vertex -5 1 30
      vertex 5 1 21
      vertex -5 1 21
    endloop
  endfacet
  facet normal 0 -1 0
    outer loop
      vertex -5 -1 21
      vertex 5 -1 30
      vertex -5 -1 30
    endloop
  endfacet
  facet normal 0 -1 -0
    outer loop
      vertex 5 -1 30
      vertex -5 -1 21
      vertex 5 -1 21
    endloop
  endfacet
  facet normal -0 0 1
    outer loop
      vertex -5 1.5 21
      vertex 5 1 21
      vertex 5 1.5 21
    endloop
  endfacet
  facet normal 0 0 1
    outer loop
      vertex 5 1 21
      vertex -5 1.5 21
      vertex -5 1 21
    endloop
  endfacet
  facet normal -0 0 1
    outer loop
      vertex -5 -1 21
      vertex 5 -1.5 21
      vertex 5 -1 21
    endloop
  endfacet
  facet normal 0 0 1
    outer loop
      vertex 5 -1.5 21
      vertex -5 -1 21
      vertex -5 -1.5 21
    endloop
  endfacet
  facet normal 0 0 -1
    outer loop
      vertex -5 -1.5 -1
      vertex 5 1.5 -1
      vertex 5 -1.5 -1
    endloop
  endfacet
  facet normal -0 0 -1
    outer loop
      vertex 5 1.5 -1
      vertex -5 -1.5 -1
      vertex -5 1.5 -1
    endloop
  endfacet
  facet normal 0 1 -0
    outer loop
      vertex 5 1.5 -1
      vertex -5 1.5 21
      vertex 5 1.5 21
    endloop
  endfacet
  facet normal 0 1 0
    outer loop
      vertex -5 1.5 21
      vertex 5 1.5 -1
      vertex -5 1.5 -1
    endloop
  endfacet
  facet normal 0 -1 0
    outer loop
      vertex -5 -1.5 -1
      vertex 5 -1.5 21
      vertex -5 -1.5 21
    endloop
  endfacet
  facet normal 0 -1 -0
    outer loop
      vertex 5 -1.5 21
      vertex -5 -1.5 -1
      vertex 5 -1.5 -1
    endloop
  endfacet
  facet normal 1 -0 0
    outer loop
      vertex 7.5 -7.5 -2.5
      vertex 7.5 7.5 -17.5
      vertex 7.5 7.5 -2.5
    endloop
  endfacet
  facet normal 1 0 0
    outer loop
      vertex 7.5 7.5 -17.5
      vertex 7.5 -7.5 -2.5
      vertex 7.5 -7.5 -17.5
    endloop
  endfacet
  facet normal -0 0 1
    outer loop
      vertex -7.5 7.5 -2.5
      vertex 7.5 -7.5 -2.5
      vertex 7.5 7.5 -2.5
    endloop
  endfacet
  facet normal 0 0 1
    outer loop
      vertex 7.5 -7.5 -2.5
      vertex -7.5 7.5 -2.5
      vertex -7.5 -7.5 -2.5
    endloop
  endfacet
  facet normal 0 0 -1
    outer loop
      vertex -7.5 -7.5 -17.5
      vertex 7.5 7.5 -17.5
      vertex 7.5 -7.5 -17.5
    endloop
  endfacet
  facet normal -0 0 -1
    outer loop
      vertex 7.5 7.5 -17.5
      vertex -7.5 -7.5 -17.5
      vertex -7.5 7.5 -17.5
    endloop
  endfacet
  facet normal -1 0 0
    outer loop
      vertex -7.5 -7.5 -17.5
      vertex -7.5 7.5 -2.5
      vertex -7.5 7.5 -17.5
    endloop
  endfacet
  facet normal -1 -0 0
    outer loop
      vertex -7.5 7.5 -2.5
      vertex -7.5 -7.5 -17.5
      vertex -7.5 -7.5 -2.5
    endloop
  endfacet
  facet normal 0 1 -0
    outer loop
      vertex 7.5 7.5 -17.5
      vertex -7.5 7.5 -2.5
      vertex 7.5 7.5 -2.5
    endloop
  endfacet
  facet normal 0 1 0
    outer loop
      vertex -7.5 7.5 -2.5
      vertex 7.5 7.5 -17.5
      vertex -7.5 7.5 -17.5
    endloop
  endfacet
  facet normal 0 -1 0
    outer loop
      vertex -7.5 -7.5 -17.5
      vertex 7.5 -7.5 -2.5
      vertex -7.5 -7.5 -2.5
    endloop
  endfacet
  facet normal 0 -1 -0
    outer loop
      vertex 7.5 -7.5 -2.5
      vertex -7.5 -7.5 -17.5
      vertex 7.5 -7.5 -17.5
    endloop
  endfacet
  facet normal 1 -0 0
    outer loop
      vertex 5 -1 -20
      vertex 5 1 -40
      vertex 5 1 -20
    endloop
  endfacet
  facet normal 1 0 0
    outer loop
      vertex 5 1 -40
      vertex 5 -1 -20
      vertex 5 -1 -40
    endloop
  endfacet
  facet normal -0 0 1
    outer loop
      vertex -5 1 -20
      vertex 5 -1 -20
      vertex 5 1 -20
    endloop
  endfacet
  facet normal 0 0 1
    outer loop
      vertex 5 -1 -20
      vertex -5 1 -20
      vertex -5 -1 -20
    endloop
  endfacet
  facet normal 0 0 -1
    outer loop
      vertex -5 -1 -40
      vertex 5 1 -40
      vertex 5 -1 -40
    endloop
  endfacet
  facet normal -0 0 -1
    outer loop
      vertex 5 1 -40
      vertex -5 -1 -40
      vertex -5 1 -40
    endloop
  endfacet
  facet normal -1 0 0
    outer loop
      vertex -5 -1 -40
      vertex -5 1 -20
      vertex -5 1 -40
    endloop
  endfacet
  facet normal -1 -0 0
    outer loop
      vertex -5 1 -20
      vertex -5 -1 -40
      vertex -5 -1 -20
    endloop
  endfacet
  facet normal 0 1 -0
    outer loop
      vertex 5 1 -40
      vertex -5 1 -20
      vertex 5 1 -20
    endloop
  endfacet
  facet normal 0 1 0
    outer loop
      vertex -5 1 -20
      vertex 5 1 -40
      vertex -5 1 -40
    endloop
  endfacet
  facet normal 0 -1 0
    outer loop
      vertex -5 -1 -40
      vertex 5 -1 -20
      vertex -5 -1 -20
    endloop
  endfacet
  facet normal 0 -1 -0
    outer loop
      vertex 5 -1 -20
      vertex -5 -1 -40
      vertex 5 -1 -40
    endloop
  endfacet
  facet normal 0 0 -1
    outer loop
      vertex -60 -1 -5
      vertex -40 1 -5
      vertex -40 -1 -5
    endloop
  endfacet
  facet normal -0 0 -1
    outer loop
      vertex -40 1 -5
      vertex -60 -1 -5
      vertex -60 1 -5
    endloop
  endfacet
  facet normal 1 -0 0
    outer loop
      vertex -40 -1 5
      vertex -40 1 -5
      vertex -40 1 5
    endloop
  endfacet
  facet normal 1 0 0
    outer loop
      vertex -40 1 -5
      vertex -40 -1 5
      vertex -40 -1 -5
    endloop
  endfacet
  facet normal -1 0 0
    outer loop
      vertex -60 -1 -5
      vertex -60 1 5
      vertex -60 1 -5
    endloop
  endfacet
  facet normal -1 -0 0
    outer loop
      vertex -60 1 5
      vertex -60 -1 -5
      vertex -60 -1 5
    endloop
  endfacet
  facet normal -0 0 1
    outer loop
      vertex -60 1 5
      vertex -40 -1 5
      vertex -40 1 5
    endloop
  endfacet
  facet normal 0 0 1
    outer loop
      vertex -40 -1 5
      vertex -60 1 5
      vertex -60 -1 5
    endloop
  endfacet
  facet normal 0 1 -0
    outer loop
      vertex -40 1 -5
      vertex -60 1 5
      vertex -40 1 5
    endloop
  endfacet
  facet normal 0 1 0
    outer loop
      vertex -60 1 5
      vertex -40 1 -5
      vertex -60 1 -5
    endloop
  endfacet
  facet normal 0 -1 0
    outer loop
      vertex -60 -1 -5
      vertex -40 -1 5
      vertex -60 -1 5
    endloop
  endfacet
  facet normal 0 -1 -0
    outer loop
      vertex -40 -1 5
      vertex -60 -1 -5
      vertex -40 -1 -5
    endloop
  endfacet
endsolid OpenSCAD_Model
