solid OpenSCAD_Model
  facet normal 1 -0 0
    outer loop
      vertex 60 0 20
      vertex 60 40 0
      vertex 60 40 20
    endloop
  endfacet
  facet normal 1 0 0
    outer loop
      vertex 60 40 0
      vertex 60 0 20
      vertex 60 0 0
    endloop
  endfacet
  facet normal 0 0 1
    outer loop
      vertex 60 40 20
      vertex 50 30 20
      vertex 60 0 20
    endloop
  endfacet
  facet normal 0 0 1
    outer loop
      vertex 60 40 20
      vertex 36.9706 30 20
      vertex 50 30 20
    endloop
  endfacet
  facet normal 0 0 1
    outer loop
      vertex 36.9706 30 20
      vertex 0 40 20
      vertex 36.9706 10 20
    endloop
  endfacet
  facet normal -0 0 1
    outer loop
      vertex 0 40 20
      vertex 36.9706 30 20
      vertex 60 40 20
    endloop
  endfacet
  facet normal -0 0 1
    outer loop
      vertex 50 10 20
      vertex 60 0 20
      vertex 50 30 20
    endloop
  endfacet
  facet normal -0 0 1
    outer loop
      vertex 36.9706 10 20
      vertex 60 0 20
      vertex 50 10 20
    endloop
  endfacet
  facet normal 0 0 1
    outer loop
      vertex 36.9706 10 20
      vertex 0 0 20
      vertex 60 0 20
    endloop
  endfacet
  facet normal 0 0 1
    outer loop
      vertex 0 0 20
      vertex 36.9706 10 20
      vertex 0 40 20
    endloop
  endfacet
  facet normal 0 0 -1
    outer loop
      vertex 35.3553 0 0
      vertex 60 40 0
      vertex 60 0 0
    endloop
  endfacet
  facet normal -0 0 -1
    outer loop
      vertex 60 40 0
      vertex 35.3553 0 0
      vertex 35.3553 40 0
    endloop
  endfacet
  facet normal -1 0 0
    outer loop
      vertex 0 0 0
      vertex 0 40 20
      vertex 0 40 0
    endloop
  endfacet
  facet normal -1 -0 0
    outer loop
      vertex 0 40 20
      vertex 0 0 0
      vertex 0 0 20
    endloop
  endfacet
  facet normal 0 1 0
    outer loop
      vertex 60 40 20
      vertex 17.6777 40 17.6777
      vertex 0 40 20
    endloop
  endfacet
  facet normal 0 1 0
    outer loop
      vertex 35.3553 40 0
      vertex 60 40 20
      vertex 60 40 0
    endloop
  endfacet
  facet normal 0 1 0
    outer loop
      vertex 60 40 20
      vertex 35.3553 40 0
      vertex 17.6777 40 17.6777
    endloop
  endfacet
  facet normal 0 1 0
    outer loop
      vertex 0 40 20
      vertex 17.6777 40 17.6777
      vertex 0 40 0
    endloop
  endfacet
  facet normal 0 -1 0
    outer loop
      vertex 0 0 20
      vertex 17.6777 0 17.6777
      vertex 60 0 20
    endloop
  endfacet
  facet normal -0 -1 0
    outer loop
      vertex 17.6777 0 17.6777
      vertex 0 0 20
      vertex 0 0 0
    endloop
  endfacet
  facet normal 0 -1 0
    outer loop
      vertex 35.3553 0 0
      vertex 60 0 20
      vertex 17.6777 0 17.6777
    endloop
  endfacet
  facet normal 0 -1 -0
    outer loop
      vertex 60 0 20
      vertex 35.3553 0 0
      vertex 60 0 0
    endloop
  endfacet
  facet normal -0.707109 0 -0.707105
    outer loop
      vertex 35.3553 0 0
      vertex 17.6777 40 17.6777
      vertex 35.3553 40 0
    endloop
  endfacet
  facet normal -0.707109 -0 -0.707105
    outer loop
      vertex 17.6777 40 17.6777
      vertex 35.3553 0 0
      vertex 17.6777 0 17.6777
    endloop
  endfacet
  facet normal 0.707107 0 -0.707107
    outer loop
      vertex 17.6777 0 17.6777
      vertex 0 40 0
      vertex 17.6777 40 17.6777
    endloop
  endfacet
  facet normal 0.707107 0 -0.707107
    outer loop
      vertex 0 40 0
      vertex 17.6777 0 17.6777
      vertex 0 0 0
    endloop
  endfacet
  facet normal 1 -0 0
    outer loop
      vertex 50 10 30
      vertex 50 30 20
      vertex 50 30 30
    endloop
  endfacet
  facet normal 1 0 0
    outer loop
      vertex 50 30 20
      vertex 50 10 30
      vertex 50 10 20
    endloop
  endfacet
  facet normal 0 0 1
    outer loop
      vertex 50 30 30
      vertex 40 25 30
      vertex 50 10 30
    endloop
  endfacet
  facet normal 0 0 1
    outer loop
      vertex 50 30 30
      vertex 30 25 30
      vertex 40 25 30
    endloop
  endfacet
  facet normal 0 0 1
    outer loop
      vertex 30 25 30
      vertex 20 30 30
      vertex 30 15 30
    endloop
  endfacet
  facet normal -0 0 1
    outer loop
      vertex 20 30 30
      vertex 30 25 30
      vertex 50 30 30
    endloop
  endfacet
  facet normal -0 0 1
    outer loop
      vertex 40 15 30
      vertex 50 10 30
      vertex 40 25 30
    endloop
  endfacet
  facet normal -0 0 1
    outer loop
      vertex 30 15 30
      vertex 50 10 30
      vertex 40 15 30
    endloop
  endfacet
  facet normal 0 0 1
    outer loop
      vertex 30 15 30
      vertex 20 10 30
      vertex 50 10 30
    endloop
  endfacet
  facet normal 0 0 1
    outer loop
      vertex 20 10 30
      vertex 30 15 30
      vertex 20 30 30
    endloop
  endfacet
  facet normal -1 0 0
    outer loop
      vertex 20 10 20
      vertex 20 30 30
      vertex 20 30 20
    endloop
  endfacet
  facet normal -1 -0 0
    outer loop
      vertex 20 30 30
      vertex 20 10 20
      vertex 20 10 30
    endloop
  endfacet
  facet normal 0 1 0
    outer loop
      vertex 50 30 30
      vertex 28.4853 30 28.4853
      vertex 20 30 30
    endloop
  endfacet
  facet normal 0 1 0
    outer loop
      vertex 36.9706 30 20
      vertex 50 30 30
      vertex 50 30 20
    endloop
  endfacet
  facet normal 0 1 0
    outer loop
      vertex 50 30 30
      vertex 36.9706 30 20
      vertex 28.4853 30 28.4853
    endloop
  endfacet
  facet normal 0 1 0
    outer loop
      vertex 20 30 30
      vertex 28.4853 30 28.4853
      vertex 20 30 20
    endloop
  endfacet
  facet normal 0 -1 0
    outer loop
      vertex 20 10 30
      vertex 28.4853 10 28.4853
      vertex 50 10 30
    endloop
  endfacet
  facet normal -0 -1 0
    outer loop
      vertex 28.4853 10 28.4853
      vertex 20 10 30
      vertex 20 10 20
    endloop
  endfacet
  facet normal 0 -1 0
    outer loop
      vertex 36.9706 10 20
      vertex 50 10 30
      vertex 28.4853 10 28.4853
    endloop
  endfacet
  facet normal 0 -1 -0
    outer loop
      vertex 50 10 30
      vertex 36.9706 10 20
      vertex 50 10 20
    endloop
  endfacet
  facet normal -0.707107 -4.73694e-16 -0.707107
    outer loop
      vertex 36.9706 30 20
      vertex 31.9706 25 25
      vertex 28.4853 30 28.4853
    endloop
  endfacet
  facet normal -0.707107 0 -0.707107
    outer loop
      vertex 36.9706 30 20
      vertex 31.9706 15 25
      vertex 31.9706 25 25
    endloop
  endfacet
  facet normal -0.707107 5.32906e-16 -0.707107
    outer loop
      vertex 28.4853 10 28.4853
      vertex 31.9706 15 25
      vertex 36.9706 10 20
    endloop
  endfacet
  facet normal -0.707107 0 -0.707107
    outer loop
      vertex 36.9706 10 20
      vertex 31.9706 15 25
      vertex 36.9706 30 20
    endloop
  endfacet
  facet normal -0.707107 -4.78055e-16 -0.707107
    outer loop
      vertex 30 25 26.9706
      vertex 28.4853 30 28.4853
      vertex 31.9706 25 25
    endloop
  endfacet
  facet normal -0.707107 0 -0.707107
    outer loop
      vertex 30 15 26.9706
      vertex 28.4853 30 28.4853
      vertex 30 25 26.9706
    endloop
  endfacet
  facet normal -0.707107 0 -0.707107
    outer loop
      vertex 30 15 26.9706
      vertex 28.4853 10 28.4853
      vertex 28.4853 30 28.4853
    endloop
  endfacet
  facet normal -0.707107 5.09925e-16 -0.707107
    outer loop
      vertex 31.9706 15 25
      vertex 28.4853 10 28.4853
      vertex 30 15 26.9706
    endloop
  endfacet
  facet normal 0.707107 0 -0.707107
    outer loop
      vertex 28.4853 10 28.4853
      vertex 20 30 20
      vertex 28.4853 30 28.4853
    endloop
  endfacet
  facet normal 0.707107 0 -0.707107
    outer loop
      vertex 20 30 20
      vertex 28.4853 10 28.4853
      vertex 20 10 20
    endloop
  endfacet
  facet normal 1 -0 0
    outer loop
      vertex 40 15 35
      vertex 40 25 30
      vertex 40 25 35
    endloop
  endfacet
  facet normal 1 0 0
    outer loop
      vertex 40 25 30
      vertex 40 15 35
      vertex 40 15 30
    endloop
  endfacet
  facet normal -0 0 1
    outer loop
      vertex 30 25 35
      vertex 40 15 35
      vertex 40 25 35
    endloop
  endfacet
  facet normal 0 0 1
    outer loop
      vertex 40 15 35
      vertex 30 25 35
      vertex 30 15 35
    endloop
  endfacet
  facet normal 0 0 -1
    outer loop
      vertex 30 15 25
      vertex 31.9706 25 25
      vertex 31.9706 15 25
    endloop
  endfacet
  facet normal -0 0 -1
    outer loop
      vertex 31.9706 25 25
      vertex 30 15 25
      vertex 30 25 25
    endloop
  endfacet
  facet normal -1 0 0
    outer loop
      vertex 30 15 30
      vertex 30 25 35
      vertex 30 25 30
    endloop
  endfacet
  facet normal -1 -0 0
    outer loop
      vertex 30 25 35
      vertex 30 15 30
      vertex 30 15 35
    endloop
  endfacet
  facet normal -1 0 0
    outer loop
      vertex 30 15 25
      vertex 30 25 26.9706
      vertex 30 25 25
    endloop
  endfacet
  facet normal -1 -0 0
    outer loop
      vertex 30 25 26.9706
      vertex 30 15 25
      vertex 30 15 26.9706
    endloop
  endfacet
  facet normal 0 1 -0
    outer loop
      vertex 40 25 30
      vertex 30 25 35
      vertex 40 25 35
    endloop
  endfacet
  facet normal 0 1 0
    outer loop
      vertex 30 25 35
      vertex 40 25 30
      vertex 30 25 30
    endloop
  endfacet
  facet normal 0 1 0
    outer loop
      vertex 31.9706 25 25
      vertex 30 25 25
      vertex 30 25 26.9706
    endloop
  endfacet
  facet normal 0 -1 0
    outer loop
      vertex 30 15 30
      vertex 40 15 35
      vertex 30 15 35
    endloop
  endfacet
  facet normal 0 -1 -0
    outer loop
      vertex 40 15 35
      vertex 30 15 30
      vertex 40 15 30
    endloop
  endfacet
  facet normal 0 -1 0
    outer loop
      vertex 30 15 26.9706
      vertex 30 15 25
      vertex 31.9706 15 25
    endloop
  endfacet
endsolid OpenSCAD_Model
