solid OpenSCAD_Model
  facet normal 1 -0 0
    outer loop
      vertex 75 0 5
      vertex 75 10 0.0710683
      vertex 75 10 5
    endloop
  endfacet
  facet normal 1 0 0
    outer loop
      vertex 75 10 0.0710683
      vertex 75 0 5
      vertex 75 0 0.0710683
    endloop
  endfacet
  facet normal -0 0 1
    outer loop
      vertex 25 10 5
      vertex 75 0 5
      vertex 75 10 5
    endloop
  endfacet
  facet normal 0 0 1
    outer loop
      vertex 75 0 5
      vertex 25 10 5
      vertex 25 0 5
    endloop
  endfacet
  facet normal 0 0 -1
    outer loop
      vertex 25 0 0
      vertex 68 10 0
      vertex 68 0 0
    endloop
  endfacet
  facet normal -0 0 -1
    outer loop
      vertex 68 10 0
      vertex 25 0 0
      vertex 25 10 0
    endloop
  endfacet
  facet normal -1 0 0
    outer loop
      vertex 25 0 0
      vertex 25 10 5
      vertex 25 10 0
    endloop
  endfacet
  facet normal -1 -0 0
    outer loop
      vertex 25 10 5
      vertex 25 0 0
      vertex 25 0 5
    endloop
  endfacet
  facet normal 0 1 0
    outer loop
      vertex 75 10 5
      vertex 71.5355 10 3.53553
      vertex 25 10 5
    endloop
  endfacet
  facet normal -0 1 0
    outer loop
      vertex 71.5355 10 3.53553
      vertex 75 10 5
      vertex 75 10 0.0710683
    endloop
  endfacet
  facet normal 0 1 -0
    outer loop
      vertex 68 10 0
      vertex 25 10 5
      vertex 71.5355 10 3.53553
    endloop
  endfacet
  facet normal 0 1 0
    outer loop
      vertex 25 10 5
      vertex 68 10 0
      vertex 25 10 0
    endloop
  endfacet
  facet normal 0 -1 0
    outer loop
      vertex 25 0 5
      vertex 71.5355 0 3.53553
      vertex 75 0 5
    endloop
  endfacet
  facet normal 0 -1 0
    outer loop
      vertex 68 0 0
      vertex 25 0 5
      vertex 25 0 0
    endloop
  endfacet
  facet normal 0 -1 0
    outer loop
      vertex 25 0 5
      vertex 68 0 0
      vertex 71.5355 0 3.53553
    endloop
  endfacet
  facet normal 0 -1 -0
    outer loop
      vertex 75 0 5
      vertex 71.5355 0 3.53553
      vertex 75 0 0.0710683
    endloop
  endfacet
  facet normal -0.707103 0 -0.707111
    outer loop
      vertex 75 0 0.0710683
      vertex 71.5355 10 3.53553
      vertex 75 10 0.0710683
    endloop
  endfacet
  facet normal -0.707103 -0 -0.707111
    outer loop
      vertex 71.5355 10 3.53553
      vertex 75 0 0.0710683
      vertex 71.5355 0 3.53553
    endloop
  endfacet
  facet normal 0.70711 0 -0.707104
    outer loop
      vertex 68 0 0
      vertex 71.5355 10 3.53553
      vertex 71.5355 0 3.53553
    endloop
  endfacet
  facet normal 0.70711 0 -0.707104
    outer loop
      vertex 71.5355 10 3.53553
      vertex 68 0 0
      vertex 68 10 0
    endloop
  endfacet
  facet normal 0.57358 0.81915 -0
    outer loop
      vertex 43.0182 61.4364 0.0710683
      vertex 34.8267 67.1722 5
      vertex 43.0182 61.4364 5
    endloop
  endfacet
  facet normal 0.57358 0.81915 0
    outer loop
      vertex 34.8267 67.1722 5
      vertex 43.0182 61.4364 0.0710683
      vertex 34.8267 67.1722 0.0710683
    endloop
  endfacet
  facet normal 0 0 1
    outer loop
      vertex 34.8267 67.1722 5
      vertex 14.3394 20.4788 5
      vertex 43.0182 61.4364 5
    endloop
  endfacet
  facet normal 0 -0 1
    outer loop
      vertex 14.3394 20.4788 5
      vertex 34.8267 67.1722 5
      vertex 6.14789 26.2146 5
    endloop
  endfacet
  facet normal 0 0 -1
    outer loop
      vertex 14.3394 20.4788 0
      vertex 30.8117 61.4381 0
      vertex 39.0032 55.7023 0
    endloop
  endfacet
  facet normal 0 0 -1
    outer loop
      vertex 30.8117 61.4381 0
      vertex 14.3394 20.4788 0
      vertex 6.14789 26.2146 0
    endloop
  endfacet
  facet normal -0.573579 -0.81915 0
    outer loop
      vertex 6.14789 26.2146 0
      vertex 14.3394 20.4788 5
      vertex 6.14789 26.2146 5
    endloop
  endfacet
  facet normal -0.573579 -0.81915 -0
    outer loop
      vertex 14.3394 20.4788 5
      vertex 6.14789 26.2146 0
      vertex 14.3394 20.4788 0
    endloop
  endfacet
  facet normal -0.819164 0.573559 0
    outer loop
      vertex 32.8396 64.3342 3.53553
      vertex 34.8267 67.1722 5
      vertex 34.8267 67.1722 0.0710683
    endloop
  endfacet
  facet normal -0.819152 0.573577 0
    outer loop
      vertex 6.14789 26.2146 5
      vertex 30.8117 61.4381 0
      vertex 6.14789 26.2146 0
    endloop
  endfacet
  facet normal -0.819151 0.573578 5.159e-06
    outer loop
      vertex 30.8117 61.4381 0
      vertex 6.14789 26.2146 5
      vertex 32.8396 64.3342 3.53553
    endloop
  endfacet
  facet normal -0.819152 0.573576 -4.93806e-05
    outer loop
      vertex 32.8396 64.3342 3.53553
      vertex 6.14789 26.2146 5
      vertex 34.8267 67.1722 5
    endloop
  endfacet
  facet normal 0.819155 -0.573573 0
    outer loop
      vertex 43.0182 61.4364 5
      vertex 41.0311 58.5985 3.53553
      vertex 43.0182 61.4364 0.0710683
    endloop
  endfacet
  facet normal 0.819152 -0.573576 9.8269e-06
    outer loop
      vertex 14.3394 20.4788 5
      vertex 41.0311 58.5985 3.53553
      vertex 43.0182 61.4364 5
    endloop
  endfacet
  facet normal 0.819152 -0.573576 9.20364e-06
    outer loop
      vertex 14.3394 20.4788 5
      vertex 39.0032 55.7023 0
      vertex 41.0311 58.5985 3.53553
    endloop
  endfacet
  facet normal 0.819152 -0.573577 0
    outer loop
      vertex 39.0032 55.7023 0
      vertex 14.3394 20.4788 5
      vertex 14.3394 20.4788 0
    endloop
  endfacet
  facet normal -0.405584 -0.579229 -0.707103
    outer loop
      vertex 41.0311 58.5985 3.53553
      vertex 34.8267 67.1722 0.0710683
      vertex 43.0182 61.4364 0.0710683
    endloop
  endfacet
  facet normal -0.405575 -0.579226 -0.707111
    outer loop
      vertex 34.8267 67.1722 0.0710683
      vertex 41.0311 58.5985 3.53553
      vertex 32.8396 64.3342 3.53553
    endloop
  endfacet
  facet normal 0.405574 0.579225 -0.707112
    outer loop
      vertex 39.0032 55.7023 0
      vertex 32.8396 64.3342 3.53553
      vertex 41.0311 58.5985 3.53553
    endloop
  endfacet
  facet normal 0.405584 0.579229 -0.707104
    outer loop
      vertex 32.8396 64.3342 3.53553
      vertex 39.0032 55.7023 0
      vertex 30.8117 61.4381 0
    endloop
  endfacet
  facet normal -0.342021 0.939692 0
    outer loop
      vertex -25.6515 70.4769 0.0710683
      vertex -35.0484 67.0567 5
      vertex -25.6515 70.4769 5
    endloop
  endfacet
  facet normal -0.342021 0.939692 0
    outer loop
      vertex -35.0484 67.0567 5
      vertex -25.6515 70.4769 0.0710683
      vertex -35.0484 67.0567 0.0710683
    endloop
  endfacet
  facet normal 0 0 1
    outer loop
      vertex -25.6515 70.4769 5
      vertex -17.9474 20.0721 5
      vertex -8.5505 23.4923 5
    endloop
  endfacet
  facet normal 0 0 1
    outer loop
      vertex -17.9474 20.0721 5
      vertex -25.6515 70.4769 5
      vertex -35.0484 67.0567 5
    endloop
  endfacet
  facet normal 0 0 -1
    outer loop
      vertex -17.9474 20.0721 0
      vertex -23.2574 63.8991 0
      vertex -8.5505 23.4923 0
    endloop
  endfacet
  facet normal 0 -0 -1
    outer loop
      vertex -23.2574 63.8991 0
      vertex -17.9474 20.0721 0
      vertex -32.6543 60.4789 0
    endloop
  endfacet
  facet normal 0.342021 -0.939692 0
    outer loop
      vertex -17.9474 20.0721 0
      vertex -8.5505 23.4923 5
      vertex -17.9474 20.0721 5
    endloop
  endfacet
  facet normal 0.342021 -0.939692 0
    outer loop
      vertex -8.5505 23.4923 5
      vertex -17.9474 20.0721 0
      vertex -8.5505 23.4923 0
    endloop
  endfacet
  facet normal -0.939693 -0.342019 0
    outer loop
      vertex -33.8635 63.8012 3.53553
      vertex -35.0484 67.0567 5
      vertex -35.0484 67.0567 0.0710683
    endloop
  endfacet
  facet normal -0.939692 -0.342021 -0
    outer loop
      vertex -17.9474 20.0721 5
      vertex -32.6543 60.4789 0
      vertex -17.9474 20.0721 0
    endloop
  endfacet
  facet normal -0.939693 -0.34202 4.89855e-06
    outer loop
      vertex -32.6543 60.4789 0
      vertex -17.9474 20.0721 5
      vertex -33.8635 63.8012 3.53553
    endloop
  endfacet
  facet normal -0.939693 -0.34202 3.45463e-06
    outer loop
      vertex -33.8635 63.8012 3.53553
      vertex -17.9474 20.0721 5
      vertex -35.0484 67.0567 5
    endloop
  endfacet
  facet normal 0.939693 0.342019 0
    outer loop
      vertex -25.6515 70.4769 5
      vertex -24.4666 67.2214 3.53553
      vertex -25.6515 70.4769 0.0710683
    endloop
  endfacet
  facet normal 0.939693 0.34202 -3.45463e-06
    outer loop
      vertex -8.5505 23.4923 5
      vertex -24.4666 67.2214 3.53553
      vertex -25.6515 70.4769 5
    endloop
  endfacet
  facet normal 0.939693 0.34202 -4.89855e-06
    outer loop
      vertex -8.5505 23.4923 5
      vertex -23.2574 63.8991 0
      vertex -24.4666 67.2214 3.53553
    endloop
  endfacet
  facet normal 0.939692 0.342021 0
    outer loop
      vertex -23.2574 63.8991 0
      vertex -8.5505 23.4923 5
      vertex -8.5505 23.4923 0
    endloop
  endfacet
  facet normal 0.241846 -0.664466 -0.707103
    outer loop
      vertex -33.8635 63.8012 3.53553
      vertex -25.6515 70.4769 0.0710683
      vertex -24.4666 67.2214 3.53553
    endloop
  endfacet
  facet normal 0.241846 -0.664466 -0.707103
    outer loop
      vertex -25.6515 70.4769 0.0710683
      vertex -33.8635 63.8012 3.53553
      vertex -35.0484 67.0567 0.0710683
    endloop
  endfacet
  facet normal -0.241846 0.664465 -0.707105
    outer loop
      vertex -32.6543 60.4789 0
      vertex -24.4666 67.2214 3.53553
      vertex -23.2574 63.8991 0
    endloop
  endfacet
  facet normal -0.241846 0.664465 -0.707105
    outer loop
      vertex -24.4666 67.2214 3.53553
      vertex -32.6543 60.4789 0
      vertex -33.8635 63.8012 3.53553
    endloop
  endfacet
  facet normal -0.965925 0.258821 0
    outer loop
      vertex -75.0326 9.75217 0.0710683
      vertex -72.4444 19.4114 5
      vertex -72.4444 19.4114 0.0710683
    endloop
  endfacet
  facet normal -0.965925 0.258821 0
    outer loop
      vertex -72.4444 19.4114 5
      vertex -75.0326 9.75217 0.0710683
      vertex -75.0326 9.75217 5
    endloop
  endfacet
  facet normal 0 0 1
    outer loop
      vertex -72.4444 19.4114 5
      vertex -26.7363 -3.18878 5
      vertex -24.1481 6.47048 5
    endloop
  endfacet
  facet normal 0 0 1
    outer loop
      vertex -26.7363 -3.18878 5
      vertex -72.4444 19.4114 5
      vertex -75.0326 9.75217 5
    endloop
  endfacet
  facet normal 0 0 -1
    outer loop
      vertex -26.7363 -3.18878 0
      vertex -65.683 17.5997 0
      vertex -24.1481 6.47048 0
    endloop
  endfacet
  facet normal 0 -0 -1
    outer loop
      vertex -65.683 17.5997 0
      vertex -26.7363 -3.18878 0
      vertex -68.2711 7.94044 0
    endloop
  endfacet
  facet normal 0.965926 -0.25882 0
    outer loop
      vertex -26.7363 -3.18878 5
      vertex -24.1481 6.47048 0
      vertex -24.1481 6.47048 5
    endloop
  endfacet
  facet normal 0.965926 -0.25882 0
    outer loop
      vertex -24.1481 6.47048 0
      vertex -26.7363 -3.18878 5
      vertex -26.7363 -3.18878 0
    endloop
  endfacet
  facet normal -0.258819 -0.965926 3.39018e-06
    outer loop
      vertex -75.0326 9.75217 5
      vertex -71.6862 8.8555 3.53553
      vertex -26.7363 -3.18878 5
    endloop
  endfacet
  facet normal -0.25882 -0.965925 0
    outer loop
      vertex -71.6862 8.8555 3.53553
      vertex -75.0326 9.75217 5
      vertex -75.0326 9.75217 0.0710683
    endloop
  endfacet
  facet normal -0.258819 -0.965926 -3.33008e-06
    outer loop
      vertex -68.2711 7.94044 0
      vertex -26.7363 -3.18878 5
      vertex -71.6862 8.8555 3.53553
    endloop
  endfacet
  facet normal -0.258819 -0.965926 -0
    outer loop
      vertex -26.7363 -3.18878 5
      vertex -68.2711 7.94044 0
      vertex -26.7363 -3.18878 0
    endloop
  endfacet
  facet normal 0.258818 0.965926 4.14089e-05
    outer loop
      vertex -24.1481 6.47048 5
      vertex -69.098 18.5148 3.53553
      vertex -72.4444 19.4114 5
    endloop
  endfacet
  facet normal 0.258819 0.965926 0
    outer loop
      vertex -65.683 17.5997 0
      vertex -24.1481 6.47048 5
      vertex -24.1481 6.47048 0
    endloop
  endfacet
  facet normal 0.25882 0.965926 -1.3557e-05
    outer loop
      vertex -24.1481 6.47048 5
      vertex -65.683 17.5997 0
      vertex -69.098 18.5148 3.53553
    endloop
  endfacet
  facet normal 0.258801 0.965931 0
    outer loop
      vertex -72.4444 19.4114 5
      vertex -69.098 18.5148 3.53553
      vertex -72.4444 19.4114 0.0710683
    endloop
  endfacet
  facet normal 0.683016 -0.183013 -0.707104
    outer loop
      vertex -71.6862 8.8555 3.53553
      vertex -72.4444 19.4114 0.0710683
      vertex -69.098 18.5148 3.53553
    endloop
  endfacet
  facet normal 0.683014 -0.183014 -0.707106
    outer loop
      vertex -72.4444 19.4114 0.0710683
      vertex -71.6862 8.8555 3.53553
      vertex -75.0326 9.75217 0.0710683
    endloop
  endfacet
  facet normal -0.683019 0.183008 -0.707102
    outer loop
      vertex -68.2711 7.94044 0
      vertex -69.098 18.5148 3.53553
      vertex -65.683 17.5997 0
    endloop
  endfacet
  facet normal -0.683009 0.183012 -0.707111
    outer loop
      vertex -69.098 18.5148 3.53553
      vertex -68.2711 7.94044 0
      vertex -71.6862 8.8555 3.53553
    endloop
  endfacet
  facet normal -0.766046 -0.642785 0
    outer loop
      vertex -51.0255 -55.8695 0.0710683
      vertex -57.4533 -48.2091 5
      vertex -57.4533 -48.2091 0.0710683
    endloop
  endfacet
  facet normal -0.766046 -0.642785 0
    outer loop
      vertex -57.4533 -48.2091 5
      vertex -51.0255 -55.8695 0.0710683
      vertex -51.0255 -55.8695 5
    endloop
  endfacet
  facet normal 0 0 1
    outer loop
      vertex -19.1511 -16.0697 5
      vertex -51.0255 -55.8695 5
      vertex -12.7232 -23.7301 5
    endloop
  endfacet
  facet normal 0 -0 1
    outer loop
      vertex -51.0255 -55.8695 5
      vertex -19.1511 -16.0697 5
      vertex -57.4533 -48.2091 5
    endloop
  endfacet
  facet normal 0 0 -1
    outer loop
      vertex -45.6631 -51.37 0
      vertex -19.1511 -16.0697 0
      vertex -12.7232 -23.7301 0
    endloop
  endfacet
  facet normal 0 0 -1
    outer loop
      vertex -19.1511 -16.0697 0
      vertex -45.6631 -51.37 0
      vertex -52.091 -43.7096 0
    endloop
  endfacet
  facet normal 0.766041 0.642791 0
    outer loop
      vertex -12.7232 -23.7301 5
      vertex -19.1511 -16.0697 0
      vertex -19.1511 -16.0697 5
    endloop
  endfacet
  facet normal 0.766041 0.642791 0
    outer loop
      vertex -19.1511 -16.0697 0
      vertex -12.7232 -23.7301 5
      vertex -12.7232 -23.7301 0
    endloop
  endfacet
  facet normal 0.642787 -0.766045 3.51762e-05
    outer loop
      vertex -51.0255 -55.8695 5
      vertex -48.3715 -53.6426 3.53553
      vertex -12.7232 -23.7301 5
    endloop
  endfacet
  facet normal 0.642776 -0.766054 0
    outer loop
      vertex -48.3715 -53.6426 3.53553
      vertex -51.0255 -55.8695 5
      vertex -51.0255 -55.8695 0.0710683
    endloop
  endfacet
  facet normal 0.642788 -0.766044 4.05655e-06
    outer loop
      vertex -45.6631 -51.37 0
      vertex -12.7232 -23.7301 5
      vertex -48.3715 -53.6426 3.53553
    endloop
  endfacet
  facet normal 0.642788 -0.766044 0
    outer loop
      vertex -12.7232 -23.7301 5
      vertex -45.6631 -51.37 0
      vertex -12.7232 -23.7301 0
    endloop
  endfacet
  facet normal -0.642788 0.766044 5.67468e-06
    outer loop
      vertex -19.1511 -16.0697 5
      vertex -54.7994 -45.9822 3.53553
      vertex -57.4533 -48.2091 5
    endloop
  endfacet
  facet normal -0.642788 0.766044 0
    outer loop
      vertex -52.091 -43.7096 0
      vertex -19.1511 -16.0697 5
      vertex -19.1511 -16.0697 0
    endloop
  endfacet
  facet normal -0.642788 0.766044 -4.05655e-06
    outer loop
      vertex -19.1511 -16.0697 5
      vertex -52.091 -43.7096 0
      vertex -54.7994 -45.9822 3.53553
    endloop
  endfacet
  facet normal -0.64279 0.766043 0
    outer loop
      vertex -57.4533 -48.2091 5
      vertex -54.7994 -45.9822 3.53553
      vertex -57.4533 -48.2091 0.0710683
    endloop
  endfacet
  facet normal 0.54167 0.454519 -0.707111
    outer loop
      vertex -51.0255 -55.8695 0.0710683
      vertex -54.7994 -45.9822 3.53553
      vertex -48.3715 -53.6426 3.53553
    endloop
  endfacet
  facet normal 0.541679 0.45452 -0.707103
    outer loop
      vertex -54.7994 -45.9822 3.53553
      vertex -51.0255 -55.8695 0.0710683
      vertex -57.4533 -48.2091 0.0710683
    endloop
  endfacet
  facet normal -0.541671 -0.45452 -0.707109
    outer loop
      vertex -48.3715 -53.6426 3.53553
      vertex -52.091 -43.7096 0
      vertex -45.6631 -51.37 0
    endloop
  endfacet
  facet normal -0.541671 -0.45452 -0.707109
    outer loop
      vertex -52.091 -43.7096 0
      vertex -48.3715 -53.6426 3.53553
      vertex -54.7994 -45.9822 3.53553
    endloop
  endfacet
  facet normal 0.0871602 -0.996194 0
    outer loop
      vertex 6.53668 -74.7146 0.0710683
      vertex 16.4986 -73.843 5
      vertex 6.53668 -74.7146 5
    endloop
  endfacet
  facet normal 0.0871602 -0.996194 0
    outer loop
      vertex 16.4986 -73.843 5
      vertex 6.53668 -74.7146 0.0710683
      vertex 16.4986 -73.843 0.0710683
    endloop
  endfacet
  facet normal 0 0 1
    outer loop
      vertex 12.1408 -24.0333 5
      vertex 6.53668 -74.7146 5
      vertex 16.4986 -73.843 5
    endloop
  endfacet
  facet normal 0 -0 1
    outer loop
      vertex 6.53668 -74.7146 5
      vertex 12.1408 -24.0333 5
      vertex 2.17889 -24.9049 5
    endloop
  endfacet
  facet normal 0 0 -1
    outer loop
      vertex 5.92659 -67.7412 0
      vertex 12.1408 -24.0333 0
      vertex 15.8885 -66.8697 0
    endloop
  endfacet
  facet normal 0 0 -1
    outer loop
      vertex 12.1408 -24.0333 0
      vertex 5.92659 -67.7412 0
      vertex 2.17889 -24.9049 0
    endloop
  endfacet
  facet normal -0.0871603 0.996194 0
    outer loop
      vertex 12.1408 -24.0333 0
      vertex 2.17889 -24.9049 5
      vertex 12.1408 -24.0333 5
    endloop
  endfacet
  facet normal -0.0871603 0.996194 0
    outer loop
      vertex 2.17889 -24.9049 5
      vertex 12.1408 -24.0333 0
      vertex 2.17889 -24.9049 0
    endloop
  endfacet
  facet normal 0.996195 0.0871558 0
    outer loop
      vertex 12.1408 -24.0333 5
      vertex 15.8885 -66.8697 0
      vertex 12.1408 -24.0333 0
    endloop
  endfacet
  facet normal 0.996195 0.0871574 -1.41675e-05
    outer loop
      vertex 12.1408 -24.0333 5
      vertex 16.1967 -70.3918 3.53553
      vertex 15.8885 -66.8697 0
    endloop
  endfacet
  facet normal 0.996195 0.0871561 2.85555e-05
    outer loop
      vertex 16.4986 -73.843 5
      vertex 16.1967 -70.3918 3.53553
      vertex 12.1408 -24.0333 5
    endloop
  endfacet
  facet normal 0.996196 0.087144 0
    outer loop
      vertex 16.1967 -70.3918 3.53553
      vertex 16.4986 -73.843 5
      vertex 16.4986 -73.843 0.0710683
    endloop
  endfacet
  facet normal -0.996195 -0.087156 0
    outer loop
      vertex 5.92659 -67.7412 0
      vertex 2.17889 -24.9049 5
      vertex 2.17889 -24.9049 0
    endloop
  endfacet
  facet normal -0.996195 -0.0871558 -1.159e-06
    outer loop
      vertex 6.23473 -71.2633 3.53553
      vertex 2.17889 -24.9049 5
      vertex 5.92659 -67.7412 0
    endloop
  endfacet
  facet normal -0.996195 -0.0871559 -2.33805e-08
    outer loop
      vertex 6.23473 -71.2633 3.53553
      vertex 6.53668 -74.7146 5
      vertex 2.17889 -24.9049 5
    endloop
  endfacet
  facet normal -0.996195 -0.0871559 -0
    outer loop
      vertex 6.53668 -74.7146 5
      vertex 6.23473 -71.2633 3.53553
      vertex 6.53668 -74.7146 0.0710683
    endloop
  endfacet
  facet normal -0.0616323 0.704424 -0.707098
    outer loop
      vertex 6.53668 -74.7146 0.0710683
      vertex 16.1967 -70.3918 3.53553
      vertex 16.4986 -73.843 0.0710683
    endloop
  endfacet
  facet normal -0.0616241 0.704414 -0.707109
    outer loop
      vertex 16.1967 -70.3918 3.53553
      vertex 6.53668 -74.7146 0.0710683
      vertex 6.23473 -71.2633 3.53553
    endloop
  endfacet
  facet normal 0.061624 -0.704414 -0.70711
    outer loop
      vertex 6.23473 -71.2633 3.53553
      vertex 15.8885 -66.8697 0
      vertex 16.1967 -70.3918 3.53553
    endloop
  endfacet
  facet normal 0.0616244 -0.704414 -0.707109
    outer loop
      vertex 15.8885 -66.8697 0
      vertex 6.23473 -71.2633 3.53553
      vertex 5.92659 -67.7412 0
    endloop
  endfacet
endsolid OpenSCAD_Model
