solid OpenSCAD_Model
  facet normal 1 -0 0
    outer loop
      vertex 10 -5 37.5
      vertex 10 5 32.5
      vertex 10 5 37.5
    endloop
  endfacet
  facet normal 1 0 0
    outer loop
      vertex 10 5 32.5
      vertex 10 -5 37.5
      vertex 10 -5 32.5
    endloop
  endfacet
  facet normal -0 0 1
    outer loop
      vertex -10 5 37.5
      vertex 10 -5 37.5
      vertex 10 5 37.5
    endloop
  endfacet
  facet normal 0 0 1
    outer loop
      vertex 10 -5 37.5
      vertex -10 5 37.5
      vertex -10 -5 37.5
    endloop
  endfacet
  facet normal 0 0 -1
    outer loop
      vertex -10 -5 32.5
      vertex 10 5 32.5
      vertex 10 -5 32.5
    endloop
  endfacet
  facet normal -0 0 -1
    outer loop
      vertex 10 5 32.5
      vertex -10 -5 32.5
      vertex -10 5 32.5
    endloop
  endfacet
  facet normal -1 0 0
    outer loop
      vertex -10 -5 32.5
      vertex -10 5 37.5
      vertex -10 5 32.5
    endloop
  endfacet
  facet normal -1 -0 0
    outer loop
      vertex -10 5 37.5
      vertex -10 -5 32.5
      vertex -10 -5 37.5
    endloop
  endfacet
  facet normal 0 1 -0
    outer loop
      vertex 10 5 32.5
      vertex -10 5 37.5
      vertex 10 5 37.5
    endloop
  endfacet
  facet normal 0 1 0
    outer loop
      vertex -10 5 37.5
      vertex 10 5 32.5
      vertex -10 5 32.5
    endloop
  endfacet
  facet normal 0 -1 0
    outer loop
      vertex -10 -5 32.5
      vertex 10 -5 37.5
      vertex -10 -5 37.5
    endloop
  endfacet
  facet normal 0 -1 -0
    outer loop
      vertex 10 -5 37.5
      vertex -10 -5 32.5
      vertex 10 -5 32.5
    endloop
  endfacet
  facet normal 1 -0 0
    outer loop
      vertex 10 -5 30.5
      vertex 10 5 25.5
      vertex 10 5 30.5
    endloop
  endfacet
  facet normal 1 0 0
    outer loop
      vertex 10 5 25.5
      vertex 10 -5 30.5
      vertex 10 -5 25.5
    endloop
  endfacet
  facet normal -0 0 1
    outer loop
      vertex -10 5 30.5
      vertex 10 -5 30.5
      vertex 10 5 30.5
    endloop
  endfacet
  facet normal 0 0 1
    outer loop
      vertex 10 -5 30.5
      vertex -10 5 30.5
      vertex -10 -5 30.5
    endloop
  endfacet
  facet normal 0 0 -1
    outer loop
      vertex -10 -5 25.5
      vertex 10 5 25.5
      vertex 10 -5 25.5
    endloop
  endfacet
  facet normal -0 0 -1
    outer loop
      vertex 10 5 25.5
      vertex -10 -5 25.5
      vertex -10 5 25.5
    endloop
  endfacet
  facet normal -1 0 0
    outer loop
      vertex -10 -5 25.5
      vertex -10 5 30.5
      vertex -10 5 25.5
    endloop
  endfacet
  facet normal -1 -0 0
    outer loop
      vertex -10 5 30.5
      vertex -10 -5 25.5
      vertex -10 -5 30.5
    endloop
  endfacet
  facet normal 0 1 -0
    outer loop
      vertex 10 5 25.5
      vertex -10 5 30.5
      vertex 10 5 30.5
    endloop
  endfacet
  facet normal 0 1 0
    outer loop
      vertex -10 5 30.5
      vertex 10 5 25.5
      vertex -10 5 25.5
    endloop
  endfacet
  facet normal 0 -1 0
    outer loop
      vertex -10 -5 25.5
      vertex 10 -5 30.5
      vertex -10 -5 30.5
    endloop
  endfacet
  facet normal 0 -1 -0
    outer loop
      vertex 10 -5 30.5
      vertex -10 -5 25.5
      vertex 10 -5 25.5
    endloop
  endfacet
  facet normal 1 -0 0
    outer loop
      vertex 10 -5 23.5
      vertex 10 5 18.5
      vertex 10 5 23.5
    endloop
  endfacet
  facet normal 1 0 0
    outer loop
      vertex 10 5 18.5
      vertex 10 -5 23.5
      vertex 10 -5 18.5
    endloop
  endfacet
  facet normal -0 0 1
    outer loop
      vertex -10 5 23.5
      vertex 10 -5 23.5
      vertex 10 5 23.5
    endloop
  endfacet
  facet normal 0 0 1
    outer loop
      vertex 10 -5 23.5
      vertex -10 5 23.5
      vertex -10 -5 23.5
    endloop
  endfacet
  facet normal 0 0 -1
    outer loop
      vertex -10 -5 18.5
      vertex 10 5 18.5
      vertex 10 -5 18.5
    endloop
  endfacet
  facet normal -0 0 -1
    outer loop
      vertex 10 5 18.5
      vertex -10 -5 18.5
      vertex -10 5 18.5
    endloop
  endfacet
  facet normal -1 0 0
    outer loop
      vertex -10 -5 18.5
      vertex -10 5 23.5
      vertex -10 5 18.5
    endloop
  endfacet
  facet normal -1 -0 0
    outer loop
      vertex -10 5 23.5
      vertex -10 -5 18.5
      vertex -10 -5 23.5
    endloop
  endfacet
  facet normal 0 1 -0
    outer loop
      vertex 10 5 18.5
      vertex -10 5 23.5
      vertex 10 5 23.5
    endloop
  endfacet
  facet normal 0 1 0
    outer loop
      vertex -10 5 23.5
      vertex 10 5 18.5
      vertex -10 5 18.5
    endloop
  endfacet
  facet normal 0 -1 0
    outer loop
      vertex -10 -5 18.5
      vertex 10 -5 23.5
      vertex -10 -5 23.5
    endloop
  endfacet
  facet normal 0 -1 -0
    outer loop
      vertex 10 -5 23.5
      vertex -10 -5 18.5
      vertex 10 -5 18.5
    endloop
  endfacet
  facet normal 1 -0 0
    outer loop
      vertex 10 -5 16.5
      vertex 10 5 11.5
      vertex 10 5 16.5
    endloop
  endfacet
  facet normal 1 0 0
    outer loop
      vertex 10 5 11.5
      vertex 10 -5 16.5
      vertex 10 -5 11.5
    endloop
  endfacet
  facet normal -0 0 1
    outer loop
      vertex -10 5 16.5
      vertex 10 -5 16.5
      vertex 10 5 16.5
    endloop
  endfacet
  facet normal 0 0 1
    outer loop
      vertex 10 -5 16.5
      vertex -10 5 16.5
      vertex -10 -5 16.5
    endloop
  endfacet
  facet normal 0 0 -1
    outer loop
      vertex -10 -5 11.5
      vertex 10 5 11.5
      vertex 10 -5 11.5
    endloop
  endfacet
  facet normal -0 0 -1
    outer loop
      vertex 10 5 11.5
      vertex -10 -5 11.5
      vertex -10 5 11.5
    endloop
  endfacet
  facet normal -1 0 0
    outer loop
      vertex -10 -5 11.5
      vertex -10 5 16.5
      vertex -10 5 11.5
    endloop
  endfacet
  facet normal -1 -0 0
    outer loop
      vertex -10 5 16.5
      vertex -10 -5 11.5
      vertex -10 -5 16.5
    endloop
  endfacet
  facet normal 0 1 -0
    outer loop
      vertex 10 5 11.5
      vertex -10 5 16.5
      vertex 10 5 16.5
    endloop
  endfacet
  facet normal 0 1 0
    outer loop
      vertex -10 5 16.5
      vertex 10 5 11.5
      vertex -10 5 11.5
    endloop
  endfacet
  facet normal 0 -1 0
    outer loop
      vertex -10 -5 11.5
      vertex 10 -5 16.5
      vertex -10 -5 16.5
    endloop
  endfacet
  facet normal 0 -1 -0
    outer loop
      vertex 10 -5 16.5
      vertex -10 -5 11.5
      vertex 10 -5 11.5
    endloop
  endfacet
  facet normal 1 -0 0
    outer loop
      vertex 10 -5 9.5
      vertex 10 5 4.5
      vertex 10 5 9.5
    endloop
  endfacet
  facet normal 1 0 0
    outer loop
      vertex 10 5 4.5
      vertex 10 -5 9.5
      vertex 10 -5 4.5
    endloop
  endfacet
  facet normal -0 0 1
    outer loop
      vertex -10 5 9.5
      vertex 10 -5 9.5
      vertex 10 5 9.5
    endloop
  endfacet
  facet normal 0 0 1
    outer loop
      vertex 10 -5 9.5
      vertex -10 5 9.5
      vertex -10 -5 9.5
    endloop
  endfacet
  facet normal 0 0 -1
    outer loop
      vertex -10 -5 4.5
      vertex 10 5 4.5
      vertex 10 -5 4.5
    endloop
  endfacet
  facet normal -0 0 -1
    outer loop
      vertex 10 5 4.5
      vertex -10 -5 4.5
      vertex -10 5 4.5
    endloop
  endfacet
  facet normal -1 0 0
    outer loop
      vertex -10 -5 4.5
      vertex -10 5 9.5
      vertex -10 5 4.5
    endloop
  endfacet
  facet normal -1 -0 0
    outer loop
      vertex -10 5 9.5
      vertex -10 -5 4.5
      vertex -10 -5 9.5
    endloop
  endfacet
  facet normal 0 1 -0
    outer loop
      vertex 10 5 4.5
      vertex -10 5 9.5
      vertex 10 5 9.5
    endloop
  endfacet
  facet normal 0 1 0
    outer loop
      vertex -10 5 9.5
      vertex 10 5 4.5
      vertex -10 5 4.5
    endloop
  endfacet
  facet normal 0 -1 0
    outer loop
      vertex -10 -5 4.5
      vertex 10 -5 9.5
      vertex -10 -5 9.5
    endloop
  endfacet
  facet normal 0 -1 -0
    outer loop
      vertex 10 -5 9.5
      vertex -10 -5 4.5
      vertex 10 -5 4.5
    endloop
  endfacet
  facet normal 1 -0 0
    outer loop
      vertex 10 -5 2.5
      vertex 10 5 -2.5
      vertex 10 5 2.5
    endloop
  endfacet
  facet normal 1 0 0
    outer loop
      vertex 10 5 -2.5
      vertex 10 -5 2.5
      vertex 10 -5 -2.5
    endloop
  endfacet
  facet normal -0 0 1
    outer loop
      vertex -10 5 2.5
      vertex 10 -5 2.5
      vertex 10 5 2.5
    endloop
  endfacet
  facet normal 0 0 1
    outer loop
      vertex 10 -5 2.5
      vertex -10 5 2.5
      vertex -10 -5 2.5
    endloop
  endfacet
  facet normal 0 0 -1
    outer loop
      vertex -10 -5 -2.5
      vertex 10 5 -2.5
      vertex 10 -5 -2.5
    endloop
  endfacet
  facet normal -0 0 -1
    outer loop
      vertex 10 5 -2.5
      vertex -10 -5 -2.5
      vertex -10 5 -2.5
    endloop
  endfacet
  facet normal -1 0 0
    outer loop
      vertex -10 -5 -2.5
      vertex -10 5 2.5
      vertex -10 5 -2.5
    endloop
  endfacet
  facet normal -1 -0 0
    outer loop
      vertex -10 5 2.5
      vertex -10 -5 -2.5
      vertex -10 -5 2.5
    endloop
  endfacet
  facet normal 0 1 -0
    outer loop
      vertex 10 5 -2.5
      vertex -10 5 2.5
      vertex 10 5 2.5
    endloop
  endfacet
  facet normal 0 1 0
    outer loop
      vertex -10 5 2.5
      vertex 10 5 -2.5
      vertex -10 5 -2.5
    endloop
  endfacet
  facet normal 0 -1 0
    outer loop
      vertex -10 -5 -2.5
      vertex 10 -5 2.5
      vertex -10 -5 2.5
    endloop
  endfacet
  facet normal 0 -1 -0
    outer loop
      vertex 10 -5 2.5
      vertex -10 -5 -2.5
      vertex 10 -5 -2.5
    endloop
  endfacet
endsolid OpenSCAD_Model
