solid OpenSCAD_Model
  facet normal 0 0 -1
    outer loop
      vertex 0 5 0
      vertex 20 0 0
      vertex 0 0 0
    endloop
  endfacet
  facet normal 0 0 -1
    outer loop
      vertex 20 0 0
      vertex 0 5 0
      vertex 20 10 0
    endloop
  endfacet
  facet normal 1 -0 0
    outer loop
      vertex 20 0 5
      vertex 20 10 0
      vertex 20 10 5
    endloop
  endfacet
  facet normal 1 0 0
    outer loop
      vertex 20 10 0
      vertex 20 0 5
      vertex 20 0 0
    endloop
  endfacet
  facet normal 0 -1 0
    outer loop
      vertex 0 0 0
      vertex 20 0 5
      vertex 0 0 5
    endloop
  endfacet
  facet normal 0 -1 -0
    outer loop
      vertex 20 0 5
      vertex 0 0 0
      vertex 20 0 0
    endloop
  endfacet
  facet normal -1 0 0
    outer loop
      vertex 0 0 5
      vertex 0 5 0
      vertex 0 0 0
    endloop
  endfacet
  facet normal -1 0 0
    outer loop
      vertex 0 5 0
      vertex 0 0 5
      vertex 0 5 10
    endloop
  endfacet
  facet normal -1 -0 0
    outer loop
      vertex 0 5 10
      vertex 0 0 5
      vertex 0 0 10
    endloop
  endfacet
  facet normal -0.242536 0.970143 0
    outer loop
      vertex 20 10 5
      vertex 0 5 10
      vertex 20 10 10
    endloop
  endfacet
  facet normal -0.242536 0.970143 0
    outer loop
      vertex 0 5 0
      vertex 20 10 5
      vertex 20 10 0
    endloop
  endfacet
  facet normal -0.242536 0.970143 0
    outer loop
      vertex 20 10 5
      vertex 0 5 0
      vertex 0 5 10
    endloop
  endfacet
  facet normal 0 0 -1
    outer loop
      vertex 20 0 10
      vertex 4 2 10
      vertex 18 2 10
    endloop
  endfacet
  facet normal 0 -0 -1
    outer loop
      vertex 4 2 10
      vertex 20 0 10
      vertex 0 0 10
    endloop
  endfacet
  facet normal -0 0 1
    outer loop
      vertex 0 5 10
      vertex 4 2 10
      vertex 20 10 10
    endloop
  endfacet
  facet normal 0 0 1
    outer loop
      vertex 4 2 10
      vertex 0 5 10
      vertex 2 2 10
    endloop
  endfacet
  facet normal 0 0 1
    outer loop
      vertex 2 2 10
      vertex 0 5 10
      vertex 0 0 10
    endloop
  endfacet
  facet normal 0 -0 1
    outer loop
      vertex 20 0 5
      vertex 20 10 5
      vertex 0 0 5
    endloop
  endfacet
  facet normal 0.447214 -0.894427 0
    outer loop
      vertex 0 0 5
      vertex 4 2 10
      vertex 0 0 10
    endloop
  endfacet
  facet normal 0.447214 -0.894427 0
    outer loop
      vertex 20 10 5
      vertex 4 2 10
      vertex 0 0 5
    endloop
  endfacet
  facet normal 0.447214 -0.894427 0
    outer loop
      vertex 4 2 10
      vertex 20 10 5
      vertex 20 10 10
    endloop
  endfacet
  facet normal 0 -1 0
    outer loop
      vertex 0 0 10
      vertex 20 0 30
      vertex 0 0 30
    endloop
  endfacet
  facet normal 0 -1 -0
    outer loop
      vertex 20 0 30
      vertex 0 0 10
      vertex 20 0 10
    endloop
  endfacet
  facet normal 0 -0 -1
    outer loop
      vertex 10 10 20
      vertex 18 2 20
      vertex 2 2 20
    endloop
  endfacet
  facet normal 0.707107 0.707107 0
    outer loop
      vertex 10 10 30
      vertex 18 2 20
      vertex 10 10 20
    endloop
  endfacet
  facet normal 0.707107 0.707107 0
    outer loop
      vertex 20 0 30
      vertex 18 2 20
      vertex 10 10 30
    endloop
  endfacet
  facet normal 0.707107 0.707107 -0
    outer loop
      vertex 20 0 10
      vertex 18 2 20
      vertex 20 0 30
    endloop
  endfacet
  facet normal 0.707107 0.707107 0
    outer loop
      vertex 18 2 20
      vertex 20 0 10
      vertex 18 2 10
    endloop
  endfacet
  facet normal -0.707107 0.707107 0
    outer loop
      vertex 2 2 10
      vertex 0 0 10
      vertex 2 2 20
    endloop
  endfacet
  facet normal -0.707107 0.707107 0
    outer loop
      vertex 2 2 20
      vertex 10 10 30
      vertex 10 10 20
    endloop
  endfacet
  facet normal -0.707107 0.707107 0
    outer loop
      vertex 2 2 20
      vertex 0 0 30
      vertex 10 10 30
    endloop
  endfacet
  facet normal -0.707107 0.707107 0
    outer loop
      vertex 0 0 30
      vertex 2 2 20
      vertex 0 0 10
    endloop
  endfacet
  facet normal 0 1 0
    outer loop
      vertex 4 2 10
      vertex 18 2 20
      vertex 18 2 10
    endloop
  endfacet
  facet normal 0 1 0
    outer loop
      vertex 18 2 20
      vertex 4 2 10
      vertex 2 2 20
    endloop
  endfacet
  facet normal 0 1 0
    outer loop
      vertex 2 2 20
      vertex 4 2 10
      vertex 2 2 10
    endloop
  endfacet
  facet normal 0 0 1
    outer loop
      vertex 10 10 30
      vertex 0 0 30
      vertex 20 0 30
    endloop
  endfacet
endsolid OpenSCAD_Model
