solid OpenSCAD_Model
  facet normal 1 0 0
    outer loop
      vertex 20 10 45
      vertex 20 7.5 35
      vertex 20 10 35
    endloop
  endfacet
  facet normal 1 0 0
    outer loop
      vertex 20 10 45
      vertex 20 -7.5 35
      vertex 20 7.5 35
    endloop
  endfacet
  facet normal 1 -0 0
    outer loop
      vertex 20 -10 45
      vertex 20 -7.5 35
      vertex 20 10 45
    endloop
  endfacet
  facet normal 1 0 0
    outer loop
      vertex 20 -7.5 35
      vertex 20 -10 45
      vertex 20 -10 35
    endloop
  endfacet
  facet normal 0 0 1
    outer loop
      vertex -15 10 45
      vertex -20 10 45
      vertex -15 5 45
    endloop
  endfacet
  facet normal 0 0 1
    outer loop
      vertex 15 5 45
      vertex 20 10 45
      vertex 15 10 45
    endloop
  endfacet
  facet normal 0 0 1
    outer loop
      vertex 20 10 45
      vertex 15 5 45
      vertex 20 -10 45
    endloop
  endfacet
  facet normal -0 0 1
    outer loop
      vertex -15 5 45
      vertex 20 -10 45
      vertex 15 5 45
    endloop
  endfacet
  facet normal 0 0 1
    outer loop
      vertex -15 5 45
      vertex -20 -10 45
      vertex 20 -10 45
    endloop
  endfacet
  facet normal 0 0 1
    outer loop
      vertex -20 -10 45
      vertex -15 5 45
      vertex -20 10 45
    endloop
  endfacet
  facet normal -0 0 1
    outer loop
      vertex -27.5 7.5 35
      vertex -20 -7.5 35
      vertex -20 7.5 35
    endloop
  endfacet
  facet normal 0 0 1
    outer loop
      vertex -20 -7.5 35
      vertex -27.5 7.5 35
      vertex -27.5 -7.5 35
    endloop
  endfacet
  facet normal 0 0 -1
    outer loop
      vertex 20 -10 35
      vertex 12.5 -7.5 35
      vertex 20 -7.5 35
    endloop
  endfacet
  facet normal 0 0 -1
    outer loop
      vertex 12.5 -7.5 35
      vertex -12.5 -7.5 35
      vertex 12.5 7.5 35
    endloop
  endfacet
  facet normal 0 0 -1
    outer loop
      vertex 20 -10 35
      vertex -12.5 -7.5 35
      vertex 12.5 -7.5 35
    endloop
  endfacet
  facet normal 0 0 -1
    outer loop
      vertex -20 -10 35
      vertex -12.5 -7.5 35
      vertex 20 -10 35
    endloop
  endfacet
  facet normal -0 0 -1
    outer loop
      vertex -12.5 -7.5 35
      vertex -20 -10 35
      vertex -20 -7.5 35
    endloop
  endfacet
  facet normal 0 0 -1
    outer loop
      vertex 12.5 7.5 35
      vertex 20 10 35
      vertex 20 7.5 35
    endloop
  endfacet
  facet normal 0 0 -1
    outer loop
      vertex -12.5 7.5 35
      vertex 12.5 7.5 35
      vertex -12.5 -7.5 35
    endloop
  endfacet
  facet normal 0 0 -1
    outer loop
      vertex -12.5 7.5 35
      vertex 20 10 35
      vertex 12.5 7.5 35
    endloop
  endfacet
  facet normal 0 0 -1
    outer loop
      vertex -20 10 35
      vertex -12.5 7.5 35
      vertex -20 7.5 35
    endloop
  endfacet
  facet normal 0 0 -1
    outer loop
      vertex -12.5 7.5 35
      vertex -20 10 35
      vertex 20 10 35
    endloop
  endfacet
  facet normal -0 0 1
    outer loop
      vertex 20 7.5 35
      vertex 27.5 -7.5 35
      vertex 27.5 7.5 35
    endloop
  endfacet
  facet normal 0 0 1
    outer loop
      vertex 27.5 -7.5 35
      vertex 20 7.5 35
      vertex 20 -7.5 35
    endloop
  endfacet
  facet normal -1 0 0
    outer loop
      vertex -20 7.5 35
      vertex -20 10 45
      vertex -20 10 35
    endloop
  endfacet
  facet normal -1 0 0
    outer loop
      vertex -20 -7.5 35
      vertex -20 10 45
      vertex -20 7.5 35
    endloop
  endfacet
  facet normal -1 0 0
    outer loop
      vertex -20 -10 45
      vertex -20 -7.5 35
      vertex -20 -10 35
    endloop
  endfacet
  facet normal -1 0 0
    outer loop
      vertex -20 -7.5 35
      vertex -20 -10 45
      vertex -20 10 45
    endloop
  endfacet
  facet normal 0 1 0
    outer loop
      vertex 20 10 45
      vertex 15 10 40
      vertex 15 10 45
    endloop
  endfacet
  facet normal 0 1 0
    outer loop
      vertex 15 10 40
      vertex 20 10 35
      vertex -15 10 40
    endloop
  endfacet
  facet normal 0 1 -0
    outer loop
      vertex 20 10 35
      vertex 15 10 40
      vertex 20 10 45
    endloop
  endfacet
  facet normal 0 1 -0
    outer loop
      vertex -15 10 40
      vertex -20 10 45
      vertex -15 10 45
    endloop
  endfacet
  facet normal 0 1 0
    outer loop
      vertex -15 10 40
      vertex -20 10 35
      vertex -20 10 45
    endloop
  endfacet
  facet normal 0 1 0
    outer loop
      vertex -20 10 35
      vertex -15 10 40
      vertex 20 10 35
    endloop
  endfacet
  facet normal 0 -1 0
    outer loop
      vertex -20 -10 35
      vertex 20 -10 45
      vertex -20 -10 45
    endloop
  endfacet
  facet normal 0 -1 -0
    outer loop
      vertex 20 -10 45
      vertex -20 -10 35
      vertex 20 -10 35
    endloop
  endfacet
  facet normal 1 0 0
    outer loop
      vertex 15 15 50
      vertex 15 10 45
      vertex 15 15 40
    endloop
  endfacet
  facet normal 1 -0 0
    outer loop
      vertex 15 5 50
      vertex 15 10 45
      vertex 15 15 50
    endloop
  endfacet
  facet normal 1 0 0
    outer loop
      vertex 15 10 45
      vertex 15 5 50
      vertex 15 5 45
    endloop
  endfacet
  facet normal 1 0 0
    outer loop
      vertex 15 15 40
      vertex 15 10 45
      vertex 15 10 40
    endloop
  endfacet
  facet normal -0 0 1
    outer loop
      vertex -15 15 50
      vertex 15 5 50
      vertex 15 15 50
    endloop
  endfacet
  facet normal 0 0 1
    outer loop
      vertex 15 5 50
      vertex -15 15 50
      vertex -15 5 50
    endloop
  endfacet
  facet normal 0 0 -1
    outer loop
      vertex -15 10 40
      vertex 15 15 40
      vertex 15 10 40
    endloop
  endfacet
  facet normal -0 0 -1
    outer loop
      vertex 15 15 40
      vertex -15 10 40
      vertex -15 15 40
    endloop
  endfacet
  facet normal -1 0 0
    outer loop
      vertex -15 10 45
      vertex -15 15 40
      vertex -15 10 40
    endloop
  endfacet
  facet normal -1 0 0
    outer loop
      vertex -15 15 40
      vertex -15 10 45
      vertex -15 15 50
    endloop
  endfacet
  facet normal -1 0 0
    outer loop
      vertex -15 5 50
      vertex -15 10 45
      vertex -15 5 45
    endloop
  endfacet
  facet normal -1 0 0
    outer loop
      vertex -15 10 45
      vertex -15 5 50
      vertex -15 15 50
    endloop
  endfacet
  facet normal 0 1 -0
    outer loop
      vertex 15 15 40
      vertex -15 15 50
      vertex 15 15 50
    endloop
  endfacet
  facet normal 0 1 0
    outer loop
      vertex -15 15 50
      vertex 15 15 40
      vertex -15 15 40
    endloop
  endfacet
  facet normal 0 -1 0
    outer loop
      vertex -15 5 45
      vertex 15 5 50
      vertex -15 5 50
    endloop
  endfacet
  facet normal 0 -1 -0
    outer loop
      vertex 15 5 50
      vertex -15 5 45
      vertex 15 5 45
    endloop
  endfacet
  facet normal 1 -0 0
    outer loop
      vertex -17.5 7.5 25
      vertex -17.5 12.5 15
      vertex -17.5 12.5 25
    endloop
  endfacet
  facet normal 1 -0 0
    outer loop
      vertex -17.5 -7.5 25
      vertex -17.5 12.5 15
      vertex -17.5 7.5 25
    endloop
  endfacet
  facet normal 1 0 0
    outer loop
      vertex -17.5 -12.5 15
      vertex -17.5 -7.5 25
      vertex -17.5 -12.5 25
    endloop
  endfacet
  facet normal 1 0 0
    outer loop
      vertex -17.5 -7.5 25
      vertex -17.5 -12.5 15
      vertex -17.5 12.5 15
    endloop
  endfacet
  facet normal 0 0 -1
    outer loop
      vertex -17.5 -7.5 25
      vertex -12.5 7.5 25
      vertex -12.5 -7.5 25
    endloop
  endfacet
  facet normal -0 0 -1
    outer loop
      vertex -12.5 7.5 25
      vertex -17.5 -7.5 25
      vertex -17.5 7.5 25
    endloop
  endfacet
  facet normal 0 0 1
    outer loop
      vertex -17.5 12.5 25
      vertex -27.5 7.5 25
      vertex -17.5 7.5 25
    endloop
  endfacet
  facet normal 0 0 1
    outer loop
      vertex -27.5 7.5 25
      vertex -31 0 25
      vertex -27.5 -7.5 25
    endloop
  endfacet
  facet normal 0 0 1
    outer loop
      vertex -27.5 7.5 25
      vertex -39 0 25
      vertex -31 0 25
    endloop
  endfacet
  facet normal 0 0 1
    outer loop
      vertex -52.5 -12.5 25
      vertex -39 0 25
      vertex -52.5 12.5 25
    endloop
  endfacet
  facet normal 0 0 1
    outer loop
      vertex -27.5 7.5 25
      vertex -52.5 12.5 25
      vertex -39 0 25
    endloop
  endfacet
  facet normal -0 0 1
    outer loop
      vertex -52.5 12.5 25
      vertex -27.5 7.5 25
      vertex -17.5 12.5 25
    endloop
  endfacet
  facet normal -0 0 1
    outer loop
      vertex -27.5 -7.5 25
      vertex -17.5 -12.5 25
      vertex -17.5 -7.5 25
    endloop
  endfacet
  facet normal 0 0 1
    outer loop
      vertex -31 -10 25
      vertex -27.5 -7.5 25
      vertex -31 0 25
    endloop
  endfacet
  facet normal -0 0 1
    outer loop
      vertex -31 -10 25
      vertex -17.5 -12.5 25
      vertex -27.5 -7.5 25
    endloop
  endfacet
  facet normal -0 0 1
    outer loop
      vertex -39 -10 25
      vertex -17.5 -12.5 25
      vertex -31 -10 25
    endloop
  endfacet
  facet normal 0 0 1
    outer loop
      vertex -39 -10 25
      vertex -52.5 -12.5 25
      vertex -17.5 -12.5 25
    endloop
  endfacet
  facet normal 0 0 1
    outer loop
      vertex -39 0 25
      vertex -52.5 -12.5 25
      vertex -39 -10 25
    endloop
  endfacet
  facet normal 0 0 -1
    outer loop
      vertex -52.5 -12.5 15
      vertex -17.5 12.5 15
      vertex -17.5 -12.5 15
    endloop
  endfacet
  facet normal -0 0 -1
    outer loop
      vertex -17.5 12.5 15
      vertex -52.5 -12.5 15
      vertex -52.5 12.5 15
    endloop
  endfacet
  facet normal -1 0 0
    outer loop
      vertex -52.5 -12.5 15
      vertex -52.5 12.5 25
      vertex -52.5 12.5 15
    endloop
  endfacet
  facet normal -1 -0 0
    outer loop
      vertex -52.5 12.5 25
      vertex -52.5 -12.5 15
      vertex -52.5 -12.5 25
    endloop
  endfacet
  facet normal 0 1 -0
    outer loop
      vertex -17.5 12.5 15
      vertex -52.5 12.5 25
      vertex -17.5 12.5 25
    endloop
  endfacet
  facet normal 0 1 0
    outer loop
      vertex -52.5 12.5 25
      vertex -17.5 12.5 15
      vertex -52.5 12.5 15
    endloop
  endfacet
  facet normal 0 -1 0
    outer loop
      vertex -52.5 -12.5 15
      vertex -17.5 -12.5 25
      vertex -52.5 -12.5 25
    endloop
  endfacet
  facet normal 0 -1 -0
    outer loop
      vertex -17.5 -12.5 25
      vertex -52.5 -12.5 15
      vertex -17.5 -12.5 15
    endloop
  endfacet
  facet normal -1 0 0
    outer loop
      vertex -31 -10 20
      vertex -31 0 25
      vertex -31 0 20
    endloop
  endfacet
  facet normal -1 -0 0
    outer loop
      vertex -31 0 25
      vertex -31 -10 20
      vertex -31 -10 25
    endloop
  endfacet
  facet normal -0 0 1
    outer loop
      vertex -39 0 20
      vertex -31 -10 20
      vertex -31 0 20
    endloop
  endfacet
  facet normal 0 0 1
    outer loop
      vertex -31 -10 20
      vertex -39 0 20
      vertex -39 -10 20
    endloop
  endfacet
  facet normal 1 -0 0
    outer loop
      vertex -39 -10 25
      vertex -39 0 20
      vertex -39 0 25
    endloop
  endfacet
  facet normal 1 0 0
    outer loop
      vertex -39 0 20
      vertex -39 -10 25
      vertex -39 -10 20
    endloop
  endfacet
  facet normal 0 -1 0
    outer loop
      vertex -39 0 20
      vertex -31 0 25
      vertex -39 0 25
    endloop
  endfacet
  facet normal 0 -1 -0
    outer loop
      vertex -31 0 25
      vertex -39 0 20
      vertex -31 0 20
    endloop
  endfacet
  facet normal 0 1 -0
    outer loop
      vertex -31 -10 20
      vertex -39 -10 25
      vertex -31 -10 25
    endloop
  endfacet
  facet normal 0 1 0
    outer loop
      vertex -39 -10 25
      vertex -31 -10 20
      vertex -39 -10 20
    endloop
  endfacet
  facet normal 1 -0 0
    outer loop
      vertex 52.5 -12.5 25
      vertex 52.5 12.5 15
      vertex 52.5 12.5 25
    endloop
  endfacet
  facet normal 1 0 0
    outer loop
      vertex 52.5 12.5 15
      vertex 52.5 -12.5 25
      vertex 52.5 -12.5 15
    endloop
  endfacet
  facet normal 0 0 1
    outer loop
      vertex 52.5 12.5 25
      vertex 39 0 25
      vertex 52.5 -12.5 25
    endloop
  endfacet
  facet normal -0 0 1
    outer loop
      vertex 27.5 7.5 25
      vertex 39 0 25
      vertex 52.5 12.5 25
    endloop
  endfacet
  facet normal 0 0 1
    outer loop
      vertex 27.5 -7.5 25
      vertex 31 0 25
      vertex 27.5 7.5 25
    endloop
  endfacet
  facet normal 0 0 1
    outer loop
      vertex 39 0 25
      vertex 27.5 7.5 25
      vertex 31 0 25
    endloop
  endfacet
  facet normal -0 0 1
    outer loop
      vertex 17.5 12.5 25
      vertex 27.5 7.5 25
      vertex 52.5 12.5 25
    endloop
  endfacet
  facet normal 0 0 1
    outer loop
      vertex 27.5 7.5 25
      vertex 17.5 12.5 25
      vertex 17.5 7.5 25
    endloop
  endfacet
  facet normal -0 0 1
    outer loop
      vertex 39 -10 25
      vertex 52.5 -12.5 25
      vertex 39 0 25
    endloop
  endfacet
  facet normal -0 0 1
    outer loop
      vertex 31 -10 25
      vertex 52.5 -12.5 25
      vertex 39 -10 25
    endloop
  endfacet
  facet normal 0 0 1
    outer loop
      vertex 31 0 25
      vertex 27.5 -7.5 25
      vertex 31 -10 25
    endloop
  endfacet
  facet normal 0 0 1
    outer loop
      vertex 17.5 -12.5 25
      vertex 27.5 -7.5 25
      vertex 17.5 -7.5 25
    endloop
  endfacet
  facet normal 0 0 1
    outer loop
      vertex 31 -10 25
      vertex 17.5 -12.5 25
      vertex 52.5 -12.5 25
    endloop
  endfacet
  facet normal 0 0 1
    outer loop
      vertex 27.5 -7.5 25
      vertex 17.5 -12.5 25
      vertex 31 -10 25
    endloop
  endfacet
  facet normal 0 0 -1
    outer loop
      vertex 12.5 -7.5 25
      vertex 17.5 7.5 25
      vertex 17.5 -7.5 25
    endloop
  endfacet
  facet normal -0 0 -1
    outer loop
      vertex 17.5 7.5 25
      vertex 12.5 -7.5 25
      vertex 12.5 7.5 25
    endloop
  endfacet
  facet normal 0 0 -1
    outer loop
      vertex 52.5 -12.5 15
      vertex 22.5 -5 15
      vertex 52.5 12.5 15
    endloop
  endfacet
  facet normal 0 0 -1
    outer loop
      vertex 17.5 -12.5 15
      vertex 22.5 -5 15
      vertex 52.5 -12.5 15
    endloop
  endfacet
  facet normal -0 0 -1
    outer loop
      vertex 22.5 -5 15
      vertex 17.5 -12.5 15
      vertex 17.5 -5 15
    endloop
  endfacet
  facet normal 0 0 -1
    outer loop
      vertex 22.5 5 15
      vertex 52.5 12.5 15
      vertex 22.5 -5 15
    endloop
  endfacet
  facet normal 0 0 -1
    outer loop
      vertex 17.5 12.5 15
      vertex 22.5 5 15
      vertex 17.5 5 15
    endloop
  endfacet
  facet normal 0 0 -1
    outer loop
      vertex 22.5 5 15
      vertex 17.5 12.5 15
      vertex 52.5 12.5 15
    endloop
  endfacet
  facet normal -1 0 0
    outer loop
      vertex 17.5 -12.5 15
      vertex 17.5 -5 20
      vertex 17.5 -5 15
    endloop
  endfacet
  facet normal -1 0 0
    outer loop
      vertex 17.5 -12.5 25
      vertex 17.5 -5 20
      vertex 17.5 -12.5 15
    endloop
  endfacet
  facet normal -1 0 0
    outer loop
      vertex 17.5 -5 20
      vertex 17.5 -12.5 25
      vertex 17.5 -7.5 25
    endloop
  endfacet
  facet normal -1 0 0
    outer loop
      vertex 17.5 5 20
      vertex 17.5 12.5 25
      vertex 17.5 12.5 15
    endloop
  endfacet
  facet normal -1 0 0
    outer loop
      vertex 17.5 5 20
      vertex 17.5 12.5 15
      vertex 17.5 5 15
    endloop
  endfacet
  facet normal -1 -0 0
    outer loop
      vertex 17.5 12.5 25
      vertex 17.5 5 20
      vertex 17.5 7.5 25
    endloop
  endfacet
  facet normal -1 0 0
    outer loop
      vertex 17.5 -5 20
      vertex 17.5 7.5 25
      vertex 17.5 5 20
    endloop
  endfacet
  facet normal -1 -0 0
    outer loop
      vertex 17.5 7.5 25
      vertex 17.5 -5 20
      vertex 17.5 -7.5 25
    endloop
  endfacet
  facet normal 0 1 -0
    outer loop
      vertex 52.5 12.5 15
      vertex 17.5 12.5 25
      vertex 52.5 12.5 25
    endloop
  endfacet
  facet normal 0 1 0
    outer loop
      vertex 17.5 12.5 25
      vertex 52.5 12.5 15
      vertex 17.5 12.5 15
    endloop
  endfacet
  facet normal 0 -1 0
    outer loop
      vertex 17.5 -12.5 15
      vertex 52.5 -12.5 25
      vertex 17.5 -12.5 25
    endloop
  endfacet
  facet normal 0 -1 -0
    outer loop
      vertex 52.5 -12.5 25
      vertex 17.5 -12.5 15
      vertex 52.5 -12.5 15
    endloop
  endfacet
  facet normal -1 0 0
    outer loop
      vertex 39 -10 20
      vertex 39 0 25
      vertex 39 0 20
    endloop
  endfacet
  facet normal -1 -0 0
    outer loop
      vertex 39 0 25
      vertex 39 -10 20
      vertex 39 -10 25
    endloop
  endfacet
  facet normal -0 0 1
    outer loop
      vertex 31 0 20
      vertex 39 -10 20
      vertex 39 0 20
    endloop
  endfacet
  facet normal 0 0 1
    outer loop
      vertex 39 -10 20
      vertex 31 0 20
      vertex 31 -10 20
    endloop
  endfacet
  facet normal 1 -0 0
    outer loop
      vertex 31 -10 25
      vertex 31 0 20
      vertex 31 0 25
    endloop
  endfacet
  facet normal 1 0 0
    outer loop
      vertex 31 0 20
      vertex 31 -10 25
      vertex 31 -10 20
    endloop
  endfacet
  facet normal 0 -1 0
    outer loop
      vertex 31 0 20
      vertex 39 0 25
      vertex 31 0 25
    endloop
  endfacet
  facet normal 0 -1 -0
    outer loop
      vertex 39 0 25
      vertex 31 0 20
      vertex 39 0 20
    endloop
  endfacet
  facet normal 0 1 -0
    outer loop
      vertex 39 -10 20
      vertex 31 -10 25
      vertex 39 -10 25
    endloop
  endfacet
  facet normal 0 1 0
    outer loop
      vertex 31 -10 25
      vertex 39 -10 20
      vertex 31 -10 20
    endloop
  endfacet
  facet normal 1 0 0
    outer loop
      vertex 15 -5 15
      vertex 15 -10 15
      vertex 15 -5 10
    endloop
  endfacet
  facet normal 1 0 0
    outer loop
      vertex 15 5 10
      vertex 15 10 15
      vertex 15 5 15
    endloop
  endfacet
  facet normal 1 0 0
    outer loop
      vertex 15 10 15
      vertex 15 5 10
      vertex 15 10 5
    endloop
  endfacet
  facet normal 1 -0 0
    outer loop
      vertex 15 -5 10
      vertex 15 10 5
      vertex 15 5 10
    endloop
  endfacet
  facet normal 1 0 0
    outer loop
      vertex 15 -5 10
      vertex 15 -10 5
      vertex 15 10 5
    endloop
  endfacet
  facet normal 1 0 0
    outer loop
      vertex 15 -10 5
      vertex 15 -5 10
      vertex 15 -10 15
    endloop
  endfacet
  facet normal 0 0 1
    outer loop
      vertex 15 10 15
      vertex 7.5 5 15
      vertex 15 5 15
    endloop
  endfacet
  facet normal 0 0 1
    outer loop
      vertex 7.5 5 15
      vertex -15 10 15
      vertex 7.5 -5 15
    endloop
  endfacet
  facet normal -0 0 1
    outer loop
      vertex -15 10 15
      vertex 7.5 5 15
      vertex 15 10 15
    endloop
  endfacet
  facet normal -0 0 1
    outer loop
      vertex 7.5 -5 15
      vertex 15 -10 15
      vertex 15 -5 15
    endloop
  endfacet
  facet normal 0 0 1
    outer loop
      vertex -15 -10 15
      vertex 7.5 -5 15
      vertex -15 10 15
    endloop
  endfacet
  facet normal 0 0 1
    outer loop
      vertex 7.5 -5 15
      vertex -15 -10 15
      vertex 15 -10 15
    endloop
  endfacet
  facet normal 0 0 -1
    outer loop
      vertex -15 -10 5
      vertex 15 10 5
      vertex 15 -10 5
    endloop
  endfacet
  facet normal -0 0 -1
    outer loop
      vertex 15 10 5
      vertex -15 -10 5
      vertex -15 10 5
    endloop
  endfacet
  facet normal -1 0 0
    outer loop
      vertex -15 -10 5
      vertex -15 10 15
      vertex -15 10 5
    endloop
  endfacet
  facet normal -1 -0 0
    outer loop
      vertex -15 10 15
      vertex -15 -10 5
      vertex -15 -10 15
    endloop
  endfacet
  facet normal 0 1 -0
    outer loop
      vertex 15 10 5
      vertex -15 10 15
      vertex 15 10 15
    endloop
  endfacet
  facet normal 0 1 0
    outer loop
      vertex -15 10 15
      vertex 15 10 5
      vertex -15 10 5
    endloop
  endfacet
  facet normal 0 -1 0
    outer loop
      vertex -15 -10 5
      vertex 15 -10 15
      vertex -15 -10 15
    endloop
  endfacet
  facet normal 0 -1 -0
    outer loop
      vertex 15 -10 15
      vertex -15 -10 5
      vertex 15 -10 5
    endloop
  endfacet
  facet normal 1 -0 0
    outer loop
      vertex 22.5 -5 15
      vertex 22.5 5 10
      vertex 22.5 5 15
    endloop
  endfacet
  facet normal 1 0 0
    outer loop
      vertex 22.5 5 10
      vertex 22.5 -5 15
      vertex 22.5 -5 10
    endloop
  endfacet
  facet normal -0 0 1
    outer loop
      vertex 7.5 5 20
      vertex 17.5 -5 20
      vertex 17.5 5 20
    endloop
  endfacet
  facet normal 0 0 1
    outer loop
      vertex 17.5 -5 20
      vertex 7.5 5 20
      vertex 7.5 -5 20
    endloop
  endfacet
  facet normal 0 0 -1
    outer loop
      vertex 15 -5 10
      vertex 22.5 5 10
      vertex 22.5 -5 10
    endloop
  endfacet
  facet normal -0 0 -1
    outer loop
      vertex 22.5 5 10
      vertex 15 -5 10
      vertex 15 5 10
    endloop
  endfacet
  facet normal -1 0 0
    outer loop
      vertex 7.5 -5 15
      vertex 7.5 5 20
      vertex 7.5 5 15
    endloop
  endfacet
  facet normal -1 -0 0
    outer loop
      vertex 7.5 5 20
      vertex 7.5 -5 15
      vertex 7.5 -5 20
    endloop
  endfacet
  facet normal 0 1 0
    outer loop
      vertex 15 5 15
      vertex 17.5 5 20
      vertex 17.5 5 15
    endloop
  endfacet
  facet normal 0 1 0
    outer loop
      vertex 17.5 5 20
      vertex 15 5 15
      vertex 7.5 5 20
    endloop
  endfacet
  facet normal 0 1 0
    outer loop
      vertex 7.5 5 20
      vertex 15 5 15
      vertex 7.5 5 15
    endloop
  endfacet
  facet normal 0 1 -0
    outer loop
      vertex 22.5 5 10
      vertex 17.5 5 15
      vertex 22.5 5 15
    endloop
  endfacet
  facet normal 0 1 0
    outer loop
      vertex 15 5 10
      vertex 17.5 5 15
      vertex 22.5 5 10
    endloop
  endfacet
  facet normal 0 1 0
    outer loop
      vertex 17.5 5 15
      vertex 15 5 10
      vertex 15 5 15
    endloop
  endfacet
  facet normal 0 -1 0
    outer loop
      vertex 15 -5 15
      vertex 7.5 -5 20
      vertex 7.5 -5 15
    endloop
  endfacet
  facet normal 0 -1 0
    outer loop
      vertex 7.5 -5 20
      vertex 15 -5 15
      vertex 17.5 -5 20
    endloop
  endfacet
  facet normal 0 -1 0
    outer loop
      vertex 15 -5 15
      vertex 17.5 -5 15
      vertex 17.5 -5 20
    endloop
  endfacet
  facet normal 0 -1 0
    outer loop
      vertex 15 -5 10
      vertex 17.5 -5 15
      vertex 15 -5 15
    endloop
  endfacet
  facet normal 0 -1 0
    outer loop
      vertex 22.5 -5 10
      vertex 17.5 -5 15
      vertex 15 -5 10
    endloop
  endfacet
  facet normal 0 -1 0
    outer loop
      vertex 17.5 -5 15
      vertex 22.5 -5 10
      vertex 22.5 -5 15
    endloop
  endfacet
  facet normal 1 -0 0
    outer loop
      vertex -12.5 -7.5 35
      vertex -12.5 7.5 25
      vertex -12.5 7.5 35
    endloop
  endfacet
  facet normal 1 0 0
    outer loop
      vertex -12.5 7.5 25
      vertex -12.5 -7.5 35
      vertex -12.5 -7.5 25
    endloop
  endfacet
  facet normal -1 0 0
    outer loop
      vertex -27.5 -7.5 25
      vertex -27.5 7.5 35
      vertex -27.5 7.5 25
    endloop
  endfacet
  facet normal -1 -0 0
    outer loop
      vertex -27.5 7.5 35
      vertex -27.5 -7.5 25
      vertex -27.5 -7.5 35
    endloop
  endfacet
  facet normal 0 1 -0
    outer loop
      vertex -17.5 7.5 25
      vertex -20 7.5 35
      vertex -12.5 7.5 35
    endloop
  endfacet
  facet normal 0 1 0
    outer loop
      vertex -17.5 7.5 25
      vertex -12.5 7.5 35
      vertex -12.5 7.5 25
    endloop
  endfacet
  facet normal 0 1 0
    outer loop
      vertex -27.5 7.5 25
      vertex -20 7.5 35
      vertex -17.5 7.5 25
    endloop
  endfacet
  facet normal 0 1 0
    outer loop
      vertex -20 7.5 35
      vertex -27.5 7.5 25
      vertex -27.5 7.5 35
    endloop
  endfacet
  facet normal 0 -1 0
    outer loop
      vertex -27.5 -7.5 25
      vertex -20 -7.5 35
      vertex -27.5 -7.5 35
    endloop
  endfacet
  facet normal 0 -1 -0
    outer loop
      vertex -20 -7.5 35
      vertex -27.5 -7.5 25
      vertex -17.5 -7.5 25
    endloop
  endfacet
  facet normal 0 -1 0
    outer loop
      vertex -20 -7.5 35
      vertex -17.5 -7.5 25
      vertex -12.5 -7.5 35
    endloop
  endfacet
  facet normal 0 -1 -0
    outer loop
      vertex -12.5 -7.5 35
      vertex -17.5 -7.5 25
      vertex -12.5 -7.5 25
    endloop
  endfacet
  facet normal 1 -0 0
    outer loop
      vertex 27.5 -7.5 35
      vertex 27.5 7.5 25
      vertex 27.5 7.5 35
    endloop
  endfacet
  facet normal 1 0 0
    outer loop
      vertex 27.5 7.5 25
      vertex 27.5 -7.5 35
      vertex 27.5 -7.5 25
    endloop
  endfacet
  facet normal -1 0 0
    outer loop
      vertex 12.5 -7.5 25
      vertex 12.5 7.5 35
      vertex 12.5 7.5 25
    endloop
  endfacet
  facet normal -1 -0 0
    outer loop
      vertex 12.5 7.5 35
      vertex 12.5 -7.5 25
      vertex 12.5 -7.5 35
    endloop
  endfacet
  facet normal 0 1 -0
    outer loop
      vertex 27.5 7.5 25
      vertex 20 7.5 35
      vertex 27.5 7.5 35
    endloop
  endfacet
  facet normal 0 1 0
    outer loop
      vertex 20 7.5 35
      vertex 27.5 7.5 25
      vertex 17.5 7.5 25
    endloop
  endfacet
  facet normal 0 1 0
    outer loop
      vertex 20 7.5 35
      vertex 17.5 7.5 25
      vertex 12.5 7.5 35
    endloop
  endfacet
  facet normal 0 1 0
    outer loop
      vertex 12.5 7.5 35
      vertex 17.5 7.5 25
      vertex 12.5 7.5 25
    endloop
  endfacet
  facet normal 0 -1 0
    outer loop
      vertex 17.5 -7.5 25
      vertex 20 -7.5 35
      vertex 12.5 -7.5 35
    endloop
  endfacet
  facet normal 0 -1 0
    outer loop
      vertex 17.5 -7.5 25
      vertex 12.5 -7.5 35
      vertex 12.5 -7.5 25
    endloop
  endfacet
  facet normal 0 -1 0
    outer loop
      vertex 27.5 -7.5 25
      vertex 20 -7.5 35
      vertex 17.5 -7.5 25
    endloop
  endfacet
  facet normal 0 -1 0
    outer loop
      vertex 20 -7.5 35
      vertex 27.5 -7.5 25
      vertex 27.5 -7.5 35
    endloop
  endfacet
endsolid OpenSCAD_Model
