solid OpenSCAD_Model
  facet normal 1 -0 0
    outer loop
      vertex 25 -5 0.5
      vertex 25 5 -0.5
      vertex 25 5 0.5
    endloop
  endfacet
  facet normal 1 0 0
    outer loop
      vertex 25 5 -0.5
      vertex 25 -5 0.5
      vertex 25 -5 -0.5
    endloop
  endfacet
  facet normal -0 0 1
    outer loop
      vertex -25 5 0.5
      vertex 25 -5 0.5
      vertex 25 5 0.5
    endloop
  endfacet
  facet normal 0 0 1
    outer loop
      vertex 25 -5 0.5
      vertex -25 5 0.5
      vertex -25 -5 0.5
    endloop
  endfacet
  facet normal 0 0 -1
    outer loop
      vertex -25 -5 -0.5
      vertex 25 5 -0.5
      vertex 25 -5 -0.5
    endloop
  endfacet
  facet normal -0 0 -1
    outer loop
      vertex 25 5 -0.5
      vertex -25 -5 -0.5
      vertex -25 5 -0.5
    endloop
  endfacet
  facet normal -1 0 0
    outer loop
      vertex -25 -5 -0.5
      vertex -25 5 0.5
      vertex -25 5 -0.5
    endloop
  endfacet
  facet normal -1 -0 0
    outer loop
      vertex -25 5 0.5
      vertex -25 -5 -0.5
      vertex -25 -5 0.5
    endloop
  endfacet
  facet normal 0 1 -0
    outer loop
      vertex 25 5 -0.5
      vertex -25 5 0.5
      vertex 25 5 0.5
    endloop
  endfacet
  facet normal 0 1 0
    outer loop
      vertex -25 5 0.5
      vertex 25 5 -0.5
      vertex -25 5 -0.5
    endloop
  endfacet
  facet normal 0 -1 0
    outer loop
      vertex -25 -5 -0.5
      vertex 25 -5 0.5
      vertex -25 -5 0.5
    endloop
  endfacet
  facet normal 0 -1 -0
    outer loop
      vertex 25 -5 0.5
      vertex -25 -5 -0.5
      vertex 25 -5 -0.5
    endloop
  endfacet
  facet normal 1 -0 0
    outer loop
      vertex 25 -5 -14.5
      vertex 25 5 -15.5
      vertex 25 5 -14.5
    endloop
  endfacet
  facet normal 1 0 0
    outer loop
      vertex 25 5 -15.5
      vertex 25 -5 -14.5
      vertex 25 -5 -15.5
    endloop
  endfacet
  facet normal -0 0 1
    outer loop
      vertex -25 5 -14.5
      vertex 25 -5 -14.5
      vertex 25 5 -14.5
    endloop
  endfacet
  facet normal 0 0 1
    outer loop
      vertex 25 -5 -14.5
      vertex -25 5 -14.5
      vertex -25 -5 -14.5
    endloop
  endfacet
  facet normal 0 0 -1
    outer loop
      vertex -25 -5 -15.5
      vertex 25 5 -15.5
      vertex 25 -5 -15.5
    endloop
  endfacet
  facet normal -0 0 -1
    outer loop
      vertex 25 5 -15.5
      vertex -25 -5 -15.5
      vertex -25 5 -15.5
    endloop
  endfacet
  facet normal -1 0 0
    outer loop
      vertex -25 -5 -15.5
      vertex -25 5 -14.5
      vertex -25 5 -15.5
    endloop
  endfacet
  facet normal -1 -0 0
    outer loop
      vertex -25 5 -14.5
      vertex -25 -5 -15.5
      vertex -25 -5 -14.5
    endloop
  endfacet
  facet normal 0 1 -0
    outer loop
      vertex 25 5 -15.5
      vertex -25 5 -14.5
      vertex 25 5 -14.5
    endloop
  endfacet
  facet normal 0 1 0
    outer loop
      vertex -25 5 -14.5
      vertex 25 5 -15.5
      vertex -25 5 -15.5
    endloop
  endfacet
  facet normal 0 -1 0
    outer loop
      vertex -25 -5 -15.5
      vertex 25 -5 -14.5
      vertex -25 -5 -14.5
    endloop
  endfacet
  facet normal 0 -1 -0
    outer loop
      vertex 25 -5 -14.5
      vertex -25 -5 -15.5
      vertex 25 -5 -15.5
    endloop
  endfacet
  facet normal 1 -0 0
    outer loop
      vertex 25 -5 -29.5
      vertex 25 5 -30.5
      vertex 25 5 -29.5
    endloop
  endfacet
  facet normal 1 0 0
    outer loop
      vertex 25 5 -30.5
      vertex 25 -5 -29.5
      vertex 25 -5 -30.5
    endloop
  endfacet
  facet normal -0 0 1
    outer loop
      vertex -25 5 -29.5
      vertex 25 -5 -29.5
      vertex 25 5 -29.5
    endloop
  endfacet
  facet normal 0 0 1
    outer loop
      vertex 25 -5 -29.5
      vertex -25 5 -29.5
      vertex -25 -5 -29.5
    endloop
  endfacet
  facet normal 0 0 -1
    outer loop
      vertex -25 -5 -30.5
      vertex 25 5 -30.5
      vertex 25 -5 -30.5
    endloop
  endfacet
  facet normal -0 0 -1
    outer loop
      vertex 25 5 -30.5
      vertex -25 -5 -30.5
      vertex -25 5 -30.5
    endloop
  endfacet
  facet normal -1 0 0
    outer loop
      vertex -25 -5 -30.5
      vertex -25 5 -29.5
      vertex -25 5 -30.5
    endloop
  endfacet
  facet normal -1 -0 0
    outer loop
      vertex -25 5 -29.5
      vertex -25 -5 -30.5
      vertex -25 -5 -29.5
    endloop
  endfacet
  facet normal 0 1 -0
    outer loop
      vertex 25 5 -30.5
      vertex -25 5 -29.5
      vertex 25 5 -29.5
    endloop
  endfacet
  facet normal 0 1 0
    outer loop
      vertex -25 5 -29.5
      vertex 25 5 -30.5
      vertex -25 5 -30.5
    endloop
  endfacet
  facet normal 0 -1 0
    outer loop
      vertex -25 -5 -30.5
      vertex 25 -5 -29.5
      vertex -25 -5 -29.5
    endloop
  endfacet
  facet normal 0 -1 -0
    outer loop
      vertex 25 -5 -29.5
      vertex -25 -5 -30.5
      vertex 25 -5 -30.5
    endloop
  endfacet
  facet normal 1 -0 0
    outer loop
      vertex 25 -5 -44.5
      vertex 25 5 -45.5
      vertex 25 5 -44.5
    endloop
  endfacet
  facet normal 1 0 0
    outer loop
      vertex 25 5 -45.5
      vertex 25 -5 -44.5
      vertex 25 -5 -45.5
    endloop
  endfacet
  facet normal -0 0 1
    outer loop
      vertex -25 5 -44.5
      vertex 25 -5 -44.5
      vertex 25 5 -44.5
    endloop
  endfacet
  facet normal 0 0 1
    outer loop
      vertex 25 -5 -44.5
      vertex -25 5 -44.5
      vertex -25 -5 -44.5
    endloop
  endfacet
  facet normal 0 0 -1
    outer loop
      vertex -25 -5 -45.5
      vertex 25 5 -45.5
      vertex 25 -5 -45.5
    endloop
  endfacet
  facet normal -0 0 -1
    outer loop
      vertex 25 5 -45.5
      vertex -25 -5 -45.5
      vertex -25 5 -45.5
    endloop
  endfacet
  facet normal -1 0 0
    outer loop
      vertex -25 -5 -45.5
      vertex -25 5 -44.5
      vertex -25 5 -45.5
    endloop
  endfacet
  facet normal -1 -0 0
    outer loop
      vertex -25 5 -44.5
      vertex -25 -5 -45.5
      vertex -25 -5 -44.5
    endloop
  endfacet
  facet normal 0 1 -0
    outer loop
      vertex 25 5 -45.5
      vertex -25 5 -44.5
      vertex 25 5 -44.5
    endloop
  endfacet
  facet normal 0 1 0
    outer loop
      vertex -25 5 -44.5
      vertex 25 5 -45.5
      vertex -25 5 -45.5
    endloop
  endfacet
  facet normal 0 -1 0
    outer loop
      vertex -25 -5 -45.5
      vertex 25 -5 -44.5
      vertex -25 -5 -44.5
    endloop
  endfacet
  facet normal 0 -1 -0
    outer loop
      vertex 25 -5 -44.5
      vertex -25 -5 -45.5
      vertex 25 -5 -45.5
    endloop
  endfacet
  facet normal 1 -0 0
    outer loop
      vertex 25 -5 -59.5
      vertex 25 5 -60.5
      vertex 25 5 -59.5
    endloop
  endfacet
  facet normal 1 0 0
    outer loop
      vertex 25 5 -60.5
      vertex 25 -5 -59.5
      vertex 25 -5 -60.5
    endloop
  endfacet
  facet normal -0 0 1
    outer loop
      vertex -25 5 -59.5
      vertex 25 -5 -59.5
      vertex 25 5 -59.5
    endloop
  endfacet
  facet normal 0 0 1
    outer loop
      vertex 25 -5 -59.5
      vertex -25 5 -59.5
      vertex -25 -5 -59.5
    endloop
  endfacet
  facet normal 0 0 -1
    outer loop
      vertex -25 -5 -60.5
      vertex 25 5 -60.5
      vertex 25 -5 -60.5
    endloop
  endfacet
  facet normal -0 0 -1
    outer loop
      vertex 25 5 -60.5
      vertex -25 -5 -60.5
      vertex -25 5 -60.5
    endloop
  endfacet
  facet normal -1 0 0
    outer loop
      vertex -25 -5 -60.5
      vertex -25 5 -59.5
      vertex -25 5 -60.5
    endloop
  endfacet
  facet normal -1 -0 0
    outer loop
      vertex -25 5 -59.5
      vertex -25 -5 -60.5
      vertex -25 -5 -59.5
    endloop
  endfacet
  facet normal 0 1 -0
    outer loop
      vertex 25 5 -60.5
      vertex -25 5 -59.5
      vertex 25 5 -59.5
    endloop
  endfacet
  facet normal 0 1 0
    outer loop
      vertex -25 5 -59.5
      vertex 25 5 -60.5
      vertex -25 5 -60.5
    endloop
  endfacet
  facet normal 0 -1 0
    outer loop
      vertex -25 -5 -60.5
      vertex 25 -5 -59.5
      vertex -25 -5 -59.5
    endloop
  endfacet
  facet normal 0 -1 -0
    outer loop
      vertex 25 -5 -59.5
      vertex -25 -5 -60.5
      vertex 25 -5 -60.5
    endloop
  endfacet
  facet normal 1 -0 0
    outer loop
      vertex 25 -5 -74.5
      vertex 25 5 -75.5
      vertex 25 5 -74.5
    endloop
  endfacet
  facet normal 1 0 0
    outer loop
      vertex 25 5 -75.5
      vertex 25 -5 -74.5
      vertex 25 -5 -75.5
    endloop
  endfacet
  facet normal -0 0 1
    outer loop
      vertex -25 5 -74.5
      vertex 25 -5 -74.5
      vertex 25 5 -74.5
    endloop
  endfacet
  facet normal 0 0 1
    outer loop
      vertex 25 -5 -74.5
      vertex -25 5 -74.5
      vertex -25 -5 -74.5
    endloop
  endfacet
  facet normal 0 0 -1
    outer loop
      vertex -25 -5 -75.5
      vertex 25 5 -75.5
      vertex 25 -5 -75.5
    endloop
  endfacet
  facet normal -0 0 -1
    outer loop
      vertex 25 5 -75.5
      vertex -25 -5 -75.5
      vertex -25 5 -75.5
    endloop
  endfacet
  facet normal -1 0 0
    outer loop
      vertex -25 -5 -75.5
      vertex -25 5 -74.5
      vertex -25 5 -75.5
    endloop
  endfacet
  facet normal -1 -0 0
    outer loop
      vertex -25 5 -74.5
      vertex -25 -5 -75.5
      vertex -25 -5 -74.5
    endloop
  endfacet
  facet normal 0 1 -0
    outer loop
      vertex 25 5 -75.5
      vertex -25 5 -74.5
      vertex 25 5 -74.5
    endloop
  endfacet
  facet normal 0 1 0
    outer loop
      vertex -25 5 -74.5
      vertex 25 5 -75.5
      vertex -25 5 -75.5
    endloop
  endfacet
  facet normal 0 -1 0
    outer loop
      vertex -25 -5 -75.5
      vertex 25 -5 -74.5
      vertex -25 -5 -74.5
    endloop
  endfacet
  facet normal 0 -1 -0
    outer loop
      vertex 25 -5 -74.5
      vertex -25 -5 -75.5
      vertex 25 -5 -75.5
    endloop
  endfacet
endsolid OpenSCAD_Model
