solid OpenSCAD_Model
  facet normal 1 0 0
    outer loop
      vertex 25 25 39
      vertex 25 -12.5 31
      vertex 25 25 31
    endloop
  endfacet
  facet normal 1 -0 0
    outer loop
      vertex 25 -25 39
      vertex 25 -12.5 31
      vertex 25 25 39
    endloop
  endfacet
  facet normal 1 -0 0
    outer loop
      vertex 25 -25 35
      vertex 25 -12.5 31
      vertex 25 -25 39
    endloop
  endfacet
  facet normal 1 0 0
    outer loop
      vertex 25 -12.5 31
      vertex 25 -25 35
      vertex 25 -12.5 27
    endloop
  endfacet
  facet normal 1 0 0
    outer loop
      vertex 25 -37.5 27
      vertex 25 -25 35
      vertex 25 -37.5 35
    endloop
  endfacet
  facet normal 1 0 0
    outer loop
      vertex 25 -25 35
      vertex 25 -37.5 27
      vertex 25 -12.5 27
    endloop
  endfacet
  facet normal -0 0 1
    outer loop
      vertex -25 25 39
      vertex 25 -25 39
      vertex 25 25 39
    endloop
  endfacet
  facet normal 0 0 1
    outer loop
      vertex 25 -25 39
      vertex -25 25 39
      vertex -25 -25 39
    endloop
  endfacet
  facet normal 0 0 -1
    outer loop
      vertex -25 -12.5 31
      vertex 25 25 31
      vertex 25 -12.5 31
    endloop
  endfacet
  facet normal -0 0 -1
    outer loop
      vertex 25 25 31
      vertex -25 -12.5 31
      vertex -25 25 31
    endloop
  endfacet
  facet normal -1 0 0
    outer loop
      vertex -25 -12.5 27
      vertex -25 -25 35
      vertex -25 -12.5 31
    endloop
  endfacet
  facet normal -1 0 0
    outer loop
      vertex -25 -37.5 27
      vertex -25 -25 35
      vertex -25 -12.5 27
    endloop
  endfacet
  facet normal -1 -0 0
    outer loop
      vertex -25 -25 35
      vertex -25 -37.5 27
      vertex -25 -37.5 35
    endloop
  endfacet
  facet normal -1 0 0
    outer loop
      vertex -25 -12.5 31
      vertex -25 25 39
      vertex -25 25 31
    endloop
  endfacet
  facet normal -1 0 0
    outer loop
      vertex -25 -25 39
      vertex -25 -12.5 31
      vertex -25 -25 35
    endloop
  endfacet
  facet normal -1 0 0
    outer loop
      vertex -25 -12.5 31
      vertex -25 -25 39
      vertex -25 25 39
    endloop
  endfacet
  facet normal 0 1 -0
    outer loop
      vertex 25 25 31
      vertex -25 25 39
      vertex 25 25 39
    endloop
  endfacet
  facet normal 0 1 0
    outer loop
      vertex -25 25 39
      vertex 25 25 31
      vertex -25 25 31
    endloop
  endfacet
  facet normal 0 -1 0
    outer loop
      vertex -25 -25 35
      vertex 25 -25 39
      vertex -25 -25 39
    endloop
  endfacet
  facet normal 0 -1 -0
    outer loop
      vertex 25 -25 39
      vertex -25 -25 35
      vertex 25 -25 35
    endloop
  endfacet
  facet normal -0 0 1
    outer loop
      vertex -25 -25 35
      vertex 25 -37.5 35
      vertex 25 -25 35
    endloop
  endfacet
  facet normal 0 0 1
    outer loop
      vertex 25 -37.5 35
      vertex -25 -25 35
      vertex -25 -37.5 35
    endloop
  endfacet
  facet normal 0 0 -1
    outer loop
      vertex -25 -37.5 27
      vertex 25 -12.5 27
      vertex 25 -37.5 27
    endloop
  endfacet
  facet normal -0 0 -1
    outer loop
      vertex 25 -12.5 27
      vertex -25 -37.5 27
      vertex -25 -12.5 27
    endloop
  endfacet
  facet normal 0 1 -0
    outer loop
      vertex 25 -12.5 27
      vertex -25 -12.5 31
      vertex 25 -12.5 31
    endloop
  endfacet
  facet normal 0 1 0
    outer loop
      vertex -25 -12.5 31
      vertex 25 -12.5 27
      vertex -25 -12.5 27
    endloop
  endfacet
  facet normal 0 -1 0
    outer loop
      vertex -25 -37.5 27
      vertex 25 -37.5 35
      vertex -25 -37.5 35
    endloop
  endfacet
  facet normal 0 -1 -0
    outer loop
      vertex 25 -37.5 35
      vertex -25 -37.5 27
      vertex 25 -37.5 27
    endloop
  endfacet
  facet normal 1 -0 0
    outer loop
      vertex 17.5 -17.5 25
      vertex 17.5 17.5 5
      vertex 17.5 17.5 25
    endloop
  endfacet
  facet normal 1 0 0
    outer loop
      vertex 17.5 17.5 5
      vertex 17.5 -17.5 25
      vertex 17.5 -17.5 5
    endloop
  endfacet
  facet normal -0 0 1
    outer loop
      vertex -17.5 17.5 25
      vertex 17.5 -17.5 25
      vertex 17.5 17.5 25
    endloop
  endfacet
  facet normal 0 0 1
    outer loop
      vertex 17.5 -17.5 25
      vertex -17.5 17.5 25
      vertex -17.5 -17.5 25
    endloop
  endfacet
  facet normal 0 0 -1
    outer loop
      vertex -17.5 -17.5 5
      vertex 17.5 17.5 5
      vertex 17.5 -17.5 5
    endloop
  endfacet
  facet normal -0 0 -1
    outer loop
      vertex 17.5 17.5 5
      vertex -17.5 -17.5 5
      vertex -17.5 17.5 5
    endloop
  endfacet
  facet normal -1 0 0
    outer loop
      vertex -17.5 -17.5 5
      vertex -17.5 17.5 25
      vertex -17.5 17.5 5
    endloop
  endfacet
  facet normal -1 -0 0
    outer loop
      vertex -17.5 17.5 25
      vertex -17.5 -17.5 5
      vertex -17.5 -17.5 25
    endloop
  endfacet
  facet normal 0 1 -0
    outer loop
      vertex 17.5 17.5 5
      vertex -17.5 17.5 25
      vertex 17.5 17.5 25
    endloop
  endfacet
  facet normal 0 1 0
    outer loop
      vertex -17.5 17.5 25
      vertex 17.5 17.5 5
      vertex -17.5 17.5 5
    endloop
  endfacet
  facet normal 0 -1 0
    outer loop
      vertex -17.5 -17.5 5
      vertex 17.5 -17.5 25
      vertex -17.5 -17.5 25
    endloop
  endfacet
  facet normal 0 -1 -0
    outer loop
      vertex 17.5 -17.5 25
      vertex -17.5 -17.5 5
      vertex 17.5 -17.5 5
    endloop
  endfacet
  facet normal 1 -0 0
    outer loop
      vertex 27.5 -27.5 4
      vertex 27.5 27.5 -14
      vertex 27.5 27.5 4
    endloop
  endfacet
  facet normal 1 0 0
    outer loop
      vertex 27.5 27.5 -14
      vertex 27.5 -27.5 4
      vertex 27.5 -27.5 -14
    endloop
  endfacet
  facet normal -0 0 1
    outer loop
      vertex -27.5 27.5 4
      vertex 27.5 -27.5 4
      vertex 27.5 27.5 4
    endloop
  endfacet
  facet normal 0 0 1
    outer loop
      vertex 27.5 -27.5 4
      vertex -27.5 27.5 4
      vertex -27.5 -27.5 4
    endloop
  endfacet
  facet normal 0 0 -1
    outer loop
      vertex -27.5 -27.5 -14
      vertex 27.5 27.5 -14
      vertex 27.5 -27.5 -14
    endloop
  endfacet
  facet normal -0 0 -1
    outer loop
      vertex 27.5 27.5 -14
      vertex -27.5 -27.5 -14
      vertex -27.5 27.5 -14
    endloop
  endfacet
  facet normal -1 0 0
    outer loop
      vertex -27.5 -27.5 -14
      vertex -27.5 27.5 4
      vertex -27.5 27.5 -14
    endloop
  endfacet
  facet normal -1 -0 0
    outer loop
      vertex -27.5 27.5 4
      vertex -27.5 -27.5 -14
      vertex -27.5 -27.5 4
    endloop
  endfacet
  facet normal 0 1 -0
    outer loop
      vertex 27.5 27.5 -14
      vertex -27.5 27.5 4
      vertex 27.5 27.5 4
    endloop
  endfacet
  facet normal 0 1 0
    outer loop
      vertex -27.5 27.5 4
      vertex 27.5 27.5 -14
      vertex -27.5 27.5 -14
    endloop
  endfacet
  facet normal 0 -1 0
    outer loop
      vertex -27.5 -27.5 -14
      vertex 27.5 -27.5 4
      vertex -27.5 -27.5 4
    endloop
  endfacet
  facet normal 0 -1 -0
    outer loop
      vertex 27.5 -27.5 4
      vertex -27.5 -27.5 -14
      vertex 27.5 -27.5 -14
    endloop
  endfacet
  facet normal 1 -0 0
    outer loop
      vertex 14 -14 -16
      vertex 14 14 -24
      vertex 14 14 -16
    endloop
  endfacet
  facet normal 1 0 0
    outer loop
      vertex 14 14 -24
      vertex 14 -14 -16
      vertex 14 -14 -24
    endloop
  endfacet
  facet normal -0 0 1
    outer loop
      vertex -14 14 -16
      vertex 14 -14 -16
      vertex 14 14 -16
    endloop
  endfacet
  facet normal 0 0 1
    outer loop
      vertex 14 -14 -16
      vertex -14 14 -16
      vertex -14 -14 -16
    endloop
  endfacet
  facet normal 0 0 -1
    outer loop
      vertex -8 -8 -24
      vertex 14 -14 -24
      vertex -8 -14 -24
    endloop
  endfacet
  facet normal 0 0 -1
    outer loop
      vertex 14 -14 -24
      vertex -8 -8 -24
      vertex 14 14 -24
    endloop
  endfacet
  facet normal 0 0 -1
    outer loop
      vertex -14 14 -24
      vertex -8 -8 -24
      vertex -14 -8 -24
    endloop
  endfacet
  facet normal 0 0 -1
    outer loop
      vertex -8 -8 -24
      vertex -14 14 -24
      vertex 14 14 -24
    endloop
  endfacet
  facet normal -1 0 0
    outer loop
      vertex -14 -8 -20
      vertex -14 14 -24
      vertex -14 -8 -24
    endloop
  endfacet
  facet normal -1 0 0
    outer loop
      vertex -14 14 -24
      vertex -14 -8 -20
      vertex -14 14 -16
    endloop
  endfacet
  facet normal -1 0 0
    outer loop
      vertex -14 -14 -16
      vertex -14 -8 -20
      vertex -14 -14 -20
    endloop
  endfacet
  facet normal -1 0 0
    outer loop
      vertex -14 -8 -20
      vertex -14 -14 -16
      vertex -14 14 -16
    endloop
  endfacet
  facet normal 0 1 -0
    outer loop
      vertex 14 14 -24
      vertex -14 14 -16
      vertex 14 14 -16
    endloop
  endfacet
  facet normal 0 1 0
    outer loop
      vertex -14 14 -16
      vertex 14 14 -24
      vertex -14 14 -24
    endloop
  endfacet
  facet normal 0 -1 0
    outer loop
      vertex -8 -14 -20
      vertex -14 -14 -16
      vertex -14 -14 -20
    endloop
  endfacet
  facet normal 0 -1 0
    outer loop
      vertex -14 -14 -16
      vertex -8 -14 -20
      vertex 14 -14 -16
    endloop
  endfacet
  facet normal 0 -1 0
    outer loop
      vertex 14 -14 -24
      vertex -8 -14 -20
      vertex -8 -14 -24
    endloop
  endfacet
  facet normal 0 -1 0
    outer loop
      vertex -8 -14 -20
      vertex 14 -14 -24
      vertex 14 -14 -16
    endloop
  endfacet
  facet normal -1 0 0
    outer loop
      vertex -8 -14 -24
      vertex -8 -8 -20
      vertex -8 -8 -24
    endloop
  endfacet
  facet normal -1 -0 0
    outer loop
      vertex -8 -8 -20
      vertex -8 -14 -24
      vertex -8 -14 -20
    endloop
  endfacet
  facet normal 0 0 -1
    outer loop
      vertex -14 -14 -20
      vertex -8 -8 -20
      vertex -8 -14 -20
    endloop
  endfacet
  facet normal -0 0 -1
    outer loop
      vertex -8 -8 -20
      vertex -14 -14 -20
      vertex -14 -8 -20
    endloop
  endfacet
  facet normal 0 -1 0
    outer loop
      vertex -14 -8 -24
      vertex -8 -8 -20
      vertex -14 -8 -20
    endloop
  endfacet
  facet normal 0 -1 -0
    outer loop
      vertex -8 -8 -20
      vertex -14 -8 -24
      vertex -8 -8 -24
    endloop
  endfacet
  facet normal 1 -0 0
    outer loop
      vertex 25 -25 51.5
      vertex 25 25 48.5
      vertex 25 25 51.5
    endloop
  endfacet
  facet normal 1 0 0
    outer loop
      vertex 25 25 48.5
      vertex 25 -25 51.5
      vertex 25 -25 48.5
    endloop
  endfacet
  facet normal -0 0 1
    outer loop
      vertex -25 25 51.5
      vertex 25 -25 51.5
      vertex 25 25 51.5
    endloop
  endfacet
  facet normal 0 0 1
    outer loop
      vertex 25 -25 51.5
      vertex -25 25 51.5
      vertex -25 -25 51.5
    endloop
  endfacet
  facet normal 0 0 -1
    outer loop
      vertex -25 -25 48.5
      vertex 25 25 48.5
      vertex 25 -25 48.5
    endloop
  endfacet
  facet normal -0 0 -1
    outer loop
      vertex 25 25 48.5
      vertex -25 -25 48.5
      vertex -25 25 48.5
    endloop
  endfacet
  facet normal -1 0 0
    outer loop
      vertex -25 -25 48.5
      vertex -25 25 51.5
      vertex -25 25 48.5
    endloop
  endfacet
  facet normal -1 -0 0
    outer loop
      vertex -25 25 51.5
      vertex -25 -25 48.5
      vertex -25 -25 51.5
    endloop
  endfacet
  facet normal 0 1 -0
    outer loop
      vertex 25 25 48.5
      vertex -25 25 51.5
      vertex 25 25 51.5
    endloop
  endfacet
  facet normal 0 1 0
    outer loop
      vertex -25 25 51.5
      vertex 25 25 48.5
      vertex -25 25 48.5
    endloop
  endfacet
  facet normal 0 -1 0
    outer loop
      vertex -25 -25 48.5
      vertex 25 -25 51.5
      vertex -25 -25 51.5
    endloop
  endfacet
  facet normal 0 -1 -0
    outer loop
      vertex 25 -25 51.5
      vertex -25 -25 48.5
      vertex 25 -25 48.5
    endloop
  endfacet
endsolid OpenSCAD_Model
