solid OpenSCAD_Model
  facet normal 1 -0 0
    outer loop
      vertex 20 -10 65
      vertex 20 10 45
      vertex 20 10 65
    endloop
  endfacet
  facet normal 1 0 0
    outer loop
      vertex 20 10 45
      vertex 20 -10 65
      vertex 20 -10 45
    endloop
  endfacet
  facet normal -0 0 1
    outer loop
      vertex -20 10 65
      vertex 20 -10 65
      vertex 20 10 65
    endloop
  endfacet
  facet normal 0 0 1
    outer loop
      vertex 20 -10 65
      vertex -20 10 65
      vertex -20 -10 65
    endloop
  endfacet
  facet normal 0 0 -1
    outer loop
      vertex -20 -10 45
      vertex 20 10 45
      vertex 20 -10 45
    endloop
  endfacet
  facet normal -0 0 -1
    outer loop
      vertex 20 10 45
      vertex -20 -10 45
      vertex -20 10 45
    endloop
  endfacet
  facet normal -1 0 0
    outer loop
      vertex -20 -10 45
      vertex -20 10 65
      vertex -20 10 45
    endloop
  endfacet
  facet normal -1 -0 0
    outer loop
      vertex -20 10 65
      vertex -20 -10 45
      vertex -20 -10 65
    endloop
  endfacet
  facet normal 0 1 -0
    outer loop
      vertex 20 10 45
      vertex -20 10 65
      vertex 20 10 65
    endloop
  endfacet
  facet normal 0 1 0
    outer loop
      vertex -20 10 65
      vertex 20 10 45
      vertex -20 10 45
    endloop
  endfacet
  facet normal 0 -1 0
    outer loop
      vertex -20 -10 45
      vertex 20 -10 65
      vertex -20 -10 65
    endloop
  endfacet
  facet normal 0 -1 -0
    outer loop
      vertex 20 -10 65
      vertex -20 -10 45
      vertex 20 -10 45
    endloop
  endfacet
  facet normal 1 -0 0
    outer loop
      vertex 20 -10 43
      vertex 20 10 23
      vertex 20 10 43
    endloop
  endfacet
  facet normal 1 0 0
    outer loop
      vertex 20 10 23
      vertex 20 -10 43
      vertex 20 -10 23
    endloop
  endfacet
  facet normal -0 0 1
    outer loop
      vertex -20 10 43
      vertex 20 -10 43
      vertex 20 10 43
    endloop
  endfacet
  facet normal 0 0 1
    outer loop
      vertex 20 -10 43
      vertex -20 10 43
      vertex -20 -10 43
    endloop
  endfacet
  facet normal 0 0 -1
    outer loop
      vertex -20 -10 23
      vertex 20 10 23
      vertex 20 -10 23
    endloop
  endfacet
  facet normal -0 0 -1
    outer loop
      vertex 20 10 23
      vertex -20 -10 23
      vertex -20 10 23
    endloop
  endfacet
  facet normal -1 0 0
    outer loop
      vertex -20 -10 23
      vertex -20 10 43
      vertex -20 10 23
    endloop
  endfacet
  facet normal -1 -0 0
    outer loop
      vertex -20 10 43
      vertex -20 -10 23
      vertex -20 -10 43
    endloop
  endfacet
  facet normal 0 1 -0
    outer loop
      vertex 20 10 23
      vertex -20 10 43
      vertex 20 10 43
    endloop
  endfacet
  facet normal 0 1 0
    outer loop
      vertex -20 10 43
      vertex 20 10 23
      vertex -20 10 23
    endloop
  endfacet
  facet normal 0 -1 0
    outer loop
      vertex -20 -10 23
      vertex 20 -10 43
      vertex -20 -10 43
    endloop
  endfacet
  facet normal 0 -1 -0
    outer loop
      vertex 20 -10 43
      vertex -20 -10 23
      vertex 20 -10 23
    endloop
  endfacet
  facet normal 1 -0 0
    outer loop
      vertex 20 -10 21
      vertex 20 10 1
      vertex 20 10 21
    endloop
  endfacet
  facet normal 1 0 0
    outer loop
      vertex 20 10 1
      vertex 20 -10 21
      vertex 20 -10 1
    endloop
  endfacet
  facet normal -0 0 1
    outer loop
      vertex -20 10 21
      vertex 20 -10 21
      vertex 20 10 21
    endloop
  endfacet
  facet normal 0 0 1
    outer loop
      vertex 20 -10 21
      vertex -20 10 21
      vertex -20 -10 21
    endloop
  endfacet
  facet normal 0 0 -1
    outer loop
      vertex -20 -10 1
      vertex 20 10 1
      vertex 20 -10 1
    endloop
  endfacet
  facet normal -0 0 -1
    outer loop
      vertex 20 10 1
      vertex -20 -10 1
      vertex -20 10 1
    endloop
  endfacet
  facet normal -1 0 0
    outer loop
      vertex -20 -10 1
      vertex -20 10 21
      vertex -20 10 1
    endloop
  endfacet
  facet normal -1 -0 0
    outer loop
      vertex -20 10 21
      vertex -20 -10 1
      vertex -20 -10 21
    endloop
  endfacet
  facet normal 0 1 -0
    outer loop
      vertex 20 10 1
      vertex -20 10 21
      vertex 20 10 21
    endloop
  endfacet
  facet normal 0 1 0
    outer loop
      vertex -20 10 21
      vertex 20 10 1
      vertex -20 10 1
    endloop
  endfacet
  facet normal 0 -1 0
    outer loop
      vertex -20 -10 1
      vertex 20 -10 21
      vertex -20 -10 21
    endloop
  endfacet
  facet normal 0 -1 -0
    outer loop
      vertex 20 -10 21
      vertex -20 -10 1
      vertex 20 -10 1
    endloop
  endfacet
  facet normal 1 -0 0
    outer loop
      vertex 20 -10 -1
      vertex 20 10 -21
      vertex 20 10 -1
    endloop
  endfacet
  facet normal 1 0 0
    outer loop
      vertex 20 10 -21
      vertex 20 -10 -1
      vertex 20 -10 -21
    endloop
  endfacet
  facet normal -0 0 1
    outer loop
      vertex -20 10 -1
      vertex 20 -10 -1
      vertex 20 10 -1
    endloop
  endfacet
  facet normal 0 0 1
    outer loop
      vertex 20 -10 -1
      vertex -20 10 -1
      vertex -20 -10 -1
    endloop
  endfacet
  facet normal 0 0 -1
    outer loop
      vertex -20 -10 -21
      vertex 20 10 -21
      vertex 20 -10 -21
    endloop
  endfacet
  facet normal -0 0 -1
    outer loop
      vertex 20 10 -21
      vertex -20 -10 -21
      vertex -20 10 -21
    endloop
  endfacet
  facet normal -1 0 0
    outer loop
      vertex -20 -10 -21
      vertex -20 10 -1
      vertex -20 10 -21
    endloop
  endfacet
  facet normal -1 -0 0
    outer loop
      vertex -20 10 -1
      vertex -20 -10 -21
      vertex -20 -10 -1
    endloop
  endfacet
  facet normal 0 1 -0
    outer loop
      vertex 20 10 -21
      vertex -20 10 -1
      vertex 20 10 -1
    endloop
  endfacet
  facet normal 0 1 0
    outer loop
      vertex -20 10 -1
      vertex 20 10 -21
      vertex -20 10 -21
    endloop
  endfacet
  facet normal 0 -1 0
    outer loop
      vertex -20 -10 -21
      vertex 20 -10 -1
      vertex -20 -10 -1
    endloop
  endfacet
  facet normal 0 -1 -0
    outer loop
      vertex 20 -10 -1
      vertex -20 -10 -21
      vertex 20 -10 -21
    endloop
  endfacet
  facet normal 1 -0 0
    outer loop
      vertex 20 -10 -23
      vertex 20 10 -43
      vertex 20 10 -23
    endloop
  endfacet
  facet normal 1 0 0
    outer loop
      vertex 20 10 -43
      vertex 20 -10 -23
      vertex 20 -10 -43
    endloop
  endfacet
  facet normal -0 0 1
    outer loop
      vertex -20 10 -23
      vertex 20 -10 -23
      vertex 20 10 -23
    endloop
  endfacet
  facet normal 0 0 1
    outer loop
      vertex 20 -10 -23
      vertex -20 10 -23
      vertex -20 -10 -23
    endloop
  endfacet
  facet normal 0 0 -1
    outer loop
      vertex -20 -10 -43
      vertex 20 10 -43
      vertex 20 -10 -43
    endloop
  endfacet
  facet normal -0 0 -1
    outer loop
      vertex 20 10 -43
      vertex -20 -10 -43
      vertex -20 10 -43
    endloop
  endfacet
  facet normal -1 0 0
    outer loop
      vertex -20 -10 -43
      vertex -20 10 -23
      vertex -20 10 -43
    endloop
  endfacet
  facet normal -1 -0 0
    outer loop
      vertex -20 10 -23
      vertex -20 -10 -43
      vertex -20 -10 -23
    endloop
  endfacet
  facet normal 0 1 -0
    outer loop
      vertex 20 10 -43
      vertex -20 10 -23
      vertex 20 10 -23
    endloop
  endfacet
  facet normal 0 1 0
    outer loop
      vertex -20 10 -23
      vertex 20 10 -43
      vertex -20 10 -43
    endloop
  endfacet
  facet normal 0 -1 0
    outer loop
      vertex -20 -10 -43
      vertex 20 -10 -23
      vertex -20 -10 -23
    endloop
  endfacet
  facet normal 0 -1 -0
    outer loop
      vertex 20 -10 -23
      vertex -20 -10 -43
      vertex 20 -10 -43
    endloop
  endfacet
  facet normal 1 -0 0
    outer loop
      vertex 20 -10 -45
      vertex 20 10 -65
      vertex 20 10 -45
    endloop
  endfacet
  facet normal 1 0 0
    outer loop
      vertex 20 10 -65
      vertex 20 -10 -45
      vertex 20 -10 -65
    endloop
  endfacet
  facet normal -0 0 1
    outer loop
      vertex -20 10 -45
      vertex 20 -10 -45
      vertex 20 10 -45
    endloop
  endfacet
  facet normal 0 0 1
    outer loop
      vertex 20 -10 -45
      vertex -20 10 -45
      vertex -20 -10 -45
    endloop
  endfacet
  facet normal 0 0 -1
    outer loop
      vertex -20 -10 -65
      vertex 20 10 -65
      vertex 20 -10 -65
    endloop
  endfacet
  facet normal -0 0 -1
    outer loop
      vertex 20 10 -65
      vertex -20 -10 -65
      vertex -20 10 -65
    endloop
  endfacet
  facet normal -1 0 0
    outer loop
      vertex -20 -10 -65
      vertex -20 10 -45
      vertex -20 10 -65
    endloop
  endfacet
  facet normal -1 -0 0
    outer loop
      vertex -20 10 -45
      vertex -20 -10 -65
      vertex -20 -10 -45
    endloop
  endfacet
  facet normal 0 1 -0
    outer loop
      vertex 20 10 -65
      vertex -20 10 -45
      vertex 20 10 -45
    endloop
  endfacet
  facet normal 0 1 0
    outer loop
      vertex -20 10 -45
      vertex 20 10 -65
      vertex -20 10 -65
    endloop
  endfacet
  facet normal 0 -1 0
    outer loop
      vertex -20 -10 -65
      vertex 20 -10 -45
      vertex -20 -10 -45
    endloop
  endfacet
  facet normal 0 -1 -0
    outer loop
      vertex 20 -10 -45
      vertex -20 -10 -65
      vertex 20 -10 -65
    endloop
  endfacet
endsolid OpenSCAD_Model
