solid OpenSCAD_Model
  facet normal 1 0 0
    outer loop
      vertex 10 5 15
      vertex 10 -5 15
      vertex 10 5 10
    endloop
  endfacet
  facet normal 1 -0 0
    outer loop
      vertex 10 5 10
      vertex 10 10 0
      vertex 10 10 10
    endloop
  endfacet
  facet normal 1 0 0
    outer loop
      vertex 10 -5 10
      vertex 10 5 10
      vertex 10 -5 15
    endloop
  endfacet
  facet normal 1 0 0
    outer loop
      vertex 10 5 10
      vertex 10 -5 10
      vertex 10 10 0
    endloop
  endfacet
  facet normal 1 0 0
    outer loop
      vertex 10 -10 0
      vertex 10 -5 10
      vertex 10 -10 10
    endloop
  endfacet
  facet normal 1 0 0
    outer loop
      vertex 10 -5 10
      vertex 10 -10 0
      vertex 10 10 0
    endloop
  endfacet
  facet normal -0 0 1
    outer loop
      vertex -10 5 15
      vertex -5 0 15
      vertex -5 5 15
    endloop
  endfacet
  facet normal 0 0 1
    outer loop
      vertex -10 -5 15
      vertex -5 0 15
      vertex -10 5 15
    endloop
  endfacet
  facet normal 0 0 1
    outer loop
      vertex -5 0 15
      vertex -10 -5 15
      vertex -5 -5 15
    endloop
  endfacet
  facet normal 0 0 1
    outer loop
      vertex 5 0 15
      vertex 10 5 15
      vertex 5 5 15
    endloop
  endfacet
  facet normal 0 0 1
    outer loop
      vertex 10 5 15
      vertex 5 0 15
      vertex 10 -5 15
    endloop
  endfacet
  facet normal 0 0 1
    outer loop
      vertex 10 -5 15
      vertex 5 0 15
      vertex 5 -5 15
    endloop
  endfacet
  facet normal 0 0 -1
    outer loop
      vertex -5 0 15
      vertex 5 5 15
      vertex 5 0 15
    endloop
  endfacet
  facet normal -0 0 -1
    outer loop
      vertex 5 5 15
      vertex -5 0 15
      vertex -5 5 15
    endloop
  endfacet
  facet normal -1 0 0
    outer loop
      vertex -10 10 0
      vertex -10 5 10
      vertex -10 10 10
    endloop
  endfacet
  facet normal -1 0 0
    outer loop
      vertex -10 5 10
      vertex -10 -5 10
      vertex -10 5 15
    endloop
  endfacet
  facet normal -1 0 0
    outer loop
      vertex -10 10 0
      vertex -10 -5 10
      vertex -10 5 10
    endloop
  endfacet
  facet normal -1 0 0
    outer loop
      vertex -10 -10 0
      vertex -10 -5 10
      vertex -10 10 0
    endloop
  endfacet
  facet normal -1 -0 0
    outer loop
      vertex -10 -5 10
      vertex -10 -10 0
      vertex -10 -10 10
    endloop
  endfacet
  facet normal -1 -0 0
    outer loop
      vertex -10 5 15
      vertex -10 -5 10
      vertex -10 -5 15
    endloop
  endfacet
  facet normal 0 1 -0
    outer loop
      vertex -5 5 10
      vertex -10 5 15
      vertex -5 5 15
    endloop
  endfacet
  facet normal 0 1 0
    outer loop
      vertex -10 5 15
      vertex -5 5 10
      vertex -10 5 10
    endloop
  endfacet
  facet normal 0 1 -0
    outer loop
      vertex 10 5 10
      vertex 5 5 15
      vertex 10 5 15
    endloop
  endfacet
  facet normal 0 1 0
    outer loop
      vertex 5 5 15
      vertex 10 5 10
      vertex 5 5 10
    endloop
  endfacet
  facet normal 0 -1 0
    outer loop
      vertex -10 -5 10
      vertex -5 -5 15
      vertex -10 -5 15
    endloop
  endfacet
  facet normal 0 -1 -0
    outer loop
      vertex -5 -5 15
      vertex -10 -5 10
      vertex -5 -5 10
    endloop
  endfacet
  facet normal 0 -1 0
    outer loop
      vertex 5 -5 10
      vertex 10 -5 15
      vertex 5 -5 15
    endloop
  endfacet
  facet normal 0 -1 -0
    outer loop
      vertex 10 -5 15
      vertex 5 -5 10
      vertex 10 -5 10
    endloop
  endfacet
  facet normal 1 0 0
    outer loop
      vertex 5 10 25
      vertex 5 5 15
      vertex 5 10 10
    endloop
  endfacet
  facet normal 1 -0 0
    outer loop
      vertex 5 0 25
      vertex 5 5 15
      vertex 5 10 25
    endloop
  endfacet
  facet normal 1 0 0
    outer loop
      vertex 5 5 15
      vertex 5 0 25
      vertex 5 0 15
    endloop
  endfacet
  facet normal 1 0 0
    outer loop
      vertex 5 10 10
      vertex 5 5 15
      vertex 5 5 10
    endloop
  endfacet
  facet normal -0 0 1
    outer loop
      vertex -5 10 25
      vertex 5 0 25
      vertex 5 10 25
    endloop
  endfacet
  facet normal 0 0 1
    outer loop
      vertex 5 0 25
      vertex -5 10 25
      vertex -5 0 25
    endloop
  endfacet
  facet normal -1 0 0
    outer loop
      vertex -5 5 15
      vertex -5 10 10
      vertex -5 5 10
    endloop
  endfacet
  facet normal -1 0 0
    outer loop
      vertex -5 10 10
      vertex -5 5 15
      vertex -5 10 25
    endloop
  endfacet
  facet normal -1 0 0
    outer loop
      vertex -5 0 25
      vertex -5 5 15
      vertex -5 0 15
    endloop
  endfacet
  facet normal -1 0 0
    outer loop
      vertex -5 5 15
      vertex -5 0 25
      vertex -5 10 25
    endloop
  endfacet
  facet normal 0 1 -0
    outer loop
      vertex 10 10 0
      vertex 5 10 10
      vertex 10 10 10
    endloop
  endfacet
  facet normal 0 1 0
    outer loop
      vertex 5 10 10
      vertex 10 10 0
      vertex -5 10 10
    endloop
  endfacet
  facet normal 0 1 0
    outer loop
      vertex -10 10 0
      vertex -5 10 10
      vertex 10 10 0
    endloop
  endfacet
  facet normal 0 1 0
    outer loop
      vertex -5 10 10
      vertex -10 10 0
      vertex -10 10 10
    endloop
  endfacet
  facet normal 0 1 -0
    outer loop
      vertex 5 10 10
      vertex -5 10 25
      vertex 5 10 25
    endloop
  endfacet
  facet normal 0 1 0
    outer loop
      vertex -5 10 25
      vertex 5 10 10
      vertex -5 10 10
    endloop
  endfacet
  facet normal 0 -1 0
    outer loop
      vertex -5 0 15
      vertex 5 0 25
      vertex -5 0 25
    endloop
  endfacet
  facet normal 0 -1 -0
    outer loop
      vertex 5 0 25
      vertex -5 0 15
      vertex 5 0 15
    endloop
  endfacet
  facet normal -1 0 0
    outer loop
      vertex 5 5 10
      vertex 5 0 15
      vertex 5 5 15
    endloop
  endfacet
  facet normal -1 0 0
    outer loop
      vertex 5 -5 10
      vertex 5 0 15
      vertex 5 5 10
    endloop
  endfacet
  facet normal -1 -0 0
    outer loop
      vertex 5 0 15
      vertex 5 -5 10
      vertex 5 -5 15
    endloop
  endfacet
  facet normal 1 -0 0
    outer loop
      vertex -5 0 15
      vertex -5 5 10
      vertex -5 5 15
    endloop
  endfacet
  facet normal 1 0 0
    outer loop
      vertex -5 -5 10
      vertex -5 0 15
      vertex -5 -5 15
    endloop
  endfacet
  facet normal 1 0 0
    outer loop
      vertex -5 0 15
      vertex -5 -5 10
      vertex -5 5 10
    endloop
  endfacet
  facet normal 0 -1 0
    outer loop
      vertex -5 5 10
      vertex 5 5 15
      vertex -5 5 15
    endloop
  endfacet
  facet normal 0 -1 -0
    outer loop
      vertex 5 5 15
      vertex -5 5 10
      vertex 5 5 10
    endloop
  endfacet
  facet normal -0 0 1
    outer loop
      vertex -10 10 10
      vertex -5 5 10
      vertex -5 10 10
    endloop
  endfacet
  facet normal 0 0 1
    outer loop
      vertex -5 5 10
      vertex -10 10 10
      vertex -10 5 10
    endloop
  endfacet
  facet normal -0 0 1
    outer loop
      vertex 5 10 10
      vertex 10 5 10
      vertex 10 10 10
    endloop
  endfacet
  facet normal 0 0 1
    outer loop
      vertex 10 5 10
      vertex 5 10 10
      vertex 5 5 10
    endloop
  endfacet
  facet normal 0 0 1
    outer loop
      vertex 5 5 10
      vertex -5 5 10
      vertex 5 -5 10
    endloop
  endfacet
  facet normal -0 0 1
    outer loop
      vertex 5 -5 10
      vertex 10 -10 10
      vertex 10 -5 10
    endloop
  endfacet
  facet normal 0 0 1
    outer loop
      vertex -5 -5 10
      vertex 5 -5 10
      vertex -5 5 10
    endloop
  endfacet
  facet normal 0 0 1
    outer loop
      vertex 5 -5 10
      vertex -5 -5 10
      vertex 10 -10 10
    endloop
  endfacet
  facet normal 0 0 1
    outer loop
      vertex -10 -10 10
      vertex -5 -5 10
      vertex -10 -5 10
    endloop
  endfacet
  facet normal 0 0 1
    outer loop
      vertex -5 -5 10
      vertex -10 -10 10
      vertex 10 -10 10
    endloop
  endfacet
  facet normal 0 0 -1
    outer loop
      vertex -10 -10 0
      vertex 10 10 0
      vertex 10 -10 0
    endloop
  endfacet
  facet normal -0 0 -1
    outer loop
      vertex 10 10 0
      vertex -10 -10 0
      vertex -10 10 0
    endloop
  endfacet
  facet normal 0 -1 0
    outer loop
      vertex -10 -10 0
      vertex 10 -10 10
      vertex -10 -10 10
    endloop
  endfacet
  facet normal 0 -1 -0
    outer loop
      vertex 10 -10 10
      vertex -10 -10 0
      vertex 10 -10 0
    endloop
  endfacet
endsolid OpenSCAD_Model
