solid OpenSCAD_Model
  facet normal 0.980786 -0.195089 0
    outer loop
      vertex -25 -10 10
      vertex -24.6194 -8.08658 -10
      vertex -24.6194 -8.08658 10
    endloop
  endfacet
  facet normal 0.980786 -0.195089 0
    outer loop
      vertex -24.6194 -8.08658 -10
      vertex -25 -10 10
      vertex -25 -10 -10
    endloop
  endfacet
  facet normal -0.83146 -0.555585 0
    outer loop
      vertex -15.3806 -8.08658 -10
      vertex -16.4645 -6.46447 10
      vertex -16.4645 -6.46447 -10
    endloop
  endfacet
  facet normal -0.83146 -0.555585 0
    outer loop
      vertex -16.4645 -6.46447 10
      vertex -15.3806 -8.08658 -10
      vertex -15.3806 -8.08658 10
    endloop
  endfacet
  facet normal -0.980786 -0.195089 0
    outer loop
      vertex -15 -10 -10
      vertex -15.3806 -8.08658 10
      vertex -15.3806 -8.08658 -10
    endloop
  endfacet
  facet normal -0.980786 -0.195089 0
    outer loop
      vertex -15.3806 -8.08658 10
      vertex -15 -10 -10
      vertex -15 -10 10
    endloop
  endfacet
  facet normal -0.555576 -0.831465 0
    outer loop
      vertex -18.0866 -5.3806 -10
      vertex -16.4645 -6.46447 10
      vertex -18.0866 -5.3806 10
    endloop
  endfacet
  facet normal -0.555576 -0.831465 -0
    outer loop
      vertex -16.4645 -6.46447 10
      vertex -18.0866 -5.3806 -10
      vertex -16.4645 -6.46447 -10
    endloop
  endfacet
  facet normal -0.195091 0.980785 0
    outer loop
      vertex -18.0866 -14.6194 -10
      vertex -20 -15 10
      vertex -18.0866 -14.6194 10
    endloop
  endfacet
  facet normal -0.195091 0.980785 0
    outer loop
      vertex -20 -15 10
      vertex -18.0866 -14.6194 -10
      vertex -20 -15 -10
    endloop
  endfacet
  facet normal 0.195091 -0.980785 0
    outer loop
      vertex -21.9134 -5.3806 -10
      vertex -20 -5 10
      vertex -21.9134 -5.3806 10
    endloop
  endfacet
  facet normal 0.195091 -0.980785 0
    outer loop
      vertex -20 -5 10
      vertex -21.9134 -5.3806 -10
      vertex -20 -5 -10
    endloop
  endfacet
  facet normal 0.555576 -0.831465 0
    outer loop
      vertex -23.5355 -6.46447 -10
      vertex -21.9134 -5.3806 10
      vertex -23.5355 -6.46447 10
    endloop
  endfacet
  facet normal 0.555576 -0.831465 0
    outer loop
      vertex -21.9134 -5.3806 10
      vertex -23.5355 -6.46447 -10
      vertex -21.9134 -5.3806 -10
    endloop
  endfacet
  facet normal 0.83146 -0.555585 0
    outer loop
      vertex -24.6194 -8.08658 10
      vertex -23.5355 -6.46447 -10
      vertex -23.5355 -6.46447 10
    endloop
  endfacet
  facet normal 0.83146 -0.555585 0
    outer loop
      vertex -23.5355 -6.46447 -10
      vertex -24.6194 -8.08658 10
      vertex -24.6194 -8.08658 -10
    endloop
  endfacet
  facet normal 0.195091 0.980785 -0
    outer loop
      vertex -20 -15 -10
      vertex -21.9134 -14.6194 10
      vertex -20 -15 10
    endloop
  endfacet
  facet normal 0.195091 0.980785 0
    outer loop
      vertex -21.9134 -14.6194 10
      vertex -20 -15 -10
      vertex -21.9134 -14.6194 -10
    endloop
  endfacet
  facet normal -0.195091 -0.980785 0
    outer loop
      vertex -20 -5 -10
      vertex -18.0866 -5.3806 10
      vertex -20 -5 10
    endloop
  endfacet
  facet normal -0.195091 -0.980785 -0
    outer loop
      vertex -18.0866 -5.3806 10
      vertex -20 -5 -10
      vertex -18.0866 -5.3806 -10
    endloop
  endfacet
  facet normal 0.831458 0.555587 0
    outer loop
      vertex -23.5355 -13.5355 10
      vertex -24.6194 -11.9134 -10
      vertex -24.6194 -11.9134 10
    endloop
  endfacet
  facet normal 0.831458 0.555587 0
    outer loop
      vertex -24.6194 -11.9134 -10
      vertex -23.5355 -13.5355 10
      vertex -23.5355 -13.5355 -10
    endloop
  endfacet
  facet normal -0.980785 0.195091 0
    outer loop
      vertex -15.3806 -11.9134 -10
      vertex -15 -10 10
      vertex -15 -10 -10
    endloop
  endfacet
  facet normal -0.980785 0.195091 0
    outer loop
      vertex -15 -10 10
      vertex -15.3806 -11.9134 -10
      vertex -15.3806 -11.9134 10
    endloop
  endfacet
  facet normal -0.555587 0.831458 0
    outer loop
      vertex -16.4645 -13.5355 -10
      vertex -18.0866 -14.6194 10
      vertex -16.4645 -13.5355 10
    endloop
  endfacet
  facet normal -0.555587 0.831458 0
    outer loop
      vertex -18.0866 -14.6194 10
      vertex -16.4645 -13.5355 -10
      vertex -18.0866 -14.6194 -10
    endloop
  endfacet
  facet normal -0.831458 0.555587 0
    outer loop
      vertex -16.4645 -13.5355 -10
      vertex -15.3806 -11.9134 10
      vertex -15.3806 -11.9134 -10
    endloop
  endfacet
  facet normal -0.831458 0.555587 0
    outer loop
      vertex -15.3806 -11.9134 10
      vertex -16.4645 -13.5355 -10
      vertex -16.4645 -13.5355 10
    endloop
  endfacet
  facet normal 0.980785 0.195091 0
    outer loop
      vertex -24.6194 -11.9134 10
      vertex -25 -10 -10
      vertex -25 -10 10
    endloop
  endfacet
  facet normal 0.980785 0.195091 0
    outer loop
      vertex -25 -10 -10
      vertex -24.6194 -11.9134 10
      vertex -24.6194 -11.9134 -10
    endloop
  endfacet
  facet normal 0.555587 0.831458 -0
    outer loop
      vertex -21.9134 -14.6194 -10
      vertex -23.5355 -13.5355 10
      vertex -21.9134 -14.6194 10
    endloop
  endfacet
  facet normal 0.555587 0.831458 0
    outer loop
      vertex -23.5355 -13.5355 10
      vertex -21.9134 -14.6194 -10
      vertex -23.5355 -13.5355 -10
    endloop
  endfacet
  facet normal 0.980785 -0.195091 0
    outer loop
      vertex -25 10 10
      vertex -24.6194 11.9134 -10
      vertex -24.6194 11.9134 10
    endloop
  endfacet
  facet normal 0.980785 -0.195091 0
    outer loop
      vertex -24.6194 11.9134 -10
      vertex -25 10 10
      vertex -25 10 -10
    endloop
  endfacet
  facet normal -0.831458 -0.555587 0
    outer loop
      vertex -15.3806 11.9134 -10
      vertex -16.4645 13.5355 10
      vertex -16.4645 13.5355 -10
    endloop
  endfacet
  facet normal -0.831458 -0.555587 0
    outer loop
      vertex -16.4645 13.5355 10
      vertex -15.3806 11.9134 -10
      vertex -15.3806 11.9134 10
    endloop
  endfacet
  facet normal -0.980785 -0.195091 0
    outer loop
      vertex -15 10 -10
      vertex -15.3806 11.9134 10
      vertex -15.3806 11.9134 -10
    endloop
  endfacet
  facet normal -0.980785 -0.195091 0
    outer loop
      vertex -15.3806 11.9134 10
      vertex -15 10 -10
      vertex -15 10 10
    endloop
  endfacet
  facet normal 0.195091 0.980785 -0
    outer loop
      vertex -20 5 -10
      vertex -21.9134 5.3806 10
      vertex -20 5 10
    endloop
  endfacet
  facet normal 0.195091 0.980785 0
    outer loop
      vertex -21.9134 5.3806 10
      vertex -20 5 -10
      vertex -21.9134 5.3806 -10
    endloop
  endfacet
  facet normal -0.555576 0.831465 0
    outer loop
      vertex -16.4645 6.46447 -10
      vertex -18.0866 5.3806 10
      vertex -16.4645 6.46447 10
    endloop
  endfacet
  facet normal -0.555576 0.831465 0
    outer loop
      vertex -18.0866 5.3806 10
      vertex -16.4645 6.46447 -10
      vertex -18.0866 5.3806 -10
    endloop
  endfacet
  facet normal 0.555587 -0.831458 0
    outer loop
      vertex -23.5355 13.5355 -10
      vertex -21.9134 14.6194 10
      vertex -23.5355 13.5355 10
    endloop
  endfacet
  facet normal 0.555587 -0.831458 0
    outer loop
      vertex -21.9134 14.6194 10
      vertex -23.5355 13.5355 -10
      vertex -21.9134 14.6194 -10
    endloop
  endfacet
  facet normal -0.980786 0.195089 0
    outer loop
      vertex -15.3806 8.08658 -10
      vertex -15 10 10
      vertex -15 10 -10
    endloop
  endfacet
  facet normal -0.980786 0.195089 0
    outer loop
      vertex -15 10 10
      vertex -15.3806 8.08658 -10
      vertex -15.3806 8.08658 10
    endloop
  endfacet
  facet normal -0.195091 0.980785 0
    outer loop
      vertex -18.0866 5.3806 -10
      vertex -20 5 10
      vertex -18.0866 5.3806 10
    endloop
  endfacet
  facet normal -0.195091 0.980785 0
    outer loop
      vertex -20 5 10
      vertex -18.0866 5.3806 -10
      vertex -20 5 -10
    endloop
  endfacet
  facet normal -0.83146 0.555585 0
    outer loop
      vertex -16.4645 6.46447 -10
      vertex -15.3806 8.08658 10
      vertex -15.3806 8.08658 -10
    endloop
  endfacet
  facet normal -0.83146 0.555585 0
    outer loop
      vertex -15.3806 8.08658 10
      vertex -16.4645 6.46447 -10
      vertex -16.4645 6.46447 10
    endloop
  endfacet
  facet normal -0.195091 -0.980785 0
    outer loop
      vertex -20 15 -10
      vertex -18.0866 14.6194 10
      vertex -20 15 10
    endloop
  endfacet
  facet normal -0.195091 -0.980785 -0
    outer loop
      vertex -18.0866 14.6194 10
      vertex -20 15 -10
      vertex -18.0866 14.6194 -10
    endloop
  endfacet
  facet normal 0.195091 -0.980785 0
    outer loop
      vertex -21.9134 14.6194 -10
      vertex -20 15 10
      vertex -21.9134 14.6194 10
    endloop
  endfacet
  facet normal 0.195091 -0.980785 0
    outer loop
      vertex -20 15 10
      vertex -21.9134 14.6194 -10
      vertex -20 15 -10
    endloop
  endfacet
  facet normal 0.831458 -0.555587 0
    outer loop
      vertex -24.6194 11.9134 10
      vertex -23.5355 13.5355 -10
      vertex -23.5355 13.5355 10
    endloop
  endfacet
  facet normal 0.831458 -0.555587 0
    outer loop
      vertex -23.5355 13.5355 -10
      vertex -24.6194 11.9134 10
      vertex -24.6194 11.9134 -10
    endloop
  endfacet
  facet normal -0.555587 -0.831458 0
    outer loop
      vertex -18.0866 14.6194 -10
      vertex -16.4645 13.5355 10
      vertex -18.0866 14.6194 10
    endloop
  endfacet
  facet normal -0.555587 -0.831458 -0
    outer loop
      vertex -16.4645 13.5355 10
      vertex -18.0866 14.6194 -10
      vertex -16.4645 13.5355 -10
    endloop
  endfacet
  facet normal 0.83146 0.555585 0
    outer loop
      vertex -23.5355 6.46447 10
      vertex -24.6194 8.08658 -10
      vertex -24.6194 8.08658 10
    endloop
  endfacet
  facet normal 0.83146 0.555585 0
    outer loop
      vertex -24.6194 8.08658 -10
      vertex -23.5355 6.46447 10
      vertex -23.5355 6.46447 -10
    endloop
  endfacet
  facet normal 0.980786 0.195089 0
    outer loop
      vertex -24.6194 8.08658 10
      vertex -25 10 -10
      vertex -25 10 10
    endloop
  endfacet
  facet normal 0.980786 0.195089 0
    outer loop
      vertex -25 10 -10
      vertex -24.6194 8.08658 10
      vertex -24.6194 8.08658 -10
    endloop
  endfacet
  facet normal 0.555576 0.831465 -0
    outer loop
      vertex -21.9134 5.3806 -10
      vertex -23.5355 6.46447 10
      vertex -21.9134 5.3806 10
    endloop
  endfacet
  facet normal 0.555576 0.831465 0
    outer loop
      vertex -23.5355 6.46447 10
      vertex -21.9134 5.3806 -10
      vertex -23.5355 6.46447 -10
    endloop
  endfacet
  facet normal 0.195091 0.980785 -0
    outer loop
      vertex 20 -15 -10
      vertex 18.0866 -14.6194 10
      vertex 20 -15 10
    endloop
  endfacet
  facet normal 0.195091 0.980785 0
    outer loop
      vertex 18.0866 -14.6194 10
      vertex 20 -15 -10
      vertex 18.0866 -14.6194 -10
    endloop
  endfacet
  facet normal -0.831458 0.555587 0
    outer loop
      vertex 23.5355 -13.5355 -10
      vertex 24.6194 -11.9134 10
      vertex 24.6194 -11.9134 -10
    endloop
  endfacet
  facet normal -0.831458 0.555587 0
    outer loop
      vertex 24.6194 -11.9134 10
      vertex 23.5355 -13.5355 -10
      vertex 23.5355 -13.5355 10
    endloop
  endfacet
  facet normal -0.83146 -0.555585 0
    outer loop
      vertex 24.6194 -8.08658 -10
      vertex 23.5355 -6.46447 10
      vertex 23.5355 -6.46447 -10
    endloop
  endfacet
  facet normal -0.83146 -0.555585 0
    outer loop
      vertex 23.5355 -6.46447 10
      vertex 24.6194 -8.08658 -10
      vertex 24.6194 -8.08658 10
    endloop
  endfacet
  facet normal -0.980786 -0.195089 0
    outer loop
      vertex 25 -10 -10
      vertex 24.6194 -8.08658 10
      vertex 24.6194 -8.08658 -10
    endloop
  endfacet
  facet normal -0.980786 -0.195089 0
    outer loop
      vertex 24.6194 -8.08658 10
      vertex 25 -10 -10
      vertex 25 -10 10
    endloop
  endfacet
  facet normal -0.555576 -0.831465 0
    outer loop
      vertex 21.9134 -5.3806 -10
      vertex 23.5355 -6.46447 10
      vertex 21.9134 -5.3806 10
    endloop
  endfacet
  facet normal -0.555576 -0.831465 -0
    outer loop
      vertex 23.5355 -6.46447 10
      vertex 21.9134 -5.3806 -10
      vertex 23.5355 -6.46447 -10
    endloop
  endfacet
  facet normal -0.195091 -0.980785 0
    outer loop
      vertex 20 -5 -10
      vertex 21.9134 -5.3806 10
      vertex 20 -5 10
    endloop
  endfacet
  facet normal -0.195091 -0.980785 -0
    outer loop
      vertex 21.9134 -5.3806 10
      vertex 20 -5 -10
      vertex 21.9134 -5.3806 -10
    endloop
  endfacet
  facet normal 0.980785 0.195091 0
    outer loop
      vertex 15.3806 -11.9134 10
      vertex 15 -10 -10
      vertex 15 -10 10
    endloop
  endfacet
  facet normal 0.980785 0.195091 0
    outer loop
      vertex 15 -10 -10
      vertex 15.3806 -11.9134 10
      vertex 15.3806 -11.9134 -10
    endloop
  endfacet
  facet normal -0.555587 0.831458 0
    outer loop
      vertex 23.5355 -13.5355 -10
      vertex 21.9134 -14.6194 10
      vertex 23.5355 -13.5355 10
    endloop
  endfacet
  facet normal -0.555587 0.831458 0
    outer loop
      vertex 21.9134 -14.6194 10
      vertex 23.5355 -13.5355 -10
      vertex 21.9134 -14.6194 -10
    endloop
  endfacet
  facet normal 0.83146 -0.555585 0
    outer loop
      vertex 15.3806 -8.08658 10
      vertex 16.4645 -6.46447 -10
      vertex 16.4645 -6.46447 10
    endloop
  endfacet
  facet normal 0.83146 -0.555585 0
    outer loop
      vertex 16.4645 -6.46447 -10
      vertex 15.3806 -8.08658 10
      vertex 15.3806 -8.08658 -10
    endloop
  endfacet
  facet normal -0.195091 0.980785 0
    outer loop
      vertex 21.9134 -14.6194 -10
      vertex 20 -15 10
      vertex 21.9134 -14.6194 10
    endloop
  endfacet
  facet normal -0.195091 0.980785 0
    outer loop
      vertex 20 -15 10
      vertex 21.9134 -14.6194 -10
      vertex 20 -15 -10
    endloop
  endfacet
  facet normal 0.195091 -0.980785 0
    outer loop
      vertex 18.0866 -5.3806 -10
      vertex 20 -5 10
      vertex 18.0866 -5.3806 10
    endloop
  endfacet
  facet normal 0.195091 -0.980785 0
    outer loop
      vertex 20 -5 10
      vertex 18.0866 -5.3806 -10
      vertex 20 -5 -10
    endloop
  endfacet
  facet normal 0.555576 -0.831465 0
    outer loop
      vertex 16.4645 -6.46447 -10
      vertex 18.0866 -5.3806 10
      vertex 16.4645 -6.46447 10
    endloop
  endfacet
  facet normal 0.555576 -0.831465 0
    outer loop
      vertex 18.0866 -5.3806 10
      vertex 16.4645 -6.46447 -10
      vertex 18.0866 -5.3806 -10
    endloop
  endfacet
  facet normal -0.980785 0.195091 0
    outer loop
      vertex 24.6194 -11.9134 -10
      vertex 25 -10 10
      vertex 25 -10 -10
    endloop
  endfacet
  facet normal -0.980785 0.195091 0
    outer loop
      vertex 25 -10 10
      vertex 24.6194 -11.9134 -10
      vertex 24.6194 -11.9134 10
    endloop
  endfacet
  facet normal 0.980786 -0.195089 0
    outer loop
      vertex 15 -10 10
      vertex 15.3806 -8.08658 -10
      vertex 15.3806 -8.08658 10
    endloop
  endfacet
  facet normal 0.980786 -0.195089 0
    outer loop
      vertex 15.3806 -8.08658 -10
      vertex 15 -10 10
      vertex 15 -10 -10
    endloop
  endfacet
  facet normal 0.831458 0.555587 0
    outer loop
      vertex 16.4645 -13.5355 10
      vertex 15.3806 -11.9134 -10
      vertex 15.3806 -11.9134 10
    endloop
  endfacet
  facet normal 0.831458 0.555587 0
    outer loop
      vertex 15.3806 -11.9134 -10
      vertex 16.4645 -13.5355 10
      vertex 16.4645 -13.5355 -10
    endloop
  endfacet
  facet normal 0.555587 0.831458 -0
    outer loop
      vertex 18.0866 -14.6194 -10
      vertex 16.4645 -13.5355 10
      vertex 18.0866 -14.6194 10
    endloop
  endfacet
  facet normal 0.555587 0.831458 0
    outer loop
      vertex 16.4645 -13.5355 10
      vertex 18.0866 -14.6194 -10
      vertex 16.4645 -13.5355 -10
    endloop
  endfacet
  facet normal -0.831458 -0.555587 0
    outer loop
      vertex 24.6194 11.9134 -10
      vertex 23.5355 13.5355 10
      vertex 23.5355 13.5355 -10
    endloop
  endfacet
  facet normal -0.831458 -0.555587 0
    outer loop
      vertex 23.5355 13.5355 10
      vertex 24.6194 11.9134 -10
      vertex 24.6194 11.9134 10
    endloop
  endfacet
  facet normal -0.980785 -0.195091 0
    outer loop
      vertex 25 10 -10
      vertex 24.6194 11.9134 10
      vertex 24.6194 11.9134 -10
    endloop
  endfacet
  facet normal -0.980785 -0.195091 0
    outer loop
      vertex 24.6194 11.9134 10
      vertex 25 10 -10
      vertex 25 10 10
    endloop
  endfacet
  facet normal -0.555587 -0.831458 0
    outer loop
      vertex 21.9134 14.6194 -10
      vertex 23.5355 13.5355 10
      vertex 21.9134 14.6194 10
    endloop
  endfacet
  facet normal -0.555587 -0.831458 -0
    outer loop
      vertex 23.5355 13.5355 10
      vertex 21.9134 14.6194 -10
      vertex 23.5355 13.5355 -10
    endloop
  endfacet
  facet normal -0.83146 0.555585 0
    outer loop
      vertex 23.5355 6.46447 -10
      vertex 24.6194 8.08658 10
      vertex 24.6194 8.08658 -10
    endloop
  endfacet
  facet normal -0.83146 0.555585 0
    outer loop
      vertex 24.6194 8.08658 10
      vertex 23.5355 6.46447 -10
      vertex 23.5355 6.46447 10
    endloop
  endfacet
  facet normal 0.195091 -0.980785 0
    outer loop
      vertex 18.0866 14.6194 -10
      vertex 20 15 10
      vertex 18.0866 14.6194 10
    endloop
  endfacet
  facet normal 0.195091 -0.980785 0
    outer loop
      vertex 20 15 10
      vertex 18.0866 14.6194 -10
      vertex 20 15 -10
    endloop
  endfacet
  facet normal 0.831458 -0.555587 0
    outer loop
      vertex 15.3806 11.9134 10
      vertex 16.4645 13.5355 -10
      vertex 16.4645 13.5355 10
    endloop
  endfacet
  facet normal 0.831458 -0.555587 0
    outer loop
      vertex 16.4645 13.5355 -10
      vertex 15.3806 11.9134 10
      vertex 15.3806 11.9134 -10
    endloop
  endfacet
  facet normal 0.980785 -0.195091 0
    outer loop
      vertex 15 10 10
      vertex 15.3806 11.9134 -10
      vertex 15.3806 11.9134 10
    endloop
  endfacet
  facet normal 0.980785 -0.195091 0
    outer loop
      vertex 15.3806 11.9134 -10
      vertex 15 10 10
      vertex 15 10 -10
    endloop
  endfacet
  facet normal -0.195091 0.980785 0
    outer loop
      vertex 21.9134 5.3806 -10
      vertex 20 5 10
      vertex 21.9134 5.3806 10
    endloop
  endfacet
  facet normal -0.195091 0.980785 0
    outer loop
      vertex 20 5 10
      vertex 21.9134 5.3806 -10
      vertex 20 5 -10
    endloop
  endfacet
  facet normal 0.195091 0.980785 -0
    outer loop
      vertex 20 5 -10
      vertex 18.0866 5.3806 10
      vertex 20 5 10
    endloop
  endfacet
  facet normal 0.195091 0.980785 0
    outer loop
      vertex 18.0866 5.3806 10
      vertex 20 5 -10
      vertex 18.0866 5.3806 -10
    endloop
  endfacet
  facet normal 0.980786 0.195089 0
    outer loop
      vertex 15.3806 8.08658 10
      vertex 15 10 -10
      vertex 15 10 10
    endloop
  endfacet
  facet normal 0.980786 0.195089 0
    outer loop
      vertex 15 10 -10
      vertex 15.3806 8.08658 10
      vertex 15.3806 8.08658 -10
    endloop
  endfacet
  facet normal -0.195091 -0.980785 0
    outer loop
      vertex 20 15 -10
      vertex 21.9134 14.6194 10
      vertex 20 15 10
    endloop
  endfacet
  facet normal -0.195091 -0.980785 -0
    outer loop
      vertex 21.9134 14.6194 10
      vertex 20 15 -10
      vertex 21.9134 14.6194 -10
    endloop
  endfacet
  facet normal -0.980786 0.195089 0
    outer loop
      vertex 24.6194 8.08658 -10
      vertex 25 10 10
      vertex 25 10 -10
    endloop
  endfacet
  facet normal -0.980786 0.195089 0
    outer loop
      vertex 25 10 10
      vertex 24.6194 8.08658 -10
      vertex 24.6194 8.08658 10
    endloop
  endfacet
  facet normal -0.555576 0.831465 0
    outer loop
      vertex 23.5355 6.46447 -10
      vertex 21.9134 5.3806 10
      vertex 23.5355 6.46447 10
    endloop
  endfacet
  facet normal -0.555576 0.831465 0
    outer loop
      vertex 21.9134 5.3806 10
      vertex 23.5355 6.46447 -10
      vertex 21.9134 5.3806 -10
    endloop
  endfacet
  facet normal 0.83146 0.555585 0
    outer loop
      vertex 16.4645 6.46447 10
      vertex 15.3806 8.08658 -10
      vertex 15.3806 8.08658 10
    endloop
  endfacet
  facet normal 0.83146 0.555585 0
    outer loop
      vertex 15.3806 8.08658 -10
      vertex 16.4645 6.46447 10
      vertex 16.4645 6.46447 -10
    endloop
  endfacet
  facet normal 0.555587 -0.831458 0
    outer loop
      vertex 16.4645 13.5355 -10
      vertex 18.0866 14.6194 10
      vertex 16.4645 13.5355 10
    endloop
  endfacet
  facet normal 0.555587 -0.831458 0
    outer loop
      vertex 18.0866 14.6194 10
      vertex 16.4645 13.5355 -10
      vertex 18.0866 14.6194 -10
    endloop
  endfacet
  facet normal 0.555576 0.831465 -0
    outer loop
      vertex 18.0866 5.3806 -10
      vertex 16.4645 6.46447 10
      vertex 18.0866 5.3806 10
    endloop
  endfacet
  facet normal 0.555576 0.831465 0
    outer loop
      vertex 16.4645 6.46447 10
      vertex 18.0866 5.3806 -10
      vertex 16.4645 6.46447 -10
    endloop
  endfacet
  facet normal 1 -0 0
    outer loop
      vertex 30 -15 10
      vertex 30 15 -10
      vertex 30 15 10
    endloop
  endfacet
  facet normal 1 0 0
    outer loop
      vertex 30 15 -10
      vertex 30 -15 10
      vertex 30 -15 -10
    endloop
  endfacet
  facet normal -0 0 1
    outer loop
      vertex 24.6194 -8.08658 10
      vertex 30 -15 10
      vertex 24.6194 8.08658 10
    endloop
  endfacet
  facet normal 0 0 1
    outer loop
      vertex 30 -15 10
      vertex 24.6194 -8.08658 10
      vertex 25 -10 10
    endloop
  endfacet
  facet normal -0 0 1
    outer loop
      vertex 23.5355 6.46447 10
      vertex 24.6194 -8.08658 10
      vertex 24.6194 8.08658 10
    endloop
  endfacet
  facet normal 0 0 1
    outer loop
      vertex 23.5355 6.46447 10
      vertex 23.5355 -6.46447 10
      vertex 24.6194 -8.08658 10
    endloop
  endfacet
  facet normal -0 0 1
    outer loop
      vertex 21.9134 5.3806 10
      vertex 23.5355 -6.46447 10
      vertex 23.5355 6.46447 10
    endloop
  endfacet
  facet normal 0 0 1
    outer loop
      vertex 21.9134 5.3806 10
      vertex 21.9134 -5.3806 10
      vertex 23.5355 -6.46447 10
    endloop
  endfacet
  facet normal -0 0 1
    outer loop
      vertex 20 5 10
      vertex 21.9134 -5.3806 10
      vertex 21.9134 5.3806 10
    endloop
  endfacet
  facet normal 0 0 1
    outer loop
      vertex 20 5 10
      vertex 20 -5 10
      vertex 21.9134 -5.3806 10
    endloop
  endfacet
  facet normal 0 0 1
    outer loop
      vertex 18.0866 5.3806 10
      vertex 20 -5 10
      vertex 20 5 10
    endloop
  endfacet
  facet normal 0 0 1
    outer loop
      vertex 18.0866 5.3806 10
      vertex 18.0866 -5.3806 10
      vertex 20 -5 10
    endloop
  endfacet
  facet normal 0 0 1
    outer loop
      vertex 16.4645 6.46447 10
      vertex 18.0866 -5.3806 10
      vertex 18.0866 5.3806 10
    endloop
  endfacet
  facet normal 0 0 1
    outer loop
      vertex 16.4645 6.46447 10
      vertex 16.4645 -6.46447 10
      vertex 18.0866 -5.3806 10
    endloop
  endfacet
  facet normal 0 0 1
    outer loop
      vertex 15.3806 8.08658 10
      vertex 16.4645 -6.46447 10
      vertex 16.4645 6.46447 10
    endloop
  endfacet
  facet normal 0 0 1
    outer loop
      vertex 15.3806 8.08658 10
      vertex 15.3806 -8.08658 10
      vertex 16.4645 -6.46447 10
    endloop
  endfacet
  facet normal 0 0 1
    outer loop
      vertex -15.3806 8.08658 10
      vertex 15.3806 8.08658 10
      vertex 15 10 10
    endloop
  endfacet
  facet normal 0 0 1
    outer loop
      vertex 15.3806 8.08658 10
      vertex -15.3806 8.08658 10
      vertex 15.3806 -8.08658 10
    endloop
  endfacet
  facet normal 0 0 1
    outer loop
      vertex 24.6194 8.08658 10
      vertex 30 15 10
      vertex 25 10 10
    endloop
  endfacet
  facet normal 0 0 1
    outer loop
      vertex 30 15 10
      vertex 24.6194 11.9134 10
      vertex 25 10 10
    endloop
  endfacet
  facet normal 0 0 1
    outer loop
      vertex 30 15 10
      vertex 23.5355 13.5355 10
      vertex 24.6194 11.9134 10
    endloop
  endfacet
  facet normal 0 0 1
    outer loop
      vertex 30 15 10
      vertex 21.9134 14.6194 10
      vertex 23.5355 13.5355 10
    endloop
  endfacet
  facet normal 0 -0 1
    outer loop
      vertex 21.9134 14.6194 10
      vertex 30 15 10
      vertex 20 15 10
    endloop
  endfacet
  facet normal 0 0 1
    outer loop
      vertex 30 15 10
      vertex 24.6194 8.08658 10
      vertex 30 -15 10
    endloop
  endfacet
  facet normal -0 0 1
    outer loop
      vertex 24.6194 -11.9134 10
      vertex 30 -15 10
      vertex 25 -10 10
    endloop
  endfacet
  facet normal -0 0 1
    outer loop
      vertex 23.5355 -13.5355 10
      vertex 30 -15 10
      vertex 24.6194 -11.9134 10
    endloop
  endfacet
  facet normal -0 0 1
    outer loop
      vertex 21.9134 -14.6194 10
      vertex 30 -15 10
      vertex 23.5355 -13.5355 10
    endloop
  endfacet
  facet normal 0 0 1
    outer loop
      vertex 30 -15 10
      vertex 21.9134 -14.6194 10
      vertex 20 -15 10
    endloop
  endfacet
  facet normal 0 0 1
    outer loop
      vertex -15.3806 8.08658 10
      vertex 15 10 10
      vertex -15 10 10
    endloop
  endfacet
  facet normal 0 0 1
    outer loop
      vertex 15.3806 11.9134 10
      vertex -15 10 10
      vertex 15 10 10
    endloop
  endfacet
  facet normal 0 0 1
    outer loop
      vertex -15.3806 11.9134 10
      vertex 15.3806 11.9134 10
      vertex 16.4645 13.5355 10
    endloop
  endfacet
  facet normal 0 0 1
    outer loop
      vertex -16.4645 13.5355 10
      vertex 16.4645 13.5355 10
      vertex 18.0866 14.6194 10
    endloop
  endfacet
  facet normal 0 0 1
    outer loop
      vertex -18.0866 14.6194 10
      vertex 18.0866 14.6194 10
      vertex 20 15 10
    endloop
  endfacet
  facet normal 0 0 1
    outer loop
      vertex 15.3806 11.9134 10
      vertex -15.3806 11.9134 10
      vertex -15 10 10
    endloop
  endfacet
  facet normal 0 0 1
    outer loop
      vertex 16.4645 13.5355 10
      vertex -16.4645 13.5355 10
      vertex -15.3806 11.9134 10
    endloop
  endfacet
  facet normal 0 0 1
    outer loop
      vertex 18.0866 14.6194 10
      vertex -18.0866 14.6194 10
      vertex -16.4645 13.5355 10
    endloop
  endfacet
  facet normal 0 -0 1
    outer loop
      vertex -18.0866 14.6194 10
      vertex 20 15 10
      vertex -20 15 10
    endloop
  endfacet
  facet normal 0 0 1
    outer loop
      vertex 15.3806 -8.08658 10
      vertex -15.3806 -8.08658 10
      vertex 15 -10 10
    endloop
  endfacet
  facet normal 0 0 1
    outer loop
      vertex 15 -10 10
      vertex -15.3806 -8.08658 10
      vertex -15 -10 10
    endloop
  endfacet
  facet normal -0 0 1
    outer loop
      vertex -16.4645 6.46447 10
      vertex -15.3806 -8.08658 10
      vertex -15.3806 8.08658 10
    endloop
  endfacet
  facet normal 0 0 1
    outer loop
      vertex -16.4645 6.46447 10
      vertex -16.4645 -6.46447 10
      vertex -15.3806 -8.08658 10
    endloop
  endfacet
  facet normal -0 0 1
    outer loop
      vertex -18.0866 5.3806 10
      vertex -16.4645 -6.46447 10
      vertex -16.4645 6.46447 10
    endloop
  endfacet
  facet normal 0 0 1
    outer loop
      vertex -18.0866 5.3806 10
      vertex -18.0866 -5.3806 10
      vertex -16.4645 -6.46447 10
    endloop
  endfacet
  facet normal -0 0 1
    outer loop
      vertex -20 5 10
      vertex -18.0866 -5.3806 10
      vertex -18.0866 5.3806 10
    endloop
  endfacet
  facet normal 0 0 1
    outer loop
      vertex -20 5 10
      vertex -20 -5 10
      vertex -18.0866 -5.3806 10
    endloop
  endfacet
  facet normal 0 0 1
    outer loop
      vertex -21.9134 5.3806 10
      vertex -20 -5 10
      vertex -20 5 10
    endloop
  endfacet
  facet normal 0 0 1
    outer loop
      vertex -21.9134 5.3806 10
      vertex -21.9134 -5.3806 10
      vertex -20 -5 10
    endloop
  endfacet
  facet normal 0 0 1
    outer loop
      vertex -23.5355 6.46447 10
      vertex -21.9134 -5.3806 10
      vertex -21.9134 5.3806 10
    endloop
  endfacet
  facet normal 0 0 1
    outer loop
      vertex -23.5355 6.46447 10
      vertex -23.5355 -6.46447 10
      vertex -21.9134 -5.3806 10
    endloop
  endfacet
  facet normal 0 0 1
    outer loop
      vertex -24.6194 8.08658 10
      vertex -23.5355 -6.46447 10
      vertex -23.5355 6.46447 10
    endloop
  endfacet
  facet normal 0 0 1
    outer loop
      vertex -24.6194 8.08658 10
      vertex -24.6194 -8.08658 10
      vertex -23.5355 -6.46447 10
    endloop
  endfacet
  facet normal 0 0 1
    outer loop
      vertex -30 15 10
      vertex -24.6194 8.08658 10
      vertex -25 10 10
    endloop
  endfacet
  facet normal 0 0 1
    outer loop
      vertex -24.6194 8.08658 10
      vertex -30 15 10
      vertex -24.6194 -8.08658 10
    endloop
  endfacet
  facet normal 0 0 1
    outer loop
      vertex -15.3806 -8.08658 10
      vertex 15.3806 -8.08658 10
      vertex -15.3806 8.08658 10
    endloop
  endfacet
  facet normal 0 0 1
    outer loop
      vertex 15 -10 10
      vertex -15 -10 10
      vertex 15.3806 -11.9134 10
    endloop
  endfacet
  facet normal 0 0 1
    outer loop
      vertex -15.3806 -11.9134 10
      vertex 15.3806 -11.9134 10
      vertex -15 -10 10
    endloop
  endfacet
  facet normal 0 0 1
    outer loop
      vertex 15.3806 -11.9134 10
      vertex -15.3806 -11.9134 10
      vertex 16.4645 -13.5355 10
    endloop
  endfacet
  facet normal 0 0 1
    outer loop
      vertex -16.4645 -13.5355 10
      vertex 16.4645 -13.5355 10
      vertex -15.3806 -11.9134 10
    endloop
  endfacet
  facet normal 0 0 1
    outer loop
      vertex 16.4645 -13.5355 10
      vertex -16.4645 -13.5355 10
      vertex 18.0866 -14.6194 10
    endloop
  endfacet
  facet normal 0 0 1
    outer loop
      vertex -18.0866 -14.6194 10
      vertex 18.0866 -14.6194 10
      vertex -16.4645 -13.5355 10
    endloop
  endfacet
  facet normal 0 0 1
    outer loop
      vertex 18.0866 -14.6194 10
      vertex -18.0866 -14.6194 10
      vertex 20 -15 10
    endloop
  endfacet
  facet normal 0 0 1
    outer loop
      vertex 20 -15 10
      vertex -18.0866 -14.6194 10
      vertex -20 -15 10
    endloop
  endfacet
  facet normal 0 0 1
    outer loop
      vertex -30 -15 10
      vertex -24.6194 -8.08658 10
      vertex -30 15 10
    endloop
  endfacet
  facet normal 0 0 1
    outer loop
      vertex -24.6194 11.9134 10
      vertex -30 15 10
      vertex -25 10 10
    endloop
  endfacet
  facet normal 0 0 1
    outer loop
      vertex -23.5355 13.5355 10
      vertex -30 15 10
      vertex -24.6194 11.9134 10
    endloop
  endfacet
  facet normal 0 0 1
    outer loop
      vertex -21.9134 14.6194 10
      vertex -30 15 10
      vertex -23.5355 13.5355 10
    endloop
  endfacet
  facet normal -0 0 1
    outer loop
      vertex -30 15 10
      vertex -21.9134 14.6194 10
      vertex -20 15 10
    endloop
  endfacet
  facet normal 0 0 1
    outer loop
      vertex -24.6194 -8.08658 10
      vertex -30 -15 10
      vertex -25 -10 10
    endloop
  endfacet
  facet normal 0 0 1
    outer loop
      vertex -21.9134 -14.6194 10
      vertex -30 -15 10
      vertex -20 -15 10
    endloop
  endfacet
  facet normal 0 0 1
    outer loop
      vertex -23.5355 -13.5355 10
      vertex -30 -15 10
      vertex -21.9134 -14.6194 10
    endloop
  endfacet
  facet normal 0 0 1
    outer loop
      vertex -24.6194 -11.9134 10
      vertex -30 -15 10
      vertex -23.5355 -13.5355 10
    endloop
  endfacet
  facet normal 0 0 1
    outer loop
      vertex -25 -10 10
      vertex -30 -15 10
      vertex -24.6194 -11.9134 10
    endloop
  endfacet
  facet normal 0 0 -1
    outer loop
      vertex -30 15 -10
      vertex -24.6194 8.08658 -10
      vertex -30 -15 -10
    endloop
  endfacet
  facet normal -0 0 -1
    outer loop
      vertex -24.6194 -11.9134 -10
      vertex -30 -15 -10
      vertex -25 -10 -10
    endloop
  endfacet
  facet normal -0 0 -1
    outer loop
      vertex -23.5355 -13.5355 -10
      vertex -30 -15 -10
      vertex -24.6194 -11.9134 -10
    endloop
  endfacet
  facet normal -0 0 -1
    outer loop
      vertex -21.9134 -14.6194 -10
      vertex -30 -15 -10
      vertex -23.5355 -13.5355 -10
    endloop
  endfacet
  facet normal 0 0 -1
    outer loop
      vertex -30 -15 -10
      vertex -21.9134 -14.6194 -10
      vertex -20 -15 -10
    endloop
  endfacet
  facet normal 0 0 -1
    outer loop
      vertex 24.6194 8.08658 -10
      vertex 30 15 -10
      vertex 24.6194 -8.08658 -10
    endloop
  endfacet
  facet normal 0 0 -1
    outer loop
      vertex 30 15 -10
      vertex 24.6194 8.08658 -10
      vertex 25 10 -10
    endloop
  endfacet
  facet normal 0 0 -1
    outer loop
      vertex 23.5355 -6.46447 -10
      vertex 24.6194 8.08658 -10
      vertex 24.6194 -8.08658 -10
    endloop
  endfacet
  facet normal 0 0 -1
    outer loop
      vertex 23.5355 -6.46447 -10
      vertex 23.5355 6.46447 -10
      vertex 24.6194 8.08658 -10
    endloop
  endfacet
  facet normal 0 0 -1
    outer loop
      vertex 21.9134 -5.3806 -10
      vertex 23.5355 6.46447 -10
      vertex 23.5355 -6.46447 -10
    endloop
  endfacet
  facet normal 0 0 -1
    outer loop
      vertex 21.9134 -5.3806 -10
      vertex 21.9134 5.3806 -10
      vertex 23.5355 6.46447 -10
    endloop
  endfacet
  facet normal 0 0 -1
    outer loop
      vertex 20 -5 -10
      vertex 21.9134 5.3806 -10
      vertex 21.9134 -5.3806 -10
    endloop
  endfacet
  facet normal 0 0 -1
    outer loop
      vertex 20 -5 -10
      vertex 20 5 -10
      vertex 21.9134 5.3806 -10
    endloop
  endfacet
  facet normal 0 0 -1
    outer loop
      vertex 18.0866 -5.3806 -10
      vertex 20 5 -10
      vertex 20 -5 -10
    endloop
  endfacet
  facet normal 0 0 -1
    outer loop
      vertex 18.0866 -5.3806 -10
      vertex 18.0866 5.3806 -10
      vertex 20 5 -10
    endloop
  endfacet
  facet normal 0 0 -1
    outer loop
      vertex 16.4645 -6.46447 -10
      vertex 18.0866 5.3806 -10
      vertex 18.0866 -5.3806 -10
    endloop
  endfacet
  facet normal 0 0 -1
    outer loop
      vertex 16.4645 -6.46447 -10
      vertex 16.4645 6.46447 -10
      vertex 18.0866 5.3806 -10
    endloop
  endfacet
  facet normal 0 0 -1
    outer loop
      vertex 15.3806 -8.08658 -10
      vertex 16.4645 6.46447 -10
      vertex 16.4645 -6.46447 -10
    endloop
  endfacet
  facet normal 0 0 -1
    outer loop
      vertex 15.3806 -8.08658 -10
      vertex 15.3806 8.08658 -10
      vertex 16.4645 6.46447 -10
    endloop
  endfacet
  facet normal 0 0 -1
    outer loop
      vertex -15.3806 -8.08658 -10
      vertex 15.3806 -8.08658 -10
      vertex 15 -10 -10
    endloop
  endfacet
  facet normal 0 0 -1
    outer loop
      vertex 15.3806 -8.08658 -10
      vertex -15.3806 -8.08658 -10
      vertex 15.3806 8.08658 -10
    endloop
  endfacet
  facet normal 0 0 -1
    outer loop
      vertex 24.6194 -8.08658 -10
      vertex 30 -15 -10
      vertex 25 -10 -10
    endloop
  endfacet
  facet normal 0 0 -1
    outer loop
      vertex 30 -15 -10
      vertex 24.6194 -11.9134 -10
      vertex 25 -10 -10
    endloop
  endfacet
  facet normal 0 0 -1
    outer loop
      vertex 30 -15 -10
      vertex 23.5355 -13.5355 -10
      vertex 24.6194 -11.9134 -10
    endloop
  endfacet
  facet normal 0 0 -1
    outer loop
      vertex 30 -15 -10
      vertex 21.9134 -14.6194 -10
      vertex 23.5355 -13.5355 -10
    endloop
  endfacet
  facet normal 0 -0 -1
    outer loop
      vertex 21.9134 -14.6194 -10
      vertex 30 -15 -10
      vertex 20 -15 -10
    endloop
  endfacet
  facet normal 0 0 -1
    outer loop
      vertex 30 -15 -10
      vertex 24.6194 -8.08658 -10
      vertex 30 15 -10
    endloop
  endfacet
  facet normal 0 0 -1
    outer loop
      vertex 24.6194 11.9134 -10
      vertex 30 15 -10
      vertex 25 10 -10
    endloop
  endfacet
  facet normal 0 0 -1
    outer loop
      vertex 23.5355 13.5355 -10
      vertex 30 15 -10
      vertex 24.6194 11.9134 -10
    endloop
  endfacet
  facet normal 0 0 -1
    outer loop
      vertex 21.9134 14.6194 -10
      vertex 30 15 -10
      vertex 23.5355 13.5355 -10
    endloop
  endfacet
  facet normal -0 0 -1
    outer loop
      vertex 30 15 -10
      vertex 21.9134 14.6194 -10
      vertex 20 15 -10
    endloop
  endfacet
  facet normal 0 0 -1
    outer loop
      vertex -15.3806 -8.08658 -10
      vertex 15 -10 -10
      vertex -15 -10 -10
    endloop
  endfacet
  facet normal 0 0 -1
    outer loop
      vertex 15.3806 -11.9134 -10
      vertex -15 -10 -10
      vertex 15 -10 -10
    endloop
  endfacet
  facet normal 0 0 -1
    outer loop
      vertex -15.3806 -11.9134 -10
      vertex 15.3806 -11.9134 -10
      vertex 16.4645 -13.5355 -10
    endloop
  endfacet
  facet normal 0 0 -1
    outer loop
      vertex -16.4645 -13.5355 -10
      vertex 16.4645 -13.5355 -10
      vertex 18.0866 -14.6194 -10
    endloop
  endfacet
  facet normal 0 0 -1
    outer loop
      vertex -18.0866 -14.6194 -10
      vertex 18.0866 -14.6194 -10
      vertex 20 -15 -10
    endloop
  endfacet
  facet normal 0 0 -1
    outer loop
      vertex 15.3806 -11.9134 -10
      vertex -15.3806 -11.9134 -10
      vertex -15 -10 -10
    endloop
  endfacet
  facet normal 0 0 -1
    outer loop
      vertex 16.4645 -13.5355 -10
      vertex -16.4645 -13.5355 -10
      vertex -15.3806 -11.9134 -10
    endloop
  endfacet
  facet normal 0 0 -1
    outer loop
      vertex 18.0866 -14.6194 -10
      vertex -18.0866 -14.6194 -10
      vertex -16.4645 -13.5355 -10
    endloop
  endfacet
  facet normal 0 -0 -1
    outer loop
      vertex -18.0866 -14.6194 -10
      vertex 20 -15 -10
      vertex -20 -15 -10
    endloop
  endfacet
  facet normal 0 0 -1
    outer loop
      vertex 15.3806 8.08658 -10
      vertex -15.3806 8.08658 -10
      vertex 15 10 -10
    endloop
  endfacet
  facet normal -0 0 -1
    outer loop
      vertex 15 10 -10
      vertex -15.3806 8.08658 -10
      vertex -15 10 -10
    endloop
  endfacet
  facet normal 0 0 -1
    outer loop
      vertex -16.4645 -6.46447 -10
      vertex -15.3806 8.08658 -10
      vertex -15.3806 -8.08658 -10
    endloop
  endfacet
  facet normal 0 0 -1
    outer loop
      vertex -16.4645 -6.46447 -10
      vertex -16.4645 6.46447 -10
      vertex -15.3806 8.08658 -10
    endloop
  endfacet
  facet normal 0 0 -1
    outer loop
      vertex -18.0866 -5.3806 -10
      vertex -16.4645 6.46447 -10
      vertex -16.4645 -6.46447 -10
    endloop
  endfacet
  facet normal 0 0 -1
    outer loop
      vertex -18.0866 -5.3806 -10
      vertex -18.0866 5.3806 -10
      vertex -16.4645 6.46447 -10
    endloop
  endfacet
  facet normal 0 0 -1
    outer loop
      vertex -20 -5 -10
      vertex -18.0866 5.3806 -10
      vertex -18.0866 -5.3806 -10
    endloop
  endfacet
  facet normal 0 0 -1
    outer loop
      vertex -20 -5 -10
      vertex -20 5 -10
      vertex -18.0866 5.3806 -10
    endloop
  endfacet
  facet normal 0 0 -1
    outer loop
      vertex -21.9134 -5.3806 -10
      vertex -20 5 -10
      vertex -20 -5 -10
    endloop
  endfacet
  facet normal 0 0 -1
    outer loop
      vertex -21.9134 -5.3806 -10
      vertex -21.9134 5.3806 -10
      vertex -20 5 -10
    endloop
  endfacet
  facet normal 0 0 -1
    outer loop
      vertex -23.5355 -6.46447 -10
      vertex -21.9134 5.3806 -10
      vertex -21.9134 -5.3806 -10
    endloop
  endfacet
  facet normal 0 0 -1
    outer loop
      vertex -23.5355 -6.46447 -10
      vertex -23.5355 6.46447 -10
      vertex -21.9134 5.3806 -10
    endloop
  endfacet
  facet normal 0 0 -1
    outer loop
      vertex -24.6194 -8.08658 -10
      vertex -23.5355 6.46447 -10
      vertex -23.5355 -6.46447 -10
    endloop
  endfacet
  facet normal 0 0 -1
    outer loop
      vertex -24.6194 -8.08658 -10
      vertex -24.6194 8.08658 -10
      vertex -23.5355 6.46447 -10
    endloop
  endfacet
  facet normal 0 0 -1
    outer loop
      vertex -30 -15 -10
      vertex -24.6194 -8.08658 -10
      vertex -25 -10 -10
    endloop
  endfacet
  facet normal -0 0 -1
    outer loop
      vertex -24.6194 -8.08658 -10
      vertex -30 -15 -10
      vertex -24.6194 8.08658 -10
    endloop
  endfacet
  facet normal 0 0 -1
    outer loop
      vertex -15.3806 8.08658 -10
      vertex 15.3806 8.08658 -10
      vertex -15.3806 -8.08658 -10
    endloop
  endfacet
  facet normal 0 0 -1
    outer loop
      vertex 15 10 -10
      vertex -15 10 -10
      vertex 15.3806 11.9134 -10
    endloop
  endfacet
  facet normal 0 0 -1
    outer loop
      vertex -15.3806 11.9134 -10
      vertex 15.3806 11.9134 -10
      vertex -15 10 -10
    endloop
  endfacet
  facet normal 0 0 -1
    outer loop
      vertex 15.3806 11.9134 -10
      vertex -15.3806 11.9134 -10
      vertex 16.4645 13.5355 -10
    endloop
  endfacet
  facet normal 0 0 -1
    outer loop
      vertex -16.4645 13.5355 -10
      vertex 16.4645 13.5355 -10
      vertex -15.3806 11.9134 -10
    endloop
  endfacet
  facet normal 0 0 -1
    outer loop
      vertex 16.4645 13.5355 -10
      vertex -16.4645 13.5355 -10
      vertex 18.0866 14.6194 -10
    endloop
  endfacet
  facet normal 0 0 -1
    outer loop
      vertex -18.0866 14.6194 -10
      vertex 18.0866 14.6194 -10
      vertex -16.4645 13.5355 -10
    endloop
  endfacet
  facet normal 0 0 -1
    outer loop
      vertex 18.0866 14.6194 -10
      vertex -18.0866 14.6194 -10
      vertex 20 15 -10
    endloop
  endfacet
  facet normal -0 0 -1
    outer loop
      vertex 20 15 -10
      vertex -18.0866 14.6194 -10
      vertex -20 15 -10
    endloop
  endfacet
  facet normal 0 0 -1
    outer loop
      vertex -24.6194 8.08658 -10
      vertex -30 15 -10
      vertex -25 10 -10
    endloop
  endfacet
  facet normal 0 0 -1
    outer loop
      vertex -21.9134 14.6194 -10
      vertex -30 15 -10
      vertex -20 15 -10
    endloop
  endfacet
  facet normal 0 0 -1
    outer loop
      vertex -23.5355 13.5355 -10
      vertex -30 15 -10
      vertex -21.9134 14.6194 -10
    endloop
  endfacet
  facet normal 0 0 -1
    outer loop
      vertex -24.6194 11.9134 -10
      vertex -30 15 -10
      vertex -23.5355 13.5355 -10
    endloop
  endfacet
  facet normal 0 0 -1
    outer loop
      vertex -25 10 -10
      vertex -30 15 -10
      vertex -24.6194 11.9134 -10
    endloop
  endfacet
  facet normal -1 0 0
    outer loop
      vertex -30 -15 -10
      vertex -30 15 10
      vertex -30 15 -10
    endloop
  endfacet
  facet normal -1 -0 0
    outer loop
      vertex -30 15 10
      vertex -30 -15 -10
      vertex -30 -15 10
    endloop
  endfacet
  facet normal 0 1 -0
    outer loop
      vertex 20 15 -10
      vertex -20 15 10
      vertex 20 15 10
    endloop
  endfacet
  facet normal 0 1 0
    outer loop
      vertex -20 15 10
      vertex 20 15 -10
      vertex -20 15 -10
    endloop
  endfacet
  facet normal 0 1 -0
    outer loop
      vertex -20 15 -10
      vertex -30 15 10
      vertex -20 15 10
    endloop
  endfacet
  facet normal 0 1 0
    outer loop
      vertex -30 15 10
      vertex -20 15 -10
      vertex -30 15 -10
    endloop
  endfacet
  facet normal 0 1 -0
    outer loop
      vertex 30 15 -10
      vertex 20 15 10
      vertex 30 15 10
    endloop
  endfacet
  facet normal 0 1 0
    outer loop
      vertex 20 15 10
      vertex 30 15 -10
      vertex 20 15 -10
    endloop
  endfacet
  facet normal 0 -1 0
    outer loop
      vertex -20 -15 -10
      vertex 20 -15 10
      vertex -20 -15 10
    endloop
  endfacet
  facet normal 0 -1 -0
    outer loop
      vertex 20 -15 10
      vertex -20 -15 -10
      vertex 20 -15 -10
    endloop
  endfacet
  facet normal 0 -1 0
    outer loop
      vertex -30 -15 -10
      vertex -20 -15 10
      vertex -30 -15 10
    endloop
  endfacet
  facet normal 0 -1 -0
    outer loop
      vertex -20 -15 10
      vertex -30 -15 -10
      vertex -20 -15 -10
    endloop
  endfacet
  facet normal 0 -1 0
    outer loop
      vertex 20 -15 -10
      vertex 30 -15 10
      vertex 20 -15 10
    endloop
  endfacet
  facet normal 0 -1 -0
    outer loop
      vertex 30 -15 10
      vertex 20 -15 -10
      vertex 30 -15 -10
    endloop
  endfacet
  facet normal -0.980786 0.195089 0
    outer loop
      vertex -25 -10 10
      vertex -24.6194 -8.08658 20
      vertex -24.6194 -8.08658 10
    endloop
  endfacet
  facet normal -0.980786 0.195089 0
    outer loop
      vertex -24.6194 -8.08658 20
      vertex -25 -10 10
      vertex -25 -10 20
    endloop
  endfacet
  facet normal 0 0 -1
    outer loop
      vertex -15.3806 -11.9134 10
      vertex -15.3806 -8.08658 10
      vertex -15 -10 10
    endloop
  endfacet
  facet normal 0 0 -1
    outer loop
      vertex -16.4645 -13.5355 10
      vertex -15.3806 -8.08658 10
      vertex -15.3806 -11.9134 10
    endloop
  endfacet
  facet normal 0 0 -1
    outer loop
      vertex -16.4645 -13.5355 10
      vertex -16.4645 -6.46447 10
      vertex -15.3806 -8.08658 10
    endloop
  endfacet
  facet normal 0 0 -1
    outer loop
      vertex -18.0866 -14.6194 10
      vertex -16.4645 -6.46447 10
      vertex -16.4645 -13.5355 10
    endloop
  endfacet
  facet normal 0 0 -1
    outer loop
      vertex -18.0866 -14.6194 10
      vertex -18.0866 -5.3806 10
      vertex -16.4645 -6.46447 10
    endloop
  endfacet
  facet normal 0 0 -1
    outer loop
      vertex -20 -15 10
      vertex -18.0866 -5.3806 10
      vertex -18.0866 -14.6194 10
    endloop
  endfacet
  facet normal 0 0 -1
    outer loop
      vertex -20 -15 10
      vertex -20 -5 10
      vertex -18.0866 -5.3806 10
    endloop
  endfacet
  facet normal 0 0 -1
    outer loop
      vertex -21.9134 -14.6194 10
      vertex -20 -5 10
      vertex -20 -15 10
    endloop
  endfacet
  facet normal 0 0 -1
    outer loop
      vertex -21.9134 -14.6194 10
      vertex -21.9134 -5.3806 10
      vertex -20 -5 10
    endloop
  endfacet
  facet normal 0 0 -1
    outer loop
      vertex -23.5355 -13.5355 10
      vertex -21.9134 -5.3806 10
      vertex -21.9134 -14.6194 10
    endloop
  endfacet
  facet normal 0 0 -1
    outer loop
      vertex -23.5355 -13.5355 10
      vertex -23.5355 -6.46447 10
      vertex -21.9134 -5.3806 10
    endloop
  endfacet
  facet normal 0 0 -1
    outer loop
      vertex -24.6194 -11.9134 10
      vertex -23.5355 -6.46447 10
      vertex -23.5355 -13.5355 10
    endloop
  endfacet
  facet normal 0 0 -1
    outer loop
      vertex -24.6194 -11.9134 10
      vertex -24.6194 -8.08658 10
      vertex -23.5355 -6.46447 10
    endloop
  endfacet
  facet normal 0 -0 -1
    outer loop
      vertex -24.6194 -8.08658 10
      vertex -24.6194 -11.9134 10
      vertex -25 -10 10
    endloop
  endfacet
  facet normal 0.83146 0.555585 0
    outer loop
      vertex -15.3806 -8.08658 20
      vertex -16.4645 -6.46447 10
      vertex -16.4645 -6.46447 20
    endloop
  endfacet
  facet normal 0.83146 0.555585 0
    outer loop
      vertex -16.4645 -6.46447 10
      vertex -15.3806 -8.08658 20
      vertex -15.3806 -8.08658 10
    endloop
  endfacet
  facet normal 0.980786 0.195089 0
    outer loop
      vertex -15 -10 20
      vertex -15.3806 -8.08658 10
      vertex -15.3806 -8.08658 20
    endloop
  endfacet
  facet normal 0.980786 0.195089 0
    outer loop
      vertex -15.3806 -8.08658 10
      vertex -15 -10 20
      vertex -15 -10 10
    endloop
  endfacet
  facet normal 0.555576 0.831465 -0
    outer loop
      vertex -16.4645 -6.46447 10
      vertex -18.0866 -5.3806 20
      vertex -16.4645 -6.46447 20
    endloop
  endfacet
  facet normal 0.555576 0.831465 0
    outer loop
      vertex -18.0866 -5.3806 20
      vertex -16.4645 -6.46447 10
      vertex -18.0866 -5.3806 10
    endloop
  endfacet
  facet normal 0.195091 -0.980785 0
    outer loop
      vertex -20 -15 10
      vertex -18.0866 -14.6194 20
      vertex -20 -15 20
    endloop
  endfacet
  facet normal 0.195091 -0.980785 0
    outer loop
      vertex -18.0866 -14.6194 20
      vertex -20 -15 10
      vertex -18.0866 -14.6194 10
    endloop
  endfacet
  facet normal -0.195091 0.980785 0
    outer loop
      vertex -20 -5 10
      vertex -21.9134 -5.3806 20
      vertex -20 -5 20
    endloop
  endfacet
  facet normal -0.195091 0.980785 0
    outer loop
      vertex -21.9134 -5.3806 20
      vertex -20 -5 10
      vertex -21.9134 -5.3806 10
    endloop
  endfacet
  facet normal -0.555576 0.831465 0
    outer loop
      vertex -21.9134 -5.3806 10
      vertex -23.5355 -6.46447 20
      vertex -21.9134 -5.3806 20
    endloop
  endfacet
  facet normal -0.555576 0.831465 0
    outer loop
      vertex -23.5355 -6.46447 20
      vertex -21.9134 -5.3806 10
      vertex -23.5355 -6.46447 10
    endloop
  endfacet
  facet normal -0.83146 0.555585 0
    outer loop
      vertex -24.6194 -8.08658 10
      vertex -23.5355 -6.46447 20
      vertex -23.5355 -6.46447 10
    endloop
  endfacet
  facet normal -0.83146 0.555585 0
    outer loop
      vertex -23.5355 -6.46447 20
      vertex -24.6194 -8.08658 10
      vertex -24.6194 -8.08658 20
    endloop
  endfacet
  facet normal -0.195091 -0.980785 0
    outer loop
      vertex -21.9134 -14.6194 10
      vertex -20 -15 20
      vertex -21.9134 -14.6194 20
    endloop
  endfacet
  facet normal -0.195091 -0.980785 -0
    outer loop
      vertex -20 -15 20
      vertex -21.9134 -14.6194 10
      vertex -20 -15 10
    endloop
  endfacet
  facet normal 0.195091 0.980785 -0
    outer loop
      vertex -18.0866 -5.3806 10
      vertex -20 -5 20
      vertex -18.0866 -5.3806 20
    endloop
  endfacet
  facet normal 0.195091 0.980785 0
    outer loop
      vertex -20 -5 20
      vertex -18.0866 -5.3806 10
      vertex -20 -5 10
    endloop
  endfacet
  facet normal -0.831458 -0.555587 0
    outer loop
      vertex -23.5355 -13.5355 10
      vertex -24.6194 -11.9134 20
      vertex -24.6194 -11.9134 10
    endloop
  endfacet
  facet normal -0.831458 -0.555587 0
    outer loop
      vertex -24.6194 -11.9134 20
      vertex -23.5355 -13.5355 10
      vertex -23.5355 -13.5355 20
    endloop
  endfacet
  facet normal 0.980785 -0.195091 0
    outer loop
      vertex -15.3806 -11.9134 20
      vertex -15 -10 10
      vertex -15 -10 20
    endloop
  endfacet
  facet normal 0.980785 -0.195091 0
    outer loop
      vertex -15 -10 10
      vertex -15.3806 -11.9134 20
      vertex -15.3806 -11.9134 10
    endloop
  endfacet
  facet normal 0 0 1
    outer loop
      vertex -15.3806 -8.08658 20
      vertex -15.3806 -11.9134 20
      vertex -15 -10 20
    endloop
  endfacet
  facet normal 0 0 1
    outer loop
      vertex -16.4645 -6.46447 20
      vertex -15.3806 -11.9134 20
      vertex -15.3806 -8.08658 20
    endloop
  endfacet
  facet normal 0 0 1
    outer loop
      vertex -16.4645 -6.46447 20
      vertex -16.4645 -13.5355 20
      vertex -15.3806 -11.9134 20
    endloop
  endfacet
  facet normal 0 0 1
    outer loop
      vertex -18.0866 -5.3806 20
      vertex -16.4645 -13.5355 20
      vertex -16.4645 -6.46447 20
    endloop
  endfacet
  facet normal 0 0 1
    outer loop
      vertex -18.0866 -5.3806 20
      vertex -18.0866 -14.6194 20
      vertex -16.4645 -13.5355 20
    endloop
  endfacet
  facet normal 0 0 1
    outer loop
      vertex -20 -5 20
      vertex -18.0866 -14.6194 20
      vertex -18.0866 -5.3806 20
    endloop
  endfacet
  facet normal 0 0 1
    outer loop
      vertex -20 -5 20
      vertex -20 -15 20
      vertex -18.0866 -14.6194 20
    endloop
  endfacet
  facet normal -0 0 1
    outer loop
      vertex -21.9134 -5.3806 20
      vertex -20 -15 20
      vertex -20 -5 20
    endloop
  endfacet
  facet normal 0 0 1
    outer loop
      vertex -21.9134 -5.3806 20
      vertex -21.9134 -14.6194 20
      vertex -20 -15 20
    endloop
  endfacet
  facet normal -0 0 1
    outer loop
      vertex -23.5355 -6.46447 20
      vertex -21.9134 -14.6194 20
      vertex -21.9134 -5.3806 20
    endloop
  endfacet
  facet normal 0 0 1
    outer loop
      vertex -23.5355 -6.46447 20
      vertex -23.5355 -13.5355 20
      vertex -21.9134 -14.6194 20
    endloop
  endfacet
  facet normal -0 0 1
    outer loop
      vertex -24.6194 -8.08658 20
      vertex -23.5355 -13.5355 20
      vertex -23.5355 -6.46447 20
    endloop
  endfacet
  facet normal 0 0 1
    outer loop
      vertex -24.6194 -8.08658 20
      vertex -24.6194 -11.9134 20
      vertex -23.5355 -13.5355 20
    endloop
  endfacet
  facet normal 0 -0 1
    outer loop
      vertex -24.6194 -11.9134 20
      vertex -24.6194 -8.08658 20
      vertex -25 -10 20
    endloop
  endfacet
  facet normal 0.555587 -0.831458 0
    outer loop
      vertex -18.0866 -14.6194 10
      vertex -16.4645 -13.5355 20
      vertex -18.0866 -14.6194 20
    endloop
  endfacet
  facet normal 0.555587 -0.831458 0
    outer loop
      vertex -16.4645 -13.5355 20
      vertex -18.0866 -14.6194 10
      vertex -16.4645 -13.5355 10
    endloop
  endfacet
  facet normal 0.831458 -0.555587 0
    outer loop
      vertex -16.4645 -13.5355 20
      vertex -15.3806 -11.9134 10
      vertex -15.3806 -11.9134 20
    endloop
  endfacet
  facet normal 0.831458 -0.555587 0
    outer loop
      vertex -15.3806 -11.9134 10
      vertex -16.4645 -13.5355 20
      vertex -16.4645 -13.5355 10
    endloop
  endfacet
  facet normal -0.980785 -0.195091 0
    outer loop
      vertex -24.6194 -11.9134 10
      vertex -25 -10 20
      vertex -25 -10 10
    endloop
  endfacet
  facet normal -0.980785 -0.195091 0
    outer loop
      vertex -25 -10 20
      vertex -24.6194 -11.9134 10
      vertex -24.6194 -11.9134 20
    endloop
  endfacet
  facet normal -0.555587 -0.831458 0
    outer loop
      vertex -23.5355 -13.5355 10
      vertex -21.9134 -14.6194 20
      vertex -23.5355 -13.5355 20
    endloop
  endfacet
  facet normal -0.555587 -0.831458 -0
    outer loop
      vertex -21.9134 -14.6194 20
      vertex -23.5355 -13.5355 10
      vertex -21.9134 -14.6194 10
    endloop
  endfacet
  facet normal -0.980785 0.195091 0
    outer loop
      vertex -25 10 10
      vertex -24.6194 11.9134 20
      vertex -24.6194 11.9134 10
    endloop
  endfacet
  facet normal -0.980785 0.195091 0
    outer loop
      vertex -24.6194 11.9134 20
      vertex -25 10 10
      vertex -25 10 20
    endloop
  endfacet
  facet normal 0.831458 0.555587 0
    outer loop
      vertex -15.3806 11.9134 20
      vertex -16.4645 13.5355 10
      vertex -16.4645 13.5355 20
    endloop
  endfacet
  facet normal 0.831458 0.555587 0
    outer loop
      vertex -16.4645 13.5355 10
      vertex -15.3806 11.9134 20
      vertex -15.3806 11.9134 10
    endloop
  endfacet
  facet normal 0.980785 0.195091 0
    outer loop
      vertex -15 10 20
      vertex -15.3806 11.9134 10
      vertex -15.3806 11.9134 20
    endloop
  endfacet
  facet normal 0.980785 0.195091 0
    outer loop
      vertex -15.3806 11.9134 10
      vertex -15 10 20
      vertex -15 10 10
    endloop
  endfacet
  facet normal -0.195091 -0.980785 0
    outer loop
      vertex -21.9134 5.3806 10
      vertex -20 5 20
      vertex -21.9134 5.3806 20
    endloop
  endfacet
  facet normal -0.195091 -0.980785 -0
    outer loop
      vertex -20 5 20
      vertex -21.9134 5.3806 10
      vertex -20 5 10
    endloop
  endfacet
  facet normal 0.555576 -0.831465 0
    outer loop
      vertex -18.0866 5.3806 10
      vertex -16.4645 6.46447 20
      vertex -18.0866 5.3806 20
    endloop
  endfacet
  facet normal 0.555576 -0.831465 0
    outer loop
      vertex -16.4645 6.46447 20
      vertex -18.0866 5.3806 10
      vertex -16.4645 6.46447 10
    endloop
  endfacet
  facet normal -0.555587 0.831458 0
    outer loop
      vertex -21.9134 14.6194 10
      vertex -23.5355 13.5355 20
      vertex -21.9134 14.6194 20
    endloop
  endfacet
  facet normal -0.555587 0.831458 0
    outer loop
      vertex -23.5355 13.5355 20
      vertex -21.9134 14.6194 10
      vertex -23.5355 13.5355 10
    endloop
  endfacet
  facet normal 0.980786 -0.195089 0
    outer loop
      vertex -15.3806 8.08658 20
      vertex -15 10 10
      vertex -15 10 20
    endloop
  endfacet
  facet normal 0.980786 -0.195089 0
    outer loop
      vertex -15 10 10
      vertex -15.3806 8.08658 20
      vertex -15.3806 8.08658 10
    endloop
  endfacet
  facet normal 0.195091 -0.980785 0
    outer loop
      vertex -20 5 10
      vertex -18.0866 5.3806 20
      vertex -20 5 20
    endloop
  endfacet
  facet normal 0.195091 -0.980785 0
    outer loop
      vertex -18.0866 5.3806 20
      vertex -20 5 10
      vertex -18.0866 5.3806 10
    endloop
  endfacet
  facet normal 0 0 1
    outer loop
      vertex -15.3806 11.9134 20
      vertex -15.3806 8.08658 20
      vertex -15 10 20
    endloop
  endfacet
  facet normal 0 0 1
    outer loop
      vertex -16.4645 13.5355 20
      vertex -15.3806 8.08658 20
      vertex -15.3806 11.9134 20
    endloop
  endfacet
  facet normal 0 0 1
    outer loop
      vertex -16.4645 13.5355 20
      vertex -16.4645 6.46447 20
      vertex -15.3806 8.08658 20
    endloop
  endfacet
  facet normal 0 0 1
    outer loop
      vertex -18.0866 14.6194 20
      vertex -16.4645 6.46447 20
      vertex -16.4645 13.5355 20
    endloop
  endfacet
  facet normal 0 0 1
    outer loop
      vertex -18.0866 14.6194 20
      vertex -18.0866 5.3806 20
      vertex -16.4645 6.46447 20
    endloop
  endfacet
  facet normal 0 0 1
    outer loop
      vertex -20 15 20
      vertex -18.0866 5.3806 20
      vertex -18.0866 14.6194 20
    endloop
  endfacet
  facet normal 0 0 1
    outer loop
      vertex -20 15 20
      vertex -20 5 20
      vertex -18.0866 5.3806 20
    endloop
  endfacet
  facet normal -0 0 1
    outer loop
      vertex -21.9134 14.6194 20
      vertex -20 5 20
      vertex -20 15 20
    endloop
  endfacet
  facet normal 0 0 1
    outer loop
      vertex -21.9134 14.6194 20
      vertex -21.9134 5.3806 20
      vertex -20 5 20
    endloop
  endfacet
  facet normal -0 0 1
    outer loop
      vertex -23.5355 13.5355 20
      vertex -21.9134 5.3806 20
      vertex -21.9134 14.6194 20
    endloop
  endfacet
  facet normal 0 0 1
    outer loop
      vertex -23.5355 13.5355 20
      vertex -23.5355 6.46447 20
      vertex -21.9134 5.3806 20
    endloop
  endfacet
  facet normal -0 0 1
    outer loop
      vertex -24.6194 11.9134 20
      vertex -23.5355 6.46447 20
      vertex -23.5355 13.5355 20
    endloop
  endfacet
  facet normal 0 0 1
    outer loop
      vertex -24.6194 11.9134 20
      vertex -24.6194 8.08658 20
      vertex -23.5355 6.46447 20
    endloop
  endfacet
  facet normal 0 -0 1
    outer loop
      vertex -24.6194 8.08658 20
      vertex -24.6194 11.9134 20
      vertex -25 10 20
    endloop
  endfacet
  facet normal 0.83146 -0.555585 0
    outer loop
      vertex -16.4645 6.46447 20
      vertex -15.3806 8.08658 10
      vertex -15.3806 8.08658 20
    endloop
  endfacet
  facet normal 0.83146 -0.555585 0
    outer loop
      vertex -15.3806 8.08658 10
      vertex -16.4645 6.46447 20
      vertex -16.4645 6.46447 10
    endloop
  endfacet
  facet normal 0.195091 0.980785 -0
    outer loop
      vertex -18.0866 14.6194 10
      vertex -20 15 20
      vertex -18.0866 14.6194 20
    endloop
  endfacet
  facet normal 0.195091 0.980785 0
    outer loop
      vertex -20 15 20
      vertex -18.0866 14.6194 10
      vertex -20 15 10
    endloop
  endfacet
  facet normal -0.195091 0.980785 0
    outer loop
      vertex -20 15 10
      vertex -21.9134 14.6194 20
      vertex -20 15 20
    endloop
  endfacet
  facet normal -0.195091 0.980785 0
    outer loop
      vertex -21.9134 14.6194 20
      vertex -20 15 10
      vertex -21.9134 14.6194 10
    endloop
  endfacet
  facet normal -0.831458 0.555587 0
    outer loop
      vertex -24.6194 11.9134 10
      vertex -23.5355 13.5355 20
      vertex -23.5355 13.5355 10
    endloop
  endfacet
  facet normal -0.831458 0.555587 0
    outer loop
      vertex -23.5355 13.5355 20
      vertex -24.6194 11.9134 10
      vertex -24.6194 11.9134 20
    endloop
  endfacet
  facet normal 0.555587 0.831458 -0
    outer loop
      vertex -16.4645 13.5355 10
      vertex -18.0866 14.6194 20
      vertex -16.4645 13.5355 20
    endloop
  endfacet
  facet normal 0.555587 0.831458 0
    outer loop
      vertex -18.0866 14.6194 20
      vertex -16.4645 13.5355 10
      vertex -18.0866 14.6194 10
    endloop
  endfacet
  facet normal -0.83146 -0.555585 0
    outer loop
      vertex -23.5355 6.46447 10
      vertex -24.6194 8.08658 20
      vertex -24.6194 8.08658 10
    endloop
  endfacet
  facet normal -0.83146 -0.555585 0
    outer loop
      vertex -24.6194 8.08658 20
      vertex -23.5355 6.46447 10
      vertex -23.5355 6.46447 20
    endloop
  endfacet
  facet normal -0.980786 -0.195089 0
    outer loop
      vertex -24.6194 8.08658 10
      vertex -25 10 20
      vertex -25 10 10
    endloop
  endfacet
  facet normal -0.980786 -0.195089 0
    outer loop
      vertex -25 10 20
      vertex -24.6194 8.08658 10
      vertex -24.6194 8.08658 20
    endloop
  endfacet
  facet normal 0 0 -1
    outer loop
      vertex -15.3806 8.08658 10
      vertex -15.3806 11.9134 10
      vertex -15 10 10
    endloop
  endfacet
  facet normal 0 0 -1
    outer loop
      vertex -16.4645 6.46447 10
      vertex -15.3806 11.9134 10
      vertex -15.3806 8.08658 10
    endloop
  endfacet
  facet normal 0 0 -1
    outer loop
      vertex -16.4645 6.46447 10
      vertex -16.4645 13.5355 10
      vertex -15.3806 11.9134 10
    endloop
  endfacet
  facet normal 0 0 -1
    outer loop
      vertex -18.0866 5.3806 10
      vertex -16.4645 13.5355 10
      vertex -16.4645 6.46447 10
    endloop
  endfacet
  facet normal 0 0 -1
    outer loop
      vertex -18.0866 5.3806 10
      vertex -18.0866 14.6194 10
      vertex -16.4645 13.5355 10
    endloop
  endfacet
  facet normal 0 0 -1
    outer loop
      vertex -20 5 10
      vertex -18.0866 14.6194 10
      vertex -18.0866 5.3806 10
    endloop
  endfacet
  facet normal 0 0 -1
    outer loop
      vertex -20 5 10
      vertex -20 15 10
      vertex -18.0866 14.6194 10
    endloop
  endfacet
  facet normal 0 0 -1
    outer loop
      vertex -21.9134 5.3806 10
      vertex -20 15 10
      vertex -20 5 10
    endloop
  endfacet
  facet normal 0 0 -1
    outer loop
      vertex -21.9134 5.3806 10
      vertex -21.9134 14.6194 10
      vertex -20 15 10
    endloop
  endfacet
  facet normal 0 0 -1
    outer loop
      vertex -23.5355 6.46447 10
      vertex -21.9134 14.6194 10
      vertex -21.9134 5.3806 10
    endloop
  endfacet
  facet normal 0 0 -1
    outer loop
      vertex -23.5355 6.46447 10
      vertex -23.5355 13.5355 10
      vertex -21.9134 14.6194 10
    endloop
  endfacet
  facet normal 0 0 -1
    outer loop
      vertex -24.6194 8.08658 10
      vertex -23.5355 13.5355 10
      vertex -23.5355 6.46447 10
    endloop
  endfacet
  facet normal 0 0 -1
    outer loop
      vertex -24.6194 8.08658 10
      vertex -24.6194 11.9134 10
      vertex -23.5355 13.5355 10
    endloop
  endfacet
  facet normal 0 -0 -1
    outer loop
      vertex -24.6194 11.9134 10
      vertex -24.6194 8.08658 10
      vertex -25 10 10
    endloop
  endfacet
  facet normal -0.555576 -0.831465 0
    outer loop
      vertex -23.5355 6.46447 10
      vertex -21.9134 5.3806 20
      vertex -23.5355 6.46447 20
    endloop
  endfacet
  facet normal -0.555576 -0.831465 -0
    outer loop
      vertex -21.9134 5.3806 20
      vertex -23.5355 6.46447 10
      vertex -21.9134 5.3806 10
    endloop
  endfacet
  facet normal -0.195091 -0.980785 0
    outer loop
      vertex 18.0866 -14.6194 10
      vertex 20 -15 20
      vertex 18.0866 -14.6194 20
    endloop
  endfacet
  facet normal -0.195091 -0.980785 -0
    outer loop
      vertex 20 -15 20
      vertex 18.0866 -14.6194 10
      vertex 20 -15 10
    endloop
  endfacet
  facet normal 0.831458 -0.555587 0
    outer loop
      vertex 23.5355 -13.5355 20
      vertex 24.6194 -11.9134 10
      vertex 24.6194 -11.9134 20
    endloop
  endfacet
  facet normal 0.831458 -0.555587 0
    outer loop
      vertex 24.6194 -11.9134 10
      vertex 23.5355 -13.5355 20
      vertex 23.5355 -13.5355 10
    endloop
  endfacet
  facet normal 0.83146 0.555585 0
    outer loop
      vertex 24.6194 -8.08658 20
      vertex 23.5355 -6.46447 10
      vertex 23.5355 -6.46447 20
    endloop
  endfacet
  facet normal 0.83146 0.555585 0
    outer loop
      vertex 23.5355 -6.46447 10
      vertex 24.6194 -8.08658 20
      vertex 24.6194 -8.08658 10
    endloop
  endfacet
  facet normal 0.980786 0.195089 0
    outer loop
      vertex 25 -10 20
      vertex 24.6194 -8.08658 10
      vertex 24.6194 -8.08658 20
    endloop
  endfacet
  facet normal 0.980786 0.195089 0
    outer loop
      vertex 24.6194 -8.08658 10
      vertex 25 -10 20
      vertex 25 -10 10
    endloop
  endfacet
  facet normal 0.555576 0.831465 -0
    outer loop
      vertex 23.5355 -6.46447 10
      vertex 21.9134 -5.3806 20
      vertex 23.5355 -6.46447 20
    endloop
  endfacet
  facet normal 0.555576 0.831465 0
    outer loop
      vertex 21.9134 -5.3806 20
      vertex 23.5355 -6.46447 10
      vertex 21.9134 -5.3806 10
    endloop
  endfacet
  facet normal 0.195091 0.980785 -0
    outer loop
      vertex 21.9134 -5.3806 10
      vertex 20 -5 20
      vertex 21.9134 -5.3806 20
    endloop
  endfacet
  facet normal 0.195091 0.980785 0
    outer loop
      vertex 20 -5 20
      vertex 21.9134 -5.3806 10
      vertex 20 -5 10
    endloop
  endfacet
  facet normal -0.980785 -0.195091 0
    outer loop
      vertex 15.3806 -11.9134 10
      vertex 15 -10 20
      vertex 15 -10 10
    endloop
  endfacet
  facet normal -0.980785 -0.195091 0
    outer loop
      vertex 15 -10 20
      vertex 15.3806 -11.9134 10
      vertex 15.3806 -11.9134 20
    endloop
  endfacet
  facet normal 0.555587 -0.831458 0
    outer loop
      vertex 21.9134 -14.6194 10
      vertex 23.5355 -13.5355 20
      vertex 21.9134 -14.6194 20
    endloop
  endfacet
  facet normal 0.555587 -0.831458 0
    outer loop
      vertex 23.5355 -13.5355 20
      vertex 21.9134 -14.6194 10
      vertex 23.5355 -13.5355 10
    endloop
  endfacet
  facet normal -0.83146 0.555585 0
    outer loop
      vertex 15.3806 -8.08658 10
      vertex 16.4645 -6.46447 20
      vertex 16.4645 -6.46447 10
    endloop
  endfacet
  facet normal -0.83146 0.555585 0
    outer loop
      vertex 16.4645 -6.46447 20
      vertex 15.3806 -8.08658 10
      vertex 15.3806 -8.08658 20
    endloop
  endfacet
  facet normal 0 0 1
    outer loop
      vertex 24.6194 -8.08658 20
      vertex 24.6194 -11.9134 20
      vertex 25 -10 20
    endloop
  endfacet
  facet normal 0 0 1
    outer loop
      vertex 23.5355 -6.46447 20
      vertex 24.6194 -11.9134 20
      vertex 24.6194 -8.08658 20
    endloop
  endfacet
  facet normal 0 0 1
    outer loop
      vertex 23.5355 -6.46447 20
      vertex 23.5355 -13.5355 20
      vertex 24.6194 -11.9134 20
    endloop
  endfacet
  facet normal 0 0 1
    outer loop
      vertex 21.9134 -5.3806 20
      vertex 23.5355 -13.5355 20
      vertex 23.5355 -6.46447 20
    endloop
  endfacet
  facet normal 0 0 1
    outer loop
      vertex 21.9134 -5.3806 20
      vertex 21.9134 -14.6194 20
      vertex 23.5355 -13.5355 20
    endloop
  endfacet
  facet normal 0 0 1
    outer loop
      vertex 20 -5 20
      vertex 21.9134 -14.6194 20
      vertex 21.9134 -5.3806 20
    endloop
  endfacet
  facet normal 0 0 1
    outer loop
      vertex 20 -5 20
      vertex 20 -15 20
      vertex 21.9134 -14.6194 20
    endloop
  endfacet
  facet normal -0 0 1
    outer loop
      vertex 18.0866 -5.3806 20
      vertex 20 -15 20
      vertex 20 -5 20
    endloop
  endfacet
  facet normal 0 0 1
    outer loop
      vertex 18.0866 -5.3806 20
      vertex 18.0866 -14.6194 20
      vertex 20 -15 20
    endloop
  endfacet
  facet normal -0 0 1
    outer loop
      vertex 16.4645 -6.46447 20
      vertex 18.0866 -14.6194 20
      vertex 18.0866 -5.3806 20
    endloop
  endfacet
  facet normal 0 0 1
    outer loop
      vertex 16.4645 -6.46447 20
      vertex 16.4645 -13.5355 20
      vertex 18.0866 -14.6194 20
    endloop
  endfacet
  facet normal -0 0 1
    outer loop
      vertex 15.3806 -8.08658 20
      vertex 16.4645 -13.5355 20
      vertex 16.4645 -6.46447 20
    endloop
  endfacet
  facet normal 0 0 1
    outer loop
      vertex 15.3806 -8.08658 20
      vertex 15.3806 -11.9134 20
      vertex 16.4645 -13.5355 20
    endloop
  endfacet
  facet normal 0 -0 1
    outer loop
      vertex 15.3806 -11.9134 20
      vertex 15.3806 -8.08658 20
      vertex 15 -10 20
    endloop
  endfacet
  facet normal -0.195091 0.980785 0
    outer loop
      vertex 20 -5 10
      vertex 18.0866 -5.3806 20
      vertex 20 -5 20
    endloop
  endfacet
  facet normal -0.195091 0.980785 0
    outer loop
      vertex 18.0866 -5.3806 20
      vertex 20 -5 10
      vertex 18.0866 -5.3806 10
    endloop
  endfacet
  facet normal -0.555576 0.831465 0
    outer loop
      vertex 18.0866 -5.3806 10
      vertex 16.4645 -6.46447 20
      vertex 18.0866 -5.3806 20
    endloop
  endfacet
  facet normal -0.555576 0.831465 0
    outer loop
      vertex 16.4645 -6.46447 20
      vertex 18.0866 -5.3806 10
      vertex 16.4645 -6.46447 10
    endloop
  endfacet
  facet normal 0.980785 -0.195091 0
    outer loop
      vertex 24.6194 -11.9134 20
      vertex 25 -10 10
      vertex 25 -10 20
    endloop
  endfacet
  facet normal 0.980785 -0.195091 0
    outer loop
      vertex 25 -10 10
      vertex 24.6194 -11.9134 20
      vertex 24.6194 -11.9134 10
    endloop
  endfacet
  facet normal -0.980786 0.195089 0
    outer loop
      vertex 15 -10 10
      vertex 15.3806 -8.08658 20
      vertex 15.3806 -8.08658 10
    endloop
  endfacet
  facet normal -0.980786 0.195089 0
    outer loop
      vertex 15.3806 -8.08658 20
      vertex 15 -10 10
      vertex 15 -10 20
    endloop
  endfacet
  facet normal -0.831458 -0.555587 0
    outer loop
      vertex 16.4645 -13.5355 10
      vertex 15.3806 -11.9134 20
      vertex 15.3806 -11.9134 10
    endloop
  endfacet
  facet normal -0.831458 -0.555587 0
    outer loop
      vertex 15.3806 -11.9134 20
      vertex 16.4645 -13.5355 10
      vertex 16.4645 -13.5355 20
    endloop
  endfacet
  facet normal 0.195091 -0.980785 0
    outer loop
      vertex 20 -15 10
      vertex 21.9134 -14.6194 20
      vertex 20 -15 20
    endloop
  endfacet
  facet normal 0.195091 -0.980785 0
    outer loop
      vertex 21.9134 -14.6194 20
      vertex 20 -15 10
      vertex 21.9134 -14.6194 10
    endloop
  endfacet
  facet normal -0.555587 -0.831458 0
    outer loop
      vertex 16.4645 -13.5355 10
      vertex 18.0866 -14.6194 20
      vertex 16.4645 -13.5355 20
    endloop
  endfacet
  facet normal -0.555587 -0.831458 -0
    outer loop
      vertex 18.0866 -14.6194 20
      vertex 16.4645 -13.5355 10
      vertex 18.0866 -14.6194 10
    endloop
  endfacet
  facet normal 0 0 -1
    outer loop
      vertex 24.6194 -11.9134 10
      vertex 24.6194 -8.08658 10
      vertex 25 -10 10
    endloop
  endfacet
  facet normal 0 0 -1
    outer loop
      vertex 23.5355 -13.5355 10
      vertex 24.6194 -8.08658 10
      vertex 24.6194 -11.9134 10
    endloop
  endfacet
  facet normal 0 0 -1
    outer loop
      vertex 23.5355 -13.5355 10
      vertex 23.5355 -6.46447 10
      vertex 24.6194 -8.08658 10
    endloop
  endfacet
  facet normal 0 0 -1
    outer loop
      vertex 21.9134 -14.6194 10
      vertex 23.5355 -6.46447 10
      vertex 23.5355 -13.5355 10
    endloop
  endfacet
  facet normal 0 0 -1
    outer loop
      vertex 21.9134 -14.6194 10
      vertex 21.9134 -5.3806 10
      vertex 23.5355 -6.46447 10
    endloop
  endfacet
  facet normal 0 0 -1
    outer loop
      vertex 20 -15 10
      vertex 21.9134 -5.3806 10
      vertex 21.9134 -14.6194 10
    endloop
  endfacet
  facet normal 0 0 -1
    outer loop
      vertex 20 -15 10
      vertex 20 -5 10
      vertex 21.9134 -5.3806 10
    endloop
  endfacet
  facet normal 0 0 -1
    outer loop
      vertex 18.0866 -14.6194 10
      vertex 20 -5 10
      vertex 20 -15 10
    endloop
  endfacet
  facet normal 0 0 -1
    outer loop
      vertex 18.0866 -14.6194 10
      vertex 18.0866 -5.3806 10
      vertex 20 -5 10
    endloop
  endfacet
  facet normal 0 0 -1
    outer loop
      vertex 16.4645 -13.5355 10
      vertex 18.0866 -5.3806 10
      vertex 18.0866 -14.6194 10
    endloop
  endfacet
  facet normal 0 0 -1
    outer loop
      vertex 16.4645 -13.5355 10
      vertex 16.4645 -6.46447 10
      vertex 18.0866 -5.3806 10
    endloop
  endfacet
  facet normal 0 0 -1
    outer loop
      vertex 15.3806 -11.9134 10
      vertex 16.4645 -6.46447 10
      vertex 16.4645 -13.5355 10
    endloop
  endfacet
  facet normal 0 0 -1
    outer loop
      vertex 15.3806 -11.9134 10
      vertex 15.3806 -8.08658 10
      vertex 16.4645 -6.46447 10
    endloop
  endfacet
  facet normal 0 -0 -1
    outer loop
      vertex 15.3806 -8.08658 10
      vertex 15.3806 -11.9134 10
      vertex 15 -10 10
    endloop
  endfacet
  facet normal 0.831458 0.555587 0
    outer loop
      vertex 24.6194 11.9134 20
      vertex 23.5355 13.5355 10
      vertex 23.5355 13.5355 20
    endloop
  endfacet
  facet normal 0.831458 0.555587 0
    outer loop
      vertex 23.5355 13.5355 10
      vertex 24.6194 11.9134 20
      vertex 24.6194 11.9134 10
    endloop
  endfacet
  facet normal 0.980785 0.195091 0
    outer loop
      vertex 25 10 20
      vertex 24.6194 11.9134 10
      vertex 24.6194 11.9134 20
    endloop
  endfacet
  facet normal 0.980785 0.195091 0
    outer loop
      vertex 24.6194 11.9134 10
      vertex 25 10 20
      vertex 25 10 10
    endloop
  endfacet
  facet normal 0.555587 0.831458 -0
    outer loop
      vertex 23.5355 13.5355 10
      vertex 21.9134 14.6194 20
      vertex 23.5355 13.5355 20
    endloop
  endfacet
  facet normal 0.555587 0.831458 0
    outer loop
      vertex 21.9134 14.6194 20
      vertex 23.5355 13.5355 10
      vertex 21.9134 14.6194 10
    endloop
  endfacet
  facet normal 0.83146 -0.555585 0
    outer loop
      vertex 23.5355 6.46447 20
      vertex 24.6194 8.08658 10
      vertex 24.6194 8.08658 20
    endloop
  endfacet
  facet normal 0.83146 -0.555585 0
    outer loop
      vertex 24.6194 8.08658 10
      vertex 23.5355 6.46447 20
      vertex 23.5355 6.46447 10
    endloop
  endfacet
  facet normal -0.195091 0.980785 0
    outer loop
      vertex 20 15 10
      vertex 18.0866 14.6194 20
      vertex 20 15 20
    endloop
  endfacet
  facet normal -0.195091 0.980785 0
    outer loop
      vertex 18.0866 14.6194 20
      vertex 20 15 10
      vertex 18.0866 14.6194 10
    endloop
  endfacet
  facet normal -0.831458 0.555587 0
    outer loop
      vertex 15.3806 11.9134 10
      vertex 16.4645 13.5355 20
      vertex 16.4645 13.5355 10
    endloop
  endfacet
  facet normal -0.831458 0.555587 0
    outer loop
      vertex 16.4645 13.5355 20
      vertex 15.3806 11.9134 10
      vertex 15.3806 11.9134 20
    endloop
  endfacet
  facet normal -0.980785 0.195091 0
    outer loop
      vertex 15 10 10
      vertex 15.3806 11.9134 20
      vertex 15.3806 11.9134 10
    endloop
  endfacet
  facet normal -0.980785 0.195091 0
    outer loop
      vertex 15.3806 11.9134 20
      vertex 15 10 10
      vertex 15 10 20
    endloop
  endfacet
  facet normal 0.195091 -0.980785 0
    outer loop
      vertex 20 5 10
      vertex 21.9134 5.3806 20
      vertex 20 5 20
    endloop
  endfacet
  facet normal 0.195091 -0.980785 0
    outer loop
      vertex 21.9134 5.3806 20
      vertex 20 5 10
      vertex 21.9134 5.3806 10
    endloop
  endfacet
  facet normal -0.195091 -0.980785 0
    outer loop
      vertex 18.0866 5.3806 10
      vertex 20 5 20
      vertex 18.0866 5.3806 20
    endloop
  endfacet
  facet normal -0.195091 -0.980785 -0
    outer loop
      vertex 20 5 20
      vertex 18.0866 5.3806 10
      vertex 20 5 10
    endloop
  endfacet
  facet normal -0.980786 -0.195089 0
    outer loop
      vertex 15.3806 8.08658 10
      vertex 15 10 20
      vertex 15 10 10
    endloop
  endfacet
  facet normal -0.980786 -0.195089 0
    outer loop
      vertex 15 10 20
      vertex 15.3806 8.08658 10
      vertex 15.3806 8.08658 20
    endloop
  endfacet
  facet normal 0.195091 0.980785 -0
    outer loop
      vertex 21.9134 14.6194 10
      vertex 20 15 20
      vertex 21.9134 14.6194 20
    endloop
  endfacet
  facet normal 0.195091 0.980785 0
    outer loop
      vertex 20 15 20
      vertex 21.9134 14.6194 10
      vertex 20 15 10
    endloop
  endfacet
  facet normal 0.980786 -0.195089 0
    outer loop
      vertex 24.6194 8.08658 20
      vertex 25 10 10
      vertex 25 10 20
    endloop
  endfacet
  facet normal 0.980786 -0.195089 0
    outer loop
      vertex 25 10 10
      vertex 24.6194 8.08658 20
      vertex 24.6194 8.08658 10
    endloop
  endfacet
  facet normal 0.555576 -0.831465 0
    outer loop
      vertex 21.9134 5.3806 10
      vertex 23.5355 6.46447 20
      vertex 21.9134 5.3806 20
    endloop
  endfacet
  facet normal 0.555576 -0.831465 0
    outer loop
      vertex 23.5355 6.46447 20
      vertex 21.9134 5.3806 10
      vertex 23.5355 6.46447 10
    endloop
  endfacet
  facet normal -0.83146 -0.555585 0
    outer loop
      vertex 16.4645 6.46447 10
      vertex 15.3806 8.08658 20
      vertex 15.3806 8.08658 10
    endloop
  endfacet
  facet normal -0.83146 -0.555585 0
    outer loop
      vertex 15.3806 8.08658 20
      vertex 16.4645 6.46447 10
      vertex 16.4645 6.46447 20
    endloop
  endfacet
  facet normal -0.555587 0.831458 0
    outer loop
      vertex 18.0866 14.6194 10
      vertex 16.4645 13.5355 20
      vertex 18.0866 14.6194 20
    endloop
  endfacet
  facet normal -0.555587 0.831458 0
    outer loop
      vertex 16.4645 13.5355 20
      vertex 18.0866 14.6194 10
      vertex 16.4645 13.5355 10
    endloop
  endfacet
  facet normal -0.555576 -0.831465 0
    outer loop
      vertex 16.4645 6.46447 10
      vertex 18.0866 5.3806 20
      vertex 16.4645 6.46447 20
    endloop
  endfacet
  facet normal -0.555576 -0.831465 -0
    outer loop
      vertex 18.0866 5.3806 20
      vertex 16.4645 6.46447 10
      vertex 18.0866 5.3806 10
    endloop
  endfacet
  facet normal 0 0 -1
    outer loop
      vertex 24.6194 8.08658 10
      vertex 24.6194 11.9134 10
      vertex 25 10 10
    endloop
  endfacet
  facet normal 0 0 -1
    outer loop
      vertex 23.5355 6.46447 10
      vertex 24.6194 11.9134 10
      vertex 24.6194 8.08658 10
    endloop
  endfacet
  facet normal 0 0 -1
    outer loop
      vertex 23.5355 6.46447 10
      vertex 23.5355 13.5355 10
      vertex 24.6194 11.9134 10
    endloop
  endfacet
  facet normal 0 0 -1
    outer loop
      vertex 21.9134 5.3806 10
      vertex 23.5355 13.5355 10
      vertex 23.5355 6.46447 10
    endloop
  endfacet
  facet normal 0 0 -1
    outer loop
      vertex 21.9134 5.3806 10
      vertex 21.9134 14.6194 10
      vertex 23.5355 13.5355 10
    endloop
  endfacet
  facet normal 0 0 -1
    outer loop
      vertex 20 5 10
      vertex 21.9134 14.6194 10
      vertex 21.9134 5.3806 10
    endloop
  endfacet
  facet normal 0 0 -1
    outer loop
      vertex 20 5 10
      vertex 20 15 10
      vertex 21.9134 14.6194 10
    endloop
  endfacet
  facet normal 0 0 -1
    outer loop
      vertex 18.0866 5.3806 10
      vertex 20 15 10
      vertex 20 5 10
    endloop
  endfacet
  facet normal 0 0 -1
    outer loop
      vertex 18.0866 5.3806 10
      vertex 18.0866 14.6194 10
      vertex 20 15 10
    endloop
  endfacet
  facet normal 0 0 -1
    outer loop
      vertex 16.4645 6.46447 10
      vertex 18.0866 14.6194 10
      vertex 18.0866 5.3806 10
    endloop
  endfacet
  facet normal 0 0 -1
    outer loop
      vertex 16.4645 6.46447 10
      vertex 16.4645 13.5355 10
      vertex 18.0866 14.6194 10
    endloop
  endfacet
  facet normal 0 0 -1
    outer loop
      vertex 15.3806 8.08658 10
      vertex 16.4645 13.5355 10
      vertex 16.4645 6.46447 10
    endloop
  endfacet
  facet normal 0 0 -1
    outer loop
      vertex 15.3806 8.08658 10
      vertex 15.3806 11.9134 10
      vertex 16.4645 13.5355 10
    endloop
  endfacet
  facet normal 0 -0 -1
    outer loop
      vertex 15.3806 11.9134 10
      vertex 15.3806 8.08658 10
      vertex 15 10 10
    endloop
  endfacet
  facet normal 0 0 1
    outer loop
      vertex 24.6194 11.9134 20
      vertex 24.6194 8.08658 20
      vertex 25 10 20
    endloop
  endfacet
  facet normal 0 0 1
    outer loop
      vertex 23.5355 13.5355 20
      vertex 24.6194 8.08658 20
      vertex 24.6194 11.9134 20
    endloop
  endfacet
  facet normal 0 0 1
    outer loop
      vertex 23.5355 13.5355 20
      vertex 23.5355 6.46447 20
      vertex 24.6194 8.08658 20
    endloop
  endfacet
  facet normal 0 0 1
    outer loop
      vertex 21.9134 14.6194 20
      vertex 23.5355 6.46447 20
      vertex 23.5355 13.5355 20
    endloop
  endfacet
  facet normal 0 0 1
    outer loop
      vertex 21.9134 14.6194 20
      vertex 21.9134 5.3806 20
      vertex 23.5355 6.46447 20
    endloop
  endfacet
  facet normal 0 0 1
    outer loop
      vertex 20 15 20
      vertex 21.9134 5.3806 20
      vertex 21.9134 14.6194 20
    endloop
  endfacet
  facet normal 0 0 1
    outer loop
      vertex 20 15 20
      vertex 20 5 20
      vertex 21.9134 5.3806 20
    endloop
  endfacet
  facet normal -0 0 1
    outer loop
      vertex 18.0866 14.6194 20
      vertex 20 5 20
      vertex 20 15 20
    endloop
  endfacet
  facet normal 0 0 1
    outer loop
      vertex 18.0866 14.6194 20
      vertex 18.0866 5.3806 20
      vertex 20 5 20
    endloop
  endfacet
  facet normal -0 0 1
    outer loop
      vertex 16.4645 13.5355 20
      vertex 18.0866 5.3806 20
      vertex 18.0866 14.6194 20
    endloop
  endfacet
  facet normal 0 0 1
    outer loop
      vertex 16.4645 13.5355 20
      vertex 16.4645 6.46447 20
      vertex 18.0866 5.3806 20
    endloop
  endfacet
  facet normal -0 0 1
    outer loop
      vertex 15.3806 11.9134 20
      vertex 16.4645 6.46447 20
      vertex 16.4645 13.5355 20
    endloop
  endfacet
  facet normal 0 0 1
    outer loop
      vertex 15.3806 11.9134 20
      vertex 15.3806 8.08658 20
      vertex 16.4645 6.46447 20
    endloop
  endfacet
  facet normal 0 -0 1
    outer loop
      vertex 15.3806 8.08658 20
      vertex 15.3806 11.9134 20
      vertex 15 10 20
    endloop
  endfacet
endsolid OpenSCAD_Model
