solid OpenSCAD_Model
  facet normal -0 0 1
    outer loop
      vertex 0 40 10
      vertex 70 0 10
      vertex 70 40 10
    endloop
  endfacet
  facet normal 0 0 1
    outer loop
      vertex 70 0 10
      vertex 0 40 10
      vertex 0 0 10
    endloop
  endfacet
  facet normal 0 0 -1
    outer loop
      vertex 0 0 -10
      vertex 70 40 -10
      vertex 70 0 -10
    endloop
  endfacet
  facet normal -0 0 -1
    outer loop
      vertex 70 40 -10
      vertex 0 0 -10
      vertex 0 40 -10
    endloop
  endfacet
  facet normal 0 -1 0
    outer loop
      vertex 0 0 -10
      vertex 70 0 10
      vertex 0 0 10
    endloop
  endfacet
  facet normal 0 -1 -0
    outer loop
      vertex 70 0 10
      vertex 0 0 -10
      vertex 70 0 -10
    endloop
  endfacet
  facet normal 1 -0 0
    outer loop
      vertex 70 0 10
      vertex 70 40 -10
      vertex 70 40 10
    endloop
  endfacet
  facet normal 1 0 0
    outer loop
      vertex 70 40 -10
      vertex 70 0 10
      vertex 70 0 -10
    endloop
  endfacet
  facet normal 0 1 -0
    outer loop
      vertex 70 40 -10
      vertex 0 40 10
      vertex 70 40 10
    endloop
  endfacet
  facet normal 0 1 0
    outer loop
      vertex 0 40 10
      vertex 70 40 -10
      vertex 0 40 -10
    endloop
  endfacet
  facet normal -1 0 0
    outer loop
      vertex 0 0 -10
      vertex 0 40 10
      vertex 0 40 -10
    endloop
  endfacet
  facet normal -1 -0 0
    outer loop
      vertex 0 40 10
      vertex 0 0 -10
      vertex 0 0 10
    endloop
  endfacet
endsolid OpenSCAD_Model
