solid OpenSCAD_Model
  facet normal 1 -0 0
    outer loop
      vertex 60 0 20
      vertex 60 40 0
      vertex 60 40 20
    endloop
  endfacet
  facet normal 1 0 0
    outer loop
      vertex 60 40 0
      vertex 60 0 20
      vertex 60 0 0
    endloop
  endfacet
  facet normal 0 0 1
    outer loop
      vertex 60 40 20
      vertex 50 30 20
      vertex 60 0 20
    endloop
  endfacet
  facet normal 0 0 1
    outer loop
      vertex 60 40 20
      vertex 34.1421 30 20
      vertex 50 30 20
    endloop
  endfacet
  facet normal 0 0 1
    outer loop
      vertex 34.1421 30 20
      vertex 0 40 20
      vertex 34.1421 10 20
    endloop
  endfacet
  facet normal -0 0 1
    outer loop
      vertex 0 40 20
      vertex 34.1421 30 20
      vertex 60 40 20
    endloop
  endfacet
  facet normal -0 0 1
    outer loop
      vertex 50 10 20
      vertex 60 0 20
      vertex 50 30 20
    endloop
  endfacet
  facet normal -0 0 1
    outer loop
      vertex 34.1421 10 20
      vertex 60 0 20
      vertex 50 10 20
    endloop
  endfacet
  facet normal 0 0 1
    outer loop
      vertex 34.1421 10 20
      vertex 0 0 20
      vertex 60 0 20
    endloop
  endfacet
  facet normal 0 0 1
    outer loop
      vertex 0 0 20
      vertex 34.1421 10 20
      vertex 0 40 20
    endloop
  endfacet
  facet normal 0 0 -1
    outer loop
      vertex 28.2843 0 0
      vertex 60 40 0
      vertex 60 0 0
    endloop
  endfacet
  facet normal -0 0 -1
    outer loop
      vertex 60 40 0
      vertex 28.2843 0 0
      vertex 28.2843 40 0
    endloop
  endfacet
  facet normal -1 0 0
    outer loop
      vertex 0 0 0
      vertex 0 40 20
      vertex 0 40 0
    endloop
  endfacet
  facet normal -1 -0 0
    outer loop
      vertex 0 40 20
      vertex 0 0 0
      vertex 0 0 20
    endloop
  endfacet
  facet normal 0 1 0
    outer loop
      vertex 60 40 20
      vertex 14.1421 40 14.1421
      vertex 0 40 20
    endloop
  endfacet
  facet normal 0 1 0
    outer loop
      vertex 28.2843 40 0
      vertex 60 40 20
      vertex 60 40 0
    endloop
  endfacet
  facet normal 0 1 0
    outer loop
      vertex 60 40 20
      vertex 28.2843 40 0
      vertex 14.1421 40 14.1421
    endloop
  endfacet
  facet normal 0 1 0
    outer loop
      vertex 0 40 20
      vertex 14.1421 40 14.1421
      vertex 0 40 0
    endloop
  endfacet
  facet normal 0 -1 0
    outer loop
      vertex 0 0 20
      vertex 14.1421 0 14.1421
      vertex 60 0 20
    endloop
  endfacet
  facet normal -0 -1 0
    outer loop
      vertex 14.1421 0 14.1421
      vertex 0 0 20
      vertex 0 0 0
    endloop
  endfacet
  facet normal 0 -1 0
    outer loop
      vertex 28.2843 0 0
      vertex 60 0 20
      vertex 14.1421 0 14.1421
    endloop
  endfacet
  facet normal 0 -1 -0
    outer loop
      vertex 60 0 20
      vertex 28.2843 0 0
      vertex 60 0 0
    endloop
  endfacet
  facet normal -0.707104 0 -0.707109
    outer loop
      vertex 28.2843 0 0
      vertex 14.1421 40 14.1421
      vertex 28.2843 40 0
    endloop
  endfacet
  facet normal -0.707104 -0 -0.707109
    outer loop
      vertex 14.1421 40 14.1421
      vertex 28.2843 0 0
      vertex 14.1421 0 14.1421
    endloop
  endfacet
  facet normal 0.707107 0 -0.707107
    outer loop
      vertex 14.1421 0 14.1421
      vertex 0 40 0
      vertex 14.1421 40 14.1421
    endloop
  endfacet
  facet normal 0.707107 0 -0.707107
    outer loop
      vertex 0 40 0
      vertex 14.1421 0 14.1421
      vertex 0 0 0
    endloop
  endfacet
  facet normal 1 -0 0
    outer loop
      vertex 50 10 30
      vertex 50 30 20
      vertex 50 30 30
    endloop
  endfacet
  facet normal 1 0 0
    outer loop
      vertex 50 30 20
      vertex 50 10 30
      vertex 50 10 20
    endloop
  endfacet
  facet normal 0 0 1
    outer loop
      vertex 50 30 30
      vertex 40 25 30
      vertex 50 10 30
    endloop
  endfacet
  facet normal 0 0 1
    outer loop
      vertex 50 30 30
      vertex 30 25 30
      vertex 40 25 30
    endloop
  endfacet
  facet normal 0 0 1
    outer loop
      vertex 30 25 30
      vertex 20 30 30
      vertex 30 15 30
    endloop
  endfacet
  facet normal -0 0 1
    outer loop
      vertex 20 30 30
      vertex 30 25 30
      vertex 50 30 30
    endloop
  endfacet
  facet normal -0 0 1
    outer loop
      vertex 40 15 30
      vertex 50 10 30
      vertex 40 25 30
    endloop
  endfacet
  facet normal -0 0 1
    outer loop
      vertex 30 15 30
      vertex 50 10 30
      vertex 40 15 30
    endloop
  endfacet
  facet normal 0 0 1
    outer loop
      vertex 30 15 30
      vertex 20 10 30
      vertex 50 10 30
    endloop
  endfacet
  facet normal 0 0 1
    outer loop
      vertex 20 10 30
      vertex 30 15 30
      vertex 20 30 30
    endloop
  endfacet
  facet normal -1 0 0
    outer loop
      vertex 20 10 20
      vertex 20 30 30
      vertex 20 30 20
    endloop
  endfacet
  facet normal -1 -0 0
    outer loop
      vertex 20 30 30
      vertex 20 10 20
      vertex 20 10 30
    endloop
  endfacet
  facet normal 0 1 0
    outer loop
      vertex 50 30 30
      vertex 27.0711 30 27.0711
      vertex 20 30 30
    endloop
  endfacet
  facet normal 0 1 0
    outer loop
      vertex 34.1421 30 20
      vertex 50 30 30
      vertex 50 30 20
    endloop
  endfacet
  facet normal 0 1 0
    outer loop
      vertex 50 30 30
      vertex 34.1421 30 20
      vertex 27.0711 30 27.0711
    endloop
  endfacet
  facet normal 0 1 0
    outer loop
      vertex 20 30 30
      vertex 27.0711 30 27.0711
      vertex 20 30 20
    endloop
  endfacet
  facet normal 0 -1 0
    outer loop
      vertex 20 10 30
      vertex 27.0711 10 27.0711
      vertex 50 10 30
    endloop
  endfacet
  facet normal -0 -1 0
    outer loop
      vertex 27.0711 10 27.0711
      vertex 20 10 30
      vertex 20 10 20
    endloop
  endfacet
  facet normal 0 -1 0
    outer loop
      vertex 34.1421 10 20
      vertex 50 10 30
      vertex 27.0711 10 27.0711
    endloop
  endfacet
  facet normal 0 -1 -0
    outer loop
      vertex 50 10 30
      vertex 34.1421 10 20
      vertex 50 10 20
    endloop
  endfacet
  facet normal -0.707112 0 -0.707102
    outer loop
      vertex 34.1421 10 20
      vertex 27.0711 30 27.0711
      vertex 34.1421 30 20
    endloop
  endfacet
  facet normal -0.707112 -0 -0.707102
    outer loop
      vertex 27.0711 30 27.0711
      vertex 34.1421 10 20
      vertex 27.0711 10 27.0711
    endloop
  endfacet
  facet normal 0.707107 0 -0.707107
    outer loop
      vertex 27.0711 10 27.0711
      vertex 20 30 20
      vertex 27.0711 30 27.0711
    endloop
  endfacet
  facet normal 0.707107 0 -0.707107
    outer loop
      vertex 20 30 20
      vertex 27.0711 10 27.0711
      vertex 20 10 20
    endloop
  endfacet
  facet normal 1 -0 0
    outer loop
      vertex 40 15 40
      vertex 40 25 30
      vertex 40 25 40
    endloop
  endfacet
  facet normal 1 0 0
    outer loop
      vertex 40 25 30
      vertex 40 15 40
      vertex 40 15 30
    endloop
  endfacet
  facet normal -0 0 1
    outer loop
      vertex 30 25 40
      vertex 40 15 40
      vertex 40 25 40
    endloop
  endfacet
  facet normal 0 0 1
    outer loop
      vertex 40 15 40
      vertex 30 25 40
      vertex 30 15 40
    endloop
  endfacet
  facet normal -1 0 0
    outer loop
      vertex 30 15 30
      vertex 30 25 40
      vertex 30 25 30
    endloop
  endfacet
  facet normal -1 -0 0
    outer loop
      vertex 30 25 40
      vertex 30 15 30
      vertex 30 15 40
    endloop
  endfacet
  facet normal 0 1 -0
    outer loop
      vertex 40 25 30
      vertex 30 25 40
      vertex 40 25 40
    endloop
  endfacet
  facet normal 0 1 0
    outer loop
      vertex 30 25 40
      vertex 40 25 30
      vertex 30 25 30
    endloop
  endfacet
  facet normal 0 -1 0
    outer loop
      vertex 30 15 30
      vertex 40 15 40
      vertex 30 15 40
    endloop
  endfacet
  facet normal 0 -1 -0
    outer loop
      vertex 40 15 40
      vertex 30 15 30
      vertex 40 15 30
    endloop
  endfacet
endsolid OpenSCAD_Model
