solid OpenSCAD_Model
  facet normal 1 -0 0
    outer loop
      vertex 20 0 30
      vertex 20 10 20
      vertex 20 10 30
    endloop
  endfacet
  facet normal 1 0 0
    outer loop
      vertex 20 10 20
      vertex 20 0 30
      vertex 20 0 20
    endloop
  endfacet
  facet normal -0 0 1
    outer loop
      vertex 0 10 30
      vertex 6.83272 0 30
      vertex 6.83272 10 30
    endloop
  endfacet
  facet normal 0 0 1
    outer loop
      vertex 6.83272 0 30
      vertex 0 10 30
      vertex 0 0 30
    endloop
  endfacet
  facet normal -0 0 1
    outer loop
      vertex 13.3067 10 30
      vertex 20 0 30
      vertex 20 10 30
    endloop
  endfacet
  facet normal 0 0 1
    outer loop
      vertex 20 0 30
      vertex 13.3067 10 30
      vertex 13.3067 0 30
    endloop
  endfacet
  facet normal 0 0 -1
    outer loop
      vertex 13.3067 0 20
      vertex 20 10 20
      vertex 20 0 20
    endloop
  endfacet
  facet normal -0 0 -1
    outer loop
      vertex 20 10 20
      vertex 13.3067 0 20
      vertex 13.3067 10 20
    endloop
  endfacet
  facet normal 0 0 -1
    outer loop
      vertex 0 0 20
      vertex 6.83272 10 20
      vertex 6.83272 0 20
    endloop
  endfacet
  facet normal -0 0 -1
    outer loop
      vertex 6.83272 10 20
      vertex 0 0 20
      vertex 0 10 20
    endloop
  endfacet
  facet normal -1 0 0
    outer loop
      vertex 0 0 20
      vertex 0 10 30
      vertex 0 10 20
    endloop
  endfacet
  facet normal -1 -0 0
    outer loop
      vertex 0 10 30
      vertex 0 0 20
      vertex 0 0 30
    endloop
  endfacet
  facet normal 0 1 -0
    outer loop
      vertex 5.93631 10 29.4143
      vertex 0 10 30
      vertex 6.83272 10 30
    endloop
  endfacet
  facet normal 0 1 -0
    outer loop
      vertex 4.72316 10 27.8557
      vertex 0 10 30
      vertex 5.93631 10 29.4143
    endloop
  endfacet
  facet normal 0 1 0
    outer loop
      vertex 3.19806 10 25.8678
      vertex 4.72316 10 27.8557
      vertex 4.35836 10 26.7931
    endloop
  endfacet
  facet normal 0 1 0
    outer loop
      vertex 4.72316 10 27.8557
      vertex 3.19806 10 25.8678
      vertex 0 10 30
    endloop
  endfacet
  facet normal 0 1 -0
    outer loop
      vertex 3.19806 10 24.1322
      vertex 0 10 30
      vertex 3.19806 10 25.8678
    endloop
  endfacet
  facet normal 0 1 0
    outer loop
      vertex 4.72316 10 22.1443
      vertex 3.19806 10 24.1322
      vertex 4.35836 10 23.2069
    endloop
  endfacet
  facet normal 0 1 0
    outer loop
      vertex 3.19806 10 24.1322
      vertex 0 10 20
      vertex 0 10 30
    endloop
  endfacet
  facet normal 0 1 0
    outer loop
      vertex 4.72316 10 22.1443
      vertex 0 10 20
      vertex 3.19806 10 24.1322
    endloop
  endfacet
  facet normal 0 1 0
    outer loop
      vertex 5.93631 10 20.5857
      vertex 0 10 20
      vertex 4.72316 10 22.1443
    endloop
  endfacet
  facet normal 0 1 0
    outer loop
      vertex 0 10 20
      vertex 5.93631 10 20.5857
      vertex 6.83272 10 20
    endloop
  endfacet
  facet normal 0 1 0
    outer loop
      vertex 20 10 30
      vertex 14.7348 10 28.6853
      vertex 13.3067 10 30
    endloop
  endfacet
  facet normal 0 1 0
    outer loop
      vertex 20 10 30
      vertex 15.6749 10 26.9482
      vertex 14.7348 10 28.6853
    endloop
  endfacet
  facet normal 0 1 0
    outer loop
      vertex 20 10 30
      vertex 16 10 25
      vertex 15.6749 10 26.9482
    endloop
  endfacet
  facet normal 0 1 -0
    outer loop
      vertex 20 10 20
      vertex 16 10 25
      vertex 20 10 30
    endloop
  endfacet
  facet normal 0 1 0
    outer loop
      vertex 16 10 25
      vertex 20 10 20
      vertex 15.6749 10 23.0518
    endloop
  endfacet
  facet normal 0 1 0
    outer loop
      vertex 15.6749 10 23.0518
      vertex 20 10 20
      vertex 14.7348 10 21.3147
    endloop
  endfacet
  facet normal 0 1 0
    outer loop
      vertex 14.7348 10 21.3147
      vertex 20 10 20
      vertex 13.3067 10 20
    endloop
  endfacet
  facet normal 0 -1 0
    outer loop
      vertex 0 0 30
      vertex 5.93631 0 29.4143
      vertex 6.83272 0 30
    endloop
  endfacet
  facet normal 0 -1 0
    outer loop
      vertex 0 0 30
      vertex 4.72316 0 27.8557
      vertex 5.93631 0 29.4143
    endloop
  endfacet
  facet normal 0 -1 0
    outer loop
      vertex 3.19806 0 25.8678
      vertex 4.72316 0 27.8557
      vertex 0 0 30
    endloop
  endfacet
  facet normal 0 -1 0
    outer loop
      vertex 4.72316 0 27.8557
      vertex 3.19806 0 25.8678
      vertex 4.35836 0 26.7931
    endloop
  endfacet
  facet normal 0 -1 0
    outer loop
      vertex 0 0 30
      vertex 3.19806 0 24.1322
      vertex 3.19806 0 25.8678
    endloop
  endfacet
  facet normal 0 -1 0
    outer loop
      vertex 3.19806 0 24.1322
      vertex 4.72316 0 22.1443
      vertex 4.35836 0 23.2069
    endloop
  endfacet
  facet normal 0 -1 0
    outer loop
      vertex 0 0 20
      vertex 3.19806 0 24.1322
      vertex 0 0 30
    endloop
  endfacet
  facet normal 0 -1 0
    outer loop
      vertex 0 0 20
      vertex 4.72316 0 22.1443
      vertex 3.19806 0 24.1322
    endloop
  endfacet
  facet normal 0 -1 0
    outer loop
      vertex 0 0 20
      vertex 5.93631 0 20.5857
      vertex 4.72316 0 22.1443
    endloop
  endfacet
  facet normal 0 -1 -0
    outer loop
      vertex 5.93631 0 20.5857
      vertex 0 0 20
      vertex 6.83272 0 20
    endloop
  endfacet
  facet normal 0 -1 0
    outer loop
      vertex 14.7348 0 28.6853
      vertex 20 0 30
      vertex 13.3067 0 30
    endloop
  endfacet
  facet normal 0 -1 0
    outer loop
      vertex 15.6749 0 26.9482
      vertex 20 0 30
      vertex 14.7348 0 28.6853
    endloop
  endfacet
  facet normal 0 -1 0
    outer loop
      vertex 16 0 25
      vertex 20 0 30
      vertex 15.6749 0 26.9482
    endloop
  endfacet
  facet normal 0 -1 0
    outer loop
      vertex 20 0 20
      vertex 16 0 25
      vertex 15.6749 0 23.0518
    endloop
  endfacet
  facet normal 0 -1 0
    outer loop
      vertex 20 0 20
      vertex 15.6749 0 23.0518
      vertex 14.7348 0 21.3147
    endloop
  endfacet
  facet normal 0 -1 0
    outer loop
      vertex 16 0 25
      vertex 20 0 20
      vertex 20 0 30
    endloop
  endfacet
  facet normal 0 -1 0
    outer loop
      vertex 20 0 20
      vertex 14.7348 0 21.3147
      vertex 13.3067 0 20
    endloop
  endfacet
  facet normal 0.945815 0 -0.324707
    outer loop
      vertex 4.72316 0 27.8557
      vertex 4.35836 10 26.7931
      vertex 4.72316 10 27.8557
    endloop
  endfacet
  facet normal 0.945815 0 -0.324707
    outer loop
      vertex 4.35836 10 26.7931
      vertex 4.72316 0 27.8557
      vertex 4.35836 0 26.7931
    endloop
  endfacet
  facet normal -0.986361 0 -0.164596
    outer loop
      vertex 16 0 25
      vertex 15.6749 10 26.9482
      vertex 16 10 25
    endloop
  endfacet
  facet normal -0.986361 -0 -0.164596
    outer loop
      vertex 15.6749 10 26.9482
      vertex 16 0 25
      vertex 15.6749 0 26.9482
    endloop
  endfacet
  facet normal 0.546978 0 0.837147
    outer loop
      vertex 5.93631 10 20.5857
      vertex 6.83272 0 20
      vertex 6.83272 10 20
    endloop
  endfacet
  facet normal 0.546978 0 0.837147
    outer loop
      vertex 6.83272 0 20
      vertex 5.93631 10 20.5857
      vertex 5.93631 0 20.5857
    endloop
  endfacet
  facet normal -0.879468 0 -0.475959
    outer loop
      vertex 15.6749 0 26.9482
      vertex 14.7348 10 28.6853
      vertex 15.6749 10 26.9482
    endloop
  endfacet
  facet normal -0.879468 -0 -0.475959
    outer loop
      vertex 14.7348 10 28.6853
      vertex 15.6749 0 26.9482
      vertex 14.7348 0 28.6853
    endloop
  endfacet
  facet normal -0.879468 0 0.475959
    outer loop
      vertex 14.7348 0 21.3147
      vertex 15.6749 10 23.0518
      vertex 14.7348 10 21.3147
    endloop
  endfacet
  facet normal -0.879468 0 0.475959
    outer loop
      vertex 15.6749 10 23.0518
      vertex 14.7348 0 21.3147
      vertex 15.6749 0 23.0518
    endloop
  endfacet
  facet normal -0.677293 0 -0.735713
    outer loop
      vertex 13.3067 0 30
      vertex 14.7348 10 28.6853
      vertex 14.7348 0 28.6853
    endloop
  endfacet
  facet normal -0.677293 0 -0.735713
    outer loop
      vertex 14.7348 10 28.6853
      vertex 13.3067 0 30
      vertex 13.3067 10 30
    endloop
  endfacet
  facet normal 0.78913 0 -0.614226
    outer loop
      vertex 5.93631 0 29.4143
      vertex 4.72316 10 27.8557
      vertex 5.93631 10 29.4143
    endloop
  endfacet
  facet normal 0.78913 0 -0.614226
    outer loop
      vertex 4.72316 10 27.8557
      vertex 5.93631 0 29.4143
      vertex 4.72316 0 27.8557
    endloop
  endfacet
  facet normal 0.945815 -0 0.324707
    outer loop
      vertex 4.35836 0 23.2069
      vertex 4.72316 10 22.1443
      vertex 4.35836 10 23.2069
    endloop
  endfacet
  facet normal 0.945815 0 0.324707
    outer loop
      vertex 4.72316 10 22.1443
      vertex 4.35836 0 23.2069
      vertex 4.72316 0 22.1443
    endloop
  endfacet
  facet normal 0.78913 -0 0.614226
    outer loop
      vertex 4.72316 0 22.1443
      vertex 5.93631 10 20.5857
      vertex 4.72316 10 22.1443
    endloop
  endfacet
  facet normal 0.78913 0 0.614226
    outer loop
      vertex 5.93631 10 20.5857
      vertex 4.72316 0 22.1443
      vertex 5.93631 0 20.5857
    endloop
  endfacet
  facet normal -0.677293 0 0.735713
    outer loop
      vertex 13.3067 10 20
      vertex 14.7348 0 21.3147
      vertex 14.7348 10 21.3147
    endloop
  endfacet
  facet normal -0.677293 0 0.735713
    outer loop
      vertex 14.7348 0 21.3147
      vertex 13.3067 10 20
      vertex 13.3067 0 20
    endloop
  endfacet
  facet normal 0.546978 0 -0.837147
    outer loop
      vertex 5.93631 0 29.4143
      vertex 6.83272 10 30
      vertex 6.83272 0 30
    endloop
  endfacet
  facet normal 0.546978 0 -0.837147
    outer loop
      vertex 6.83272 10 30
      vertex 5.93631 0 29.4143
      vertex 5.93631 10 29.4143
    endloop
  endfacet
  facet normal -0.986361 0 0.164596
    outer loop
      vertex 15.6749 0 23.0518
      vertex 16 10 25
      vertex 15.6749 10 23.0518
    endloop
  endfacet
  facet normal -0.986361 0 0.164596
    outer loop
      vertex 16 10 25
      vertex 15.6749 0 23.0518
      vertex 16 0 25
    endloop
  endfacet
  facet normal 0.623486 0 -0.781834
    outer loop
      vertex 3.19806 0 25.8678
      vertex 4.35836 10 26.7931
      vertex 4.35836 0 26.7931
    endloop
  endfacet
  facet normal 0.623486 0 -0.781834
    outer loop
      vertex 4.35836 10 26.7931
      vertex 3.19806 0 25.8678
      vertex 3.19806 10 25.8678
    endloop
  endfacet
  facet normal 0.623486 0 0.781834
    outer loop
      vertex 3.19806 10 24.1322
      vertex 4.35836 0 23.2069
      vertex 4.35836 10 23.2069
    endloop
  endfacet
  facet normal 0.623486 0 0.781834
    outer loop
      vertex 4.35836 0 23.2069
      vertex 3.19806 10 24.1322
      vertex 3.19806 0 24.1322
    endloop
  endfacet
  facet normal 1 -0 0
    outer loop
      vertex 3.19806 0 25.8678
      vertex 3.19806 10 24.1322
      vertex 3.19806 10 25.8678
    endloop
  endfacet
  facet normal 1 0 0
    outer loop
      vertex 3.19806 10 24.1322
      vertex 3.19806 0 25.8678
      vertex 3.19806 0 24.1322
    endloop
  endfacet
  facet normal 1 -0 0
    outer loop
      vertex 50 0 30
      vertex 50 10 20
      vertex 50 10 30
    endloop
  endfacet
  facet normal 1 0 0
    outer loop
      vertex 50 10 20
      vertex 50 0 30
      vertex 50 0 20
    endloop
  endfacet
  facet normal -0 0 1
    outer loop
      vertex 30 10 30
      vertex 36.8327 0 30
      vertex 36.8327 10 30
    endloop
  endfacet
  facet normal 0 0 1
    outer loop
      vertex 36.8327 0 30
      vertex 30 10 30
      vertex 30 0 30
    endloop
  endfacet
  facet normal -0 0 1
    outer loop
      vertex 43.3067 10 30
      vertex 50 0 30
      vertex 50 10 30
    endloop
  endfacet
  facet normal 0 0 1
    outer loop
      vertex 50 0 30
      vertex 43.3067 10 30
      vertex 43.3067 0 30
    endloop
  endfacet
  facet normal 0 0 -1
    outer loop
      vertex 43.3067 0 20
      vertex 50 10 20
      vertex 50 0 20
    endloop
  endfacet
  facet normal -0 0 -1
    outer loop
      vertex 50 10 20
      vertex 43.3067 0 20
      vertex 43.3067 10 20
    endloop
  endfacet
  facet normal 0 0 -1
    outer loop
      vertex 30 0 20
      vertex 36.8327 10 20
      vertex 36.8327 0 20
    endloop
  endfacet
  facet normal -0 0 -1
    outer loop
      vertex 36.8327 10 20
      vertex 30 0 20
      vertex 30 10 20
    endloop
  endfacet
  facet normal -1 0 0
    outer loop
      vertex 30 0 20
      vertex 30 10 30
      vertex 30 10 20
    endloop
  endfacet
  facet normal -1 -0 0
    outer loop
      vertex 30 10 30
      vertex 30 0 20
      vertex 30 0 30
    endloop
  endfacet
  facet normal 0 1 -0
    outer loop
      vertex 35.9363 10 29.4143
      vertex 30 10 30
      vertex 36.8327 10 30
    endloop
  endfacet
  facet normal 0 1 -0
    outer loop
      vertex 34.7232 10 27.8557
      vertex 30 10 30
      vertex 35.9363 10 29.4143
    endloop
  endfacet
  facet normal 0 1 0
    outer loop
      vertex 33.1981 10 25.8678
      vertex 34.7232 10 27.8557
      vertex 34.3584 10 26.7931
    endloop
  endfacet
  facet normal 0 1 0
    outer loop
      vertex 34.7232 10 27.8557
      vertex 33.1981 10 25.8678
      vertex 30 10 30
    endloop
  endfacet
  facet normal 0 1 -0
    outer loop
      vertex 33.1981 10 24.1322
      vertex 30 10 30
      vertex 33.1981 10 25.8678
    endloop
  endfacet
  facet normal 0 1 0
    outer loop
      vertex 34.7232 10 22.1443
      vertex 33.1981 10 24.1322
      vertex 34.3584 10 23.2069
    endloop
  endfacet
  facet normal 0 1 0
    outer loop
      vertex 33.1981 10 24.1322
      vertex 30 10 20
      vertex 30 10 30
    endloop
  endfacet
  facet normal 0 1 0
    outer loop
      vertex 34.7232 10 22.1443
      vertex 30 10 20
      vertex 33.1981 10 24.1322
    endloop
  endfacet
  facet normal 0 1 0
    outer loop
      vertex 35.9363 10 20.5857
      vertex 30 10 20
      vertex 34.7232 10 22.1443
    endloop
  endfacet
  facet normal 0 1 0
    outer loop
      vertex 30 10 20
      vertex 35.9363 10 20.5857
      vertex 36.8327 10 20
    endloop
  endfacet
  facet normal 0 1 0
    outer loop
      vertex 50 10 30
      vertex 44.7348 10 28.6853
      vertex 43.3067 10 30
    endloop
  endfacet
  facet normal 0 1 0
    outer loop
      vertex 50 10 30
      vertex 45.6749 10 26.9482
      vertex 44.7348 10 28.6853
    endloop
  endfacet
  facet normal 0 1 0
    outer loop
      vertex 50 10 30
      vertex 46 10 25
      vertex 45.6749 10 26.9482
    endloop
  endfacet
  facet normal 0 1 -0
    outer loop
      vertex 50 10 20
      vertex 46 10 25
      vertex 50 10 30
    endloop
  endfacet
  facet normal 0 1 0
    outer loop
      vertex 46 10 25
      vertex 50 10 20
      vertex 45.6749 10 23.0518
    endloop
  endfacet
  facet normal 0 1 0
    outer loop
      vertex 45.6749 10 23.0518
      vertex 50 10 20
      vertex 44.7348 10 21.3147
    endloop
  endfacet
  facet normal 0 1 0
    outer loop
      vertex 44.7348 10 21.3147
      vertex 50 10 20
      vertex 43.3067 10 20
    endloop
  endfacet
  facet normal 0 -1 0
    outer loop
      vertex 30 0 30
      vertex 35.9363 0 29.4143
      vertex 36.8327 0 30
    endloop
  endfacet
  facet normal 0 -1 0
    outer loop
      vertex 30 0 30
      vertex 34.7232 0 27.8557
      vertex 35.9363 0 29.4143
    endloop
  endfacet
  facet normal 0 -1 0
    outer loop
      vertex 33.1981 0 25.8678
      vertex 34.7232 0 27.8557
      vertex 30 0 30
    endloop
  endfacet
  facet normal 0 -1 0
    outer loop
      vertex 34.7232 0 27.8557
      vertex 33.1981 0 25.8678
      vertex 34.3584 0 26.7931
    endloop
  endfacet
  facet normal 0 -1 0
    outer loop
      vertex 30 0 30
      vertex 33.1981 0 24.1322
      vertex 33.1981 0 25.8678
    endloop
  endfacet
  facet normal 0 -1 0
    outer loop
      vertex 33.1981 0 24.1322
      vertex 34.7232 0 22.1443
      vertex 34.3584 0 23.2069
    endloop
  endfacet
  facet normal 0 -1 0
    outer loop
      vertex 30 0 20
      vertex 33.1981 0 24.1322
      vertex 30 0 30
    endloop
  endfacet
  facet normal 0 -1 0
    outer loop
      vertex 30 0 20
      vertex 34.7232 0 22.1443
      vertex 33.1981 0 24.1322
    endloop
  endfacet
  facet normal 0 -1 0
    outer loop
      vertex 30 0 20
      vertex 35.9363 0 20.5857
      vertex 34.7232 0 22.1443
    endloop
  endfacet
  facet normal 0 -1 -0
    outer loop
      vertex 35.9363 0 20.5857
      vertex 30 0 20
      vertex 36.8327 0 20
    endloop
  endfacet
  facet normal 0 -1 0
    outer loop
      vertex 44.7348 0 28.6853
      vertex 50 0 30
      vertex 43.3067 0 30
    endloop
  endfacet
  facet normal 0 -1 0
    outer loop
      vertex 45.6749 0 26.9482
      vertex 50 0 30
      vertex 44.7348 0 28.6853
    endloop
  endfacet
  facet normal 0 -1 0
    outer loop
      vertex 46 0 25
      vertex 50 0 30
      vertex 45.6749 0 26.9482
    endloop
  endfacet
  facet normal 0 -1 0
    outer loop
      vertex 50 0 20
      vertex 46 0 25
      vertex 45.6749 0 23.0518
    endloop
  endfacet
  facet normal 0 -1 0
    outer loop
      vertex 50 0 20
      vertex 45.6749 0 23.0518
      vertex 44.7348 0 21.3147
    endloop
  endfacet
  facet normal 0 -1 0
    outer loop
      vertex 46 0 25
      vertex 50 0 20
      vertex 50 0 30
    endloop
  endfacet
  facet normal 0 -1 0
    outer loop
      vertex 50 0 20
      vertex 44.7348 0 21.3147
      vertex 43.3067 0 20
    endloop
  endfacet
  facet normal 0.945815 0 -0.324707
    outer loop
      vertex 34.7232 0 27.8557
      vertex 34.3584 10 26.7931
      vertex 34.7232 10 27.8557
    endloop
  endfacet
  facet normal 0.945815 0 -0.324707
    outer loop
      vertex 34.3584 10 26.7931
      vertex 34.7232 0 27.8557
      vertex 34.3584 0 26.7931
    endloop
  endfacet
  facet normal -0.986361 0 -0.164596
    outer loop
      vertex 46 0 25
      vertex 45.6749 10 26.9482
      vertex 46 10 25
    endloop
  endfacet
  facet normal -0.986361 -0 -0.164596
    outer loop
      vertex 45.6749 10 26.9482
      vertex 46 0 25
      vertex 45.6749 0 26.9482
    endloop
  endfacet
  facet normal 0.546983 0 0.837144
    outer loop
      vertex 35.9363 10 20.5857
      vertex 36.8327 0 20
      vertex 36.8327 10 20
    endloop
  endfacet
  facet normal 0.546983 0 0.837144
    outer loop
      vertex 36.8327 0 20
      vertex 35.9363 10 20.5857
      vertex 35.9363 0 20.5857
    endloop
  endfacet
  facet normal -0.879468 0 -0.475959
    outer loop
      vertex 45.6749 0 26.9482
      vertex 44.7348 10 28.6853
      vertex 45.6749 10 26.9482
    endloop
  endfacet
  facet normal -0.879468 -0 -0.475959
    outer loop
      vertex 44.7348 10 28.6853
      vertex 45.6749 0 26.9482
      vertex 44.7348 0 28.6853
    endloop
  endfacet
  facet normal -0.879468 0 0.475959
    outer loop
      vertex 44.7348 0 21.3147
      vertex 45.6749 10 23.0518
      vertex 44.7348 10 21.3147
    endloop
  endfacet
  facet normal -0.879468 0 0.475959
    outer loop
      vertex 45.6749 10 23.0518
      vertex 44.7348 0 21.3147
      vertex 45.6749 0 23.0518
    endloop
  endfacet
  facet normal -0.677293 0 -0.735713
    outer loop
      vertex 43.3067 0 30
      vertex 44.7348 10 28.6853
      vertex 44.7348 0 28.6853
    endloop
  endfacet
  facet normal -0.677293 0 -0.735713
    outer loop
      vertex 44.7348 10 28.6853
      vertex 43.3067 0 30
      vertex 43.3067 10 30
    endloop
  endfacet
  facet normal 0.789142 0 -0.61421
    outer loop
      vertex 35.9363 0 29.4143
      vertex 34.7232 10 27.8557
      vertex 35.9363 10 29.4143
    endloop
  endfacet
  facet normal 0.789142 0 -0.61421
    outer loop
      vertex 34.7232 10 27.8557
      vertex 35.9363 0 29.4143
      vertex 34.7232 0 27.8557
    endloop
  endfacet
  facet normal 0.945815 -0 0.324707
    outer loop
      vertex 34.3584 0 23.2069
      vertex 34.7232 10 22.1443
      vertex 34.3584 10 23.2069
    endloop
  endfacet
  facet normal 0.945815 0 0.324707
    outer loop
      vertex 34.7232 10 22.1443
      vertex 34.3584 0 23.2069
      vertex 34.7232 0 22.1443
    endloop
  endfacet
  facet normal 0.789142 -0 0.61421
    outer loop
      vertex 34.7232 0 22.1443
      vertex 35.9363 10 20.5857
      vertex 34.7232 10 22.1443
    endloop
  endfacet
  facet normal 0.789142 0 0.61421
    outer loop
      vertex 35.9363 10 20.5857
      vertex 34.7232 0 22.1443
      vertex 35.9363 0 20.5857
    endloop
  endfacet
  facet normal -0.677293 0 0.735713
    outer loop
      vertex 43.3067 10 20
      vertex 44.7348 0 21.3147
      vertex 44.7348 10 21.3147
    endloop
  endfacet
  facet normal -0.677293 0 0.735713
    outer loop
      vertex 44.7348 0 21.3147
      vertex 43.3067 10 20
      vertex 43.3067 0 20
    endloop
  endfacet
  facet normal 0.546983 0 -0.837144
    outer loop
      vertex 35.9363 0 29.4143
      vertex 36.8327 10 30
      vertex 36.8327 0 30
    endloop
  endfacet
  facet normal 0.546983 0 -0.837144
    outer loop
      vertex 36.8327 10 30
      vertex 35.9363 0 29.4143
      vertex 35.9363 10 29.4143
    endloop
  endfacet
  facet normal -0.986361 0 0.164596
    outer loop
      vertex 45.6749 0 23.0518
      vertex 46 10 25
      vertex 45.6749 10 23.0518
    endloop
  endfacet
  facet normal -0.986361 0 0.164596
    outer loop
      vertex 46 10 25
      vertex 45.6749 0 23.0518
      vertex 46 0 25
    endloop
  endfacet
  facet normal 0.623486 0 -0.781834
    outer loop
      vertex 33.1981 0 25.8678
      vertex 34.3584 10 26.7931
      vertex 34.3584 0 26.7931
    endloop
  endfacet
  facet normal 0.623486 0 -0.781834
    outer loop
      vertex 34.3584 10 26.7931
      vertex 33.1981 0 25.8678
      vertex 33.1981 10 25.8678
    endloop
  endfacet
  facet normal 0.623486 0 0.781834
    outer loop
      vertex 33.1981 10 24.1322
      vertex 34.3584 0 23.2069
      vertex 34.3584 10 23.2069
    endloop
  endfacet
  facet normal 0.623486 0 0.781834
    outer loop
      vertex 34.3584 0 23.2069
      vertex 33.1981 10 24.1322
      vertex 33.1981 0 24.1322
    endloop
  endfacet
  facet normal 1 -0 0
    outer loop
      vertex 33.1981 0 25.8678
      vertex 33.1981 10 24.1322
      vertex 33.1981 10 25.8678
    endloop
  endfacet
  facet normal 1 0 0
    outer loop
      vertex 33.1981 10 24.1322
      vertex 33.1981 0 25.8678
      vertex 33.1981 0 24.1322
    endloop
  endfacet
  facet normal 1 -0 0
    outer loop
      vertex 20 0 5
      vertex 20 10 0
      vertex 20 10 5
    endloop
  endfacet
  facet normal 1 0 0
    outer loop
      vertex 20 10 0
      vertex 20 0 5
      vertex 20 0 0
    endloop
  endfacet
  facet normal 0 0 -1
    outer loop
      vertex 0 10 5
      vertex 10 20 5
      vertex 10 10 5
    endloop
  endfacet
  facet normal -0 0 -1
    outer loop
      vertex 10 20 5
      vertex 0 10 5
      vertex 0 20 5
    endloop
  endfacet
  facet normal -0 0 1
    outer loop
      vertex 10 10 5
      vertex 20 0 5
      vertex 20 10 5
    endloop
  endfacet
  facet normal 0 0 1
    outer loop
      vertex 20 0 5
      vertex 10 10 5
      vertex 10 0 5
    endloop
  endfacet
  facet normal 0 0 -1
    outer loop
      vertex 0 0 0
      vertex 20 10 0
      vertex 20 0 0
    endloop
  endfacet
  facet normal -0 0 -1
    outer loop
      vertex 20 10 0
      vertex 0 0 0
      vertex 0 10 0
    endloop
  endfacet
  facet normal -1 0 0
    outer loop
      vertex 0 10 0
      vertex 0 0 0
      vertex 0 10 5
    endloop
  endfacet
  facet normal -1 0 0
    outer loop
      vertex 0 10 5
      vertex 0 20 10
      vertex 0 20 5
    endloop
  endfacet
  facet normal -1 0 0
    outer loop
      vertex 0 0 10
      vertex 0 10 5
      vertex 0 0 0
    endloop
  endfacet
  facet normal -1 0 0
    outer loop
      vertex 0 10 5
      vertex 0 0 10
      vertex 0 20 10
    endloop
  endfacet
  facet normal 0 1 0
    outer loop
      vertex 10 10 5
      vertex 6.24698 10 4.06366
      vertex 4.55496 10 4.44986
    endloop
  endfacet
  facet normal 0 1 -0
    outer loop
      vertex 13.1981 10 1.63223
      vertex 10 10 5
      vertex 13.1981 10 3.36777
    endloop
  endfacet
  facet normal 0 1 0
    outer loop
      vertex 10 10 5
      vertex 7 10 2.5
      vertex 6.24698 10 4.06366
    endloop
  endfacet
  facet normal 0 1 0
    outer loop
      vertex 10 10 5
      vertex 13.1981 10 1.63223
      vertex 7 10 2.5
    endloop
  endfacet
  facet normal 0 1 0
    outer loop
      vertex 13.1981 10 1.63223
      vertex 6.24698 10 0.936337
      vertex 7 10 2.5
    endloop
  endfacet
  facet normal 0 1 0
    outer loop
      vertex 14.555 10 0.550143
      vertex 6.24698 10 0.936337
      vertex 13.1981 10 1.63223
    endloop
  endfacet
  facet normal 0 1 0
    outer loop
      vertex 6.24698 10 0.936337
      vertex 14.555 10 0.550143
      vertex 4.55496 10 0.550143
    endloop
  endfacet
  facet normal 0 1 -0
    outer loop
      vertex 14.555 10 4.44986
      vertex 10 10 5
      vertex 20 10 5
    endloop
  endfacet
  facet normal 0 1 -0
    outer loop
      vertex 13.1981 10 3.36777
      vertex 10 10 5
      vertex 14.555 10 4.44986
    endloop
  endfacet
  facet normal 0 1 0
    outer loop
      vertex 20 10 5
      vertex 16.247 10 4.06366
      vertex 14.555 10 4.44986
    endloop
  endfacet
  facet normal 0 1 0
    outer loop
      vertex 20 10 5
      vertex 17 10 2.5
      vertex 16.247 10 4.06366
    endloop
  endfacet
  facet normal 0 1 -0
    outer loop
      vertex 20 10 0
      vertex 17 10 2.5
      vertex 20 10 5
    endloop
  endfacet
  facet normal 0 1 0
    outer loop
      vertex 0 10 0
      vertex 14.555 10 0.550143
      vertex 20 10 0
    endloop
  endfacet
  facet normal 0 1 0
    outer loop
      vertex 16.247 10 0.936337
      vertex 20 10 0
      vertex 14.555 10 0.550143
    endloop
  endfacet
  facet normal 0 1 0
    outer loop
      vertex 17 10 2.5
      vertex 20 10 0
      vertex 16.247 10 0.936337
    endloop
  endfacet
  facet normal 0 1 0
    outer loop
      vertex 10 10 5
      vertex 4.55496 10 4.44986
      vertex 0 10 5
    endloop
  endfacet
  facet normal 0 1 -0
    outer loop
      vertex 3.19806 10 3.36777
      vertex 0 10 5
      vertex 4.55496 10 4.44986
    endloop
  endfacet
  facet normal 0 1 -0
    outer loop
      vertex 3.19806 10 1.63223
      vertex 0 10 5
      vertex 3.19806 10 3.36777
    endloop
  endfacet
  facet normal 0 1 0
    outer loop
      vertex 3.19806 10 1.63223
      vertex 0 10 0
      vertex 0 10 5
    endloop
  endfacet
  facet normal 0 1 0
    outer loop
      vertex 4.55496 10 0.550143
      vertex 0 10 0
      vertex 3.19806 10 1.63223
    endloop
  endfacet
  facet normal 0 1 0
    outer loop
      vertex 14.555 10 0.550143
      vertex 0 10 0
      vertex 4.55496 10 0.550143
    endloop
  endfacet
  facet normal 0 1 0
    outer loop
      vertex 6.24698 10 4.06366
      vertex 3.19806 10 3.36777
      vertex 4.55496 10 4.44986
    endloop
  endfacet
  facet normal 0 1 0
    outer loop
      vertex 7 10 2.5
      vertex 3.19806 10 3.36777
      vertex 6.24698 10 4.06366
    endloop
  endfacet
  facet normal 0 1 0
    outer loop
      vertex 7 10 2.5
      vertex 3.19806 10 1.63223
      vertex 3.19806 10 3.36777
    endloop
  endfacet
  facet normal 0 1 -0
    outer loop
      vertex 6.24698 10 0.936337
      vertex 3.19806 10 1.63223
      vertex 7 10 2.5
    endloop
  endfacet
  facet normal 0 1 0
    outer loop
      vertex 3.19806 10 1.63223
      vertex 6.24698 10 0.936337
      vertex 4.55496 10 0.550143
    endloop
  endfacet
  facet normal 0 -1 0
    outer loop
      vertex 0 0 10
      vertex 10 0 5
      vertex 10 0 10
    endloop
  endfacet
  facet normal 0 -1 0
    outer loop
      vertex 10 0 5
      vertex 14.555 0 4.44986
      vertex 20 0 5
    endloop
  endfacet
  facet normal 0 -1 0
    outer loop
      vertex 10 0 5
      vertex 13.1981 0 3.36777
      vertex 14.555 0 4.44986
    endloop
  endfacet
  facet normal 0 -1 0
    outer loop
      vertex 0 0 0
      vertex 10 0 5
      vertex 0 0 10
    endloop
  endfacet
  facet normal -0 -1 0
    outer loop
      vertex 13.1981 0 1.63223
      vertex 10 0 5
      vertex 0 0 0
    endloop
  endfacet
  facet normal 0 -1 0
    outer loop
      vertex 10 0 5
      vertex 13.1981 0 1.63223
      vertex 13.1981 0 3.36777
    endloop
  endfacet
  facet normal 0 -1 -0
    outer loop
      vertex 13.1981 0 1.63223
      vertex 0 0 0
      vertex 14.555 0 0.550143
    endloop
  endfacet
  facet normal 0 -1 0
    outer loop
      vertex 16.247 0 4.06366
      vertex 20 0 5
      vertex 14.555 0 4.44986
    endloop
  endfacet
  facet normal 0 -1 0
    outer loop
      vertex 17 0 2.5
      vertex 20 0 5
      vertex 16.247 0 4.06366
    endloop
  endfacet
  facet normal 0 -1 0
    outer loop
      vertex 20 0 0
      vertex 17 0 2.5
      vertex 16.247 0 0.936337
    endloop
  endfacet
  facet normal 0 -1 0
    outer loop
      vertex 17 0 2.5
      vertex 20 0 0
      vertex 20 0 5
    endloop
  endfacet
  facet normal 0 -1 0
    outer loop
      vertex 14.555 0 0.550143
      vertex 20 0 0
      vertex 16.247 0 0.936337
    endloop
  endfacet
  facet normal 0 -1 0
    outer loop
      vertex 20 0 0
      vertex 14.555 0 0.550143
      vertex 0 0 0
    endloop
  endfacet
  facet normal 1 0 0
    outer loop
      vertex 10 20 10
      vertex 10 10 5
      vertex 10 20 5
    endloop
  endfacet
  facet normal 1 -0 0
    outer loop
      vertex 10 0 10
      vertex 10 10 5
      vertex 10 20 10
    endloop
  endfacet
  facet normal 1 0 0
    outer loop
      vertex 10 10 5
      vertex 10 0 10
      vertex 10 0 5
    endloop
  endfacet
  facet normal -0 0 1
    outer loop
      vertex 0 20 10
      vertex 10 0 10
      vertex 10 20 10
    endloop
  endfacet
  facet normal 0 0 1
    outer loop
      vertex 10 0 10
      vertex 0 20 10
      vertex 0 0 10
    endloop
  endfacet
  facet normal 0 1 -0
    outer loop
      vertex 10 20 5
      vertex 0 20 10
      vertex 10 20 10
    endloop
  endfacet
  facet normal 0 1 0
    outer loop
      vertex 0 20 10
      vertex 10 20 5
      vertex 0 20 5
    endloop
  endfacet
  facet normal -0.222528 0 -0.974926
    outer loop
      vertex 14.555 0 4.44986
      vertex 16.247 10 4.06366
      vertex 16.247 0 4.06366
    endloop
  endfacet
  facet normal -0.222528 0 -0.974926
    outer loop
      vertex 16.247 10 4.06366
      vertex 14.555 0 4.44986
      vertex 14.555 10 4.44986
    endloop
  endfacet
  facet normal -0.900973 0 -0.433875
    outer loop
      vertex 17 0 2.5
      vertex 16.247 10 4.06366
      vertex 17 10 2.5
    endloop
  endfacet
  facet normal -0.900973 -0 -0.433875
    outer loop
      vertex 16.247 10 4.06366
      vertex 17 0 2.5
      vertex 16.247 0 4.06366
    endloop
  endfacet
  facet normal -0.900973 0 0.433874
    outer loop
      vertex 16.247 0 0.936337
      vertex 17 10 2.5
      vertex 16.247 10 0.936337
    endloop
  endfacet
  facet normal -0.900973 0 0.433874
    outer loop
      vertex 17 10 2.5
      vertex 16.247 0 0.936337
      vertex 17 0 2.5
    endloop
  endfacet
  facet normal 0.623489 0 -0.781832
    outer loop
      vertex 13.1981 0 3.36777
      vertex 14.555 10 4.44986
      vertex 14.555 0 4.44986
    endloop
  endfacet
  facet normal 0.623489 0 -0.781832
    outer loop
      vertex 14.555 10 4.44986
      vertex 13.1981 0 3.36777
      vertex 13.1981 10 3.36777
    endloop
  endfacet
  facet normal 0.623488 0 0.781833
    outer loop
      vertex 13.1981 10 1.63223
      vertex 14.555 0 0.550143
      vertex 14.555 10 0.550143
    endloop
  endfacet
  facet normal 0.623488 0 0.781833
    outer loop
      vertex 14.555 0 0.550143
      vertex 13.1981 10 1.63223
      vertex 13.1981 0 1.63223
    endloop
  endfacet
  facet normal -0.222524 0 0.974927
    outer loop
      vertex 14.555 10 0.550143
      vertex 16.247 0 0.936337
      vertex 16.247 10 0.936337
    endloop
  endfacet
  facet normal -0.222524 0 0.974927
    outer loop
      vertex 16.247 0 0.936337
      vertex 14.555 10 0.550143
      vertex 14.555 0 0.550143
    endloop
  endfacet
  facet normal 1 -0 0
    outer loop
      vertex 13.1981 0 3.36777
      vertex 13.1981 10 1.63223
      vertex 13.1981 10 3.36777
    endloop
  endfacet
  facet normal 1 0 0
    outer loop
      vertex 13.1981 10 1.63223
      vertex 13.1981 0 3.36777
      vertex 13.1981 0 1.63223
    endloop
  endfacet
  facet normal 1 -0 0
    outer loop
      vertex 50 0 5
      vertex 50 10 0
      vertex 50 10 5
    endloop
  endfacet
  facet normal 1 0 0
    outer loop
      vertex 50 10 0
      vertex 50 0 5
      vertex 50 0 0
    endloop
  endfacet
  facet normal 0 0 -1
    outer loop
      vertex 30 10 5
      vertex 40 20 5
      vertex 40 10 5
    endloop
  endfacet
  facet normal -0 0 -1
    outer loop
      vertex 40 20 5
      vertex 30 10 5
      vertex 30 20 5
    endloop
  endfacet
  facet normal -0 0 1
    outer loop
      vertex 40 10 5
      vertex 50 0 5
      vertex 50 10 5
    endloop
  endfacet
  facet normal 0 0 1
    outer loop
      vertex 50 0 5
      vertex 40 10 5
      vertex 40 0 5
    endloop
  endfacet
  facet normal 0 0 -1
    outer loop
      vertex 30 0 0
      vertex 50 10 0
      vertex 50 0 0
    endloop
  endfacet
  facet normal -0 0 -1
    outer loop
      vertex 50 10 0
      vertex 30 0 0
      vertex 30 10 0
    endloop
  endfacet
  facet normal -1 0 0
    outer loop
      vertex 30 10 0
      vertex 30 0 0
      vertex 30 10 5
    endloop
  endfacet
  facet normal -1 0 0
    outer loop
      vertex 30 10 5
      vertex 30 20 10
      vertex 30 20 5
    endloop
  endfacet
  facet normal -1 0 0
    outer loop
      vertex 30 0 10
      vertex 30 10 5
      vertex 30 0 0
    endloop
  endfacet
  facet normal -1 0 0
    outer loop
      vertex 30 10 5
      vertex 30 0 10
      vertex 30 20 10
    endloop
  endfacet
  facet normal 0 1 0
    outer loop
      vertex 40 10 5
      vertex 36.247 10 4.06366
      vertex 34.555 10 4.44986
    endloop
  endfacet
  facet normal 0 1 -0
    outer loop
      vertex 43.1981 10 1.63223
      vertex 40 10 5
      vertex 43.1981 10 3.36777
    endloop
  endfacet
  facet normal 0 1 0
    outer loop
      vertex 40 10 5
      vertex 37 10 2.5
      vertex 36.247 10 4.06366
    endloop
  endfacet
  facet normal 0 1 0
    outer loop
      vertex 40 10 5
      vertex 43.1981 10 1.63223
      vertex 37 10 2.5
    endloop
  endfacet
  facet normal 0 1 0
    outer loop
      vertex 43.1981 10 1.63223
      vertex 36.247 10 0.936337
      vertex 37 10 2.5
    endloop
  endfacet
  facet normal 0 1 0
    outer loop
      vertex 44.555 10 0.550143
      vertex 36.247 10 0.936337
      vertex 43.1981 10 1.63223
    endloop
  endfacet
  facet normal 0 1 0
    outer loop
      vertex 36.247 10 0.936337
      vertex 44.555 10 0.550143
      vertex 34.555 10 0.550143
    endloop
  endfacet
  facet normal 0 1 -0
    outer loop
      vertex 44.555 10 4.44986
      vertex 40 10 5
      vertex 50 10 5
    endloop
  endfacet
  facet normal 0 1 -0
    outer loop
      vertex 43.1981 10 3.36777
      vertex 40 10 5
      vertex 44.555 10 4.44986
    endloop
  endfacet
  facet normal 0 1 0
    outer loop
      vertex 50 10 5
      vertex 46.247 10 4.06366
      vertex 44.555 10 4.44986
    endloop
  endfacet
  facet normal 0 1 0
    outer loop
      vertex 50 10 5
      vertex 47 10 2.5
      vertex 46.247 10 4.06366
    endloop
  endfacet
  facet normal 0 1 -0
    outer loop
      vertex 50 10 0
      vertex 47 10 2.5
      vertex 50 10 5
    endloop
  endfacet
  facet normal 0 1 0
    outer loop
      vertex 30 10 0
      vertex 44.555 10 0.550143
      vertex 50 10 0
    endloop
  endfacet
  facet normal 0 1 0
    outer loop
      vertex 46.247 10 0.936337
      vertex 50 10 0
      vertex 44.555 10 0.550143
    endloop
  endfacet
  facet normal 0 1 0
    outer loop
      vertex 47 10 2.5
      vertex 50 10 0
      vertex 46.247 10 0.936337
    endloop
  endfacet
  facet normal 0 1 0
    outer loop
      vertex 40 10 5
      vertex 34.555 10 4.44986
      vertex 30 10 5
    endloop
  endfacet
  facet normal 0 1 -0
    outer loop
      vertex 33.1981 10 3.36777
      vertex 30 10 5
      vertex 34.555 10 4.44986
    endloop
  endfacet
  facet normal 0 1 -0
    outer loop
      vertex 33.1981 10 1.63223
      vertex 30 10 5
      vertex 33.1981 10 3.36777
    endloop
  endfacet
  facet normal 0 1 0
    outer loop
      vertex 33.1981 10 1.63223
      vertex 30 10 0
      vertex 30 10 5
    endloop
  endfacet
  facet normal 0 1 0
    outer loop
      vertex 34.555 10 0.550143
      vertex 30 10 0
      vertex 33.1981 10 1.63223
    endloop
  endfacet
  facet normal 0 1 0
    outer loop
      vertex 44.555 10 0.550143
      vertex 30 10 0
      vertex 34.555 10 0.550143
    endloop
  endfacet
  facet normal 0 1 0
    outer loop
      vertex 36.247 10 4.06366
      vertex 33.1981 10 3.36777
      vertex 34.555 10 4.44986
    endloop
  endfacet
  facet normal 0 1 0
    outer loop
      vertex 37 10 2.5
      vertex 33.1981 10 3.36777
      vertex 36.247 10 4.06366
    endloop
  endfacet
  facet normal 0 1 0
    outer loop
      vertex 37 10 2.5
      vertex 33.1981 10 1.63223
      vertex 33.1981 10 3.36777
    endloop
  endfacet
  facet normal 0 1 -0
    outer loop
      vertex 36.247 10 0.936337
      vertex 33.1981 10 1.63223
      vertex 37 10 2.5
    endloop
  endfacet
  facet normal 0 1 0
    outer loop
      vertex 33.1981 10 1.63223
      vertex 36.247 10 0.936337
      vertex 34.555 10 0.550143
    endloop
  endfacet
  facet normal 0 -1 0
    outer loop
      vertex 30 0 10
      vertex 40 0 5
      vertex 40 0 10
    endloop
  endfacet
  facet normal 0 -1 0
    outer loop
      vertex 40 0 5
      vertex 44.555 0 4.44986
      vertex 50 0 5
    endloop
  endfacet
  facet normal 0 -1 0
    outer loop
      vertex 40 0 5
      vertex 43.1981 0 3.36777
      vertex 44.555 0 4.44986
    endloop
  endfacet
  facet normal 0 -1 0
    outer loop
      vertex 30 0 0
      vertex 40 0 5
      vertex 30 0 10
    endloop
  endfacet
  facet normal -0 -1 0
    outer loop
      vertex 43.1981 0 1.63223
      vertex 40 0 5
      vertex 30 0 0
    endloop
  endfacet
  facet normal 0 -1 0
    outer loop
      vertex 40 0 5
      vertex 43.1981 0 1.63223
      vertex 43.1981 0 3.36777
    endloop
  endfacet
  facet normal 0 -1 -0
    outer loop
      vertex 43.1981 0 1.63223
      vertex 30 0 0
      vertex 44.555 0 0.550143
    endloop
  endfacet
  facet normal 0 -1 0
    outer loop
      vertex 46.247 0 4.06366
      vertex 50 0 5
      vertex 44.555 0 4.44986
    endloop
  endfacet
  facet normal 0 -1 0
    outer loop
      vertex 47 0 2.5
      vertex 50 0 5
      vertex 46.247 0 4.06366
    endloop
  endfacet
  facet normal 0 -1 0
    outer loop
      vertex 50 0 0
      vertex 47 0 2.5
      vertex 46.247 0 0.936337
    endloop
  endfacet
  facet normal 0 -1 0
    outer loop
      vertex 47 0 2.5
      vertex 50 0 0
      vertex 50 0 5
    endloop
  endfacet
  facet normal 0 -1 0
    outer loop
      vertex 44.555 0 0.550143
      vertex 50 0 0
      vertex 46.247 0 0.936337
    endloop
  endfacet
  facet normal 0 -1 0
    outer loop
      vertex 50 0 0
      vertex 44.555 0 0.550143
      vertex 30 0 0
    endloop
  endfacet
  facet normal 1 0 0
    outer loop
      vertex 40 20 10
      vertex 40 10 5
      vertex 40 20 5
    endloop
  endfacet
  facet normal 1 -0 0
    outer loop
      vertex 40 0 10
      vertex 40 10 5
      vertex 40 20 10
    endloop
  endfacet
  facet normal 1 0 0
    outer loop
      vertex 40 10 5
      vertex 40 0 10
      vertex 40 0 5
    endloop
  endfacet
  facet normal -0 0 1
    outer loop
      vertex 30 20 10
      vertex 40 0 10
      vertex 40 20 10
    endloop
  endfacet
  facet normal 0 0 1
    outer loop
      vertex 40 0 10
      vertex 30 20 10
      vertex 30 0 10
    endloop
  endfacet
  facet normal 0 1 -0
    outer loop
      vertex 40 20 5
      vertex 30 20 10
      vertex 40 20 10
    endloop
  endfacet
  facet normal 0 1 0
    outer loop
      vertex 30 20 10
      vertex 40 20 5
      vertex 30 20 5
    endloop
  endfacet
  facet normal -0.222528 0 -0.974926
    outer loop
      vertex 44.555 0 4.44986
      vertex 46.247 10 4.06366
      vertex 46.247 0 4.06366
    endloop
  endfacet
  facet normal -0.222528 0 -0.974926
    outer loop
      vertex 46.247 10 4.06366
      vertex 44.555 0 4.44986
      vertex 44.555 10 4.44986
    endloop
  endfacet
  facet normal -0.900973 0 -0.433875
    outer loop
      vertex 47 0 2.5
      vertex 46.247 10 4.06366
      vertex 47 10 2.5
    endloop
  endfacet
  facet normal -0.900973 -0 -0.433875
    outer loop
      vertex 46.247 10 4.06366
      vertex 47 0 2.5
      vertex 46.247 0 4.06366
    endloop
  endfacet
  facet normal -0.900973 0 0.433874
    outer loop
      vertex 46.247 0 0.936337
      vertex 47 10 2.5
      vertex 46.247 10 0.936337
    endloop
  endfacet
  facet normal -0.900973 0 0.433874
    outer loop
      vertex 47 10 2.5
      vertex 46.247 0 0.936337
      vertex 47 0 2.5
    endloop
  endfacet
  facet normal 0.623489 0 -0.781832
    outer loop
      vertex 43.1981 0 3.36777
      vertex 44.555 10 4.44986
      vertex 44.555 0 4.44986
    endloop
  endfacet
  facet normal 0.623489 0 -0.781832
    outer loop
      vertex 44.555 10 4.44986
      vertex 43.1981 0 3.36777
      vertex 43.1981 10 3.36777
    endloop
  endfacet
  facet normal 0.623488 0 0.781833
    outer loop
      vertex 43.1981 10 1.63223
      vertex 44.555 0 0.550143
      vertex 44.555 10 0.550143
    endloop
  endfacet
  facet normal 0.623488 0 0.781833
    outer loop
      vertex 44.555 0 0.550143
      vertex 43.1981 10 1.63223
      vertex 43.1981 0 1.63223
    endloop
  endfacet
  facet normal -0.222524 0 0.974927
    outer loop
      vertex 44.555 10 0.550143
      vertex 46.247 0 0.936337
      vertex 46.247 10 0.936337
    endloop
  endfacet
  facet normal -0.222524 0 0.974927
    outer loop
      vertex 46.247 0 0.936337
      vertex 44.555 10 0.550143
      vertex 44.555 0 0.550143
    endloop
  endfacet
  facet normal 1 -0 0
    outer loop
      vertex 43.1981 0 3.36777
      vertex 43.1981 10 1.63223
      vertex 43.1981 10 3.36777
    endloop
  endfacet
  facet normal 1 0 0
    outer loop
      vertex 43.1981 10 1.63223
      vertex 43.1981 0 3.36777
      vertex 43.1981 0 1.63223
    endloop
  endfacet
endsolid OpenSCAD_Model
