solid OpenSCAD_Model
  facet normal 1 -0 0
    outer loop
      vertex 25 -15 5
      vertex 25 15 -5
      vertex 25 15 5
    endloop
  endfacet
  facet normal 1 0 0
    outer loop
      vertex 25 15 -5
      vertex 25 -15 5
      vertex 25 -15 -5
    endloop
  endfacet
  facet normal -0 0 1
    outer loop
      vertex -25 15 5
      vertex 25 -15 5
      vertex 25 15 5
    endloop
  endfacet
  facet normal 0 0 1
    outer loop
      vertex 25 -15 5
      vertex -25 15 5
      vertex -25 -15 5
    endloop
  endfacet
  facet normal 0 0 -1
    outer loop
      vertex -25 -15 -5
      vertex 25 15 -5
      vertex 25 -15 -5
    endloop
  endfacet
  facet normal -0 0 -1
    outer loop
      vertex 25 15 -5
      vertex -25 -15 -5
      vertex -25 15 -5
    endloop
  endfacet
  facet normal -1 0 0
    outer loop
      vertex -25 -15 -5
      vertex -25 15 5
      vertex -25 15 -5
    endloop
  endfacet
  facet normal -1 -0 0
    outer loop
      vertex -25 15 5
      vertex -25 -15 -5
      vertex -25 -15 5
    endloop
  endfacet
  facet normal 0 1 -0
    outer loop
      vertex 25 15 -5
      vertex -25 15 5
      vertex 25 15 5
    endloop
  endfacet
  facet normal 0 1 0
    outer loop
      vertex -25 15 5
      vertex 25 15 -5
      vertex -25 15 -5
    endloop
  endfacet
  facet normal 0 -1 0
    outer loop
      vertex -25 -15 -5
      vertex 25 -15 5
      vertex -25 -15 5
    endloop
  endfacet
  facet normal 0 -1 -0
    outer loop
      vertex 25 -15 5
      vertex -25 -15 -5
      vertex 25 -15 -5
    endloop
  endfacet
  facet normal 1 -0 0
    outer loop
      vertex 25 -15 11
      vertex 25 15 9
      vertex 25 15 11
    endloop
  endfacet
  facet normal 1 0 0
    outer loop
      vertex 25 15 9
      vertex 25 -15 11
      vertex 25 -15 9
    endloop
  endfacet
  facet normal -0 0 1
    outer loop
      vertex -25 15 11
      vertex 25 -15 11
      vertex 25 15 11
    endloop
  endfacet
  facet normal 0 0 1
    outer loop
      vertex 25 -15 11
      vertex -25 15 11
      vertex -25 -15 11
    endloop
  endfacet
  facet normal 0 0 -1
    outer loop
      vertex -25 -15 9
      vertex 25 15 9
      vertex 25 -15 9
    endloop
  endfacet
  facet normal -0 0 -1
    outer loop
      vertex 25 15 9
      vertex -25 -15 9
      vertex -25 15 9
    endloop
  endfacet
  facet normal -1 0 0
    outer loop
      vertex -25 -15 9
      vertex -25 15 11
      vertex -25 15 9
    endloop
  endfacet
  facet normal -1 -0 0
    outer loop
      vertex -25 15 11
      vertex -25 -15 9
      vertex -25 -15 11
    endloop
  endfacet
  facet normal 0 1 -0
    outer loop
      vertex 25 15 9
      vertex -25 15 11
      vertex 25 15 11
    endloop
  endfacet
  facet normal 0 1 0
    outer loop
      vertex -25 15 11
      vertex 25 15 9
      vertex -25 15 9
    endloop
  endfacet
  facet normal 0 -1 0
    outer loop
      vertex -25 -15 9
      vertex 25 -15 11
      vertex -25 -15 11
    endloop
  endfacet
  facet normal 0 -1 -0
    outer loop
      vertex 25 -15 11
      vertex -25 -15 9
      vertex 25 -15 9
    endloop
  endfacet
endsolid OpenSCAD_Model
