solid OpenSCAD_Model
  facet normal 1 -0 0
    outer loop
      vertex 30 -15 30
      vertex 30 15 20
      vertex 30 15 30
    endloop
  endfacet
  facet normal 1 0 0
    outer loop
      vertex 30 15 20
      vertex 30 -15 30
      vertex 30 -15 20
    endloop
  endfacet
  facet normal -0 0 1
    outer loop
      vertex -30 15 30
      vertex 30 -15 30
      vertex 30 15 30
    endloop
  endfacet
  facet normal 0 0 1
    outer loop
      vertex 30 -15 30
      vertex -30 15 30
      vertex -30 -15 30
    endloop
  endfacet
  facet normal 0 0 -1
    outer loop
      vertex -30 -15 20
      vertex 30 15 20
      vertex 30 -15 20
    endloop
  endfacet
  facet normal -0 0 -1
    outer loop
      vertex 30 15 20
      vertex -30 -15 20
      vertex -30 15 20
    endloop
  endfacet
  facet normal -1 0 0
    outer loop
      vertex -30 -15 20
      vertex -30 15 30
      vertex -30 15 20
    endloop
  endfacet
  facet normal -1 -0 0
    outer loop
      vertex -30 15 30
      vertex -30 -15 20
      vertex -30 -15 30
    endloop
  endfacet
  facet normal 0 1 -0
    outer loop
      vertex 30 15 20
      vertex -30 15 30
      vertex 30 15 30
    endloop
  endfacet
  facet normal 0 1 0
    outer loop
      vertex -30 15 30
      vertex 30 15 20
      vertex -30 15 20
    endloop
  endfacet
  facet normal 0 -1 0
    outer loop
      vertex -30 -15 20
      vertex 30 -15 30
      vertex -30 -15 30
    endloop
  endfacet
  facet normal 0 -1 -0
    outer loop
      vertex 30 -15 30
      vertex -30 -15 20
      vertex 30 -15 20
    endloop
  endfacet
  facet normal 1 -0 0
    outer loop
      vertex 30 -15 -20
      vertex 30 15 -30
      vertex 30 15 -20
    endloop
  endfacet
  facet normal 1 0 0
    outer loop
      vertex 30 15 -30
      vertex 30 -15 -20
      vertex 30 -15 -30
    endloop
  endfacet
  facet normal -0 0 1
    outer loop
      vertex -30 15 -20
      vertex 30 -15 -20
      vertex 30 15 -20
    endloop
  endfacet
  facet normal 0 0 1
    outer loop
      vertex 30 -15 -20
      vertex -30 15 -20
      vertex -30 -15 -20
    endloop
  endfacet
  facet normal 0 0 -1
    outer loop
      vertex -30 -15 -30
      vertex 30 15 -30
      vertex 30 -15 -30
    endloop
  endfacet
  facet normal -0 0 -1
    outer loop
      vertex 30 15 -30
      vertex -30 -15 -30
      vertex -30 15 -30
    endloop
  endfacet
  facet normal -1 0 0
    outer loop
      vertex -30 -15 -30
      vertex -30 15 -20
      vertex -30 15 -30
    endloop
  endfacet
  facet normal -1 -0 0
    outer loop
      vertex -30 15 -20
      vertex -30 -15 -30
      vertex -30 -15 -20
    endloop
  endfacet
  facet normal 0 1 -0
    outer loop
      vertex 30 15 -30
      vertex -30 15 -20
      vertex 30 15 -20
    endloop
  endfacet
  facet normal 0 1 0
    outer loop
      vertex -30 15 -20
      vertex 30 15 -30
      vertex -30 15 -30
    endloop
  endfacet
  facet normal 0 -1 0
    outer loop
      vertex -30 -15 -30
      vertex 30 -15 -20
      vertex -30 -15 -20
    endloop
  endfacet
  facet normal 0 -1 -0
    outer loop
      vertex 30 -15 -20
      vertex -30 -15 -30
      vertex 30 -15 -30
    endloop
  endfacet
  facet normal 1 -0 0
    outer loop
      vertex 20 -10 7.5
      vertex 20 10 -7.5
      vertex 20 10 7.5
    endloop
  endfacet
  facet normal 1 0 0
    outer loop
      vertex 20 10 -7.5
      vertex 20 -10 7.5
      vertex 20 -10 -7.5
    endloop
  endfacet
  facet normal 0 0 1
    outer loop
      vertex 20 10 7.5
      vertex 10 5 7.5
      vertex 20 -10 7.5
    endloop
  endfacet
  facet normal 0 0 1
    outer loop
      vertex 20 10 7.5
      vertex -10 5 7.5
      vertex 10 5 7.5
    endloop
  endfacet
  facet normal 0 0 1
    outer loop
      vertex -10 5 7.5
      vertex -20 10 7.5
      vertex -10 -5 7.5
    endloop
  endfacet
  facet normal -0 0 1
    outer loop
      vertex -20 10 7.5
      vertex -10 5 7.5
      vertex 20 10 7.5
    endloop
  endfacet
  facet normal -0 0 1
    outer loop
      vertex 10 -5 7.5
      vertex 20 -10 7.5
      vertex 10 5 7.5
    endloop
  endfacet
  facet normal -0 0 1
    outer loop
      vertex -10 -5 7.5
      vertex 20 -10 7.5
      vertex 10 -5 7.5
    endloop
  endfacet
  facet normal 0 0 1
    outer loop
      vertex -10 -5 7.5
      vertex -20 -10 7.5
      vertex 20 -10 7.5
    endloop
  endfacet
  facet normal 0 0 1
    outer loop
      vertex -20 -10 7.5
      vertex -10 -5 7.5
      vertex -20 10 7.5
    endloop
  endfacet
  facet normal 0 0 -1
    outer loop
      vertex 20 -10 -7.5
      vertex 10 -5 -7.5
      vertex 20 10 -7.5
    endloop
  endfacet
  facet normal 0 0 -1
    outer loop
      vertex 20 -10 -7.5
      vertex -10 -5 -7.5
      vertex 10 -5 -7.5
    endloop
  endfacet
  facet normal -0 0 -1
    outer loop
      vertex -10 -5 -7.5
      vertex -20 -10 -7.5
      vertex -10 5 -7.5
    endloop
  endfacet
  facet normal 0 0 -1
    outer loop
      vertex -20 -10 -7.5
      vertex -10 -5 -7.5
      vertex 20 -10 -7.5
    endloop
  endfacet
  facet normal 0 0 -1
    outer loop
      vertex 10 5 -7.5
      vertex 20 10 -7.5
      vertex 10 -5 -7.5
    endloop
  endfacet
  facet normal 0 0 -1
    outer loop
      vertex -10 5 -7.5
      vertex 20 10 -7.5
      vertex 10 5 -7.5
    endloop
  endfacet
  facet normal 0 0 -1
    outer loop
      vertex -10 5 -7.5
      vertex -20 10 -7.5
      vertex 20 10 -7.5
    endloop
  endfacet
  facet normal 0 0 -1
    outer loop
      vertex -20 10 -7.5
      vertex -10 5 -7.5
      vertex -20 -10 -7.5
    endloop
  endfacet
  facet normal -1 0 0
    outer loop
      vertex -20 -10 -7.5
      vertex -20 10 7.5
      vertex -20 10 -7.5
    endloop
  endfacet
  facet normal -1 -0 0
    outer loop
      vertex -20 10 7.5
      vertex -20 -10 -7.5
      vertex -20 -10 7.5
    endloop
  endfacet
  facet normal 0 1 -0
    outer loop
      vertex 20 10 -7.5
      vertex -20 10 7.5
      vertex 20 10 7.5
    endloop
  endfacet
  facet normal 0 1 0
    outer loop
      vertex -20 10 7.5
      vertex 20 10 -7.5
      vertex -20 10 -7.5
    endloop
  endfacet
  facet normal 0 -1 0
    outer loop
      vertex -20 -10 -7.5
      vertex 20 -10 7.5
      vertex -20 -10 7.5
    endloop
  endfacet
  facet normal 0 -1 -0
    outer loop
      vertex 20 -10 7.5
      vertex -20 -10 -7.5
      vertex 20 -10 -7.5
    endloop
  endfacet
  facet normal 1 -0 0
    outer loop
      vertex 10 -5 15
      vertex 10 5 7.5
      vertex 10 5 15
    endloop
  endfacet
  facet normal 1 0 0
    outer loop
      vertex 10 5 7.5
      vertex 10 -5 15
      vertex 10 -5 7.5
    endloop
  endfacet
  facet normal -0 0 1
    outer loop
      vertex -10 5 15
      vertex 10 -5 15
      vertex 10 5 15
    endloop
  endfacet
  facet normal 0 0 1
    outer loop
      vertex 10 -5 15
      vertex -10 5 15
      vertex -10 -5 15
    endloop
  endfacet
  facet normal -1 0 0
    outer loop
      vertex -10 -5 7.5
      vertex -10 5 15
      vertex -10 5 7.5
    endloop
  endfacet
  facet normal -1 -0 0
    outer loop
      vertex -10 5 15
      vertex -10 -5 7.5
      vertex -10 -5 15
    endloop
  endfacet
  facet normal 0 1 -0
    outer loop
      vertex 10 5 7.5
      vertex -10 5 15
      vertex 10 5 15
    endloop
  endfacet
  facet normal 0 1 0
    outer loop
      vertex -10 5 15
      vertex 10 5 7.5
      vertex -10 5 7.5
    endloop
  endfacet
  facet normal 0 -1 0
    outer loop
      vertex -10 -5 7.5
      vertex 10 -5 15
      vertex -10 -5 15
    endloop
  endfacet
  facet normal 0 -1 -0
    outer loop
      vertex 10 -5 15
      vertex -10 -5 7.5
      vertex 10 -5 7.5
    endloop
  endfacet
  facet normal 1 -0 0
    outer loop
      vertex 10 -5 -7.5
      vertex 10 5 -15
      vertex 10 5 -7.5
    endloop
  endfacet
  facet normal 1 0 0
    outer loop
      vertex 10 5 -15
      vertex 10 -5 -7.5
      vertex 10 -5 -15
    endloop
  endfacet
  facet normal 0 0 -1
    outer loop
      vertex -10 -5 -15
      vertex 10 5 -15
      vertex 10 -5 -15
    endloop
  endfacet
  facet normal -0 0 -1
    outer loop
      vertex 10 5 -15
      vertex -10 -5 -15
      vertex -10 5 -15
    endloop
  endfacet
  facet normal -1 0 0
    outer loop
      vertex -10 -5 -15
      vertex -10 5 -7.5
      vertex -10 5 -15
    endloop
  endfacet
  facet normal -1 -0 0
    outer loop
      vertex -10 5 -7.5
      vertex -10 -5 -15
      vertex -10 -5 -7.5
    endloop
  endfacet
  facet normal 0 1 -0
    outer loop
      vertex 10 5 -15
      vertex -10 5 -7.5
      vertex 10 5 -7.5
    endloop
  endfacet
  facet normal 0 1 0
    outer loop
      vertex -10 5 -7.5
      vertex 10 5 -15
      vertex -10 5 -15
    endloop
  endfacet
  facet normal 0 -1 0
    outer loop
      vertex -10 -5 -15
      vertex 10 -5 -7.5
      vertex -10 -5 -7.5
    endloop
  endfacet
  facet normal 0 -1 -0
    outer loop
      vertex 10 -5 -7.5
      vertex -10 -5 -15
      vertex 10 -5 -15
    endloop
  endfacet
endsolid OpenSCAD_Model
