solid OpenSCAD_Model
  facet normal 1 -0 0
    outer loop
      vertex 20 0 40
      vertex 20 20 0
      vertex 20 20 40
    endloop
  endfacet
  facet normal 1 0 0
    outer loop
      vertex 20 20 0
      vertex 20 0 40
      vertex 20 0 0
    endloop
  endfacet
  facet normal -0 0 1
    outer loop
      vertex 0 20 40
      vertex 20 0 40
      vertex 20 20 40
    endloop
  endfacet
  facet normal 0 0 1
    outer loop
      vertex 20 0 40
      vertex 0 20 40
      vertex 0 0 40
    endloop
  endfacet
  facet normal 0 0 -1
    outer loop
      vertex 0 0 0
      vertex 20 20 0
      vertex 20 0 0
    endloop
  endfacet
  facet normal -0 0 -1
    outer loop
      vertex 20 20 0
      vertex 0 0 0
      vertex 0 20 0
    endloop
  endfacet
  facet normal -1 0 0
    outer loop
      vertex 0 0 0
      vertex 0 20 40
      vertex 0 20 0
    endloop
  endfacet
  facet normal -1 -0 0
    outer loop
      vertex 0 20 40
      vertex 0 0 0
      vertex 0 0 40
    endloop
  endfacet
  facet normal 0 1 -0
    outer loop
      vertex 20 20 0
      vertex 0 20 40
      vertex 20 20 40
    endloop
  endfacet
  facet normal 0 1 0
    outer loop
      vertex 0 20 40
      vertex 20 20 0
      vertex 0 20 0
    endloop
  endfacet
  facet normal 0 -1 0
    outer loop
      vertex 0 0 0
      vertex 20 0 40
      vertex 0 0 40
    endloop
  endfacet
  facet normal 0 -1 -0
    outer loop
      vertex 20 0 40
      vertex 0 0 0
      vertex 20 0 0
    endloop
  endfacet
  facet normal 1 -0 0
    outer loop
      vertex 20 0 85
      vertex 20 20 45
      vertex 20 20 85
    endloop
  endfacet
  facet normal 1 0 0
    outer loop
      vertex 20 20 45
      vertex 20 0 85
      vertex 20 0 45
    endloop
  endfacet
  facet normal -0 0 1
    outer loop
      vertex 0 20 85
      vertex 20 0 85
      vertex 20 20 85
    endloop
  endfacet
  facet normal 0 0 1
    outer loop
      vertex 20 0 85
      vertex 0 20 85
      vertex 0 0 85
    endloop
  endfacet
  facet normal 0 0 -1
    outer loop
      vertex 0 0 45
      vertex 20 20 45
      vertex 20 0 45
    endloop
  endfacet
  facet normal -0 0 -1
    outer loop
      vertex 20 20 45
      vertex 0 0 45
      vertex 0 20 45
    endloop
  endfacet
  facet normal -1 0 0
    outer loop
      vertex 0 0 45
      vertex 0 20 85
      vertex 0 20 45
    endloop
  endfacet
  facet normal -1 -0 0
    outer loop
      vertex 0 20 85
      vertex 0 0 45
      vertex 0 0 85
    endloop
  endfacet
  facet normal 0 1 -0
    outer loop
      vertex 20 20 45
      vertex 0 20 85
      vertex 20 20 85
    endloop
  endfacet
  facet normal 0 1 0
    outer loop
      vertex 0 20 85
      vertex 20 20 45
      vertex 0 20 45
    endloop
  endfacet
  facet normal 0 -1 0
    outer loop
      vertex 0 0 45
      vertex 20 0 85
      vertex 0 0 85
    endloop
  endfacet
  facet normal 0 -1 -0
    outer loop
      vertex 20 0 85
      vertex 0 0 45
      vertex 20 0 45
    endloop
  endfacet
  facet normal 1 -0 0
    outer loop
      vertex 20 0 130
      vertex 20 20 90
      vertex 20 20 130
    endloop
  endfacet
  facet normal 1 0 0
    outer loop
      vertex 20 20 90
      vertex 20 0 130
      vertex 20 0 90
    endloop
  endfacet
  facet normal -0 0 1
    outer loop
      vertex 0 20 130
      vertex 20 0 130
      vertex 20 20 130
    endloop
  endfacet
  facet normal 0 0 1
    outer loop
      vertex 20 0 130
      vertex 0 20 130
      vertex 0 0 130
    endloop
  endfacet
  facet normal 0 0 -1
    outer loop
      vertex 0 0 90
      vertex 20 20 90
      vertex 20 0 90
    endloop
  endfacet
  facet normal -0 0 -1
    outer loop
      vertex 20 20 90
      vertex 0 0 90
      vertex 0 20 90
    endloop
  endfacet
  facet normal -1 0 0
    outer loop
      vertex 0 0 90
      vertex 0 20 130
      vertex 0 20 90
    endloop
  endfacet
  facet normal -1 -0 0
    outer loop
      vertex 0 20 130
      vertex 0 0 90
      vertex 0 0 130
    endloop
  endfacet
  facet normal 0 1 -0
    outer loop
      vertex 20 20 90
      vertex 0 20 130
      vertex 20 20 130
    endloop
  endfacet
  facet normal 0 1 0
    outer loop
      vertex 0 20 130
      vertex 20 20 90
      vertex 0 20 90
    endloop
  endfacet
  facet normal 0 -1 0
    outer loop
      vertex 0 0 90
      vertex 20 0 130
      vertex 0 0 130
    endloop
  endfacet
  facet normal 0 -1 -0
    outer loop
      vertex 20 0 130
      vertex 0 0 90
      vertex 20 0 90
    endloop
  endfacet
  facet normal 1 -0 0
    outer loop
      vertex 20 0 175
      vertex 20 20 135
      vertex 20 20 175
    endloop
  endfacet
  facet normal 1 0 0
    outer loop
      vertex 20 20 135
      vertex 20 0 175
      vertex 20 0 135
    endloop
  endfacet
  facet normal -0 0 1
    outer loop
      vertex 0 20 175
      vertex 20 0 175
      vertex 20 20 175
    endloop
  endfacet
  facet normal 0 0 1
    outer loop
      vertex 20 0 175
      vertex 0 20 175
      vertex 0 0 175
    endloop
  endfacet
  facet normal 0 0 -1
    outer loop
      vertex 0 0 135
      vertex 20 20 135
      vertex 20 0 135
    endloop
  endfacet
  facet normal -0 0 -1
    outer loop
      vertex 20 20 135
      vertex 0 0 135
      vertex 0 20 135
    endloop
  endfacet
  facet normal -1 0 0
    outer loop
      vertex 0 0 135
      vertex 0 20 175
      vertex 0 20 135
    endloop
  endfacet
  facet normal -1 -0 0
    outer loop
      vertex 0 20 175
      vertex 0 0 135
      vertex 0 0 175
    endloop
  endfacet
  facet normal 0 1 -0
    outer loop
      vertex 20 20 135
      vertex 0 20 175
      vertex 20 20 175
    endloop
  endfacet
  facet normal 0 1 0
    outer loop
      vertex 0 20 175
      vertex 20 20 135
      vertex 0 20 135
    endloop
  endfacet
  facet normal 0 -1 0
    outer loop
      vertex 0 0 135
      vertex 20 0 175
      vertex 0 0 175
    endloop
  endfacet
  facet normal 0 -1 -0
    outer loop
      vertex 20 0 175
      vertex 0 0 135
      vertex 20 0 135
    endloop
  endfacet
  facet normal 1 -0 0
    outer loop
      vertex 20 0 220
      vertex 20 20 180
      vertex 20 20 220
    endloop
  endfacet
  facet normal 1 0 0
    outer loop
      vertex 20 20 180
      vertex 20 0 220
      vertex 20 0 180
    endloop
  endfacet
  facet normal -0 0 1
    outer loop
      vertex 0 20 220
      vertex 20 0 220
      vertex 20 20 220
    endloop
  endfacet
  facet normal 0 0 1
    outer loop
      vertex 20 0 220
      vertex 0 20 220
      vertex 0 0 220
    endloop
  endfacet
  facet normal 0 0 -1
    outer loop
      vertex 0 0 180
      vertex 20 20 180
      vertex 20 0 180
    endloop
  endfacet
  facet normal -0 0 -1
    outer loop
      vertex 20 20 180
      vertex 0 0 180
      vertex 0 20 180
    endloop
  endfacet
  facet normal -1 0 0
    outer loop
      vertex 0 0 180
      vertex 0 20 220
      vertex 0 20 180
    endloop
  endfacet
  facet normal -1 -0 0
    outer loop
      vertex 0 20 220
      vertex 0 0 180
      vertex 0 0 220
    endloop
  endfacet
  facet normal 0 1 -0
    outer loop
      vertex 20 20 180
      vertex 0 20 220
      vertex 20 20 220
    endloop
  endfacet
  facet normal 0 1 0
    outer loop
      vertex 0 20 220
      vertex 20 20 180
      vertex 0 20 180
    endloop
  endfacet
  facet normal 0 -1 0
    outer loop
      vertex 0 0 180
      vertex 20 0 220
      vertex 0 0 220
    endloop
  endfacet
  facet normal 0 -1 -0
    outer loop
      vertex 20 0 220
      vertex 0 0 180
      vertex 20 0 180
    endloop
  endfacet
  facet normal 1 -0 0
    outer loop
      vertex 20 0 245
      vertex 20 20 225
      vertex 20 20 245
    endloop
  endfacet
  facet normal 1 0 0
    outer loop
      vertex 20 20 225
      vertex 20 0 245
      vertex 20 0 225
    endloop
  endfacet
  facet normal -0 0 1
    outer loop
      vertex 0 20 245
      vertex 20 0 245
      vertex 20 20 245
    endloop
  endfacet
  facet normal 0 0 1
    outer loop
      vertex 20 0 245
      vertex 0 20 245
      vertex 0 0 245
    endloop
  endfacet
  facet normal 0 0 -1
    outer loop
      vertex 0 0 225
      vertex 20 20 225
      vertex 20 0 225
    endloop
  endfacet
  facet normal -0 0 -1
    outer loop
      vertex 20 20 225
      vertex 0 0 225
      vertex 0 20 225
    endloop
  endfacet
  facet normal -1 0 0
    outer loop
      vertex 0 0 225
      vertex 0 20 245
      vertex 0 20 225
    endloop
  endfacet
  facet normal -1 -0 0
    outer loop
      vertex 0 20 245
      vertex 0 0 225
      vertex 0 0 245
    endloop
  endfacet
  facet normal 0 1 -0
    outer loop
      vertex 20 20 225
      vertex 0 20 245
      vertex 20 20 245
    endloop
  endfacet
  facet normal 0 1 0
    outer loop
      vertex 0 20 245
      vertex 20 20 225
      vertex 0 20 225
    endloop
  endfacet
  facet normal 0 -1 0
    outer loop
      vertex 0 0 225
      vertex 20 0 245
      vertex 0 0 245
    endloop
  endfacet
  facet normal 0 -1 -0
    outer loop
      vertex 20 0 245
      vertex 0 0 225
      vertex 20 0 225
    endloop
  endfacet
endsolid OpenSCAD_Model
