solid OpenSCAD_Model
  facet normal 1 -0 0
    outer loop
      vertex 60 0 20
      vertex 60 40 0
      vertex 60 40 20
    endloop
  endfacet
  facet normal 1 0 0
    outer loop
      vertex 60 40 0
      vertex 60 0 20
      vertex 60 0 0
    endloop
  endfacet
  facet normal -0 0 1
    outer loop
      vertex 0 40 20
      vertex 60 0 20
      vertex 60 40 20
    endloop
  endfacet
  facet normal 0 0 1
    outer loop
      vertex 60 0 20
      vertex 0 40 20
      vertex 0 0 20
    endloop
  endfacet
  facet normal 0 0 -1
    outer loop
      vertex 34.641 0 0
      vertex 60 40 0
      vertex 60 0 0
    endloop
  endfacet
  facet normal -0 0 -1
    outer loop
      vertex 60 40 0
      vertex 34.641 0 0
      vertex 34.641 40 0
    endloop
  endfacet
  facet normal -1 0 0
    outer loop
      vertex 0 0 0
      vertex 0 40 20
      vertex 0 40 0
    endloop
  endfacet
  facet normal -1 -0 0
    outer loop
      vertex 0 40 20
      vertex 0 0 0
      vertex 0 0 20
    endloop
  endfacet
  facet normal 0 1 0
    outer loop
      vertex 60 40 20
      vertex 25.9808 40 15
      vertex 0 40 20
    endloop
  endfacet
  facet normal 0 1 0
    outer loop
      vertex 34.641 40 0
      vertex 60 40 20
      vertex 60 40 0
    endloop
  endfacet
  facet normal 0 1 0
    outer loop
      vertex 60 40 20
      vertex 34.641 40 0
      vertex 25.9808 40 15
    endloop
  endfacet
  facet normal 0 1 0
    outer loop
      vertex 0 40 20
      vertex 25.9808 40 15
      vertex 0 40 0
    endloop
  endfacet
  facet normal 0 -1 0
    outer loop
      vertex 0 0 20
      vertex 25.9808 0 15
      vertex 60 0 20
    endloop
  endfacet
  facet normal -0 -1 0
    outer loop
      vertex 25.9808 0 15
      vertex 0 0 20
      vertex 0 0 0
    endloop
  endfacet
  facet normal 0 -1 0
    outer loop
      vertex 34.641 0 0
      vertex 60 0 20
      vertex 25.9808 0 15
    endloop
  endfacet
  facet normal 0 -1 -0
    outer loop
      vertex 60 0 20
      vertex 34.641 0 0
      vertex 60 0 0
    endloop
  endfacet
  facet normal -0.866027 0 -0.499998
    outer loop
      vertex 34.641 0 0
      vertex 25.9808 40 15
      vertex 34.641 40 0
    endloop
  endfacet
  facet normal -0.866027 -0 -0.499998
    outer loop
      vertex 25.9808 40 15
      vertex 34.641 0 0
      vertex 25.9808 0 15
    endloop
  endfacet
  facet normal 0.499999 0 -0.866026
    outer loop
      vertex 0 0 0
      vertex 25.9808 40 15
      vertex 25.9808 0 15
    endloop
  endfacet
  facet normal 0.499999 0 -0.866026
    outer loop
      vertex 25.9808 40 15
      vertex 0 0 0
      vertex 0 40 0
    endloop
  endfacet
  facet normal 1 -0 0
    outer loop
      vertex 48 8 30
      vertex 48 28 20
      vertex 48 28 30
    endloop
  endfacet
  facet normal 1 0 0
    outer loop
      vertex 48 28 20
      vertex 48 8 30
      vertex 48 8 20
    endloop
  endfacet
  facet normal -0 0 1
    outer loop
      vertex 18 28 30
      vertex 23.7735 8 30
      vertex 23.7735 28 30
    endloop
  endfacet
  facet normal 0 0 1
    outer loop
      vertex 23.7735 8 30
      vertex 18 28 30
      vertex 18 8 30
    endloop
  endfacet
  facet normal 0 0 1
    outer loop
      vertex 32 28 30
      vertex 30.6795 28 30
      vertex 32 18 30
    endloop
  endfacet
  facet normal 0 0 1
    outer loop
      vertex 42 18 30
      vertex 48 28 30
      vertex 42 28 30
    endloop
  endfacet
  facet normal 0 0 1
    outer loop
      vertex 48 28 30
      vertex 42 18 30
      vertex 48 8 30
    endloop
  endfacet
  facet normal 0 0 1
    outer loop
      vertex 30.6795 8 30
      vertex 42 18 30
      vertex 32 18 30
    endloop
  endfacet
  facet normal 0 0 1
    outer loop
      vertex 42 18 30
      vertex 30.6795 8 30
      vertex 48 8 30
    endloop
  endfacet
  facet normal 0 0 1
    outer loop
      vertex 30.6795 8 30
      vertex 32 18 30
      vertex 30.6795 28 30
    endloop
  endfacet
  facet normal -1 0 0
    outer loop
      vertex 18 8 20
      vertex 18 28 30
      vertex 18 28 20
    endloop
  endfacet
  facet normal -1 -0 0
    outer loop
      vertex 18 28 30
      vertex 18 8 20
      vertex 18 8 30
    endloop
  endfacet
  facet normal 0 1 0
    outer loop
      vertex 23.7735 28 30
      vertex 18 28 20
      vertex 18 28 30
    endloop
  endfacet
  facet normal 0 1 -0
    outer loop
      vertex 48 28 20
      vertex 42 28 30
      vertex 48 28 30
    endloop
  endfacet
  facet normal 0 1 0
    outer loop
      vertex 42 28 30
      vertex 48 28 20
      vertex 32 28 30
    endloop
  endfacet
  facet normal 0 1 0
    outer loop
      vertex 32 28 30
      vertex 48 28 20
      vertex 30.6795 28 30
    endloop
  endfacet
  facet normal 0 1 -0
    outer loop
      vertex 42 28 30
      vertex 32 28 40
      vertex 42 28 40
    endloop
  endfacet
  facet normal 0 1 0
    outer loop
      vertex 32 28 40
      vertex 42 28 30
      vertex 32 28 30
    endloop
  endfacet
  facet normal 0 -1 0
    outer loop
      vertex 18 8 30
      vertex 18 8 20
      vertex 23.7735 8 30
    endloop
  endfacet
  facet normal -0 -1 -0
    outer loop
      vertex 48 8 30
      vertex 30.6795 8 30
      vertex 48 8 20
    endloop
  endfacet
  facet normal -0.5 0 -0.866025
    outer loop
      vertex 30.6795 8 30
      vertex 48 28 20
      vertex 48 8 20
    endloop
  endfacet
  facet normal -0.5 0 -0.866025
    outer loop
      vertex 48 28 20
      vertex 30.6795 8 30
      vertex 30.6795 28 30
    endloop
  endfacet
  facet normal 0.866026 0 -0.5
    outer loop
      vertex 23.7735 8 30
      vertex 18 28 20
      vertex 23.7735 28 30
    endloop
  endfacet
  facet normal 0.866026 0 -0.5
    outer loop
      vertex 18 28 20
      vertex 23.7735 8 30
      vertex 18 8 20
    endloop
  endfacet
  facet normal 1 -0 0
    outer loop
      vertex 42 18 40
      vertex 42 28 30
      vertex 42 28 40
    endloop
  endfacet
  facet normal 1 0 0
    outer loop
      vertex 42 28 30
      vertex 42 18 40
      vertex 42 18 30
    endloop
  endfacet
  facet normal -0 0 1
    outer loop
      vertex 32 28 40
      vertex 42 18 40
      vertex 42 28 40
    endloop
  endfacet
  facet normal 0 0 1
    outer loop
      vertex 42 18 40
      vertex 32 28 40
      vertex 32 18 40
    endloop
  endfacet
  facet normal -1 0 0
    outer loop
      vertex 32 18 30
      vertex 32 28 40
      vertex 32 28 30
    endloop
  endfacet
  facet normal -1 -0 0
    outer loop
      vertex 32 28 40
      vertex 32 18 30
      vertex 32 18 40
    endloop
  endfacet
  facet normal 0 -1 0
    outer loop
      vertex 32 18 30
      vertex 42 18 40
      vertex 32 18 40
    endloop
  endfacet
  facet normal 0 -1 -0
    outer loop
      vertex 42 18 40
      vertex 32 18 30
      vertex 42 18 30
    endloop
  endfacet
endsolid OpenSCAD_Model
