solid OpenSCAD_Model
  facet normal 0 1 0
    outer loop
      vertex 40 0 0
      vertex 10 0 15
      vertex 30 0 15
    endloop
  endfacet
  facet normal 0 1 0
    outer loop
      vertex 10 0 15
      vertex 40 0 0
      vertex 0 0 0
    endloop
  endfacet
  facet normal -0.83205 0 -0.5547
    outer loop
      vertex 40 0 0
      vertex 30 20 15
      vertex 40 20 0
    endloop
  endfacet
  facet normal -0.83205 -0 -0.5547
    outer loop
      vertex 30 20 15
      vertex 40 0 0
      vertex 30 0 15
    endloop
  endfacet
  facet normal 0 -1 0
    outer loop
      vertex 0 20 0
      vertex 30 20 15
      vertex 10 20 15
    endloop
  endfacet
  facet normal 0 -1 -0
    outer loop
      vertex 30 20 15
      vertex 0 20 0
      vertex 40 20 0
    endloop
  endfacet
  facet normal 0.83205 0 -0.5547
    outer loop
      vertex 10 0 15
      vertex 0 20 0
      vertex 10 20 15
    endloop
  endfacet
  facet normal 0.83205 0 -0.5547
    outer loop
      vertex 0 20 0
      vertex 10 0 15
      vertex 0 0 0
    endloop
  endfacet
  facet normal 0 0 -1
    outer loop
      vertex 10 0 15
      vertex 30 20 15
      vertex 30 0 15
    endloop
  endfacet
  facet normal -0 0 -1
    outer loop
      vertex 30 20 15
      vertex 10 0 15
      vertex 10 20 15
    endloop
  endfacet
  facet normal 0 0 -1
    outer loop
      vertex 0 0 0
      vertex 40 20 0
      vertex 40 0 0
    endloop
  endfacet
  facet normal -0 0 -1
    outer loop
      vertex 40 20 0
      vertex 0 0 0
      vertex 0 20 0
    endloop
  endfacet
endsolid OpenSCAD_Model
