solid OpenSCAD_Model
  facet normal 1 -0 0
    outer loop
      vertex 30 -10 5
      vertex 30 10 -5
      vertex 30 10 5
    endloop
  endfacet
  facet normal 1 0 0
    outer loop
      vertex 30 10 -5
      vertex 30 -10 5
      vertex 30 -10 -5
    endloop
  endfacet
  facet normal -0 0 1
    outer loop
      vertex -30 10 5
      vertex 30 -10 5
      vertex 30 10 5
    endloop
  endfacet
  facet normal 0 0 1
    outer loop
      vertex 30 -10 5
      vertex -30 10 5
      vertex -30 -10 5
    endloop
  endfacet
  facet normal 0 0 -1
    outer loop
      vertex -30 -10 -5
      vertex 30 10 -5
      vertex 30 -10 -5
    endloop
  endfacet
  facet normal -0 0 -1
    outer loop
      vertex 30 10 -5
      vertex -30 -10 -5
      vertex -30 10 -5
    endloop
  endfacet
  facet normal -1 0 0
    outer loop
      vertex -30 -10 -5
      vertex -30 10 5
      vertex -30 10 -5
    endloop
  endfacet
  facet normal -1 -0 0
    outer loop
      vertex -30 10 5
      vertex -30 -10 -5
      vertex -30 -10 5
    endloop
  endfacet
  facet normal 0 1 -0
    outer loop
      vertex 30 10 -5
      vertex -30 10 5
      vertex 30 10 5
    endloop
  endfacet
  facet normal 0 1 0
    outer loop
      vertex -30 10 5
      vertex 30 10 -5
      vertex -30 10 -5
    endloop
  endfacet
  facet normal 0 -1 0
    outer loop
      vertex -30 -10 -5
      vertex 30 -10 5
      vertex -30 -10 5
    endloop
  endfacet
  facet normal 0 -1 -0
    outer loop
      vertex 30 -10 5
      vertex -30 -10 -5
      vertex 30 -10 -5
    endloop
  endfacet
  facet normal 1 -0 0
    outer loop
      vertex 100 -10 5
      vertex 100 10 -5
      vertex 100 10 5
    endloop
  endfacet
  facet normal 1 0 0
    outer loop
      vertex 100 10 -5
      vertex 100 -10 5
      vertex 100 -10 -5
    endloop
  endfacet
  facet normal -0 0 1
    outer loop
      vertex 40 10 5
      vertex 100 -10 5
      vertex 100 10 5
    endloop
  endfacet
  facet normal 0 0 1
    outer loop
      vertex 100 -10 5
      vertex 40 10 5
      vertex 40 -10 5
    endloop
  endfacet
  facet normal 0 0 -1
    outer loop
      vertex 40 -10 -5
      vertex 100 10 -5
      vertex 100 -10 -5
    endloop
  endfacet
  facet normal -0 0 -1
    outer loop
      vertex 100 10 -5
      vertex 40 -10 -5
      vertex 40 10 -5
    endloop
  endfacet
  facet normal -1 0 0
    outer loop
      vertex 40 -10 -5
      vertex 40 10 5
      vertex 40 10 -5
    endloop
  endfacet
  facet normal -1 -0 0
    outer loop
      vertex 40 10 5
      vertex 40 -10 -5
      vertex 40 -10 5
    endloop
  endfacet
  facet normal 0 1 -0
    outer loop
      vertex 100 10 -5
      vertex 40 10 5
      vertex 100 10 5
    endloop
  endfacet
  facet normal 0 1 0
    outer loop
      vertex 40 10 5
      vertex 100 10 -5
      vertex 40 10 -5
    endloop
  endfacet
  facet normal 0 -1 0
    outer loop
      vertex 40 -10 -5
      vertex 100 -10 5
      vertex 40 -10 5
    endloop
  endfacet
  facet normal 0 -1 -0
    outer loop
      vertex 100 -10 5
      vertex 40 -10 -5
      vertex 100 -10 -5
    endloop
  endfacet
  facet normal 1 -0 0
    outer loop
      vertex -40 -10 5
      vertex -40 10 -5
      vertex -40 10 5
    endloop
  endfacet
  facet normal 1 0 0
    outer loop
      vertex -40 10 -5
      vertex -40 -10 5
      vertex -40 -10 -5
    endloop
  endfacet
  facet normal -0 0 1
    outer loop
      vertex -100 10 5
      vertex -40 -10 5
      vertex -40 10 5
    endloop
  endfacet
  facet normal 0 0 1
    outer loop
      vertex -40 -10 5
      vertex -100 10 5
      vertex -100 -10 5
    endloop
  endfacet
  facet normal 0 0 -1
    outer loop
      vertex -100 -10 -5
      vertex -40 10 -5
      vertex -40 -10 -5
    endloop
  endfacet
  facet normal -0 0 -1
    outer loop
      vertex -40 10 -5
      vertex -100 -10 -5
      vertex -100 10 -5
    endloop
  endfacet
  facet normal -1 0 0
    outer loop
      vertex -100 -10 -5
      vertex -100 10 5
      vertex -100 10 -5
    endloop
  endfacet
  facet normal -1 -0 0
    outer loop
      vertex -100 10 5
      vertex -100 -10 -5
      vertex -100 -10 5
    endloop
  endfacet
  facet normal 0 1 -0
    outer loop
      vertex -40 10 -5
      vertex -100 10 5
      vertex -40 10 5
    endloop
  endfacet
  facet normal 0 1 0
    outer loop
      vertex -100 10 5
      vertex -40 10 -5
      vertex -100 10 -5
    endloop
  endfacet
  facet normal 0 -1 0
    outer loop
      vertex -100 -10 -5
      vertex -40 -10 5
      vertex -100 -10 5
    endloop
  endfacet
  facet normal 0 -1 -0
    outer loop
      vertex -40 -10 5
      vertex -100 -10 -5
      vertex -40 -10 -5
    endloop
  endfacet
  facet normal 1 -0 0
    outer loop
      vertex 30 20 5
      vertex 30 40 -5
      vertex 30 40 5
    endloop
  endfacet
  facet normal 1 0 0
    outer loop
      vertex 30 40 -5
      vertex 30 20 5
      vertex 30 20 -5
    endloop
  endfacet
  facet normal -0 0 1
    outer loop
      vertex -30 40 5
      vertex 30 20 5
      vertex 30 40 5
    endloop
  endfacet
  facet normal 0 0 1
    outer loop
      vertex 30 20 5
      vertex -30 40 5
      vertex -30 20 5
    endloop
  endfacet
  facet normal 0 0 -1
    outer loop
      vertex -30 20 -5
      vertex 30 40 -5
      vertex 30 20 -5
    endloop
  endfacet
  facet normal -0 0 -1
    outer loop
      vertex 30 40 -5
      vertex -30 20 -5
      vertex -30 40 -5
    endloop
  endfacet
  facet normal -1 0 0
    outer loop
      vertex -30 20 -5
      vertex -30 40 5
      vertex -30 40 -5
    endloop
  endfacet
  facet normal -1 -0 0
    outer loop
      vertex -30 40 5
      vertex -30 20 -5
      vertex -30 20 5
    endloop
  endfacet
  facet normal 0 1 -0
    outer loop
      vertex 30 40 -5
      vertex -30 40 5
      vertex 30 40 5
    endloop
  endfacet
  facet normal 0 1 0
    outer loop
      vertex -30 40 5
      vertex 30 40 -5
      vertex -30 40 -5
    endloop
  endfacet
  facet normal 0 -1 0
    outer loop
      vertex -30 20 -5
      vertex 30 20 5
      vertex -30 20 5
    endloop
  endfacet
  facet normal 0 -1 -0
    outer loop
      vertex 30 20 5
      vertex -30 20 -5
      vertex 30 20 -5
    endloop
  endfacet
  facet normal 1 -0 0
    outer loop
      vertex 30 -40 5
      vertex 30 -20 -5
      vertex 30 -20 5
    endloop
  endfacet
  facet normal 1 0 0
    outer loop
      vertex 30 -20 -5
      vertex 30 -40 5
      vertex 30 -40 -5
    endloop
  endfacet
  facet normal -0 0 1
    outer loop
      vertex -30 -20 5
      vertex 30 -40 5
      vertex 30 -20 5
    endloop
  endfacet
  facet normal 0 0 1
    outer loop
      vertex 30 -40 5
      vertex -30 -20 5
      vertex -30 -40 5
    endloop
  endfacet
  facet normal 0 0 -1
    outer loop
      vertex -30 -40 -5
      vertex 30 -20 -5
      vertex 30 -40 -5
    endloop
  endfacet
  facet normal -0 0 -1
    outer loop
      vertex 30 -20 -5
      vertex -30 -40 -5
      vertex -30 -20 -5
    endloop
  endfacet
  facet normal -1 0 0
    outer loop
      vertex -30 -40 -5
      vertex -30 -20 5
      vertex -30 -20 -5
    endloop
  endfacet
  facet normal -1 -0 0
    outer loop
      vertex -30 -20 5
      vertex -30 -40 -5
      vertex -30 -40 5
    endloop
  endfacet
  facet normal 0 1 -0
    outer loop
      vertex 30 -20 -5
      vertex -30 -20 5
      vertex 30 -20 5
    endloop
  endfacet
  facet normal 0 1 0
    outer loop
      vertex -30 -20 5
      vertex 30 -20 -5
      vertex -30 -20 -5
    endloop
  endfacet
  facet normal 0 -1 0
    outer loop
      vertex -30 -40 -5
      vertex 30 -40 5
      vertex -30 -40 5
    endloop
  endfacet
  facet normal 0 -1 -0
    outer loop
      vertex 30 -40 5
      vertex -30 -40 -5
      vertex 30 -40 -5
    endloop
  endfacet
  facet normal 1 -0 0
    outer loop
      vertex 30 -10 25
      vertex 30 10 15
      vertex 30 10 25
    endloop
  endfacet
  facet normal 1 0 0
    outer loop
      vertex 30 10 15
      vertex 30 -10 25
      vertex 30 -10 15
    endloop
  endfacet
  facet normal -0 0 1
    outer loop
      vertex -30 10 25
      vertex 30 -10 25
      vertex 30 10 25
    endloop
  endfacet
  facet normal 0 0 1
    outer loop
      vertex 30 -10 25
      vertex -30 10 25
      vertex -30 -10 25
    endloop
  endfacet
  facet normal 0 0 -1
    outer loop
      vertex -30 -10 15
      vertex 30 10 15
      vertex 30 -10 15
    endloop
  endfacet
  facet normal -0 0 -1
    outer loop
      vertex 30 10 15
      vertex -30 -10 15
      vertex -30 10 15
    endloop
  endfacet
  facet normal -1 0 0
    outer loop
      vertex -30 -10 15
      vertex -30 10 25
      vertex -30 10 15
    endloop
  endfacet
  facet normal -1 -0 0
    outer loop
      vertex -30 10 25
      vertex -30 -10 15
      vertex -30 -10 25
    endloop
  endfacet
  facet normal 0 1 -0
    outer loop
      vertex 30 10 15
      vertex -30 10 25
      vertex 30 10 25
    endloop
  endfacet
  facet normal 0 1 0
    outer loop
      vertex -30 10 25
      vertex 30 10 15
      vertex -30 10 15
    endloop
  endfacet
  facet normal 0 -1 0
    outer loop
      vertex -30 -10 15
      vertex 30 -10 25
      vertex -30 -10 25
    endloop
  endfacet
  facet normal 0 -1 -0
    outer loop
      vertex 30 -10 25
      vertex -30 -10 15
      vertex 30 -10 15
    endloop
  endfacet
endsolid OpenSCAD_Model
