solid OpenSCAD_Model
  facet normal 1 -0 0
    outer loop
      vertex 20 0 30
      vertex 20 10 20
      vertex 20 10 30
    endloop
  endfacet
  facet normal 1 0 0
    outer loop
      vertex 20 10 20
      vertex 20 0 30
      vertex 20 0 20
    endloop
  endfacet
  facet normal -0 0 1
    outer loop
      vertex 0 10 30
      vertex 5.16447 0 30
      vertex 5.16447 10 30
    endloop
  endfacet
  facet normal 0 0 1
    outer loop
      vertex 5.16447 0 30
      vertex 0 10 30
      vertex 0 0 30
    endloop
  endfacet
  facet normal -0 0 1
    outer loop
      vertex 14.8355 10 30
      vertex 20 0 30
      vertex 20 10 30
    endloop
  endfacet
  facet normal 0 0 1
    outer loop
      vertex 20 0 30
      vertex 14.8355 10 30
      vertex 14.8355 0 30
    endloop
  endfacet
  facet normal 0 0 -1
    outer loop
      vertex 14.8355 0 20
      vertex 20 10 20
      vertex 20 0 20
    endloop
  endfacet
  facet normal -0 0 -1
    outer loop
      vertex 20 10 20
      vertex 14.8355 0 20
      vertex 14.8355 10 20
    endloop
  endfacet
  facet normal 0 0 -1
    outer loop
      vertex 0 0 20
      vertex 5.16447 10 20
      vertex 5.16447 0 20
    endloop
  endfacet
  facet normal -0 0 -1
    outer loop
      vertex 5.16447 10 20
      vertex 0 0 20
      vertex 0 10 20
    endloop
  endfacet
  facet normal -1 0 0
    outer loop
      vertex 0 0 20
      vertex 0 10 30
      vertex 0 10 20
    endloop
  endfacet
  facet normal -1 -0 0
    outer loop
      vertex 0 10 30
      vertex 0 0 20
      vertex 0 0 30
    endloop
  endfacet
  facet normal 0 1 -0
    outer loop
      vertex 4.11123 10 28.7845
      vertex 0 10 30
      vertex 5.16447 10 30
    endloop
  endfacet
  facet normal 0 1 -0
    outer loop
      vertex 3.28355 10 26.9721
      vertex 0 10 30
      vertex 4.11123 10 28.7845
    endloop
  endfacet
  facet normal 0 1 -0
    outer loop
      vertex 3 10 25
      vertex 0 10 30
      vertex 3.28355 10 26.9721
    endloop
  endfacet
  facet normal 0 1 0
    outer loop
      vertex 0 10 20
      vertex 3 10 25
      vertex 3.28355 10 23.0279
    endloop
  endfacet
  facet normal 0 1 0
    outer loop
      vertex 0 10 20
      vertex 3.28355 10 23.0279
      vertex 4.11123 10 21.2155
    endloop
  endfacet
  facet normal 0 1 0
    outer loop
      vertex 3 10 25
      vertex 0 10 20
      vertex 0 10 30
    endloop
  endfacet
  facet normal 0 1 0
    outer loop
      vertex 0 10 20
      vertex 4.11123 10 21.2155
      vertex 5.16447 10 20
    endloop
  endfacet
  facet normal 0 1 0
    outer loop
      vertex 20 10 30
      vertex 15.8888 10 28.7845
      vertex 14.8355 10 30
    endloop
  endfacet
  facet normal 0 1 0
    outer loop
      vertex 20 10 30
      vertex 16.7164 10 26.9721
      vertex 15.8888 10 28.7845
    endloop
  endfacet
  facet normal 0 1 0
    outer loop
      vertex 20 10 30
      vertex 17 10 25
      vertex 16.7164 10 26.9721
    endloop
  endfacet
  facet normal 0 1 -0
    outer loop
      vertex 20 10 20
      vertex 17 10 25
      vertex 20 10 30
    endloop
  endfacet
  facet normal 0 1 0
    outer loop
      vertex 17 10 25
      vertex 20 10 20
      vertex 16.7164 10 23.0279
    endloop
  endfacet
  facet normal 0 1 0
    outer loop
      vertex 16.7164 10 23.0279
      vertex 20 10 20
      vertex 15.8888 10 21.2155
    endloop
  endfacet
  facet normal 0 1 0
    outer loop
      vertex 15.8888 10 21.2155
      vertex 20 10 20
      vertex 14.8355 10 20
    endloop
  endfacet
  facet normal 0 -1 0
    outer loop
      vertex 0 0 30
      vertex 4.11123 0 28.7845
      vertex 5.16447 0 30
    endloop
  endfacet
  facet normal 0 -1 0
    outer loop
      vertex 0 0 30
      vertex 3.28355 0 26.9721
      vertex 4.11123 0 28.7845
    endloop
  endfacet
  facet normal 0 -1 0
    outer loop
      vertex 0 0 30
      vertex 3 0 25
      vertex 3.28355 0 26.9721
    endloop
  endfacet
  facet normal 0 -1 0
    outer loop
      vertex 0 0 20
      vertex 3 0 25
      vertex 0 0 30
    endloop
  endfacet
  facet normal 0 -1 -0
    outer loop
      vertex 3 0 25
      vertex 0 0 20
      vertex 3.28355 0 23.0279
    endloop
  endfacet
  facet normal 0 -1 -0
    outer loop
      vertex 3.28355 0 23.0279
      vertex 0 0 20
      vertex 4.11123 0 21.2155
    endloop
  endfacet
  facet normal 0 -1 -0
    outer loop
      vertex 4.11123 0 21.2155
      vertex 0 0 20
      vertex 5.16447 0 20
    endloop
  endfacet
  facet normal 0 -1 0
    outer loop
      vertex 15.8888 0 28.7845
      vertex 20 0 30
      vertex 14.8355 0 30
    endloop
  endfacet
  facet normal 0 -1 0
    outer loop
      vertex 16.7164 0 26.9721
      vertex 20 0 30
      vertex 15.8888 0 28.7845
    endloop
  endfacet
  facet normal 0 -1 0
    outer loop
      vertex 17 0 25
      vertex 20 0 30
      vertex 16.7164 0 26.9721
    endloop
  endfacet
  facet normal 0 -1 0
    outer loop
      vertex 20 0 20
      vertex 17 0 25
      vertex 16.7164 0 23.0279
    endloop
  endfacet
  facet normal 0 -1 0
    outer loop
      vertex 20 0 20
      vertex 16.7164 0 23.0279
      vertex 15.8888 0 21.2155
    endloop
  endfacet
  facet normal 0 -1 0
    outer loop
      vertex 17 0 25
      vertex 20 0 20
      vertex 20 0 30
    endloop
  endfacet
  facet normal 0 -1 0
    outer loop
      vertex 20 0 20
      vertex 15.8888 0 21.2155
      vertex 14.8355 0 20
    endloop
  endfacet
  facet normal -0.989818 0 -0.142342
    outer loop
      vertex 17 0 25
      vertex 16.7164 10 26.9721
      vertex 17 10 25
    endloop
  endfacet
  facet normal -0.989818 -0 -0.142342
    outer loop
      vertex 16.7164 10 26.9721
      vertex 17 0 25
      vertex 16.7164 0 26.9721
    endloop
  endfacet
  facet normal -0.90965 0 -0.415375
    outer loop
      vertex 16.7164 0 26.9721
      vertex 15.8888 10 28.7845
      vertex 16.7164 10 26.9721
    endloop
  endfacet
  facet normal -0.90965 -0 -0.415375
    outer loop
      vertex 15.8888 10 28.7845
      vertex 16.7164 0 26.9721
      vertex 15.8888 0 28.7845
    endloop
  endfacet
  facet normal 0.909635 -0 0.415409
    outer loop
      vertex 3.28355 0 23.0279
      vertex 4.11123 10 21.2155
      vertex 3.28355 10 23.0279
    endloop
  endfacet
  facet normal 0.909635 0 0.415409
    outer loop
      vertex 4.11123 10 21.2155
      vertex 3.28355 0 23.0279
      vertex 4.11123 0 21.2155
    endloop
  endfacet
  facet normal -0.75573 0 -0.654883
    outer loop
      vertex 15.8888 0 28.7845
      vertex 14.8355 10 30
      vertex 15.8888 10 28.7845
    endloop
  endfacet
  facet normal -0.75573 -0 -0.654883
    outer loop
      vertex 14.8355 10 30
      vertex 15.8888 0 28.7845
      vertex 14.8355 0 30
    endloop
  endfacet
  facet normal -0.90965 0 0.415375
    outer loop
      vertex 15.8888 0 21.2155
      vertex 16.7164 10 23.0279
      vertex 15.8888 10 21.2155
    endloop
  endfacet
  facet normal -0.90965 0 0.415375
    outer loop
      vertex 16.7164 10 23.0279
      vertex 15.8888 0 21.2155
      vertex 16.7164 0 23.0279
    endloop
  endfacet
  facet normal -0.989818 0 0.142342
    outer loop
      vertex 16.7164 0 23.0279
      vertex 17 10 25
      vertex 16.7164 10 23.0279
    endloop
  endfacet
  facet normal -0.989818 0 0.142342
    outer loop
      vertex 17 10 25
      vertex 16.7164 0 23.0279
      vertex 17 0 25
    endloop
  endfacet
  facet normal -0.75573 0 0.654883
    outer loop
      vertex 14.8355 0 20
      vertex 15.8888 10 21.2155
      vertex 14.8355 10 20
    endloop
  endfacet
  facet normal -0.75573 0 0.654883
    outer loop
      vertex 15.8888 10 21.2155
      vertex 14.8355 0 20
      vertex 15.8888 0 21.2155
    endloop
  endfacet
  facet normal 0.989821 -0 0.142317
    outer loop
      vertex 3 0 25
      vertex 3.28355 10 23.0279
      vertex 3 10 25
    endloop
  endfacet
  facet normal 0.989821 0 0.142317
    outer loop
      vertex 3.28355 10 23.0279
      vertex 3 0 25
      vertex 3.28355 0 23.0279
    endloop
  endfacet
  facet normal 0.909635 0 -0.415409
    outer loop
      vertex 4.11123 0 28.7845
      vertex 3.28355 10 26.9721
      vertex 4.11123 10 28.7845
    endloop
  endfacet
  facet normal 0.909635 0 -0.415409
    outer loop
      vertex 3.28355 10 26.9721
      vertex 4.11123 0 28.7845
      vertex 3.28355 0 26.9721
    endloop
  endfacet
  facet normal 0.755749 0 -0.654862
    outer loop
      vertex 5.16447 0 30
      vertex 4.11123 10 28.7845
      vertex 5.16447 10 30
    endloop
  endfacet
  facet normal 0.755749 0 -0.654862
    outer loop
      vertex 4.11123 10 28.7845
      vertex 5.16447 0 30
      vertex 4.11123 0 28.7845
    endloop
  endfacet
  facet normal 0.755749 -0 0.654862
    outer loop
      vertex 4.11123 0 21.2155
      vertex 5.16447 10 20
      vertex 4.11123 10 21.2155
    endloop
  endfacet
  facet normal 0.755749 0 0.654862
    outer loop
      vertex 5.16447 10 20
      vertex 4.11123 0 21.2155
      vertex 5.16447 0 20
    endloop
  endfacet
  facet normal 0.989821 0 -0.142317
    outer loop
      vertex 3.28355 0 26.9721
      vertex 3 10 25
      vertex 3.28355 10 26.9721
    endloop
  endfacet
  facet normal 0.989821 0 -0.142317
    outer loop
      vertex 3 10 25
      vertex 3.28355 0 26.9721
      vertex 3 0 25
    endloop
  endfacet
  facet normal 1 -0 0
    outer loop
      vertex 50 0 30
      vertex 50 10 20
      vertex 50 10 30
    endloop
  endfacet
  facet normal 1 0 0
    outer loop
      vertex 50 10 20
      vertex 50 0 30
      vertex 50 0 20
    endloop
  endfacet
  facet normal -0 0 1
    outer loop
      vertex 30 10 30
      vertex 35.1645 0 30
      vertex 35.1645 10 30
    endloop
  endfacet
  facet normal 0 0 1
    outer loop
      vertex 35.1645 0 30
      vertex 30 10 30
      vertex 30 0 30
    endloop
  endfacet
  facet normal -0 0 1
    outer loop
      vertex 44.8355 10 30
      vertex 50 0 30
      vertex 50 10 30
    endloop
  endfacet
  facet normal 0 0 1
    outer loop
      vertex 50 0 30
      vertex 44.8355 10 30
      vertex 44.8355 0 30
    endloop
  endfacet
  facet normal 0 0 -1
    outer loop
      vertex 44.8355 0 20
      vertex 50 10 20
      vertex 50 0 20
    endloop
  endfacet
  facet normal -0 0 -1
    outer loop
      vertex 50 10 20
      vertex 44.8355 0 20
      vertex 44.8355 10 20
    endloop
  endfacet
  facet normal 0 0 -1
    outer loop
      vertex 30 0 20
      vertex 35.1645 10 20
      vertex 35.1645 0 20
    endloop
  endfacet
  facet normal -0 0 -1
    outer loop
      vertex 35.1645 10 20
      vertex 30 0 20
      vertex 30 10 20
    endloop
  endfacet
  facet normal -1 0 0
    outer loop
      vertex 30 0 20
      vertex 30 10 30
      vertex 30 10 20
    endloop
  endfacet
  facet normal -1 -0 0
    outer loop
      vertex 30 10 30
      vertex 30 0 20
      vertex 30 0 30
    endloop
  endfacet
  facet normal 0 1 -0
    outer loop
      vertex 34.1112 10 28.7845
      vertex 30 10 30
      vertex 35.1645 10 30
    endloop
  endfacet
  facet normal 0 1 -0
    outer loop
      vertex 33.2835 10 26.9721
      vertex 30 10 30
      vertex 34.1112 10 28.7845
    endloop
  endfacet
  facet normal 0 1 -0
    outer loop
      vertex 33 10 25
      vertex 30 10 30
      vertex 33.2835 10 26.9721
    endloop
  endfacet
  facet normal 0 1 0
    outer loop
      vertex 30 10 20
      vertex 33 10 25
      vertex 33.2835 10 23.0279
    endloop
  endfacet
  facet normal 0 1 0
    outer loop
      vertex 30 10 20
      vertex 33.2835 10 23.0279
      vertex 34.1112 10 21.2155
    endloop
  endfacet
  facet normal 0 1 0
    outer loop
      vertex 33 10 25
      vertex 30 10 20
      vertex 30 10 30
    endloop
  endfacet
  facet normal 0 1 0
    outer loop
      vertex 30 10 20
      vertex 34.1112 10 21.2155
      vertex 35.1645 10 20
    endloop
  endfacet
  facet normal 0 1 0
    outer loop
      vertex 50 10 30
      vertex 45.8888 10 28.7845
      vertex 44.8355 10 30
    endloop
  endfacet
  facet normal 0 1 0
    outer loop
      vertex 50 10 30
      vertex 46.7164 10 26.9721
      vertex 45.8888 10 28.7845
    endloop
  endfacet
  facet normal 0 1 0
    outer loop
      vertex 50 10 30
      vertex 47 10 25
      vertex 46.7164 10 26.9721
    endloop
  endfacet
  facet normal 0 1 -0
    outer loop
      vertex 50 10 20
      vertex 47 10 25
      vertex 50 10 30
    endloop
  endfacet
  facet normal 0 1 0
    outer loop
      vertex 47 10 25
      vertex 50 10 20
      vertex 46.7164 10 23.0279
    endloop
  endfacet
  facet normal 0 1 0
    outer loop
      vertex 46.7164 10 23.0279
      vertex 50 10 20
      vertex 45.8888 10 21.2155
    endloop
  endfacet
  facet normal 0 1 0
    outer loop
      vertex 45.8888 10 21.2155
      vertex 50 10 20
      vertex 44.8355 10 20
    endloop
  endfacet
  facet normal 0 -1 0
    outer loop
      vertex 30 0 30
      vertex 34.1112 0 28.7845
      vertex 35.1645 0 30
    endloop
  endfacet
  facet normal 0 -1 0
    outer loop
      vertex 30 0 30
      vertex 33.2835 0 26.9721
      vertex 34.1112 0 28.7845
    endloop
  endfacet
  facet normal 0 -1 0
    outer loop
      vertex 30 0 30
      vertex 33 0 25
      vertex 33.2835 0 26.9721
    endloop
  endfacet
  facet normal 0 -1 0
    outer loop
      vertex 30 0 20
      vertex 33 0 25
      vertex 30 0 30
    endloop
  endfacet
  facet normal 0 -1 -0
    outer loop
      vertex 33 0 25
      vertex 30 0 20
      vertex 33.2835 0 23.0279
    endloop
  endfacet
  facet normal 0 -1 -0
    outer loop
      vertex 33.2835 0 23.0279
      vertex 30 0 20
      vertex 34.1112 0 21.2155
    endloop
  endfacet
  facet normal 0 -1 -0
    outer loop
      vertex 34.1112 0 21.2155
      vertex 30 0 20
      vertex 35.1645 0 20
    endloop
  endfacet
  facet normal 0 -1 0
    outer loop
      vertex 45.8888 0 28.7845
      vertex 50 0 30
      vertex 44.8355 0 30
    endloop
  endfacet
  facet normal 0 -1 0
    outer loop
      vertex 46.7164 0 26.9721
      vertex 50 0 30
      vertex 45.8888 0 28.7845
    endloop
  endfacet
  facet normal 0 -1 0
    outer loop
      vertex 47 0 25
      vertex 50 0 30
      vertex 46.7164 0 26.9721
    endloop
  endfacet
  facet normal 0 -1 0
    outer loop
      vertex 50 0 20
      vertex 47 0 25
      vertex 46.7164 0 23.0279
    endloop
  endfacet
  facet normal 0 -1 0
    outer loop
      vertex 50 0 20
      vertex 46.7164 0 23.0279
      vertex 45.8888 0 21.2155
    endloop
  endfacet
  facet normal 0 -1 0
    outer loop
      vertex 47 0 25
      vertex 50 0 20
      vertex 50 0 30
    endloop
  endfacet
  facet normal 0 -1 0
    outer loop
      vertex 50 0 20
      vertex 45.8888 0 21.2155
      vertex 44.8355 0 20
    endloop
  endfacet
  facet normal -0.989818 0 -0.142342
    outer loop
      vertex 47 0 25
      vertex 46.7164 10 26.9721
      vertex 47 10 25
    endloop
  endfacet
  facet normal -0.989818 -0 -0.142342
    outer loop
      vertex 46.7164 10 26.9721
      vertex 47 0 25
      vertex 46.7164 0 26.9721
    endloop
  endfacet
  facet normal -0.90965 0 -0.415375
    outer loop
      vertex 46.7164 0 26.9721
      vertex 45.8888 10 28.7845
      vertex 46.7164 10 26.9721
    endloop
  endfacet
  facet normal -0.90965 -0 -0.415375
    outer loop
      vertex 45.8888 10 28.7845
      vertex 46.7164 0 26.9721
      vertex 45.8888 0 28.7845
    endloop
  endfacet
  facet normal 0.909631 -0 0.415417
    outer loop
      vertex 33.2835 0 23.0279
      vertex 34.1112 10 21.2155
      vertex 33.2835 10 23.0279
    endloop
  endfacet
  facet normal 0.909631 0 0.415417
    outer loop
      vertex 34.1112 10 21.2155
      vertex 33.2835 0 23.0279
      vertex 34.1112 0 21.2155
    endloop
  endfacet
  facet normal -0.75573 0 -0.654883
    outer loop
      vertex 45.8888 0 28.7845
      vertex 44.8355 10 30
      vertex 45.8888 10 28.7845
    endloop
  endfacet
  facet normal -0.75573 -0 -0.654883
    outer loop
      vertex 44.8355 10 30
      vertex 45.8888 0 28.7845
      vertex 44.8355 0 30
    endloop
  endfacet
  facet normal -0.90965 0 0.415375
    outer loop
      vertex 45.8888 0 21.2155
      vertex 46.7164 10 23.0279
      vertex 45.8888 10 21.2155
    endloop
  endfacet
  facet normal -0.90965 0 0.415375
    outer loop
      vertex 46.7164 10 23.0279
      vertex 45.8888 0 21.2155
      vertex 46.7164 0 23.0279
    endloop
  endfacet
  facet normal -0.989818 0 0.142342
    outer loop
      vertex 46.7164 0 23.0279
      vertex 47 10 25
      vertex 46.7164 10 23.0279
    endloop
  endfacet
  facet normal -0.989818 0 0.142342
    outer loop
      vertex 47 10 25
      vertex 46.7164 0 23.0279
      vertex 47 0 25
    endloop
  endfacet
  facet normal -0.75573 0 0.654883
    outer loop
      vertex 44.8355 0 20
      vertex 45.8888 10 21.2155
      vertex 44.8355 10 20
    endloop
  endfacet
  facet normal -0.75573 0 0.654883
    outer loop
      vertex 45.8888 10 21.2155
      vertex 44.8355 0 20
      vertex 45.8888 0 21.2155
    endloop
  endfacet
  facet normal 0.989825 -0 0.142293
    outer loop
      vertex 33 0 25
      vertex 33.2835 10 23.0279
      vertex 33 10 25
    endloop
  endfacet
  facet normal 0.989825 0 0.142293
    outer loop
      vertex 33.2835 10 23.0279
      vertex 33 0 25
      vertex 33.2835 0 23.0279
    endloop
  endfacet
  facet normal 0.909631 0 -0.415417
    outer loop
      vertex 34.1112 0 28.7845
      vertex 33.2835 10 26.9721
      vertex 34.1112 10 28.7845
    endloop
  endfacet
  facet normal 0.909631 0 -0.415417
    outer loop
      vertex 33.2835 10 26.9721
      vertex 34.1112 0 28.7845
      vertex 33.2835 0 26.9721
    endloop
  endfacet
  facet normal 0.75573 0 -0.654883
    outer loop
      vertex 35.1645 0 30
      vertex 34.1112 10 28.7845
      vertex 35.1645 10 30
    endloop
  endfacet
  facet normal 0.75573 0 -0.654883
    outer loop
      vertex 34.1112 10 28.7845
      vertex 35.1645 0 30
      vertex 34.1112 0 28.7845
    endloop
  endfacet
  facet normal 0.75573 -0 0.654883
    outer loop
      vertex 34.1112 0 21.2155
      vertex 35.1645 10 20
      vertex 34.1112 10 21.2155
    endloop
  endfacet
  facet normal 0.75573 0 0.654883
    outer loop
      vertex 35.1645 10 20
      vertex 34.1112 0 21.2155
      vertex 35.1645 0 20
    endloop
  endfacet
  facet normal 0.989825 0 -0.142293
    outer loop
      vertex 33.2835 0 26.9721
      vertex 33 10 25
      vertex 33.2835 10 26.9721
    endloop
  endfacet
  facet normal 0.989825 0 -0.142293
    outer loop
      vertex 33 10 25
      vertex 33.2835 0 26.9721
      vertex 33 0 25
    endloop
  endfacet
  facet normal 1 -0 0
    outer loop
      vertex 20 0 5
      vertex 20 10 0
      vertex 20 10 5
    endloop
  endfacet
  facet normal 1 0 0
    outer loop
      vertex 20 10 0
      vertex 20 0 5
      vertex 20 0 0
    endloop
  endfacet
  facet normal 0 0 -1
    outer loop
      vertex 0 10 5
      vertex 10 20 5
      vertex 10 10 5
    endloop
  endfacet
  facet normal -0 0 -1
    outer loop
      vertex 10 20 5
      vertex 0 10 5
      vertex 0 20 5
    endloop
  endfacet
  facet normal -0 0 1
    outer loop
      vertex 10 10 5
      vertex 20 0 5
      vertex 20 10 5
    endloop
  endfacet
  facet normal 0 0 1
    outer loop
      vertex 20 0 5
      vertex 10 10 5
      vertex 10 0 5
    endloop
  endfacet
  facet normal 0 0 -1
    outer loop
      vertex 0 0 0
      vertex 20 10 0
      vertex 20 0 0
    endloop
  endfacet
  facet normal -0 0 -1
    outer loop
      vertex 20 10 0
      vertex 0 0 0
      vertex 0 10 0
    endloop
  endfacet
  facet normal -1 0 0
    outer loop
      vertex 0 10 0
      vertex 0 0 0
      vertex 0 10 5
    endloop
  endfacet
  facet normal -1 0 0
    outer loop
      vertex 0 10 5
      vertex 0 20 10
      vertex 0 20 5
    endloop
  endfacet
  facet normal -1 0 0
    outer loop
      vertex 0 0 10
      vertex 0 10 5
      vertex 0 0 0
    endloop
  endfacet
  facet normal -1 0 0
    outer loop
      vertex 0 10 5
      vertex 0 0 10
      vertex 0 20 10
    endloop
  endfacet
  facet normal 0 1 -0
    outer loop
      vertex 16.555 10 4.44986
      vertex 10 10 5
      vertex 20 10 5
    endloop
  endfacet
  facet normal 0 1 -0
    outer loop
      vertex 15.1981 10 3.36777
      vertex 10 10 5
      vertex 16.555 10 4.44986
    endloop
  endfacet
  facet normal 0 1 0
    outer loop
      vertex 20 10 5
      vertex 18.247 10 4.06366
      vertex 16.555 10 4.44986
    endloop
  endfacet
  facet normal 0 1 0
    outer loop
      vertex 20 10 5
      vertex 19 10 2.5
      vertex 18.247 10 4.06366
    endloop
  endfacet
  facet normal 0 1 0
    outer loop
      vertex 18.247 10 0.936337
      vertex 20 10 0
      vertex 16.555 10 0.550143
    endloop
  endfacet
  facet normal 0 1 0
    outer loop
      vertex 19 10 2.5
      vertex 20 10 0
      vertex 18.247 10 0.936337
    endloop
  endfacet
  facet normal 0 1 -0
    outer loop
      vertex 20 10 0
      vertex 19 10 2.5
      vertex 20 10 5
    endloop
  endfacet
  facet normal 0 1 -0
    outer loop
      vertex 15.1981 10 1.63223
      vertex 10 10 5
      vertex 15.1981 10 3.36777
    endloop
  endfacet
  facet normal 0 1 0
    outer loop
      vertex 0 10 0
      vertex 10 10 5
      vertex 15.1981 10 1.63223
    endloop
  endfacet
  facet normal 0 1 0
    outer loop
      vertex 0 10 0
      vertex 15.1981 10 1.63223
      vertex 16.555 10 0.550143
    endloop
  endfacet
  facet normal 0 1 0
    outer loop
      vertex 10 10 5
      vertex 0 10 0
      vertex 0 10 5
    endloop
  endfacet
  facet normal 0 1 0
    outer loop
      vertex 0 10 0
      vertex 16.555 10 0.550143
      vertex 20 10 0
    endloop
  endfacet
  facet normal 0 -1 0
    outer loop
      vertex 0 0 10
      vertex 10 0 5
      vertex 10 0 10
    endloop
  endfacet
  facet normal 0 -1 0
    outer loop
      vertex 10 0 5
      vertex 16.555 0 4.44986
      vertex 20 0 5
    endloop
  endfacet
  facet normal 0 -1 0
    outer loop
      vertex 10 0 5
      vertex 15.1981 0 3.36777
      vertex 16.555 0 4.44986
    endloop
  endfacet
  facet normal 0 -1 0
    outer loop
      vertex 10 0 5
      vertex 15.1981 0 1.63223
      vertex 15.1981 0 3.36777
    endloop
  endfacet
  facet normal 0 -1 0
    outer loop
      vertex 0 0 0
      vertex 10 0 5
      vertex 0 0 10
    endloop
  endfacet
  facet normal 0 -1 -0
    outer loop
      vertex 10 0 5
      vertex 0 0 0
      vertex 15.1981 0 1.63223
    endloop
  endfacet
  facet normal 0 -1 -0
    outer loop
      vertex 15.1981 0 1.63223
      vertex 0 0 0
      vertex 16.555 0 0.550143
    endloop
  endfacet
  facet normal 0 -1 0
    outer loop
      vertex 18.247 0 4.06366
      vertex 20 0 5
      vertex 16.555 0 4.44986
    endloop
  endfacet
  facet normal 0 -1 0
    outer loop
      vertex 19 0 2.5
      vertex 20 0 5
      vertex 18.247 0 4.06366
    endloop
  endfacet
  facet normal 0 -1 0
    outer loop
      vertex 19 0 2.5
      vertex 20 0 0
      vertex 20 0 5
    endloop
  endfacet
  facet normal 0 -1 0
    outer loop
      vertex 18.247 0 0.936337
      vertex 20 0 0
      vertex 19 0 2.5
    endloop
  endfacet
  facet normal 0 -1 0
    outer loop
      vertex 16.555 0 0.550143
      vertex 20 0 0
      vertex 18.247 0 0.936337
    endloop
  endfacet
  facet normal 0 -1 0
    outer loop
      vertex 20 0 0
      vertex 16.555 0 0.550143
      vertex 0 0 0
    endloop
  endfacet
  facet normal 1 0 0
    outer loop
      vertex 10 20 10
      vertex 10 10 5
      vertex 10 20 5
    endloop
  endfacet
  facet normal 1 -0 0
    outer loop
      vertex 10 0 10
      vertex 10 10 5
      vertex 10 20 10
    endloop
  endfacet
  facet normal 1 0 0
    outer loop
      vertex 10 10 5
      vertex 10 0 10
      vertex 10 0 5
    endloop
  endfacet
  facet normal -0 0 1
    outer loop
      vertex 0 20 10
      vertex 10 0 10
      vertex 10 20 10
    endloop
  endfacet
  facet normal 0 0 1
    outer loop
      vertex 10 0 10
      vertex 0 20 10
      vertex 0 0 10
    endloop
  endfacet
  facet normal 0 1 -0
    outer loop
      vertex 10 20 5
      vertex 0 20 10
      vertex 10 20 10
    endloop
  endfacet
  facet normal 0 1 0
    outer loop
      vertex 0 20 10
      vertex 10 20 5
      vertex 0 20 5
    endloop
  endfacet
  facet normal -0.222528 0 -0.974926
    outer loop
      vertex 16.555 0 4.44986
      vertex 18.247 10 4.06366
      vertex 18.247 0 4.06366
    endloop
  endfacet
  facet normal -0.222528 0 -0.974926
    outer loop
      vertex 18.247 10 4.06366
      vertex 16.555 0 4.44986
      vertex 16.555 10 4.44986
    endloop
  endfacet
  facet normal -0.900973 0 -0.433875
    outer loop
      vertex 19 0 2.5
      vertex 18.247 10 4.06366
      vertex 19 10 2.5
    endloop
  endfacet
  facet normal -0.900973 -0 -0.433875
    outer loop
      vertex 18.247 10 4.06366
      vertex 19 0 2.5
      vertex 18.247 0 4.06366
    endloop
  endfacet
  facet normal -0.900973 0 0.433874
    outer loop
      vertex 18.247 0 0.936337
      vertex 19 10 2.5
      vertex 18.247 10 0.936337
    endloop
  endfacet
  facet normal -0.900973 0 0.433874
    outer loop
      vertex 19 10 2.5
      vertex 18.247 0 0.936337
      vertex 19 0 2.5
    endloop
  endfacet
  facet normal 0.623489 0 -0.781832
    outer loop
      vertex 15.1981 0 3.36777
      vertex 16.555 10 4.44986
      vertex 16.555 0 4.44986
    endloop
  endfacet
  facet normal 0.623489 0 -0.781832
    outer loop
      vertex 16.555 10 4.44986
      vertex 15.1981 0 3.36777
      vertex 15.1981 10 3.36777
    endloop
  endfacet
  facet normal 0.623488 0 0.781833
    outer loop
      vertex 15.1981 10 1.63223
      vertex 16.555 0 0.550143
      vertex 16.555 10 0.550143
    endloop
  endfacet
  facet normal 0.623488 0 0.781833
    outer loop
      vertex 16.555 0 0.550143
      vertex 15.1981 10 1.63223
      vertex 15.1981 0 1.63223
    endloop
  endfacet
  facet normal -0.222524 0 0.974927
    outer loop
      vertex 16.555 10 0.550143
      vertex 18.247 0 0.936337
      vertex 18.247 10 0.936337
    endloop
  endfacet
  facet normal -0.222524 0 0.974927
    outer loop
      vertex 18.247 0 0.936337
      vertex 16.555 10 0.550143
      vertex 16.555 0 0.550143
    endloop
  endfacet
  facet normal 1 -0 0
    outer loop
      vertex 15.1981 0 3.36777
      vertex 15.1981 10 1.63223
      vertex 15.1981 10 3.36777
    endloop
  endfacet
  facet normal 1 0 0
    outer loop
      vertex 15.1981 10 1.63223
      vertex 15.1981 0 3.36777
      vertex 15.1981 0 1.63223
    endloop
  endfacet
  facet normal 1 -0 0
    outer loop
      vertex 50 0 5
      vertex 50 10 0
      vertex 50 10 5
    endloop
  endfacet
  facet normal 1 0 0
    outer loop
      vertex 50 10 0
      vertex 50 0 5
      vertex 50 0 0
    endloop
  endfacet
  facet normal 0 0 -1
    outer loop
      vertex 30 10 5
      vertex 40 20 5
      vertex 40 10 5
    endloop
  endfacet
  facet normal -0 0 -1
    outer loop
      vertex 40 20 5
      vertex 30 10 5
      vertex 30 20 5
    endloop
  endfacet
  facet normal -0 0 1
    outer loop
      vertex 40 10 5
      vertex 50 0 5
      vertex 50 10 5
    endloop
  endfacet
  facet normal 0 0 1
    outer loop
      vertex 50 0 5
      vertex 40 10 5
      vertex 40 0 5
    endloop
  endfacet
  facet normal 0 0 -1
    outer loop
      vertex 30 0 0
      vertex 50 10 0
      vertex 50 0 0
    endloop
  endfacet
  facet normal -0 0 -1
    outer loop
      vertex 50 10 0
      vertex 30 0 0
      vertex 30 10 0
    endloop
  endfacet
  facet normal -1 0 0
    outer loop
      vertex 30 10 0
      vertex 30 0 0
      vertex 30 10 5
    endloop
  endfacet
  facet normal -1 0 0
    outer loop
      vertex 30 10 5
      vertex 30 20 10
      vertex 30 20 5
    endloop
  endfacet
  facet normal -1 0 0
    outer loop
      vertex 30 0 10
      vertex 30 10 5
      vertex 30 0 0
    endloop
  endfacet
  facet normal -1 0 0
    outer loop
      vertex 30 10 5
      vertex 30 0 10
      vertex 30 20 10
    endloop
  endfacet
  facet normal 0 1 -0
    outer loop
      vertex 46.555 10 4.44986
      vertex 40 10 5
      vertex 50 10 5
    endloop
  endfacet
  facet normal 0 1 -0
    outer loop
      vertex 45.1981 10 3.36777
      vertex 40 10 5
      vertex 46.555 10 4.44986
    endloop
  endfacet
  facet normal 0 1 0
    outer loop
      vertex 50 10 5
      vertex 48.247 10 4.06366
      vertex 46.555 10 4.44986
    endloop
  endfacet
  facet normal 0 1 0
    outer loop
      vertex 50 10 5
      vertex 49 10 2.5
      vertex 48.247 10 4.06366
    endloop
  endfacet
  facet normal 0 1 0
    outer loop
      vertex 48.247 10 0.936337
      vertex 50 10 0
      vertex 46.555 10 0.550143
    endloop
  endfacet
  facet normal 0 1 0
    outer loop
      vertex 49 10 2.5
      vertex 50 10 0
      vertex 48.247 10 0.936337
    endloop
  endfacet
  facet normal 0 1 -0
    outer loop
      vertex 50 10 0
      vertex 49 10 2.5
      vertex 50 10 5
    endloop
  endfacet
  facet normal 0 1 -0
    outer loop
      vertex 45.1981 10 1.63223
      vertex 40 10 5
      vertex 45.1981 10 3.36777
    endloop
  endfacet
  facet normal 0 1 0
    outer loop
      vertex 30 10 0
      vertex 40 10 5
      vertex 45.1981 10 1.63223
    endloop
  endfacet
  facet normal 0 1 0
    outer loop
      vertex 30 10 0
      vertex 45.1981 10 1.63223
      vertex 46.555 10 0.550143
    endloop
  endfacet
  facet normal 0 1 0
    outer loop
      vertex 40 10 5
      vertex 30 10 0
      vertex 30 10 5
    endloop
  endfacet
  facet normal 0 1 0
    outer loop
      vertex 30 10 0
      vertex 46.555 10 0.550143
      vertex 50 10 0
    endloop
  endfacet
  facet normal 0 -1 0
    outer loop
      vertex 30 0 10
      vertex 40 0 5
      vertex 40 0 10
    endloop
  endfacet
  facet normal 0 -1 0
    outer loop
      vertex 40 0 5
      vertex 46.555 0 4.44986
      vertex 50 0 5
    endloop
  endfacet
  facet normal 0 -1 0
    outer loop
      vertex 40 0 5
      vertex 45.1981 0 3.36777
      vertex 46.555 0 4.44986
    endloop
  endfacet
  facet normal 0 -1 0
    outer loop
      vertex 40 0 5
      vertex 45.1981 0 1.63223
      vertex 45.1981 0 3.36777
    endloop
  endfacet
  facet normal 0 -1 0
    outer loop
      vertex 30 0 0
      vertex 40 0 5
      vertex 30 0 10
    endloop
  endfacet
  facet normal 0 -1 -0
    outer loop
      vertex 40 0 5
      vertex 30 0 0
      vertex 45.1981 0 1.63223
    endloop
  endfacet
  facet normal 0 -1 -0
    outer loop
      vertex 45.1981 0 1.63223
      vertex 30 0 0
      vertex 46.555 0 0.550143
    endloop
  endfacet
  facet normal 0 -1 0
    outer loop
      vertex 48.247 0 4.06366
      vertex 50 0 5
      vertex 46.555 0 4.44986
    endloop
  endfacet
  facet normal 0 -1 0
    outer loop
      vertex 49 0 2.5
      vertex 50 0 5
      vertex 48.247 0 4.06366
    endloop
  endfacet
  facet normal 0 -1 0
    outer loop
      vertex 49 0 2.5
      vertex 50 0 0
      vertex 50 0 5
    endloop
  endfacet
  facet normal 0 -1 0
    outer loop
      vertex 48.247 0 0.936337
      vertex 50 0 0
      vertex 49 0 2.5
    endloop
  endfacet
  facet normal 0 -1 0
    outer loop
      vertex 46.555 0 0.550143
      vertex 50 0 0
      vertex 48.247 0 0.936337
    endloop
  endfacet
  facet normal 0 -1 0
    outer loop
      vertex 50 0 0
      vertex 46.555 0 0.550143
      vertex 30 0 0
    endloop
  endfacet
  facet normal 1 0 0
    outer loop
      vertex 40 20 10
      vertex 40 10 5
      vertex 40 20 5
    endloop
  endfacet
  facet normal 1 -0 0
    outer loop
      vertex 40 0 10
      vertex 40 10 5
      vertex 40 20 10
    endloop
  endfacet
  facet normal 1 0 0
    outer loop
      vertex 40 10 5
      vertex 40 0 10
      vertex 40 0 5
    endloop
  endfacet
  facet normal -0 0 1
    outer loop
      vertex 30 20 10
      vertex 40 0 10
      vertex 40 20 10
    endloop
  endfacet
  facet normal 0 0 1
    outer loop
      vertex 40 0 10
      vertex 30 20 10
      vertex 30 0 10
    endloop
  endfacet
  facet normal 0 1 -0
    outer loop
      vertex 40 20 5
      vertex 30 20 10
      vertex 40 20 10
    endloop
  endfacet
  facet normal 0 1 0
    outer loop
      vertex 30 20 10
      vertex 40 20 5
      vertex 30 20 5
    endloop
  endfacet
  facet normal -0.222528 0 -0.974926
    outer loop
      vertex 46.555 0 4.44986
      vertex 48.247 10 4.06366
      vertex 48.247 0 4.06366
    endloop
  endfacet
  facet normal -0.222528 0 -0.974926
    outer loop
      vertex 48.247 10 4.06366
      vertex 46.555 0 4.44986
      vertex 46.555 10 4.44986
    endloop
  endfacet
  facet normal -0.900973 0 -0.433875
    outer loop
      vertex 49 0 2.5
      vertex 48.247 10 4.06366
      vertex 49 10 2.5
    endloop
  endfacet
  facet normal -0.900973 -0 -0.433875
    outer loop
      vertex 48.247 10 4.06366
      vertex 49 0 2.5
      vertex 48.247 0 4.06366
    endloop
  endfacet
  facet normal -0.900973 0 0.433874
    outer loop
      vertex 48.247 0 0.936337
      vertex 49 10 2.5
      vertex 48.247 10 0.936337
    endloop
  endfacet
  facet normal -0.900973 0 0.433874
    outer loop
      vertex 49 10 2.5
      vertex 48.247 0 0.936337
      vertex 49 0 2.5
    endloop
  endfacet
  facet normal 0.623489 0 -0.781832
    outer loop
      vertex 45.1981 0 3.36777
      vertex 46.555 10 4.44986
      vertex 46.555 0 4.44986
    endloop
  endfacet
  facet normal 0.623489 0 -0.781832
    outer loop
      vertex 46.555 10 4.44986
      vertex 45.1981 0 3.36777
      vertex 45.1981 10 3.36777
    endloop
  endfacet
  facet normal 0.623488 0 0.781833
    outer loop
      vertex 45.1981 10 1.63223
      vertex 46.555 0 0.550143
      vertex 46.555 10 0.550143
    endloop
  endfacet
  facet normal 0.623488 0 0.781833
    outer loop
      vertex 46.555 0 0.550143
      vertex 45.1981 10 1.63223
      vertex 45.1981 0 1.63223
    endloop
  endfacet
  facet normal -0.222524 0 0.974927
    outer loop
      vertex 46.555 10 0.550143
      vertex 48.247 0 0.936337
      vertex 48.247 10 0.936337
    endloop
  endfacet
  facet normal -0.222524 0 0.974927
    outer loop
      vertex 48.247 0 0.936337
      vertex 46.555 10 0.550143
      vertex 46.555 0 0.550143
    endloop
  endfacet
  facet normal 1 -0 0
    outer loop
      vertex 45.1981 0 3.36777
      vertex 45.1981 10 1.63223
      vertex 45.1981 10 3.36777
    endloop
  endfacet
  facet normal 1 0 0
    outer loop
      vertex 45.1981 10 1.63223
      vertex 45.1981 0 3.36777
      vertex 45.1981 0 1.63223
    endloop
  endfacet
endsolid OpenSCAD_Model
