solid OpenSCAD_Model
  facet normal 1 -0 0
    outer loop
      vertex 50 -10 5
      vertex 50 10 0
      vertex 50 10 5
    endloop
  endfacet
  facet normal 1 0 0
    outer loop
      vertex 50 10 0
      vertex 50 -10 5
      vertex 50 -10 0
    endloop
  endfacet
  facet normal -0 0 1
    outer loop
      vertex -30 15 5
      vertex 30 10 5
      vertex 30 15 5
    endloop
  endfacet
  facet normal 0 0 1
    outer loop
      vertex 30 10 5
      vertex -30 15 5
      vertex 30 -10 5
    endloop
  endfacet
  facet normal 0 0 1
    outer loop
      vertex -30 -15 5
      vertex 30 -10 5
      vertex -30 15 5
    endloop
  endfacet
  facet normal 0 0 1
    outer loop
      vertex 30 -10 5
      vertex -30 -15 5
      vertex 30 -15 5
    endloop
  endfacet
  facet normal 0 0 1
    outer loop
      vertex 50 10 5
      vertex 45 0 5
      vertex 50 -10 5
    endloop
  endfacet
  facet normal 0 0 1
    outer loop
      vertex 50 10 5
      vertex 44.6194 1.91342 5
      vertex 45 0 5
    endloop
  endfacet
  facet normal 0 0 1
    outer loop
      vertex 50 10 5
      vertex 43.5355 3.53553 5
      vertex 44.6194 1.91342 5
    endloop
  endfacet
  facet normal 0 0 1
    outer loop
      vertex 50 10 5
      vertex 41.9134 4.6194 5
      vertex 43.5355 3.53553 5
    endloop
  endfacet
  facet normal 0 0 1
    outer loop
      vertex 50 10 5
      vertex 40 5 5
      vertex 41.9134 4.6194 5
    endloop
  endfacet
  facet normal -0 0 1
    outer loop
      vertex 30 10 5
      vertex 40 5 5
      vertex 50 10 5
    endloop
  endfacet
  facet normal 0 0 1
    outer loop
      vertex 35.3806 1.91342 5
      vertex 30 10 5
      vertex 35 0 5
    endloop
  endfacet
  facet normal 0 0 1
    outer loop
      vertex 36.4645 3.53553 5
      vertex 30 10 5
      vertex 35.3806 1.91342 5
    endloop
  endfacet
  facet normal 0 0 1
    outer loop
      vertex 38.0866 4.6194 5
      vertex 30 10 5
      vertex 36.4645 3.53553 5
    endloop
  endfacet
  facet normal 0 0 1
    outer loop
      vertex 40 5 5
      vertex 30 10 5
      vertex 38.0866 4.6194 5
    endloop
  endfacet
  facet normal -0 0 1
    outer loop
      vertex 44.6194 -1.91342 5
      vertex 50 -10 5
      vertex 45 0 5
    endloop
  endfacet
  facet normal -0 0 1
    outer loop
      vertex 43.5355 -3.53553 5
      vertex 50 -10 5
      vertex 44.6194 -1.91342 5
    endloop
  endfacet
  facet normal -0 0 1
    outer loop
      vertex 41.9134 -4.6194 5
      vertex 50 -10 5
      vertex 43.5355 -3.53553 5
    endloop
  endfacet
  facet normal -0 0 1
    outer loop
      vertex 40 -5 5
      vertex 50 -10 5
      vertex 41.9134 -4.6194 5
    endloop
  endfacet
  facet normal 0 0 1
    outer loop
      vertex 30 -10 5
      vertex 40 -5 5
      vertex 38.0866 -4.6194 5
    endloop
  endfacet
  facet normal 0 0 1
    outer loop
      vertex 30 -10 5
      vertex 35 0 5
      vertex 30 10 5
    endloop
  endfacet
  facet normal 0 0 1
    outer loop
      vertex 40 -5 5
      vertex 30 -10 5
      vertex 50 -10 5
    endloop
  endfacet
  facet normal 0 0 1
    outer loop
      vertex 36.4645 -3.53553 5
      vertex 30 -10 5
      vertex 38.0866 -4.6194 5
    endloop
  endfacet
  facet normal 0 0 1
    outer loop
      vertex 35.3806 -1.91342 5
      vertex 30 -10 5
      vertex 36.4645 -3.53553 5
    endloop
  endfacet
  facet normal 0 0 1
    outer loop
      vertex 35 0 5
      vertex 30 -10 5
      vertex 35.3806 -1.91342 5
    endloop
  endfacet
  facet normal 0 0 -1
    outer loop
      vertex -30 -15 0
      vertex 30 -10 0
      vertex 30 -15 0
    endloop
  endfacet
  facet normal -0 0 -1
    outer loop
      vertex 30 -10 0
      vertex -30 -15 0
      vertex 30 10 0
    endloop
  endfacet
  facet normal 0 0 -1
    outer loop
      vertex -30 15 0
      vertex 30 10 0
      vertex -30 -15 0
    endloop
  endfacet
  facet normal 0 0 -1
    outer loop
      vertex 30 10 0
      vertex -30 15 0
      vertex 30 15 0
    endloop
  endfacet
  facet normal 0 0 -1
    outer loop
      vertex 30 -10 0
      vertex 50 10 0
      vertex 50 -10 0
    endloop
  endfacet
  facet normal -0 0 -1
    outer loop
      vertex 50 10 0
      vertex 30 -10 0
      vertex 30 10 0
    endloop
  endfacet
  facet normal 1 -0 0
    outer loop
      vertex 30 10 5
      vertex 30 15 0
      vertex 30 15 5
    endloop
  endfacet
  facet normal 1 0 0
    outer loop
      vertex 30 15 0
      vertex 30 10 5
      vertex 30 10 0
    endloop
  endfacet
  facet normal 1 -0 0
    outer loop
      vertex 30 -15 5
      vertex 30 -10 0
      vertex 30 -10 5
    endloop
  endfacet
  facet normal 1 0 0
    outer loop
      vertex 30 -10 0
      vertex 30 -15 5
      vertex 30 -15 0
    endloop
  endfacet
  facet normal 0 1 -0
    outer loop
      vertex 50 10 0
      vertex 30 10 5
      vertex 50 10 5
    endloop
  endfacet
  facet normal 0 1 0
    outer loop
      vertex 30 10 5
      vertex 50 10 0
      vertex 30 10 0
    endloop
  endfacet
  facet normal 0 -1 0
    outer loop
      vertex 30 -10 0
      vertex 50 -10 5
      vertex 30 -10 5
    endloop
  endfacet
  facet normal 0 -1 -0
    outer loop
      vertex 50 -10 5
      vertex 30 -10 0
      vertex 50 -10 0
    endloop
  endfacet
  facet normal -0.83146 -0.555585 0
    outer loop
      vertex 44.6194 1.91342 2
      vertex 43.5355 3.53553 5
      vertex 43.5355 3.53553 2
    endloop
  endfacet
  facet normal -0.83146 -0.555585 0
    outer loop
      vertex 43.5355 3.53553 5
      vertex 44.6194 1.91342 2
      vertex 44.6194 1.91342 5
    endloop
  endfacet
  facet normal -0.980786 -0.195089 0
    outer loop
      vertex 45 0 2
      vertex 44.6194 1.91342 5
      vertex 44.6194 1.91342 2
    endloop
  endfacet
  facet normal -0.980786 -0.195089 0
    outer loop
      vertex 44.6194 1.91342 5
      vertex 45 0 2
      vertex 45 0 5
    endloop
  endfacet
  facet normal 0.980786 -0.195089 0
    outer loop
      vertex 35 0 5
      vertex 35.3806 1.91342 2
      vertex 35.3806 1.91342 5
    endloop
  endfacet
  facet normal 0.980786 -0.195089 0
    outer loop
      vertex 35.3806 1.91342 2
      vertex 35 0 5
      vertex 35 0 2
    endloop
  endfacet
  facet normal 0.980786 0.195089 0
    outer loop
      vertex 35.3806 -1.91342 5
      vertex 35 0 2
      vertex 35 0 5
    endloop
  endfacet
  facet normal 0.980786 0.195089 0
    outer loop
      vertex 35 0 2
      vertex 35.3806 -1.91342 5
      vertex 35.3806 -1.91342 2
    endloop
  endfacet
  facet normal 0.195091 -0.980785 0
    outer loop
      vertex 38.0866 4.6194 2
      vertex 40 5 5
      vertex 38.0866 4.6194 5
    endloop
  endfacet
  facet normal 0.195091 -0.980785 0
    outer loop
      vertex 40 5 5
      vertex 38.0866 4.6194 2
      vertex 40 5 2
    endloop
  endfacet
  facet normal -0.195091 0.980785 0
    outer loop
      vertex 41.9134 -4.6194 2
      vertex 40 -5 5
      vertex 41.9134 -4.6194 5
    endloop
  endfacet
  facet normal -0.195091 0.980785 0
    outer loop
      vertex 40 -5 5
      vertex 41.9134 -4.6194 2
      vertex 40 -5 2
    endloop
  endfacet
  facet normal -0.83146 0.555585 0
    outer loop
      vertex 43.5355 -3.53553 2
      vertex 44.6194 -1.91342 5
      vertex 44.6194 -1.91342 2
    endloop
  endfacet
  facet normal -0.83146 0.555585 0
    outer loop
      vertex 44.6194 -1.91342 5
      vertex 43.5355 -3.53553 2
      vertex 43.5355 -3.53553 5
    endloop
  endfacet
  facet normal -0.555576 -0.831465 0
    outer loop
      vertex 41.9134 4.6194 2
      vertex 43.5355 3.53553 5
      vertex 41.9134 4.6194 5
    endloop
  endfacet
  facet normal -0.555576 -0.831465 -0
    outer loop
      vertex 43.5355 3.53553 5
      vertex 41.9134 4.6194 2
      vertex 43.5355 3.53553 2
    endloop
  endfacet
  facet normal -0.980786 0.195089 0
    outer loop
      vertex 44.6194 -1.91342 2
      vertex 45 0 5
      vertex 45 0 2
    endloop
  endfacet
  facet normal -0.980786 0.195089 0
    outer loop
      vertex 45 0 5
      vertex 44.6194 -1.91342 2
      vertex 44.6194 -1.91342 5
    endloop
  endfacet
  facet normal 0.83146 -0.555585 0
    outer loop
      vertex 35.3806 1.91342 5
      vertex 36.4645 3.53553 2
      vertex 36.4645 3.53553 5
    endloop
  endfacet
  facet normal 0.83146 -0.555585 0
    outer loop
      vertex 36.4645 3.53553 2
      vertex 35.3806 1.91342 5
      vertex 35.3806 1.91342 2
    endloop
  endfacet
  facet normal -0.555576 0.831465 0
    outer loop
      vertex 43.5355 -3.53553 2
      vertex 41.9134 -4.6194 5
      vertex 43.5355 -3.53553 5
    endloop
  endfacet
  facet normal -0.555576 0.831465 0
    outer loop
      vertex 41.9134 -4.6194 5
      vertex 43.5355 -3.53553 2
      vertex 41.9134 -4.6194 2
    endloop
  endfacet
  facet normal -0.195091 -0.980785 0
    outer loop
      vertex 40 5 2
      vertex 41.9134 4.6194 5
      vertex 40 5 5
    endloop
  endfacet
  facet normal -0.195091 -0.980785 -0
    outer loop
      vertex 41.9134 4.6194 5
      vertex 40 5 2
      vertex 41.9134 4.6194 2
    endloop
  endfacet
  facet normal 0.555576 -0.831465 0
    outer loop
      vertex 36.4645 3.53553 2
      vertex 38.0866 4.6194 5
      vertex 36.4645 3.53553 5
    endloop
  endfacet
  facet normal 0.555576 -0.831465 0
    outer loop
      vertex 38.0866 4.6194 5
      vertex 36.4645 3.53553 2
      vertex 38.0866 4.6194 2
    endloop
  endfacet
  facet normal 0 0 1
    outer loop
      vertex 44.6194 1.91342 2
      vertex 44.6194 -1.91342 2
      vertex 45 0 2
    endloop
  endfacet
  facet normal 0 0 1
    outer loop
      vertex 43.5355 3.53553 2
      vertex 44.6194 -1.91342 2
      vertex 44.6194 1.91342 2
    endloop
  endfacet
  facet normal 0 0 1
    outer loop
      vertex 43.5355 3.53553 2
      vertex 43.5355 -3.53553 2
      vertex 44.6194 -1.91342 2
    endloop
  endfacet
  facet normal 0 0 1
    outer loop
      vertex 41.9134 4.6194 2
      vertex 43.5355 -3.53553 2
      vertex 43.5355 3.53553 2
    endloop
  endfacet
  facet normal 0 0 1
    outer loop
      vertex 41.9134 4.6194 2
      vertex 41.9134 -4.6194 2
      vertex 43.5355 -3.53553 2
    endloop
  endfacet
  facet normal 0 0 1
    outer loop
      vertex 40 5 2
      vertex 41.9134 -4.6194 2
      vertex 41.9134 4.6194 2
    endloop
  endfacet
  facet normal 0 0 1
    outer loop
      vertex 40 5 2
      vertex 40 -5 2
      vertex 41.9134 -4.6194 2
    endloop
  endfacet
  facet normal -0 0 1
    outer loop
      vertex 38.0866 4.6194 2
      vertex 40 -5 2
      vertex 40 5 2
    endloop
  endfacet
  facet normal 0 0 1
    outer loop
      vertex 38.0866 4.6194 2
      vertex 38.0866 -4.6194 2
      vertex 40 -5 2
    endloop
  endfacet
  facet normal -0 0 1
    outer loop
      vertex 36.4645 3.53553 2
      vertex 38.0866 -4.6194 2
      vertex 38.0866 4.6194 2
    endloop
  endfacet
  facet normal 0 0 1
    outer loop
      vertex 36.4645 3.53553 2
      vertex 36.4645 -3.53553 2
      vertex 38.0866 -4.6194 2
    endloop
  endfacet
  facet normal -0 0 1
    outer loop
      vertex 35.3806 1.91342 2
      vertex 36.4645 -3.53553 2
      vertex 36.4645 3.53553 2
    endloop
  endfacet
  facet normal 0 0 1
    outer loop
      vertex 35.3806 1.91342 2
      vertex 35.3806 -1.91342 2
      vertex 36.4645 -3.53553 2
    endloop
  endfacet
  facet normal 0 -0 1
    outer loop
      vertex 35.3806 -1.91342 2
      vertex 35.3806 1.91342 2
      vertex 35 0 2
    endloop
  endfacet
  facet normal 0.83146 0.555585 0
    outer loop
      vertex 36.4645 -3.53553 5
      vertex 35.3806 -1.91342 2
      vertex 35.3806 -1.91342 5
    endloop
  endfacet
  facet normal 0.83146 0.555585 0
    outer loop
      vertex 35.3806 -1.91342 2
      vertex 36.4645 -3.53553 5
      vertex 36.4645 -3.53553 2
    endloop
  endfacet
  facet normal 0.195091 0.980785 -0
    outer loop
      vertex 40 -5 2
      vertex 38.0866 -4.6194 5
      vertex 40 -5 5
    endloop
  endfacet
  facet normal 0.195091 0.980785 0
    outer loop
      vertex 38.0866 -4.6194 5
      vertex 40 -5 2
      vertex 38.0866 -4.6194 2
    endloop
  endfacet
  facet normal 0.555576 0.831465 -0
    outer loop
      vertex 38.0866 -4.6194 2
      vertex 36.4645 -3.53553 5
      vertex 38.0866 -4.6194 5
    endloop
  endfacet
  facet normal 0.555576 0.831465 0
    outer loop
      vertex 36.4645 -3.53553 5
      vertex 38.0866 -4.6194 2
      vertex 36.4645 -3.53553 2
    endloop
  endfacet
  facet normal -1 0 0
    outer loop
      vertex -30 -15 0
      vertex -30 15 5
      vertex -30 15 0
    endloop
  endfacet
  facet normal -1 -0 0
    outer loop
      vertex -30 15 5
      vertex -30 -15 0
      vertex -30 -15 5
    endloop
  endfacet
  facet normal 0 1 -0
    outer loop
      vertex 30 15 0
      vertex -30 15 5
      vertex 30 15 5
    endloop
  endfacet
  facet normal 0 1 0
    outer loop
      vertex -30 15 5
      vertex 30 15 0
      vertex -30 15 0
    endloop
  endfacet
  facet normal 0 -1 0
    outer loop
      vertex -30 -15 0
      vertex 30 -15 5
      vertex -30 -15 5
    endloop
  endfacet
  facet normal 0 -1 -0
    outer loop
      vertex 30 -15 5
      vertex -30 -15 0
      vertex 30 -15 0
    endloop
  endfacet
endsolid OpenSCAD_Model
