solid OpenSCAD_Model
  facet normal 1 -0 0
    outer loop
      vertex 10 -5 15
      vertex 10 5 7
      vertex 10 5 15
    endloop
  endfacet
  facet normal 1 0 0
    outer loop
      vertex 10 5 7
      vertex 10 -5 15
      vertex 10 -5 7
    endloop
  endfacet
  facet normal -0 0 1
    outer loop
      vertex -10 5 15
      vertex 10 -5 15
      vertex 10 5 15
    endloop
  endfacet
  facet normal 0 0 1
    outer loop
      vertex 10 -5 15
      vertex -10 5 15
      vertex -10 -5 15
    endloop
  endfacet
  facet normal 0 0 -1
    outer loop
      vertex -10 -5 7
      vertex 10 5 7
      vertex 10 -5 7
    endloop
  endfacet
  facet normal -0 0 -1
    outer loop
      vertex 10 5 7
      vertex -10 -5 7
      vertex -10 5 7
    endloop
  endfacet
  facet normal -1 0 0
    outer loop
      vertex -10 -5 7
      vertex -10 5 15
      vertex -10 5 7
    endloop
  endfacet
  facet normal -1 -0 0
    outer loop
      vertex -10 5 15
      vertex -10 -5 7
      vertex -10 -5 15
    endloop
  endfacet
  facet normal 0 1 -0
    outer loop
      vertex 10 5 7
      vertex -10 5 15
      vertex 10 5 15
    endloop
  endfacet
  facet normal 0 1 0
    outer loop
      vertex -10 5 15
      vertex 10 5 7
      vertex -10 5 7
    endloop
  endfacet
  facet normal 0 -1 0
    outer loop
      vertex -10 -5 7
      vertex 10 -5 15
      vertex -10 -5 15
    endloop
  endfacet
  facet normal 0 -1 -0
    outer loop
      vertex 10 -5 15
      vertex -10 -5 7
      vertex 10 -5 7
    endloop
  endfacet
  facet normal 1 -0 0
    outer loop
      vertex 10 -5 6
      vertex 10 5 -5
      vertex 10 5 6
    endloop
  endfacet
  facet normal 1 0 0
    outer loop
      vertex 10 5 -5
      vertex 10 -5 6
      vertex 10 -5 -5
    endloop
  endfacet
  facet normal 0 0 -1
    outer loop
      vertex -10 -5 -5
      vertex 10 5 -5
      vertex 10 -5 -5
    endloop
  endfacet
  facet normal -0 0 -1
    outer loop
      vertex 10 5 -5
      vertex -10 -5 -5
      vertex -10 5 -5
    endloop
  endfacet
  facet normal -1 0 0
    outer loop
      vertex -10 -5 -5
      vertex -10 5 6
      vertex -10 5 -5
    endloop
  endfacet
  facet normal -1 -0 0
    outer loop
      vertex -10 5 6
      vertex -10 -5 -5
      vertex -10 -5 6
    endloop
  endfacet
  facet normal 0 1 -0
    outer loop
      vertex 10 5 -5
      vertex -10 5 6
      vertex 10 5 6
    endloop
  endfacet
  facet normal 0 1 0
    outer loop
      vertex -10 5 6
      vertex 10 5 -5
      vertex -10 5 -5
    endloop
  endfacet
  facet normal 0 -1 0
    outer loop
      vertex -10 -5 -5
      vertex 10 -5 6
      vertex -10 -5 6
    endloop
  endfacet
  facet normal 0 -1 -0
    outer loop
      vertex 10 -5 6
      vertex -10 -5 -5
      vertex 10 -5 -5
    endloop
  endfacet
  facet normal -1 0 0
    outer loop
      vertex -10 -5 -15
      vertex -10 5 -6
      vertex -10 5 -15
    endloop
  endfacet
  facet normal -1 -0 0
    outer loop
      vertex -10 5 -6
      vertex -10 -5 -15
      vertex -10 -5 -6
    endloop
  endfacet
  facet normal 0 0 -1
    outer loop
      vertex -10 -5 -15
      vertex 10 5 -15
      vertex 10 -5 -15
    endloop
  endfacet
  facet normal -0 0 -1
    outer loop
      vertex 10 5 -15
      vertex -10 -5 -15
      vertex -10 5 -15
    endloop
  endfacet
  facet normal 1 -0 0
    outer loop
      vertex 10 -5 -6
      vertex 10 5 -15
      vertex 10 5 -6
    endloop
  endfacet
  facet normal 1 0 0
    outer loop
      vertex 10 5 -15
      vertex 10 -5 -6
      vertex 10 -5 -15
    endloop
  endfacet
  facet normal 0 -1 0
    outer loop
      vertex -10 -5 -15
      vertex 10 -5 -6
      vertex -10 -5 -6
    endloop
  endfacet
  facet normal 0 -1 -0
    outer loop
      vertex 10 -5 -6
      vertex -10 -5 -15
      vertex 10 -5 -15
    endloop
  endfacet
  facet normal 0 1 -0
    outer loop
      vertex 10 5 -15
      vertex -10 5 -6
      vertex 10 5 -6
    endloop
  endfacet
  facet normal 0 1 0
    outer loop
      vertex -10 5 -6
      vertex 10 5 -15
      vertex -10 5 -15
    endloop
  endfacet
  facet normal -0 0 1
    outer loop
      vertex -10 5 6
      vertex 10 -5 6
      vertex 10 5 6
    endloop
  endfacet
  facet normal 0 0 1
    outer loop
      vertex 10 -5 6
      vertex -10 5 6
      vertex -10 -5 6
    endloop
  endfacet
  facet normal -0 0 1
    outer loop
      vertex -10 5 -6
      vertex 10 -5 -6
      vertex 10 5 -6
    endloop
  endfacet
  facet normal 0 0 1
    outer loop
      vertex 10 -5 -6
      vertex -10 5 -6
      vertex -10 -5 -6
    endloop
  endfacet
endsolid OpenSCAD_Model
