solid OpenSCAD_Model
  facet normal 1 -0 0
    outer loop
      vertex 25 -25 1
      vertex 25 25 -1
      vertex 25 25 1
    endloop
  endfacet
  facet normal 1 0 0
    outer loop
      vertex 25 25 -1
      vertex 25 -25 1
      vertex 25 -25 -1
    endloop
  endfacet
  facet normal -0 0 1
    outer loop
      vertex -25 25 1
      vertex 25 -25 1
      vertex 25 25 1
    endloop
  endfacet
  facet normal 0 0 1
    outer loop
      vertex 25 -25 1
      vertex -25 25 1
      vertex -25 -25 1
    endloop
  endfacet
  facet normal 0 0 -1
    outer loop
      vertex -25 -25 -1
      vertex 25 25 -1
      vertex 25 -25 -1
    endloop
  endfacet
  facet normal -0 0 -1
    outer loop
      vertex 25 25 -1
      vertex -25 -25 -1
      vertex -25 25 -1
    endloop
  endfacet
  facet normal -1 0 0
    outer loop
      vertex -25 -25 -1
      vertex -25 25 1
      vertex -25 25 -1
    endloop
  endfacet
  facet normal -1 -0 0
    outer loop
      vertex -25 25 1
      vertex -25 -25 -1
      vertex -25 -25 1
    endloop
  endfacet
  facet normal 0 1 -0
    outer loop
      vertex 25 25 -1
      vertex -25 25 1
      vertex 25 25 1
    endloop
  endfacet
  facet normal 0 1 0
    outer loop
      vertex -25 25 1
      vertex 25 25 -1
      vertex -25 25 -1
    endloop
  endfacet
  facet normal 0 -1 0
    outer loop
      vertex -25 -25 -1
      vertex 25 -25 1
      vertex -25 -25 1
    endloop
  endfacet
  facet normal 0 -1 -0
    outer loop
      vertex 25 -25 1
      vertex -25 -25 -1
      vertex 25 -25 -1
    endloop
  endfacet
  facet normal 1 -0 0
    outer loop
      vertex 25 -25 -11
      vertex 25 25 -13
      vertex 25 25 -11
    endloop
  endfacet
  facet normal 1 0 0
    outer loop
      vertex 25 25 -13
      vertex 25 -25 -11
      vertex 25 -25 -13
    endloop
  endfacet
  facet normal -0 0 1
    outer loop
      vertex -25 25 -11
      vertex 25 -25 -11
      vertex 25 25 -11
    endloop
  endfacet
  facet normal 0 0 1
    outer loop
      vertex 25 -25 -11
      vertex -25 25 -11
      vertex -25 -25 -11
    endloop
  endfacet
  facet normal 0 0 -1
    outer loop
      vertex -25 -25 -13
      vertex 25 25 -13
      vertex 25 -25 -13
    endloop
  endfacet
  facet normal -0 0 -1
    outer loop
      vertex 25 25 -13
      vertex -25 -25 -13
      vertex -25 25 -13
    endloop
  endfacet
  facet normal -1 0 0
    outer loop
      vertex -25 -25 -13
      vertex -25 25 -11
      vertex -25 25 -13
    endloop
  endfacet
  facet normal -1 -0 0
    outer loop
      vertex -25 25 -11
      vertex -25 -25 -13
      vertex -25 -25 -11
    endloop
  endfacet
  facet normal 0 1 -0
    outer loop
      vertex 25 25 -13
      vertex -25 25 -11
      vertex 25 25 -11
    endloop
  endfacet
  facet normal 0 1 0
    outer loop
      vertex -25 25 -11
      vertex 25 25 -13
      vertex -25 25 -13
    endloop
  endfacet
  facet normal 0 -1 0
    outer loop
      vertex -25 -25 -13
      vertex 25 -25 -11
      vertex -25 -25 -11
    endloop
  endfacet
  facet normal 0 -1 -0
    outer loop
      vertex 25 -25 -11
      vertex -25 -25 -13
      vertex 25 -25 -13
    endloop
  endfacet
  facet normal 1 -0 0
    outer loop
      vertex 25 -25 -23
      vertex 25 25 -25
      vertex 25 25 -23
    endloop
  endfacet
  facet normal 1 0 0
    outer loop
      vertex 25 25 -25
      vertex 25 -25 -23
      vertex 25 -25 -25
    endloop
  endfacet
  facet normal -0 0 1
    outer loop
      vertex -25 25 -23
      vertex 25 -25 -23
      vertex 25 25 -23
    endloop
  endfacet
  facet normal 0 0 1
    outer loop
      vertex 25 -25 -23
      vertex -25 25 -23
      vertex -25 -25 -23
    endloop
  endfacet
  facet normal 0 0 -1
    outer loop
      vertex -25 -25 -25
      vertex 25 25 -25
      vertex 25 -25 -25
    endloop
  endfacet
  facet normal -0 0 -1
    outer loop
      vertex 25 25 -25
      vertex -25 -25 -25
      vertex -25 25 -25
    endloop
  endfacet
  facet normal -1 0 0
    outer loop
      vertex -25 -25 -25
      vertex -25 25 -23
      vertex -25 25 -25
    endloop
  endfacet
  facet normal -1 -0 0
    outer loop
      vertex -25 25 -23
      vertex -25 -25 -25
      vertex -25 -25 -23
    endloop
  endfacet
  facet normal 0 1 -0
    outer loop
      vertex 25 25 -25
      vertex -25 25 -23
      vertex 25 25 -23
    endloop
  endfacet
  facet normal 0 1 0
    outer loop
      vertex -25 25 -23
      vertex 25 25 -25
      vertex -25 25 -25
    endloop
  endfacet
  facet normal 0 -1 0
    outer loop
      vertex -25 -25 -25
      vertex 25 -25 -23
      vertex -25 -25 -23
    endloop
  endfacet
  facet normal 0 -1 -0
    outer loop
      vertex 25 -25 -23
      vertex -25 -25 -25
      vertex 25 -25 -25
    endloop
  endfacet
  facet normal 1 -0 0
    outer loop
      vertex 25 -25 -35
      vertex 25 25 -37
      vertex 25 25 -35
    endloop
  endfacet
  facet normal 1 0 0
    outer loop
      vertex 25 25 -37
      vertex 25 -25 -35
      vertex 25 -25 -37
    endloop
  endfacet
  facet normal -0 0 1
    outer loop
      vertex -25 25 -35
      vertex 25 -25 -35
      vertex 25 25 -35
    endloop
  endfacet
  facet normal 0 0 1
    outer loop
      vertex 25 -25 -35
      vertex -25 25 -35
      vertex -25 -25 -35
    endloop
  endfacet
  facet normal 0 0 -1
    outer loop
      vertex -25 -25 -37
      vertex 25 25 -37
      vertex 25 -25 -37
    endloop
  endfacet
  facet normal -0 0 -1
    outer loop
      vertex 25 25 -37
      vertex -25 -25 -37
      vertex -25 25 -37
    endloop
  endfacet
  facet normal -1 0 0
    outer loop
      vertex -25 -25 -37
      vertex -25 25 -35
      vertex -25 25 -37
    endloop
  endfacet
  facet normal -1 -0 0
    outer loop
      vertex -25 25 -35
      vertex -25 -25 -37
      vertex -25 -25 -35
    endloop
  endfacet
  facet normal 0 1 -0
    outer loop
      vertex 25 25 -37
      vertex -25 25 -35
      vertex 25 25 -35
    endloop
  endfacet
  facet normal 0 1 0
    outer loop
      vertex -25 25 -35
      vertex 25 25 -37
      vertex -25 25 -37
    endloop
  endfacet
  facet normal 0 -1 0
    outer loop
      vertex -25 -25 -37
      vertex 25 -25 -35
      vertex -25 -25 -35
    endloop
  endfacet
  facet normal 0 -1 -0
    outer loop
      vertex 25 -25 -35
      vertex -25 -25 -37
      vertex 25 -25 -37
    endloop
  endfacet
  facet normal 1 -0 0
    outer loop
      vertex 25 -25 -47
      vertex 25 25 -49
      vertex 25 25 -47
    endloop
  endfacet
  facet normal 1 0 0
    outer loop
      vertex 25 25 -49
      vertex 25 -25 -47
      vertex 25 -25 -49
    endloop
  endfacet
  facet normal -0 0 1
    outer loop
      vertex -25 25 -47
      vertex 25 -25 -47
      vertex 25 25 -47
    endloop
  endfacet
  facet normal 0 0 1
    outer loop
      vertex 25 -25 -47
      vertex -25 25 -47
      vertex -25 -25 -47
    endloop
  endfacet
  facet normal 0 0 -1
    outer loop
      vertex -25 -25 -49
      vertex 25 25 -49
      vertex 25 -25 -49
    endloop
  endfacet
  facet normal -0 0 -1
    outer loop
      vertex 25 25 -49
      vertex -25 -25 -49
      vertex -25 25 -49
    endloop
  endfacet
  facet normal -1 0 0
    outer loop
      vertex -25 -25 -49
      vertex -25 25 -47
      vertex -25 25 -49
    endloop
  endfacet
  facet normal -1 -0 0
    outer loop
      vertex -25 25 -47
      vertex -25 -25 -49
      vertex -25 -25 -47
    endloop
  endfacet
  facet normal 0 1 -0
    outer loop
      vertex 25 25 -49
      vertex -25 25 -47
      vertex 25 25 -47
    endloop
  endfacet
  facet normal 0 1 0
    outer loop
      vertex -25 25 -47
      vertex 25 25 -49
      vertex -25 25 -49
    endloop
  endfacet
  facet normal 0 -1 0
    outer loop
      vertex -25 -25 -49
      vertex 25 -25 -47
      vertex -25 -25 -47
    endloop
  endfacet
  facet normal 0 -1 -0
    outer loop
      vertex 25 -25 -47
      vertex -25 -25 -49
      vertex 25 -25 -49
    endloop
  endfacet
  facet normal 1 -0 0
    outer loop
      vertex 25 -25 -59
      vertex 25 25 -61
      vertex 25 25 -59
    endloop
  endfacet
  facet normal 1 0 0
    outer loop
      vertex 25 25 -61
      vertex 25 -25 -59
      vertex 25 -25 -61
    endloop
  endfacet
  facet normal -0 0 1
    outer loop
      vertex -25 25 -59
      vertex 25 -25 -59
      vertex 25 25 -59
    endloop
  endfacet
  facet normal 0 0 1
    outer loop
      vertex 25 -25 -59
      vertex -25 25 -59
      vertex -25 -25 -59
    endloop
  endfacet
  facet normal 0 0 -1
    outer loop
      vertex -25 -25 -61
      vertex 25 25 -61
      vertex 25 -25 -61
    endloop
  endfacet
  facet normal -0 0 -1
    outer loop
      vertex 25 25 -61
      vertex -25 -25 -61
      vertex -25 25 -61
    endloop
  endfacet
  facet normal -1 0 0
    outer loop
      vertex -25 -25 -61
      vertex -25 25 -59
      vertex -25 25 -61
    endloop
  endfacet
  facet normal -1 -0 0
    outer loop
      vertex -25 25 -59
      vertex -25 -25 -61
      vertex -25 -25 -59
    endloop
  endfacet
  facet normal 0 1 -0
    outer loop
      vertex 25 25 -61
      vertex -25 25 -59
      vertex 25 25 -59
    endloop
  endfacet
  facet normal 0 1 0
    outer loop
      vertex -25 25 -59
      vertex 25 25 -61
      vertex -25 25 -61
    endloop
  endfacet
  facet normal 0 -1 0
    outer loop
      vertex -25 -25 -61
      vertex 25 -25 -59
      vertex -25 -25 -59
    endloop
  endfacet
  facet normal 0 -1 -0
    outer loop
      vertex 25 -25 -59
      vertex -25 -25 -61
      vertex 25 -25 -61
    endloop
  endfacet
endsolid OpenSCAD_Model
