solid OpenSCAD_Model
  facet normal 1 -0 0
    outer loop
      vertex 25 -10 1
      vertex 25 10 -1
      vertex 25 10 1
    endloop
  endfacet
  facet normal 1 0 0
    outer loop
      vertex 25 10 -1
      vertex 25 -10 1
      vertex 25 -10 -1
    endloop
  endfacet
  facet normal -0 0 1
    outer loop
      vertex -25 10 1
      vertex 25 -10 1
      vertex 25 10 1
    endloop
  endfacet
  facet normal 0 0 1
    outer loop
      vertex 25 -10 1
      vertex -25 10 1
      vertex -25 -10 1
    endloop
  endfacet
  facet normal 0 0 -1
    outer loop
      vertex -25 -10 -1
      vertex 25 10 -1
      vertex 25 -10 -1
    endloop
  endfacet
  facet normal -0 0 -1
    outer loop
      vertex 25 10 -1
      vertex -25 -10 -1
      vertex -25 10 -1
    endloop
  endfacet
  facet normal -1 0 0
    outer loop
      vertex -25 -10 -1
      vertex -25 10 1
      vertex -25 10 -1
    endloop
  endfacet
  facet normal -1 -0 0
    outer loop
      vertex -25 10 1
      vertex -25 -10 -1
      vertex -25 -10 1
    endloop
  endfacet
  facet normal 0 1 -0
    outer loop
      vertex 25 10 -1
      vertex -25 10 1
      vertex 25 10 1
    endloop
  endfacet
  facet normal 0 1 0
    outer loop
      vertex -25 10 1
      vertex 25 10 -1
      vertex -25 10 -1
    endloop
  endfacet
  facet normal 0 -1 0
    outer loop
      vertex -25 -10 -1
      vertex 25 -10 1
      vertex -25 -10 1
    endloop
  endfacet
  facet normal 0 -1 -0
    outer loop
      vertex 25 -10 1
      vertex -25 -10 -1
      vertex 25 -10 -1
    endloop
  endfacet
  facet normal 1 -0 0
    outer loop
      vertex 25 -10 -1.1
      vertex 25 10 -3.1
      vertex 25 10 -1.1
    endloop
  endfacet
  facet normal 1 0 0
    outer loop
      vertex 25 10 -3.1
      vertex 25 -10 -1.1
      vertex 25 -10 -3.1
    endloop
  endfacet
  facet normal -0 0 1
    outer loop
      vertex -25 10 -1.1
      vertex 25 -10 -1.1
      vertex 25 10 -1.1
    endloop
  endfacet
  facet normal 0 0 1
    outer loop
      vertex 25 -10 -1.1
      vertex -25 10 -1.1
      vertex -25 -10 -1.1
    endloop
  endfacet
  facet normal 0 0 -1
    outer loop
      vertex -25 -10 -3.1
      vertex 25 10 -3.1
      vertex 25 -10 -3.1
    endloop
  endfacet
  facet normal -0 0 -1
    outer loop
      vertex 25 10 -3.1
      vertex -25 -10 -3.1
      vertex -25 10 -3.1
    endloop
  endfacet
  facet normal -1 0 0
    outer loop
      vertex -25 -10 -3.1
      vertex -25 10 -1.1
      vertex -25 10 -3.1
    endloop
  endfacet
  facet normal -1 -0 0
    outer loop
      vertex -25 10 -1.1
      vertex -25 -10 -3.1
      vertex -25 -10 -1.1
    endloop
  endfacet
  facet normal 0 1 -0
    outer loop
      vertex 25 10 -3.1
      vertex -25 10 -1.1
      vertex 25 10 -1.1
    endloop
  endfacet
  facet normal 0 1 0
    outer loop
      vertex -25 10 -1.1
      vertex 25 10 -3.1
      vertex -25 10 -3.1
    endloop
  endfacet
  facet normal 0 -1 0
    outer loop
      vertex -25 -10 -3.1
      vertex 25 -10 -1.1
      vertex -25 -10 -1.1
    endloop
  endfacet
  facet normal 0 -1 -0
    outer loop
      vertex 25 -10 -1.1
      vertex -25 -10 -3.1
      vertex 25 -10 -3.1
    endloop
  endfacet
  facet normal 1 -0 0
    outer loop
      vertex 25 -10 -3.2
      vertex 25 10 -5.2
      vertex 25 10 -3.2
    endloop
  endfacet
  facet normal 1 0 0
    outer loop
      vertex 25 10 -5.2
      vertex 25 -10 -3.2
      vertex 25 -10 -5.2
    endloop
  endfacet
  facet normal -0 0 1
    outer loop
      vertex -25 10 -3.2
      vertex 25 -10 -3.2
      vertex 25 10 -3.2
    endloop
  endfacet
  facet normal 0 0 1
    outer loop
      vertex 25 -10 -3.2
      vertex -25 10 -3.2
      vertex -25 -10 -3.2
    endloop
  endfacet
  facet normal 0 0 -1
    outer loop
      vertex -25 -10 -5.2
      vertex 25 10 -5.2
      vertex 25 -10 -5.2
    endloop
  endfacet
  facet normal -0 0 -1
    outer loop
      vertex 25 10 -5.2
      vertex -25 -10 -5.2
      vertex -25 10 -5.2
    endloop
  endfacet
  facet normal -1 0 0
    outer loop
      vertex -25 -10 -5.2
      vertex -25 10 -3.2
      vertex -25 10 -5.2
    endloop
  endfacet
  facet normal -1 -0 0
    outer loop
      vertex -25 10 -3.2
      vertex -25 -10 -5.2
      vertex -25 -10 -3.2
    endloop
  endfacet
  facet normal 0 1 -0
    outer loop
      vertex 25 10 -5.2
      vertex -25 10 -3.2
      vertex 25 10 -3.2
    endloop
  endfacet
  facet normal 0 1 0
    outer loop
      vertex -25 10 -3.2
      vertex 25 10 -5.2
      vertex -25 10 -5.2
    endloop
  endfacet
  facet normal 0 -1 0
    outer loop
      vertex -25 -10 -5.2
      vertex 25 -10 -3.2
      vertex -25 -10 -3.2
    endloop
  endfacet
  facet normal 0 -1 -0
    outer loop
      vertex 25 -10 -3.2
      vertex -25 -10 -5.2
      vertex 25 -10 -5.2
    endloop
  endfacet
  facet normal 1 -0 0
    outer loop
      vertex 25 -10 -5.3
      vertex 25 10 -7.3
      vertex 25 10 -5.3
    endloop
  endfacet
  facet normal 1 0 0
    outer loop
      vertex 25 10 -7.3
      vertex 25 -10 -5.3
      vertex 25 -10 -7.3
    endloop
  endfacet
  facet normal -0 0 1
    outer loop
      vertex -25 10 -5.3
      vertex 25 -10 -5.3
      vertex 25 10 -5.3
    endloop
  endfacet
  facet normal 0 0 1
    outer loop
      vertex 25 -10 -5.3
      vertex -25 10 -5.3
      vertex -25 -10 -5.3
    endloop
  endfacet
  facet normal 0 0 -1
    outer loop
      vertex -25 -10 -7.3
      vertex 25 10 -7.3
      vertex 25 -10 -7.3
    endloop
  endfacet
  facet normal -0 0 -1
    outer loop
      vertex 25 10 -7.3
      vertex -25 -10 -7.3
      vertex -25 10 -7.3
    endloop
  endfacet
  facet normal -1 0 0
    outer loop
      vertex -25 -10 -7.3
      vertex -25 10 -5.3
      vertex -25 10 -7.3
    endloop
  endfacet
  facet normal -1 -0 0
    outer loop
      vertex -25 10 -5.3
      vertex -25 -10 -7.3
      vertex -25 -10 -5.3
    endloop
  endfacet
  facet normal 0 1 -0
    outer loop
      vertex 25 10 -7.3
      vertex -25 10 -5.3
      vertex 25 10 -5.3
    endloop
  endfacet
  facet normal 0 1 0
    outer loop
      vertex -25 10 -5.3
      vertex 25 10 -7.3
      vertex -25 10 -7.3
    endloop
  endfacet
  facet normal 0 -1 0
    outer loop
      vertex -25 -10 -7.3
      vertex 25 -10 -5.3
      vertex -25 -10 -5.3
    endloop
  endfacet
  facet normal 0 -1 -0
    outer loop
      vertex 25 -10 -5.3
      vertex -25 -10 -7.3
      vertex 25 -10 -7.3
    endloop
  endfacet
  facet normal 1 -0 0
    outer loop
      vertex 25 -10 -7.4
      vertex 25 10 -9.4
      vertex 25 10 -7.4
    endloop
  endfacet
  facet normal 1 0 0
    outer loop
      vertex 25 10 -9.4
      vertex 25 -10 -7.4
      vertex 25 -10 -9.4
    endloop
  endfacet
  facet normal -0 0 1
    outer loop
      vertex -25 10 -7.4
      vertex 25 -10 -7.4
      vertex 25 10 -7.4
    endloop
  endfacet
  facet normal 0 0 1
    outer loop
      vertex 25 -10 -7.4
      vertex -25 10 -7.4
      vertex -25 -10 -7.4
    endloop
  endfacet
  facet normal 0 0 -1
    outer loop
      vertex -25 -10 -9.4
      vertex 25 10 -9.4
      vertex 25 -10 -9.4
    endloop
  endfacet
  facet normal -0 0 -1
    outer loop
      vertex 25 10 -9.4
      vertex -25 -10 -9.4
      vertex -25 10 -9.4
    endloop
  endfacet
  facet normal -1 0 0
    outer loop
      vertex -25 -10 -9.4
      vertex -25 10 -7.4
      vertex -25 10 -9.4
    endloop
  endfacet
  facet normal -1 -0 0
    outer loop
      vertex -25 10 -7.4
      vertex -25 -10 -9.4
      vertex -25 -10 -7.4
    endloop
  endfacet
  facet normal 0 1 -0
    outer loop
      vertex 25 10 -9.4
      vertex -25 10 -7.4
      vertex 25 10 -7.4
    endloop
  endfacet
  facet normal 0 1 0
    outer loop
      vertex -25 10 -7.4
      vertex 25 10 -9.4
      vertex -25 10 -9.4
    endloop
  endfacet
  facet normal 0 -1 0
    outer loop
      vertex -25 -10 -9.4
      vertex 25 -10 -7.4
      vertex -25 -10 -7.4
    endloop
  endfacet
  facet normal 0 -1 -0
    outer loop
      vertex 25 -10 -7.4
      vertex -25 -10 -9.4
      vertex 25 -10 -9.4
    endloop
  endfacet
  facet normal 1 -0 0
    outer loop
      vertex 25 -10 -9.5
      vertex 25 10 -11.5
      vertex 25 10 -9.5
    endloop
  endfacet
  facet normal 1 0 0
    outer loop
      vertex 25 10 -11.5
      vertex 25 -10 -9.5
      vertex 25 -10 -11.5
    endloop
  endfacet
  facet normal -0 0 1
    outer loop
      vertex -25 10 -9.5
      vertex 25 -10 -9.5
      vertex 25 10 -9.5
    endloop
  endfacet
  facet normal 0 0 1
    outer loop
      vertex 25 -10 -9.5
      vertex -25 10 -9.5
      vertex -25 -10 -9.5
    endloop
  endfacet
  facet normal 0 0 -1
    outer loop
      vertex -25 -10 -11.5
      vertex 25 10 -11.5
      vertex 25 -10 -11.5
    endloop
  endfacet
  facet normal -0 0 -1
    outer loop
      vertex 25 10 -11.5
      vertex -25 -10 -11.5
      vertex -25 10 -11.5
    endloop
  endfacet
  facet normal -1 0 0
    outer loop
      vertex -25 -10 -11.5
      vertex -25 10 -9.5
      vertex -25 10 -11.5
    endloop
  endfacet
  facet normal -1 -0 0
    outer loop
      vertex -25 10 -9.5
      vertex -25 -10 -11.5
      vertex -25 -10 -9.5
    endloop
  endfacet
  facet normal 0 1 -0
    outer loop
      vertex 25 10 -11.5
      vertex -25 10 -9.5
      vertex 25 10 -9.5
    endloop
  endfacet
  facet normal 0 1 0
    outer loop
      vertex -25 10 -9.5
      vertex 25 10 -11.5
      vertex -25 10 -11.5
    endloop
  endfacet
  facet normal 0 -1 0
    outer loop
      vertex -25 -10 -11.5
      vertex 25 -10 -9.5
      vertex -25 -10 -9.5
    endloop
  endfacet
  facet normal 0 -1 -0
    outer loop
      vertex 25 -10 -9.5
      vertex -25 -10 -11.5
      vertex 25 -10 -11.5
    endloop
  endfacet
endsolid OpenSCAD_Model
