solid OpenSCAD_Model
  facet normal 1 0 0
    outer loop
      vertex 20 10 45
      vertex 20 5 35
      vertex 20 10 35
    endloop
  endfacet
  facet normal 1 0 0
    outer loop
      vertex 20 5 35
      vertex 20 -5 35
      vertex 20 5 25
    endloop
  endfacet
  facet normal 1 0 0
    outer loop
      vertex 20 10 45
      vertex 20 -5 35
      vertex 20 5 35
    endloop
  endfacet
  facet normal 1 -0 0
    outer loop
      vertex 20 -10 45
      vertex 20 -5 35
      vertex 20 10 45
    endloop
  endfacet
  facet normal 1 0 0
    outer loop
      vertex 20 -5 35
      vertex 20 -10 45
      vertex 20 -10 35
    endloop
  endfacet
  facet normal 1 0 0
    outer loop
      vertex 20 5 25
      vertex 20 -5 35
      vertex 20 -5 25
    endloop
  endfacet
  facet normal 0 0 1
    outer loop
      vertex -10 10 45
      vertex -20 10 45
      vertex -10 5 45
    endloop
  endfacet
  facet normal 0 0 1
    outer loop
      vertex 10 5 45
      vertex 20 10 45
      vertex 10 10 45
    endloop
  endfacet
  facet normal 0 0 1
    outer loop
      vertex 20 10 45
      vertex 10 5 45
      vertex 20 -10 45
    endloop
  endfacet
  facet normal -0 0 1
    outer loop
      vertex -10 5 45
      vertex 20 -10 45
      vertex 10 5 45
    endloop
  endfacet
  facet normal 0 0 1
    outer loop
      vertex -20 -10 45
      vertex -10 5 45
      vertex -20 10 45
    endloop
  endfacet
  facet normal 0 0 1
    outer loop
      vertex -10 5 45
      vertex -20 -10 45
      vertex 20 -10 45
    endloop
  endfacet
  facet normal 0 0 -1
    outer loop
      vertex 10 5 35
      vertex 20 10 35
      vertex 20 5 35
    endloop
  endfacet
  facet normal 0 0 -1
    outer loop
      vertex -10 5 35
      vertex 10 5 35
      vertex -10 -5 35
    endloop
  endfacet
  facet normal 0 0 -1
    outer loop
      vertex 10 5 35
      vertex -10 5 35
      vertex 20 10 35
    endloop
  endfacet
  facet normal 0 0 -1
    outer loop
      vertex -20 10 35
      vertex -10 5 35
      vertex -20 5 35
    endloop
  endfacet
  facet normal 0 0 -1
    outer loop
      vertex -10 5 35
      vertex -20 10 35
      vertex 20 10 35
    endloop
  endfacet
  facet normal 0 0 -1
    outer loop
      vertex 20 -10 35
      vertex 10 -5 35
      vertex 20 -5 35
    endloop
  endfacet
  facet normal 0 0 -1
    outer loop
      vertex 10 -5 35
      vertex -10 -5 35
      vertex 10 5 35
    endloop
  endfacet
  facet normal 0 0 -1
    outer loop
      vertex 20 -10 35
      vertex -10 -5 35
      vertex 10 -5 35
    endloop
  endfacet
  facet normal 0 0 -1
    outer loop
      vertex -20 -10 35
      vertex -10 -5 35
      vertex 20 -10 35
    endloop
  endfacet
  facet normal -0 0 -1
    outer loop
      vertex -10 -5 35
      vertex -20 -10 35
      vertex -20 -5 35
    endloop
  endfacet
  facet normal -1 0 0
    outer loop
      vertex -20 5 25
      vertex -20 -5 25
      vertex -20 5 35
    endloop
  endfacet
  facet normal -1 0 0
    outer loop
      vertex -20 5 35
      vertex -20 10 45
      vertex -20 10 35
    endloop
  endfacet
  facet normal -1 0 0
    outer loop
      vertex -20 -5 35
      vertex -20 5 35
      vertex -20 -5 25
    endloop
  endfacet
  facet normal -1 0 0
    outer loop
      vertex -20 5 35
      vertex -20 -5 35
      vertex -20 10 45
    endloop
  endfacet
  facet normal -1 0 0
    outer loop
      vertex -20 -10 45
      vertex -20 -5 35
      vertex -20 -10 35
    endloop
  endfacet
  facet normal -1 0 0
    outer loop
      vertex -20 -5 35
      vertex -20 -10 45
      vertex -20 10 45
    endloop
  endfacet
  facet normal 0 1 0
    outer loop
      vertex 20 10 45
      vertex 10 10 40
      vertex 10 10 45
    endloop
  endfacet
  facet normal 0 1 0
    outer loop
      vertex 10 10 40
      vertex 20 10 35
      vertex -10 10 40
    endloop
  endfacet
  facet normal 0 1 -0
    outer loop
      vertex 20 10 35
      vertex 10 10 40
      vertex 20 10 45
    endloop
  endfacet
  facet normal 0 1 -0
    outer loop
      vertex -10 10 40
      vertex -20 10 45
      vertex -10 10 45
    endloop
  endfacet
  facet normal 0 1 0
    outer loop
      vertex -10 10 40
      vertex -20 10 35
      vertex -20 10 45
    endloop
  endfacet
  facet normal 0 1 0
    outer loop
      vertex -20 10 35
      vertex -10 10 40
      vertex 20 10 35
    endloop
  endfacet
  facet normal 0 -1 0
    outer loop
      vertex -20 -10 35
      vertex 20 -10 45
      vertex -20 -10 45
    endloop
  endfacet
  facet normal 0 -1 -0
    outer loop
      vertex 20 -10 45
      vertex -20 -10 35
      vertex 20 -10 35
    endloop
  endfacet
  facet normal 1 0 0
    outer loop
      vertex 10 15 50
      vertex 10 10 45
      vertex 10 15 40
    endloop
  endfacet
  facet normal 1 -0 0
    outer loop
      vertex 10 5 50
      vertex 10 10 45
      vertex 10 15 50
    endloop
  endfacet
  facet normal 1 0 0
    outer loop
      vertex 10 10 45
      vertex 10 5 50
      vertex 10 5 45
    endloop
  endfacet
  facet normal 1 0 0
    outer loop
      vertex 10 15 40
      vertex 10 10 45
      vertex 10 10 40
    endloop
  endfacet
  facet normal -0 0 1
    outer loop
      vertex -10 15 50
      vertex 10 5 50
      vertex 10 15 50
    endloop
  endfacet
  facet normal 0 0 1
    outer loop
      vertex 10 5 50
      vertex -10 15 50
      vertex -10 5 50
    endloop
  endfacet
  facet normal 0 0 -1
    outer loop
      vertex -10 10 40
      vertex 10 15 40
      vertex 10 10 40
    endloop
  endfacet
  facet normal -0 0 -1
    outer loop
      vertex 10 15 40
      vertex -10 10 40
      vertex -10 15 40
    endloop
  endfacet
  facet normal -1 0 0
    outer loop
      vertex -10 10 45
      vertex -10 15 40
      vertex -10 10 40
    endloop
  endfacet
  facet normal -1 0 0
    outer loop
      vertex -10 15 40
      vertex -10 10 45
      vertex -10 15 50
    endloop
  endfacet
  facet normal -1 0 0
    outer loop
      vertex -10 5 50
      vertex -10 10 45
      vertex -10 5 45
    endloop
  endfacet
  facet normal -1 0 0
    outer loop
      vertex -10 10 45
      vertex -10 5 50
      vertex -10 15 50
    endloop
  endfacet
  facet normal 0 1 -0
    outer loop
      vertex 10 15 40
      vertex -10 15 50
      vertex 10 15 50
    endloop
  endfacet
  facet normal 0 1 0
    outer loop
      vertex -10 15 50
      vertex 10 15 40
      vertex -10 15 40
    endloop
  endfacet
  facet normal 0 -1 0
    outer loop
      vertex -10 5 45
      vertex 10 5 50
      vertex -10 5 50
    endloop
  endfacet
  facet normal 0 -1 -0
    outer loop
      vertex 10 5 50
      vertex -10 5 45
      vertex 10 5 45
    endloop
  endfacet
  facet normal 1 -0 0
    outer loop
      vertex -15 5 25
      vertex -15 10 15
      vertex -15 10 25
    endloop
  endfacet
  facet normal 1 -0 0
    outer loop
      vertex -15 -5 25
      vertex -15 10 15
      vertex -15 5 25
    endloop
  endfacet
  facet normal 1 0 0
    outer loop
      vertex -15 -10 15
      vertex -15 -5 25
      vertex -15 -10 25
    endloop
  endfacet
  facet normal 1 0 0
    outer loop
      vertex -15 -5 25
      vertex -15 -10 15
      vertex -15 10 15
    endloop
  endfacet
  facet normal 0 0 -1
    outer loop
      vertex -15 -5 25
      vertex -10 5 25
      vertex -10 -5 25
    endloop
  endfacet
  facet normal -0 0 -1
    outer loop
      vertex -10 5 25
      vertex -15 -5 25
      vertex -15 5 25
    endloop
  endfacet
  facet normal -0 0 1
    outer loop
      vertex -20 -5 25
      vertex -15 -10 25
      vertex -15 -5 25
    endloop
  endfacet
  facet normal 0 0 1
    outer loop
      vertex -25 -10 25
      vertex -20 -5 25
      vertex -25 0 25
    endloop
  endfacet
  facet normal 0 0 1
    outer loop
      vertex -20 -5 25
      vertex -25 -10 25
      vertex -15 -10 25
    endloop
  endfacet
  facet normal 0 0 1
    outer loop
      vertex -15 10 25
      vertex -20 5 25
      vertex -15 5 25
    endloop
  endfacet
  facet normal 0 0 1
    outer loop
      vertex -20 5 25
      vertex -25 0 25
      vertex -20 -5 25
    endloop
  endfacet
  facet normal -0 0 1
    outer loop
      vertex -45 10 25
      vertex -20 5 25
      vertex -15 10 25
    endloop
  endfacet
  facet normal 0 0 1
    outer loop
      vertex -20 5 25
      vertex -35 0 25
      vertex -25 0 25
    endloop
  endfacet
  facet normal 0 0 1
    outer loop
      vertex -20 5 25
      vertex -45 10 25
      vertex -35 0 25
    endloop
  endfacet
  facet normal 0 0 1
    outer loop
      vertex -45 -10 25
      vertex -35 0 25
      vertex -45 10 25
    endloop
  endfacet
  facet normal 0 0 1
    outer loop
      vertex -35 0 25
      vertex -45 -10 25
      vertex -35 -10 25
    endloop
  endfacet
  facet normal 0 0 -1
    outer loop
      vertex -45 -10 15
      vertex -15 10 15
      vertex -15 -10 15
    endloop
  endfacet
  facet normal -0 0 -1
    outer loop
      vertex -15 10 15
      vertex -45 -10 15
      vertex -45 10 15
    endloop
  endfacet
  facet normal -1 0 0
    outer loop
      vertex -45 -10 15
      vertex -45 10 25
      vertex -45 10 15
    endloop
  endfacet
  facet normal -1 -0 0
    outer loop
      vertex -45 10 25
      vertex -45 -10 15
      vertex -45 -10 25
    endloop
  endfacet
  facet normal 0 1 -0
    outer loop
      vertex -15 10 15
      vertex -45 10 25
      vertex -15 10 25
    endloop
  endfacet
  facet normal 0 1 0
    outer loop
      vertex -45 10 25
      vertex -15 10 15
      vertex -45 10 15
    endloop
  endfacet
  facet normal 0 -1 0
    outer loop
      vertex -45 -10 25
      vertex -35 -10 20
      vertex -35 -10 25
    endloop
  endfacet
  facet normal 0 -1 -0
    outer loop
      vertex -35 -10 20
      vertex -45 -10 15
      vertex -25 -10 20
    endloop
  endfacet
  facet normal 0 -1 0
    outer loop
      vertex -45 -10 15
      vertex -35 -10 20
      vertex -45 -10 25
    endloop
  endfacet
  facet normal 0 -1 0
    outer loop
      vertex -25 -10 20
      vertex -15 -10 25
      vertex -25 -10 25
    endloop
  endfacet
  facet normal 0 -1 0
    outer loop
      vertex -25 -10 20
      vertex -15 -10 15
      vertex -15 -10 25
    endloop
  endfacet
  facet normal 0 -1 0
    outer loop
      vertex -15 -10 15
      vertex -25 -10 20
      vertex -45 -10 15
    endloop
  endfacet
  facet normal -1 0 0
    outer loop
      vertex -25 -10 20
      vertex -25 0 25
      vertex -25 0 20
    endloop
  endfacet
  facet normal -1 -0 0
    outer loop
      vertex -25 0 25
      vertex -25 -10 20
      vertex -25 -10 25
    endloop
  endfacet
  facet normal -0 0 1
    outer loop
      vertex -35 0 20
      vertex -25 -10 20
      vertex -25 0 20
    endloop
  endfacet
  facet normal 0 0 1
    outer loop
      vertex -25 -10 20
      vertex -35 0 20
      vertex -35 -10 20
    endloop
  endfacet
  facet normal 1 -0 0
    outer loop
      vertex -35 -10 25
      vertex -35 0 20
      vertex -35 0 25
    endloop
  endfacet
  facet normal 1 0 0
    outer loop
      vertex -35 0 20
      vertex -35 -10 25
      vertex -35 -10 20
    endloop
  endfacet
  facet normal 0 -1 0
    outer loop
      vertex -35 0 20
      vertex -25 0 25
      vertex -35 0 25
    endloop
  endfacet
  facet normal 0 -1 -0
    outer loop
      vertex -25 0 25
      vertex -35 0 20
      vertex -25 0 20
    endloop
  endfacet
  facet normal 1 -0 0
    outer loop
      vertex 45 -10 25
      vertex 45 10 15
      vertex 45 10 25
    endloop
  endfacet
  facet normal 1 0 0
    outer loop
      vertex 45 10 15
      vertex 45 -10 25
      vertex 45 -10 15
    endloop
  endfacet
  facet normal 0 0 1
    outer loop
      vertex 45 10 25
      vertex 35 0 25
      vertex 45 -10 25
    endloop
  endfacet
  facet normal -0 0 1
    outer loop
      vertex 20 5 25
      vertex 35 0 25
      vertex 45 10 25
    endloop
  endfacet
  facet normal 0 0 1
    outer loop
      vertex 20 -5 25
      vertex 25 0 25
      vertex 20 5 25
    endloop
  endfacet
  facet normal 0 0 1
    outer loop
      vertex 35 0 25
      vertex 20 5 25
      vertex 25 0 25
    endloop
  endfacet
  facet normal -0 0 1
    outer loop
      vertex 15 10 25
      vertex 20 5 25
      vertex 45 10 25
    endloop
  endfacet
  facet normal 0 0 1
    outer loop
      vertex 20 5 25
      vertex 15 10 25
      vertex 15 5 25
    endloop
  endfacet
  facet normal 0 0 1
    outer loop
      vertex 45 -10 25
      vertex 35 0 25
      vertex 35 -10 25
    endloop
  endfacet
  facet normal 0 0 1
    outer loop
      vertex 25 0 25
      vertex 20 -5 25
      vertex 25 -10 25
    endloop
  endfacet
  facet normal 0 0 1
    outer loop
      vertex 15 -10 25
      vertex 20 -5 25
      vertex 15 -5 25
    endloop
  endfacet
  facet normal 0 0 1
    outer loop
      vertex 20 -5 25
      vertex 15 -10 25
      vertex 25 -10 25
    endloop
  endfacet
  facet normal 0 0 -1
    outer loop
      vertex 10 -5 25
      vertex 15 5 25
      vertex 15 -5 25
    endloop
  endfacet
  facet normal -0 0 -1
    outer loop
      vertex 15 5 25
      vertex 10 -5 25
      vertex 10 5 25
    endloop
  endfacet
  facet normal 0 0 -1
    outer loop
      vertex 15 -10 15
      vertex 45 10 15
      vertex 45 -10 15
    endloop
  endfacet
  facet normal -0 0 -1
    outer loop
      vertex 45 10 15
      vertex 15 -10 15
      vertex 15 10 15
    endloop
  endfacet
  facet normal -1 0 0
    outer loop
      vertex 15 10 15
      vertex 15 5 25
      vertex 15 10 25
    endloop
  endfacet
  facet normal -1 0 0
    outer loop
      vertex 15 10 15
      vertex 15 -5 25
      vertex 15 5 25
    endloop
  endfacet
  facet normal -1 0 0
    outer loop
      vertex 15 -10 15
      vertex 15 -5 25
      vertex 15 10 15
    endloop
  endfacet
  facet normal -1 -0 0
    outer loop
      vertex 15 -5 25
      vertex 15 -10 15
      vertex 15 -10 25
    endloop
  endfacet
  facet normal 0 1 -0
    outer loop
      vertex 45 10 15
      vertex 15 10 25
      vertex 45 10 25
    endloop
  endfacet
  facet normal 0 1 0
    outer loop
      vertex 15 10 25
      vertex 45 10 15
      vertex 15 10 15
    endloop
  endfacet
  facet normal 0 -1 0
    outer loop
      vertex 15 -10 25
      vertex 25 -10 20
      vertex 25 -10 25
    endloop
  endfacet
  facet normal 0 -1 -0
    outer loop
      vertex 25 -10 20
      vertex 15 -10 15
      vertex 35 -10 20
    endloop
  endfacet
  facet normal 0 -1 0
    outer loop
      vertex 15 -10 15
      vertex 25 -10 20
      vertex 15 -10 25
    endloop
  endfacet
  facet normal 0 -1 0
    outer loop
      vertex 35 -10 20
      vertex 45 -10 25
      vertex 35 -10 25
    endloop
  endfacet
  facet normal 0 -1 0
    outer loop
      vertex 35 -10 20
      vertex 45 -10 15
      vertex 45 -10 25
    endloop
  endfacet
  facet normal 0 -1 0
    outer loop
      vertex 45 -10 15
      vertex 35 -10 20
      vertex 15 -10 15
    endloop
  endfacet
  facet normal -1 0 0
    outer loop
      vertex 35 -10 20
      vertex 35 0 25
      vertex 35 0 20
    endloop
  endfacet
  facet normal -1 -0 0
    outer loop
      vertex 35 0 25
      vertex 35 -10 20
      vertex 35 -10 25
    endloop
  endfacet
  facet normal -0 0 1
    outer loop
      vertex 25 0 20
      vertex 35 -10 20
      vertex 35 0 20
    endloop
  endfacet
  facet normal 0 0 1
    outer loop
      vertex 35 -10 20
      vertex 25 0 20
      vertex 25 -10 20
    endloop
  endfacet
  facet normal 1 -0 0
    outer loop
      vertex 25 -10 25
      vertex 25 0 20
      vertex 25 0 25
    endloop
  endfacet
  facet normal 1 0 0
    outer loop
      vertex 25 0 20
      vertex 25 -10 25
      vertex 25 -10 20
    endloop
  endfacet
  facet normal 0 -1 0
    outer loop
      vertex 25 0 20
      vertex 35 0 25
      vertex 25 0 25
    endloop
  endfacet
  facet normal 0 -1 -0
    outer loop
      vertex 35 0 25
      vertex 25 0 20
      vertex 35 0 20
    endloop
  endfacet
  facet normal 1 -0 0
    outer loop
      vertex 15 -10 15
      vertex 15 10 5
      vertex 15 10 15
    endloop
  endfacet
  facet normal 1 0 0
    outer loop
      vertex 15 10 5
      vertex 15 -10 15
      vertex 15 -10 5
    endloop
  endfacet
  facet normal 0 0 1
    outer loop
      vertex 15 10 15
      vertex 10 5 15
      vertex 15 -10 15
    endloop
  endfacet
  facet normal 0 0 1
    outer loop
      vertex 15 10 15
      vertex 0 5 15
      vertex 10 5 15
    endloop
  endfacet
  facet normal 0 0 1
    outer loop
      vertex 0 5 15
      vertex -15 10 15
      vertex 0 -5 15
    endloop
  endfacet
  facet normal -0 0 1
    outer loop
      vertex -15 10 15
      vertex 0 5 15
      vertex 15 10 15
    endloop
  endfacet
  facet normal -0 0 1
    outer loop
      vertex 10 -5 15
      vertex 15 -10 15
      vertex 10 5 15
    endloop
  endfacet
  facet normal -0 0 1
    outer loop
      vertex 0 -5 15
      vertex 15 -10 15
      vertex 10 -5 15
    endloop
  endfacet
  facet normal 0 0 1
    outer loop
      vertex 0 -5 15
      vertex -15 -10 15
      vertex 15 -10 15
    endloop
  endfacet
  facet normal 0 0 1
    outer loop
      vertex -15 -10 15
      vertex 0 -5 15
      vertex -15 10 15
    endloop
  endfacet
  facet normal 0 0 -1
    outer loop
      vertex -15 -10 5
      vertex 15 10 5
      vertex 15 -10 5
    endloop
  endfacet
  facet normal -0 0 -1
    outer loop
      vertex 15 10 5
      vertex -15 -10 5
      vertex -15 10 5
    endloop
  endfacet
  facet normal -1 0 0
    outer loop
      vertex -15 -10 5
      vertex -15 10 15
      vertex -15 10 5
    endloop
  endfacet
  facet normal -1 -0 0
    outer loop
      vertex -15 10 15
      vertex -15 -10 5
      vertex -15 -10 15
    endloop
  endfacet
  facet normal 0 1 -0
    outer loop
      vertex 15 10 5
      vertex -15 10 15
      vertex 15 10 15
    endloop
  endfacet
  facet normal 0 1 0
    outer loop
      vertex -15 10 15
      vertex 15 10 5
      vertex -15 10 5
    endloop
  endfacet
  facet normal 0 -1 0
    outer loop
      vertex -15 -10 5
      vertex 15 -10 15
      vertex -15 -10 15
    endloop
  endfacet
  facet normal 0 -1 -0
    outer loop
      vertex 15 -10 15
      vertex -15 -10 5
      vertex 15 -10 5
    endloop
  endfacet
  facet normal 1 -0 0
    outer loop
      vertex 10 -5 20
      vertex 10 5 15
      vertex 10 5 20
    endloop
  endfacet
  facet normal 1 0 0
    outer loop
      vertex 10 5 15
      vertex 10 -5 20
      vertex 10 -5 15
    endloop
  endfacet
  facet normal -0 0 1
    outer loop
      vertex 0 5 20
      vertex 10 -5 20
      vertex 10 5 20
    endloop
  endfacet
  facet normal 0 0 1
    outer loop
      vertex 10 -5 20
      vertex 0 5 20
      vertex 0 -5 20
    endloop
  endfacet
  facet normal -1 0 0
    outer loop
      vertex 0 -5 15
      vertex 0 5 20
      vertex 0 5 15
    endloop
  endfacet
  facet normal -1 -0 0
    outer loop
      vertex 0 5 20
      vertex 0 -5 15
      vertex 0 -5 20
    endloop
  endfacet
  facet normal 0 1 -0
    outer loop
      vertex 10 5 15
      vertex 0 5 20
      vertex 10 5 20
    endloop
  endfacet
  facet normal 0 1 0
    outer loop
      vertex 0 5 20
      vertex 10 5 15
      vertex 0 5 15
    endloop
  endfacet
  facet normal 0 -1 0
    outer loop
      vertex 0 -5 15
      vertex 10 -5 20
      vertex 0 -5 20
    endloop
  endfacet
  facet normal 0 -1 -0
    outer loop
      vertex 10 -5 20
      vertex 0 -5 15
      vertex 10 -5 15
    endloop
  endfacet
  facet normal 1 -0 0
    outer loop
      vertex -10 -5 35
      vertex -10 5 25
      vertex -10 5 35
    endloop
  endfacet
  facet normal 1 0 0
    outer loop
      vertex -10 5 25
      vertex -10 -5 35
      vertex -10 -5 25
    endloop
  endfacet
  facet normal 0 1 0
    outer loop
      vertex -15 5 25
      vertex -10 5 35
      vertex -10 5 25
    endloop
  endfacet
  facet normal 0 1 0
    outer loop
      vertex -10 5 35
      vertex -15 5 25
      vertex -20 5 35
    endloop
  endfacet
  facet normal 0 1 0
    outer loop
      vertex -20 5 35
      vertex -15 5 25
      vertex -20 5 25
    endloop
  endfacet
  facet normal 0 -1 0
    outer loop
      vertex -15 -5 25
      vertex -20 -5 35
      vertex -20 -5 25
    endloop
  endfacet
  facet normal 0 -1 0
    outer loop
      vertex -20 -5 35
      vertex -15 -5 25
      vertex -10 -5 35
    endloop
  endfacet
  facet normal 0 -1 -0
    outer loop
      vertex -10 -5 35
      vertex -15 -5 25
      vertex -10 -5 25
    endloop
  endfacet
  facet normal -1 0 0
    outer loop
      vertex 10 -5 25
      vertex 10 5 35
      vertex 10 5 25
    endloop
  endfacet
  facet normal -1 -0 0
    outer loop
      vertex 10 5 35
      vertex 10 -5 25
      vertex 10 -5 35
    endloop
  endfacet
  facet normal 0 1 0
    outer loop
      vertex 15 5 25
      vertex 20 5 35
      vertex 20 5 25
    endloop
  endfacet
  facet normal 0 1 0
    outer loop
      vertex 20 5 35
      vertex 15 5 25
      vertex 10 5 35
    endloop
  endfacet
  facet normal 0 1 0
    outer loop
      vertex 10 5 35
      vertex 15 5 25
      vertex 10 5 25
    endloop
  endfacet
  facet normal 0 -1 0
    outer loop
      vertex 15 -5 25
      vertex 10 -5 35
      vertex 10 -5 25
    endloop
  endfacet
  facet normal 0 -1 0
    outer loop
      vertex 10 -5 35
      vertex 15 -5 25
      vertex 20 -5 35
    endloop
  endfacet
  facet normal 0 -1 -0
    outer loop
      vertex 20 -5 35
      vertex 15 -5 25
      vertex 20 -5 25
    endloop
  endfacet
endsolid OpenSCAD_Model
