solid OpenSCAD_Model
  facet normal 1 -0 0
    outer loop
      vertex 50 0 50
      vertex 50 40 0
      vertex 50 40 50
    endloop
  endfacet
  facet normal 1 0 0
    outer loop
      vertex 50 40 0
      vertex 50 0 50
      vertex 50 0 0
    endloop
  endfacet
  facet normal 0 0 -1
    outer loop
      vertex 15 40 50
      vertex 35 50 50
      vertex 35 40 50
    endloop
  endfacet
  facet normal -0 0 -1
    outer loop
      vertex 35 50 50
      vertex 15 40 50
      vertex 15 50 50
    endloop
  endfacet
  facet normal 0 0 1
    outer loop
      vertex 15 40 50
      vertex 0 40 50
      vertex 15 10 50
    endloop
  endfacet
  facet normal 0 0 1
    outer loop
      vertex 35 10 50
      vertex 50 40 50
      vertex 35 40 50
    endloop
  endfacet
  facet normal 0 0 1
    outer loop
      vertex 50 40 50
      vertex 35 10 50
      vertex 50 0 50
    endloop
  endfacet
  facet normal -0 0 1
    outer loop
      vertex 15 10 50
      vertex 50 0 50
      vertex 35 10 50
    endloop
  endfacet
  facet normal 0 0 1
    outer loop
      vertex 15 10 50
      vertex 0 0 50
      vertex 50 0 50
    endloop
  endfacet
  facet normal 0 0 1
    outer loop
      vertex 0 0 50
      vertex 15 10 50
      vertex 0 40 50
    endloop
  endfacet
  facet normal 0 0 -1
    outer loop
      vertex 0 0 0
      vertex 50 40 0
      vertex 50 0 0
    endloop
  endfacet
  facet normal -0 0 -1
    outer loop
      vertex 50 40 0
      vertex 0 0 0
      vertex 0 40 0
    endloop
  endfacet
  facet normal -1 0 0
    outer loop
      vertex 0 0 0
      vertex 0 40 50
      vertex 0 40 0
    endloop
  endfacet
  facet normal -1 -0 0
    outer loop
      vertex 0 40 50
      vertex 0 0 0
      vertex 0 0 50
    endloop
  endfacet
  facet normal 0 1 -0
    outer loop
      vertex 50 40 0
      vertex 35 40 50
      vertex 50 40 50
    endloop
  endfacet
  facet normal 0 1 0
    outer loop
      vertex 35 40 50
      vertex 50 40 0
      vertex 15 40 50
    endloop
  endfacet
  facet normal 0 1 0
    outer loop
      vertex 0 40 0
      vertex 15 40 50
      vertex 50 40 0
    endloop
  endfacet
  facet normal 0 1 0
    outer loop
      vertex 15 40 50
      vertex 0 40 0
      vertex 0 40 50
    endloop
  endfacet
  facet normal 0 -1 0
    outer loop
      vertex 0 0 0
      vertex 50 0 50
      vertex 0 0 50
    endloop
  endfacet
  facet normal 0 -1 -0
    outer loop
      vertex 50 0 50
      vertex 0 0 0
      vertex 50 0 0
    endloop
  endfacet
  facet normal -1 0 0
    outer loop
      vertex 40 10 15
      vertex 40 30 40
      vertex 40 30 15
    endloop
  endfacet
  facet normal -1 -0 0
    outer loop
      vertex 40 30 40
      vertex 40 10 15
      vertex 40 10 40
    endloop
  endfacet
  facet normal 0 0 -1
    outer loop
      vertex 10 10 40
      vertex 40 30 40
      vertex 40 10 40
    endloop
  endfacet
  facet normal -0 0 -1
    outer loop
      vertex 40 30 40
      vertex 10 10 40
      vertex 10 30 40
    endloop
  endfacet
  facet normal -0 0 1
    outer loop
      vertex 10 30 15
      vertex 40 10 15
      vertex 40 30 15
    endloop
  endfacet
  facet normal 0 0 1
    outer loop
      vertex 40 10 15
      vertex 10 30 15
      vertex 10 10 15
    endloop
  endfacet
  facet normal 1 -0 0
    outer loop
      vertex 10 10 40
      vertex 10 30 15
      vertex 10 30 40
    endloop
  endfacet
  facet normal 1 0 0
    outer loop
      vertex 10 30 15
      vertex 10 10 40
      vertex 10 10 15
    endloop
  endfacet
  facet normal 0 -1 0
    outer loop
      vertex 10 30 15
      vertex 40 30 40
      vertex 10 30 40
    endloop
  endfacet
  facet normal 0 -1 -0
    outer loop
      vertex 40 30 40
      vertex 10 30 15
      vertex 40 30 15
    endloop
  endfacet
  facet normal 0 1 -0
    outer loop
      vertex 40 10 15
      vertex 10 10 40
      vertex 40 10 40
    endloop
  endfacet
  facet normal 0 1 0
    outer loop
      vertex 10 10 40
      vertex 40 10 15
      vertex 10 10 15
    endloop
  endfacet
  facet normal 1 -0 0
    outer loop
      vertex 35 40 100
      vertex 35 50 50
      vertex 35 50 100
    endloop
  endfacet
  facet normal 1 0 0
    outer loop
      vertex 35 40 100
      vertex 35 40 50
      vertex 35 50 50
    endloop
  endfacet
  facet normal 1 -0 0
    outer loop
      vertex 35 10 100
      vertex 35 40 50
      vertex 35 40 100
    endloop
  endfacet
  facet normal 1 0 0
    outer loop
      vertex 35 40 50
      vertex 35 10 100
      vertex 35 10 50
    endloop
  endfacet
  facet normal 0 0 -1
    outer loop
      vertex 35 50 100
      vertex 95 40 100
      vertex 35 40 100
    endloop
  endfacet
  facet normal 0 0 -1
    outer loop
      vertex 95 40 100
      vertex 35 50 100
      vertex 95 55 100
    endloop
  endfacet
  facet normal 0 0 -1
    outer loop
      vertex 15 55 100
      vertex 35 50 100
      vertex 15 50 100
    endloop
  endfacet
  facet normal 0 0 -1
    outer loop
      vertex 35 50 100
      vertex 15 55 100
      vertex 95 55 100
    endloop
  endfacet
  facet normal -0 0 1
    outer loop
      vertex 15 40 100
      vertex 35 10 100
      vertex 35 40 100
    endloop
  endfacet
  facet normal 0 0 1
    outer loop
      vertex 35 10 100
      vertex 15 40 100
      vertex 15 10 100
    endloop
  endfacet
  facet normal -1 0 0
    outer loop
      vertex 15 50 50
      vertex 15 40 50
      vertex 15 50 100
    endloop
  endfacet
  facet normal -1 0 0
    outer loop
      vertex 15 50 100
      vertex 15 55 110
      vertex 15 55 100
    endloop
  endfacet
  facet normal -1 0 0
    outer loop
      vertex 15 40 100
      vertex 15 50 100
      vertex 15 40 50
    endloop
  endfacet
  facet normal -1 0 0
    outer loop
      vertex 15 40 110
      vertex 15 50 100
      vertex 15 40 100
    endloop
  endfacet
  facet normal -1 0 0
    outer loop
      vertex 15 50 100
      vertex 15 40 110
      vertex 15 55 110
    endloop
  endfacet
  facet normal -1 0 0
    outer loop
      vertex 15 10 50
      vertex 15 40 100
      vertex 15 40 50
    endloop
  endfacet
  facet normal -1 -0 0
    outer loop
      vertex 15 40 100
      vertex 15 10 50
      vertex 15 10 100
    endloop
  endfacet
  facet normal 0 1 -0
    outer loop
      vertex 35 50 50
      vertex 15 50 100
      vertex 35 50 100
    endloop
  endfacet
  facet normal 0 1 0
    outer loop
      vertex 15 50 100
      vertex 35 50 50
      vertex 15 50 50
    endloop
  endfacet
  facet normal 0 -1 0
    outer loop
      vertex 15 10 50
      vertex 35 10 100
      vertex 15 10 100
    endloop
  endfacet
  facet normal 0 -1 -0
    outer loop
      vertex 35 10 100
      vertex 15 10 50
      vertex 35 10 50
    endloop
  endfacet
  facet normal 1 -0 0
    outer loop
      vertex 95 40 110
      vertex 95 55 100
      vertex 95 55 110
    endloop
  endfacet
  facet normal 1 0 0
    outer loop
      vertex 95 55 100
      vertex 95 40 110
      vertex 95 40 100
    endloop
  endfacet
  facet normal -0 0 1
    outer loop
      vertex 15 55 110
      vertex 95 40 110
      vertex 95 55 110
    endloop
  endfacet
  facet normal 0 0 1
    outer loop
      vertex 95 40 110
      vertex 15 55 110
      vertex 15 40 110
    endloop
  endfacet
  facet normal 0 1 -0
    outer loop
      vertex 95 55 100
      vertex 15 55 110
      vertex 95 55 110
    endloop
  endfacet
  facet normal 0 1 0
    outer loop
      vertex 15 55 110
      vertex 95 55 100
      vertex 15 55 100
    endloop
  endfacet
  facet normal 0 -1 0
    outer loop
      vertex 35 40 100
      vertex 15 40 110
      vertex 15 40 100
    endloop
  endfacet
  facet normal 0 -1 0
    outer loop
      vertex 15 40 110
      vertex 35 40 100
      vertex 95 40 110
    endloop
  endfacet
  facet normal 0 -1 -0
    outer loop
      vertex 95 40 110
      vertex 35 40 100
      vertex 95 40 100
    endloop
  endfacet
endsolid OpenSCAD_Model
