solid OpenSCAD_Model
  facet normal 1 -0 0
    outer loop
      vertex 30 20 200
      vertex 30 30 150
      vertex 30 30 200
    endloop
  endfacet
  facet normal 1 0 0
    outer loop
      vertex 30 30 150
      vertex 30 20 200
      vertex 30 20 150
    endloop
  endfacet
  facet normal -0 0 1
    outer loop
      vertex 20 30 200
      vertex 30 20 200
      vertex 30 30 200
    endloop
  endfacet
  facet normal 0 0 1
    outer loop
      vertex 30 20 200
      vertex 20 30 200
      vertex 20 20 200
    endloop
  endfacet
  facet normal 0 0 -1
    outer loop
      vertex 20 20 150
      vertex 30 30 150
      vertex 30 20 150
    endloop
  endfacet
  facet normal -0 0 -1
    outer loop
      vertex 30 30 150
      vertex 20 20 150
      vertex 20 30 150
    endloop
  endfacet
  facet normal -1 0 0
    outer loop
      vertex 20 20 150
      vertex 20 30 200
      vertex 20 30 150
    endloop
  endfacet
  facet normal -1 -0 0
    outer loop
      vertex 20 30 200
      vertex 20 20 150
      vertex 20 20 200
    endloop
  endfacet
  facet normal 0 1 -0
    outer loop
      vertex 30 30 150
      vertex 20 30 200
      vertex 30 30 200
    endloop
  endfacet
  facet normal 0 1 0
    outer loop
      vertex 20 30 200
      vertex 30 30 150
      vertex 20 30 150
    endloop
  endfacet
  facet normal 0 -1 0
    outer loop
      vertex 20 20 150
      vertex 30 20 200
      vertex 20 20 200
    endloop
  endfacet
  facet normal 0 -1 -0
    outer loop
      vertex 30 20 200
      vertex 20 20 150
      vertex 30 20 150
    endloop
  endfacet
  facet normal 1 -0 0
    outer loop
      vertex 50 0 110
      vertex 50 50 100
      vertex 50 50 110
    endloop
  endfacet
  facet normal 1 0 0
    outer loop
      vertex 50 50 100
      vertex 50 0 110
      vertex 50 0 100
    endloop
  endfacet
  facet normal -0 0 1
    outer loop
      vertex 0 50 110
      vertex 50 0 110
      vertex 50 50 110
    endloop
  endfacet
  facet normal 0 0 1
    outer loop
      vertex 50 0 110
      vertex 0 50 110
      vertex 0 0 110
    endloop
  endfacet
  facet normal 0 0 -1
    outer loop
      vertex 50 0 100
      vertex 40 10 100
      vertex 50 50 100
    endloop
  endfacet
  facet normal 0 0 -1
    outer loop
      vertex 50 0 100
      vertex 10 10 100
      vertex 40 10 100
    endloop
  endfacet
  facet normal -0 0 -1
    outer loop
      vertex 10 10 100
      vertex 0 0 100
      vertex 10 40 100
    endloop
  endfacet
  facet normal 0 0 -1
    outer loop
      vertex 0 0 100
      vertex 10 10 100
      vertex 50 0 100
    endloop
  endfacet
  facet normal 0 0 -1
    outer loop
      vertex 40 40 100
      vertex 50 50 100
      vertex 40 10 100
    endloop
  endfacet
  facet normal 0 0 -1
    outer loop
      vertex 10 40 100
      vertex 50 50 100
      vertex 40 40 100
    endloop
  endfacet
  facet normal 0 0 -1
    outer loop
      vertex 10 40 100
      vertex 0 50 100
      vertex 50 50 100
    endloop
  endfacet
  facet normal 0 0 -1
    outer loop
      vertex 0 50 100
      vertex 10 40 100
      vertex 0 0 100
    endloop
  endfacet
  facet normal -1 0 0
    outer loop
      vertex 0 0 100
      vertex 0 50 110
      vertex 0 50 100
    endloop
  endfacet
  facet normal -1 -0 0
    outer loop
      vertex 0 50 110
      vertex 0 0 100
      vertex 0 0 110
    endloop
  endfacet
  facet normal 0 1 -0
    outer loop
      vertex 50 50 100
      vertex 0 50 110
      vertex 50 50 110
    endloop
  endfacet
  facet normal 0 1 0
    outer loop
      vertex 0 50 110
      vertex 50 50 100
      vertex 0 50 100
    endloop
  endfacet
  facet normal 0 -1 0
    outer loop
      vertex 0 0 100
      vertex 50 0 110
      vertex 0 0 110
    endloop
  endfacet
  facet normal 0 -1 -0
    outer loop
      vertex 50 0 110
      vertex 0 0 100
      vertex 50 0 100
    endloop
  endfacet
  facet normal 1 -0 0
    outer loop
      vertex 40 10 100
      vertex 40 40 40
      vertex 40 40 100
    endloop
  endfacet
  facet normal 1 0 0
    outer loop
      vertex 40 40 40
      vertex 40 10 100
      vertex 40 10 40
    endloop
  endfacet
  facet normal -1 0 0
    outer loop
      vertex 10 10 40
      vertex 10 40 100
      vertex 10 40 40
    endloop
  endfacet
  facet normal -1 -0 0
    outer loop
      vertex 10 40 100
      vertex 10 10 40
      vertex 10 10 100
    endloop
  endfacet
  facet normal 0 1 -0
    outer loop
      vertex 40 40 40
      vertex 10 40 100
      vertex 40 40 100
    endloop
  endfacet
  facet normal 0 1 0
    outer loop
      vertex 10 40 100
      vertex 40 40 40
      vertex 10 40 40
    endloop
  endfacet
  facet normal 0 -1 0
    outer loop
      vertex 10 10 40
      vertex 40 10 100
      vertex 10 10 100
    endloop
  endfacet
  facet normal 0 -1 -0
    outer loop
      vertex 40 10 100
      vertex 10 10 40
      vertex 40 10 40
    endloop
  endfacet
  facet normal 0 0 -1
    outer loop
      vertex 40 10 40
      vertex 30 20 40
      vertex 40 40 40
    endloop
  endfacet
  facet normal 0 0 -1
    outer loop
      vertex 40 10 40
      vertex 20 20 40
      vertex 30 20 40
    endloop
  endfacet
  facet normal -0 0 -1
    outer loop
      vertex 20 20 40
      vertex 10 10 40
      vertex 20 30 40
    endloop
  endfacet
  facet normal 0 0 -1
    outer loop
      vertex 10 10 40
      vertex 20 20 40
      vertex 40 10 40
    endloop
  endfacet
  facet normal 0 0 -1
    outer loop
      vertex 30 30 40
      vertex 40 40 40
      vertex 30 20 40
    endloop
  endfacet
  facet normal 0 0 -1
    outer loop
      vertex 20 30 40
      vertex 40 40 40
      vertex 30 30 40
    endloop
  endfacet
  facet normal 0 0 -1
    outer loop
      vertex 20 30 40
      vertex 10 40 40
      vertex 40 40 40
    endloop
  endfacet
  facet normal 0 0 -1
    outer loop
      vertex 10 40 40
      vertex 20 30 40
      vertex 10 10 40
    endloop
  endfacet
  facet normal 1 -0 0
    outer loop
      vertex 50 0 20
      vertex 50 50 10
      vertex 50 50 20
    endloop
  endfacet
  facet normal 1 0 0
    outer loop
      vertex 50 50 10
      vertex 50 0 20
      vertex 50 0 10
    endloop
  endfacet
  facet normal 0 0 1
    outer loop
      vertex 50 50 20
      vertex 30 30 20
      vertex 50 0 20
    endloop
  endfacet
  facet normal 0 0 1
    outer loop
      vertex 50 50 20
      vertex 20 30 20
      vertex 30 30 20
    endloop
  endfacet
  facet normal 0 0 1
    outer loop
      vertex 20 30 20
      vertex 0 50 20
      vertex 20 20 20
    endloop
  endfacet
  facet normal -0 0 1
    outer loop
      vertex 0 50 20
      vertex 20 30 20
      vertex 50 50 20
    endloop
  endfacet
  facet normal -0 0 1
    outer loop
      vertex 30 20 20
      vertex 50 0 20
      vertex 30 30 20
    endloop
  endfacet
  facet normal -0 0 1
    outer loop
      vertex 20 20 20
      vertex 50 0 20
      vertex 30 20 20
    endloop
  endfacet
  facet normal 0 0 1
    outer loop
      vertex 20 20 20
      vertex 0 0 20
      vertex 50 0 20
    endloop
  endfacet
  facet normal 0 0 1
    outer loop
      vertex 0 0 20
      vertex 20 20 20
      vertex 0 50 20
    endloop
  endfacet
  facet normal 0 0 -1
    outer loop
      vertex 50 0 10
      vertex 30 20 10
      vertex 50 50 10
    endloop
  endfacet
  facet normal 0 0 -1
    outer loop
      vertex 50 0 10
      vertex 20 20 10
      vertex 30 20 10
    endloop
  endfacet
  facet normal -0 0 -1
    outer loop
      vertex 20 20 10
      vertex 0 0 10
      vertex 20 30 10
    endloop
  endfacet
  facet normal 0 0 -1
    outer loop
      vertex 0 0 10
      vertex 20 20 10
      vertex 50 0 10
    endloop
  endfacet
  facet normal 0 0 -1
    outer loop
      vertex 30 30 10
      vertex 50 50 10
      vertex 30 20 10
    endloop
  endfacet
  facet normal 0 0 -1
    outer loop
      vertex 20 30 10
      vertex 50 50 10
      vertex 30 30 10
    endloop
  endfacet
  facet normal 0 0 -1
    outer loop
      vertex 20 30 10
      vertex 0 50 10
      vertex 50 50 10
    endloop
  endfacet
  facet normal 0 0 -1
    outer loop
      vertex 0 50 10
      vertex 20 30 10
      vertex 0 0 10
    endloop
  endfacet
  facet normal -1 0 0
    outer loop
      vertex 0 0 10
      vertex 0 50 20
      vertex 0 50 10
    endloop
  endfacet
  facet normal -1 -0 0
    outer loop
      vertex 0 50 20
      vertex 0 0 10
      vertex 0 0 20
    endloop
  endfacet
  facet normal 0 1 -0
    outer loop
      vertex 50 50 10
      vertex 0 50 20
      vertex 50 50 20
    endloop
  endfacet
  facet normal 0 1 0
    outer loop
      vertex 0 50 20
      vertex 50 50 10
      vertex 0 50 10
    endloop
  endfacet
  facet normal 0 -1 0
    outer loop
      vertex 0 0 10
      vertex 50 0 20
      vertex 0 0 20
    endloop
  endfacet
  facet normal 0 -1 -0
    outer loop
      vertex 50 0 20
      vertex 0 0 10
      vertex 50 0 10
    endloop
  endfacet
  facet normal 1 -0 0
    outer loop
      vertex 30 20 10
      vertex 30 30 0
      vertex 30 30 10
    endloop
  endfacet
  facet normal 1 0 0
    outer loop
      vertex 30 30 0
      vertex 30 20 10
      vertex 30 20 0
    endloop
  endfacet
  facet normal 1 -0 0
    outer loop
      vertex 30 20 40
      vertex 30 30 20
      vertex 30 30 40
    endloop
  endfacet
  facet normal 1 0 0
    outer loop
      vertex 30 30 20
      vertex 30 20 40
      vertex 30 20 20
    endloop
  endfacet
  facet normal 0 0 -1
    outer loop
      vertex 20 20 0
      vertex 30 30 0
      vertex 30 20 0
    endloop
  endfacet
  facet normal -0 0 -1
    outer loop
      vertex 30 30 0
      vertex 20 20 0
      vertex 20 30 0
    endloop
  endfacet
  facet normal -1 0 0
    outer loop
      vertex 20 20 0
      vertex 20 30 10
      vertex 20 30 0
    endloop
  endfacet
  facet normal -1 -0 0
    outer loop
      vertex 20 30 10
      vertex 20 20 0
      vertex 20 20 10
    endloop
  endfacet
  facet normal -1 0 0
    outer loop
      vertex 20 20 20
      vertex 20 30 40
      vertex 20 30 20
    endloop
  endfacet
  facet normal -1 -0 0
    outer loop
      vertex 20 30 40
      vertex 20 20 20
      vertex 20 20 40
    endloop
  endfacet
  facet normal 0 1 -0
    outer loop
      vertex 30 30 0
      vertex 20 30 10
      vertex 30 30 10
    endloop
  endfacet
  facet normal 0 1 0
    outer loop
      vertex 20 30 10
      vertex 30 30 0
      vertex 20 30 0
    endloop
  endfacet
  facet normal 0 1 -0
    outer loop
      vertex 30 30 20
      vertex 20 30 40
      vertex 30 30 40
    endloop
  endfacet
  facet normal 0 1 0
    outer loop
      vertex 20 30 40
      vertex 30 30 20
      vertex 20 30 20
    endloop
  endfacet
  facet normal 0 -1 0
    outer loop
      vertex 20 20 0
      vertex 30 20 10
      vertex 20 20 10
    endloop
  endfacet
  facet normal 0 -1 -0
    outer loop
      vertex 30 20 10
      vertex 20 20 0
      vertex 30 20 0
    endloop
  endfacet
  facet normal 0 -1 0
    outer loop
      vertex 20 20 20
      vertex 30 20 40
      vertex 20 20 40
    endloop
  endfacet
  facet normal 0 -1 -0
    outer loop
      vertex 30 20 40
      vertex 20 20 20
      vertex 30 20 20
    endloop
  endfacet
endsolid OpenSCAD_Model
