solid OpenSCAD_Model
  facet normal 1 -0 0
    outer loop
      vertex 32.5 7.5 30
      vertex 32.5 17.5 10
      vertex 32.5 17.5 30
    endloop
  endfacet
  facet normal 1 0 0
    outer loop
      vertex 32.5 17.5 10
      vertex 32.5 7.5 30
      vertex 32.5 7.5 10
    endloop
  endfacet
  facet normal 0 0 1
    outer loop
      vertex 17.5 32.5 30
      vertex 10 30 30
      vertex 17.5 30 30
    endloop
  endfacet
  facet normal 0 0 1
    outer loop
      vertex 10 30 30
      vertex 7.5 32.5 30
      vertex 10 10 30
    endloop
  endfacet
  facet normal -0 0 1
    outer loop
      vertex 7.5 32.5 30
      vertex 10 30 30
      vertex 17.5 32.5 30
    endloop
  endfacet
  facet normal 0 0 1
    outer loop
      vertex 30 10 30
      vertex 32.5 17.5 30
      vertex 30 17.5 30
    endloop
  endfacet
  facet normal 0 0 1
    outer loop
      vertex 32.5 17.5 30
      vertex 30 10 30
      vertex 32.5 7.5 30
    endloop
  endfacet
  facet normal -0 0 1
    outer loop
      vertex 10 10 30
      vertex 32.5 7.5 30
      vertex 30 10 30
    endloop
  endfacet
  facet normal 0 0 1
    outer loop
      vertex 10 10 30
      vertex 7.5 7.5 30
      vertex 32.5 7.5 30
    endloop
  endfacet
  facet normal 0 0 1
    outer loop
      vertex 7.5 7.5 30
      vertex 10 10 30
      vertex 7.5 32.5 30
    endloop
  endfacet
  facet normal 0 0 -1
    outer loop
      vertex 17.5 17.5 30
      vertex 30 30 30
      vertex 30 17.5 30
    endloop
  endfacet
  facet normal -0 0 -1
    outer loop
      vertex 30 30 30
      vertex 17.5 17.5 30
      vertex 17.5 30 30
    endloop
  endfacet
  facet normal 0 0 1
    outer loop
      vertex 40 40 10
      vertex 32.5 17.5 10
      vertex 40 0 10
    endloop
  endfacet
  facet normal 0 0 1
    outer loop
      vertex 40 40 10
      vertex 17.5 32.5 10
      vertex 32.5 17.5 10
    endloop
  endfacet
  facet normal -0 0 1
    outer loop
      vertex 0 40 10
      vertex 17.5 32.5 10
      vertex 40 40 10
    endloop
  endfacet
  facet normal 0 0 1
    outer loop
      vertex 7.5 32.5 10
      vertex 0 40 10
      vertex 7.5 7.5 10
    endloop
  endfacet
  facet normal 0 0 1
    outer loop
      vertex 17.5 32.5 10
      vertex 0 40 10
      vertex 7.5 32.5 10
    endloop
  endfacet
  facet normal -0 0 1
    outer loop
      vertex 32.5 7.5 10
      vertex 40 0 10
      vertex 32.5 17.5 10
    endloop
  endfacet
  facet normal -0 0 1
    outer loop
      vertex 7.5 7.5 10
      vertex 40 0 10
      vertex 32.5 7.5 10
    endloop
  endfacet
  facet normal 0 0 1
    outer loop
      vertex 7.5 7.5 10
      vertex 0 0 10
      vertex 40 0 10
    endloop
  endfacet
  facet normal 0 0 1
    outer loop
      vertex 0 0 10
      vertex 7.5 7.5 10
      vertex 0 40 10
    endloop
  endfacet
  facet normal 0 0 1
    outer loop
      vertex 32.5 17.5 10
      vertex 17.5 32.5 10
      vertex 17.5 17.5 10
    endloop
  endfacet
  facet normal -1 0 0
    outer loop
      vertex 7.5 7.5 10
      vertex 7.5 32.5 30
      vertex 7.5 32.5 10
    endloop
  endfacet
  facet normal -1 -0 0
    outer loop
      vertex 7.5 32.5 30
      vertex 7.5 7.5 10
      vertex 7.5 7.5 30
    endloop
  endfacet
  facet normal 0 1 -0
    outer loop
      vertex 17.5 32.5 10
      vertex 7.5 32.5 30
      vertex 17.5 32.5 30
    endloop
  endfacet
  facet normal 0 1 0
    outer loop
      vertex 7.5 32.5 30
      vertex 17.5 32.5 10
      vertex 7.5 32.5 10
    endloop
  endfacet
  facet normal 0 -1 0
    outer loop
      vertex 7.5 7.5 10
      vertex 32.5 7.5 30
      vertex 7.5 7.5 30
    endloop
  endfacet
  facet normal 0 -1 -0
    outer loop
      vertex 32.5 7.5 30
      vertex 7.5 7.5 10
      vertex 32.5 7.5 10
    endloop
  endfacet
  facet normal 1 -0 0
    outer loop
      vertex 17.5 30 30
      vertex 17.5 32.5 10
      vertex 17.5 32.5 30
    endloop
  endfacet
  facet normal 1 0 0
    outer loop
      vertex 17.5 17.5 10
      vertex 17.5 30 30
      vertex 17.5 17.5 30
    endloop
  endfacet
  facet normal 1 0 0
    outer loop
      vertex 17.5 30 30
      vertex 17.5 17.5 10
      vertex 17.5 32.5 10
    endloop
  endfacet
  facet normal 0 1 -0
    outer loop
      vertex 32.5 17.5 10
      vertex 30 17.5 30
      vertex 32.5 17.5 30
    endloop
  endfacet
  facet normal 0 1 0
    outer loop
      vertex 17.5 17.5 10
      vertex 30 17.5 30
      vertex 32.5 17.5 10
    endloop
  endfacet
  facet normal 0 1 0
    outer loop
      vertex 30 17.5 30
      vertex 17.5 17.5 10
      vertex 17.5 17.5 30
    endloop
  endfacet
  facet normal 1 -0 0
    outer loop
      vertex 40 0 10
      vertex 40 40 0
      vertex 40 40 10
    endloop
  endfacet
  facet normal 1 0 0
    outer loop
      vertex 40 40 0
      vertex 40 0 10
      vertex 40 0 0
    endloop
  endfacet
  facet normal 0 0 -1
    outer loop
      vertex 0 0 0
      vertex 40 40 0
      vertex 40 0 0
    endloop
  endfacet
  facet normal -0 0 -1
    outer loop
      vertex 40 40 0
      vertex 0 0 0
      vertex 0 40 0
    endloop
  endfacet
  facet normal -1 0 0
    outer loop
      vertex 0 0 0
      vertex 0 40 10
      vertex 0 40 0
    endloop
  endfacet
  facet normal -1 -0 0
    outer loop
      vertex 0 40 10
      vertex 0 0 0
      vertex 0 0 10
    endloop
  endfacet
  facet normal 0 1 -0
    outer loop
      vertex 40 40 0
      vertex 0 40 10
      vertex 40 40 10
    endloop
  endfacet
  facet normal 0 1 0
    outer loop
      vertex 0 40 10
      vertex 40 40 0
      vertex 0 40 0
    endloop
  endfacet
  facet normal 0 -1 0
    outer loop
      vertex 0 0 0
      vertex 40 0 10
      vertex 0 0 10
    endloop
  endfacet
  facet normal 0 -1 -0
    outer loop
      vertex 40 0 10
      vertex 0 0 0
      vertex 40 0 0
    endloop
  endfacet
  facet normal 1 0 0
    outer loop
      vertex 30 30 45
      vertex 30 17.5 30
      vertex 30 30 30
    endloop
  endfacet
  facet normal 1 -0 0
    outer loop
      vertex 30 10 45
      vertex 30 17.5 30
      vertex 30 30 45
    endloop
  endfacet
  facet normal 1 0 0
    outer loop
      vertex 30 17.5 30
      vertex 30 10 45
      vertex 30 10 30
    endloop
  endfacet
  facet normal -0 0 1
    outer loop
      vertex 10 30 45
      vertex 30 10 45
      vertex 30 30 45
    endloop
  endfacet
  facet normal 0 0 1
    outer loop
      vertex 30 10 45
      vertex 10 30 45
      vertex 10 10 45
    endloop
  endfacet
  facet normal -1 0 0
    outer loop
      vertex 10 10 30
      vertex 10 30 45
      vertex 10 30 30
    endloop
  endfacet
  facet normal -1 -0 0
    outer loop
      vertex 10 30 45
      vertex 10 10 30
      vertex 10 10 45
    endloop
  endfacet
  facet normal 0 1 0
    outer loop
      vertex 17.5 30 30
      vertex 30 30 45
      vertex 30 30 30
    endloop
  endfacet
  facet normal 0 1 0
    outer loop
      vertex 30 30 45
      vertex 17.5 30 30
      vertex 10 30 45
    endloop
  endfacet
  facet normal 0 1 0
    outer loop
      vertex 10 30 45
      vertex 17.5 30 30
      vertex 10 30 30
    endloop
  endfacet
  facet normal 0 -1 0
    outer loop
      vertex 10 10 30
      vertex 30 10 45
      vertex 10 10 45
    endloop
  endfacet
  facet normal 0 -1 -0
    outer loop
      vertex 30 10 45
      vertex 10 10 30
      vertex 30 10 30
    endloop
  endfacet
endsolid OpenSCAD_Model
