solid OpenSCAD_Model
  facet normal 1 0 0
    outer loop
      vertex -47.5 15 10
      vertex -47.5 -3.35786 5
      vertex -47.5 15 -10
    endloop
  endfacet
  facet normal 1 -0 0
    outer loop
      vertex -47.5 -15 10
      vertex -47.5 -3.35786 5
      vertex -47.5 15 10
    endloop
  endfacet
  facet normal 1 0 0
    outer loop
      vertex -47.5 -10.7843 5
      vertex -47.5 -15 10
      vertex -47.5 -10.7843 -5
    endloop
  endfacet
  facet normal 1 0 0
    outer loop
      vertex -47.5 -3.35786 5
      vertex -47.5 -15 10
      vertex -47.5 -10.7843 5
    endloop
  endfacet
  facet normal 1 -0 0
    outer loop
      vertex -47.5 -3.35786 -5
      vertex -47.5 15 -10
      vertex -47.5 -3.35786 5
    endloop
  endfacet
  facet normal 1 0 0
    outer loop
      vertex -47.5 -15 -10
      vertex -47.5 -3.35786 -5
      vertex -47.5 -10.7843 -5
    endloop
  endfacet
  facet normal 1 0 0
    outer loop
      vertex -47.5 -3.35786 -5
      vertex -47.5 -15 -10
      vertex -47.5 15 -10
    endloop
  endfacet
  facet normal 1 0 0
    outer loop
      vertex -47.5 -15 -10
      vertex -47.5 -10.7843 -5
      vertex -47.5 -15 10
    endloop
  endfacet
  facet normal -0 0 1
    outer loop
      vertex -72.5 15 10
      vertex -47.5 -15 10
      vertex -47.5 15 10
    endloop
  endfacet
  facet normal 0 0 1
    outer loop
      vertex -47.5 -15 10
      vertex -72.5 15 10
      vertex -72.5 -15 10
    endloop
  endfacet
  facet normal 0 0 -1
    outer loop
      vertex -72.5 -15 -10
      vertex -47.5 15 -10
      vertex -47.5 -15 -10
    endloop
  endfacet
  facet normal -0 0 -1
    outer loop
      vertex -47.5 15 -10
      vertex -72.5 -15 -10
      vertex -72.5 15 -10
    endloop
  endfacet
  facet normal -1 0 0
    outer loop
      vertex -72.5 -15 -10
      vertex -72.5 15 10
      vertex -72.5 15 -10
    endloop
  endfacet
  facet normal -1 -0 0
    outer loop
      vertex -72.5 15 10
      vertex -72.5 -15 -10
      vertex -72.5 -15 10
    endloop
  endfacet
  facet normal 0 1 -0
    outer loop
      vertex -47.5 15 -10
      vertex -72.5 15 10
      vertex -47.5 15 10
    endloop
  endfacet
  facet normal 0 1 0
    outer loop
      vertex -72.5 15 10
      vertex -47.5 15 -10
      vertex -72.5 15 -10
    endloop
  endfacet
  facet normal 0 -1 0
    outer loop
      vertex -72.5 -15 -10
      vertex -47.5 -15 10
      vertex -72.5 -15 10
    endloop
  endfacet
  facet normal 0 -1 -0
    outer loop
      vertex -47.5 -15 10
      vertex -72.5 -15 -10
      vertex -47.5 -15 -10
    endloop
  endfacet
  facet normal 0 0 1
    outer loop
      vertex -22.9289 21.2132 5
      vertex -20 -4.14214 5
      vertex -11.7157 10 5
    endloop
  endfacet
  facet normal -0 0 1
    outer loop
      vertex -47.5 -3.35786 5
      vertex -20 -4.14214 5
      vertex -22.9289 21.2132 5
    endloop
  endfacet
  facet normal 0 0 1
    outer loop
      vertex -47.5 -10.7843 5
      vertex -20 -4.14214 5
      vertex -47.5 -3.35786 5
    endloop
  endfacet
  facet normal 0 0 1
    outer loop
      vertex -20 -4.14214 5
      vertex -47.5 -10.7843 5
      vertex -37.0711 -21.2132 5
    endloop
  endfacet
  facet normal 0 0 1
    outer loop
      vertex 40 15 5
      vertex 20 -5 5
      vertex 40 -5 5
    endloop
  endfacet
  facet normal 0 0 1
    outer loop
      vertex 10 10 5
      vertex 40 15 5
      vertex 10 15 5
    endloop
  endfacet
  facet normal 0 0 1
    outer loop
      vertex 40 15 5
      vertex 10 10 5
      vertex 20 -5 5
    endloop
  endfacet
  facet normal 0 0 1
    outer loop
      vertex 20 -5 5
      vertex 10 10 5
      vertex 20 -10 5
    endloop
  endfacet
  facet normal 0 0 1
    outer loop
      vertex -20 -4.14214 5
      vertex 10 10 5
      vertex -11.7157 10 5
    endloop
  endfacet
  facet normal 0 0 1
    outer loop
      vertex -20 -10 5
      vertex 10 10 5
      vertex -20 -4.14214 5
    endloop
  endfacet
  facet normal 0 0 1
    outer loop
      vertex 10 10 5
      vertex -20 -10 5
      vertex 20 -10 5
    endloop
  endfacet
  facet normal -0.707107 -0.707107 0
    outer loop
      vertex -37.0711 -21.2132 -5
      vertex -47.5 -10.7843 5
      vertex -47.5 -10.7843 -5
    endloop
  endfacet
  facet normal -0.707107 -0.707107 0
    outer loop
      vertex -47.5 -10.7843 5
      vertex -37.0711 -21.2132 -5
      vertex -37.0711 -21.2132 5
    endloop
  endfacet
  facet normal -0.707106 0.707107 0
    outer loop
      vertex -47.5 -3.35786 -5
      vertex -22.9289 21.2132 5
      vertex -22.9289 21.2132 -5
    endloop
  endfacet
  facet normal -0.707106 0.707107 0
    outer loop
      vertex -22.9289 21.2132 5
      vertex -47.5 -3.35786 -5
      vertex -47.5 -3.35786 5
    endloop
  endfacet
  facet normal 0 0 -1
    outer loop
      vertex 20 -10 -5
      vertex 10 10 -5
      vertex 20 -5 -5
    endloop
  endfacet
  facet normal 0 0 -1
    outer loop
      vertex -20 -10 -5
      vertex 10 10 -5
      vertex 20 -10 -5
    endloop
  endfacet
  facet normal 0 0 -1
    outer loop
      vertex 10 10 -5
      vertex -20 -10 -5
      vertex -20 -4.14214 -5
    endloop
  endfacet
  facet normal -0 0 -1
    outer loop
      vertex 10 10 -5
      vertex -20 -4.14214 -5
      vertex -11.7157 10 -5
    endloop
  endfacet
  facet normal 0 0 -1
    outer loop
      vertex -20 -4.14214 -5
      vertex -22.9289 21.2132 -5
      vertex -11.7157 10 -5
    endloop
  endfacet
  facet normal 0 0 -1
    outer loop
      vertex -47.5 -10.7843 -5
      vertex -20 -4.14214 -5
      vertex -37.0711 -21.2132 -5
    endloop
  endfacet
  facet normal -0 0 -1
    outer loop
      vertex -20 -4.14214 -5
      vertex -47.5 -10.7843 -5
      vertex -47.5 -3.35786 -5
    endloop
  endfacet
  facet normal 0 0 -1
    outer loop
      vertex -20 -4.14214 -5
      vertex -47.5 -3.35786 -5
      vertex -22.9289 21.2132 -5
    endloop
  endfacet
  facet normal 0 0 -1
    outer loop
      vertex 20 -5 -5
      vertex 40 15 -5
      vertex 40 -5 -5
    endloop
  endfacet
  facet normal 0 0 -1
    outer loop
      vertex 10 10 -5
      vertex 40 15 -5
      vertex 20 -5 -5
    endloop
  endfacet
  facet normal -0 0 -1
    outer loop
      vertex 40 15 -5
      vertex 10 10 -5
      vertex 10 15 -5
    endloop
  endfacet
  facet normal 0.707106 -0.707108 0
    outer loop
      vertex -37.0711 -21.2132 5
      vertex -20 -4.14214 -5
      vertex -20 -4.14214 5
    endloop
  endfacet
  facet normal 0.707106 -0.707108 0
    outer loop
      vertex -20 -4.14214 -5
      vertex -37.0711 -21.2132 5
      vertex -37.0711 -21.2132 -5
    endloop
  endfacet
  facet normal 0.707107 0.707107 -0
    outer loop
      vertex -11.7157 10 -5
      vertex -22.9289 21.2132 5
      vertex -11.7157 10 5
    endloop
  endfacet
  facet normal 0.707107 0.707107 0
    outer loop
      vertex -22.9289 21.2132 5
      vertex -11.7157 10 -5
      vertex -22.9289 21.2132 -5
    endloop
  endfacet
  facet normal 1 -0 0
    outer loop
      vertex 20 -10 5
      vertex 20 -5 -5
      vertex 20 -5 5
    endloop
  endfacet
  facet normal 1 0 0
    outer loop
      vertex 20 -5 -5
      vertex 20 -10 5
      vertex 20 -10 -5
    endloop
  endfacet
  facet normal -1 0 0
    outer loop
      vertex -20 -10 -5
      vertex -20 -4.14214 5
      vertex -20 -4.14214 -5
    endloop
  endfacet
  facet normal -1 -0 0
    outer loop
      vertex -20 -4.14214 5
      vertex -20 -10 -5
      vertex -20 -10 5
    endloop
  endfacet
  facet normal 0 1 -0
    outer loop
      vertex 10 10 -5
      vertex -11.7157 10 5
      vertex 10 10 5
    endloop
  endfacet
  facet normal 0 1 0
    outer loop
      vertex -11.7157 10 5
      vertex 10 10 -5
      vertex -11.7157 10 -5
    endloop
  endfacet
  facet normal 0 -1 0
    outer loop
      vertex -20 -10 -5
      vertex 20 -10 5
      vertex -20 -10 5
    endloop
  endfacet
  facet normal 0 -1 -0
    outer loop
      vertex 20 -10 5
      vertex -20 -10 -5
      vertex 20 -10 -5
    endloop
  endfacet
  facet normal -1 0 0
    outer loop
      vertex 10 10 -5
      vertex 10 15 5
      vertex 10 15 -5
    endloop
  endfacet
  facet normal -1 -0 0
    outer loop
      vertex 10 15 5
      vertex 10 10 -5
      vertex 10 10 5
    endloop
  endfacet
  facet normal 0 1 0
    outer loop
      vertex 80 15 10
      vertex 40 15 5
      vertex 40 15 10
    endloop
  endfacet
  facet normal 0 1 0
    outer loop
      vertex 40 15 5
      vertex 40 15 -5
      vertex 10 15 5
    endloop
  endfacet
  facet normal 0 1 0
    outer loop
      vertex 80 15 10
      vertex 40 15 -5
      vertex 40 15 5
    endloop
  endfacet
  facet normal 0 1 -0
    outer loop
      vertex 80 15 -10
      vertex 40 15 -5
      vertex 80 15 10
    endloop
  endfacet
  facet normal 0 1 0
    outer loop
      vertex 40 15 -5
      vertex 80 15 -10
      vertex 40 15 -10
    endloop
  endfacet
  facet normal 0 1 0
    outer loop
      vertex 10 15 5
      vertex 40 15 -5
      vertex 10 15 -5
    endloop
  endfacet
  facet normal 0 -1 0
    outer loop
      vertex 20 -5 -5
      vertex 40 -5 5
      vertex 20 -5 5
    endloop
  endfacet
  facet normal 0 -1 -0
    outer loop
      vertex 40 -5 5
      vertex 20 -5 -5
      vertex 40 -5 -5
    endloop
  endfacet
  facet normal 1 0 0
    outer loop
      vertex 80 -10 10
      vertex 80 -15 10
      vertex 80 -10 0
    endloop
  endfacet
  facet normal 1 0 0
    outer loop
      vertex 80 10 0
      vertex 80 15 10
      vertex 80 10 10
    endloop
  endfacet
  facet normal 1 0 0
    outer loop
      vertex 80 15 10
      vertex 80 10 0
      vertex 80 15 -10
    endloop
  endfacet
  facet normal 1 -0 0
    outer loop
      vertex 80 -10 0
      vertex 80 15 -10
      vertex 80 10 0
    endloop
  endfacet
  facet normal 1 0 0
    outer loop
      vertex 80 -10 0
      vertex 80 -15 -10
      vertex 80 15 -10
    endloop
  endfacet
  facet normal 1 0 0
    outer loop
      vertex 80 -15 -10
      vertex 80 -10 0
      vertex 80 -15 10
    endloop
  endfacet
  facet normal -0 0 1
    outer loop
      vertex 40 15 10
      vertex 80 10 10
      vertex 80 15 10
    endloop
  endfacet
  facet normal 0 0 1
    outer loop
      vertex 80 10 10
      vertex 40 15 10
      vertex 80 -10 10
    endloop
  endfacet
  facet normal 0 0 1
    outer loop
      vertex 40 -15 10
      vertex 80 -10 10
      vertex 40 15 10
    endloop
  endfacet
  facet normal 0 0 1
    outer loop
      vertex 80 -10 10
      vertex 40 -15 10
      vertex 80 -15 10
    endloop
  endfacet
  facet normal -0 0 1
    outer loop
      vertex 80 10 10
      vertex 110 -10 10
      vertex 110 10 10
    endloop
  endfacet
  facet normal 0 0 1
    outer loop
      vertex 110 -10 10
      vertex 80 10 10
      vertex 80 -10 10
    endloop
  endfacet
  facet normal 0 0 -1
    outer loop
      vertex 40 -15 -10
      vertex 80 15 -10
      vertex 80 -15 -10
    endloop
  endfacet
  facet normal -0 0 -1
    outer loop
      vertex 80 15 -10
      vertex 40 -15 -10
      vertex 40 15 -10
    endloop
  endfacet
  facet normal -1 0 0
    outer loop
      vertex 40 15 -10
      vertex 40 -5 -5
      vertex 40 15 -5
    endloop
  endfacet
  facet normal -1 -0 0
    outer loop
      vertex 40 -5 -5
      vertex 40 -15 -10
      vertex 40 -5 5
    endloop
  endfacet
  facet normal -1 0 0
    outer loop
      vertex 40 -15 -10
      vertex 40 -5 -5
      vertex 40 15 -10
    endloop
  endfacet
  facet normal -1 0 0
    outer loop
      vertex 40 -5 5
      vertex 40 15 10
      vertex 40 15 5
    endloop
  endfacet
  facet normal -1 0 0
    outer loop
      vertex 40 -5 5
      vertex 40 -15 10
      vertex 40 15 10
    endloop
  endfacet
  facet normal -1 0 0
    outer loop
      vertex 40 -15 10
      vertex 40 -5 5
      vertex 40 -15 -10
    endloop
  endfacet
  facet normal 0 -1 0
    outer loop
      vertex 40 -15 -10
      vertex 80 -15 10
      vertex 40 -15 10
    endloop
  endfacet
  facet normal 0 -1 -0
    outer loop
      vertex 80 -15 10
      vertex 40 -15 -10
      vertex 80 -15 -10
    endloop
  endfacet
  facet normal 1 -0 0
    outer loop
      vertex 110 -10 10
      vertex 110 10 0
      vertex 110 10 10
    endloop
  endfacet
  facet normal 1 0 0
    outer loop
      vertex 110 10 0
      vertex 110 -10 10
      vertex 110 -10 0
    endloop
  endfacet
  facet normal 0 0 -1
    outer loop
      vertex 80 -10 0
      vertex 110 10 0
      vertex 110 -10 0
    endloop
  endfacet
  facet normal -0 0 -1
    outer loop
      vertex 110 10 0
      vertex 80 -10 0
      vertex 80 10 0
    endloop
  endfacet
  facet normal 0 1 -0
    outer loop
      vertex 110 10 0
      vertex 80 10 10
      vertex 110 10 10
    endloop
  endfacet
  facet normal 0 1 0
    outer loop
      vertex 80 10 10
      vertex 110 10 0
      vertex 80 10 0
    endloop
  endfacet
  facet normal 0 -1 0
    outer loop
      vertex 80 -10 0
      vertex 110 -10 10
      vertex 80 -10 10
    endloop
  endfacet
  facet normal 0 -1 -0
    outer loop
      vertex 110 -10 10
      vertex 80 -10 0
      vertex 110 -10 0
    endloop
  endfacet
endsolid OpenSCAD_Model
