solid OpenSCAD_Model
  facet normal -1 0 0
    outer loop
      vertex 20 2.5 5
      vertex 20 10 10
      vertex 20 10 5
    endloop
  endfacet
  facet normal -1 0 0
    outer loop
      vertex 20 1.76777 6.76777
      vertex 20 10 10
      vertex 20 2.5 5
    endloop
  endfacet
  facet normal -1 0 0
    outer loop
      vertex 20 0 7.5
      vertex 20 10 10
      vertex 20 1.76777 6.76777
    endloop
  endfacet
  facet normal -1 0 0
    outer loop
      vertex 20 -10 10
      vertex 20 -2.5 5
      vertex 20 -10 5
    endloop
  endfacet
  facet normal -1 0 0
    outer loop
      vertex 20 -2.5 5
      vertex 20 -10 10
      vertex 20 -1.76777 6.76777
    endloop
  endfacet
  facet normal -1 0 0
    outer loop
      vertex 20 -1.76777 6.76777
      vertex 20 -10 10
      vertex 20 0 7.5
    endloop
  endfacet
  facet normal -1 0 0
    outer loop
      vertex 20 0 7.5
      vertex 20 -10 10
      vertex 20 10 10
    endloop
  endfacet
  facet normal 1 -0 0
    outer loop
      vertex 20 2.5 0
      vertex 20 10 -5
      vertex 20 10 0
    endloop
  endfacet
  facet normal 1 -0 0
    outer loop
      vertex 20 1.76777 -1.76777
      vertex 20 10 -5
      vertex 20 2.5 0
    endloop
  endfacet
  facet normal 1 -0 0
    outer loop
      vertex 20 0 -2.5
      vertex 20 10 -5
      vertex 20 1.76777 -1.76777
    endloop
  endfacet
  facet normal 1 0 0
    outer loop
      vertex 20 -10 -5
      vertex 20 -2.5 0
      vertex 20 -10 0
    endloop
  endfacet
  facet normal 1 0 0
    outer loop
      vertex 20 -2.5 0
      vertex 20 -10 -5
      vertex 20 -1.76777 -1.76777
    endloop
  endfacet
  facet normal 1 0 0
    outer loop
      vertex 20 -1.76777 -1.76777
      vertex 20 -10 -5
      vertex 20 0 -2.5
    endloop
  endfacet
  facet normal 1 0 0
    outer loop
      vertex 20 0 -2.5
      vertex 20 -10 -5
      vertex 20 10 -5
    endloop
  endfacet
  facet normal -1 0 0
    outer loop
      vertex 20 2.5 0
      vertex 20 0 2.5
      vertex 20 1.76777 1.76777
    endloop
  endfacet
  facet normal -1 0 0
    outer loop
      vertex 20 2.5 0
      vertex 20 -1.76777 1.76777
      vertex 20 0 2.5
    endloop
  endfacet
  facet normal -1 0 -0
    outer loop
      vertex 20 -1.76777 1.76777
      vertex 20 2.5 0
      vertex 20 -2.5 0
    endloop
  endfacet
  facet normal 1 0 0
    outer loop
      vertex 20 2.5 5
      vertex 20 0 2.5
      vertex 20 1.76777 3.23223
    endloop
  endfacet
  facet normal 1 0 0
    outer loop
      vertex 20 2.5 5
      vertex 20 -1.76777 3.23223
      vertex 20 0 2.5
    endloop
  endfacet
  facet normal 1 0 -0
    outer loop
      vertex 20 -1.76777 3.23223
      vertex 20 2.5 5
      vertex 20 -2.5 5
    endloop
  endfacet
  facet normal 0 0 1
    outer loop
      vertex -20 2.5 5
      vertex 20 2.5 5
      vertex 20 10 5
    endloop
  endfacet
  facet normal 0 0 1
    outer loop
      vertex 20 2.5 5
      vertex -20 2.5 5
      vertex 20 -2.5 5
    endloop
  endfacet
  facet normal 0 0 1
    outer loop
      vertex -20 2.5 5
      vertex 20 10 5
      vertex -20 10 5
    endloop
  endfacet
  facet normal 0 0 1
    outer loop
      vertex -20 -2.5 5
      vertex 20 -2.5 5
      vertex -20 2.5 5
    endloop
  endfacet
  facet normal 0 0 1
    outer loop
      vertex 20 -2.5 5
      vertex -20 -2.5 5
      vertex 20 -10 5
    endloop
  endfacet
  facet normal 0 0 1
    outer loop
      vertex 20 -10 5
      vertex -20 -2.5 5
      vertex -20 -10 5
    endloop
  endfacet
  facet normal 0 0 -1
    outer loop
      vertex -20 -10 -5
      vertex 20 10 -5
      vertex 20 -10 -5
    endloop
  endfacet
  facet normal -0 0 -1
    outer loop
      vertex 20 10 -5
      vertex -20 -10 -5
      vertex -20 10 -5
    endloop
  endfacet
  facet normal -1 0 0
    outer loop
      vertex -20 10 -5
      vertex -20 2.5 0
      vertex -20 10 0
    endloop
  endfacet
  facet normal -1 0 0
    outer loop
      vertex -20 10 -5
      vertex -20 1.76777 -1.76777
      vertex -20 2.5 0
    endloop
  endfacet
  facet normal -1 0 0
    outer loop
      vertex -20 10 -5
      vertex -20 0 -2.5
      vertex -20 1.76777 -1.76777
    endloop
  endfacet
  facet normal -1 0 0
    outer loop
      vertex -20 -10 -5
      vertex -20 0 -2.5
      vertex -20 10 -5
    endloop
  endfacet
  facet normal -1 0 0
    outer loop
      vertex -20 -10 -5
      vertex -20 -1.76777 -1.76777
      vertex -20 0 -2.5
    endloop
  endfacet
  facet normal -1 0 0
    outer loop
      vertex -20 -10 -5
      vertex -20 -2.5 0
      vertex -20 -1.76777 -1.76777
    endloop
  endfacet
  facet normal -1 -0 0
    outer loop
      vertex -20 -2.5 0
      vertex -20 -10 -5
      vertex -20 -10 0
    endloop
  endfacet
  facet normal 1 0 0
    outer loop
      vertex -20 10 10
      vertex -20 2.5 5
      vertex -20 10 5
    endloop
  endfacet
  facet normal 1 0 0
    outer loop
      vertex -20 10 10
      vertex -20 1.76777 6.76777
      vertex -20 2.5 5
    endloop
  endfacet
  facet normal 1 0 0
    outer loop
      vertex -20 10 10
      vertex -20 0 7.5
      vertex -20 1.76777 6.76777
    endloop
  endfacet
  facet normal 1 -0 0
    outer loop
      vertex -20 -10 10
      vertex -20 0 7.5
      vertex -20 10 10
    endloop
  endfacet
  facet normal 1 0 0
    outer loop
      vertex -20 -10 10
      vertex -20 -1.76777 6.76777
      vertex -20 0 7.5
    endloop
  endfacet
  facet normal 1 0 0
    outer loop
      vertex -20 -10 10
      vertex -20 -2.5 5
      vertex -20 -1.76777 6.76777
    endloop
  endfacet
  facet normal 1 0 0
    outer loop
      vertex -20 -2.5 5
      vertex -20 -10 10
      vertex -20 -10 5
    endloop
  endfacet
  facet normal -1 0 0
    outer loop
      vertex -20 0 2.5
      vertex -20 2.5 5
      vertex -20 1.76777 3.23223
    endloop
  endfacet
  facet normal -1 0 0
    outer loop
      vertex -20 -1.76777 3.23223
      vertex -20 2.5 5
      vertex -20 0 2.5
    endloop
  endfacet
  facet normal -1 -0 0
    outer loop
      vertex -20 2.5 5
      vertex -20 -1.76777 3.23223
      vertex -20 -2.5 5
    endloop
  endfacet
  facet normal 1 0 0
    outer loop
      vertex -20 0 2.5
      vertex -20 2.5 0
      vertex -20 1.76777 1.76777
    endloop
  endfacet
  facet normal 1 -0 0
    outer loop
      vertex -20 -1.76777 1.76777
      vertex -20 2.5 0
      vertex -20 0 2.5
    endloop
  endfacet
  facet normal 1 0 0
    outer loop
      vertex -20 2.5 0
      vertex -20 -1.76777 1.76777
      vertex -20 -2.5 0
    endloop
  endfacet
  facet normal 0 1 0
    outer loop
      vertex 40 10 10
      vertex 20 10 5
      vertex 20 10 10
    endloop
  endfacet
  facet normal 0 1 0
    outer loop
      vertex 20 10 0
      vertex 20 10 5
      vertex 40 10 0
    endloop
  endfacet
  facet normal 0 1 -0
    outer loop
      vertex 40 10 0
      vertex 20 10 5
      vertex 40 10 10
    endloop
  endfacet
  facet normal 0 1 -0
    outer loop
      vertex -20 10 5
      vertex -40 10 10
      vertex -20 10 10
    endloop
  endfacet
  facet normal 0 1 0
    outer loop
      vertex 20 10 5
      vertex 20 10 0
      vertex -20 10 5
    endloop
  endfacet
  facet normal 0 1 0
    outer loop
      vertex -20 10 0
      vertex -20 10 5
      vertex 20 10 0
    endloop
  endfacet
  facet normal 0 1 0
    outer loop
      vertex -40 10 0
      vertex -20 10 5
      vertex -20 10 0
    endloop
  endfacet
  facet normal 0 1 0
    outer loop
      vertex -20 10 5
      vertex -40 10 0
      vertex -40 10 10
    endloop
  endfacet
  facet normal 0 1 -0
    outer loop
      vertex 20 10 -5
      vertex -20 10 0
      vertex 20 10 0
    endloop
  endfacet
  facet normal 0 1 0
    outer loop
      vertex -20 10 0
      vertex 20 10 -5
      vertex -20 10 -5
    endloop
  endfacet
  facet normal 0 -1 0
    outer loop
      vertex -40 -10 10
      vertex -20 -10 5
      vertex -20 -10 10
    endloop
  endfacet
  facet normal 0 -1 0
    outer loop
      vertex -20 -10 0
      vertex -20 -10 5
      vertex -40 -10 0
    endloop
  endfacet
  facet normal 0 -1 0
    outer loop
      vertex -40 -10 0
      vertex -20 -10 5
      vertex -40 -10 10
    endloop
  endfacet
  facet normal 0 -1 0
    outer loop
      vertex 20 -10 5
      vertex 40 -10 10
      vertex 20 -10 10
    endloop
  endfacet
  facet normal 0 -1 0
    outer loop
      vertex -20 -10 5
      vertex -20 -10 0
      vertex 20 -10 5
    endloop
  endfacet
  facet normal 0 -1 0
    outer loop
      vertex 20 -10 0
      vertex 20 -10 5
      vertex -20 -10 0
    endloop
  endfacet
  facet normal 0 -1 0
    outer loop
      vertex 40 -10 0
      vertex 20 -10 5
      vertex 20 -10 0
    endloop
  endfacet
  facet normal 0 -1 0
    outer loop
      vertex 20 -10 5
      vertex 40 -10 0
      vertex 40 -10 10
    endloop
  endfacet
  facet normal 0 -1 0
    outer loop
      vertex -20 -10 -5
      vertex 20 -10 0
      vertex -20 -10 0
    endloop
  endfacet
  facet normal 0 -1 -0
    outer loop
      vertex 20 -10 0
      vertex -20 -10 -5
      vertex 20 -10 -5
    endloop
  endfacet
  facet normal 0 0.382682 -0.92388
    outer loop
      vertex -20 0 2.5
      vertex -12.421 -1.76777 1.76777
      vertex -20 -1.76777 1.76777
    endloop
  endfacet
  facet normal 0 0.382682 -0.92388
    outer loop
      vertex -12.421 -1.76777 1.76777
      vertex -20 0 2.5
      vertex -11.4131 0 2.5
    endloop
  endfacet
  facet normal 0 0.382682 -0.92388
    outer loop
      vertex 12.421 -1.76777 1.76777
      vertex 20 0 2.5
      vertex 20 -1.76777 1.76777
    endloop
  endfacet
  facet normal 0 0.382682 -0.92388
    outer loop
      vertex 20 0 2.5
      vertex 12.421 -1.76777 1.76777
      vertex 11.4131 0 2.5
    endloop
  endfacet
  facet normal 0 0.382682 -0.92388
    outer loop
      vertex -7.57902 -1.76777 1.76777
      vertex 8.58685 0 2.5
      vertex 7.57902 -1.76777 1.76777
    endloop
  endfacet
  facet normal 0 0.382682 -0.92388
    outer loop
      vertex 8.58685 0 2.5
      vertex -7.57902 -1.76777 1.76777
      vertex -8.58685 0 2.5
    endloop
  endfacet
  facet normal -0 0.382682 0.92388
    outer loop
      vertex -20 0 -2.5
      vertex -12.421 -1.76777 -1.76777
      vertex -11.4131 0 -2.5
    endloop
  endfacet
  facet normal 0 0.382682 0.92388
    outer loop
      vertex -12.421 -1.76777 -1.76777
      vertex -20 0 -2.5
      vertex -20 -1.76777 -1.76777
    endloop
  endfacet
  facet normal 0 0.382682 0.92388
    outer loop
      vertex 20 0 -2.5
      vertex 12.421 -1.76777 -1.76777
      vertex 20 -1.76777 -1.76777
    endloop
  endfacet
  facet normal 0 0.382682 0.92388
    outer loop
      vertex 12.421 -1.76777 -1.76777
      vertex 20 0 -2.5
      vertex 11.4131 0 -2.5
    endloop
  endfacet
  facet normal 0 0.382682 0.92388
    outer loop
      vertex 8.58685 0 -2.5
      vertex -7.57902 -1.76777 -1.76777
      vertex 7.57902 -1.76777 -1.76777
    endloop
  endfacet
  facet normal 0 0.382682 0.92388
    outer loop
      vertex -7.57902 -1.76777 -1.76777
      vertex 8.58685 0 -2.5
      vertex -8.58685 0 -2.5
    endloop
  endfacet
  facet normal 0 -0.382682 0.92388
    outer loop
      vertex 20 1.76777 -1.76777
      vertex 11.4131 0 -2.5
      vertex 20 0 -2.5
    endloop
  endfacet
  facet normal 0 -0.382682 0.92388
    outer loop
      vertex 20 1.76777 -1.76777
      vertex 8.58685 0 -2.5
      vertex 11.4131 0 -2.5
    endloop
  endfacet
  facet normal 0 -0.382682 0.92388
    outer loop
      vertex 20 1.76777 -1.76777
      vertex -8.58685 0 -2.5
      vertex 8.58685 0 -2.5
    endloop
  endfacet
  facet normal 0 -0.382682 0.92388
    outer loop
      vertex -20 1.76777 -1.76777
      vertex -8.58685 0 -2.5
      vertex 20 1.76777 -1.76777
    endloop
  endfacet
  facet normal 0 -0.382682 0.92388
    outer loop
      vertex -8.58685 0 -2.5
      vertex -20 1.76777 -1.76777
      vertex -11.4131 0 -2.5
    endloop
  endfacet
  facet normal 0 -0.382682 0.92388
    outer loop
      vertex -11.4131 0 -2.5
      vertex -20 1.76777 -1.76777
      vertex -20 0 -2.5
    endloop
  endfacet
  facet normal 0 -0.92388 0.382682
    outer loop
      vertex -20 1.76777 -1.76777
      vertex 20 2.5 0
      vertex -20 2.5 0
    endloop
  endfacet
  facet normal 0 -0.92388 0.382682
    outer loop
      vertex 20 2.5 0
      vertex -20 1.76777 -1.76777
      vertex 20 1.76777 -1.76777
    endloop
  endfacet
  facet normal 0 -0.382682 -0.92388
    outer loop
      vertex 11.4131 0 2.5
      vertex 20 1.76777 1.76777
      vertex 20 0 2.5
    endloop
  endfacet
  facet normal 0 -0.382682 -0.92388
    outer loop
      vertex 8.58685 0 2.5
      vertex 20 1.76777 1.76777
      vertex 11.4131 0 2.5
    endloop
  endfacet
  facet normal 0 -0.382682 -0.92388
    outer loop
      vertex -8.58685 0 2.5
      vertex 20 1.76777 1.76777
      vertex 8.58685 0 2.5
    endloop
  endfacet
  facet normal 0 -0.382682 -0.92388
    outer loop
      vertex -20 1.76777 1.76777
      vertex -8.58685 0 2.5
      vertex -11.4131 0 2.5
    endloop
  endfacet
  facet normal 0 -0.382682 -0.92388
    outer loop
      vertex -20 1.76777 1.76777
      vertex -11.4131 0 2.5
      vertex -20 0 2.5
    endloop
  endfacet
  facet normal 0 -0.382682 -0.92388
    outer loop
      vertex -8.58685 0 2.5
      vertex -20 1.76777 1.76777
      vertex 20 1.76777 1.76777
    endloop
  endfacet
  facet normal 0 0.924374 -0.381488
    outer loop
      vertex -12.4271 -1.76959 1.76336
      vertex -20 -1.76777 1.76777
      vertex -12.421 -1.76777 1.76777
    endloop
  endfacet
  facet normal -8.15738e-07 0.923879 -0.382684
    outer loop
      vertex -13 -2.5 0
      vertex -20 -1.76777 1.76777
      vertex -12.4271 -1.76959 1.76336
    endloop
  endfacet
  facet normal 0 0.92388 -0.382682
    outer loop
      vertex -20 -1.76777 1.76777
      vertex -13 -2.5 0
      vertex -20 -2.5 0
    endloop
  endfacet
  facet normal 0 0.924374 -0.381488
    outer loop
      vertex 20 -1.76777 1.76777
      vertex 12.4271 -1.76959 1.76336
      vertex 12.421 -1.76777 1.76777
    endloop
  endfacet
  facet normal 0 0.92388 -0.382682
    outer loop
      vertex 13 -2.5 0
      vertex 20 -1.76777 1.76777
      vertex 20 -2.5 0
    endloop
  endfacet
  facet normal 8.15738e-07 0.923879 -0.382684
    outer loop
      vertex 20 -1.76777 1.76777
      vertex 13 -2.5 0
      vertex 12.4271 -1.76959 1.76336
    endloop
  endfacet
  facet normal 0 0.924374 -0.381488
    outer loop
      vertex 7.57295 -1.76959 1.76336
      vertex -7.57902 -1.76777 1.76777
      vertex 7.57902 -1.76777 1.76777
    endloop
  endfacet
  facet normal 0 0.924374 -0.381488
    outer loop
      vertex 7.57295 -1.76959 1.76336
      vertex -7.57295 -1.76959 1.76336
      vertex -7.57902 -1.76777 1.76777
    endloop
  endfacet
  facet normal 0 0.923879 -0.382684
    outer loop
      vertex 7 -2.5 0
      vertex -7.57295 -1.76959 1.76336
      vertex 7.57295 -1.76959 1.76336
    endloop
  endfacet
  facet normal 0 0.923879 -0.382684
    outer loop
      vertex -7.57295 -1.76959 1.76336
      vertex 7 -2.5 0
      vertex -7 -2.5 0
    endloop
  endfacet
  facet normal -8.15738e-07 0.923879 0.382684
    outer loop
      vertex -20 -1.76777 -1.76777
      vertex -13 -2.5 0
      vertex -12.4271 -1.76959 -1.76336
    endloop
  endfacet
  facet normal -0 0.924374 0.381488
    outer loop
      vertex -20 -1.76777 -1.76777
      vertex -12.4271 -1.76959 -1.76336
      vertex -12.421 -1.76777 -1.76777
    endloop
  endfacet
  facet normal 0 0.92388 0.382682
    outer loop
      vertex -13 -2.5 0
      vertex -20 -1.76777 -1.76777
      vertex -20 -2.5 0
    endloop
  endfacet
  facet normal 0 0.92388 0.382682
    outer loop
      vertex 20 -1.76777 -1.76777
      vertex 13 -2.5 0
      vertex 20 -2.5 0
    endloop
  endfacet
  facet normal 8.15738e-07 0.923879 0.382684
    outer loop
      vertex 13 -2.5 0
      vertex 20 -1.76777 -1.76777
      vertex 12.4271 -1.76959 -1.76336
    endloop
  endfacet
  facet normal 0 0.924374 0.381488
    outer loop
      vertex 12.4271 -1.76959 -1.76336
      vertex 20 -1.76777 -1.76777
      vertex 12.421 -1.76777 -1.76777
    endloop
  endfacet
  facet normal 0 0.923879 0.382684
    outer loop
      vertex 7.57295 -1.76959 -1.76336
      vertex -7 -2.5 0
      vertex 7 -2.5 0
    endloop
  endfacet
  facet normal 0 0.923879 0.382684
    outer loop
      vertex 7.57295 -1.76959 -1.76336
      vertex -7.57295 -1.76959 -1.76336
      vertex -7 -2.5 0
    endloop
  endfacet
  facet normal 0 0.924374 0.381488
    outer loop
      vertex 7.57902 -1.76777 -1.76777
      vertex -7.57295 -1.76959 -1.76336
      vertex 7.57295 -1.76959 -1.76336
    endloop
  endfacet
  facet normal 0 0.924374 0.381488
    outer loop
      vertex -7.57295 -1.76959 -1.76336
      vertex 7.57902 -1.76777 -1.76777
      vertex -7.57902 -1.76777 -1.76777
    endloop
  endfacet
  facet normal 0 -0.92388 -0.382682
    outer loop
      vertex -20 2.5 0
      vertex 20 1.76777 1.76777
      vertex -20 1.76777 1.76777
    endloop
  endfacet
  facet normal 0 -0.92388 -0.382682
    outer loop
      vertex 20 1.76777 1.76777
      vertex -20 2.5 0
      vertex 20 2.5 0
    endloop
  endfacet
  facet normal -0.224964 0.0731153 0.97162
    outer loop
      vertex -30.75 0.544907 12.8532
      vertex -40 10 10
      vertex -30.9271 0 12.8532
    endloop
  endfacet
  facet normal -0.299991 0 0.953942
    outer loop
      vertex -40 10 10
      vertex -40 -10 10
      vertex -30.9271 0 12.8532
    endloop
  endfacet
  facet normal 0 0 -1
    outer loop
      vertex -40 -10 0
      vertex -20 -2.5 0
      vertex -20 -10 0
    endloop
  endfacet
  facet normal -0 0 -1
    outer loop
      vertex -20 -2.5 0
      vertex -40 -10 0
      vertex -20 2.5 0
    endloop
  endfacet
  facet normal 0 0 -1
    outer loop
      vertex -40 10 0
      vertex -20 2.5 0
      vertex -40 -10 0
    endloop
  endfacet
  facet normal 0 0 -1
    outer loop
      vertex -20 2.5 0
      vertex -40 10 0
      vertex -20 10 0
    endloop
  endfacet
  facet normal 0.299991 0 0.953942
    outer loop
      vertex -20 10 10
      vertex -29.0729 0 12.8532
      vertex -20 -10 10
    endloop
  endfacet
  facet normal 0 -0.29863 0.954369
    outer loop
      vertex -30.2865 -0.881678 12.8532
      vertex -20 -10 10
      vertex -29.7135 -0.881678 12.8532
    endloop
  endfacet
  facet normal 0 -0.29863 0.954369
    outer loop
      vertex -20 -10 10
      vertex -30.2865 -0.881678 12.8532
      vertex -40 -10 10
    endloop
  endfacet
  facet normal -0.224964 -0.0731153 0.97162
    outer loop
      vertex -30.9271 0 12.8532
      vertex -40 -10 10
      vertex -30.75 -0.544907 12.8532
    endloop
  endfacet
  facet normal -0.125217 -0.172336 0.977047
    outer loop
      vertex -30.75 -0.544907 12.8532
      vertex -40 -10 10
      vertex -30.2865 -0.881678 12.8532
    endloop
  endfacet
  facet normal 0.125217 -0.172336 0.977047
    outer loop
      vertex -29.25 -0.544907 12.8532
      vertex -29.7135 -0.881678 12.8532
      vertex -20 -10 10
    endloop
  endfacet
  facet normal 0.224964 -0.0731153 0.97162
    outer loop
      vertex -29.0729 0 12.8532
      vertex -29.25 -0.544907 12.8532
      vertex -20 -10 10
    endloop
  endfacet
  facet normal -1 0 0
    outer loop
      vertex -40 10 0
      vertex -40 2.5 5
      vertex -40 10 10
    endloop
  endfacet
  facet normal -1 0 0
    outer loop
      vertex -40 10 0
      vertex -40 1.76777 3.23223
      vertex -40 2.5 5
    endloop
  endfacet
  facet normal -1 0 0
    outer loop
      vertex -40 10 0
      vertex -40 0 2.5
      vertex -40 1.76777 3.23223
    endloop
  endfacet
  facet normal -1 -0 0
    outer loop
      vertex -40 -1.76777 3.23223
      vertex -40 -10 0
      vertex -40 -2.5 5
    endloop
  endfacet
  facet normal -1 -0 0
    outer loop
      vertex -40 0 2.5
      vertex -40 -10 0
      vertex -40 -1.76777 3.23223
    endloop
  endfacet
  facet normal -1 0 0
    outer loop
      vertex -40 -10 0
      vertex -40 0 2.5
      vertex -40 10 0
    endloop
  endfacet
  facet normal -1 0 0
    outer loop
      vertex -40 1.76777 6.76777
      vertex -40 10 10
      vertex -40 2.5 5
    endloop
  endfacet
  facet normal -1 0 0
    outer loop
      vertex -40 0 7.5
      vertex -40 10 10
      vertex -40 1.76777 6.76777
    endloop
  endfacet
  facet normal -1 0 0
    outer loop
      vertex -40 -10 10
      vertex -40 -2.5 5
      vertex -40 -10 0
    endloop
  endfacet
  facet normal -1 0 0
    outer loop
      vertex -40 0 7.5
      vertex -40 -10 10
      vertex -40 10 10
    endloop
  endfacet
  facet normal -1 0 0
    outer loop
      vertex -40 -1.76777 6.76777
      vertex -40 -10 10
      vertex -40 0 7.5
    endloop
  endfacet
  facet normal -1 0 0
    outer loop
      vertex -40 -2.5 5
      vertex -40 -10 10
      vertex -40 -1.76777 6.76777
    endloop
  endfacet
  facet normal 0.125217 0.172336 0.977047
    outer loop
      vertex -20 10 10
      vertex -29.7135 0.881678 12.8532
      vertex -29.25 0.544907 12.8532
    endloop
  endfacet
  facet normal 0 0 1
    outer loop
      vertex -29.25 0.544907 12.8532
      vertex -29.25 -0.544907 12.8532
      vertex -29.0729 0 12.8532
    endloop
  endfacet
  facet normal 0 0 1
    outer loop
      vertex -29.7135 0.881678 12.8532
      vertex -29.25 -0.544907 12.8532
      vertex -29.25 0.544907 12.8532
    endloop
  endfacet
  facet normal 0 0 1
    outer loop
      vertex -29.7135 0.881678 12.8532
      vertex -29.7135 -0.881678 12.8532
      vertex -29.25 -0.544907 12.8532
    endloop
  endfacet
  facet normal -0 0 1
    outer loop
      vertex -30.2865 0.881678 12.8532
      vertex -29.7135 -0.881678 12.8532
      vertex -29.7135 0.881678 12.8532
    endloop
  endfacet
  facet normal 0 0 1
    outer loop
      vertex -30.2865 0.881678 12.8532
      vertex -30.2865 -0.881678 12.8532
      vertex -29.7135 -0.881678 12.8532
    endloop
  endfacet
  facet normal -0 0 1
    outer loop
      vertex -30.75 0.544907 12.8532
      vertex -30.2865 -0.881678 12.8532
      vertex -30.2865 0.881678 12.8532
    endloop
  endfacet
  facet normal 0 0 1
    outer loop
      vertex -30.75 0.544907 12.8532
      vertex -30.75 -0.544907 12.8532
      vertex -30.2865 -0.881678 12.8532
    endloop
  endfacet
  facet normal 0 -0 1
    outer loop
      vertex -30.75 -0.544907 12.8532
      vertex -30.75 0.544907 12.8532
      vertex -30.9271 0 12.8532
    endloop
  endfacet
  facet normal 0.224964 0.0731153 0.97162
    outer loop
      vertex -20 10 10
      vertex -29.25 0.544907 12.8532
      vertex -29.0729 0 12.8532
    endloop
  endfacet
  facet normal 0 0.29863 0.954369
    outer loop
      vertex -20 10 10
      vertex -30.2865 0.881678 12.8532
      vertex -29.7135 0.881678 12.8532
    endloop
  endfacet
  facet normal 0 0.29863 0.954369
    outer loop
      vertex -30.2865 0.881678 12.8532
      vertex -20 10 10
      vertex -40 10 10
    endloop
  endfacet
  facet normal -0.125217 0.172336 0.977047
    outer loop
      vertex -30.2865 0.881678 12.8532
      vertex -40 10 10
      vertex -30.75 0.544907 12.8532
    endloop
  endfacet
  facet normal 0 0.382682 -0.92388
    outer loop
      vertex -40 -1.76777 6.76777
      vertex -20 0 7.5
      vertex -20 -1.76777 6.76777
    endloop
  endfacet
  facet normal 0 0.382682 -0.92388
    outer loop
      vertex -20 0 7.5
      vertex -40 -1.76777 6.76777
      vertex -40 0 7.5
    endloop
  endfacet
  facet normal 0 0.92388 0.382682
    outer loop
      vertex -20 -1.76777 3.23223
      vertex -40 -2.5 5
      vertex -20 -2.5 5
    endloop
  endfacet
  facet normal 0 0.92388 0.382682
    outer loop
      vertex -40 -2.5 5
      vertex -20 -1.76777 3.23223
      vertex -40 -1.76777 3.23223
    endloop
  endfacet
  facet normal 0 -0.382682 0.92388
    outer loop
      vertex -40 1.76777 3.23223
      vertex -20 0 2.5
      vertex -20 1.76777 3.23223
    endloop
  endfacet
  facet normal 0 -0.382682 0.92388
    outer loop
      vertex -20 0 2.5
      vertex -40 1.76777 3.23223
      vertex -40 0 2.5
    endloop
  endfacet
  facet normal 0 -0.92388 0.382682
    outer loop
      vertex -40 1.76777 3.23223
      vertex -20 2.5 5
      vertex -40 2.5 5
    endloop
  endfacet
  facet normal 0 -0.92388 0.382682
    outer loop
      vertex -20 2.5 5
      vertex -40 1.76777 3.23223
      vertex -20 1.76777 3.23223
    endloop
  endfacet
  facet normal -0 0.382682 0.92388
    outer loop
      vertex -40 0 2.5
      vertex -20 -1.76777 3.23223
      vertex -20 0 2.5
    endloop
  endfacet
  facet normal 0 0.382682 0.92388
    outer loop
      vertex -20 -1.76777 3.23223
      vertex -40 0 2.5
      vertex -40 -1.76777 3.23223
    endloop
  endfacet
  facet normal 0 0.92388 -0.382682
    outer loop
      vertex -20 -2.5 5
      vertex -40 -1.76777 6.76777
      vertex -20 -1.76777 6.76777
    endloop
  endfacet
  facet normal 0 0.92388 -0.382682
    outer loop
      vertex -40 -1.76777 6.76777
      vertex -20 -2.5 5
      vertex -40 -2.5 5
    endloop
  endfacet
  facet normal 0 -0.382682 -0.92388
    outer loop
      vertex -40 0 7.5
      vertex -20 1.76777 6.76777
      vertex -20 0 7.5
    endloop
  endfacet
  facet normal -0 -0.382682 -0.92388
    outer loop
      vertex -20 1.76777 6.76777
      vertex -40 0 7.5
      vertex -40 1.76777 6.76777
    endloop
  endfacet
  facet normal 0 -0.92388 -0.382682
    outer loop
      vertex -40 2.5 5
      vertex -20 1.76777 6.76777
      vertex -40 1.76777 6.76777
    endloop
  endfacet
  facet normal 0 -0.92388 -0.382682
    outer loop
      vertex -20 1.76777 6.76777
      vertex -40 2.5 5
      vertex -20 2.5 5
    endloop
  endfacet
  facet normal 0.224964 0.0731153 0.97162
    outer loop
      vertex 30.9271 0 12.8532
      vertex 40 10 10
      vertex 30.75 0.544907 12.8532
    endloop
  endfacet
  facet normal 0.299991 -0 0.953942
    outer loop
      vertex 40 -10 10
      vertex 40 10 10
      vertex 30.9271 0 12.8532
    endloop
  endfacet
  facet normal 0 0 -1
    outer loop
      vertex 20 -2.5 0
      vertex 40 -10 0
      vertex 20 -10 0
    endloop
  endfacet
  facet normal 0 0 -1
    outer loop
      vertex 40 -10 0
      vertex 20 -2.5 0
      vertex 40 10 0
    endloop
  endfacet
  facet normal 0 0 -1
    outer loop
      vertex 20 2.5 0
      vertex 40 10 0
      vertex 20 -2.5 0
    endloop
  endfacet
  facet normal -0 0 -1
    outer loop
      vertex 40 10 0
      vertex 20 2.5 0
      vertex 20 10 0
    endloop
  endfacet
  facet normal -0.299991 0 0.953942
    outer loop
      vertex 29.0729 0 12.8532
      vertex 20 10 10
      vertex 20 -10 10
    endloop
  endfacet
  facet normal 0 -0.29863 0.954369
    outer loop
      vertex 29.7135 -0.881678 12.8532
      vertex 40 -10 10
      vertex 30.2865 -0.881678 12.8532
    endloop
  endfacet
  facet normal 0 -0.29863 0.954369
    outer loop
      vertex 40 -10 10
      vertex 29.7135 -0.881678 12.8532
      vertex 20 -10 10
    endloop
  endfacet
  facet normal 0.224964 -0.0731153 0.97162
    outer loop
      vertex 40 -10 10
      vertex 30.9271 0 12.8532
      vertex 30.75 -0.544907 12.8532
    endloop
  endfacet
  facet normal 0.125217 -0.172336 0.977047
    outer loop
      vertex 40 -10 10
      vertex 30.75 -0.544907 12.8532
      vertex 30.2865 -0.881678 12.8532
    endloop
  endfacet
  facet normal -0.125217 -0.172336 0.977047
    outer loop
      vertex 29.7135 -0.881678 12.8532
      vertex 29.25 -0.544907 12.8532
      vertex 20 -10 10
    endloop
  endfacet
  facet normal -0.224964 -0.0731153 0.97162
    outer loop
      vertex 29.25 -0.544907 12.8532
      vertex 29.0729 0 12.8532
      vertex 20 -10 10
    endloop
  endfacet
  facet normal 1 0 0
    outer loop
      vertex 40 10 10
      vertex 40 2.5 5
      vertex 40 10 0
    endloop
  endfacet
  facet normal 1 0 0
    outer loop
      vertex 40 10 10
      vertex 40 1.76777 6.76777
      vertex 40 2.5 5
    endloop
  endfacet
  facet normal 1 0 0
    outer loop
      vertex 40 10 10
      vertex 40 0 7.5
      vertex 40 1.76777 6.76777
    endloop
  endfacet
  facet normal 1 0 0
    outer loop
      vertex 40 -1.76777 6.76777
      vertex 40 -10 10
      vertex 40 -2.5 5
    endloop
  endfacet
  facet normal 1 0 0
    outer loop
      vertex 40 0 7.5
      vertex 40 -10 10
      vertex 40 -1.76777 6.76777
    endloop
  endfacet
  facet normal 1 -0 0
    outer loop
      vertex 40 -10 10
      vertex 40 0 7.5
      vertex 40 10 10
    endloop
  endfacet
  facet normal 1 -0 0
    outer loop
      vertex 40 1.76777 3.23223
      vertex 40 10 0
      vertex 40 2.5 5
    endloop
  endfacet
  facet normal 1 -0 0
    outer loop
      vertex 40 0 2.5
      vertex 40 10 0
      vertex 40 1.76777 3.23223
    endloop
  endfacet
  facet normal 1 0 0
    outer loop
      vertex 40 -10 0
      vertex 40 -2.5 5
      vertex 40 -10 10
    endloop
  endfacet
  facet normal 1 0 0
    outer loop
      vertex 40 0 2.5
      vertex 40 -10 0
      vertex 40 10 0
    endloop
  endfacet
  facet normal 1 0 0
    outer loop
      vertex 40 -1.76777 3.23223
      vertex 40 -10 0
      vertex 40 0 2.5
    endloop
  endfacet
  facet normal 1 0 0
    outer loop
      vertex 40 -2.5 5
      vertex 40 -10 0
      vertex 40 -1.76777 3.23223
    endloop
  endfacet
  facet normal -0.125217 0.172336 0.977047
    outer loop
      vertex 29.25 0.544907 12.8532
      vertex 29.7135 0.881678 12.8532
      vertex 20 10 10
    endloop
  endfacet
  facet normal 0 0 1
    outer loop
      vertex 30.75 0.544907 12.8532
      vertex 30.75 -0.544907 12.8532
      vertex 30.9271 0 12.8532
    endloop
  endfacet
  facet normal 0 0 1
    outer loop
      vertex 30.2865 0.881678 12.8532
      vertex 30.75 -0.544907 12.8532
      vertex 30.75 0.544907 12.8532
    endloop
  endfacet
  facet normal 0 0 1
    outer loop
      vertex 30.2865 0.881678 12.8532
      vertex 30.2865 -0.881678 12.8532
      vertex 30.75 -0.544907 12.8532
    endloop
  endfacet
  facet normal -0 0 1
    outer loop
      vertex 29.7135 0.881678 12.8532
      vertex 30.2865 -0.881678 12.8532
      vertex 30.2865 0.881678 12.8532
    endloop
  endfacet
  facet normal 0 0 1
    outer loop
      vertex 29.7135 0.881678 12.8532
      vertex 29.7135 -0.881678 12.8532
      vertex 30.2865 -0.881678 12.8532
    endloop
  endfacet
  facet normal -0 0 1
    outer loop
      vertex 29.25 0.544907 12.8532
      vertex 29.7135 -0.881678 12.8532
      vertex 29.7135 0.881678 12.8532
    endloop
  endfacet
  facet normal 0 0 1
    outer loop
      vertex 29.25 0.544907 12.8532
      vertex 29.25 -0.544907 12.8532
      vertex 29.7135 -0.881678 12.8532
    endloop
  endfacet
  facet normal 0 -0 1
    outer loop
      vertex 29.25 -0.544907 12.8532
      vertex 29.25 0.544907 12.8532
      vertex 29.0729 0 12.8532
    endloop
  endfacet
  facet normal -0.224964 0.0731153 0.97162
    outer loop
      vertex 29.0729 0 12.8532
      vertex 29.25 0.544907 12.8532
      vertex 20 10 10
    endloop
  endfacet
  facet normal 0 0.29863 0.954369
    outer loop
      vertex 40 10 10
      vertex 29.7135 0.881678 12.8532
      vertex 30.2865 0.881678 12.8532
    endloop
  endfacet
  facet normal 0 0.29863 0.954369
    outer loop
      vertex 29.7135 0.881678 12.8532
      vertex 40 10 10
      vertex 20 10 10
    endloop
  endfacet
  facet normal 0.125217 0.172336 0.977047
    outer loop
      vertex 30.75 0.544907 12.8532
      vertex 40 10 10
      vertex 30.2865 0.881678 12.8532
    endloop
  endfacet
  facet normal 0 0.382682 -0.92388
    outer loop
      vertex 20 -1.76777 6.76777
      vertex 40 0 7.5
      vertex 40 -1.76777 6.76777
    endloop
  endfacet
  facet normal 0 0.382682 -0.92388
    outer loop
      vertex 40 0 7.5
      vertex 20 -1.76777 6.76777
      vertex 20 0 7.5
    endloop
  endfacet
  facet normal 0 0.92388 0.382682
    outer loop
      vertex 40 -1.76777 3.23223
      vertex 20 -2.5 5
      vertex 40 -2.5 5
    endloop
  endfacet
  facet normal 0 0.92388 0.382682
    outer loop
      vertex 20 -2.5 5
      vertex 40 -1.76777 3.23223
      vertex 20 -1.76777 3.23223
    endloop
  endfacet
  facet normal 0 -0.382682 0.92388
    outer loop
      vertex 20 1.76777 3.23223
      vertex 40 0 2.5
      vertex 40 1.76777 3.23223
    endloop
  endfacet
  facet normal 0 -0.382682 0.92388
    outer loop
      vertex 40 0 2.5
      vertex 20 1.76777 3.23223
      vertex 20 0 2.5
    endloop
  endfacet
  facet normal 0 -0.92388 0.382682
    outer loop
      vertex 20 1.76777 3.23223
      vertex 40 2.5 5
      vertex 20 2.5 5
    endloop
  endfacet
  facet normal 0 -0.92388 0.382682
    outer loop
      vertex 40 2.5 5
      vertex 20 1.76777 3.23223
      vertex 40 1.76777 3.23223
    endloop
  endfacet
  facet normal -0 0.382682 0.92388
    outer loop
      vertex 20 0 2.5
      vertex 40 -1.76777 3.23223
      vertex 40 0 2.5
    endloop
  endfacet
  facet normal 0 0.382682 0.92388
    outer loop
      vertex 40 -1.76777 3.23223
      vertex 20 0 2.5
      vertex 20 -1.76777 3.23223
    endloop
  endfacet
  facet normal 0 0.92388 -0.382682
    outer loop
      vertex 40 -2.5 5
      vertex 20 -1.76777 6.76777
      vertex 40 -1.76777 6.76777
    endloop
  endfacet
  facet normal 0 0.92388 -0.382682
    outer loop
      vertex 20 -1.76777 6.76777
      vertex 40 -2.5 5
      vertex 20 -2.5 5
    endloop
  endfacet
  facet normal 0 -0.382682 -0.92388
    outer loop
      vertex 20 0 7.5
      vertex 40 1.76777 6.76777
      vertex 40 0 7.5
    endloop
  endfacet
  facet normal -0 -0.382682 -0.92388
    outer loop
      vertex 40 1.76777 6.76777
      vertex 20 0 7.5
      vertex 20 1.76777 6.76777
    endloop
  endfacet
  facet normal 0 -0.92388 -0.382682
    outer loop
      vertex 20 2.5 5
      vertex 40 1.76777 6.76777
      vertex 20 1.76777 6.76777
    endloop
  endfacet
  facet normal 0 -0.92388 -0.382682
    outer loop
      vertex 40 1.76777 6.76777
      vertex 20 2.5 5
      vertex 40 2.5 5
    endloop
  endfacet
  facet normal -0.568069 0.822981 0
    outer loop
      vertex -11.4184 3.74006 8
      vertex -12.994 2.65249 13
      vertex -11.4184 3.74006 13
    endloop
  endfacet
  facet normal -0.568069 0.822981 0
    outer loop
      vertex -12.994 2.65249 13
      vertex -11.4184 3.74006 8
      vertex -12.994 2.65249 8
    endloop
  endfacet
  facet normal 0.748511 0.663122 0
    outer loop
      vertex -6.45818 1.85889 13
      vertex -7.72774 3.29193 8
      vertex -7.72774 3.29193 13
    endloop
  endfacet
  facet normal 0.748511 0.663122 0
    outer loop
      vertex -7.72774 3.29193 8
      vertex -6.45818 1.85889 13
      vertex -6.45818 1.85889 8
    endloop
  endfacet
  facet normal 0.970941 0.239318 0
    outer loop
      vertex -6 0 13
      vertex -6.45818 1.85889 8
      vertex -6.45818 1.85889 13
    endloop
  endfacet
  facet normal 0.970941 0.239318 0
    outer loop
      vertex -6.45818 1.85889 8
      vertex -6 0 13
      vertex -6 0 8
    endloop
  endfacet
  facet normal -1 0 0
    outer loop
      vertex -13.8838 -0.957262 8
      vertex -13.8838 0.957262 13
      vertex -13.8838 0.957262 8
    endloop
  endfacet
  facet normal -1 -0 0
    outer loop
      vertex -13.8838 0.957262 13
      vertex -13.8838 -0.957262 8
      vertex -13.8838 -0.957262 13
    endloop
  endfacet
  facet normal -0.88544 0.464754 0
    outer loop
      vertex -13.8838 0.957262 8
      vertex -12.994 2.65249 13
      vertex -12.994 2.65249 8
    endloop
  endfacet
  facet normal -0.88544 0.464754 0
    outer loop
      vertex -12.994 2.65249 13
      vertex -13.8838 0.957262 8
      vertex -13.8838 0.957262 13
    endloop
  endfacet
  facet normal 0.354605 0.935016 -0
    outer loop
      vertex -7.72774 3.29193 8
      vertex -9.51785 3.97083 13
      vertex -7.72774 3.29193 13
    endloop
  endfacet
  facet normal 0.354605 0.935016 0
    outer loop
      vertex -9.51785 3.97083 13
      vertex -7.72774 3.29193 8
      vertex -9.51785 3.97083 8
    endloop
  endfacet
  facet normal 0.970941 -0.239318 0
    outer loop
      vertex -6.45818 -1.85889 13
      vertex -6 0 8
      vertex -6 0 13
    endloop
  endfacet
  facet normal 0.970941 -0.239318 0
    outer loop
      vertex -6 0 8
      vertex -6.45818 -1.85889 13
      vertex -6.45818 -1.85889 8
    endloop
  endfacet
  facet normal 0 0 1
    outer loop
      vertex -7 0 13
      vertex -6 0 13
      vertex -6.45818 1.85889 13
    endloop
  endfacet
  facet normal 0 0 1
    outer loop
      vertex -6 0 13
      vertex -7 0 13
      vertex -6.45818 -1.85889 13
    endloop
  endfacet
  facet normal 0 0 1
    outer loop
      vertex -6.45818 1.85889 13
      vertex -7.57295 1.76336 13
      vertex -7 0 13
    endloop
  endfacet
  facet normal 0 0 1
    outer loop
      vertex -7.72774 3.29193 13
      vertex -7.57295 1.76336 13
      vertex -6.45818 1.85889 13
    endloop
  endfacet
  facet normal 0 0 1
    outer loop
      vertex -7.72774 3.29193 13
      vertex -9.07295 2.85317 13
      vertex -7.57295 1.76336 13
    endloop
  endfacet
  facet normal 0 0 1
    outer loop
      vertex -9.51785 3.97083 13
      vertex -9.07295 2.85317 13
      vertex -7.72774 3.29193 13
    endloop
  endfacet
  facet normal 0 0 1
    outer loop
      vertex -9.51785 3.97083 13
      vertex -10.9271 2.85317 13
      vertex -9.07295 2.85317 13
    endloop
  endfacet
  facet normal -0 0 1
    outer loop
      vertex -11.4184 3.74006 13
      vertex -10.9271 2.85317 13
      vertex -9.51785 3.97083 13
    endloop
  endfacet
  facet normal 0 0 1
    outer loop
      vertex -12.994 2.65249 13
      vertex -10.9271 2.85317 13
      vertex -11.4184 3.74006 13
    endloop
  endfacet
  facet normal 0 0 1
    outer loop
      vertex -10.9271 2.85317 13
      vertex -12.994 2.65249 13
      vertex -12.4271 1.76336 13
    endloop
  endfacet
  facet normal 0 0 1
    outer loop
      vertex -13.8838 0.957262 13
      vertex -12.4271 1.76336 13
      vertex -12.994 2.65249 13
    endloop
  endfacet
  facet normal 0 0 1
    outer loop
      vertex -12.4271 1.76336 13
      vertex -13.8838 0.957262 13
      vertex -13 0 13
    endloop
  endfacet
  facet normal -0 0 1
    outer loop
      vertex -7.57295 -1.76336 13
      vertex -6.45818 -1.85889 13
      vertex -7 0 13
    endloop
  endfacet
  facet normal 0 0 1
    outer loop
      vertex -7.57295 -1.76336 13
      vertex -7.72774 -3.29193 13
      vertex -6.45818 -1.85889 13
    endloop
  endfacet
  facet normal -0 0 1
    outer loop
      vertex -9.07295 -2.85317 13
      vertex -7.72774 -3.29193 13
      vertex -7.57295 -1.76336 13
    endloop
  endfacet
  facet normal 0 0 1
    outer loop
      vertex -9.07295 -2.85317 13
      vertex -9.51785 -3.97083 13
      vertex -7.72774 -3.29193 13
    endloop
  endfacet
  facet normal -0 0 1
    outer loop
      vertex -10.9271 -2.85317 13
      vertex -9.51785 -3.97083 13
      vertex -9.07295 -2.85317 13
    endloop
  endfacet
  facet normal 0 0 1
    outer loop
      vertex -10.9271 -2.85317 13
      vertex -11.4184 -3.74006 13
      vertex -9.51785 -3.97083 13
    endloop
  endfacet
  facet normal -0 0 1
    outer loop
      vertex -12.994 -2.65249 13
      vertex -10.9271 -2.85317 13
      vertex -12.4271 -1.76336 13
    endloop
  endfacet
  facet normal 0 0 1
    outer loop
      vertex -10.9271 -2.85317 13
      vertex -12.994 -2.65249 13
      vertex -11.4184 -3.74006 13
    endloop
  endfacet
  facet normal -0 0 1
    outer loop
      vertex -13.8838 -0.957262 13
      vertex -12.4271 -1.76336 13
      vertex -13 0 13
    endloop
  endfacet
  facet normal 0 0 1
    outer loop
      vertex -13.8838 -0.957262 13
      vertex -13 0 13
      vertex -13.8838 0.957262 13
    endloop
  endfacet
  facet normal 0 0 1
    outer loop
      vertex -12.4271 -1.76336 13
      vertex -13.8838 -0.957262 13
      vertex -12.994 -2.65249 13
    endloop
  endfacet
  facet normal -0.120537 -0.992709 0
    outer loop
      vertex -11.4184 -3.74006 8
      vertex -9.51785 -3.97083 13
      vertex -11.4184 -3.74006 13
    endloop
  endfacet
  facet normal -0.120537 -0.992709 -0
    outer loop
      vertex -9.51785 -3.97083 13
      vertex -11.4184 -3.74006 8
      vertex -9.51785 -3.97083 8
    endloop
  endfacet
  facet normal 0.748511 -0.663122 0
    outer loop
      vertex -7.72774 -3.29193 13
      vertex -6.45818 -1.85889 8
      vertex -6.45818 -1.85889 13
    endloop
  endfacet
  facet normal 0.748511 -0.663122 0
    outer loop
      vertex -6.45818 -1.85889 8
      vertex -7.72774 -3.29193 13
      vertex -7.72774 -3.29193 8
    endloop
  endfacet
  facet normal 0.354605 -0.935016 0
    outer loop
      vertex -9.51785 -3.97083 8
      vertex -7.72774 -3.29193 13
      vertex -9.51785 -3.97083 13
    endloop
  endfacet
  facet normal 0.354605 -0.935016 0
    outer loop
      vertex -7.72774 -3.29193 13
      vertex -9.51785 -3.97083 8
      vertex -7.72774 -3.29193 8
    endloop
  endfacet
  facet normal -0.120537 0.992709 0
    outer loop
      vertex -9.51785 3.97083 8
      vertex -11.4184 3.74006 13
      vertex -9.51785 3.97083 13
    endloop
  endfacet
  facet normal -0.120537 0.992709 0
    outer loop
      vertex -11.4184 3.74006 13
      vertex -9.51785 3.97083 8
      vertex -11.4184 3.74006 8
    endloop
  endfacet
  facet normal -0.568069 -0.822981 0
    outer loop
      vertex -12.994 -2.65249 8
      vertex -11.4184 -3.74006 13
      vertex -12.994 -2.65249 13
    endloop
  endfacet
  facet normal -0.568069 -0.822981 -0
    outer loop
      vertex -11.4184 -3.74006 13
      vertex -12.994 -2.65249 8
      vertex -11.4184 -3.74006 8
    endloop
  endfacet
  facet normal -0.88544 -0.464754 0
    outer loop
      vertex -12.994 -2.65249 8
      vertex -13.8838 -0.957262 13
      vertex -13.8838 -0.957262 8
    endloop
  endfacet
  facet normal -0.88544 -0.464754 0
    outer loop
      vertex -13.8838 -0.957262 13
      vertex -12.994 -2.65249 8
      vertex -12.994 -2.65249 13
    endloop
  endfacet
  facet normal 0 0 -1
    outer loop
      vertex -7 0 8
      vertex -6 0 8
      vertex -6.45818 -1.85889 8
    endloop
  endfacet
  facet normal 0 0 -1
    outer loop
      vertex -6 0 8
      vertex -7 0 8
      vertex -6.45818 1.85889 8
    endloop
  endfacet
  facet normal 0 0 -1
    outer loop
      vertex -6.45818 -1.85889 8
      vertex -7.57295 -1.76336 8
      vertex -7 0 8
    endloop
  endfacet
  facet normal 0 0 -1
    outer loop
      vertex -7.72774 -3.29193 8
      vertex -7.57295 -1.76336 8
      vertex -6.45818 -1.85889 8
    endloop
  endfacet
  facet normal 0 0 -1
    outer loop
      vertex -7.72774 -3.29193 8
      vertex -9.07295 -2.85317 8
      vertex -7.57295 -1.76336 8
    endloop
  endfacet
  facet normal 0 0 -1
    outer loop
      vertex -9.51785 -3.97083 8
      vertex -9.07295 -2.85317 8
      vertex -7.72774 -3.29193 8
    endloop
  endfacet
  facet normal 0 0 -1
    outer loop
      vertex -9.51785 -3.97083 8
      vertex -10.9271 -2.85317 8
      vertex -9.07295 -2.85317 8
    endloop
  endfacet
  facet normal 0 0 -1
    outer loop
      vertex -11.4184 -3.74006 8
      vertex -10.9271 -2.85317 8
      vertex -9.51785 -3.97083 8
    endloop
  endfacet
  facet normal 0 0 -1
    outer loop
      vertex -12.994 -2.65249 8
      vertex -10.9271 -2.85317 8
      vertex -11.4184 -3.74006 8
    endloop
  endfacet
  facet normal 0 0 -1
    outer loop
      vertex -10.9271 -2.85317 8
      vertex -12.994 -2.65249 8
      vertex -12.4271 -1.76336 8
    endloop
  endfacet
  facet normal 0 0 -1
    outer loop
      vertex -13.8838 -0.957262 8
      vertex -12.4271 -1.76336 8
      vertex -12.994 -2.65249 8
    endloop
  endfacet
  facet normal 0 0 -1
    outer loop
      vertex -12.4271 -1.76336 8
      vertex -13.8838 -0.957262 8
      vertex -13 0 8
    endloop
  endfacet
  facet normal 0 0 -1
    outer loop
      vertex -7.57295 1.76336 8
      vertex -6.45818 1.85889 8
      vertex -7 0 8
    endloop
  endfacet
  facet normal 0 0 -1
    outer loop
      vertex -7.57295 1.76336 8
      vertex -7.72774 3.29193 8
      vertex -6.45818 1.85889 8
    endloop
  endfacet
  facet normal 0 0 -1
    outer loop
      vertex -9.07295 2.85317 8
      vertex -7.72774 3.29193 8
      vertex -7.57295 1.76336 8
    endloop
  endfacet
  facet normal 0 0 -1
    outer loop
      vertex -9.07295 2.85317 8
      vertex -9.51785 3.97083 8
      vertex -7.72774 3.29193 8
    endloop
  endfacet
  facet normal 0 0 -1
    outer loop
      vertex -10.9271 2.85317 8
      vertex -9.51785 3.97083 8
      vertex -9.07295 2.85317 8
    endloop
  endfacet
  facet normal 0 0 -1
    outer loop
      vertex -10.9271 2.85317 8
      vertex -11.4184 3.74006 8
      vertex -9.51785 3.97083 8
    endloop
  endfacet
  facet normal 0 0 -1
    outer loop
      vertex -12.994 2.65249 8
      vertex -10.9271 2.85317 8
      vertex -12.4271 1.76336 8
    endloop
  endfacet
  facet normal -0 0 -1
    outer loop
      vertex -10.9271 2.85317 8
      vertex -12.994 2.65249 8
      vertex -11.4184 3.74006 8
    endloop
  endfacet
  facet normal 0 0 -1
    outer loop
      vertex -13.8838 0.957262 8
      vertex -12.4271 1.76336 8
      vertex -13 0 8
    endloop
  endfacet
  facet normal 0 0 -1
    outer loop
      vertex -13.8838 0.957262 8
      vertex -13 0 8
      vertex -13.8838 -0.957262 8
    endloop
  endfacet
  facet normal -0 0 -1
    outer loop
      vertex -12.4271 1.76336 8
      vertex -13.8838 0.957262 8
      vertex -12.994 2.65249 8
    endloop
  endfacet
  facet normal 0.951065 0.308992 0
    outer loop
      vertex -12.4271 -1.76336 13
      vertex -13 0 8
      vertex -13 0 13
    endloop
  endfacet
  facet normal 0.951065 0.308992 0
    outer loop
      vertex -13 0 8
      vertex -12.4271 -1.76336 13
      vertex -12.4271 -1.76336 8
    endloop
  endfacet
  facet normal -0.587784 -0.809018 0
    outer loop
      vertex -9.07295 2.85317 8
      vertex -7.57295 1.76336 13
      vertex -9.07295 2.85317 13
    endloop
  endfacet
  facet normal -0.587784 -0.809018 -0
    outer loop
      vertex -7.57295 1.76336 13
      vertex -9.07295 2.85317 8
      vertex -7.57295 1.76336 8
    endloop
  endfacet
  facet normal -0.951057 -0.309017 0
    outer loop
      vertex -7 0 8
      vertex -7.57295 1.76336 13
      vertex -7.57295 1.76336 8
    endloop
  endfacet
  facet normal -0.951057 -0.309017 0
    outer loop
      vertex -7.57295 1.76336 13
      vertex -7 0 8
      vertex -7 0 13
    endloop
  endfacet
  facet normal 0 -1 0
    outer loop
      vertex -10.9271 2.85317 8
      vertex -9.07295 2.85317 13
      vertex -10.9271 2.85317 13
    endloop
  endfacet
  facet normal 0 -1 -0
    outer loop
      vertex -9.07295 2.85317 13
      vertex -10.9271 2.85317 8
      vertex -9.07295 2.85317 8
    endloop
  endfacet
  facet normal 0.587784 0.809018 -0
    outer loop
      vertex -10.9271 -2.85317 8
      vertex -12.4271 -1.76336 13
      vertex -10.9271 -2.85317 13
    endloop
  endfacet
  facet normal 0.587784 0.809018 0
    outer loop
      vertex -12.4271 -1.76336 13
      vertex -10.9271 -2.85317 8
      vertex -12.4271 -1.76336 8
    endloop
  endfacet
  facet normal -0.951057 0.309017 0
    outer loop
      vertex -7.57295 -1.76336 8
      vertex -7 0 13
      vertex -7 0 8
    endloop
  endfacet
  facet normal -0.951057 0.309017 0
    outer loop
      vertex -7 0 13
      vertex -7.57295 -1.76336 8
      vertex -7.57295 -1.76336 13
    endloop
  endfacet
  facet normal 0.587784 -0.809018 0
    outer loop
      vertex -12.4271 1.76336 8
      vertex -10.9271 2.85317 13
      vertex -12.4271 1.76336 13
    endloop
  endfacet
  facet normal 0.587784 -0.809018 0
    outer loop
      vertex -10.9271 2.85317 13
      vertex -12.4271 1.76336 8
      vertex -10.9271 2.85317 8
    endloop
  endfacet
  facet normal 0 1 -0
    outer loop
      vertex -9.07295 -2.85317 8
      vertex -10.9271 -2.85317 13
      vertex -9.07295 -2.85317 13
    endloop
  endfacet
  facet normal 0 1 0
    outer loop
      vertex -10.9271 -2.85317 13
      vertex -9.07295 -2.85317 8
      vertex -10.9271 -2.85317 8
    endloop
  endfacet
  facet normal -0.587784 0.809018 0
    outer loop
      vertex -7.57295 -1.76336 8
      vertex -9.07295 -2.85317 13
      vertex -7.57295 -1.76336 13
    endloop
  endfacet
  facet normal -0.587784 0.809018 0
    outer loop
      vertex -9.07295 -2.85317 13
      vertex -7.57295 -1.76336 8
      vertex -9.07295 -2.85317 8
    endloop
  endfacet
  facet normal 0.951065 -0.308992 0
    outer loop
      vertex -13 0 13
      vertex -12.4271 1.76336 8
      vertex -12.4271 1.76336 13
    endloop
  endfacet
  facet normal 0.951065 -0.308992 0
    outer loop
      vertex -12.4271 1.76336 8
      vertex -13 0 13
      vertex -13 0 8
    endloop
  endfacet
  facet normal 0.587775 0 0.809024
    outer loop
      vertex -7.57295 0 1.76336
      vertex -7.57902 -1.76777 1.76777
      vertex -7.57295 -1.76959 1.76336
    endloop
  endfacet
  facet normal 0.587784 -4.77554e-08 0.809018
    outer loop
      vertex -7.57902 -1.76777 1.76777
      vertex -7.57295 0 1.76336
      vertex -8.58685 0 2.5
    endloop
  endfacet
  facet normal 0.951057 -0 0.309017
    outer loop
      vertex -7.57295 -1.76959 1.76336
      vertex -7 0 0
      vertex -7.57295 0 1.76336
    endloop
  endfacet
  facet normal 0.951057 0 0.309017
    outer loop
      vertex -7 0 0
      vertex -7.57295 -1.76959 1.76336
      vertex -7 -2.5 0
    endloop
  endfacet
  facet normal 0.587775 0 -0.809024
    outer loop
      vertex -7.57902 -1.76777 -1.76777
      vertex -7.57295 0 -1.76336
      vertex -7.57295 -1.76959 -1.76336
    endloop
  endfacet
  facet normal 0.587784 -4.77554e-08 -0.809018
    outer loop
      vertex -7.57295 0 -1.76336
      vertex -7.57902 -1.76777 -1.76777
      vertex -8.58685 0 -2.5
    endloop
  endfacet
  facet normal -0.587747 -9.82308e-06 0.809045
    outer loop
      vertex -12.4271 0 1.76336
      vertex -12.421 -1.76777 1.76777
      vertex -11.4131 0 2.5
    endloop
  endfacet
  facet normal -0.585879 0 0.810399
    outer loop
      vertex -12.421 -1.76777 1.76777
      vertex -12.4271 0 1.76336
      vertex -12.4271 -1.76959 1.76336
    endloop
  endfacet
  facet normal -0.585879 -0 -0.810399
    outer loop
      vertex -12.4271 0 -1.76336
      vertex -12.421 -1.76777 -1.76777
      vertex -12.4271 -1.76959 -1.76336
    endloop
  endfacet
  facet normal -0.587747 -9.82308e-06 -0.809045
    outer loop
      vertex -12.421 -1.76777 -1.76777
      vertex -12.4271 0 -1.76336
      vertex -11.4131 0 -2.5
    endloop
  endfacet
  facet normal 0.951057 0 -0.309017
    outer loop
      vertex -7 0 0
      vertex -7.57295 -1.76959 -1.76336
      vertex -7.57295 0 -1.76336
    endloop
  endfacet
  facet normal 0.951057 0 -0.309017
    outer loop
      vertex -7.57295 -1.76959 -1.76336
      vertex -7 0 0
      vertex -7 -2.5 0
    endloop
  endfacet
  facet normal -0.951065 0 -0.308992
    outer loop
      vertex -12.4271 -1.76959 -1.76336
      vertex -13 0 0
      vertex -12.4271 0 -1.76336
    endloop
  endfacet
  facet normal -0.951065 -0 -0.308992
    outer loop
      vertex -13 0 0
      vertex -12.4271 -1.76959 -1.76336
      vertex -13 -2.5 0
    endloop
  endfacet
  facet normal -0.951065 0 0.308992
    outer loop
      vertex -13 0 0
      vertex -12.4271 -1.76959 1.76336
      vertex -12.4271 0 1.76336
    endloop
  endfacet
  facet normal -0.951065 0 0.308992
    outer loop
      vertex -12.4271 -1.76959 1.76336
      vertex -13 0 0
      vertex -13 -2.5 0
    endloop
  endfacet
  facet normal 0 1 0
    outer loop
      vertex -7 0 0
      vertex -8.58685 0 2.5
      vertex -7.57295 0 1.76336
    endloop
  endfacet
  facet normal 0 1 0
    outer loop
      vertex -8.58685 0 2.5
      vertex -8.58685 0 -2.5
      vertex -11.4131 0 2.5
    endloop
  endfacet
  facet normal 0 1 0
    outer loop
      vertex -8.58685 0 2.5
      vertex -7 0 0
      vertex -8.58685 0 -2.5
    endloop
  endfacet
  facet normal 0 1 0
    outer loop
      vertex -11.4131 0 -2.5
      vertex -11.4131 0 2.5
      vertex -8.58685 0 -2.5
    endloop
  endfacet
  facet normal 0 1 0
    outer loop
      vertex -8.58685 0 -2.5
      vertex -7 0 0
      vertex -7.57295 0 -1.76336
    endloop
  endfacet
  facet normal -0 1 0
    outer loop
      vertex -13 0 0
      vertex -11.4131 0 2.5
      vertex -11.4131 0 -2.5
    endloop
  endfacet
  facet normal 0 1 0
    outer loop
      vertex -11.4131 0 2.5
      vertex -13 0 0
      vertex -12.4271 0 1.76336
    endloop
  endfacet
  facet normal 0 1 0
    outer loop
      vertex -13 0 0
      vertex -11.4131 0 -2.5
      vertex -12.4271 0 -1.76336
    endloop
  endfacet
  facet normal -0.568064 0.822984 0
    outer loop
      vertex 8.58158 3.74006 8
      vertex 7.00596 2.65249 13
      vertex 8.58158 3.74006 13
    endloop
  endfacet
  facet normal -0.568064 0.822984 0
    outer loop
      vertex 7.00596 2.65249 13
      vertex 8.58158 3.74006 8
      vertex 7.00596 2.65249 8
    endloop
  endfacet
  facet normal 0.748527 0.663104 0
    outer loop
      vertex 13.5418 1.85889 13
      vertex 12.2723 3.29193 8
      vertex 12.2723 3.29193 13
    endloop
  endfacet
  facet normal 0.748527 0.663104 0
    outer loop
      vertex 12.2723 3.29193 8
      vertex 13.5418 1.85889 13
      vertex 13.5418 1.85889 8
    endloop
  endfacet
  facet normal 0.970939 0.239328 0
    outer loop
      vertex 14 0 13
      vertex 13.5418 1.85889 8
      vertex 13.5418 1.85889 13
    endloop
  endfacet
  facet normal 0.970939 0.239328 0
    outer loop
      vertex 13.5418 1.85889 8
      vertex 14 0 13
      vertex 14 0 8
    endloop
  endfacet
  facet normal -1 0 0
    outer loop
      vertex 6.11623 -0.957262 8
      vertex 6.11623 0.957262 13
      vertex 6.11623 0.957262 8
    endloop
  endfacet
  facet normal -1 -0 0
    outer loop
      vertex 6.11623 0.957262 13
      vertex 6.11623 -0.957262 8
      vertex 6.11623 -0.957262 13
    endloop
  endfacet
  facet normal -0.885455 0.464726 0
    outer loop
      vertex 6.11623 0.957262 8
      vertex 7.00596 2.65249 13
      vertex 7.00596 2.65249 8
    endloop
  endfacet
  facet normal -0.885455 0.464726 0
    outer loop
      vertex 7.00596 2.65249 13
      vertex 6.11623 0.957262 8
      vertex 6.11623 0.957262 13
    endloop
  endfacet
  facet normal 0.35459 0.935022 -0
    outer loop
      vertex 12.2723 3.29193 8
      vertex 10.4821 3.97083 13
      vertex 12.2723 3.29193 13
    endloop
  endfacet
  facet normal 0.35459 0.935022 0
    outer loop
      vertex 10.4821 3.97083 13
      vertex 12.2723 3.29193 8
      vertex 10.4821 3.97083 8
    endloop
  endfacet
  facet normal 0.970939 -0.239328 0
    outer loop
      vertex 13.5418 -1.85889 13
      vertex 14 0 8
      vertex 14 0 13
    endloop
  endfacet
  facet normal 0.970939 -0.239328 0
    outer loop
      vertex 14 0 8
      vertex 13.5418 -1.85889 13
      vertex 13.5418 -1.85889 8
    endloop
  endfacet
  facet normal 0 0 1
    outer loop
      vertex 13 0 13
      vertex 14 0 13
      vertex 13.5418 1.85889 13
    endloop
  endfacet
  facet normal 0 0 1
    outer loop
      vertex 14 0 13
      vertex 13 0 13
      vertex 13.5418 -1.85889 13
    endloop
  endfacet
  facet normal 0 0 1
    outer loop
      vertex 13.5418 1.85889 13
      vertex 12.4271 1.76336 13
      vertex 13 0 13
    endloop
  endfacet
  facet normal 0 0 1
    outer loop
      vertex 12.2723 3.29193 13
      vertex 12.4271 1.76336 13
      vertex 13.5418 1.85889 13
    endloop
  endfacet
  facet normal 0 0 1
    outer loop
      vertex 12.2723 3.29193 13
      vertex 10.9271 2.85317 13
      vertex 12.4271 1.76336 13
    endloop
  endfacet
  facet normal 0 0 1
    outer loop
      vertex 10.4821 3.97083 13
      vertex 10.9271 2.85317 13
      vertex 12.2723 3.29193 13
    endloop
  endfacet
  facet normal 0 0 1
    outer loop
      vertex 10.4821 3.97083 13
      vertex 9.07295 2.85317 13
      vertex 10.9271 2.85317 13
    endloop
  endfacet
  facet normal -0 0 1
    outer loop
      vertex 8.58158 3.74006 13
      vertex 9.07295 2.85317 13
      vertex 10.4821 3.97083 13
    endloop
  endfacet
  facet normal 0 0 1
    outer loop
      vertex 7.00596 2.65249 13
      vertex 9.07295 2.85317 13
      vertex 8.58158 3.74006 13
    endloop
  endfacet
  facet normal 0 0 1
    outer loop
      vertex 9.07295 2.85317 13
      vertex 7.00596 2.65249 13
      vertex 7.57295 1.76336 13
    endloop
  endfacet
  facet normal 0 0 1
    outer loop
      vertex 6.11623 0.957262 13
      vertex 7.57295 1.76336 13
      vertex 7.00596 2.65249 13
    endloop
  endfacet
  facet normal 0 0 1
    outer loop
      vertex 7.57295 1.76336 13
      vertex 6.11623 0.957262 13
      vertex 7 0 13
    endloop
  endfacet
  facet normal -0 0 1
    outer loop
      vertex 12.4271 -1.76336 13
      vertex 13.5418 -1.85889 13
      vertex 13 0 13
    endloop
  endfacet
  facet normal 0 0 1
    outer loop
      vertex 12.4271 -1.76336 13
      vertex 12.2723 -3.29193 13
      vertex 13.5418 -1.85889 13
    endloop
  endfacet
  facet normal -0 0 1
    outer loop
      vertex 10.9271 -2.85317 13
      vertex 12.2723 -3.29193 13
      vertex 12.4271 -1.76336 13
    endloop
  endfacet
  facet normal 0 0 1
    outer loop
      vertex 10.9271 -2.85317 13
      vertex 10.4821 -3.97083 13
      vertex 12.2723 -3.29193 13
    endloop
  endfacet
  facet normal -0 0 1
    outer loop
      vertex 9.07295 -2.85317 13
      vertex 10.4821 -3.97083 13
      vertex 10.9271 -2.85317 13
    endloop
  endfacet
  facet normal 0 0 1
    outer loop
      vertex 9.07295 -2.85317 13
      vertex 8.58158 -3.74006 13
      vertex 10.4821 -3.97083 13
    endloop
  endfacet
  facet normal -0 0 1
    outer loop
      vertex 7.00596 -2.65249 13
      vertex 9.07295 -2.85317 13
      vertex 7.57295 -1.76336 13
    endloop
  endfacet
  facet normal 0 0 1
    outer loop
      vertex 9.07295 -2.85317 13
      vertex 7.00596 -2.65249 13
      vertex 8.58158 -3.74006 13
    endloop
  endfacet
  facet normal -0 0 1
    outer loop
      vertex 6.11623 -0.957262 13
      vertex 7.57295 -1.76336 13
      vertex 7 0 13
    endloop
  endfacet
  facet normal 0 0 1
    outer loop
      vertex 6.11623 -0.957262 13
      vertex 7 0 13
      vertex 6.11623 0.957262 13
    endloop
  endfacet
  facet normal 0 0 1
    outer loop
      vertex 7.57295 -1.76336 13
      vertex 6.11623 -0.957262 13
      vertex 7.00596 -2.65249 13
    endloop
  endfacet
  facet normal -0.120539 -0.992709 0
    outer loop
      vertex 8.58158 -3.74006 8
      vertex 10.4821 -3.97083 13
      vertex 8.58158 -3.74006 13
    endloop
  endfacet
  facet normal -0.120539 -0.992709 -0
    outer loop
      vertex 10.4821 -3.97083 13
      vertex 8.58158 -3.74006 8
      vertex 10.4821 -3.97083 8
    endloop
  endfacet
  facet normal 0.748527 -0.663104 0
    outer loop
      vertex 12.2723 -3.29193 13
      vertex 13.5418 -1.85889 8
      vertex 13.5418 -1.85889 13
    endloop
  endfacet
  facet normal 0.748527 -0.663104 0
    outer loop
      vertex 13.5418 -1.85889 8
      vertex 12.2723 -3.29193 13
      vertex 12.2723 -3.29193 8
    endloop
  endfacet
  facet normal 0.35459 -0.935022 0
    outer loop
      vertex 10.4821 -3.97083 8
      vertex 12.2723 -3.29193 13
      vertex 10.4821 -3.97083 13
    endloop
  endfacet
  facet normal 0.35459 -0.935022 0
    outer loop
      vertex 12.2723 -3.29193 13
      vertex 10.4821 -3.97083 8
      vertex 12.2723 -3.29193 8
    endloop
  endfacet
  facet normal -0.120539 0.992709 0
    outer loop
      vertex 10.4821 3.97083 8
      vertex 8.58158 3.74006 13
      vertex 10.4821 3.97083 13
    endloop
  endfacet
  facet normal -0.120539 0.992709 0
    outer loop
      vertex 8.58158 3.74006 13
      vertex 10.4821 3.97083 8
      vertex 8.58158 3.74006 8
    endloop
  endfacet
  facet normal -0.568064 -0.822984 0
    outer loop
      vertex 7.00596 -2.65249 8
      vertex 8.58158 -3.74006 13
      vertex 7.00596 -2.65249 13
    endloop
  endfacet
  facet normal -0.568064 -0.822984 -0
    outer loop
      vertex 8.58158 -3.74006 13
      vertex 7.00596 -2.65249 8
      vertex 8.58158 -3.74006 8
    endloop
  endfacet
  facet normal -0.885455 -0.464726 0
    outer loop
      vertex 7.00596 -2.65249 8
      vertex 6.11623 -0.957262 13
      vertex 6.11623 -0.957262 8
    endloop
  endfacet
  facet normal -0.885455 -0.464726 0
    outer loop
      vertex 6.11623 -0.957262 13
      vertex 7.00596 -2.65249 8
      vertex 7.00596 -2.65249 13
    endloop
  endfacet
  facet normal 0 0 -1
    outer loop
      vertex 13 0 8
      vertex 14 0 8
      vertex 13.5418 -1.85889 8
    endloop
  endfacet
  facet normal 0 0 -1
    outer loop
      vertex 14 0 8
      vertex 13 0 8
      vertex 13.5418 1.85889 8
    endloop
  endfacet
  facet normal 0 0 -1
    outer loop
      vertex 13.5418 -1.85889 8
      vertex 12.4271 -1.76336 8
      vertex 13 0 8
    endloop
  endfacet
  facet normal 0 0 -1
    outer loop
      vertex 12.2723 -3.29193 8
      vertex 12.4271 -1.76336 8
      vertex 13.5418 -1.85889 8
    endloop
  endfacet
  facet normal 0 0 -1
    outer loop
      vertex 12.2723 -3.29193 8
      vertex 10.9271 -2.85317 8
      vertex 12.4271 -1.76336 8
    endloop
  endfacet
  facet normal 0 0 -1
    outer loop
      vertex 10.4821 -3.97083 8
      vertex 10.9271 -2.85317 8
      vertex 12.2723 -3.29193 8
    endloop
  endfacet
  facet normal 0 0 -1
    outer loop
      vertex 10.4821 -3.97083 8
      vertex 9.07295 -2.85317 8
      vertex 10.9271 -2.85317 8
    endloop
  endfacet
  facet normal 0 0 -1
    outer loop
      vertex 8.58158 -3.74006 8
      vertex 9.07295 -2.85317 8
      vertex 10.4821 -3.97083 8
    endloop
  endfacet
  facet normal 0 0 -1
    outer loop
      vertex 7.00596 -2.65249 8
      vertex 9.07295 -2.85317 8
      vertex 8.58158 -3.74006 8
    endloop
  endfacet
  facet normal 0 0 -1
    outer loop
      vertex 9.07295 -2.85317 8
      vertex 7.00596 -2.65249 8
      vertex 7.57295 -1.76336 8
    endloop
  endfacet
  facet normal 0 0 -1
    outer loop
      vertex 6.11623 -0.957262 8
      vertex 7.57295 -1.76336 8
      vertex 7.00596 -2.65249 8
    endloop
  endfacet
  facet normal 0 0 -1
    outer loop
      vertex 7.57295 -1.76336 8
      vertex 6.11623 -0.957262 8
      vertex 7 0 8
    endloop
  endfacet
  facet normal 0 0 -1
    outer loop
      vertex 12.4271 1.76336 8
      vertex 13.5418 1.85889 8
      vertex 13 0 8
    endloop
  endfacet
  facet normal 0 0 -1
    outer loop
      vertex 12.4271 1.76336 8
      vertex 12.2723 3.29193 8
      vertex 13.5418 1.85889 8
    endloop
  endfacet
  facet normal 0 0 -1
    outer loop
      vertex 10.9271 2.85317 8
      vertex 12.2723 3.29193 8
      vertex 12.4271 1.76336 8
    endloop
  endfacet
  facet normal 0 0 -1
    outer loop
      vertex 10.9271 2.85317 8
      vertex 10.4821 3.97083 8
      vertex 12.2723 3.29193 8
    endloop
  endfacet
  facet normal 0 0 -1
    outer loop
      vertex 9.07295 2.85317 8
      vertex 10.4821 3.97083 8
      vertex 10.9271 2.85317 8
    endloop
  endfacet
  facet normal 0 0 -1
    outer loop
      vertex 9.07295 2.85317 8
      vertex 8.58158 3.74006 8
      vertex 10.4821 3.97083 8
    endloop
  endfacet
  facet normal 0 0 -1
    outer loop
      vertex 7.00596 2.65249 8
      vertex 9.07295 2.85317 8
      vertex 7.57295 1.76336 8
    endloop
  endfacet
  facet normal -0 0 -1
    outer loop
      vertex 9.07295 2.85317 8
      vertex 7.00596 2.65249 8
      vertex 8.58158 3.74006 8
    endloop
  endfacet
  facet normal 0 0 -1
    outer loop
      vertex 6.11623 0.957262 8
      vertex 7.57295 1.76336 8
      vertex 7 0 8
    endloop
  endfacet
  facet normal 0 0 -1
    outer loop
      vertex 6.11623 0.957262 8
      vertex 7 0 8
      vertex 6.11623 -0.957262 8
    endloop
  endfacet
  facet normal -0 0 -1
    outer loop
      vertex 7.57295 1.76336 8
      vertex 6.11623 0.957262 8
      vertex 7.00596 2.65249 8
    endloop
  endfacet
  facet normal 0.951057 0.309017 0
    outer loop
      vertex 7.57295 -1.76336 13
      vertex 7 0 8
      vertex 7 0 13
    endloop
  endfacet
  facet normal 0.951057 0.309017 0
    outer loop
      vertex 7 0 8
      vertex 7.57295 -1.76336 13
      vertex 7.57295 -1.76336 8
    endloop
  endfacet
  facet normal -0.587784 -0.809018 0
    outer loop
      vertex 10.9271 2.85317 8
      vertex 12.4271 1.76336 13
      vertex 10.9271 2.85317 13
    endloop
  endfacet
  facet normal -0.587784 -0.809018 -0
    outer loop
      vertex 12.4271 1.76336 13
      vertex 10.9271 2.85317 8
      vertex 12.4271 1.76336 8
    endloop
  endfacet
  facet normal -0.951065 -0.308992 0
    outer loop
      vertex 13 0 8
      vertex 12.4271 1.76336 13
      vertex 12.4271 1.76336 8
    endloop
  endfacet
  facet normal -0.951065 -0.308992 0
    outer loop
      vertex 12.4271 1.76336 13
      vertex 13 0 8
      vertex 13 0 13
    endloop
  endfacet
  facet normal 0 -1 0
    outer loop
      vertex 9.07295 2.85317 8
      vertex 10.9271 2.85317 13
      vertex 9.07295 2.85317 13
    endloop
  endfacet
  facet normal 0 -1 -0
    outer loop
      vertex 10.9271 2.85317 13
      vertex 9.07295 2.85317 8
      vertex 10.9271 2.85317 8
    endloop
  endfacet
  facet normal 0.587784 0.809018 -0
    outer loop
      vertex 9.07295 -2.85317 8
      vertex 7.57295 -1.76336 13
      vertex 9.07295 -2.85317 13
    endloop
  endfacet
  facet normal 0.587784 0.809018 0
    outer loop
      vertex 7.57295 -1.76336 13
      vertex 9.07295 -2.85317 8
      vertex 7.57295 -1.76336 8
    endloop
  endfacet
  facet normal -0.951065 0.308992 0
    outer loop
      vertex 12.4271 -1.76336 8
      vertex 13 0 13
      vertex 13 0 8
    endloop
  endfacet
  facet normal -0.951065 0.308992 0
    outer loop
      vertex 13 0 13
      vertex 12.4271 -1.76336 8
      vertex 12.4271 -1.76336 13
    endloop
  endfacet
  facet normal 0.587784 -0.809018 0
    outer loop
      vertex 7.57295 1.76336 8
      vertex 9.07295 2.85317 13
      vertex 7.57295 1.76336 13
    endloop
  endfacet
  facet normal 0.587784 -0.809018 0
    outer loop
      vertex 9.07295 2.85317 13
      vertex 7.57295 1.76336 8
      vertex 9.07295 2.85317 8
    endloop
  endfacet
  facet normal 0 1 -0
    outer loop
      vertex 10.9271 -2.85317 8
      vertex 9.07295 -2.85317 13
      vertex 10.9271 -2.85317 13
    endloop
  endfacet
  facet normal 0 1 0
    outer loop
      vertex 9.07295 -2.85317 13
      vertex 10.9271 -2.85317 8
      vertex 9.07295 -2.85317 8
    endloop
  endfacet
  facet normal -0.587784 0.809018 0
    outer loop
      vertex 12.4271 -1.76336 8
      vertex 10.9271 -2.85317 13
      vertex 12.4271 -1.76336 13
    endloop
  endfacet
  facet normal -0.587784 0.809018 0
    outer loop
      vertex 10.9271 -2.85317 13
      vertex 12.4271 -1.76336 8
      vertex 10.9271 -2.85317 8
    endloop
  endfacet
  facet normal 0.951057 -0.309017 0
    outer loop
      vertex 7 0 13
      vertex 7.57295 1.76336 8
      vertex 7.57295 1.76336 13
    endloop
  endfacet
  facet normal 0.951057 -0.309017 0
    outer loop
      vertex 7.57295 1.76336 8
      vertex 7 0 13
      vertex 7 0 8
    endloop
  endfacet
  facet normal 0.585879 0 0.810399
    outer loop
      vertex 12.4271 0 1.76336
      vertex 12.421 -1.76777 1.76777
      vertex 12.4271 -1.76959 1.76336
    endloop
  endfacet
  facet normal 0.587747 -9.82308e-06 0.809045
    outer loop
      vertex 12.421 -1.76777 1.76777
      vertex 12.4271 0 1.76336
      vertex 11.4131 0 2.5
    endloop
  endfacet
  facet normal 0.951065 -0 0.308992
    outer loop
      vertex 12.4271 -1.76959 1.76336
      vertex 13 0 0
      vertex 12.4271 0 1.76336
    endloop
  endfacet
  facet normal 0.951065 0 0.308992
    outer loop
      vertex 13 0 0
      vertex 12.4271 -1.76959 1.76336
      vertex 13 -2.5 0
    endloop
  endfacet
  facet normal 0.585879 0 -0.810399
    outer loop
      vertex 12.421 -1.76777 -1.76777
      vertex 12.4271 0 -1.76336
      vertex 12.4271 -1.76959 -1.76336
    endloop
  endfacet
  facet normal 0.587747 -9.82308e-06 -0.809045
    outer loop
      vertex 12.4271 0 -1.76336
      vertex 12.421 -1.76777 -1.76777
      vertex 11.4131 0 -2.5
    endloop
  endfacet
  facet normal -0.587784 -4.77554e-08 0.809018
    outer loop
      vertex 7.57295 0 1.76336
      vertex 7.57902 -1.76777 1.76777
      vertex 8.58685 0 2.5
    endloop
  endfacet
  facet normal -0.587775 0 0.809024
    outer loop
      vertex 7.57902 -1.76777 1.76777
      vertex 7.57295 0 1.76336
      vertex 7.57295 -1.76959 1.76336
    endloop
  endfacet
  facet normal -0.587775 -0 -0.809024
    outer loop
      vertex 7.57295 0 -1.76336
      vertex 7.57902 -1.76777 -1.76777
      vertex 7.57295 -1.76959 -1.76336
    endloop
  endfacet
  facet normal -0.587784 -4.77554e-08 -0.809018
    outer loop
      vertex 7.57902 -1.76777 -1.76777
      vertex 7.57295 0 -1.76336
      vertex 8.58685 0 -2.5
    endloop
  endfacet
  facet normal 0.951065 0 -0.308992
    outer loop
      vertex 13 0 0
      vertex 12.4271 -1.76959 -1.76336
      vertex 12.4271 0 -1.76336
    endloop
  endfacet
  facet normal 0.951065 0 -0.308992
    outer loop
      vertex 12.4271 -1.76959 -1.76336
      vertex 13 0 0
      vertex 13 -2.5 0
    endloop
  endfacet
  facet normal -0.951057 0 -0.309017
    outer loop
      vertex 7.57295 -1.76959 -1.76336
      vertex 7 0 0
      vertex 7.57295 0 -1.76336
    endloop
  endfacet
  facet normal -0.951057 -0 -0.309017
    outer loop
      vertex 7 0 0
      vertex 7.57295 -1.76959 -1.76336
      vertex 7 -2.5 0
    endloop
  endfacet
  facet normal -0.951057 0 0.309017
    outer loop
      vertex 7 0 0
      vertex 7.57295 -1.76959 1.76336
      vertex 7.57295 0 1.76336
    endloop
  endfacet
  facet normal -0.951057 0 0.309017
    outer loop
      vertex 7.57295 -1.76959 1.76336
      vertex 7 0 0
      vertex 7 -2.5 0
    endloop
  endfacet
  facet normal 0 1 0
    outer loop
      vertex 13 0 0
      vertex 11.4131 0 2.5
      vertex 12.4271 0 1.76336
    endloop
  endfacet
  facet normal 0 1 0
    outer loop
      vertex 11.4131 0 2.5
      vertex 11.4131 0 -2.5
      vertex 8.58685 0 2.5
    endloop
  endfacet
  facet normal 0 1 0
    outer loop
      vertex 11.4131 0 2.5
      vertex 13 0 0
      vertex 11.4131 0 -2.5
    endloop
  endfacet
  facet normal 0 1 0
    outer loop
      vertex 8.58685 0 -2.5
      vertex 8.58685 0 2.5
      vertex 11.4131 0 -2.5
    endloop
  endfacet
  facet normal 0 1 0
    outer loop
      vertex 11.4131 0 -2.5
      vertex 13 0 0
      vertex 12.4271 0 -1.76336
    endloop
  endfacet
  facet normal -0 1 0
    outer loop
      vertex 7 0 0
      vertex 8.58685 0 2.5
      vertex 8.58685 0 -2.5
    endloop
  endfacet
  facet normal 0 1 0
    outer loop
      vertex 8.58685 0 2.5
      vertex 7 0 0
      vertex 7.57295 0 1.76336
    endloop
  endfacet
  facet normal 0 1 0
    outer loop
      vertex 7 0 0
      vertex 8.58685 0 -2.5
      vertex 7.57295 0 -1.76336
    endloop
  endfacet
endsolid OpenSCAD_Model
