solid OpenSCAD_Model
  facet normal 1 -0 0
    outer loop
      vertex 25 -10 1
      vertex 25 10 -1
      vertex 25 10 1
    endloop
  endfacet
  facet normal 1 0 0
    outer loop
      vertex 25 10 -1
      vertex 25 -10 1
      vertex 25 -10 -1
    endloop
  endfacet
  facet normal -0 0 1
    outer loop
      vertex -25 10 1
      vertex 25 -10 1
      vertex 25 10 1
    endloop
  endfacet
  facet normal 0 0 1
    outer loop
      vertex 25 -10 1
      vertex -25 10 1
      vertex -25 -10 1
    endloop
  endfacet
  facet normal 0 0 -1
    outer loop
      vertex -25 -10 -1
      vertex 25 10 -1
      vertex 25 -10 -1
    endloop
  endfacet
  facet normal -0 0 -1
    outer loop
      vertex 25 10 -1
      vertex -25 -10 -1
      vertex -25 10 -1
    endloop
  endfacet
  facet normal -1 0 0
    outer loop
      vertex -25 -10 -1
      vertex -25 10 1
      vertex -25 10 -1
    endloop
  endfacet
  facet normal -1 -0 0
    outer loop
      vertex -25 10 1
      vertex -25 -10 -1
      vertex -25 -10 1
    endloop
  endfacet
  facet normal 0 1 -0
    outer loop
      vertex 25 10 -1
      vertex -25 10 1
      vertex 25 10 1
    endloop
  endfacet
  facet normal 0 1 0
    outer loop
      vertex -25 10 1
      vertex 25 10 -1
      vertex -25 10 -1
    endloop
  endfacet
  facet normal 0 -1 0
    outer loop
      vertex -25 -10 -1
      vertex 25 -10 1
      vertex -25 -10 1
    endloop
  endfacet
  facet normal 0 -1 -0
    outer loop
      vertex 25 -10 1
      vertex -25 -10 -1
      vertex 25 -10 -1
    endloop
  endfacet
  facet normal 1 -0 0
    outer loop
      vertex 25 -10 8
      vertex 25 10 6
      vertex 25 10 8
    endloop
  endfacet
  facet normal 1 0 0
    outer loop
      vertex 25 10 6
      vertex 25 -10 8
      vertex 25 -10 6
    endloop
  endfacet
  facet normal -0 0 1
    outer loop
      vertex -25 10 8
      vertex 25 -10 8
      vertex 25 10 8
    endloop
  endfacet
  facet normal 0 0 1
    outer loop
      vertex 25 -10 8
      vertex -25 10 8
      vertex -25 -10 8
    endloop
  endfacet
  facet normal 0 0 -1
    outer loop
      vertex -25 -10 6
      vertex 25 10 6
      vertex 25 -10 6
    endloop
  endfacet
  facet normal -0 0 -1
    outer loop
      vertex 25 10 6
      vertex -25 -10 6
      vertex -25 10 6
    endloop
  endfacet
  facet normal -1 0 0
    outer loop
      vertex -25 -10 6
      vertex -25 10 8
      vertex -25 10 6
    endloop
  endfacet
  facet normal -1 -0 0
    outer loop
      vertex -25 10 8
      vertex -25 -10 6
      vertex -25 -10 8
    endloop
  endfacet
  facet normal 0 1 -0
    outer loop
      vertex 25 10 6
      vertex -25 10 8
      vertex 25 10 8
    endloop
  endfacet
  facet normal 0 1 0
    outer loop
      vertex -25 10 8
      vertex 25 10 6
      vertex -25 10 6
    endloop
  endfacet
  facet normal 0 -1 0
    outer loop
      vertex -25 -10 6
      vertex 25 -10 8
      vertex -25 -10 8
    endloop
  endfacet
  facet normal 0 -1 -0
    outer loop
      vertex 25 -10 8
      vertex -25 -10 6
      vertex 25 -10 6
    endloop
  endfacet
  facet normal 1 -0 0
    outer loop
      vertex 25 -10 15
      vertex 25 10 13
      vertex 25 10 15
    endloop
  endfacet
  facet normal 1 0 0
    outer loop
      vertex 25 10 13
      vertex 25 -10 15
      vertex 25 -10 13
    endloop
  endfacet
  facet normal -0 0 1
    outer loop
      vertex -25 10 15
      vertex 25 -10 15
      vertex 25 10 15
    endloop
  endfacet
  facet normal 0 0 1
    outer loop
      vertex 25 -10 15
      vertex -25 10 15
      vertex -25 -10 15
    endloop
  endfacet
  facet normal 0 0 -1
    outer loop
      vertex -25 -10 13
      vertex 25 10 13
      vertex 25 -10 13
    endloop
  endfacet
  facet normal -0 0 -1
    outer loop
      vertex 25 10 13
      vertex -25 -10 13
      vertex -25 10 13
    endloop
  endfacet
  facet normal -1 0 0
    outer loop
      vertex -25 -10 13
      vertex -25 10 15
      vertex -25 10 13
    endloop
  endfacet
  facet normal -1 -0 0
    outer loop
      vertex -25 10 15
      vertex -25 -10 13
      vertex -25 -10 15
    endloop
  endfacet
  facet normal 0 1 -0
    outer loop
      vertex 25 10 13
      vertex -25 10 15
      vertex 25 10 15
    endloop
  endfacet
  facet normal 0 1 0
    outer loop
      vertex -25 10 15
      vertex 25 10 13
      vertex -25 10 13
    endloop
  endfacet
  facet normal 0 -1 0
    outer loop
      vertex -25 -10 13
      vertex 25 -10 15
      vertex -25 -10 15
    endloop
  endfacet
  facet normal 0 -1 -0
    outer loop
      vertex 25 -10 15
      vertex -25 -10 13
      vertex 25 -10 13
    endloop
  endfacet
  facet normal 1 -0 0
    outer loop
      vertex 25 -10 22
      vertex 25 10 20
      vertex 25 10 22
    endloop
  endfacet
  facet normal 1 0 0
    outer loop
      vertex 25 10 20
      vertex 25 -10 22
      vertex 25 -10 20
    endloop
  endfacet
  facet normal -0 0 1
    outer loop
      vertex -25 10 22
      vertex 25 -10 22
      vertex 25 10 22
    endloop
  endfacet
  facet normal 0 0 1
    outer loop
      vertex 25 -10 22
      vertex -25 10 22
      vertex -25 -10 22
    endloop
  endfacet
  facet normal 0 0 -1
    outer loop
      vertex -25 -10 20
      vertex 25 10 20
      vertex 25 -10 20
    endloop
  endfacet
  facet normal -0 0 -1
    outer loop
      vertex 25 10 20
      vertex -25 -10 20
      vertex -25 10 20
    endloop
  endfacet
  facet normal -1 0 0
    outer loop
      vertex -25 -10 20
      vertex -25 10 22
      vertex -25 10 20
    endloop
  endfacet
  facet normal -1 -0 0
    outer loop
      vertex -25 10 22
      vertex -25 -10 20
      vertex -25 -10 22
    endloop
  endfacet
  facet normal 0 1 -0
    outer loop
      vertex 25 10 20
      vertex -25 10 22
      vertex 25 10 22
    endloop
  endfacet
  facet normal 0 1 0
    outer loop
      vertex -25 10 22
      vertex 25 10 20
      vertex -25 10 20
    endloop
  endfacet
  facet normal 0 -1 0
    outer loop
      vertex -25 -10 20
      vertex 25 -10 22
      vertex -25 -10 22
    endloop
  endfacet
  facet normal 0 -1 -0
    outer loop
      vertex 25 -10 22
      vertex -25 -10 20
      vertex 25 -10 20
    endloop
  endfacet
  facet normal 1 -0 0
    outer loop
      vertex 25 -10 29
      vertex 25 10 27
      vertex 25 10 29
    endloop
  endfacet
  facet normal 1 0 0
    outer loop
      vertex 25 10 27
      vertex 25 -10 29
      vertex 25 -10 27
    endloop
  endfacet
  facet normal -0 0 1
    outer loop
      vertex -25 10 29
      vertex 25 -10 29
      vertex 25 10 29
    endloop
  endfacet
  facet normal 0 0 1
    outer loop
      vertex 25 -10 29
      vertex -25 10 29
      vertex -25 -10 29
    endloop
  endfacet
  facet normal 0 0 -1
    outer loop
      vertex -25 -10 27
      vertex 25 10 27
      vertex 25 -10 27
    endloop
  endfacet
  facet normal -0 0 -1
    outer loop
      vertex 25 10 27
      vertex -25 -10 27
      vertex -25 10 27
    endloop
  endfacet
  facet normal -1 0 0
    outer loop
      vertex -25 -10 27
      vertex -25 10 29
      vertex -25 10 27
    endloop
  endfacet
  facet normal -1 -0 0
    outer loop
      vertex -25 10 29
      vertex -25 -10 27
      vertex -25 -10 29
    endloop
  endfacet
  facet normal 0 1 -0
    outer loop
      vertex 25 10 27
      vertex -25 10 29
      vertex 25 10 29
    endloop
  endfacet
  facet normal 0 1 0
    outer loop
      vertex -25 10 29
      vertex 25 10 27
      vertex -25 10 27
    endloop
  endfacet
  facet normal 0 -1 0
    outer loop
      vertex -25 -10 27
      vertex 25 -10 29
      vertex -25 -10 29
    endloop
  endfacet
  facet normal 0 -1 -0
    outer loop
      vertex 25 -10 29
      vertex -25 -10 27
      vertex 25 -10 27
    endloop
  endfacet
  facet normal 1 -0 0
    outer loop
      vertex 25 -10 36
      vertex 25 10 34
      vertex 25 10 36
    endloop
  endfacet
  facet normal 1 0 0
    outer loop
      vertex 25 10 34
      vertex 25 -10 36
      vertex 25 -10 34
    endloop
  endfacet
  facet normal -0 0 1
    outer loop
      vertex -25 10 36
      vertex 25 -10 36
      vertex 25 10 36
    endloop
  endfacet
  facet normal 0 0 1
    outer loop
      vertex 25 -10 36
      vertex -25 10 36
      vertex -25 -10 36
    endloop
  endfacet
  facet normal 0 0 -1
    outer loop
      vertex -25 -10 34
      vertex 25 10 34
      vertex 25 -10 34
    endloop
  endfacet
  facet normal -0 0 -1
    outer loop
      vertex 25 10 34
      vertex -25 -10 34
      vertex -25 10 34
    endloop
  endfacet
  facet normal -1 0 0
    outer loop
      vertex -25 -10 34
      vertex -25 10 36
      vertex -25 10 34
    endloop
  endfacet
  facet normal -1 -0 0
    outer loop
      vertex -25 10 36
      vertex -25 -10 34
      vertex -25 -10 36
    endloop
  endfacet
  facet normal 0 1 -0
    outer loop
      vertex 25 10 34
      vertex -25 10 36
      vertex 25 10 36
    endloop
  endfacet
  facet normal 0 1 0
    outer loop
      vertex -25 10 36
      vertex 25 10 34
      vertex -25 10 34
    endloop
  endfacet
  facet normal 0 -1 0
    outer loop
      vertex -25 -10 34
      vertex 25 -10 36
      vertex -25 -10 36
    endloop
  endfacet
  facet normal 0 -1 -0
    outer loop
      vertex 25 -10 36
      vertex -25 -10 34
      vertex 25 -10 34
    endloop
  endfacet
endsolid OpenSCAD_Model
