solid OpenSCAD_Model
  facet normal 1 0 0
    outer loop
      vertex 25 25 38
      vertex 25 -12.5 32
      vertex 25 25 32
    endloop
  endfacet
  facet normal 1 -0 0
    outer loop
      vertex 25 -25 38
      vertex 25 -12.5 32
      vertex 25 25 38
    endloop
  endfacet
  facet normal 1 -0 0
    outer loop
      vertex 25 -25 35
      vertex 25 -12.5 32
      vertex 25 -25 38
    endloop
  endfacet
  facet normal 1 0 0
    outer loop
      vertex 25 -12.5 32
      vertex 25 -25 35
      vertex 25 -12.5 29
    endloop
  endfacet
  facet normal 1 0 0
    outer loop
      vertex 25 -37.5 29
      vertex 25 -25 35
      vertex 25 -37.5 35
    endloop
  endfacet
  facet normal 1 0 0
    outer loop
      vertex 25 -25 35
      vertex 25 -37.5 29
      vertex 25 -12.5 29
    endloop
  endfacet
  facet normal -0 0 1
    outer loop
      vertex -25 25 38
      vertex 25 -25 38
      vertex 25 25 38
    endloop
  endfacet
  facet normal 0 0 1
    outer loop
      vertex 25 -25 38
      vertex -25 25 38
      vertex -25 -25 38
    endloop
  endfacet
  facet normal 0 0 -1
    outer loop
      vertex -25 -12.5 32
      vertex 25 25 32
      vertex 25 -12.5 32
    endloop
  endfacet
  facet normal -0 0 -1
    outer loop
      vertex 25 25 32
      vertex -25 -12.5 32
      vertex -25 25 32
    endloop
  endfacet
  facet normal -1 0 0
    outer loop
      vertex -25 -12.5 29
      vertex -25 -25 35
      vertex -25 -12.5 32
    endloop
  endfacet
  facet normal -1 0 0
    outer loop
      vertex -25 -37.5 29
      vertex -25 -25 35
      vertex -25 -12.5 29
    endloop
  endfacet
  facet normal -1 -0 0
    outer loop
      vertex -25 -25 35
      vertex -25 -37.5 29
      vertex -25 -37.5 35
    endloop
  endfacet
  facet normal -1 0 0
    outer loop
      vertex -25 -12.5 32
      vertex -25 25 38
      vertex -25 25 32
    endloop
  endfacet
  facet normal -1 0 0
    outer loop
      vertex -25 -25 38
      vertex -25 -12.5 32
      vertex -25 -25 35
    endloop
  endfacet
  facet normal -1 0 0
    outer loop
      vertex -25 -12.5 32
      vertex -25 -25 38
      vertex -25 25 38
    endloop
  endfacet
  facet normal 0 1 -0
    outer loop
      vertex 25 25 32
      vertex -25 25 38
      vertex 25 25 38
    endloop
  endfacet
  facet normal 0 1 0
    outer loop
      vertex -25 25 38
      vertex 25 25 32
      vertex -25 25 32
    endloop
  endfacet
  facet normal 0 -1 0
    outer loop
      vertex -25 -25 35
      vertex 25 -25 38
      vertex -25 -25 38
    endloop
  endfacet
  facet normal 0 -1 -0
    outer loop
      vertex 25 -25 38
      vertex -25 -25 35
      vertex 25 -25 35
    endloop
  endfacet
  facet normal -0 0 1
    outer loop
      vertex -25 -25 35
      vertex 25 -37.5 35
      vertex 25 -25 35
    endloop
  endfacet
  facet normal 0 0 1
    outer loop
      vertex 25 -37.5 35
      vertex -25 -25 35
      vertex -25 -37.5 35
    endloop
  endfacet
  facet normal 0 0 -1
    outer loop
      vertex -25 -37.5 29
      vertex 25 -12.5 29
      vertex 25 -37.5 29
    endloop
  endfacet
  facet normal -0 0 -1
    outer loop
      vertex 25 -12.5 29
      vertex -25 -37.5 29
      vertex -25 -12.5 29
    endloop
  endfacet
  facet normal 0 1 -0
    outer loop
      vertex 25 -12.5 29
      vertex -25 -12.5 32
      vertex 25 -12.5 32
    endloop
  endfacet
  facet normal 0 1 0
    outer loop
      vertex -25 -12.5 32
      vertex 25 -12.5 29
      vertex -25 -12.5 29
    endloop
  endfacet
  facet normal 0 -1 0
    outer loop
      vertex -25 -37.5 29
      vertex 25 -37.5 35
      vertex -25 -37.5 35
    endloop
  endfacet
  facet normal 0 -1 -0
    outer loop
      vertex 25 -37.5 35
      vertex -25 -37.5 29
      vertex 25 -37.5 29
    endloop
  endfacet
  facet normal 1 -0 0
    outer loop
      vertex 17.5 -17.5 25
      vertex 17.5 17.5 5
      vertex 17.5 17.5 25
    endloop
  endfacet
  facet normal 1 0 0
    outer loop
      vertex 17.5 17.5 5
      vertex 17.5 -17.5 25
      vertex 17.5 -17.5 5
    endloop
  endfacet
  facet normal -0 0 1
    outer loop
      vertex -17.5 17.5 25
      vertex 17.5 -17.5 25
      vertex 17.5 17.5 25
    endloop
  endfacet
  facet normal 0 0 1
    outer loop
      vertex 17.5 -17.5 25
      vertex -17.5 17.5 25
      vertex -17.5 -17.5 25
    endloop
  endfacet
  facet normal 0 0 -1
    outer loop
      vertex -17.5 -17.5 5
      vertex 17.5 17.5 5
      vertex 17.5 -17.5 5
    endloop
  endfacet
  facet normal -0 0 -1
    outer loop
      vertex 17.5 17.5 5
      vertex -17.5 -17.5 5
      vertex -17.5 17.5 5
    endloop
  endfacet
  facet normal -1 0 0
    outer loop
      vertex -17.5 -17.5 5
      vertex -17.5 17.5 25
      vertex -17.5 17.5 5
    endloop
  endfacet
  facet normal -1 -0 0
    outer loop
      vertex -17.5 17.5 25
      vertex -17.5 -17.5 5
      vertex -17.5 -17.5 25
    endloop
  endfacet
  facet normal 0 1 -0
    outer loop
      vertex 17.5 17.5 5
      vertex -17.5 17.5 25
      vertex 17.5 17.5 25
    endloop
  endfacet
  facet normal 0 1 0
    outer loop
      vertex -17.5 17.5 25
      vertex 17.5 17.5 5
      vertex -17.5 17.5 5
    endloop
  endfacet
  facet normal 0 -1 0
    outer loop
      vertex -17.5 -17.5 5
      vertex 17.5 -17.5 25
      vertex -17.5 -17.5 25
    endloop
  endfacet
  facet normal 0 -1 -0
    outer loop
      vertex 17.5 -17.5 25
      vertex -17.5 -17.5 5
      vertex 17.5 -17.5 5
    endloop
  endfacet
  facet normal 1 -0 0
    outer loop
      vertex 27.5 -27.5 4
      vertex 27.5 27.5 -14
      vertex 27.5 27.5 4
    endloop
  endfacet
  facet normal 1 0 0
    outer loop
      vertex 27.5 27.5 -14
      vertex 27.5 -27.5 4
      vertex 27.5 -27.5 -14
    endloop
  endfacet
  facet normal -0 0 1
    outer loop
      vertex -27.5 27.5 4
      vertex 27.5 -27.5 4
      vertex 27.5 27.5 4
    endloop
  endfacet
  facet normal 0 0 1
    outer loop
      vertex 27.5 -27.5 4
      vertex -27.5 27.5 4
      vertex -27.5 -27.5 4
    endloop
  endfacet
  facet normal 0 0 -1
    outer loop
      vertex -27.5 -27.5 -14
      vertex 27.5 27.5 -14
      vertex 27.5 -27.5 -14
    endloop
  endfacet
  facet normal -0 0 -1
    outer loop
      vertex 27.5 27.5 -14
      vertex -27.5 -27.5 -14
      vertex -27.5 27.5 -14
    endloop
  endfacet
  facet normal -1 0 0
    outer loop
      vertex -27.5 -27.5 -14
      vertex -27.5 27.5 4
      vertex -27.5 27.5 -14
    endloop
  endfacet
  facet normal -1 -0 0
    outer loop
      vertex -27.5 27.5 4
      vertex -27.5 -27.5 -14
      vertex -27.5 -27.5 4
    endloop
  endfacet
  facet normal 0 1 -0
    outer loop
      vertex 27.5 27.5 -14
      vertex -27.5 27.5 4
      vertex 27.5 27.5 4
    endloop
  endfacet
  facet normal 0 1 0
    outer loop
      vertex -27.5 27.5 4
      vertex 27.5 27.5 -14
      vertex -27.5 27.5 -14
    endloop
  endfacet
  facet normal 0 -1 0
    outer loop
      vertex -27.5 -27.5 -14
      vertex 27.5 -27.5 4
      vertex -27.5 -27.5 4
    endloop
  endfacet
  facet normal 0 -1 -0
    outer loop
      vertex 27.5 -27.5 4
      vertex -27.5 -27.5 -14
      vertex 27.5 -27.5 -14
    endloop
  endfacet
  facet normal 1 -0 0
    outer loop
      vertex 25 -25 51
      vertex 25 25 49
      vertex 25 25 51
    endloop
  endfacet
  facet normal 1 0 0
    outer loop
      vertex 25 25 49
      vertex 25 -25 51
      vertex 25 -25 49
    endloop
  endfacet
  facet normal -0 0 1
    outer loop
      vertex -25 25 51
      vertex 25 -25 51
      vertex 25 25 51
    endloop
  endfacet
  facet normal 0 0 1
    outer loop
      vertex 25 -25 51
      vertex -25 25 51
      vertex -25 -25 51
    endloop
  endfacet
  facet normal 0 0 -1
    outer loop
      vertex -25 -25 49
      vertex 25 25 49
      vertex 25 -25 49
    endloop
  endfacet
  facet normal -0 0 -1
    outer loop
      vertex 25 25 49
      vertex -25 -25 49
      vertex -25 25 49
    endloop
  endfacet
  facet normal -1 0 0
    outer loop
      vertex -25 -25 49
      vertex -25 25 51
      vertex -25 25 49
    endloop
  endfacet
  facet normal -1 -0 0
    outer loop
      vertex -25 25 51
      vertex -25 -25 49
      vertex -25 -25 51
    endloop
  endfacet
  facet normal 0 1 -0
    outer loop
      vertex 25 25 49
      vertex -25 25 51
      vertex 25 25 51
    endloop
  endfacet
  facet normal 0 1 0
    outer loop
      vertex -25 25 51
      vertex 25 25 49
      vertex -25 25 49
    endloop
  endfacet
  facet normal 0 -1 0
    outer loop
      vertex -25 -25 49
      vertex 25 -25 51
      vertex -25 -25 51
    endloop
  endfacet
  facet normal 0 -1 -0
    outer loop
      vertex 25 -25 51
      vertex -25 -25 49
      vertex 25 -25 49
    endloop
  endfacet
  facet normal 1 -0 0
    outer loop
      vertex 14 -14 -16
      vertex 14 14 -24
      vertex 14 14 -16
    endloop
  endfacet
  facet normal 1 0 0
    outer loop
      vertex 14 14 -24
      vertex 14 -14 -16
      vertex 14 -14 -24
    endloop
  endfacet
  facet normal -0 0 1
    outer loop
      vertex -14 14 -16
      vertex 14 -14 -16
      vertex 14 14 -16
    endloop
  endfacet
  facet normal 0 0 1
    outer loop
      vertex 14 -14 -16
      vertex -14 14 -16
      vertex -14 -14 -16
    endloop
  endfacet
  facet normal 0 0 -1
    outer loop
      vertex -14 -14 -24
      vertex 14 14 -24
      vertex 14 -14 -24
    endloop
  endfacet
  facet normal -0 0 -1
    outer loop
      vertex 14 14 -24
      vertex -14 -14 -24
      vertex -14 14 -24
    endloop
  endfacet
  facet normal -1 0 0
    outer loop
      vertex -14 -14 -24
      vertex -14 14 -16
      vertex -14 14 -24
    endloop
  endfacet
  facet normal -1 -0 0
    outer loop
      vertex -14 14 -16
      vertex -14 -14 -24
      vertex -14 -14 -16
    endloop
  endfacet
  facet normal 0 1 -0
    outer loop
      vertex 14 14 -24
      vertex -14 14 -16
      vertex 14 14 -16
    endloop
  endfacet
  facet normal 0 1 0
    outer loop
      vertex -14 14 -16
      vertex 14 14 -24
      vertex -14 14 -24
    endloop
  endfacet
  facet normal 0 -1 0
    outer loop
      vertex -14 -14 -24
      vertex 14 -14 -16
      vertex -14 -14 -16
    endloop
  endfacet
  facet normal 0 -1 -0
    outer loop
      vertex 14 -14 -16
      vertex -14 -14 -24
      vertex 14 -14 -24
    endloop
  endfacet
endsolid OpenSCAD_Model
