solid OpenSCAD_Model
  facet normal 1 -0 0
    outer loop
      vertex 25 -25 25
      vertex 25 25 -25
      vertex 25 25 25
    endloop
  endfacet
  facet normal 1 0 0
    outer loop
      vertex 25 25 -25
      vertex 25 -25 25
      vertex 25 -25 -25
    endloop
  endfacet
  facet normal -0 0 1
    outer loop
      vertex -25 25 25
      vertex 25 -25 25
      vertex 25 25 25
    endloop
  endfacet
  facet normal 0 0 1
    outer loop
      vertex 25 -25 25
      vertex -25 25 25
      vertex -25 -25 25
    endloop
  endfacet
  facet normal 0 0 -1
    outer loop
      vertex -25 -25 -25
      vertex 25 25 -25
      vertex 25 -25 -25
    endloop
  endfacet
  facet normal -0 0 -1
    outer loop
      vertex 25 25 -25
      vertex -25 -25 -25
      vertex -25 25 -25
    endloop
  endfacet
  facet normal -1 0 0
    outer loop
      vertex -25 -25 -25
      vertex -25 25 25
      vertex -25 25 -25
    endloop
  endfacet
  facet normal -1 -0 0
    outer loop
      vertex -25 25 25
      vertex -25 -25 -25
      vertex -25 -25 25
    endloop
  endfacet
  facet normal 0 1 0
    outer loop
      vertex 25 25 25
      vertex 1.04528 25 9.94522
      vertex -25 25 25
    endloop
  endfacet
  facet normal 0 1 0
    outer loop
      vertex 25 25 25
      vertex 3.09017 25 9.51056
      vertex 1.04528 25 9.94522
    endloop
  endfacet
  facet normal 0 1 0
    outer loop
      vertex 25 25 25
      vertex 5 25 8.66025
      vertex 3.09017 25 9.51056
    endloop
  endfacet
  facet normal 0 1 0
    outer loop
      vertex 25 25 25
      vertex 6.69131 25 7.43145
      vertex 5 25 8.66025
    endloop
  endfacet
  facet normal 0 1 0
    outer loop
      vertex 25 25 25
      vertex 8.09017 25 5.87785
      vertex 6.69131 25 7.43145
    endloop
  endfacet
  facet normal 0 1 0
    outer loop
      vertex 25 25 25
      vertex 9.13545 25 4.06737
      vertex 8.09017 25 5.87785
    endloop
  endfacet
  facet normal 0 1 0
    outer loop
      vertex 25 25 25
      vertex 9.78148 25 2.07912
      vertex 9.13545 25 4.06737
    endloop
  endfacet
  facet normal 0 1 0
    outer loop
      vertex 25 25 25
      vertex 10 25 0
      vertex 9.78148 25 2.07912
    endloop
  endfacet
  facet normal 0 1 -0
    outer loop
      vertex 25 25 -25
      vertex 10 25 0
      vertex 25 25 25
    endloop
  endfacet
  facet normal 0 1 0
    outer loop
      vertex 10 25 0
      vertex 25 25 -25
      vertex 9.78148 25 -2.07912
    endloop
  endfacet
  facet normal 0 1 0
    outer loop
      vertex 1.04528 25 -9.94522
      vertex 25 25 -25
      vertex -1.04528 25 -9.94522
    endloop
  endfacet
  facet normal 0 1 0
    outer loop
      vertex 3.09017 25 -9.51056
      vertex 25 25 -25
      vertex 1.04528 25 -9.94522
    endloop
  endfacet
  facet normal 0 1 0
    outer loop
      vertex 5 25 -8.66025
      vertex 25 25 -25
      vertex 3.09017 25 -9.51056
    endloop
  endfacet
  facet normal 0 1 0
    outer loop
      vertex 6.69131 25 -7.43145
      vertex 25 25 -25
      vertex 5 25 -8.66025
    endloop
  endfacet
  facet normal 0 1 0
    outer loop
      vertex 8.09017 25 -5.87785
      vertex 25 25 -25
      vertex 6.69131 25 -7.43145
    endloop
  endfacet
  facet normal 0 1 0
    outer loop
      vertex 9.13545 25 -4.06737
      vertex 25 25 -25
      vertex 8.09017 25 -5.87785
    endloop
  endfacet
  facet normal 0 1 0
    outer loop
      vertex 9.78148 25 -2.07912
      vertex 25 25 -25
      vertex 9.13545 25 -4.06737
    endloop
  endfacet
  facet normal 0 1 -0
    outer loop
      vertex -1.04528 25 9.94522
      vertex -25 25 25
      vertex 1.04528 25 9.94522
    endloop
  endfacet
  facet normal 0 1 -0
    outer loop
      vertex -3.09017 25 9.51056
      vertex -25 25 25
      vertex -1.04528 25 9.94522
    endloop
  endfacet
  facet normal 0 1 -0
    outer loop
      vertex -5 25 8.66025
      vertex -25 25 25
      vertex -3.09017 25 9.51056
    endloop
  endfacet
  facet normal 0 1 -0
    outer loop
      vertex -6.69131 25 7.43145
      vertex -25 25 25
      vertex -5 25 8.66025
    endloop
  endfacet
  facet normal 0 1 -0
    outer loop
      vertex -8.09017 25 5.87785
      vertex -25 25 25
      vertex -6.69131 25 7.43145
    endloop
  endfacet
  facet normal 0 1 -0
    outer loop
      vertex -9.13545 25 4.06737
      vertex -25 25 25
      vertex -8.09017 25 5.87785
    endloop
  endfacet
  facet normal 0 1 -0
    outer loop
      vertex -9.78148 25 2.07912
      vertex -25 25 25
      vertex -9.13545 25 4.06737
    endloop
  endfacet
  facet normal 0 1 -0
    outer loop
      vertex -10 25 0
      vertex -25 25 25
      vertex -9.78148 25 2.07912
    endloop
  endfacet
  facet normal 0 1 0
    outer loop
      vertex -25 25 -25
      vertex -10 25 0
      vertex -9.78148 25 -2.07912
    endloop
  endfacet
  facet normal 0 1 0
    outer loop
      vertex -25 25 -25
      vertex -9.78148 25 -2.07912
      vertex -9.13545 25 -4.06737
    endloop
  endfacet
  facet normal 0 1 0
    outer loop
      vertex -25 25 -25
      vertex -1.04528 25 -9.94522
      vertex 25 25 -25
    endloop
  endfacet
  facet normal 0 1 0
    outer loop
      vertex -1.04528 25 -9.94522
      vertex -25 25 -25
      vertex -3.09017 25 -9.51056
    endloop
  endfacet
  facet normal 0 1 0
    outer loop
      vertex -10 25 0
      vertex -25 25 -25
      vertex -25 25 25
    endloop
  endfacet
  facet normal 0 1 0
    outer loop
      vertex -8.09017 25 -5.87785
      vertex -25 25 -25
      vertex -9.13545 25 -4.06737
    endloop
  endfacet
  facet normal 0 1 0
    outer loop
      vertex -6.69131 25 -7.43145
      vertex -25 25 -25
      vertex -8.09017 25 -5.87785
    endloop
  endfacet
  facet normal 0 1 0
    outer loop
      vertex -5 25 -8.66025
      vertex -25 25 -25
      vertex -6.69131 25 -7.43145
    endloop
  endfacet
  facet normal 0 1 0
    outer loop
      vertex -3.09017 25 -9.51056
      vertex -25 25 -25
      vertex -5 25 -8.66025
    endloop
  endfacet
  facet normal 0 -1 0
    outer loop
      vertex -25 -25 25
      vertex -1.04528 -25 9.94522
      vertex 25 -25 25
    endloop
  endfacet
  facet normal 0 -1 0
    outer loop
      vertex -25 -25 25
      vertex -3.09017 -25 9.51056
      vertex -1.04528 -25 9.94522
    endloop
  endfacet
  facet normal 0 -1 0
    outer loop
      vertex -25 -25 25
      vertex -5 -25 8.66025
      vertex -3.09017 -25 9.51056
    endloop
  endfacet
  facet normal 0 -1 0
    outer loop
      vertex -25 -25 25
      vertex -6.69131 -25 7.43145
      vertex -5 -25 8.66025
    endloop
  endfacet
  facet normal 0 -1 0
    outer loop
      vertex -25 -25 25
      vertex -8.09017 -25 5.87785
      vertex -6.69131 -25 7.43145
    endloop
  endfacet
  facet normal 0 -1 0
    outer loop
      vertex -25 -25 25
      vertex -9.13545 -25 4.06737
      vertex -8.09017 -25 5.87785
    endloop
  endfacet
  facet normal 0 -1 0
    outer loop
      vertex -25 -25 25
      vertex -9.78148 -25 2.07912
      vertex -9.13545 -25 4.06737
    endloop
  endfacet
  facet normal 0 -1 0
    outer loop
      vertex -25 -25 25
      vertex -10 -25 0
      vertex -9.78148 -25 2.07912
    endloop
  endfacet
  facet normal 0 -1 0
    outer loop
      vertex -25 -25 -25
      vertex -10 -25 0
      vertex -25 -25 25
    endloop
  endfacet
  facet normal 0 -1 -0
    outer loop
      vertex -10 -25 0
      vertex -25 -25 -25
      vertex -9.78148 -25 -2.07912
    endloop
  endfacet
  facet normal 0 -1 -0
    outer loop
      vertex -1.04528 -25 -9.94522
      vertex -25 -25 -25
      vertex 1.04528 -25 -9.94522
    endloop
  endfacet
  facet normal 0 -1 -0
    outer loop
      vertex -3.09017 -25 -9.51056
      vertex -25 -25 -25
      vertex -1.04528 -25 -9.94522
    endloop
  endfacet
  facet normal 0 -1 -0
    outer loop
      vertex -5 -25 -8.66025
      vertex -25 -25 -25
      vertex -3.09017 -25 -9.51056
    endloop
  endfacet
  facet normal 0 -1 -0
    outer loop
      vertex -6.69131 -25 -7.43145
      vertex -25 -25 -25
      vertex -5 -25 -8.66025
    endloop
  endfacet
  facet normal 0 -1 -0
    outer loop
      vertex -8.09017 -25 -5.87785
      vertex -25 -25 -25
      vertex -6.69131 -25 -7.43145
    endloop
  endfacet
  facet normal 0 -1 -0
    outer loop
      vertex -9.13545 -25 -4.06737
      vertex -25 -25 -25
      vertex -8.09017 -25 -5.87785
    endloop
  endfacet
  facet normal 0 -1 -0
    outer loop
      vertex -9.78148 -25 -2.07912
      vertex -25 -25 -25
      vertex -9.13545 -25 -4.06737
    endloop
  endfacet
  facet normal 0 -1 0
    outer loop
      vertex 1.04528 -25 9.94522
      vertex 25 -25 25
      vertex -1.04528 -25 9.94522
    endloop
  endfacet
  facet normal 0 -1 0
    outer loop
      vertex 3.09017 -25 9.51056
      vertex 25 -25 25
      vertex 1.04528 -25 9.94522
    endloop
  endfacet
  facet normal 0 -1 0
    outer loop
      vertex 5 -25 8.66025
      vertex 25 -25 25
      vertex 3.09017 -25 9.51056
    endloop
  endfacet
  facet normal 0 -1 0
    outer loop
      vertex 6.69131 -25 7.43145
      vertex 25 -25 25
      vertex 5 -25 8.66025
    endloop
  endfacet
  facet normal 0 -1 0
    outer loop
      vertex 8.09017 -25 5.87785
      vertex 25 -25 25
      vertex 6.69131 -25 7.43145
    endloop
  endfacet
  facet normal 0 -1 0
    outer loop
      vertex 9.13545 -25 4.06737
      vertex 25 -25 25
      vertex 8.09017 -25 5.87785
    endloop
  endfacet
  facet normal 0 -1 0
    outer loop
      vertex 9.78148 -25 2.07912
      vertex 25 -25 25
      vertex 9.13545 -25 4.06737
    endloop
  endfacet
  facet normal 0 -1 0
    outer loop
      vertex 10 -25 0
      vertex 25 -25 25
      vertex 9.78148 -25 2.07912
    endloop
  endfacet
  facet normal 0 -1 0
    outer loop
      vertex 25 -25 -25
      vertex 10 -25 0
      vertex 9.78148 -25 -2.07912
    endloop
  endfacet
  facet normal 0 -1 0
    outer loop
      vertex 25 -25 -25
      vertex 9.78148 -25 -2.07912
      vertex 9.13545 -25 -4.06737
    endloop
  endfacet
  facet normal 0 -1 0
    outer loop
      vertex 25 -25 -25
      vertex 1.04528 -25 -9.94522
      vertex -25 -25 -25
    endloop
  endfacet
  facet normal 0 -1 0
    outer loop
      vertex 1.04528 -25 -9.94522
      vertex 25 -25 -25
      vertex 3.09017 -25 -9.51056
    endloop
  endfacet
  facet normal 0 -1 0
    outer loop
      vertex 10 -25 0
      vertex 25 -25 -25
      vertex 25 -25 25
    endloop
  endfacet
  facet normal 0 -1 0
    outer loop
      vertex 8.09017 -25 -5.87785
      vertex 25 -25 -25
      vertex 9.13545 -25 -4.06737
    endloop
  endfacet
  facet normal 0 -1 0
    outer loop
      vertex 6.69131 -25 -7.43145
      vertex 25 -25 -25
      vertex 8.09017 -25 -5.87785
    endloop
  endfacet
  facet normal 0 -1 0
    outer loop
      vertex 5 -25 -8.66025
      vertex 25 -25 -25
      vertex 6.69131 -25 -7.43145
    endloop
  endfacet
  facet normal 0 -1 0
    outer loop
      vertex 3.09017 -25 -9.51056
      vertex 25 -25 -25
      vertex 5 -25 -8.66025
    endloop
  endfacet
  facet normal -0.587783 0 -0.809019
    outer loop
      vertex 5 -25 8.66025
      vertex 6.69131 25 7.43145
      vertex 6.69131 -25 7.43145
    endloop
  endfacet
  facet normal -0.587783 0 -0.809019
    outer loop
      vertex 6.69131 25 7.43145
      vertex 5 -25 8.66025
      vertex 5 25 8.66025
    endloop
  endfacet
  facet normal 0.866026 0 -0.5
    outer loop
      vertex -8.09017 -25 5.87785
      vertex -9.13545 25 4.06737
      vertex -8.09017 25 5.87785
    endloop
  endfacet
  facet normal 0.866026 0 -0.5
    outer loop
      vertex -9.13545 25 4.06737
      vertex -8.09017 -25 5.87785
      vertex -9.13545 -25 4.06737
    endloop
  endfacet
  facet normal -0.587783 0 0.809019
    outer loop
      vertex 5 25 -8.66025
      vertex 6.69131 -25 -7.43145
      vertex 6.69131 25 -7.43145
    endloop
  endfacet
  facet normal -0.587783 0 0.809019
    outer loop
      vertex 6.69131 -25 -7.43145
      vertex 5 25 -8.66025
      vertex 5 -25 -8.66025
    endloop
  endfacet
  facet normal 0.951055 -0 0.309021
    outer loop
      vertex -9.78148 -25 -2.07912
      vertex -9.13545 25 -4.06737
      vertex -9.78148 25 -2.07912
    endloop
  endfacet
  facet normal 0.951055 0 0.309021
    outer loop
      vertex -9.13545 25 -4.06737
      vertex -9.78148 -25 -2.07912
      vertex -9.13545 -25 -4.06737
    endloop
  endfacet
  facet normal -0.866026 0 -0.5
    outer loop
      vertex 9.13545 -25 4.06737
      vertex 8.09017 25 5.87785
      vertex 9.13545 25 4.06737
    endloop
  endfacet
  facet normal -0.866026 -0 -0.5
    outer loop
      vertex 8.09017 25 5.87785
      vertex 9.13545 -25 4.06737
      vertex 8.09017 -25 5.87785
    endloop
  endfacet
  facet normal -0.994522 0 -0.104526
    outer loop
      vertex 10 -25 0
      vertex 9.78148 25 2.07912
      vertex 10 25 0
    endloop
  endfacet
  facet normal -0.994522 -0 -0.104526
    outer loop
      vertex 9.78148 25 2.07912
      vertex 10 -25 0
      vertex 9.78148 -25 2.07912
    endloop
  endfacet
  facet normal -0.207914 0 0.978147
    outer loop
      vertex 1.04528 25 -9.94522
      vertex 3.09017 -25 -9.51056
      vertex 3.09017 25 -9.51056
    endloop
  endfacet
  facet normal -0.207914 0 0.978147
    outer loop
      vertex 3.09017 -25 -9.51056
      vertex 1.04528 25 -9.94522
      vertex 1.04528 -25 -9.94522
    endloop
  endfacet
  facet normal 0.866026 -0 0.5
    outer loop
      vertex -9.13545 -25 -4.06737
      vertex -8.09017 25 -5.87785
      vertex -9.13545 25 -4.06737
    endloop
  endfacet
  facet normal 0.866026 0 0.5
    outer loop
      vertex -8.09017 25 -5.87785
      vertex -9.13545 -25 -4.06737
      vertex -8.09017 -25 -5.87785
    endloop
  endfacet
  facet normal 0.743147 -0 0.669129
    outer loop
      vertex -8.09017 -25 -5.87785
      vertex -6.69131 25 -7.43145
      vertex -8.09017 25 -5.87785
    endloop
  endfacet
  facet normal 0.743147 0 0.669129
    outer loop
      vertex -6.69131 25 -7.43145
      vertex -8.09017 -25 -5.87785
      vertex -6.69131 -25 -7.43145
    endloop
  endfacet
  facet normal 0.951055 0 -0.309021
    outer loop
      vertex -9.13545 -25 4.06737
      vertex -9.78148 25 2.07912
      vertex -9.13545 25 4.06737
    endloop
  endfacet
  facet normal 0.951055 0 -0.309021
    outer loop
      vertex -9.78148 25 2.07912
      vertex -9.13545 -25 4.06737
      vertex -9.78148 -25 2.07912
    endloop
  endfacet
  facet normal -0 0 1
    outer loop
      vertex -1.04528 25 -9.94522
      vertex 1.04528 -25 -9.94522
      vertex 1.04528 25 -9.94522
    endloop
  endfacet
  facet normal 0 0 1
    outer loop
      vertex 1.04528 -25 -9.94522
      vertex -1.04528 25 -9.94522
      vertex -1.04528 -25 -9.94522
    endloop
  endfacet
  facet normal -0.406736 0 0.913546
    outer loop
      vertex 3.09017 25 -9.51056
      vertex 5 -25 -8.66025
      vertex 5 25 -8.66025
    endloop
  endfacet
  facet normal -0.406736 0 0.913546
    outer loop
      vertex 5 -25 -8.66025
      vertex 3.09017 25 -9.51056
      vertex 3.09017 -25 -9.51056
    endloop
  endfacet
  facet normal -0.951055 0 -0.309021
    outer loop
      vertex 9.78148 -25 2.07912
      vertex 9.13545 25 4.06737
      vertex 9.78148 25 2.07912
    endloop
  endfacet
  facet normal -0.951055 -0 -0.309021
    outer loop
      vertex 9.13545 25 4.06737
      vertex 9.78148 -25 2.07912
      vertex 9.13545 -25 4.06737
    endloop
  endfacet
  facet normal 0.207914 0 -0.978147
    outer loop
      vertex -3.09017 -25 9.51056
      vertex -1.04528 25 9.94522
      vertex -1.04528 -25 9.94522
    endloop
  endfacet
  facet normal 0.207914 0 -0.978147
    outer loop
      vertex -1.04528 25 9.94522
      vertex -3.09017 -25 9.51056
      vertex -3.09017 25 9.51056
    endloop
  endfacet
  facet normal -0.994522 0 0.104526
    outer loop
      vertex 9.78148 -25 -2.07912
      vertex 10 25 0
      vertex 9.78148 25 -2.07912
    endloop
  endfacet
  facet normal -0.994522 0 0.104526
    outer loop
      vertex 10 25 0
      vertex 9.78148 -25 -2.07912
      vertex 10 -25 0
    endloop
  endfacet
  facet normal -0.951055 0 0.309021
    outer loop
      vertex 9.13545 -25 -4.06737
      vertex 9.78148 25 -2.07912
      vertex 9.13545 25 -4.06737
    endloop
  endfacet
  facet normal -0.951055 0 0.309021
    outer loop
      vertex 9.78148 25 -2.07912
      vertex 9.13545 -25 -4.06737
      vertex 9.78148 -25 -2.07912
    endloop
  endfacet
  facet normal -0.406736 0 -0.913546
    outer loop
      vertex 3.09017 -25 9.51056
      vertex 5 25 8.66025
      vertex 5 -25 8.66025
    endloop
  endfacet
  facet normal -0.406736 0 -0.913546
    outer loop
      vertex 5 25 8.66025
      vertex 3.09017 -25 9.51056
      vertex 3.09017 25 9.51056
    endloop
  endfacet
  facet normal 0.406736 0 -0.913546
    outer loop
      vertex -5 -25 8.66025
      vertex -3.09017 25 9.51056
      vertex -3.09017 -25 9.51056
    endloop
  endfacet
  facet normal 0.406736 0 -0.913546
    outer loop
      vertex -3.09017 25 9.51056
      vertex -5 -25 8.66025
      vertex -5 25 8.66025
    endloop
  endfacet
  facet normal 0.587783 0 0.809019
    outer loop
      vertex -6.69131 25 -7.43145
      vertex -5 -25 -8.66025
      vertex -5 25 -8.66025
    endloop
  endfacet
  facet normal 0.587783 0 0.809019
    outer loop
      vertex -5 -25 -8.66025
      vertex -6.69131 25 -7.43145
      vertex -6.69131 -25 -7.43145
    endloop
  endfacet
  facet normal 0.406736 0 0.913546
    outer loop
      vertex -5 25 -8.66025
      vertex -3.09017 -25 -9.51056
      vertex -3.09017 25 -9.51056
    endloop
  endfacet
  facet normal 0.406736 0 0.913546
    outer loop
      vertex -3.09017 -25 -9.51056
      vertex -5 25 -8.66025
      vertex -5 -25 -8.66025
    endloop
  endfacet
  facet normal 0 0 -1
    outer loop
      vertex -1.04528 -25 9.94522
      vertex 1.04528 25 9.94522
      vertex 1.04528 -25 9.94522
    endloop
  endfacet
  facet normal -0 0 -1
    outer loop
      vertex 1.04528 25 9.94522
      vertex -1.04528 -25 9.94522
      vertex -1.04528 25 9.94522
    endloop
  endfacet
  facet normal 0.207914 0 0.978147
    outer loop
      vertex -3.09017 25 -9.51056
      vertex -1.04528 -25 -9.94522
      vertex -1.04528 25 -9.94522
    endloop
  endfacet
  facet normal 0.207914 0 0.978147
    outer loop
      vertex -1.04528 -25 -9.94522
      vertex -3.09017 25 -9.51056
      vertex -3.09017 -25 -9.51056
    endloop
  endfacet
  facet normal 0.994522 -0 0.104526
    outer loop
      vertex -10 -25 0
      vertex -9.78148 25 -2.07912
      vertex -10 25 0
    endloop
  endfacet
  facet normal 0.994522 0 0.104526
    outer loop
      vertex -9.78148 25 -2.07912
      vertex -10 -25 0
      vertex -9.78148 -25 -2.07912
    endloop
  endfacet
  facet normal -0.743147 0 0.669129
    outer loop
      vertex 6.69131 -25 -7.43145
      vertex 8.09017 25 -5.87785
      vertex 6.69131 25 -7.43145
    endloop
  endfacet
  facet normal -0.743147 0 0.669129
    outer loop
      vertex 8.09017 25 -5.87785
      vertex 6.69131 -25 -7.43145
      vertex 8.09017 -25 -5.87785
    endloop
  endfacet
  facet normal -0.743147 0 -0.669129
    outer loop
      vertex 8.09017 -25 5.87785
      vertex 6.69131 25 7.43145
      vertex 8.09017 25 5.87785
    endloop
  endfacet
  facet normal -0.743147 -0 -0.669129
    outer loop
      vertex 6.69131 25 7.43145
      vertex 8.09017 -25 5.87785
      vertex 6.69131 -25 7.43145
    endloop
  endfacet
  facet normal -0.207914 0 -0.978147
    outer loop
      vertex 1.04528 -25 9.94522
      vertex 3.09017 25 9.51056
      vertex 3.09017 -25 9.51056
    endloop
  endfacet
  facet normal -0.207914 0 -0.978147
    outer loop
      vertex 3.09017 25 9.51056
      vertex 1.04528 -25 9.94522
      vertex 1.04528 25 9.94522
    endloop
  endfacet
  facet normal 0.743147 0 -0.669129
    outer loop
      vertex -6.69131 -25 7.43145
      vertex -8.09017 25 5.87785
      vertex -6.69131 25 7.43145
    endloop
  endfacet
  facet normal 0.743147 0 -0.669129
    outer loop
      vertex -8.09017 25 5.87785
      vertex -6.69131 -25 7.43145
      vertex -8.09017 -25 5.87785
    endloop
  endfacet
  facet normal 0.587783 0 -0.809019
    outer loop
      vertex -6.69131 -25 7.43145
      vertex -5 25 8.66025
      vertex -5 -25 8.66025
    endloop
  endfacet
  facet normal 0.587783 0 -0.809019
    outer loop
      vertex -5 25 8.66025
      vertex -6.69131 -25 7.43145
      vertex -6.69131 25 7.43145
    endloop
  endfacet
  facet normal 0.994522 0 -0.104526
    outer loop
      vertex -9.78148 -25 2.07912
      vertex -10 25 0
      vertex -9.78148 25 2.07912
    endloop
  endfacet
  facet normal 0.994522 0 -0.104526
    outer loop
      vertex -10 25 0
      vertex -9.78148 -25 2.07912
      vertex -10 -25 0
    endloop
  endfacet
  facet normal -0.866026 0 0.5
    outer loop
      vertex 8.09017 -25 -5.87785
      vertex 9.13545 25 -4.06737
      vertex 8.09017 25 -5.87785
    endloop
  endfacet
  facet normal -0.866026 0 0.5
    outer loop
      vertex 9.13545 25 -4.06737
      vertex 8.09017 -25 -5.87785
      vertex 9.13545 -25 -4.06737
    endloop
  endfacet
endsolid OpenSCAD_Model
