solid OpenSCAD_Model
  facet normal 0 1 0
    outer loop
      vertex 40 0 0
      vertex 15 0 25
      vertex 25 0 25
    endloop
  endfacet
  facet normal 0 1 0
    outer loop
      vertex 15 0 25
      vertex 40 0 0
      vertex 0 0 0
    endloop
  endfacet
  facet normal -0.857493 0 -0.514496
    outer loop
      vertex 40 0 0
      vertex 25 12 25
      vertex 40 12 0
    endloop
  endfacet
  facet normal -0.857493 -0 -0.514496
    outer loop
      vertex 25 12 25
      vertex 40 0 0
      vertex 25 0 25
    endloop
  endfacet
  facet normal 0 -1 0
    outer loop
      vertex 0 12 0
      vertex 25 12 25
      vertex 15 12 25
    endloop
  endfacet
  facet normal 0 -1 -0
    outer loop
      vertex 25 12 25
      vertex 0 12 0
      vertex 40 12 0
    endloop
  endfacet
  facet normal 0.857493 0 -0.514496
    outer loop
      vertex 15 0 25
      vertex 0 12 0
      vertex 15 12 25
    endloop
  endfacet
  facet normal 0.857493 0 -0.514496
    outer loop
      vertex 0 12 0
      vertex 15 0 25
      vertex 0 0 0
    endloop
  endfacet
  facet normal 0 0 -1
    outer loop
      vertex 15 0 25
      vertex 25 12 25
      vertex 25 0 25
    endloop
  endfacet
  facet normal -0 0 -1
    outer loop
      vertex 25 12 25
      vertex 15 0 25
      vertex 15 12 25
    endloop
  endfacet
  facet normal 0 0 -1
    outer loop
      vertex 0 0 0
      vertex 40 12 0
      vertex 40 0 0
    endloop
  endfacet
  facet normal -0 0 -1
    outer loop
      vertex 40 12 0
      vertex 0 0 0
      vertex 0 12 0
    endloop
  endfacet
endsolid OpenSCAD_Model
