solid OpenSCAD_Model
  facet normal 1 -0 0
    outer loop
      vertex 15 -15 27.5
      vertex 15 15 22.5
      vertex 15 15 27.5
    endloop
  endfacet
  facet normal 1 0 0
    outer loop
      vertex 15 15 22.5
      vertex 15 -15 27.5
      vertex 15 -15 22.5
    endloop
  endfacet
  facet normal -0 0 1
    outer loop
      vertex -15 15 27.5
      vertex 15 -15 27.5
      vertex 15 15 27.5
    endloop
  endfacet
  facet normal 0 0 1
    outer loop
      vertex 15 -15 27.5
      vertex -15 15 27.5
      vertex -15 -15 27.5
    endloop
  endfacet
  facet normal 0 0 -1
    outer loop
      vertex -15 -15 22.5
      vertex 15 15 22.5
      vertex 15 -15 22.5
    endloop
  endfacet
  facet normal -0 0 -1
    outer loop
      vertex 15 15 22.5
      vertex -15 -15 22.5
      vertex -15 15 22.5
    endloop
  endfacet
  facet normal -1 0 0
    outer loop
      vertex -15 -15 22.5
      vertex -15 15 27.5
      vertex -15 15 22.5
    endloop
  endfacet
  facet normal -1 -0 0
    outer loop
      vertex -15 15 27.5
      vertex -15 -15 22.5
      vertex -15 -15 27.5
    endloop
  endfacet
  facet normal 0 1 -0
    outer loop
      vertex 15 15 22.5
      vertex -15 15 27.5
      vertex 15 15 27.5
    endloop
  endfacet
  facet normal 0 1 0
    outer loop
      vertex -15 15 27.5
      vertex 15 15 22.5
      vertex -15 15 22.5
    endloop
  endfacet
  facet normal 0 -1 0
    outer loop
      vertex -15 -15 22.5
      vertex 15 -15 27.5
      vertex -15 -15 27.5
    endloop
  endfacet
  facet normal 0 -1 -0
    outer loop
      vertex 15 -15 27.5
      vertex -15 -15 22.5
      vertex 15 -15 22.5
    endloop
  endfacet
  facet normal 1 -0 0
    outer loop
      vertex 15 -15 17.5
      vertex 15 15 12.5
      vertex 15 15 17.5
    endloop
  endfacet
  facet normal 1 0 0
    outer loop
      vertex 15 15 12.5
      vertex 15 -15 17.5
      vertex 15 -15 12.5
    endloop
  endfacet
  facet normal -0 0 1
    outer loop
      vertex -15 15 17.5
      vertex 15 -15 17.5
      vertex 15 15 17.5
    endloop
  endfacet
  facet normal 0 0 1
    outer loop
      vertex 15 -15 17.5
      vertex -15 15 17.5
      vertex -15 -15 17.5
    endloop
  endfacet
  facet normal 0 0 -1
    outer loop
      vertex -15 -15 12.5
      vertex 15 15 12.5
      vertex 15 -15 12.5
    endloop
  endfacet
  facet normal -0 0 -1
    outer loop
      vertex 15 15 12.5
      vertex -15 -15 12.5
      vertex -15 15 12.5
    endloop
  endfacet
  facet normal -1 0 0
    outer loop
      vertex -15 -15 12.5
      vertex -15 15 17.5
      vertex -15 15 12.5
    endloop
  endfacet
  facet normal -1 -0 0
    outer loop
      vertex -15 15 17.5
      vertex -15 -15 12.5
      vertex -15 -15 17.5
    endloop
  endfacet
  facet normal 0 1 -0
    outer loop
      vertex 15 15 12.5
      vertex -15 15 17.5
      vertex 15 15 17.5
    endloop
  endfacet
  facet normal 0 1 0
    outer loop
      vertex -15 15 17.5
      vertex 15 15 12.5
      vertex -15 15 12.5
    endloop
  endfacet
  facet normal 0 -1 0
    outer loop
      vertex -15 -15 12.5
      vertex 15 -15 17.5
      vertex -15 -15 17.5
    endloop
  endfacet
  facet normal 0 -1 -0
    outer loop
      vertex 15 -15 17.5
      vertex -15 -15 12.5
      vertex 15 -15 12.5
    endloop
  endfacet
  facet normal 1 -0 0
    outer loop
      vertex 15 -15 7.5
      vertex 15 15 2.5
      vertex 15 15 7.5
    endloop
  endfacet
  facet normal 1 0 0
    outer loop
      vertex 15 15 2.5
      vertex 15 -15 7.5
      vertex 15 -15 2.5
    endloop
  endfacet
  facet normal -0 0 1
    outer loop
      vertex -15 15 7.5
      vertex 15 -15 7.5
      vertex 15 15 7.5
    endloop
  endfacet
  facet normal 0 0 1
    outer loop
      vertex 15 -15 7.5
      vertex -15 15 7.5
      vertex -15 -15 7.5
    endloop
  endfacet
  facet normal 0 0 -1
    outer loop
      vertex -15 -15 2.5
      vertex 15 15 2.5
      vertex 15 -15 2.5
    endloop
  endfacet
  facet normal -0 0 -1
    outer loop
      vertex 15 15 2.5
      vertex -15 -15 2.5
      vertex -15 15 2.5
    endloop
  endfacet
  facet normal -1 0 0
    outer loop
      vertex -15 -15 2.5
      vertex -15 15 7.5
      vertex -15 15 2.5
    endloop
  endfacet
  facet normal -1 -0 0
    outer loop
      vertex -15 15 7.5
      vertex -15 -15 2.5
      vertex -15 -15 7.5
    endloop
  endfacet
  facet normal 0 1 -0
    outer loop
      vertex 15 15 2.5
      vertex -15 15 7.5
      vertex 15 15 7.5
    endloop
  endfacet
  facet normal 0 1 0
    outer loop
      vertex -15 15 7.5
      vertex 15 15 2.5
      vertex -15 15 2.5
    endloop
  endfacet
  facet normal 0 -1 0
    outer loop
      vertex -15 -15 2.5
      vertex 15 -15 7.5
      vertex -15 -15 7.5
    endloop
  endfacet
  facet normal 0 -1 -0
    outer loop
      vertex 15 -15 7.5
      vertex -15 -15 2.5
      vertex 15 -15 2.5
    endloop
  endfacet
  facet normal 1 -0 0
    outer loop
      vertex 15 -15 -2.5
      vertex 15 15 -7.5
      vertex 15 15 -2.5
    endloop
  endfacet
  facet normal 1 0 0
    outer loop
      vertex 15 15 -7.5
      vertex 15 -15 -2.5
      vertex 15 -15 -7.5
    endloop
  endfacet
  facet normal -0 0 1
    outer loop
      vertex -15 15 -2.5
      vertex 15 -15 -2.5
      vertex 15 15 -2.5
    endloop
  endfacet
  facet normal 0 0 1
    outer loop
      vertex 15 -15 -2.5
      vertex -15 15 -2.5
      vertex -15 -15 -2.5
    endloop
  endfacet
  facet normal 0 0 -1
    outer loop
      vertex -15 -15 -7.5
      vertex 15 15 -7.5
      vertex 15 -15 -7.5
    endloop
  endfacet
  facet normal -0 0 -1
    outer loop
      vertex 15 15 -7.5
      vertex -15 -15 -7.5
      vertex -15 15 -7.5
    endloop
  endfacet
  facet normal -1 0 0
    outer loop
      vertex -15 -15 -7.5
      vertex -15 15 -2.5
      vertex -15 15 -7.5
    endloop
  endfacet
  facet normal -1 -0 0
    outer loop
      vertex -15 15 -2.5
      vertex -15 -15 -7.5
      vertex -15 -15 -2.5
    endloop
  endfacet
  facet normal 0 1 -0
    outer loop
      vertex 15 15 -7.5
      vertex -15 15 -2.5
      vertex 15 15 -2.5
    endloop
  endfacet
  facet normal 0 1 0
    outer loop
      vertex -15 15 -2.5
      vertex 15 15 -7.5
      vertex -15 15 -7.5
    endloop
  endfacet
  facet normal 0 -1 0
    outer loop
      vertex -15 -15 -7.5
      vertex 15 -15 -2.5
      vertex -15 -15 -2.5
    endloop
  endfacet
  facet normal 0 -1 -0
    outer loop
      vertex 15 -15 -2.5
      vertex -15 -15 -7.5
      vertex 15 -15 -7.5
    endloop
  endfacet
  facet normal 1 -0 0
    outer loop
      vertex 15 -15 -12.5
      vertex 15 15 -17.5
      vertex 15 15 -12.5
    endloop
  endfacet
  facet normal 1 0 0
    outer loop
      vertex 15 15 -17.5
      vertex 15 -15 -12.5
      vertex 15 -15 -17.5
    endloop
  endfacet
  facet normal -0 0 1
    outer loop
      vertex -15 15 -12.5
      vertex 15 -15 -12.5
      vertex 15 15 -12.5
    endloop
  endfacet
  facet normal 0 0 1
    outer loop
      vertex 15 -15 -12.5
      vertex -15 15 -12.5
      vertex -15 -15 -12.5
    endloop
  endfacet
  facet normal 0 0 -1
    outer loop
      vertex -15 -15 -17.5
      vertex 15 15 -17.5
      vertex 15 -15 -17.5
    endloop
  endfacet
  facet normal -0 0 -1
    outer loop
      vertex 15 15 -17.5
      vertex -15 -15 -17.5
      vertex -15 15 -17.5
    endloop
  endfacet
  facet normal -1 0 0
    outer loop
      vertex -15 -15 -17.5
      vertex -15 15 -12.5
      vertex -15 15 -17.5
    endloop
  endfacet
  facet normal -1 -0 0
    outer loop
      vertex -15 15 -12.5
      vertex -15 -15 -17.5
      vertex -15 -15 -12.5
    endloop
  endfacet
  facet normal 0 1 -0
    outer loop
      vertex 15 15 -17.5
      vertex -15 15 -12.5
      vertex 15 15 -12.5
    endloop
  endfacet
  facet normal 0 1 0
    outer loop
      vertex -15 15 -12.5
      vertex 15 15 -17.5
      vertex -15 15 -17.5
    endloop
  endfacet
  facet normal 0 -1 0
    outer loop
      vertex -15 -15 -17.5
      vertex 15 -15 -12.5
      vertex -15 -15 -12.5
    endloop
  endfacet
  facet normal 0 -1 -0
    outer loop
      vertex 15 -15 -12.5
      vertex -15 -15 -17.5
      vertex 15 -15 -17.5
    endloop
  endfacet
  facet normal 1 -0 0
    outer loop
      vertex 15 -15 -22.5
      vertex 15 15 -27.5
      vertex 15 15 -22.5
    endloop
  endfacet
  facet normal 1 0 0
    outer loop
      vertex 15 15 -27.5
      vertex 15 -15 -22.5
      vertex 15 -15 -27.5
    endloop
  endfacet
  facet normal -0 0 1
    outer loop
      vertex -15 15 -22.5
      vertex 15 -15 -22.5
      vertex 15 15 -22.5
    endloop
  endfacet
  facet normal 0 0 1
    outer loop
      vertex 15 -15 -22.5
      vertex -15 15 -22.5
      vertex -15 -15 -22.5
    endloop
  endfacet
  facet normal 0 0 -1
    outer loop
      vertex -15 -15 -27.5
      vertex 15 15 -27.5
      vertex 15 -15 -27.5
    endloop
  endfacet
  facet normal -0 0 -1
    outer loop
      vertex 15 15 -27.5
      vertex -15 -15 -27.5
      vertex -15 15 -27.5
    endloop
  endfacet
  facet normal -1 0 0
    outer loop
      vertex -15 -15 -27.5
      vertex -15 15 -22.5
      vertex -15 15 -27.5
    endloop
  endfacet
  facet normal -1 -0 0
    outer loop
      vertex -15 15 -22.5
      vertex -15 -15 -27.5
      vertex -15 -15 -22.5
    endloop
  endfacet
  facet normal 0 1 -0
    outer loop
      vertex 15 15 -27.5
      vertex -15 15 -22.5
      vertex 15 15 -22.5
    endloop
  endfacet
  facet normal 0 1 0
    outer loop
      vertex -15 15 -22.5
      vertex 15 15 -27.5
      vertex -15 15 -27.5
    endloop
  endfacet
  facet normal 0 -1 0
    outer loop
      vertex -15 -15 -27.5
      vertex 15 -15 -22.5
      vertex -15 -15 -22.5
    endloop
  endfacet
  facet normal 0 -1 -0
    outer loop
      vertex 15 -15 -22.5
      vertex -15 -15 -27.5
      vertex 15 -15 -27.5
    endloop
  endfacet
endsolid OpenSCAD_Model
