solid OpenSCAD_Model
  facet normal 1 -0 0
    outer loop
      vertex 25 -25 0
      vertex 25 25 -20
      vertex 25 25 0
    endloop
  endfacet
  facet normal 1 0 0
    outer loop
      vertex 25 25 -20
      vertex 25 -25 0
      vertex 25 -25 -20
    endloop
  endfacet
  facet normal -0 0 1
    outer loop
      vertex -25 25 0
      vertex 25 -25 0
      vertex 25 25 0
    endloop
  endfacet
  facet normal 0 0 1
    outer loop
      vertex 25 -25 0
      vertex -25 25 0
      vertex -25 -25 0
    endloop
  endfacet
  facet normal 0 0 -1
    outer loop
      vertex -25 -25 -20
      vertex 25 25 -20
      vertex 25 -25 -20
    endloop
  endfacet
  facet normal -0 0 -1
    outer loop
      vertex 25 25 -20
      vertex -25 -25 -20
      vertex -25 25 -20
    endloop
  endfacet
  facet normal -1 0 0
    outer loop
      vertex -25 -25 -20
      vertex -25 25 0
      vertex -25 25 -20
    endloop
  endfacet
  facet normal -1 -0 0
    outer loop
      vertex -25 25 0
      vertex -25 -25 -20
      vertex -25 -25 0
    endloop
  endfacet
  facet normal 0 1 -0
    outer loop
      vertex 25 25 -20
      vertex -25 25 0
      vertex 25 25 0
    endloop
  endfacet
  facet normal 0 1 0
    outer loop
      vertex -25 25 0
      vertex 25 25 -20
      vertex -25 25 -20
    endloop
  endfacet
  facet normal 0 -1 0
    outer loop
      vertex -25 -25 -20
      vertex 25 -25 0
      vertex -25 -25 0
    endloop
  endfacet
  facet normal 0 -1 -0
    outer loop
      vertex 25 -25 0
      vertex -25 -25 -20
      vertex 25 -25 -20
    endloop
  endfacet
  facet normal 1 -0 0
    outer loop
      vertex 20 -20 25
      vertex 20 20 10
      vertex 20 20 25
    endloop
  endfacet
  facet normal 1 0 0
    outer loop
      vertex 20 20 10
      vertex 20 -20 25
      vertex 20 -20 10
    endloop
  endfacet
  facet normal 0 0 1
    outer loop
      vertex 20 20 25
      vertex 15 15 25
      vertex 20 -20 25
    endloop
  endfacet
  facet normal 0 0 1
    outer loop
      vertex 20 20 25
      vertex -15 15 25
      vertex 15 15 25
    endloop
  endfacet
  facet normal 0 0 1
    outer loop
      vertex -15 15 25
      vertex -20 20 25
      vertex -15 -15 25
    endloop
  endfacet
  facet normal -0 0 1
    outer loop
      vertex -20 20 25
      vertex -15 15 25
      vertex 20 20 25
    endloop
  endfacet
  facet normal -0 0 1
    outer loop
      vertex 15 -15 25
      vertex 20 -20 25
      vertex 15 15 25
    endloop
  endfacet
  facet normal -0 0 1
    outer loop
      vertex -15 -15 25
      vertex 20 -20 25
      vertex 15 -15 25
    endloop
  endfacet
  facet normal 0 0 1
    outer loop
      vertex -15 -15 25
      vertex -20 -20 25
      vertex 20 -20 25
    endloop
  endfacet
  facet normal 0 0 1
    outer loop
      vertex -20 -20 25
      vertex -15 -15 25
      vertex -20 20 25
    endloop
  endfacet
  facet normal 0 0 -1
    outer loop
      vertex -20 -20 10
      vertex 20 20 10
      vertex 20 -20 10
    endloop
  endfacet
  facet normal -0 0 -1
    outer loop
      vertex 20 20 10
      vertex -20 -20 10
      vertex -20 20 10
    endloop
  endfacet
  facet normal -1 0 0
    outer loop
      vertex -20 -20 10
      vertex -20 20 25
      vertex -20 20 10
    endloop
  endfacet
  facet normal -1 -0 0
    outer loop
      vertex -20 20 25
      vertex -20 -20 10
      vertex -20 -20 25
    endloop
  endfacet
  facet normal 0 1 -0
    outer loop
      vertex 20 20 10
      vertex -20 20 25
      vertex 20 20 25
    endloop
  endfacet
  facet normal 0 1 0
    outer loop
      vertex -20 20 25
      vertex 20 20 10
      vertex -20 20 10
    endloop
  endfacet
  facet normal 0 -1 0
    outer loop
      vertex -20 -20 10
      vertex 20 -20 25
      vertex -20 -20 25
    endloop
  endfacet
  facet normal 0 -1 -0
    outer loop
      vertex 20 -20 25
      vertex -20 -20 10
      vertex 20 -20 10
    endloop
  endfacet
  facet normal 1 -0 0
    outer loop
      vertex 15 -15 35
      vertex 15 15 25
      vertex 15 15 35
    endloop
  endfacet
  facet normal 1 0 0
    outer loop
      vertex 15 15 25
      vertex 15 -15 35
      vertex 15 -15 25
    endloop
  endfacet
  facet normal -0 0 1
    outer loop
      vertex -15 15 35
      vertex 15 -15 35
      vertex 15 15 35
    endloop
  endfacet
  facet normal 0 0 1
    outer loop
      vertex 15 -15 35
      vertex -15 15 35
      vertex -15 -15 35
    endloop
  endfacet
  facet normal -1 0 0
    outer loop
      vertex -15 -15 25
      vertex -15 15 35
      vertex -15 15 25
    endloop
  endfacet
  facet normal -1 -0 0
    outer loop
      vertex -15 15 35
      vertex -15 -15 25
      vertex -15 -15 35
    endloop
  endfacet
  facet normal 0 1 -0
    outer loop
      vertex 15 15 25
      vertex -15 15 35
      vertex 15 15 35
    endloop
  endfacet
  facet normal 0 1 0
    outer loop
      vertex -15 15 35
      vertex 15 15 25
      vertex -15 15 25
    endloop
  endfacet
  facet normal 0 -1 0
    outer loop
      vertex -15 -15 25
      vertex 15 -15 35
      vertex -15 -15 35
    endloop
  endfacet
  facet normal 0 -1 -0
    outer loop
      vertex 15 -15 35
      vertex -15 -15 25
      vertex 15 -15 25
    endloop
  endfacet
endsolid OpenSCAD_Model
