solid OpenSCAD_Model
  facet normal 1 -0 0
    outer loop
      vertex 30 -15 7.5
      vertex 30 15 -7.5
      vertex 30 15 7.5
    endloop
  endfacet
  facet normal 1 0 0
    outer loop
      vertex 30 15 -7.5
      vertex 30 -15 7.5
      vertex 30 -15 -7.5
    endloop
  endfacet
  facet normal 0 0 1
    outer loop
      vertex 30 15 7.5
      vertex 6 6 7.5
      vertex 30 -15 7.5
    endloop
  endfacet
  facet normal 0 0 1
    outer loop
      vertex 30 15 7.5
      vertex -6 6 7.5
      vertex 6 6 7.5
    endloop
  endfacet
  facet normal 0 0 1
    outer loop
      vertex -6 6 7.5
      vertex -30 15 7.5
      vertex -6 -6 7.5
    endloop
  endfacet
  facet normal -0 0 1
    outer loop
      vertex -30 15 7.5
      vertex -6 6 7.5
      vertex 30 15 7.5
    endloop
  endfacet
  facet normal -0 0 1
    outer loop
      vertex 6 -6 7.5
      vertex 30 -15 7.5
      vertex 6 6 7.5
    endloop
  endfacet
  facet normal -0 0 1
    outer loop
      vertex -6 -6 7.5
      vertex 30 -15 7.5
      vertex 6 -6 7.5
    endloop
  endfacet
  facet normal 0 0 1
    outer loop
      vertex -6 -6 7.5
      vertex -30 -15 7.5
      vertex 30 -15 7.5
    endloop
  endfacet
  facet normal 0 0 1
    outer loop
      vertex -30 -15 7.5
      vertex -6 -6 7.5
      vertex -30 15 7.5
    endloop
  endfacet
  facet normal 0 0 -1
    outer loop
      vertex 30 -15 -7.5
      vertex 6 -6 -7.5
      vertex 30 15 -7.5
    endloop
  endfacet
  facet normal 0 0 -1
    outer loop
      vertex 30 -15 -7.5
      vertex -6 -6 -7.5
      vertex 6 -6 -7.5
    endloop
  endfacet
  facet normal -0 0 -1
    outer loop
      vertex -6 -6 -7.5
      vertex -30 -15 -7.5
      vertex -6 6 -7.5
    endloop
  endfacet
  facet normal 0 0 -1
    outer loop
      vertex -30 -15 -7.5
      vertex -6 -6 -7.5
      vertex 30 -15 -7.5
    endloop
  endfacet
  facet normal 0 0 -1
    outer loop
      vertex 6 6 -7.5
      vertex 30 15 -7.5
      vertex 6 -6 -7.5
    endloop
  endfacet
  facet normal 0 0 -1
    outer loop
      vertex -6 6 -7.5
      vertex 30 15 -7.5
      vertex 6 6 -7.5
    endloop
  endfacet
  facet normal 0 0 -1
    outer loop
      vertex -6 6 -7.5
      vertex -30 15 -7.5
      vertex 30 15 -7.5
    endloop
  endfacet
  facet normal 0 0 -1
    outer loop
      vertex -30 15 -7.5
      vertex -6 6 -7.5
      vertex -30 -15 -7.5
    endloop
  endfacet
  facet normal -1 0 0
    outer loop
      vertex -30 -15 -7.5
      vertex -30 15 7.5
      vertex -30 15 -7.5
    endloop
  endfacet
  facet normal -1 -0 0
    outer loop
      vertex -30 15 7.5
      vertex -30 -15 -7.5
      vertex -30 -15 7.5
    endloop
  endfacet
  facet normal 0 1 -0
    outer loop
      vertex 30 15 -7.5
      vertex -30 15 7.5
      vertex 30 15 7.5
    endloop
  endfacet
  facet normal 0 1 0
    outer loop
      vertex -30 15 7.5
      vertex 30 15 -7.5
      vertex -30 15 -7.5
    endloop
  endfacet
  facet normal 0 -1 0
    outer loop
      vertex -30 -15 -7.5
      vertex 30 -15 7.5
      vertex -30 -15 7.5
    endloop
  endfacet
  facet normal 0 -1 -0
    outer loop
      vertex 30 -15 7.5
      vertex -30 -15 -7.5
      vertex 30 -15 -7.5
    endloop
  endfacet
  facet normal -1 0 0
    outer loop
      vertex 6 -6 -7.5
      vertex 6 6 7.5
      vertex 6 6 -7.5
    endloop
  endfacet
  facet normal -1 -0 0
    outer loop
      vertex 6 6 7.5
      vertex 6 -6 -7.5
      vertex 6 -6 7.5
    endloop
  endfacet
  facet normal 1 -0 0
    outer loop
      vertex -6 -6 7.5
      vertex -6 6 -7.5
      vertex -6 6 7.5
    endloop
  endfacet
  facet normal 1 0 0
    outer loop
      vertex -6 6 -7.5
      vertex -6 -6 7.5
      vertex -6 -6 -7.5
    endloop
  endfacet
  facet normal 0 -1 0
    outer loop
      vertex -6 6 -7.5
      vertex 6 6 7.5
      vertex -6 6 7.5
    endloop
  endfacet
  facet normal 0 -1 -0
    outer loop
      vertex 6 6 7.5
      vertex -6 6 -7.5
      vertex 6 6 -7.5
    endloop
  endfacet
  facet normal 0 1 -0
    outer loop
      vertex 6 -6 -7.5
      vertex -6 -6 7.5
      vertex 6 -6 7.5
    endloop
  endfacet
  facet normal 0 1 0
    outer loop
      vertex -6 -6 7.5
      vertex 6 -6 -7.5
      vertex -6 -6 -7.5
    endloop
  endfacet
endsolid OpenSCAD_Model
