solid OpenSCAD_Model
  facet normal 1 -0 0
    outer loop
      vertex 25 -25 1
      vertex 25 25 -1
      vertex 25 25 1
    endloop
  endfacet
  facet normal 1 0 0
    outer loop
      vertex 25 25 -1
      vertex 25 -25 1
      vertex 25 -25 -1
    endloop
  endfacet
  facet normal -0 0 1
    outer loop
      vertex -25 25 1
      vertex 25 -25 1
      vertex 25 25 1
    endloop
  endfacet
  facet normal 0 0 1
    outer loop
      vertex 25 -25 1
      vertex -25 25 1
      vertex -25 -25 1
    endloop
  endfacet
  facet normal 0 0 -1
    outer loop
      vertex -25 -25 -1
      vertex 25 25 -1
      vertex 25 -25 -1
    endloop
  endfacet
  facet normal -0 0 -1
    outer loop
      vertex 25 25 -1
      vertex -25 -25 -1
      vertex -25 25 -1
    endloop
  endfacet
  facet normal -1 0 0
    outer loop
      vertex -25 -25 -1
      vertex -25 25 1
      vertex -25 25 -1
    endloop
  endfacet
  facet normal -1 -0 0
    outer loop
      vertex -25 25 1
      vertex -25 -25 -1
      vertex -25 -25 1
    endloop
  endfacet
  facet normal 0 1 -0
    outer loop
      vertex 25 25 -1
      vertex -25 25 1
      vertex 25 25 1
    endloop
  endfacet
  facet normal 0 1 0
    outer loop
      vertex -25 25 1
      vertex 25 25 -1
      vertex -25 25 -1
    endloop
  endfacet
  facet normal 0 -1 0
    outer loop
      vertex -25 -25 -1
      vertex 25 -25 1
      vertex -25 -25 1
    endloop
  endfacet
  facet normal 0 -1 -0
    outer loop
      vertex 25 -25 1
      vertex -25 -25 -1
      vertex 25 -25 -1
    endloop
  endfacet
  facet normal 1 -0 0
    outer loop
      vertex 25 -25 -6
      vertex 25 25 -8
      vertex 25 25 -6
    endloop
  endfacet
  facet normal 1 0 0
    outer loop
      vertex 25 25 -8
      vertex 25 -25 -6
      vertex 25 -25 -8
    endloop
  endfacet
  facet normal -0 0 1
    outer loop
      vertex -25 25 -6
      vertex 25 -25 -6
      vertex 25 25 -6
    endloop
  endfacet
  facet normal 0 0 1
    outer loop
      vertex 25 -25 -6
      vertex -25 25 -6
      vertex -25 -25 -6
    endloop
  endfacet
  facet normal 0 0 -1
    outer loop
      vertex -25 -25 -8
      vertex 25 25 -8
      vertex 25 -25 -8
    endloop
  endfacet
  facet normal -0 0 -1
    outer loop
      vertex 25 25 -8
      vertex -25 -25 -8
      vertex -25 25 -8
    endloop
  endfacet
  facet normal -1 0 0
    outer loop
      vertex -25 -25 -8
      vertex -25 25 -6
      vertex -25 25 -8
    endloop
  endfacet
  facet normal -1 -0 0
    outer loop
      vertex -25 25 -6
      vertex -25 -25 -8
      vertex -25 -25 -6
    endloop
  endfacet
  facet normal 0 1 -0
    outer loop
      vertex 25 25 -8
      vertex -25 25 -6
      vertex 25 25 -6
    endloop
  endfacet
  facet normal 0 1 0
    outer loop
      vertex -25 25 -6
      vertex 25 25 -8
      vertex -25 25 -8
    endloop
  endfacet
  facet normal 0 -1 0
    outer loop
      vertex -25 -25 -8
      vertex 25 -25 -6
      vertex -25 -25 -6
    endloop
  endfacet
  facet normal 0 -1 -0
    outer loop
      vertex 25 -25 -6
      vertex -25 -25 -8
      vertex 25 -25 -8
    endloop
  endfacet
  facet normal 1 -0 0
    outer loop
      vertex 25 -25 -13
      vertex 25 25 -15
      vertex 25 25 -13
    endloop
  endfacet
  facet normal 1 0 0
    outer loop
      vertex 25 25 -15
      vertex 25 -25 -13
      vertex 25 -25 -15
    endloop
  endfacet
  facet normal -0 0 1
    outer loop
      vertex -25 25 -13
      vertex 25 -25 -13
      vertex 25 25 -13
    endloop
  endfacet
  facet normal 0 0 1
    outer loop
      vertex 25 -25 -13
      vertex -25 25 -13
      vertex -25 -25 -13
    endloop
  endfacet
  facet normal 0 0 -1
    outer loop
      vertex -25 -25 -15
      vertex 25 25 -15
      vertex 25 -25 -15
    endloop
  endfacet
  facet normal -0 0 -1
    outer loop
      vertex 25 25 -15
      vertex -25 -25 -15
      vertex -25 25 -15
    endloop
  endfacet
  facet normal -1 0 0
    outer loop
      vertex -25 -25 -15
      vertex -25 25 -13
      vertex -25 25 -15
    endloop
  endfacet
  facet normal -1 -0 0
    outer loop
      vertex -25 25 -13
      vertex -25 -25 -15
      vertex -25 -25 -13
    endloop
  endfacet
  facet normal 0 1 -0
    outer loop
      vertex 25 25 -15
      vertex -25 25 -13
      vertex 25 25 -13
    endloop
  endfacet
  facet normal 0 1 0
    outer loop
      vertex -25 25 -13
      vertex 25 25 -15
      vertex -25 25 -15
    endloop
  endfacet
  facet normal 0 -1 0
    outer loop
      vertex -25 -25 -15
      vertex 25 -25 -13
      vertex -25 -25 -13
    endloop
  endfacet
  facet normal 0 -1 -0
    outer loop
      vertex 25 -25 -13
      vertex -25 -25 -15
      vertex 25 -25 -15
    endloop
  endfacet
  facet normal 1 -0 0
    outer loop
      vertex 25 -25 -20
      vertex 25 25 -22
      vertex 25 25 -20
    endloop
  endfacet
  facet normal 1 0 0
    outer loop
      vertex 25 25 -22
      vertex 25 -25 -20
      vertex 25 -25 -22
    endloop
  endfacet
  facet normal -0 0 1
    outer loop
      vertex -25 25 -20
      vertex 25 -25 -20
      vertex 25 25 -20
    endloop
  endfacet
  facet normal 0 0 1
    outer loop
      vertex 25 -25 -20
      vertex -25 25 -20
      vertex -25 -25 -20
    endloop
  endfacet
  facet normal 0 0 -1
    outer loop
      vertex -25 -25 -22
      vertex 25 25 -22
      vertex 25 -25 -22
    endloop
  endfacet
  facet normal -0 0 -1
    outer loop
      vertex 25 25 -22
      vertex -25 -25 -22
      vertex -25 25 -22
    endloop
  endfacet
  facet normal -1 0 0
    outer loop
      vertex -25 -25 -22
      vertex -25 25 -20
      vertex -25 25 -22
    endloop
  endfacet
  facet normal -1 -0 0
    outer loop
      vertex -25 25 -20
      vertex -25 -25 -22
      vertex -25 -25 -20
    endloop
  endfacet
  facet normal 0 1 -0
    outer loop
      vertex 25 25 -22
      vertex -25 25 -20
      vertex 25 25 -20
    endloop
  endfacet
  facet normal 0 1 0
    outer loop
      vertex -25 25 -20
      vertex 25 25 -22
      vertex -25 25 -22
    endloop
  endfacet
  facet normal 0 -1 0
    outer loop
      vertex -25 -25 -22
      vertex 25 -25 -20
      vertex -25 -25 -20
    endloop
  endfacet
  facet normal 0 -1 -0
    outer loop
      vertex 25 -25 -20
      vertex -25 -25 -22
      vertex 25 -25 -22
    endloop
  endfacet
  facet normal 1 -0 0
    outer loop
      vertex 25 -25 -27
      vertex 25 25 -29
      vertex 25 25 -27
    endloop
  endfacet
  facet normal 1 0 0
    outer loop
      vertex 25 25 -29
      vertex 25 -25 -27
      vertex 25 -25 -29
    endloop
  endfacet
  facet normal -0 0 1
    outer loop
      vertex -25 25 -27
      vertex 25 -25 -27
      vertex 25 25 -27
    endloop
  endfacet
  facet normal 0 0 1
    outer loop
      vertex 25 -25 -27
      vertex -25 25 -27
      vertex -25 -25 -27
    endloop
  endfacet
  facet normal 0 0 -1
    outer loop
      vertex -25 -25 -29
      vertex 25 25 -29
      vertex 25 -25 -29
    endloop
  endfacet
  facet normal -0 0 -1
    outer loop
      vertex 25 25 -29
      vertex -25 -25 -29
      vertex -25 25 -29
    endloop
  endfacet
  facet normal -1 0 0
    outer loop
      vertex -25 -25 -29
      vertex -25 25 -27
      vertex -25 25 -29
    endloop
  endfacet
  facet normal -1 -0 0
    outer loop
      vertex -25 25 -27
      vertex -25 -25 -29
      vertex -25 -25 -27
    endloop
  endfacet
  facet normal 0 1 -0
    outer loop
      vertex 25 25 -29
      vertex -25 25 -27
      vertex 25 25 -27
    endloop
  endfacet
  facet normal 0 1 0
    outer loop
      vertex -25 25 -27
      vertex 25 25 -29
      vertex -25 25 -29
    endloop
  endfacet
  facet normal 0 -1 0
    outer loop
      vertex -25 -25 -29
      vertex 25 -25 -27
      vertex -25 -25 -27
    endloop
  endfacet
  facet normal 0 -1 -0
    outer loop
      vertex 25 -25 -27
      vertex -25 -25 -29
      vertex 25 -25 -29
    endloop
  endfacet
  facet normal 1 -0 0
    outer loop
      vertex 25 -25 -34
      vertex 25 25 -36
      vertex 25 25 -34
    endloop
  endfacet
  facet normal 1 0 0
    outer loop
      vertex 25 25 -36
      vertex 25 -25 -34
      vertex 25 -25 -36
    endloop
  endfacet
  facet normal -0 0 1
    outer loop
      vertex -25 25 -34
      vertex 25 -25 -34
      vertex 25 25 -34
    endloop
  endfacet
  facet normal 0 0 1
    outer loop
      vertex 25 -25 -34
      vertex -25 25 -34
      vertex -25 -25 -34
    endloop
  endfacet
  facet normal 0 0 -1
    outer loop
      vertex -25 -25 -36
      vertex 25 25 -36
      vertex 25 -25 -36
    endloop
  endfacet
  facet normal -0 0 -1
    outer loop
      vertex 25 25 -36
      vertex -25 -25 -36
      vertex -25 25 -36
    endloop
  endfacet
  facet normal -1 0 0
    outer loop
      vertex -25 -25 -36
      vertex -25 25 -34
      vertex -25 25 -36
    endloop
  endfacet
  facet normal -1 -0 0
    outer loop
      vertex -25 25 -34
      vertex -25 -25 -36
      vertex -25 -25 -34
    endloop
  endfacet
  facet normal 0 1 -0
    outer loop
      vertex 25 25 -36
      vertex -25 25 -34
      vertex 25 25 -34
    endloop
  endfacet
  facet normal 0 1 0
    outer loop
      vertex -25 25 -34
      vertex 25 25 -36
      vertex -25 25 -36
    endloop
  endfacet
  facet normal 0 -1 0
    outer loop
      vertex -25 -25 -36
      vertex 25 -25 -34
      vertex -25 -25 -34
    endloop
  endfacet
  facet normal 0 -1 -0
    outer loop
      vertex 25 -25 -34
      vertex -25 -25 -36
      vertex 25 -25 -36
    endloop
  endfacet
endsolid OpenSCAD_Model
