solid OpenSCAD_Model
  facet normal 1 -0 0
    outer loop
      vertex -6 -9 15
      vertex -6 9 5
      vertex -6 9 15
    endloop
  endfacet
  facet normal 1 0 0
    outer loop
      vertex -6 9 5
      vertex -6 -9 15
      vertex -6 -9 5
    endloop
  endfacet
  facet normal -0 0 1
    outer loop
      vertex -24 9 15
      vertex -6 -9 15
      vertex -6 9 15
    endloop
  endfacet
  facet normal 0 0 1
    outer loop
      vertex -6 -9 15
      vertex -24 9 15
      vertex -24 -9 15
    endloop
  endfacet
  facet normal 0 0 1
    outer loop
      vertex 12 12 5
      vertex 6 9 5
      vertex 12 9 5
    endloop
  endfacet
  facet normal 0 0 1
    outer loop
      vertex 6 9 5
      vertex -6 9 5
      vertex 6 -9 5
    endloop
  endfacet
  facet normal 0 0 1
    outer loop
      vertex 12 12 5
      vertex -6 9 5
      vertex 6 9 5
    endloop
  endfacet
  facet normal -0 0 1
    outer loop
      vertex -12 12 5
      vertex -6 9 5
      vertex 12 12 5
    endloop
  endfacet
  facet normal 0 0 1
    outer loop
      vertex -6 9 5
      vertex -12 12 5
      vertex -12 9 5
    endloop
  endfacet
  facet normal -0 0 1
    outer loop
      vertex 6 -9 5
      vertex 12 -12 5
      vertex 12 -9 5
    endloop
  endfacet
  facet normal 0 0 1
    outer loop
      vertex -6 -9 5
      vertex 6 -9 5
      vertex -6 9 5
    endloop
  endfacet
  facet normal -0 0 1
    outer loop
      vertex -6 -9 5
      vertex 12 -12 5
      vertex 6 -9 5
    endloop
  endfacet
  facet normal 0 0 1
    outer loop
      vertex -12 -12 5
      vertex -6 -9 5
      vertex -12 -9 5
    endloop
  endfacet
  facet normal 0 0 1
    outer loop
      vertex -6 -9 5
      vertex -12 -12 5
      vertex 12 -12 5
    endloop
  endfacet
  facet normal 0 0 -1
    outer loop
      vertex -24 -9 5
      vertex -12 -1 5
      vertex -12 -9 5
    endloop
  endfacet
  facet normal -0 0 -1
    outer loop
      vertex -12 -1 5
      vertex -24 -9 5
      vertex -24 -1 5
    endloop
  endfacet
  facet normal 0 0 -1
    outer loop
      vertex -24 1 5
      vertex -12 9 5
      vertex -12 1 5
    endloop
  endfacet
  facet normal -0 0 -1
    outer loop
      vertex -12 9 5
      vertex -24 1 5
      vertex -24 9 5
    endloop
  endfacet
  facet normal 0 0 -1
    outer loop
      vertex 12 1 5
      vertex 24 9 5
      vertex 24 1 5
    endloop
  endfacet
  facet normal -0 0 -1
    outer loop
      vertex 24 9 5
      vertex 12 1 5
      vertex 12 9 5
    endloop
  endfacet
  facet normal 0 0 -1
    outer loop
      vertex 12 -9 5
      vertex 24 -1 5
      vertex 24 -9 5
    endloop
  endfacet
  facet normal -0 0 -1
    outer loop
      vertex 24 -1 5
      vertex 12 -9 5
      vertex 12 -1 5
    endloop
  endfacet
  facet normal -1 0 0
    outer loop
      vertex -24 1 0
      vertex -24 -1 0
      vertex -24 1 5
    endloop
  endfacet
  facet normal -1 0 0
    outer loop
      vertex -24 1 5
      vertex -24 9 15
      vertex -24 9 5
    endloop
  endfacet
  facet normal -1 0 0
    outer loop
      vertex -24 -1 5
      vertex -24 1 5
      vertex -24 -1 0
    endloop
  endfacet
  facet normal -1 0 0
    outer loop
      vertex -24 -1 5
      vertex -24 9 15
      vertex -24 1 5
    endloop
  endfacet
  facet normal -1 0 0
    outer loop
      vertex -24 -9 15
      vertex -24 -1 5
      vertex -24 -9 5
    endloop
  endfacet
  facet normal -1 0 0
    outer loop
      vertex -24 -1 5
      vertex -24 -9 15
      vertex -24 9 15
    endloop
  endfacet
  facet normal 0 1 0
    outer loop
      vertex -12 9 5
      vertex -6 9 15
      vertex -6 9 5
    endloop
  endfacet
  facet normal 0 1 0
    outer loop
      vertex -6 9 15
      vertex -12 9 5
      vertex -24 9 15
    endloop
  endfacet
  facet normal 0 1 0
    outer loop
      vertex -24 9 15
      vertex -12 9 5
      vertex -24 9 5
    endloop
  endfacet
  facet normal 0 -1 0
    outer loop
      vertex -12 -9 5
      vertex -24 -9 15
      vertex -24 -9 5
    endloop
  endfacet
  facet normal 0 -1 0
    outer loop
      vertex -24 -9 15
      vertex -12 -9 5
      vertex -6 -9 15
    endloop
  endfacet
  facet normal 0 -1 -0
    outer loop
      vertex -6 -9 15
      vertex -12 -9 5
      vertex -6 -9 5
    endloop
  endfacet
  facet normal 1 0 0
    outer loop
      vertex 24 9 15
      vertex 24 1 5
      vertex 24 9 5
    endloop
  endfacet
  facet normal 1 0 0
    outer loop
      vertex 24 1 5
      vertex 24 -1 5
      vertex 24 1 0
    endloop
  endfacet
  facet normal 1 0 0
    outer loop
      vertex 24 9 15
      vertex 24 -1 5
      vertex 24 1 5
    endloop
  endfacet
  facet normal 1 -0 0
    outer loop
      vertex 24 -9 15
      vertex 24 -1 5
      vertex 24 9 15
    endloop
  endfacet
  facet normal 1 0 0
    outer loop
      vertex 24 -1 5
      vertex 24 -9 15
      vertex 24 -9 5
    endloop
  endfacet
  facet normal 1 0 0
    outer loop
      vertex 24 1 0
      vertex 24 -1 5
      vertex 24 -1 0
    endloop
  endfacet
  facet normal -0 0 1
    outer loop
      vertex 6 9 15
      vertex 24 -9 15
      vertex 24 9 15
    endloop
  endfacet
  facet normal 0 0 1
    outer loop
      vertex 24 -9 15
      vertex 6 9 15
      vertex 6 -9 15
    endloop
  endfacet
  facet normal -1 0 0
    outer loop
      vertex 6 -9 5
      vertex 6 9 15
      vertex 6 9 5
    endloop
  endfacet
  facet normal -1 -0 0
    outer loop
      vertex 6 9 15
      vertex 6 -9 5
      vertex 6 -9 15
    endloop
  endfacet
  facet normal 0 1 0
    outer loop
      vertex 12 9 5
      vertex 24 9 15
      vertex 24 9 5
    endloop
  endfacet
  facet normal 0 1 0
    outer loop
      vertex 24 9 15
      vertex 12 9 5
      vertex 6 9 15
    endloop
  endfacet
  facet normal 0 1 0
    outer loop
      vertex 6 9 15
      vertex 12 9 5
      vertex 6 9 5
    endloop
  endfacet
  facet normal 0 -1 0
    outer loop
      vertex 12 -9 5
      vertex 6 -9 15
      vertex 6 -9 5
    endloop
  endfacet
  facet normal 0 -1 0
    outer loop
      vertex 6 -9 15
      vertex 12 -9 5
      vertex 24 -9 15
    endloop
  endfacet
  facet normal 0 -1 -0
    outer loop
      vertex 24 -9 15
      vertex 12 -9 5
      vertex 24 -9 5
    endloop
  endfacet
  facet normal 0 0 -1
    outer loop
      vertex -24 -1 0
      vertex -12 1 0
      vertex -12 -1 0
    endloop
  endfacet
  facet normal -0 0 -1
    outer loop
      vertex -12 1 0
      vertex -24 -1 0
      vertex -24 1 0
    endloop
  endfacet
  facet normal 0 1 -0
    outer loop
      vertex -12 1 0
      vertex -24 1 5
      vertex -12 1 5
    endloop
  endfacet
  facet normal 0 1 0
    outer loop
      vertex -24 1 5
      vertex -12 1 0
      vertex -24 1 0
    endloop
  endfacet
  facet normal 0 -1 0
    outer loop
      vertex -24 -1 0
      vertex -12 -1 5
      vertex -24 -1 5
    endloop
  endfacet
  facet normal 0 -1 -0
    outer loop
      vertex -12 -1 5
      vertex -24 -1 0
      vertex -12 -1 0
    endloop
  endfacet
  facet normal 0 0 -1
    outer loop
      vertex 12 -1 0
      vertex 24 1 0
      vertex 24 -1 0
    endloop
  endfacet
  facet normal -0 0 -1
    outer loop
      vertex 24 1 0
      vertex 12 -1 0
      vertex 12 1 0
    endloop
  endfacet
  facet normal 0 1 -0
    outer loop
      vertex 24 1 0
      vertex 12 1 5
      vertex 24 1 5
    endloop
  endfacet
  facet normal 0 1 0
    outer loop
      vertex 12 1 5
      vertex 24 1 0
      vertex 12 1 0
    endloop
  endfacet
  facet normal 0 -1 0
    outer loop
      vertex 12 -1 0
      vertex 24 -1 5
      vertex 12 -1 5
    endloop
  endfacet
  facet normal 0 -1 -0
    outer loop
      vertex 24 -1 5
      vertex 12 -1 0
      vertex 24 -1 0
    endloop
  endfacet
  facet normal 1 0 0
    outer loop
      vertex 12 -1 5
      vertex 12 -9 5
      vertex 12 -1 0
    endloop
  endfacet
  facet normal 1 -0 0
    outer loop
      vertex 12 9 5
      vertex 12 12 -5
      vertex 12 12 5
    endloop
  endfacet
  facet normal 1 0 0
    outer loop
      vertex 12 1 0
      vertex 12 9 5
      vertex 12 1 5
    endloop
  endfacet
  facet normal 1 0 0
    outer loop
      vertex 12 9 5
      vertex 12 1 0
      vertex 12 12 -5
    endloop
  endfacet
  facet normal 1 -0 0
    outer loop
      vertex 12 -1 0
      vertex 12 12 -5
      vertex 12 1 0
    endloop
  endfacet
  facet normal 1 0 0
    outer loop
      vertex 12 -12 -5
      vertex 12 -9 5
      vertex 12 -12 5
    endloop
  endfacet
  facet normal 1 0 0
    outer loop
      vertex 12 -1 0
      vertex 12 -12 -5
      vertex 12 12 -5
    endloop
  endfacet
  facet normal 1 0 0
    outer loop
      vertex 12 -9 5
      vertex 12 -12 -5
      vertex 12 -1 0
    endloop
  endfacet
  facet normal 0 0 -1
    outer loop
      vertex 12 -12 -5
      vertex 7 -7 -5
      vertex 12 12 -5
    endloop
  endfacet
  facet normal 0 0 -1
    outer loop
      vertex 12 -12 -5
      vertex -7 -7 -5
      vertex 7 -7 -5
    endloop
  endfacet
  facet normal -0 0 -1
    outer loop
      vertex -7 -7 -5
      vertex -12 -12 -5
      vertex -7 7 -5
    endloop
  endfacet
  facet normal 0 0 -1
    outer loop
      vertex -12 -12 -5
      vertex -7 -7 -5
      vertex 12 -12 -5
    endloop
  endfacet
  facet normal 0 0 -1
    outer loop
      vertex 7 7 -5
      vertex 12 12 -5
      vertex 7 -7 -5
    endloop
  endfacet
  facet normal 0 0 -1
    outer loop
      vertex -7 7 -5
      vertex 12 12 -5
      vertex 7 7 -5
    endloop
  endfacet
  facet normal 0 0 -1
    outer loop
      vertex -7 7 -5
      vertex -12 12 -5
      vertex 12 12 -5
    endloop
  endfacet
  facet normal 0 0 -1
    outer loop
      vertex -12 12 -5
      vertex -7 7 -5
      vertex -12 -12 -5
    endloop
  endfacet
  facet normal -1 0 0
    outer loop
      vertex -12 12 -5
      vertex -12 9 5
      vertex -12 12 5
    endloop
  endfacet
  facet normal -1 0 0
    outer loop
      vertex -12 12 -5
      vertex -12 1 0
      vertex -12 9 5
    endloop
  endfacet
  facet normal -1 0 0
    outer loop
      vertex -12 12 -5
      vertex -12 -1 0
      vertex -12 1 0
    endloop
  endfacet
  facet normal -1 0 0
    outer loop
      vertex -12 -1 0
      vertex -12 -9 5
      vertex -12 -1 5
    endloop
  endfacet
  facet normal -1 0 0
    outer loop
      vertex -12 -12 -5
      vertex -12 -1 0
      vertex -12 12 -5
    endloop
  endfacet
  facet normal -1 0 0
    outer loop
      vertex -12 -12 -5
      vertex -12 -9 5
      vertex -12 -1 0
    endloop
  endfacet
  facet normal -1 -0 0
    outer loop
      vertex -12 -9 5
      vertex -12 -12 -5
      vertex -12 -12 5
    endloop
  endfacet
  facet normal -1 -0 0
    outer loop
      vertex -12 9 5
      vertex -12 1 0
      vertex -12 1 5
    endloop
  endfacet
  facet normal 0 1 -0
    outer loop
      vertex 12 12 -5
      vertex -12 12 5
      vertex 12 12 5
    endloop
  endfacet
  facet normal 0 1 0
    outer loop
      vertex -12 12 5
      vertex 12 12 -5
      vertex -12 12 -5
    endloop
  endfacet
  facet normal 0 -1 0
    outer loop
      vertex -12 -12 -5
      vertex 12 -12 5
      vertex -12 -12 5
    endloop
  endfacet
  facet normal 0 -1 -0
    outer loop
      vertex 12 -12 5
      vertex -12 -12 -5
      vertex 12 -12 -5
    endloop
  endfacet
  facet normal 1 -0 0
    outer loop
      vertex 7 -7 -5
      vertex 7 7 -12
      vertex 7 7 -5
    endloop
  endfacet
  facet normal 1 0 0
    outer loop
      vertex 7 7 -12
      vertex 7 -7 -5
      vertex 7 -7 -12
    endloop
  endfacet
  facet normal 0 0 -1
    outer loop
      vertex -7 -7 -12
      vertex 7 7 -12
      vertex 7 -7 -12
    endloop
  endfacet
  facet normal -0 0 -1
    outer loop
      vertex 7 7 -12
      vertex -7 -7 -12
      vertex -7 7 -12
    endloop
  endfacet
  facet normal -1 0 0
    outer loop
      vertex -7 -7 -12
      vertex -7 7 -5
      vertex -7 7 -12
    endloop
  endfacet
  facet normal -1 -0 0
    outer loop
      vertex -7 7 -5
      vertex -7 -7 -12
      vertex -7 -7 -5
    endloop
  endfacet
  facet normal 0 1 -0
    outer loop
      vertex 7 7 -12
      vertex -7 7 -5
      vertex 7 7 -5
    endloop
  endfacet
  facet normal 0 1 0
    outer loop
      vertex -7 7 -5
      vertex 7 7 -12
      vertex -7 7 -12
    endloop
  endfacet
  facet normal 0 -1 0
    outer loop
      vertex -7 -7 -12
      vertex 7 -7 -5
      vertex -7 -7 -5
    endloop
  endfacet
  facet normal 0 -1 -0
    outer loop
      vertex 7 -7 -5
      vertex -7 -7 -12
      vertex 7 -7 -12
    endloop
  endfacet
endsolid OpenSCAD_Model
