solid OpenSCAD_Model
  facet normal -0.743149 -0.669126 0
    outer loop
      vertex -13.3826 -14.8629 -10
      vertex -16.1803 -11.7557 10
      vertex -16.1803 -11.7557 -10
    endloop
  endfacet
  facet normal -0.743149 -0.669126 0
    outer loop
      vertex -16.1803 -11.7557 10
      vertex -13.3826 -14.8629 -10
      vertex -13.3826 -14.8629 10
    endloop
  endfacet
  facet normal 0.951053 0.309029 0
    outer loop
      vertex 19.563 4.15823 10
      vertex 18.2709 8.13473 -10
      vertex 18.2709 8.13473 10
    endloop
  endfacet
  facet normal 0.951053 0.309029 0
    outer loop
      vertex 18.2709 8.13473 -10
      vertex 19.563 4.15823 10
      vertex 19.563 4.15823 -10
    endloop
  endfacet
  facet normal 0.994523 0.104517 0
    outer loop
      vertex 20 0 10
      vertex 19.563 4.15823 -10
      vertex 19.563 4.15823 10
    endloop
  endfacet
  facet normal 0.994523 0.104517 0
    outer loop
      vertex 19.563 4.15823 -10
      vertex 20 0 10
      vertex 20 0 -10
    endloop
  endfacet
  facet normal 0.866022 0.500006 0
    outer loop
      vertex 18.2709 8.13473 10
      vertex 16.1803 11.7557 -10
      vertex 16.1803 11.7557 10
    endloop
  endfacet
  facet normal 0.866022 0.500006 0
    outer loop
      vertex 16.1803 11.7557 -10
      vertex 18.2709 8.13473 10
      vertex 18.2709 8.13473 -10
    endloop
  endfacet
  facet normal 0.951053 -0.309029 0
    outer loop
      vertex 18.2709 -8.13473 10
      vertex 19.563 -4.15823 -10
      vertex 19.563 -4.15823 10
    endloop
  endfacet
  facet normal 0.951053 -0.309029 0
    outer loop
      vertex 19.563 -4.15823 -10
      vertex 18.2709 -8.13473 10
      vertex 18.2709 -8.13473 -10
    endloop
  endfacet
  facet normal 0.587785 -0.809017 0
    outer loop
      vertex 10 -17.3205 -10
      vertex 13.3826 -14.8629 10
      vertex 10 -17.3205 10
    endloop
  endfacet
  facet normal 0.587785 -0.809017 0
    outer loop
      vertex 13.3826 -14.8629 10
      vertex 10 -17.3205 -10
      vertex 13.3826 -14.8629 -10
    endloop
  endfacet
  facet normal 0.743149 -0.669126 0
    outer loop
      vertex 13.3826 -14.8629 10
      vertex 16.1803 -11.7557 -10
      vertex 16.1803 -11.7557 10
    endloop
  endfacet
  facet normal 0.743149 -0.669126 0
    outer loop
      vertex 16.1803 -11.7557 -10
      vertex 13.3826 -14.8629 10
      vertex 13.3826 -14.8629 -10
    endloop
  endfacet
  facet normal 0.994523 -0.104517 0
    outer loop
      vertex 19.563 -4.15823 10
      vertex 20 0 -10
      vertex 20 0 10
    endloop
  endfacet
  facet normal 0.994523 -0.104517 0
    outer loop
      vertex 20 0 -10
      vertex 19.563 -4.15823 10
      vertex 19.563 -4.15823 -10
    endloop
  endfacet
  facet normal -0.406732 -0.913547 0
    outer loop
      vertex -10 -17.3205 -10
      vertex -6.18034 -19.0211 10
      vertex -10 -17.3205 10
    endloop
  endfacet
  facet normal -0.406732 -0.913547 -0
    outer loop
      vertex -6.18034 -19.0211 10
      vertex -10 -17.3205 -10
      vertex -6.18034 -19.0211 -10
    endloop
  endfacet
  facet normal 0.406732 0.913547 -0
    outer loop
      vertex 10 17.3205 -10
      vertex 6.18034 19.0211 10
      vertex 10 17.3205 10
    endloop
  endfacet
  facet normal 0.406732 0.913547 0
    outer loop
      vertex 6.18034 19.0211 10
      vertex 10 17.3205 -10
      vertex 6.18034 19.0211 -10
    endloop
  endfacet
  facet normal 0.743149 0.669126 0
    outer loop
      vertex 16.1803 11.7557 10
      vertex 13.3826 14.8629 -10
      vertex 13.3826 14.8629 10
    endloop
  endfacet
  facet normal 0.743149 0.669126 0
    outer loop
      vertex 13.3826 14.8629 -10
      vertex 16.1803 11.7557 10
      vertex 16.1803 11.7557 -10
    endloop
  endfacet
  facet normal -0.587785 -0.809017 0
    outer loop
      vertex -13.3826 -14.8629 -10
      vertex -10 -17.3205 10
      vertex -13.3826 -14.8629 10
    endloop
  endfacet
  facet normal -0.587785 -0.809017 -0
    outer loop
      vertex -10 -17.3205 10
      vertex -13.3826 -14.8629 -10
      vertex -10 -17.3205 -10
    endloop
  endfacet
  facet normal -0.743149 0.669126 0
    outer loop
      vertex -16.1803 11.7557 -10
      vertex -13.3826 14.8629 10
      vertex -13.3826 14.8629 -10
    endloop
  endfacet
  facet normal -0.743149 0.669126 0
    outer loop
      vertex -13.3826 14.8629 10
      vertex -16.1803 11.7557 -10
      vertex -16.1803 11.7557 10
    endloop
  endfacet
  facet normal 0 1 -0
    outer loop
      vertex 2.09057 19.8904 -10
      vertex -2.09057 19.8904 10
      vertex 2.09057 19.8904 10
    endloop
  endfacet
  facet normal 0 1 0
    outer loop
      vertex -2.09057 19.8904 10
      vertex 2.09057 19.8904 -10
      vertex -2.09057 19.8904 -10
    endloop
  endfacet
  facet normal 0.406732 -0.913547 0
    outer loop
      vertex 6.18034 -19.0211 -10
      vertex 10 -17.3205 10
      vertex 6.18034 -19.0211 10
    endloop
  endfacet
  facet normal 0.406732 -0.913547 0
    outer loop
      vertex 10 -17.3205 10
      vertex 6.18034 -19.0211 -10
      vertex 10 -17.3205 -10
    endloop
  endfacet
  facet normal 0.20791 -0.978148 0
    outer loop
      vertex 2.09057 -19.8904 -10
      vertex 6.18034 -19.0211 10
      vertex 2.09057 -19.8904 10
    endloop
  endfacet
  facet normal 0.20791 -0.978148 0
    outer loop
      vertex 6.18034 -19.0211 10
      vertex 2.09057 -19.8904 -10
      vertex 6.18034 -19.0211 -10
    endloop
  endfacet
  facet normal -0.951053 0.309029 0
    outer loop
      vertex -19.563 4.15823 -10
      vertex -18.2709 8.13473 10
      vertex -18.2709 8.13473 -10
    endloop
  endfacet
  facet normal -0.951053 0.309029 0
    outer loop
      vertex -18.2709 8.13473 10
      vertex -19.563 4.15823 -10
      vertex -19.563 4.15823 10
    endloop
  endfacet
  facet normal 0 0 -1
    outer loop
      vertex 5 0 -10
      vertex 20 0 -10
      vertex 19.563 -4.15823 -10
    endloop
  endfacet
  facet normal 0 0 -1
    outer loop
      vertex 4.6194 -1.91342 -10
      vertex 19.563 -4.15823 -10
      vertex 18.2709 -8.13473 -10
    endloop
  endfacet
  facet normal 0 0 -1
    outer loop
      vertex 20 0 -10
      vertex 5 0 -10
      vertex 19.563 4.15823 -10
    endloop
  endfacet
  facet normal 0 0 -1
    outer loop
      vertex 4.6194 -1.91342 -10
      vertex 18.2709 -8.13473 -10
      vertex 16.1803 -11.7557 -10
    endloop
  endfacet
  facet normal 0 0 -1
    outer loop
      vertex 4.6194 1.91342 -10
      vertex 19.563 4.15823 -10
      vertex 5 0 -10
    endloop
  endfacet
  facet normal 0 0 -1
    outer loop
      vertex 3.53553 -3.53553 -10
      vertex 16.1803 -11.7557 -10
      vertex 13.3826 -14.8629 -10
    endloop
  endfacet
  facet normal -0 0 -1
    outer loop
      vertex 19.563 4.15823 -10
      vertex 4.6194 1.91342 -10
      vertex 18.2709 8.13473 -10
    endloop
  endfacet
  facet normal 0 0 -1
    outer loop
      vertex 3.53553 -3.53553 -10
      vertex 13.3826 -14.8629 -10
      vertex 10 -17.3205 -10
    endloop
  endfacet
  facet normal -0 0 -1
    outer loop
      vertex 18.2709 8.13473 -10
      vertex 4.6194 1.91342 -10
      vertex 16.1803 11.7557 -10
    endloop
  endfacet
  facet normal 0 0 -1
    outer loop
      vertex 1.91342 -4.6194 -10
      vertex 10 -17.3205 -10
      vertex 6.18034 -19.0211 -10
    endloop
  endfacet
  facet normal 0 0 -1
    outer loop
      vertex 3.53553 3.53553 -10
      vertex 16.1803 11.7557 -10
      vertex 4.6194 1.91342 -10
    endloop
  endfacet
  facet normal -0 0 -1
    outer loop
      vertex 16.1803 11.7557 -10
      vertex 3.53553 3.53553 -10
      vertex 13.3826 14.8629 -10
    endloop
  endfacet
  facet normal 0 0 -1
    outer loop
      vertex 19.563 -4.15823 -10
      vertex 4.6194 -1.91342 -10
      vertex 5 0 -10
    endloop
  endfacet
  facet normal 0 0 -1
    outer loop
      vertex 16.1803 -11.7557 -10
      vertex 3.53553 -3.53553 -10
      vertex 4.6194 -1.91342 -10
    endloop
  endfacet
  facet normal 0 0 -1
    outer loop
      vertex 1.91342 -4.6194 -10
      vertex 6.18034 -19.0211 -10
      vertex 2.09057 -19.8904 -10
    endloop
  endfacet
  facet normal 0 0 -1
    outer loop
      vertex 10 -17.3205 -10
      vertex 1.91342 -4.6194 -10
      vertex 3.53553 -3.53553 -10
    endloop
  endfacet
  facet normal 0 0 -1
    outer loop
      vertex 2.09057 -19.8904 -10
      vertex 0 -5 -10
      vertex 1.91342 -4.6194 -10
    endloop
  endfacet
  facet normal 0 0 -1
    outer loop
      vertex -2.09057 -19.8904 -10
      vertex 0 -5 -10
      vertex 2.09057 -19.8904 -10
    endloop
  endfacet
  facet normal -0 0 -1
    outer loop
      vertex 0 -5 -10
      vertex -2.09057 -19.8904 -10
      vertex -1.91342 -4.6194 -10
    endloop
  endfacet
  facet normal 0 0 -1
    outer loop
      vertex -6.18034 -19.0211 -10
      vertex -1.91342 -4.6194 -10
      vertex -2.09057 -19.8904 -10
    endloop
  endfacet
  facet normal 0 0 -1
    outer loop
      vertex -10 -17.3205 -10
      vertex -1.91342 -4.6194 -10
      vertex -6.18034 -19.0211 -10
    endloop
  endfacet
  facet normal -0 0 -1
    outer loop
      vertex -1.91342 -4.6194 -10
      vertex -10 -17.3205 -10
      vertex -3.53553 -3.53553 -10
    endloop
  endfacet
  facet normal 0 0 -1
    outer loop
      vertex -13.3826 -14.8629 -10
      vertex -3.53553 -3.53553 -10
      vertex -10 -17.3205 -10
    endloop
  endfacet
  facet normal -0 0 -1
    outer loop
      vertex 13.3826 14.8629 -10
      vertex 3.53553 3.53553 -10
      vertex 10 17.3205 -10
    endloop
  endfacet
  facet normal 0 0 -1
    outer loop
      vertex 1.91342 4.6194 -10
      vertex 10 17.3205 -10
      vertex 3.53553 3.53553 -10
    endloop
  endfacet
  facet normal -0 0 -1
    outer loop
      vertex 10 17.3205 -10
      vertex 1.91342 4.6194 -10
      vertex 6.18034 19.0211 -10
    endloop
  endfacet
  facet normal -0 0 -1
    outer loop
      vertex 6.18034 19.0211 -10
      vertex 1.91342 4.6194 -10
      vertex 2.09057 19.8904 -10
    endloop
  endfacet
  facet normal 0 0 -1
    outer loop
      vertex 0 5 -10
      vertex 2.09057 19.8904 -10
      vertex 1.91342 4.6194 -10
    endloop
  endfacet
  facet normal 0 0 -1
    outer loop
      vertex -2.09057 19.8904 -10
      vertex 0 5 -10
      vertex -1.91342 4.6194 -10
    endloop
  endfacet
  facet normal 0 0 -1
    outer loop
      vertex 0 5 -10
      vertex -2.09057 19.8904 -10
      vertex 2.09057 19.8904 -10
    endloop
  endfacet
  facet normal 0 0 -1
    outer loop
      vertex -10 17.3205 -10
      vertex -1.91342 4.6194 -10
      vertex -3.53553 3.53553 -10
    endloop
  endfacet
  facet normal 0 0 -1
    outer loop
      vertex -16.1803 11.7557 -10
      vertex -3.53553 3.53553 -10
      vertex -4.6194 1.91342 -10
    endloop
  endfacet
  facet normal 0 0 -1
    outer loop
      vertex -19.563 4.15823 -10
      vertex -4.6194 1.91342 -10
      vertex -5 0 -10
    endloop
  endfacet
  facet normal 0 0 -1
    outer loop
      vertex -1.91342 4.6194 -10
      vertex -6.18034 19.0211 -10
      vertex -2.09057 19.8904 -10
    endloop
  endfacet
  facet normal 0 0 -1
    outer loop
      vertex -16.1803 -11.7557 -10
      vertex -3.53553 -3.53553 -10
      vertex -13.3826 -14.8629 -10
    endloop
  endfacet
  facet normal -0 0 -1
    outer loop
      vertex -3.53553 -3.53553 -10
      vertex -16.1803 -11.7557 -10
      vertex -4.6194 -1.91342 -10
    endloop
  endfacet
  facet normal 0 0 -1
    outer loop
      vertex -1.91342 4.6194 -10
      vertex -10 17.3205 -10
      vertex -6.18034 19.0211 -10
    endloop
  endfacet
  facet normal 0 0 -1
    outer loop
      vertex -18.2709 -8.13473 -10
      vertex -4.6194 -1.91342 -10
      vertex -16.1803 -11.7557 -10
    endloop
  endfacet
  facet normal 0 0 -1
    outer loop
      vertex -3.53553 3.53553 -10
      vertex -13.3826 14.8629 -10
      vertex -10 17.3205 -10
    endloop
  endfacet
  facet normal 0 0 -1
    outer loop
      vertex -19.563 -4.15823 -10
      vertex -4.6194 -1.91342 -10
      vertex -18.2709 -8.13473 -10
    endloop
  endfacet
  facet normal 0 0 -1
    outer loop
      vertex -3.53553 3.53553 -10
      vertex -16.1803 11.7557 -10
      vertex -13.3826 14.8629 -10
    endloop
  endfacet
  facet normal -0 0 -1
    outer loop
      vertex -4.6194 -1.91342 -10
      vertex -19.563 -4.15823 -10
      vertex -5 0 -10
    endloop
  endfacet
  facet normal 0 0 -1
    outer loop
      vertex -4.6194 1.91342 -10
      vertex -18.2709 8.13473 -10
      vertex -16.1803 11.7557 -10
    endloop
  endfacet
  facet normal 0 0 -1
    outer loop
      vertex -20 0 -10
      vertex -5 0 -10
      vertex -19.563 -4.15823 -10
    endloop
  endfacet
  facet normal 0 0 -1
    outer loop
      vertex -4.6194 1.91342 -10
      vertex -19.563 4.15823 -10
      vertex -18.2709 8.13473 -10
    endloop
  endfacet
  facet normal 0 0 -1
    outer loop
      vertex -5 0 -10
      vertex -20 0 -10
      vertex -19.563 4.15823 -10
    endloop
  endfacet
  facet normal -0.951053 -0.309029 0
    outer loop
      vertex -18.2709 -8.13473 -10
      vertex -19.563 -4.15823 10
      vertex -19.563 -4.15823 -10
    endloop
  endfacet
  facet normal -0.951053 -0.309029 0
    outer loop
      vertex -19.563 -4.15823 10
      vertex -18.2709 -8.13473 -10
      vertex -18.2709 -8.13473 10
    endloop
  endfacet
  facet normal -0.406732 0.913547 0
    outer loop
      vertex -6.18034 19.0211 -10
      vertex -10 17.3205 10
      vertex -6.18034 19.0211 10
    endloop
  endfacet
  facet normal -0.406732 0.913547 0
    outer loop
      vertex -10 17.3205 10
      vertex -6.18034 19.0211 -10
      vertex -10 17.3205 -10
    endloop
  endfacet
  facet normal 0 0 1
    outer loop
      vertex 5 0 10
      vertex 20 0 10
      vertex 19.563 4.15823 10
    endloop
  endfacet
  facet normal 0 0 1
    outer loop
      vertex 4.6194 1.91342 10
      vertex 19.563 4.15823 10
      vertex 18.2709 8.13473 10
    endloop
  endfacet
  facet normal 0 0 1
    outer loop
      vertex 20 0 10
      vertex 5 0 10
      vertex 19.563 -4.15823 10
    endloop
  endfacet
  facet normal 0 0 1
    outer loop
      vertex 4.6194 1.91342 10
      vertex 18.2709 8.13473 10
      vertex 16.1803 11.7557 10
    endloop
  endfacet
  facet normal -0 0 1
    outer loop
      vertex 4.6194 -1.91342 10
      vertex 19.563 -4.15823 10
      vertex 5 0 10
    endloop
  endfacet
  facet normal 0 0 1
    outer loop
      vertex 3.53553 3.53553 10
      vertex 16.1803 11.7557 10
      vertex 13.3826 14.8629 10
    endloop
  endfacet
  facet normal 0 0 1
    outer loop
      vertex 19.563 -4.15823 10
      vertex 4.6194 -1.91342 10
      vertex 18.2709 -8.13473 10
    endloop
  endfacet
  facet normal 0 0 1
    outer loop
      vertex 3.53553 3.53553 10
      vertex 13.3826 14.8629 10
      vertex 10 17.3205 10
    endloop
  endfacet
  facet normal 0 0 1
    outer loop
      vertex 18.2709 -8.13473 10
      vertex 4.6194 -1.91342 10
      vertex 16.1803 -11.7557 10
    endloop
  endfacet
  facet normal 0 0 1
    outer loop
      vertex 1.91342 4.6194 10
      vertex 10 17.3205 10
      vertex 6.18034 19.0211 10
    endloop
  endfacet
  facet normal -0 0 1
    outer loop
      vertex 3.53553 -3.53553 10
      vertex 16.1803 -11.7557 10
      vertex 4.6194 -1.91342 10
    endloop
  endfacet
  facet normal 0 0 1
    outer loop
      vertex 16.1803 -11.7557 10
      vertex 3.53553 -3.53553 10
      vertex 13.3826 -14.8629 10
    endloop
  endfacet
  facet normal 0 0 1
    outer loop
      vertex 19.563 4.15823 10
      vertex 4.6194 1.91342 10
      vertex 5 0 10
    endloop
  endfacet
  facet normal 0 0 1
    outer loop
      vertex 16.1803 11.7557 10
      vertex 3.53553 3.53553 10
      vertex 4.6194 1.91342 10
    endloop
  endfacet
  facet normal 0 0 1
    outer loop
      vertex 1.91342 4.6194 10
      vertex 6.18034 19.0211 10
      vertex 2.09057 19.8904 10
    endloop
  endfacet
  facet normal 0 0 1
    outer loop
      vertex 10 17.3205 10
      vertex 1.91342 4.6194 10
      vertex 3.53553 3.53553 10
    endloop
  endfacet
  facet normal 0 0 1
    outer loop
      vertex 2.09057 19.8904 10
      vertex 0 5 10
      vertex 1.91342 4.6194 10
    endloop
  endfacet
  facet normal -0 0 1
    outer loop
      vertex -2.09057 19.8904 10
      vertex 0 5 10
      vertex 2.09057 19.8904 10
    endloop
  endfacet
  facet normal 0 0 1
    outer loop
      vertex 0 5 10
      vertex -2.09057 19.8904 10
      vertex -1.91342 4.6194 10
    endloop
  endfacet
  facet normal -0 0 1
    outer loop
      vertex -6.18034 19.0211 10
      vertex -1.91342 4.6194 10
      vertex -2.09057 19.8904 10
    endloop
  endfacet
  facet normal -0 0 1
    outer loop
      vertex -10 17.3205 10
      vertex -1.91342 4.6194 10
      vertex -6.18034 19.0211 10
    endloop
  endfacet
  facet normal 0 0 1
    outer loop
      vertex -1.91342 4.6194 10
      vertex -10 17.3205 10
      vertex -3.53553 3.53553 10
    endloop
  endfacet
  facet normal -0 0 1
    outer loop
      vertex -13.3826 14.8629 10
      vertex -3.53553 3.53553 10
      vertex -10 17.3205 10
    endloop
  endfacet
  facet normal 0 0 1
    outer loop
      vertex 13.3826 -14.8629 10
      vertex 3.53553 -3.53553 10
      vertex 10 -17.3205 10
    endloop
  endfacet
  facet normal -0 0 1
    outer loop
      vertex 1.91342 -4.6194 10
      vertex 10 -17.3205 10
      vertex 3.53553 -3.53553 10
    endloop
  endfacet
  facet normal 0 0 1
    outer loop
      vertex 10 -17.3205 10
      vertex 1.91342 -4.6194 10
      vertex 6.18034 -19.0211 10
    endloop
  endfacet
  facet normal 0 0 1
    outer loop
      vertex 6.18034 -19.0211 10
      vertex 1.91342 -4.6194 10
      vertex 2.09057 -19.8904 10
    endloop
  endfacet
  facet normal -0 0 1
    outer loop
      vertex 0 -5 10
      vertex 2.09057 -19.8904 10
      vertex 1.91342 -4.6194 10
    endloop
  endfacet
  facet normal 0 0 1
    outer loop
      vertex -2.09057 -19.8904 10
      vertex 0 -5 10
      vertex -1.91342 -4.6194 10
    endloop
  endfacet
  facet normal 0 0 1
    outer loop
      vertex 0 -5 10
      vertex -2.09057 -19.8904 10
      vertex 2.09057 -19.8904 10
    endloop
  endfacet
  facet normal 0 0 1
    outer loop
      vertex -10 -17.3205 10
      vertex -1.91342 -4.6194 10
      vertex -3.53553 -3.53553 10
    endloop
  endfacet
  facet normal 0 0 1
    outer loop
      vertex -16.1803 -11.7557 10
      vertex -3.53553 -3.53553 10
      vertex -4.6194 -1.91342 10
    endloop
  endfacet
  facet normal 0 0 1
    outer loop
      vertex -19.563 -4.15823 10
      vertex -4.6194 -1.91342 10
      vertex -5 0 10
    endloop
  endfacet
  facet normal 0 0 1
    outer loop
      vertex -1.91342 -4.6194 10
      vertex -6.18034 -19.0211 10
      vertex -2.09057 -19.8904 10
    endloop
  endfacet
  facet normal -0 0 1
    outer loop
      vertex -16.1803 11.7557 10
      vertex -3.53553 3.53553 10
      vertex -13.3826 14.8629 10
    endloop
  endfacet
  facet normal 0 0 1
    outer loop
      vertex -3.53553 3.53553 10
      vertex -16.1803 11.7557 10
      vertex -4.6194 1.91342 10
    endloop
  endfacet
  facet normal 0 0 1
    outer loop
      vertex -1.91342 -4.6194 10
      vertex -10 -17.3205 10
      vertex -6.18034 -19.0211 10
    endloop
  endfacet
  facet normal -0 0 1
    outer loop
      vertex -18.2709 8.13473 10
      vertex -4.6194 1.91342 10
      vertex -16.1803 11.7557 10
    endloop
  endfacet
  facet normal 0 0 1
    outer loop
      vertex -3.53553 -3.53553 10
      vertex -13.3826 -14.8629 10
      vertex -10 -17.3205 10
    endloop
  endfacet
  facet normal -0 0 1
    outer loop
      vertex -19.563 4.15823 10
      vertex -4.6194 1.91342 10
      vertex -18.2709 8.13473 10
    endloop
  endfacet
  facet normal 0 0 1
    outer loop
      vertex -3.53553 -3.53553 10
      vertex -16.1803 -11.7557 10
      vertex -13.3826 -14.8629 10
    endloop
  endfacet
  facet normal 0 0 1
    outer loop
      vertex -4.6194 1.91342 10
      vertex -19.563 4.15823 10
      vertex -5 0 10
    endloop
  endfacet
  facet normal 0 0 1
    outer loop
      vertex -4.6194 -1.91342 10
      vertex -18.2709 -8.13473 10
      vertex -16.1803 -11.7557 10
    endloop
  endfacet
  facet normal 0 0 1
    outer loop
      vertex -20 0 10
      vertex -5 0 10
      vertex -19.563 4.15823 10
    endloop
  endfacet
  facet normal 0 0 1
    outer loop
      vertex -4.6194 -1.91342 10
      vertex -19.563 -4.15823 10
      vertex -18.2709 -8.13473 10
    endloop
  endfacet
  facet normal 0 0 1
    outer loop
      vertex -5 0 10
      vertex -20 0 10
      vertex -19.563 -4.15823 10
    endloop
  endfacet
  facet normal -0.20791 -0.978148 0
    outer loop
      vertex -6.18034 -19.0211 -10
      vertex -2.09057 -19.8904 10
      vertex -6.18034 -19.0211 10
    endloop
  endfacet
  facet normal -0.20791 -0.978148 -0
    outer loop
      vertex -2.09057 -19.8904 10
      vertex -6.18034 -19.0211 -10
      vertex -2.09057 -19.8904 -10
    endloop
  endfacet
  facet normal 0.20791 0.978148 -0
    outer loop
      vertex 6.18034 19.0211 -10
      vertex 2.09057 19.8904 10
      vertex 6.18034 19.0211 10
    endloop
  endfacet
  facet normal 0.20791 0.978148 0
    outer loop
      vertex 2.09057 19.8904 10
      vertex 6.18034 19.0211 -10
      vertex 2.09057 19.8904 -10
    endloop
  endfacet
  facet normal -0.994523 -0.104517 0
    outer loop
      vertex -19.563 -4.15823 -10
      vertex -20 0 10
      vertex -20 0 -10
    endloop
  endfacet
  facet normal -0.994523 -0.104517 0
    outer loop
      vertex -20 0 10
      vertex -19.563 -4.15823 -10
      vertex -19.563 -4.15823 10
    endloop
  endfacet
  facet normal -0.866022 -0.500006 0
    outer loop
      vertex -16.1803 -11.7557 -10
      vertex -18.2709 -8.13473 10
      vertex -18.2709 -8.13473 -10
    endloop
  endfacet
  facet normal -0.866022 -0.500006 0
    outer loop
      vertex -18.2709 -8.13473 10
      vertex -16.1803 -11.7557 -10
      vertex -16.1803 -11.7557 10
    endloop
  endfacet
  facet normal -0.866022 0.500006 0
    outer loop
      vertex -18.2709 8.13473 -10
      vertex -16.1803 11.7557 10
      vertex -16.1803 11.7557 -10
    endloop
  endfacet
  facet normal -0.866022 0.500006 0
    outer loop
      vertex -16.1803 11.7557 10
      vertex -18.2709 8.13473 -10
      vertex -18.2709 8.13473 10
    endloop
  endfacet
  facet normal 0.866022 -0.500006 0
    outer loop
      vertex 16.1803 -11.7557 10
      vertex 18.2709 -8.13473 -10
      vertex 18.2709 -8.13473 10
    endloop
  endfacet
  facet normal 0.866022 -0.500006 0
    outer loop
      vertex 18.2709 -8.13473 -10
      vertex 16.1803 -11.7557 10
      vertex 16.1803 -11.7557 -10
    endloop
  endfacet
  facet normal 0.587785 0.809017 -0
    outer loop
      vertex 13.3826 14.8629 -10
      vertex 10 17.3205 10
      vertex 13.3826 14.8629 10
    endloop
  endfacet
  facet normal 0.587785 0.809017 0
    outer loop
      vertex 10 17.3205 10
      vertex 13.3826 14.8629 -10
      vertex 10 17.3205 -10
    endloop
  endfacet
  facet normal -0.587785 0.809017 0
    outer loop
      vertex -10 17.3205 -10
      vertex -13.3826 14.8629 10
      vertex -10 17.3205 10
    endloop
  endfacet
  facet normal -0.587785 0.809017 0
    outer loop
      vertex -13.3826 14.8629 10
      vertex -10 17.3205 -10
      vertex -13.3826 14.8629 -10
    endloop
  endfacet
  facet normal -0.20791 0.978148 0
    outer loop
      vertex -2.09057 19.8904 -10
      vertex -6.18034 19.0211 10
      vertex -2.09057 19.8904 10
    endloop
  endfacet
  facet normal -0.20791 0.978148 0
    outer loop
      vertex -6.18034 19.0211 10
      vertex -2.09057 19.8904 -10
      vertex -6.18034 19.0211 -10
    endloop
  endfacet
  facet normal 0 -1 0
    outer loop
      vertex -2.09057 -19.8904 -10
      vertex 2.09057 -19.8904 10
      vertex -2.09057 -19.8904 10
    endloop
  endfacet
  facet normal 0 -1 -0
    outer loop
      vertex 2.09057 -19.8904 10
      vertex -2.09057 -19.8904 -10
      vertex 2.09057 -19.8904 -10
    endloop
  endfacet
  facet normal -0.994523 0.104517 0
    outer loop
      vertex -20 0 -10
      vertex -19.563 4.15823 10
      vertex -19.563 4.15823 -10
    endloop
  endfacet
  facet normal -0.994523 0.104517 0
    outer loop
      vertex -19.563 4.15823 10
      vertex -20 0 -10
      vertex -20 0 10
    endloop
  endfacet
  facet normal 0.555574 -0.831467 0
    outer loop
      vertex -3.53553 3.53553 -10
      vertex -1.91342 4.6194 10
      vertex -3.53553 3.53553 10
    endloop
  endfacet
  facet normal 0.555574 -0.831467 0
    outer loop
      vertex -1.91342 4.6194 10
      vertex -3.53553 3.53553 -10
      vertex -1.91342 4.6194 -10
    endloop
  endfacet
  facet normal -0.831467 -0.555574 0
    outer loop
      vertex 4.6194 1.91342 -10
      vertex 3.53553 3.53553 10
      vertex 3.53553 3.53553 -10
    endloop
  endfacet
  facet normal -0.831467 -0.555574 0
    outer loop
      vertex 3.53553 3.53553 10
      vertex 4.6194 1.91342 -10
      vertex 4.6194 1.91342 10
    endloop
  endfacet
  facet normal -0.980786 -0.195089 0
    outer loop
      vertex 5 0 -10
      vertex 4.6194 1.91342 10
      vertex 4.6194 1.91342 -10
    endloop
  endfacet
  facet normal -0.980786 -0.195089 0
    outer loop
      vertex 4.6194 1.91342 10
      vertex 5 0 -10
      vertex 5 0 10
    endloop
  endfacet
  facet normal 0.831467 -0.555574 0
    outer loop
      vertex -4.6194 1.91342 10
      vertex -3.53553 3.53553 -10
      vertex -3.53553 3.53553 10
    endloop
  endfacet
  facet normal 0.831467 -0.555574 0
    outer loop
      vertex -3.53553 3.53553 -10
      vertex -4.6194 1.91342 10
      vertex -4.6194 1.91342 -10
    endloop
  endfacet
  facet normal 0.195089 0.980786 -0
    outer loop
      vertex 0 -5 -10
      vertex -1.91342 -4.6194 10
      vertex 0 -5 10
    endloop
  endfacet
  facet normal 0.195089 0.980786 0
    outer loop
      vertex -1.91342 -4.6194 10
      vertex 0 -5 -10
      vertex -1.91342 -4.6194 -10
    endloop
  endfacet
  facet normal -0.195089 0.980786 0
    outer loop
      vertex 1.91342 -4.6194 -10
      vertex 0 -5 10
      vertex 1.91342 -4.6194 10
    endloop
  endfacet
  facet normal -0.195089 0.980786 0
    outer loop
      vertex 0 -5 10
      vertex 1.91342 -4.6194 -10
      vertex 0 -5 -10
    endloop
  endfacet
  facet normal -0.555574 0.831467 0
    outer loop
      vertex 3.53553 -3.53553 -10
      vertex 1.91342 -4.6194 10
      vertex 3.53553 -3.53553 10
    endloop
  endfacet
  facet normal -0.555574 0.831467 0
    outer loop
      vertex 1.91342 -4.6194 10
      vertex 3.53553 -3.53553 -10
      vertex 1.91342 -4.6194 -10
    endloop
  endfacet
  facet normal -0.831467 0.555574 0
    outer loop
      vertex 3.53553 -3.53553 -10
      vertex 4.6194 -1.91342 10
      vertex 4.6194 -1.91342 -10
    endloop
  endfacet
  facet normal -0.831467 0.555574 0
    outer loop
      vertex 4.6194 -1.91342 10
      vertex 3.53553 -3.53553 -10
      vertex 3.53553 -3.53553 10
    endloop
  endfacet
  facet normal 0.980786 -0.195089 0
    outer loop
      vertex -5 0 10
      vertex -4.6194 1.91342 -10
      vertex -4.6194 1.91342 10
    endloop
  endfacet
  facet normal 0.980786 -0.195089 0
    outer loop
      vertex -4.6194 1.91342 -10
      vertex -5 0 10
      vertex -5 0 -10
    endloop
  endfacet
  facet normal -0.980786 0.195089 0
    outer loop
      vertex 4.6194 -1.91342 -10
      vertex 5 0 10
      vertex 5 0 -10
    endloop
  endfacet
  facet normal -0.980786 0.195089 0
    outer loop
      vertex 5 0 10
      vertex 4.6194 -1.91342 -10
      vertex 4.6194 -1.91342 10
    endloop
  endfacet
  facet normal 0.195089 -0.980786 0
    outer loop
      vertex -1.91342 4.6194 -10
      vertex 0 5 10
      vertex -1.91342 4.6194 10
    endloop
  endfacet
  facet normal 0.195089 -0.980786 0
    outer loop
      vertex 0 5 10
      vertex -1.91342 4.6194 -10
      vertex 0 5 -10
    endloop
  endfacet
  facet normal -0.195089 -0.980786 0
    outer loop
      vertex 0 5 -10
      vertex 1.91342 4.6194 10
      vertex 0 5 10
    endloop
  endfacet
  facet normal -0.195089 -0.980786 -0
    outer loop
      vertex 1.91342 4.6194 10
      vertex 0 5 -10
      vertex 1.91342 4.6194 -10
    endloop
  endfacet
  facet normal 0.831467 0.555574 0
    outer loop
      vertex -3.53553 -3.53553 10
      vertex -4.6194 -1.91342 -10
      vertex -4.6194 -1.91342 10
    endloop
  endfacet
  facet normal 0.831467 0.555574 0
    outer loop
      vertex -4.6194 -1.91342 -10
      vertex -3.53553 -3.53553 10
      vertex -3.53553 -3.53553 -10
    endloop
  endfacet
  facet normal -0.555574 -0.831467 0
    outer loop
      vertex 1.91342 4.6194 -10
      vertex 3.53553 3.53553 10
      vertex 1.91342 4.6194 10
    endloop
  endfacet
  facet normal -0.555574 -0.831467 -0
    outer loop
      vertex 3.53553 3.53553 10
      vertex 1.91342 4.6194 -10
      vertex 3.53553 3.53553 -10
    endloop
  endfacet
  facet normal 0.980786 0.195089 0
    outer loop
      vertex -4.6194 -1.91342 10
      vertex -5 0 -10
      vertex -5 0 10
    endloop
  endfacet
  facet normal 0.980786 0.195089 0
    outer loop
      vertex -5 0 -10
      vertex -4.6194 -1.91342 10
      vertex -4.6194 -1.91342 -10
    endloop
  endfacet
  facet normal 0.555574 0.831467 -0
    outer loop
      vertex -1.91342 -4.6194 -10
      vertex -3.53553 -3.53553 10
      vertex -1.91342 -4.6194 10
    endloop
  endfacet
  facet normal 0.555574 0.831467 0
    outer loop
      vertex -3.53553 -3.53553 10
      vertex -1.91342 -4.6194 -10
      vertex -3.53553 -3.53553 -10
    endloop
  endfacet
endsolid OpenSCAD_Model
