solid OpenSCAD_Model
  facet normal 1 -0 0
    outer loop
      vertex 40 0 40
      vertex 40 30 0
      vertex 40 30 40
    endloop
  endfacet
  facet normal 1 0 0
    outer loop
      vertex 40 30 0
      vertex 40 0 40
      vertex 40 0 0
    endloop
  endfacet
  facet normal -0 0 1
    outer loop
      vertex 0 30 40
      vertex 12.5 0 40
      vertex 12.5 30 40
    endloop
  endfacet
  facet normal 0 0 1
    outer loop
      vertex 12.5 0 40
      vertex 0 30 40
      vertex 0 0 40
    endloop
  endfacet
  facet normal -0 0 1
    outer loop
      vertex 27.5 30 40
      vertex 40 0 40
      vertex 40 30 40
    endloop
  endfacet
  facet normal 0 0 1
    outer loop
      vertex 40 0 40
      vertex 27.5 30 40
      vertex 27.5 0 40
    endloop
  endfacet
  facet normal 0 0 -1
    outer loop
      vertex 15 5 40
      vertex 25 25 40
      vertex 25 5 40
    endloop
  endfacet
  facet normal -0 0 -1
    outer loop
      vertex 25 25 40
      vertex 15 5 40
      vertex 15 25 40
    endloop
  endfacet
  facet normal 0 0 -1
    outer loop
      vertex 0 0 0
      vertex 40 30 0
      vertex 40 0 0
    endloop
  endfacet
  facet normal -0 0 -1
    outer loop
      vertex 40 30 0
      vertex 0 0 0
      vertex 0 30 0
    endloop
  endfacet
  facet normal -1 0 0
    outer loop
      vertex 0 0 0
      vertex 0 30 40
      vertex 0 30 0
    endloop
  endfacet
  facet normal -1 -0 0
    outer loop
      vertex 0 30 40
      vertex 0 0 0
      vertex 0 0 40
    endloop
  endfacet
  facet normal 0 1 -0
    outer loop
      vertex 40 30 0
      vertex 27.5 30 40
      vertex 40 30 40
    endloop
  endfacet
  facet normal 0 1 0
    outer loop
      vertex 27.5 30 40
      vertex 40 30 0
      vertex 12.5 30 40
    endloop
  endfacet
  facet normal 0 1 0
    outer loop
      vertex 0 30 0
      vertex 12.5 30 40
      vertex 40 30 0
    endloop
  endfacet
  facet normal 0 1 0
    outer loop
      vertex 12.5 30 40
      vertex 0 30 0
      vertex 0 30 40
    endloop
  endfacet
  facet normal 0 1 -0
    outer loop
      vertex 27.5 30 40
      vertex 12.5 30 80
      vertex 27.5 30 80
    endloop
  endfacet
  facet normal 0 1 0
    outer loop
      vertex 12.5 30 80
      vertex 27.5 30 40
      vertex 12.5 30 40
    endloop
  endfacet
  facet normal 0 -1 0
    outer loop
      vertex 0 0 0
      vertex 12.5 0 40
      vertex 0 0 40
    endloop
  endfacet
  facet normal 0 -1 -0
    outer loop
      vertex 12.5 0 40
      vertex 0 0 0
      vertex 27.5 0 40
    endloop
  endfacet
  facet normal 0 -1 0
    outer loop
      vertex 40 0 0
      vertex 27.5 0 40
      vertex 0 0 0
    endloop
  endfacet
  facet normal 0 -1 0
    outer loop
      vertex 27.5 0 40
      vertex 40 0 0
      vertex 40 0 40
    endloop
  endfacet
  facet normal 0 -1 0
    outer loop
      vertex 12.5 0 40
      vertex 27.5 0 80
      vertex 12.5 0 80
    endloop
  endfacet
  facet normal 0 -1 -0
    outer loop
      vertex 27.5 0 80
      vertex 12.5 0 40
      vertex 27.5 0 40
    endloop
  endfacet
  facet normal -1 0 0
    outer loop
      vertex 25 5 20
      vertex 25 25 40
      vertex 25 25 20
    endloop
  endfacet
  facet normal -1 -0 0
    outer loop
      vertex 25 25 40
      vertex 25 5 20
      vertex 25 5 40
    endloop
  endfacet
  facet normal -0 0 1
    outer loop
      vertex 15 25 20
      vertex 25 5 20
      vertex 25 25 20
    endloop
  endfacet
  facet normal 0 0 1
    outer loop
      vertex 25 5 20
      vertex 15 25 20
      vertex 15 5 20
    endloop
  endfacet
  facet normal 1 -0 0
    outer loop
      vertex 15 5 40
      vertex 15 25 20
      vertex 15 25 40
    endloop
  endfacet
  facet normal 1 0 0
    outer loop
      vertex 15 25 20
      vertex 15 5 40
      vertex 15 5 20
    endloop
  endfacet
  facet normal 0 -1 0
    outer loop
      vertex 15 25 20
      vertex 25 25 40
      vertex 15 25 40
    endloop
  endfacet
  facet normal 0 -1 -0
    outer loop
      vertex 25 25 40
      vertex 15 25 20
      vertex 25 25 20
    endloop
  endfacet
  facet normal 0 1 -0
    outer loop
      vertex 25 5 20
      vertex 15 5 40
      vertex 25 5 40
    endloop
  endfacet
  facet normal 0 1 0
    outer loop
      vertex 15 5 40
      vertex 25 5 20
      vertex 15 5 20
    endloop
  endfacet
  facet normal 1 -0 0
    outer loop
      vertex 27.5 0 80
      vertex 27.5 30 40
      vertex 27.5 30 80
    endloop
  endfacet
  facet normal 1 0 0
    outer loop
      vertex 27.5 30 40
      vertex 27.5 0 80
      vertex 27.5 0 40
    endloop
  endfacet
  facet normal -0 0 1
    outer loop
      vertex 12.5 30 80
      vertex 27.5 0 80
      vertex 27.5 30 80
    endloop
  endfacet
  facet normal 0 0 1
    outer loop
      vertex 27.5 0 80
      vertex 12.5 30 80
      vertex 12.5 0 80
    endloop
  endfacet
  facet normal -1 0 0
    outer loop
      vertex 12.5 0 40
      vertex 12.5 30 80
      vertex 12.5 30 40
    endloop
  endfacet
  facet normal -1 -0 0
    outer loop
      vertex 12.5 30 80
      vertex 12.5 0 40
      vertex 12.5 0 80
    endloop
  endfacet
  facet normal 1 -0 0
    outer loop
      vertex 72.5 30 85
      vertex 72.5 40 80
      vertex 72.5 40 85
    endloop
  endfacet
  facet normal 1 0 0
    outer loop
      vertex 72.5 40 80
      vertex 72.5 30 85
      vertex 72.5 30 80
    endloop
  endfacet
  facet normal -0 0 1
    outer loop
      vertex 12.5 40 85
      vertex 72.5 30 85
      vertex 72.5 40 85
    endloop
  endfacet
  facet normal 0 0 1
    outer loop
      vertex 72.5 30 85
      vertex 12.5 40 85
      vertex 12.5 30 85
    endloop
  endfacet
  facet normal 0 0 -1
    outer loop
      vertex 27.5 30 80
      vertex 72.5 40 80
      vertex 72.5 30 80
    endloop
  endfacet
  facet normal 0 0 -1
    outer loop
      vertex 12.5 40 80
      vertex 27.5 30 80
      vertex 12.5 30 80
    endloop
  endfacet
  facet normal 0 0 -1
    outer loop
      vertex 27.5 30 80
      vertex 12.5 40 80
      vertex 72.5 40 80
    endloop
  endfacet
  facet normal -1 0 0
    outer loop
      vertex 12.5 30 80
      vertex 12.5 40 85
      vertex 12.5 40 80
    endloop
  endfacet
  facet normal -1 -0 0
    outer loop
      vertex 12.5 40 85
      vertex 12.5 30 80
      vertex 12.5 30 85
    endloop
  endfacet
  facet normal 0 1 -0
    outer loop
      vertex 72.5 40 80
      vertex 12.5 40 85
      vertex 72.5 40 85
    endloop
  endfacet
  facet normal 0 1 0
    outer loop
      vertex 12.5 40 85
      vertex 72.5 40 80
      vertex 12.5 40 80
    endloop
  endfacet
  facet normal 0 -1 0
    outer loop
      vertex 27.5 30 80
      vertex 12.5 30 85
      vertex 12.5 30 80
    endloop
  endfacet
  facet normal 0 -1 0
    outer loop
      vertex 12.5 30 85
      vertex 27.5 30 80
      vertex 72.5 30 85
    endloop
  endfacet
  facet normal 0 -1 -0
    outer loop
      vertex 72.5 30 85
      vertex 27.5 30 80
      vertex 72.5 30 80
    endloop
  endfacet
endsolid OpenSCAD_Model
