solid OpenSCAD_Model
  facet normal 1 -0 0
    outer loop
      vertex 15 5 200
      vertex 15 15 150
      vertex 15 15 200
    endloop
  endfacet
  facet normal 1 0 0
    outer loop
      vertex 15 15 150
      vertex 15 5 200
      vertex 15 5 150
    endloop
  endfacet
  facet normal -0 0 1
    outer loop
      vertex 5 15 200
      vertex 15 5 200
      vertex 15 15 200
    endloop
  endfacet
  facet normal 0 0 1
    outer loop
      vertex 15 5 200
      vertex 5 15 200
      vertex 5 5 200
    endloop
  endfacet
  facet normal 0 0 -1
    outer loop
      vertex 5 5 150
      vertex 15 15 150
      vertex 15 5 150
    endloop
  endfacet
  facet normal -0 0 -1
    outer loop
      vertex 15 15 150
      vertex 5 5 150
      vertex 5 15 150
    endloop
  endfacet
  facet normal -1 0 0
    outer loop
      vertex 5 5 150
      vertex 5 15 200
      vertex 5 15 150
    endloop
  endfacet
  facet normal -1 -0 0
    outer loop
      vertex 5 15 200
      vertex 5 5 150
      vertex 5 5 200
    endloop
  endfacet
  facet normal 0 1 -0
    outer loop
      vertex 15 15 150
      vertex 5 15 200
      vertex 15 15 200
    endloop
  endfacet
  facet normal 0 1 0
    outer loop
      vertex 5 15 200
      vertex 15 15 150
      vertex 5 15 150
    endloop
  endfacet
  facet normal 0 -1 0
    outer loop
      vertex 5 5 150
      vertex 15 5 200
      vertex 5 5 200
    endloop
  endfacet
  facet normal 0 -1 -0
    outer loop
      vertex 15 5 200
      vertex 5 5 150
      vertex 15 5 150
    endloop
  endfacet
  facet normal 1 -0 0
    outer loop
      vertex 50 0 110
      vertex 50 50 100
      vertex 50 50 110
    endloop
  endfacet
  facet normal 1 0 0
    outer loop
      vertex 50 50 100
      vertex 50 0 110
      vertex 50 0 100
    endloop
  endfacet
  facet normal -0 0 1
    outer loop
      vertex 0 50 110
      vertex 50 0 110
      vertex 50 50 110
    endloop
  endfacet
  facet normal 0 0 1
    outer loop
      vertex 50 0 110
      vertex 0 50 110
      vertex 0 0 110
    endloop
  endfacet
  facet normal 0 0 -1
    outer loop
      vertex 50 0 100
      vertex 40 10 100
      vertex 50 50 100
    endloop
  endfacet
  facet normal 0 0 -1
    outer loop
      vertex 50 0 100
      vertex 10 10 100
      vertex 40 10 100
    endloop
  endfacet
  facet normal -0 0 -1
    outer loop
      vertex 10 10 100
      vertex 0 0 100
      vertex 10 40 100
    endloop
  endfacet
  facet normal 0 0 -1
    outer loop
      vertex 0 0 100
      vertex 10 10 100
      vertex 50 0 100
    endloop
  endfacet
  facet normal 0 0 -1
    outer loop
      vertex 40 40 100
      vertex 50 50 100
      vertex 40 10 100
    endloop
  endfacet
  facet normal 0 0 -1
    outer loop
      vertex 10 40 100
      vertex 50 50 100
      vertex 40 40 100
    endloop
  endfacet
  facet normal 0 0 -1
    outer loop
      vertex 10 40 100
      vertex 0 50 100
      vertex 50 50 100
    endloop
  endfacet
  facet normal 0 0 -1
    outer loop
      vertex 0 50 100
      vertex 10 40 100
      vertex 0 0 100
    endloop
  endfacet
  facet normal -1 0 0
    outer loop
      vertex 0 0 100
      vertex 0 50 110
      vertex 0 50 100
    endloop
  endfacet
  facet normal -1 -0 0
    outer loop
      vertex 0 50 110
      vertex 0 0 100
      vertex 0 0 110
    endloop
  endfacet
  facet normal 0 1 -0
    outer loop
      vertex 50 50 100
      vertex 0 50 110
      vertex 50 50 110
    endloop
  endfacet
  facet normal 0 1 0
    outer loop
      vertex 0 50 110
      vertex 50 50 100
      vertex 0 50 100
    endloop
  endfacet
  facet normal 0 -1 0
    outer loop
      vertex 0 0 100
      vertex 50 0 110
      vertex 0 0 110
    endloop
  endfacet
  facet normal 0 -1 -0
    outer loop
      vertex 50 0 110
      vertex 0 0 100
      vertex 50 0 100
    endloop
  endfacet
  facet normal 1 -0 0
    outer loop
      vertex 40 10 100
      vertex 40 40 70
      vertex 40 40 100
    endloop
  endfacet
  facet normal 1 0 0
    outer loop
      vertex 40 40 70
      vertex 40 10 100
      vertex 40 10 70
    endloop
  endfacet
  facet normal 0 0 -1
    outer loop
      vertex 10 10 70
      vertex 40 40 70
      vertex 40 10 70
    endloop
  endfacet
  facet normal -0 0 -1
    outer loop
      vertex 40 40 70
      vertex 10 10 70
      vertex 10 40 70
    endloop
  endfacet
  facet normal -1 0 0
    outer loop
      vertex 10 10 70
      vertex 10 40 100
      vertex 10 40 70
    endloop
  endfacet
  facet normal -1 -0 0
    outer loop
      vertex 10 40 100
      vertex 10 10 70
      vertex 10 10 100
    endloop
  endfacet
  facet normal 0 1 -0
    outer loop
      vertex 40 40 70
      vertex 10 40 100
      vertex 40 40 100
    endloop
  endfacet
  facet normal 0 1 0
    outer loop
      vertex 10 40 100
      vertex 40 40 70
      vertex 10 40 70
    endloop
  endfacet
  facet normal 0 -1 0
    outer loop
      vertex 10 10 70
      vertex 40 10 100
      vertex 10 10 100
    endloop
  endfacet
  facet normal 0 -1 -0
    outer loop
      vertex 40 10 100
      vertex 10 10 70
      vertex 40 10 70
    endloop
  endfacet
  facet normal 1 -0 0
    outer loop
      vertex 50 0 20
      vertex 50 50 10
      vertex 50 50 20
    endloop
  endfacet
  facet normal 1 0 0
    outer loop
      vertex 50 50 10
      vertex 50 0 20
      vertex 50 0 10
    endloop
  endfacet
  facet normal 0 0 1
    outer loop
      vertex 50 50 20
      vertex 15 15 20
      vertex 50 0 20
    endloop
  endfacet
  facet normal -0 0 1
    outer loop
      vertex 0 50 20
      vertex 15 15 20
      vertex 50 50 20
    endloop
  endfacet
  facet normal 0 0 1
    outer loop
      vertex 0 0 20
      vertex 5 15 20
      vertex 0 50 20
    endloop
  endfacet
  facet normal 0 0 1
    outer loop
      vertex 15 15 20
      vertex 0 50 20
      vertex 5 15 20
    endloop
  endfacet
  facet normal -0 0 1
    outer loop
      vertex 15 5 20
      vertex 50 0 20
      vertex 15 15 20
    endloop
  endfacet
  facet normal 0 0 1
    outer loop
      vertex 0 0 20
      vertex 15 5 20
      vertex 5 5 20
    endloop
  endfacet
  facet normal 0 0 1
    outer loop
      vertex 15 5 20
      vertex 0 0 20
      vertex 50 0 20
    endloop
  endfacet
  facet normal 0 0 1
    outer loop
      vertex 5 15 20
      vertex 0 0 20
      vertex 5 5 20
    endloop
  endfacet
  facet normal 0 0 -1
    outer loop
      vertex 15 15 10
      vertex 50 0 10
      vertex 15 5 10
    endloop
  endfacet
  facet normal 0 0 -1
    outer loop
      vertex 0 0 10
      vertex 15 5 10
      vertex 50 0 10
    endloop
  endfacet
  facet normal -0 0 -1
    outer loop
      vertex 5 5 10
      vertex 0 0 10
      vertex 5 15 10
    endloop
  endfacet
  facet normal -0 0 -1
    outer loop
      vertex 15 5 10
      vertex 0 0 10
      vertex 5 5 10
    endloop
  endfacet
  facet normal 0 0 -1
    outer loop
      vertex 50 0 10
      vertex 15 15 10
      vertex 50 50 10
    endloop
  endfacet
  facet normal 0 0 -1
    outer loop
      vertex 0 50 10
      vertex 15 15 10
      vertex 5 15 10
    endloop
  endfacet
  facet normal 0 0 -1
    outer loop
      vertex 15 15 10
      vertex 0 50 10
      vertex 50 50 10
    endloop
  endfacet
  facet normal 0 0 -1
    outer loop
      vertex 0 50 10
      vertex 5 15 10
      vertex 0 0 10
    endloop
  endfacet
  facet normal -1 0 0
    outer loop
      vertex 0 0 10
      vertex 0 50 20
      vertex 0 50 10
    endloop
  endfacet
  facet normal -1 -0 0
    outer loop
      vertex 0 50 20
      vertex 0 0 10
      vertex 0 0 20
    endloop
  endfacet
  facet normal 0 1 -0
    outer loop
      vertex 50 50 10
      vertex 0 50 20
      vertex 50 50 20
    endloop
  endfacet
  facet normal 0 1 0
    outer loop
      vertex 0 50 20
      vertex 50 50 10
      vertex 0 50 10
    endloop
  endfacet
  facet normal 0 -1 0
    outer loop
      vertex 0 0 10
      vertex 50 0 20
      vertex 0 0 20
    endloop
  endfacet
  facet normal 0 -1 -0
    outer loop
      vertex 50 0 20
      vertex 0 0 10
      vertex 50 0 10
    endloop
  endfacet
  facet normal 1 -0 0
    outer loop
      vertex 15 5 50
      vertex 15 15 20
      vertex 15 15 50
    endloop
  endfacet
  facet normal 1 0 0
    outer loop
      vertex 15 15 20
      vertex 15 5 50
      vertex 15 5 20
    endloop
  endfacet
  facet normal 1 -0 0
    outer loop
      vertex 15 5 10
      vertex 15 15 0
      vertex 15 15 10
    endloop
  endfacet
  facet normal 1 0 0
    outer loop
      vertex 15 15 0
      vertex 15 5 10
      vertex 15 5 0
    endloop
  endfacet
  facet normal -0 0 1
    outer loop
      vertex 5 15 50
      vertex 15 5 50
      vertex 15 15 50
    endloop
  endfacet
  facet normal 0 0 1
    outer loop
      vertex 15 5 50
      vertex 5 15 50
      vertex 5 5 50
    endloop
  endfacet
  facet normal 0 0 -1
    outer loop
      vertex 5 5 0
      vertex 15 15 0
      vertex 15 5 0
    endloop
  endfacet
  facet normal -0 0 -1
    outer loop
      vertex 15 15 0
      vertex 5 5 0
      vertex 5 15 0
    endloop
  endfacet
  facet normal -1 0 0
    outer loop
      vertex 5 5 20
      vertex 5 15 50
      vertex 5 15 20
    endloop
  endfacet
  facet normal -1 -0 0
    outer loop
      vertex 5 15 50
      vertex 5 5 20
      vertex 5 5 50
    endloop
  endfacet
  facet normal -1 0 0
    outer loop
      vertex 5 5 0
      vertex 5 15 10
      vertex 5 15 0
    endloop
  endfacet
  facet normal -1 -0 0
    outer loop
      vertex 5 15 10
      vertex 5 5 0
      vertex 5 5 10
    endloop
  endfacet
  facet normal 0 1 -0
    outer loop
      vertex 15 15 20
      vertex 5 15 50
      vertex 15 15 50
    endloop
  endfacet
  facet normal 0 1 0
    outer loop
      vertex 5 15 50
      vertex 15 15 20
      vertex 5 15 20
    endloop
  endfacet
  facet normal 0 1 -0
    outer loop
      vertex 15 15 0
      vertex 5 15 10
      vertex 15 15 10
    endloop
  endfacet
  facet normal 0 1 0
    outer loop
      vertex 5 15 10
      vertex 15 15 0
      vertex 5 15 0
    endloop
  endfacet
  facet normal 0 -1 0
    outer loop
      vertex 5 5 20
      vertex 15 5 50
      vertex 5 5 50
    endloop
  endfacet
  facet normal 0 -1 -0
    outer loop
      vertex 15 5 50
      vertex 5 5 20
      vertex 15 5 20
    endloop
  endfacet
  facet normal 0 -1 0
    outer loop
      vertex 5 5 0
      vertex 15 5 10
      vertex 5 5 10
    endloop
  endfacet
  facet normal 0 -1 -0
    outer loop
      vertex 15 5 10
      vertex 5 5 0
      vertex 15 5 0
    endloop
  endfacet
endsolid OpenSCAD_Model
