solid OpenSCAD_Model
  facet normal 1 -0 0
    outer loop
      vertex 50 -25 2.5
      vertex 50 25 -2.5
      vertex 50 25 2.5
    endloop
  endfacet
  facet normal 1 0 0
    outer loop
      vertex 50 25 -2.5
      vertex 50 -25 2.5
      vertex 50 -25 -2.5
    endloop
  endfacet
  facet normal 0 0 1
    outer loop
      vertex 50 25 2.5
      vertex 45 20 2.5
      vertex 50 -25 2.5
    endloop
  endfacet
  facet normal 0 0 1
    outer loop
      vertex 50 25 2.5
      vertex 32.5 20 2.5
      vertex 45 20 2.5
    endloop
  endfacet
  facet normal 0 0 1
    outer loop
      vertex 32.5 20 2.5
      vertex 27.5 20 2.5
      vertex 32.5 -20 2.5
    endloop
  endfacet
  facet normal 0 0 1
    outer loop
      vertex 50 25 2.5
      vertex 27.5 20 2.5
      vertex 32.5 20 2.5
    endloop
  endfacet
  facet normal 0 0 1
    outer loop
      vertex 50 25 2.5
      vertex 12.5 20 2.5
      vertex 27.5 20 2.5
    endloop
  endfacet
  facet normal 0 0 1
    outer loop
      vertex 12.5 20 2.5
      vertex 7.5 20 2.5
      vertex 12.5 -20 2.5
    endloop
  endfacet
  facet normal 0 0 1
    outer loop
      vertex 50 25 2.5
      vertex 7.5 20 2.5
      vertex 12.5 20 2.5
    endloop
  endfacet
  facet normal 0 0 1
    outer loop
      vertex 50 25 2.5
      vertex -7.5 20 2.5
      vertex 7.5 20 2.5
    endloop
  endfacet
  facet normal 0 0 1
    outer loop
      vertex -7.5 20 2.5
      vertex -12.5 20 2.5
      vertex -7.5 -20 2.5
    endloop
  endfacet
  facet normal -0 0 1
    outer loop
      vertex -50 25 2.5
      vertex -7.5 20 2.5
      vertex 50 25 2.5
    endloop
  endfacet
  facet normal 0 0 1
    outer loop
      vertex -7.5 20 2.5
      vertex -50 25 2.5
      vertex -12.5 20 2.5
    endloop
  endfacet
  facet normal 0 0 1
    outer loop
      vertex -27.5 20 2.5
      vertex -32.5 20 2.5
      vertex -27.5 -20 2.5
    endloop
  endfacet
  facet normal 0 0 1
    outer loop
      vertex -12.5 20 2.5
      vertex -50 25 2.5
      vertex -27.5 20 2.5
    endloop
  endfacet
  facet normal 0 0 1
    outer loop
      vertex -27.5 20 2.5
      vertex -50 25 2.5
      vertex -32.5 20 2.5
    endloop
  endfacet
  facet normal 0 0 1
    outer loop
      vertex -45 20 2.5
      vertex -50 25 2.5
      vertex -45 -20 2.5
    endloop
  endfacet
  facet normal 0 0 1
    outer loop
      vertex -32.5 20 2.5
      vertex -50 25 2.5
      vertex -45 20 2.5
    endloop
  endfacet
  facet normal -0 0 1
    outer loop
      vertex 45 -20 2.5
      vertex 50 -25 2.5
      vertex 45 20 2.5
    endloop
  endfacet
  facet normal -0 0 1
    outer loop
      vertex 32.5 -20 2.5
      vertex 50 -25 2.5
      vertex 45 -20 2.5
    endloop
  endfacet
  facet normal 0 0 1
    outer loop
      vertex 27.5 -20 2.5
      vertex 32.5 -20 2.5
      vertex 27.5 20 2.5
    endloop
  endfacet
  facet normal -0 0 1
    outer loop
      vertex 27.5 -20 2.5
      vertex 50 -25 2.5
      vertex 32.5 -20 2.5
    endloop
  endfacet
  facet normal -0 0 1
    outer loop
      vertex 12.5 -20 2.5
      vertex 50 -25 2.5
      vertex 27.5 -20 2.5
    endloop
  endfacet
  facet normal 0 0 1
    outer loop
      vertex 7.5 -20 2.5
      vertex 12.5 -20 2.5
      vertex 7.5 20 2.5
    endloop
  endfacet
  facet normal -0 0 1
    outer loop
      vertex 7.5 -20 2.5
      vertex 50 -25 2.5
      vertex 12.5 -20 2.5
    endloop
  endfacet
  facet normal -0 0 1
    outer loop
      vertex -7.5 -20 2.5
      vertex 50 -25 2.5
      vertex 7.5 -20 2.5
    endloop
  endfacet
  facet normal 0 0 1
    outer loop
      vertex -12.5 -20 2.5
      vertex -7.5 -20 2.5
      vertex -12.5 20 2.5
    endloop
  endfacet
  facet normal 0 0 1
    outer loop
      vertex -50 -25 2.5
      vertex -7.5 -20 2.5
      vertex -12.5 -20 2.5
    endloop
  endfacet
  facet normal 0 0 1
    outer loop
      vertex -50 -25 2.5
      vertex -12.5 -20 2.5
      vertex -27.5 -20 2.5
    endloop
  endfacet
  facet normal 0 0 1
    outer loop
      vertex -32.5 -20 2.5
      vertex -27.5 -20 2.5
      vertex -32.5 20 2.5
    endloop
  endfacet
  facet normal 0 0 1
    outer loop
      vertex -50 -25 2.5
      vertex -27.5 -20 2.5
      vertex -32.5 -20 2.5
    endloop
  endfacet
  facet normal 0 0 1
    outer loop
      vertex -50 -25 2.5
      vertex -32.5 -20 2.5
      vertex -45 -20 2.5
    endloop
  endfacet
  facet normal 0 0 1
    outer loop
      vertex -7.5 -20 2.5
      vertex -50 -25 2.5
      vertex 50 -25 2.5
    endloop
  endfacet
  facet normal 0 0 1
    outer loop
      vertex -50 -25 2.5
      vertex -45 -20 2.5
      vertex -50 25 2.5
    endloop
  endfacet
  facet normal 0 0 -1
    outer loop
      vertex 50 -25 -2.5
      vertex 45 -20 -2.5
      vertex 50 25 -2.5
    endloop
  endfacet
  facet normal 0 0 -1
    outer loop
      vertex 50 -25 -2.5
      vertex 32.5 -20 -2.5
      vertex 45 -20 -2.5
    endloop
  endfacet
  facet normal 0 0 -1
    outer loop
      vertex 32.5 -20 -2.5
      vertex 27.5 -20 -2.5
      vertex 32.5 20 -2.5
    endloop
  endfacet
  facet normal 0 0 -1
    outer loop
      vertex 50 -25 -2.5
      vertex 27.5 -20 -2.5
      vertex 32.5 -20 -2.5
    endloop
  endfacet
  facet normal 0 0 -1
    outer loop
      vertex 50 -25 -2.5
      vertex 12.5 -20 -2.5
      vertex 27.5 -20 -2.5
    endloop
  endfacet
  facet normal 0 0 -1
    outer loop
      vertex 12.5 -20 -2.5
      vertex 7.5 -20 -2.5
      vertex 12.5 20 -2.5
    endloop
  endfacet
  facet normal 0 0 -1
    outer loop
      vertex 50 -25 -2.5
      vertex 7.5 -20 -2.5
      vertex 12.5 -20 -2.5
    endloop
  endfacet
  facet normal 0 0 -1
    outer loop
      vertex 50 -25 -2.5
      vertex -7.5 -20 -2.5
      vertex 7.5 -20 -2.5
    endloop
  endfacet
  facet normal 0 0 -1
    outer loop
      vertex -7.5 -20 -2.5
      vertex -12.5 -20 -2.5
      vertex -7.5 20 -2.5
    endloop
  endfacet
  facet normal 0 0 -1
    outer loop
      vertex -50 -25 -2.5
      vertex -7.5 -20 -2.5
      vertex 50 -25 -2.5
    endloop
  endfacet
  facet normal -0 0 -1
    outer loop
      vertex -7.5 -20 -2.5
      vertex -50 -25 -2.5
      vertex -12.5 -20 -2.5
    endloop
  endfacet
  facet normal 0 0 -1
    outer loop
      vertex -27.5 -20 -2.5
      vertex -32.5 -20 -2.5
      vertex -27.5 20 -2.5
    endloop
  endfacet
  facet normal -0 0 -1
    outer loop
      vertex -12.5 -20 -2.5
      vertex -50 -25 -2.5
      vertex -27.5 -20 -2.5
    endloop
  endfacet
  facet normal -0 0 -1
    outer loop
      vertex -27.5 -20 -2.5
      vertex -50 -25 -2.5
      vertex -32.5 -20 -2.5
    endloop
  endfacet
  facet normal -0 0 -1
    outer loop
      vertex -45 -20 -2.5
      vertex -50 -25 -2.5
      vertex -45 20 -2.5
    endloop
  endfacet
  facet normal -0 0 -1
    outer loop
      vertex -32.5 -20 -2.5
      vertex -50 -25 -2.5
      vertex -45 -20 -2.5
    endloop
  endfacet
  facet normal 0 0 -1
    outer loop
      vertex 45 20 -2.5
      vertex 50 25 -2.5
      vertex 45 -20 -2.5
    endloop
  endfacet
  facet normal 0 0 -1
    outer loop
      vertex 32.5 20 -2.5
      vertex 50 25 -2.5
      vertex 45 20 -2.5
    endloop
  endfacet
  facet normal 0 0 -1
    outer loop
      vertex 27.5 20 -2.5
      vertex 32.5 20 -2.5
      vertex 27.5 -20 -2.5
    endloop
  endfacet
  facet normal 0 0 -1
    outer loop
      vertex 27.5 20 -2.5
      vertex 50 25 -2.5
      vertex 32.5 20 -2.5
    endloop
  endfacet
  facet normal 0 0 -1
    outer loop
      vertex 12.5 20 -2.5
      vertex 50 25 -2.5
      vertex 27.5 20 -2.5
    endloop
  endfacet
  facet normal 0 0 -1
    outer loop
      vertex 7.5 20 -2.5
      vertex 12.5 20 -2.5
      vertex 7.5 -20 -2.5
    endloop
  endfacet
  facet normal 0 0 -1
    outer loop
      vertex 7.5 20 -2.5
      vertex 50 25 -2.5
      vertex 12.5 20 -2.5
    endloop
  endfacet
  facet normal 0 0 -1
    outer loop
      vertex -7.5 20 -2.5
      vertex 50 25 -2.5
      vertex 7.5 20 -2.5
    endloop
  endfacet
  facet normal 0 0 -1
    outer loop
      vertex -12.5 20 -2.5
      vertex -7.5 20 -2.5
      vertex -12.5 -20 -2.5
    endloop
  endfacet
  facet normal 0 0 -1
    outer loop
      vertex -50 25 -2.5
      vertex -7.5 20 -2.5
      vertex -12.5 20 -2.5
    endloop
  endfacet
  facet normal 0 0 -1
    outer loop
      vertex -50 25 -2.5
      vertex -12.5 20 -2.5
      vertex -27.5 20 -2.5
    endloop
  endfacet
  facet normal 0 0 -1
    outer loop
      vertex -32.5 20 -2.5
      vertex -27.5 20 -2.5
      vertex -32.5 -20 -2.5
    endloop
  endfacet
  facet normal 0 0 -1
    outer loop
      vertex -50 25 -2.5
      vertex -27.5 20 -2.5
      vertex -32.5 20 -2.5
    endloop
  endfacet
  facet normal 0 0 -1
    outer loop
      vertex -50 25 -2.5
      vertex -32.5 20 -2.5
      vertex -45 20 -2.5
    endloop
  endfacet
  facet normal 0 0 -1
    outer loop
      vertex -7.5 20 -2.5
      vertex -50 25 -2.5
      vertex 50 25 -2.5
    endloop
  endfacet
  facet normal 0 0 -1
    outer loop
      vertex -50 25 -2.5
      vertex -45 20 -2.5
      vertex -50 -25 -2.5
    endloop
  endfacet
  facet normal -1 0 0
    outer loop
      vertex -50 -25 -2.5
      vertex -50 25 2.5
      vertex -50 25 -2.5
    endloop
  endfacet
  facet normal -1 -0 0
    outer loop
      vertex -50 25 2.5
      vertex -50 -25 -2.5
      vertex -50 -25 2.5
    endloop
  endfacet
  facet normal 0 1 -0
    outer loop
      vertex 50 25 -2.5
      vertex -50 25 2.5
      vertex 50 25 2.5
    endloop
  endfacet
  facet normal 0 1 0
    outer loop
      vertex -50 25 2.5
      vertex 50 25 -2.5
      vertex -50 25 -2.5
    endloop
  endfacet
  facet normal 0 -1 0
    outer loop
      vertex -50 -25 -2.5
      vertex 50 -25 2.5
      vertex -50 -25 2.5
    endloop
  endfacet
  facet normal 0 -1 -0
    outer loop
      vertex 50 -25 2.5
      vertex -50 -25 -2.5
      vertex 50 -25 -2.5
    endloop
  endfacet
  facet normal -1 0 0
    outer loop
      vertex 45 -20 -2.5
      vertex 45 20 2.5
      vertex 45 20 -2.5
    endloop
  endfacet
  facet normal -1 -0 0
    outer loop
      vertex 45 20 2.5
      vertex 45 -20 -2.5
      vertex 45 -20 2.5
    endloop
  endfacet
  facet normal 1 -0 0
    outer loop
      vertex -45 -20 2.5
      vertex -45 20 -2.5
      vertex -45 20 2.5
    endloop
  endfacet
  facet normal 1 0 0
    outer loop
      vertex -45 20 -2.5
      vertex -45 -20 2.5
      vertex -45 -20 -2.5
    endloop
  endfacet
  facet normal 0 -1 0
    outer loop
      vertex -45 20 -2.5
      vertex -32.5 20 2.5
      vertex -45 20 2.5
    endloop
  endfacet
  facet normal 0 -1 -0
    outer loop
      vertex -32.5 20 2.5
      vertex -45 20 -2.5
      vertex -32.5 20 -2.5
    endloop
  endfacet
  facet normal 0 -1 0
    outer loop
      vertex 32.5 20 -2.5
      vertex 45 20 2.5
      vertex 32.5 20 2.5
    endloop
  endfacet
  facet normal 0 -1 -0
    outer loop
      vertex 45 20 2.5
      vertex 32.5 20 -2.5
      vertex 45 20 -2.5
    endloop
  endfacet
  facet normal 0 -1 0
    outer loop
      vertex -27.5 20 -2.5
      vertex -12.5 20 2.5
      vertex -27.5 20 2.5
    endloop
  endfacet
  facet normal 0 -1 -0
    outer loop
      vertex -12.5 20 2.5
      vertex -27.5 20 -2.5
      vertex -12.5 20 -2.5
    endloop
  endfacet
  facet normal 0 -1 0
    outer loop
      vertex -7.5 20 -2.5
      vertex 7.5 20 2.5
      vertex -7.5 20 2.5
    endloop
  endfacet
  facet normal 0 -1 -0
    outer loop
      vertex 7.5 20 2.5
      vertex -7.5 20 -2.5
      vertex 7.5 20 -2.5
    endloop
  endfacet
  facet normal 0 -1 0
    outer loop
      vertex 12.5 20 -2.5
      vertex 27.5 20 2.5
      vertex 12.5 20 2.5
    endloop
  endfacet
  facet normal 0 -1 -0
    outer loop
      vertex 27.5 20 2.5
      vertex 12.5 20 -2.5
      vertex 27.5 20 -2.5
    endloop
  endfacet
  facet normal 0 1 -0
    outer loop
      vertex -32.5 -20 -2.5
      vertex -45 -20 2.5
      vertex -32.5 -20 2.5
    endloop
  endfacet
  facet normal 0 1 0
    outer loop
      vertex -45 -20 2.5
      vertex -32.5 -20 -2.5
      vertex -45 -20 -2.5
    endloop
  endfacet
  facet normal 0 1 -0
    outer loop
      vertex 45 -20 -2.5
      vertex 32.5 -20 2.5
      vertex 45 -20 2.5
    endloop
  endfacet
  facet normal 0 1 0
    outer loop
      vertex 32.5 -20 2.5
      vertex 45 -20 -2.5
      vertex 32.5 -20 -2.5
    endloop
  endfacet
  facet normal 0 1 -0
    outer loop
      vertex -12.5 -20 -2.5
      vertex -27.5 -20 2.5
      vertex -12.5 -20 2.5
    endloop
  endfacet
  facet normal 0 1 0
    outer loop
      vertex -27.5 -20 2.5
      vertex -12.5 -20 -2.5
      vertex -27.5 -20 -2.5
    endloop
  endfacet
  facet normal 0 1 -0
    outer loop
      vertex 7.5 -20 -2.5
      vertex -7.5 -20 2.5
      vertex 7.5 -20 2.5
    endloop
  endfacet
  facet normal 0 1 0
    outer loop
      vertex -7.5 -20 2.5
      vertex 7.5 -20 -2.5
      vertex -7.5 -20 -2.5
    endloop
  endfacet
  facet normal 0 1 -0
    outer loop
      vertex 27.5 -20 -2.5
      vertex 12.5 -20 2.5
      vertex 27.5 -20 2.5
    endloop
  endfacet
  facet normal 0 1 0
    outer loop
      vertex 12.5 -20 2.5
      vertex 27.5 -20 -2.5
      vertex 12.5 -20 -2.5
    endloop
  endfacet
  facet normal 1 -0 0
    outer loop
      vertex -27.5 -20 2.5
      vertex -27.5 20 -2.5
      vertex -27.5 20 2.5
    endloop
  endfacet
  facet normal 1 0 0
    outer loop
      vertex -27.5 20 -2.5
      vertex -27.5 -20 2.5
      vertex -27.5 -20 -2.5
    endloop
  endfacet
  facet normal -1 0 0
    outer loop
      vertex -32.5 -20 -2.5
      vertex -32.5 20 2.5
      vertex -32.5 20 -2.5
    endloop
  endfacet
  facet normal -1 -0 0
    outer loop
      vertex -32.5 20 2.5
      vertex -32.5 -20 -2.5
      vertex -32.5 -20 2.5
    endloop
  endfacet
  facet normal 1 -0 0
    outer loop
      vertex -7.5 -20 2.5
      vertex -7.5 20 -2.5
      vertex -7.5 20 2.5
    endloop
  endfacet
  facet normal 1 0 0
    outer loop
      vertex -7.5 20 -2.5
      vertex -7.5 -20 2.5
      vertex -7.5 -20 -2.5
    endloop
  endfacet
  facet normal -1 0 0
    outer loop
      vertex -12.5 -20 -2.5
      vertex -12.5 20 2.5
      vertex -12.5 20 -2.5
    endloop
  endfacet
  facet normal -1 -0 0
    outer loop
      vertex -12.5 20 2.5
      vertex -12.5 -20 -2.5
      vertex -12.5 -20 2.5
    endloop
  endfacet
  facet normal 1 -0 0
    outer loop
      vertex 12.5 -20 2.5
      vertex 12.5 20 -2.5
      vertex 12.5 20 2.5
    endloop
  endfacet
  facet normal 1 0 0
    outer loop
      vertex 12.5 20 -2.5
      vertex 12.5 -20 2.5
      vertex 12.5 -20 -2.5
    endloop
  endfacet
  facet normal -1 0 0
    outer loop
      vertex 7.5 -20 -2.5
      vertex 7.5 20 2.5
      vertex 7.5 20 -2.5
    endloop
  endfacet
  facet normal -1 -0 0
    outer loop
      vertex 7.5 20 2.5
      vertex 7.5 -20 -2.5
      vertex 7.5 -20 2.5
    endloop
  endfacet
  facet normal 1 -0 0
    outer loop
      vertex 32.5 -20 2.5
      vertex 32.5 20 -2.5
      vertex 32.5 20 2.5
    endloop
  endfacet
  facet normal 1 0 0
    outer loop
      vertex 32.5 20 -2.5
      vertex 32.5 -20 2.5
      vertex 32.5 -20 -2.5
    endloop
  endfacet
  facet normal -1 0 0
    outer loop
      vertex 27.5 -20 -2.5
      vertex 27.5 20 2.5
      vertex 27.5 20 -2.5
    endloop
  endfacet
  facet normal -1 -0 0
    outer loop
      vertex 27.5 20 2.5
      vertex 27.5 -20 -2.5
      vertex 27.5 -20 2.5
    endloop
  endfacet
endsolid OpenSCAD_Model
