solid OpenSCAD_Model
  facet normal -0.743149 -0.669126 0
    outer loop
      vertex -13.3826 -14.8629 -3
      vertex -16.1803 -11.7557 3
      vertex -16.1803 -11.7557 -3
    endloop
  endfacet
  facet normal -0.743149 -0.669126 0
    outer loop
      vertex -16.1803 -11.7557 3
      vertex -13.3826 -14.8629 -3
      vertex -13.3826 -14.8629 3
    endloop
  endfacet
  facet normal 0.951053 0.309029 0
    outer loop
      vertex 19.563 4.15823 3
      vertex 18.2709 8.13473 -3
      vertex 18.2709 8.13473 3
    endloop
  endfacet
  facet normal 0.951053 0.309029 0
    outer loop
      vertex 18.2709 8.13473 -3
      vertex 19.563 4.15823 3
      vertex 19.563 4.15823 -3
    endloop
  endfacet
  facet normal 0.994523 0.104517 0
    outer loop
      vertex 20 0 3
      vertex 19.563 4.15823 -3
      vertex 19.563 4.15823 3
    endloop
  endfacet
  facet normal 0.994523 0.104517 0
    outer loop
      vertex 19.563 4.15823 -3
      vertex 20 0 3
      vertex 20 0 -3
    endloop
  endfacet
  facet normal 0.866022 0.500006 0
    outer loop
      vertex 18.2709 8.13473 3
      vertex 16.1803 11.7557 -3
      vertex 16.1803 11.7557 3
    endloop
  endfacet
  facet normal 0.866022 0.500006 0
    outer loop
      vertex 16.1803 11.7557 -3
      vertex 18.2709 8.13473 3
      vertex 18.2709 8.13473 -3
    endloop
  endfacet
  facet normal 0.951053 -0.309029 0
    outer loop
      vertex 18.2709 -8.13473 3
      vertex 19.563 -4.15823 -3
      vertex 19.563 -4.15823 3
    endloop
  endfacet
  facet normal 0.951053 -0.309029 0
    outer loop
      vertex 19.563 -4.15823 -3
      vertex 18.2709 -8.13473 3
      vertex 18.2709 -8.13473 -3
    endloop
  endfacet
  facet normal 0.587785 -0.809017 0
    outer loop
      vertex 10 -17.3205 -3
      vertex 13.3826 -14.8629 3
      vertex 10 -17.3205 3
    endloop
  endfacet
  facet normal 0.587785 -0.809017 0
    outer loop
      vertex 13.3826 -14.8629 3
      vertex 10 -17.3205 -3
      vertex 13.3826 -14.8629 -3
    endloop
  endfacet
  facet normal 0.743149 -0.669126 0
    outer loop
      vertex 13.3826 -14.8629 3
      vertex 16.1803 -11.7557 -3
      vertex 16.1803 -11.7557 3
    endloop
  endfacet
  facet normal 0.743149 -0.669126 0
    outer loop
      vertex 16.1803 -11.7557 -3
      vertex 13.3826 -14.8629 3
      vertex 13.3826 -14.8629 -3
    endloop
  endfacet
  facet normal 0.994523 -0.104517 0
    outer loop
      vertex 19.563 -4.15823 3
      vertex 20 0 -3
      vertex 20 0 3
    endloop
  endfacet
  facet normal 0.994523 -0.104517 0
    outer loop
      vertex 20 0 -3
      vertex 19.563 -4.15823 3
      vertex 19.563 -4.15823 -3
    endloop
  endfacet
  facet normal -0.406732 -0.913547 0
    outer loop
      vertex -10 -17.3205 -3
      vertex -6.18034 -19.0211 3
      vertex -10 -17.3205 3
    endloop
  endfacet
  facet normal -0.406732 -0.913547 -0
    outer loop
      vertex -6.18034 -19.0211 3
      vertex -10 -17.3205 -3
      vertex -6.18034 -19.0211 -3
    endloop
  endfacet
  facet normal 0.406732 0.913547 -0
    outer loop
      vertex 10 17.3205 -3
      vertex 6.18034 19.0211 3
      vertex 10 17.3205 3
    endloop
  endfacet
  facet normal 0.406732 0.913547 0
    outer loop
      vertex 6.18034 19.0211 3
      vertex 10 17.3205 -3
      vertex 6.18034 19.0211 -3
    endloop
  endfacet
  facet normal 0.743149 0.669126 0
    outer loop
      vertex 16.1803 11.7557 3
      vertex 13.3826 14.8629 -3
      vertex 13.3826 14.8629 3
    endloop
  endfacet
  facet normal 0.743149 0.669126 0
    outer loop
      vertex 13.3826 14.8629 -3
      vertex 16.1803 11.7557 3
      vertex 16.1803 11.7557 -3
    endloop
  endfacet
  facet normal -0.587785 -0.809017 0
    outer loop
      vertex -13.3826 -14.8629 -3
      vertex -10 -17.3205 3
      vertex -13.3826 -14.8629 3
    endloop
  endfacet
  facet normal -0.587785 -0.809017 -0
    outer loop
      vertex -10 -17.3205 3
      vertex -13.3826 -14.8629 -3
      vertex -10 -17.3205 -3
    endloop
  endfacet
  facet normal -0.743149 0.669126 0
    outer loop
      vertex -16.1803 11.7557 -3
      vertex -13.3826 14.8629 3
      vertex -13.3826 14.8629 -3
    endloop
  endfacet
  facet normal -0.743149 0.669126 0
    outer loop
      vertex -13.3826 14.8629 3
      vertex -16.1803 11.7557 -3
      vertex -16.1803 11.7557 3
    endloop
  endfacet
  facet normal 0 1 -0
    outer loop
      vertex 2.09057 19.8904 -3
      vertex -2.09057 19.8904 3
      vertex 2.09057 19.8904 3
    endloop
  endfacet
  facet normal 0 1 0
    outer loop
      vertex -2.09057 19.8904 3
      vertex 2.09057 19.8904 -3
      vertex -2.09057 19.8904 -3
    endloop
  endfacet
  facet normal 0.406732 -0.913547 0
    outer loop
      vertex 6.18034 -19.0211 -3
      vertex 10 -17.3205 3
      vertex 6.18034 -19.0211 3
    endloop
  endfacet
  facet normal 0.406732 -0.913547 0
    outer loop
      vertex 10 -17.3205 3
      vertex 6.18034 -19.0211 -3
      vertex 10 -17.3205 -3
    endloop
  endfacet
  facet normal 0.20791 -0.978148 0
    outer loop
      vertex 2.09057 -19.8904 -3
      vertex 6.18034 -19.0211 3
      vertex 2.09057 -19.8904 3
    endloop
  endfacet
  facet normal 0.20791 -0.978148 0
    outer loop
      vertex 6.18034 -19.0211 3
      vertex 2.09057 -19.8904 -3
      vertex 6.18034 -19.0211 -3
    endloop
  endfacet
  facet normal -0.951053 0.309029 0
    outer loop
      vertex -19.563 4.15823 -3
      vertex -18.2709 8.13473 3
      vertex -18.2709 8.13473 -3
    endloop
  endfacet
  facet normal -0.951053 0.309029 0
    outer loop
      vertex -18.2709 8.13473 3
      vertex -19.563 4.15823 -3
      vertex -19.563 4.15823 3
    endloop
  endfacet
  facet normal 0 0 -1
    outer loop
      vertex 19.563 -4.15823 -3
      vertex 9.78148 -2.07912 -3
      vertex 10 0 -3
    endloop
  endfacet
  facet normal 0 0 -1
    outer loop
      vertex 13.3826 -14.8629 -3
      vertex 9.13545 -4.06737 -3
      vertex 9.78148 -2.07912 -3
    endloop
  endfacet
  facet normal 0 0 -1
    outer loop
      vertex 13.3826 -14.8629 -3
      vertex 8.09017 -5.87785 -3
      vertex 9.13545 -4.06737 -3
    endloop
  endfacet
  facet normal 0 0 -1
    outer loop
      vertex 13.3826 -14.8629 -3
      vertex 6.69131 -7.43145 -3
      vertex 8.09017 -5.87785 -3
    endloop
  endfacet
  facet normal 0 0 -1
    outer loop
      vertex 5 -8.66025 -3
      vertex 10 -17.3205 -3
      vertex 6.18034 -19.0211 -3
    endloop
  endfacet
  facet normal 0 0 -1
    outer loop
      vertex 10 -17.3205 -3
      vertex 5 -8.66025 -3
      vertex 6.69131 -7.43145 -3
    endloop
  endfacet
  facet normal 0 0 -1
    outer loop
      vertex 6.18034 -19.0211 -3
      vertex 3.09017 -9.51056 -3
      vertex 5 -8.66025 -3
    endloop
  endfacet
  facet normal 0 0 -1
    outer loop
      vertex 2.09057 -19.8904 -3
      vertex 3.09017 -9.51056 -3
      vertex 6.18034 -19.0211 -3
    endloop
  endfacet
  facet normal 0 0 -1
    outer loop
      vertex 2.09057 -19.8904 -3
      vertex 1.04528 -9.94522 -3
      vertex 3.09017 -9.51056 -3
    endloop
  endfacet
  facet normal 0 0 -1
    outer loop
      vertex 2.09057 -19.8904 -3
      vertex -1.04528 -9.94522 -3
      vertex 1.04528 -9.94522 -3
    endloop
  endfacet
  facet normal 0 0 -1
    outer loop
      vertex -2.09057 -19.8904 -3
      vertex -1.04528 -9.94522 -3
      vertex 2.09057 -19.8904 -3
    endloop
  endfacet
  facet normal 0 0 -1
    outer loop
      vertex -2.09057 -19.8904 -3
      vertex -3.09017 -9.51056 -3
      vertex -1.04528 -9.94522 -3
    endloop
  endfacet
  facet normal 0 0 -1
    outer loop
      vertex -6.18034 -19.0211 -3
      vertex -3.09017 -9.51056 -3
      vertex -2.09057 -19.8904 -3
    endloop
  endfacet
  facet normal -0 0 -1
    outer loop
      vertex -3.09017 -9.51056 -3
      vertex -6.18034 -19.0211 -3
      vertex -5 -8.66025 -3
    endloop
  endfacet
  facet normal 0 0 -1
    outer loop
      vertex -10 -17.3205 -3
      vertex -5 -8.66025 -3
      vertex -6.18034 -19.0211 -3
    endloop
  endfacet
  facet normal -0 0 -1
    outer loop
      vertex -5 -8.66025 -3
      vertex -10 -17.3205 -3
      vertex -6.69131 -7.43145 -3
    endloop
  endfacet
  facet normal 0 0 -1
    outer loop
      vertex -13.3826 -14.8629 -3
      vertex -6.69131 -7.43145 -3
      vertex -10 -17.3205 -3
    endloop
  endfacet
  facet normal -0 0 -1
    outer loop
      vertex -6.69131 -7.43145 -3
      vertex -13.3826 -14.8629 -3
      vertex -8.09017 -5.87785 -3
    endloop
  endfacet
  facet normal 0 0 -1
    outer loop
      vertex -16.1803 -11.7557 -3
      vertex -8.09017 -5.87785 -3
      vertex -13.3826 -14.8629 -3
    endloop
  endfacet
  facet normal -0 0 -1
    outer loop
      vertex -8.09017 -5.87785 -3
      vertex -16.1803 -11.7557 -3
      vertex -9.13545 -4.06737 -3
    endloop
  endfacet
  facet normal 0 0 -1
    outer loop
      vertex -18.2709 -8.13473 -3
      vertex -9.13545 -4.06737 -3
      vertex -16.1803 -11.7557 -3
    endloop
  endfacet
  facet normal -0 0 -1
    outer loop
      vertex -9.13545 -4.06737 -3
      vertex -18.2709 -8.13473 -3
      vertex -9.78148 -2.07912 -3
    endloop
  endfacet
  facet normal 0 0 -1
    outer loop
      vertex -10 0 -3
      vertex -13.3826 14.8629 -3
      vertex -10 17.3205 -3
    endloop
  endfacet
  facet normal 0 0 -1
    outer loop
      vertex -19.563 -4.15823 -3
      vertex -9.78148 -2.07912 -3
      vertex -18.2709 -8.13473 -3
    endloop
  endfacet
  facet normal 0 0 -1
    outer loop
      vertex -10 0 -3
      vertex -16.1803 11.7557 -3
      vertex -13.3826 14.8629 -3
    endloop
  endfacet
  facet normal -0 0 -1
    outer loop
      vertex -9.78148 -2.07912 -3
      vertex -19.563 -4.15823 -3
      vertex -10 0 -3
    endloop
  endfacet
  facet normal 0 0 -1
    outer loop
      vertex -10 0 -3
      vertex -18.2709 8.13473 -3
      vertex -16.1803 11.7557 -3
    endloop
  endfacet
  facet normal 0 0 -1
    outer loop
      vertex -20 0 -3
      vertex -10 0 -3
      vertex -19.563 -4.15823 -3
    endloop
  endfacet
  facet normal 0 0 -1
    outer loop
      vertex -10 0 -3
      vertex -19.563 4.15823 -3
      vertex -18.2709 8.13473 -3
    endloop
  endfacet
  facet normal 0 0 -1
    outer loop
      vertex -10 0 -3
      vertex -20 0 -3
      vertex -19.563 4.15823 -3
    endloop
  endfacet
  facet normal 0 0 -1
    outer loop
      vertex 10 0 -3
      vertex 20 0 -3
      vertex 19.563 -4.15823 -3
    endloop
  endfacet
  facet normal 0 0 -1
    outer loop
      vertex 9.78148 -2.07912 -3
      vertex 19.563 -4.15823 -3
      vertex 18.2709 -8.13473 -3
    endloop
  endfacet
  facet normal 0 0 -1
    outer loop
      vertex 20 0 -3
      vertex 10 0 -3
      vertex 19.563 4.15823 -3
    endloop
  endfacet
  facet normal 0 0 -1
    outer loop
      vertex 9.78148 -2.07912 -3
      vertex 18.2709 -8.13473 -3
      vertex 16.1803 -11.7557 -3
    endloop
  endfacet
  facet normal 0 0 -1
    outer loop
      vertex 9.78148 2.07912 -3
      vertex 19.563 4.15823 -3
      vertex 10 0 -3
    endloop
  endfacet
  facet normal 0 0 -1
    outer loop
      vertex 9.78148 -2.07912 -3
      vertex 16.1803 -11.7557 -3
      vertex 13.3826 -14.8629 -3
    endloop
  endfacet
  facet normal -0 0 -1
    outer loop
      vertex 19.563 4.15823 -3
      vertex 9.78148 2.07912 -3
      vertex 18.2709 8.13473 -3
    endloop
  endfacet
  facet normal 0 0 -1
    outer loop
      vertex 6.69131 -7.43145 -3
      vertex 13.3826 -14.8629 -3
      vertex 10 -17.3205 -3
    endloop
  endfacet
  facet normal 0 0 -1
    outer loop
      vertex 9.13545 4.06737 -3
      vertex 18.2709 8.13473 -3
      vertex 9.78148 2.07912 -3
    endloop
  endfacet
  facet normal -0 0 -1
    outer loop
      vertex 18.2709 8.13473 -3
      vertex 9.13545 4.06737 -3
      vertex 16.1803 11.7557 -3
    endloop
  endfacet
  facet normal 0 0 -1
    outer loop
      vertex 8.09017 5.87785 -3
      vertex 16.1803 11.7557 -3
      vertex 9.13545 4.06737 -3
    endloop
  endfacet
  facet normal -0 0 -1
    outer loop
      vertex 16.1803 11.7557 -3
      vertex 8.09017 5.87785 -3
      vertex 13.3826 14.8629 -3
    endloop
  endfacet
  facet normal 0 0 -1
    outer loop
      vertex 6.69131 7.43145 -3
      vertex 13.3826 14.8629 -3
      vertex 8.09017 5.87785 -3
    endloop
  endfacet
  facet normal -0 0 -1
    outer loop
      vertex 13.3826 14.8629 -3
      vertex 6.69131 7.43145 -3
      vertex 10 17.3205 -3
    endloop
  endfacet
  facet normal 0 0 -1
    outer loop
      vertex 5 8.66025 -3
      vertex 10 17.3205 -3
      vertex 6.69131 7.43145 -3
    endloop
  endfacet
  facet normal -0 0 -1
    outer loop
      vertex 10 17.3205 -3
      vertex 5 8.66025 -3
      vertex 6.18034 19.0211 -3
    endloop
  endfacet
  facet normal 0 0 -1
    outer loop
      vertex 3.09017 9.51056 -3
      vertex 6.18034 19.0211 -3
      vertex 5 8.66025 -3
    endloop
  endfacet
  facet normal 0 0 -1
    outer loop
      vertex 3.09017 9.51056 -3
      vertex 2.09057 19.8904 -3
      vertex 6.18034 19.0211 -3
    endloop
  endfacet
  facet normal 0 0 -1
    outer loop
      vertex 1.04528 9.94522 -3
      vertex 2.09057 19.8904 -3
      vertex 3.09017 9.51056 -3
    endloop
  endfacet
  facet normal 0 0 -1
    outer loop
      vertex -1.04528 9.94522 -3
      vertex 2.09057 19.8904 -3
      vertex 1.04528 9.94522 -3
    endloop
  endfacet
  facet normal 0 0 -1
    outer loop
      vertex -1.04528 9.94522 -3
      vertex -2.09057 19.8904 -3
      vertex 2.09057 19.8904 -3
    endloop
  endfacet
  facet normal 0 0 -1
    outer loop
      vertex -3.09017 9.51056 -3
      vertex -2.09057 19.8904 -3
      vertex -1.04528 9.94522 -3
    endloop
  endfacet
  facet normal 0 0 -1
    outer loop
      vertex -6.18034 19.0211 -3
      vertex -3.09017 9.51056 -3
      vertex -5 8.66025 -3
    endloop
  endfacet
  facet normal 0 0 -1
    outer loop
      vertex -3.09017 9.51056 -3
      vertex -6.18034 19.0211 -3
      vertex -2.09057 19.8904 -3
    endloop
  endfacet
  facet normal 0 0 -1
    outer loop
      vertex -10 17.3205 -3
      vertex -5 8.66025 -3
      vertex -6.69131 7.43145 -3
    endloop
  endfacet
  facet normal 0 0 -1
    outer loop
      vertex -10 17.3205 -3
      vertex -6.69131 7.43145 -3
      vertex -8.09017 5.87785 -3
    endloop
  endfacet
  facet normal 0 0 -1
    outer loop
      vertex -10 17.3205 -3
      vertex -8.09017 5.87785 -3
      vertex -9.13545 4.06737 -3
    endloop
  endfacet
  facet normal 0 0 -1
    outer loop
      vertex -10 17.3205 -3
      vertex -9.13545 4.06737 -3
      vertex -9.78148 2.07912 -3
    endloop
  endfacet
  facet normal 0 0 -1
    outer loop
      vertex -5 8.66025 -3
      vertex -10 17.3205 -3
      vertex -6.18034 19.0211 -3
    endloop
  endfacet
  facet normal 0 0 -1
    outer loop
      vertex -10 17.3205 -3
      vertex -9.78148 2.07912 -3
      vertex -10 0 -3
    endloop
  endfacet
  facet normal -0.951053 -0.309029 0
    outer loop
      vertex -18.2709 -8.13473 -3
      vertex -19.563 -4.15823 3
      vertex -19.563 -4.15823 -3
    endloop
  endfacet
  facet normal -0.951053 -0.309029 0
    outer loop
      vertex -19.563 -4.15823 3
      vertex -18.2709 -8.13473 -3
      vertex -18.2709 -8.13473 3
    endloop
  endfacet
  facet normal -0.406732 0.913547 0
    outer loop
      vertex -6.18034 19.0211 -3
      vertex -10 17.3205 3
      vertex -6.18034 19.0211 3
    endloop
  endfacet
  facet normal -0.406732 0.913547 0
    outer loop
      vertex -10 17.3205 3
      vertex -6.18034 19.0211 -3
      vertex -10 17.3205 -3
    endloop
  endfacet
  facet normal 0 0 1
    outer loop
      vertex 19.563 4.15823 3
      vertex 9.78148 2.07912 3
      vertex 10 0 3
    endloop
  endfacet
  facet normal 0 0 1
    outer loop
      vertex 13.3826 14.8629 3
      vertex 9.13545 4.06737 3
      vertex 9.78148 2.07912 3
    endloop
  endfacet
  facet normal 0 0 1
    outer loop
      vertex 13.3826 14.8629 3
      vertex 8.09017 5.87785 3
      vertex 9.13545 4.06737 3
    endloop
  endfacet
  facet normal 0 0 1
    outer loop
      vertex 13.3826 14.8629 3
      vertex 6.69131 7.43145 3
      vertex 8.09017 5.87785 3
    endloop
  endfacet
  facet normal 0 0 1
    outer loop
      vertex 5 8.66025 3
      vertex 10 17.3205 3
      vertex 6.18034 19.0211 3
    endloop
  endfacet
  facet normal 0 0 1
    outer loop
      vertex 10 17.3205 3
      vertex 5 8.66025 3
      vertex 6.69131 7.43145 3
    endloop
  endfacet
  facet normal 0 0 1
    outer loop
      vertex 6.18034 19.0211 3
      vertex 3.09017 9.51056 3
      vertex 5 8.66025 3
    endloop
  endfacet
  facet normal 0 0 1
    outer loop
      vertex 2.09057 19.8904 3
      vertex 3.09017 9.51056 3
      vertex 6.18034 19.0211 3
    endloop
  endfacet
  facet normal 0 0 1
    outer loop
      vertex 2.09057 19.8904 3
      vertex 1.04528 9.94522 3
      vertex 3.09017 9.51056 3
    endloop
  endfacet
  facet normal 0 0 1
    outer loop
      vertex 2.09057 19.8904 3
      vertex -1.04528 9.94522 3
      vertex 1.04528 9.94522 3
    endloop
  endfacet
  facet normal -0 0 1
    outer loop
      vertex -2.09057 19.8904 3
      vertex -1.04528 9.94522 3
      vertex 2.09057 19.8904 3
    endloop
  endfacet
  facet normal 0 0 1
    outer loop
      vertex -2.09057 19.8904 3
      vertex -3.09017 9.51056 3
      vertex -1.04528 9.94522 3
    endloop
  endfacet
  facet normal -0 0 1
    outer loop
      vertex -6.18034 19.0211 3
      vertex -3.09017 9.51056 3
      vertex -2.09057 19.8904 3
    endloop
  endfacet
  facet normal 0 0 1
    outer loop
      vertex -3.09017 9.51056 3
      vertex -6.18034 19.0211 3
      vertex -5 8.66025 3
    endloop
  endfacet
  facet normal -0 0 1
    outer loop
      vertex -10 17.3205 3
      vertex -5 8.66025 3
      vertex -6.18034 19.0211 3
    endloop
  endfacet
  facet normal 0 0 1
    outer loop
      vertex -5 8.66025 3
      vertex -10 17.3205 3
      vertex -6.69131 7.43145 3
    endloop
  endfacet
  facet normal -0 0 1
    outer loop
      vertex -13.3826 14.8629 3
      vertex -6.69131 7.43145 3
      vertex -10 17.3205 3
    endloop
  endfacet
  facet normal 0 0 1
    outer loop
      vertex -6.69131 7.43145 3
      vertex -13.3826 14.8629 3
      vertex -8.09017 5.87785 3
    endloop
  endfacet
  facet normal -0 0 1
    outer loop
      vertex -16.1803 11.7557 3
      vertex -8.09017 5.87785 3
      vertex -13.3826 14.8629 3
    endloop
  endfacet
  facet normal 0 0 1
    outer loop
      vertex -8.09017 5.87785 3
      vertex -16.1803 11.7557 3
      vertex -9.13545 4.06737 3
    endloop
  endfacet
  facet normal -0 0 1
    outer loop
      vertex -18.2709 8.13473 3
      vertex -9.13545 4.06737 3
      vertex -16.1803 11.7557 3
    endloop
  endfacet
  facet normal 0 0 1
    outer loop
      vertex -9.13545 4.06737 3
      vertex -18.2709 8.13473 3
      vertex -9.78148 2.07912 3
    endloop
  endfacet
  facet normal 0 0 1
    outer loop
      vertex -10 0 3
      vertex -13.3826 -14.8629 3
      vertex -10 -17.3205 3
    endloop
  endfacet
  facet normal -0 0 1
    outer loop
      vertex -19.563 4.15823 3
      vertex -9.78148 2.07912 3
      vertex -18.2709 8.13473 3
    endloop
  endfacet
  facet normal 0 0 1
    outer loop
      vertex -10 0 3
      vertex -16.1803 -11.7557 3
      vertex -13.3826 -14.8629 3
    endloop
  endfacet
  facet normal 0 0 1
    outer loop
      vertex -9.78148 2.07912 3
      vertex -19.563 4.15823 3
      vertex -10 0 3
    endloop
  endfacet
  facet normal 0 0 1
    outer loop
      vertex -10 0 3
      vertex -18.2709 -8.13473 3
      vertex -16.1803 -11.7557 3
    endloop
  endfacet
  facet normal 0 0 1
    outer loop
      vertex -20 0 3
      vertex -10 0 3
      vertex -19.563 4.15823 3
    endloop
  endfacet
  facet normal 0 0 1
    outer loop
      vertex -10 0 3
      vertex -19.563 -4.15823 3
      vertex -18.2709 -8.13473 3
    endloop
  endfacet
  facet normal 0 0 1
    outer loop
      vertex -10 0 3
      vertex -20 0 3
      vertex -19.563 -4.15823 3
    endloop
  endfacet
  facet normal 0 0 1
    outer loop
      vertex 10 0 3
      vertex 20 0 3
      vertex 19.563 4.15823 3
    endloop
  endfacet
  facet normal 0 0 1
    outer loop
      vertex 9.78148 2.07912 3
      vertex 19.563 4.15823 3
      vertex 18.2709 8.13473 3
    endloop
  endfacet
  facet normal 0 0 1
    outer loop
      vertex 20 0 3
      vertex 10 0 3
      vertex 19.563 -4.15823 3
    endloop
  endfacet
  facet normal 0 0 1
    outer loop
      vertex 9.78148 2.07912 3
      vertex 18.2709 8.13473 3
      vertex 16.1803 11.7557 3
    endloop
  endfacet
  facet normal -0 0 1
    outer loop
      vertex 9.78148 -2.07912 3
      vertex 19.563 -4.15823 3
      vertex 10 0 3
    endloop
  endfacet
  facet normal 0 0 1
    outer loop
      vertex 9.78148 2.07912 3
      vertex 16.1803 11.7557 3
      vertex 13.3826 14.8629 3
    endloop
  endfacet
  facet normal 0 0 1
    outer loop
      vertex 19.563 -4.15823 3
      vertex 9.78148 -2.07912 3
      vertex 18.2709 -8.13473 3
    endloop
  endfacet
  facet normal 0 0 1
    outer loop
      vertex 6.69131 7.43145 3
      vertex 13.3826 14.8629 3
      vertex 10 17.3205 3
    endloop
  endfacet
  facet normal -0 0 1
    outer loop
      vertex 9.13545 -4.06737 3
      vertex 18.2709 -8.13473 3
      vertex 9.78148 -2.07912 3
    endloop
  endfacet
  facet normal 0 0 1
    outer loop
      vertex 18.2709 -8.13473 3
      vertex 9.13545 -4.06737 3
      vertex 16.1803 -11.7557 3
    endloop
  endfacet
  facet normal -0 0 1
    outer loop
      vertex 8.09017 -5.87785 3
      vertex 16.1803 -11.7557 3
      vertex 9.13545 -4.06737 3
    endloop
  endfacet
  facet normal 0 0 1
    outer loop
      vertex 16.1803 -11.7557 3
      vertex 8.09017 -5.87785 3
      vertex 13.3826 -14.8629 3
    endloop
  endfacet
  facet normal -0 0 1
    outer loop
      vertex 6.69131 -7.43145 3
      vertex 13.3826 -14.8629 3
      vertex 8.09017 -5.87785 3
    endloop
  endfacet
  facet normal 0 0 1
    outer loop
      vertex 13.3826 -14.8629 3
      vertex 6.69131 -7.43145 3
      vertex 10 -17.3205 3
    endloop
  endfacet
  facet normal -0 0 1
    outer loop
      vertex 5 -8.66025 3
      vertex 10 -17.3205 3
      vertex 6.69131 -7.43145 3
    endloop
  endfacet
  facet normal 0 0 1
    outer loop
      vertex 10 -17.3205 3
      vertex 5 -8.66025 3
      vertex 6.18034 -19.0211 3
    endloop
  endfacet
  facet normal -0 0 1
    outer loop
      vertex 3.09017 -9.51056 3
      vertex 6.18034 -19.0211 3
      vertex 5 -8.66025 3
    endloop
  endfacet
  facet normal 0 0 1
    outer loop
      vertex 3.09017 -9.51056 3
      vertex 2.09057 -19.8904 3
      vertex 6.18034 -19.0211 3
    endloop
  endfacet
  facet normal -0 0 1
    outer loop
      vertex 1.04528 -9.94522 3
      vertex 2.09057 -19.8904 3
      vertex 3.09017 -9.51056 3
    endloop
  endfacet
  facet normal -0 0 1
    outer loop
      vertex -1.04528 -9.94522 3
      vertex 2.09057 -19.8904 3
      vertex 1.04528 -9.94522 3
    endloop
  endfacet
  facet normal 0 0 1
    outer loop
      vertex -1.04528 -9.94522 3
      vertex -2.09057 -19.8904 3
      vertex 2.09057 -19.8904 3
    endloop
  endfacet
  facet normal 0 0 1
    outer loop
      vertex -3.09017 -9.51056 3
      vertex -2.09057 -19.8904 3
      vertex -1.04528 -9.94522 3
    endloop
  endfacet
  facet normal 0 0 1
    outer loop
      vertex -6.18034 -19.0211 3
      vertex -3.09017 -9.51056 3
      vertex -5 -8.66025 3
    endloop
  endfacet
  facet normal 0 0 1
    outer loop
      vertex -3.09017 -9.51056 3
      vertex -6.18034 -19.0211 3
      vertex -2.09057 -19.8904 3
    endloop
  endfacet
  facet normal 0 0 1
    outer loop
      vertex -10 -17.3205 3
      vertex -5 -8.66025 3
      vertex -6.69131 -7.43145 3
    endloop
  endfacet
  facet normal 0 0 1
    outer loop
      vertex -10 -17.3205 3
      vertex -6.69131 -7.43145 3
      vertex -8.09017 -5.87785 3
    endloop
  endfacet
  facet normal 0 0 1
    outer loop
      vertex -10 -17.3205 3
      vertex -8.09017 -5.87785 3
      vertex -9.13545 -4.06737 3
    endloop
  endfacet
  facet normal 0 0 1
    outer loop
      vertex -10 -17.3205 3
      vertex -9.13545 -4.06737 3
      vertex -9.78148 -2.07912 3
    endloop
  endfacet
  facet normal 0 0 1
    outer loop
      vertex -5 -8.66025 3
      vertex -10 -17.3205 3
      vertex -6.18034 -19.0211 3
    endloop
  endfacet
  facet normal 0 0 1
    outer loop
      vertex -10 -17.3205 3
      vertex -9.78148 -2.07912 3
      vertex -10 0 3
    endloop
  endfacet
  facet normal -0.20791 -0.978148 0
    outer loop
      vertex -6.18034 -19.0211 -3
      vertex -2.09057 -19.8904 3
      vertex -6.18034 -19.0211 3
    endloop
  endfacet
  facet normal -0.20791 -0.978148 -0
    outer loop
      vertex -2.09057 -19.8904 3
      vertex -6.18034 -19.0211 -3
      vertex -2.09057 -19.8904 -3
    endloop
  endfacet
  facet normal 0.20791 0.978148 -0
    outer loop
      vertex 6.18034 19.0211 -3
      vertex 2.09057 19.8904 3
      vertex 6.18034 19.0211 3
    endloop
  endfacet
  facet normal 0.20791 0.978148 0
    outer loop
      vertex 2.09057 19.8904 3
      vertex 6.18034 19.0211 -3
      vertex 2.09057 19.8904 -3
    endloop
  endfacet
  facet normal -0.994523 -0.104517 0
    outer loop
      vertex -19.563 -4.15823 -3
      vertex -20 0 3
      vertex -20 0 -3
    endloop
  endfacet
  facet normal -0.994523 -0.104517 0
    outer loop
      vertex -20 0 3
      vertex -19.563 -4.15823 -3
      vertex -19.563 -4.15823 3
    endloop
  endfacet
  facet normal -0.866022 -0.500006 0
    outer loop
      vertex -16.1803 -11.7557 -3
      vertex -18.2709 -8.13473 3
      vertex -18.2709 -8.13473 -3
    endloop
  endfacet
  facet normal -0.866022 -0.500006 0
    outer loop
      vertex -18.2709 -8.13473 3
      vertex -16.1803 -11.7557 -3
      vertex -16.1803 -11.7557 3
    endloop
  endfacet
  facet normal -0.866022 0.500006 0
    outer loop
      vertex -18.2709 8.13473 -3
      vertex -16.1803 11.7557 3
      vertex -16.1803 11.7557 -3
    endloop
  endfacet
  facet normal -0.866022 0.500006 0
    outer loop
      vertex -16.1803 11.7557 3
      vertex -18.2709 8.13473 -3
      vertex -18.2709 8.13473 3
    endloop
  endfacet
  facet normal 0.866022 -0.500006 0
    outer loop
      vertex 16.1803 -11.7557 3
      vertex 18.2709 -8.13473 -3
      vertex 18.2709 -8.13473 3
    endloop
  endfacet
  facet normal 0.866022 -0.500006 0
    outer loop
      vertex 18.2709 -8.13473 -3
      vertex 16.1803 -11.7557 3
      vertex 16.1803 -11.7557 -3
    endloop
  endfacet
  facet normal 0.587785 0.809017 -0
    outer loop
      vertex 13.3826 14.8629 -3
      vertex 10 17.3205 3
      vertex 13.3826 14.8629 3
    endloop
  endfacet
  facet normal 0.587785 0.809017 0
    outer loop
      vertex 10 17.3205 3
      vertex 13.3826 14.8629 -3
      vertex 10 17.3205 -3
    endloop
  endfacet
  facet normal -0.587785 0.809017 0
    outer loop
      vertex -10 17.3205 -3
      vertex -13.3826 14.8629 3
      vertex -10 17.3205 3
    endloop
  endfacet
  facet normal -0.587785 0.809017 0
    outer loop
      vertex -13.3826 14.8629 3
      vertex -10 17.3205 -3
      vertex -13.3826 14.8629 -3
    endloop
  endfacet
  facet normal -0.20791 0.978148 0
    outer loop
      vertex -2.09057 19.8904 -3
      vertex -6.18034 19.0211 3
      vertex -2.09057 19.8904 3
    endloop
  endfacet
  facet normal -0.20791 0.978148 0
    outer loop
      vertex -6.18034 19.0211 3
      vertex -2.09057 19.8904 -3
      vertex -6.18034 19.0211 -3
    endloop
  endfacet
  facet normal 0 -1 0
    outer loop
      vertex -2.09057 -19.8904 -3
      vertex 2.09057 -19.8904 3
      vertex -2.09057 -19.8904 3
    endloop
  endfacet
  facet normal 0 -1 -0
    outer loop
      vertex 2.09057 -19.8904 3
      vertex -2.09057 -19.8904 -3
      vertex 2.09057 -19.8904 -3
    endloop
  endfacet
  facet normal -0.994523 0.104517 0
    outer loop
      vertex -20 0 -3
      vertex -19.563 4.15823 3
      vertex -19.563 4.15823 -3
    endloop
  endfacet
  facet normal -0.994523 0.104517 0
    outer loop
      vertex -19.563 4.15823 3
      vertex -20 0 -3
      vertex -20 0 3
    endloop
  endfacet
  facet normal -0.743147 -0.669129 0
    outer loop
      vertex -6.69131 -7.43145 3
      vertex -8.09017 -5.87785 12
      vertex -8.09017 -5.87785 3
    endloop
  endfacet
  facet normal -0.743147 -0.669129 0
    outer loop
      vertex -8.09017 -5.87785 12
      vertex -6.69131 -7.43145 3
      vertex -6.69131 -7.43145 12
    endloop
  endfacet
  facet normal -0.743147 -0.669129 0
    outer loop
      vertex -6.69131 -7.43145 -6
      vertex -8.09017 -5.87785 -3
      vertex -8.09017 -5.87785 -6
    endloop
  endfacet
  facet normal -0.743147 -0.669129 0
    outer loop
      vertex -8.09017 -5.87785 -3
      vertex -6.69131 -7.43145 -6
      vertex -6.69131 -7.43145 -3
    endloop
  endfacet
  facet normal 0.951055 0.309021 0
    outer loop
      vertex 9.78148 2.07912 -3
      vertex 9.13545 4.06737 -6
      vertex 9.13545 4.06737 -3
    endloop
  endfacet
  facet normal 0.951055 0.309021 0
    outer loop
      vertex 9.13545 4.06737 -6
      vertex 9.78148 2.07912 -3
      vertex 9.78148 2.07912 -6
    endloop
  endfacet
  facet normal 0.951055 0.309021 0
    outer loop
      vertex 9.78148 2.07912 12
      vertex 9.13545 4.06737 3
      vertex 9.13545 4.06737 12
    endloop
  endfacet
  facet normal 0.951055 0.309021 0
    outer loop
      vertex 9.13545 4.06737 3
      vertex 9.78148 2.07912 12
      vertex 9.78148 2.07912 3
    endloop
  endfacet
  facet normal 0.994522 0.104526 0
    outer loop
      vertex 10 0 12
      vertex 9.78148 2.07912 3
      vertex 9.78148 2.07912 12
    endloop
  endfacet
  facet normal 0.994522 0.104526 0
    outer loop
      vertex 9.78148 2.07912 3
      vertex 10 0 12
      vertex 10 0 3
    endloop
  endfacet
  facet normal 0.994522 0.104526 0
    outer loop
      vertex 10 0 -3
      vertex 9.78148 2.07912 -6
      vertex 9.78148 2.07912 -3
    endloop
  endfacet
  facet normal 0.994522 0.104526 0
    outer loop
      vertex 9.78148 2.07912 -6
      vertex 10 0 -3
      vertex 10 0 -6
    endloop
  endfacet
  facet normal 0.866026 0.5 0
    outer loop
      vertex 9.13545 4.06737 -3
      vertex 8.09017 5.87785 -6
      vertex 8.09017 5.87785 -3
    endloop
  endfacet
  facet normal 0.866026 0.5 0
    outer loop
      vertex 8.09017 5.87785 -6
      vertex 9.13545 4.06737 -3
      vertex 9.13545 4.06737 -6
    endloop
  endfacet
  facet normal 0.866026 0.5 0
    outer loop
      vertex 9.13545 4.06737 12
      vertex 8.09017 5.87785 3
      vertex 8.09017 5.87785 12
    endloop
  endfacet
  facet normal 0.866026 0.5 0
    outer loop
      vertex 8.09017 5.87785 3
      vertex 9.13545 4.06737 12
      vertex 9.13545 4.06737 3
    endloop
  endfacet
  facet normal 0.951055 -0.309021 0
    outer loop
      vertex 9.13545 -4.06737 12
      vertex 9.78148 -2.07912 3
      vertex 9.78148 -2.07912 12
    endloop
  endfacet
  facet normal 0.951055 -0.309021 0
    outer loop
      vertex 9.78148 -2.07912 3
      vertex 9.13545 -4.06737 12
      vertex 9.13545 -4.06737 3
    endloop
  endfacet
  facet normal 0.951055 -0.309021 0
    outer loop
      vertex 9.13545 -4.06737 -3
      vertex 9.78148 -2.07912 -6
      vertex 9.78148 -2.07912 -3
    endloop
  endfacet
  facet normal 0.951055 -0.309021 0
    outer loop
      vertex 9.78148 -2.07912 -6
      vertex 9.13545 -4.06737 -3
      vertex 9.13545 -4.06737 -6
    endloop
  endfacet
  facet normal -0.587783 0.809019 0
    outer loop
      vertex -5 8.66025 3
      vertex -6.69131 7.43145 12
      vertex -5 8.66025 12
    endloop
  endfacet
  facet normal -0.587783 0.809019 0
    outer loop
      vertex -6.69131 7.43145 12
      vertex -5 8.66025 3
      vertex -6.69131 7.43145 3
    endloop
  endfacet
  facet normal -0.587783 0.809019 0
    outer loop
      vertex -5 8.66025 -6
      vertex -6.69131 7.43145 -3
      vertex -5 8.66025 -3
    endloop
  endfacet
  facet normal -0.587783 0.809019 0
    outer loop
      vertex -6.69131 7.43145 -3
      vertex -5 8.66025 -6
      vertex -6.69131 7.43145 -6
    endloop
  endfacet
  facet normal 0.587783 -0.809019 0
    outer loop
      vertex 5 -8.66025 3
      vertex 6.69131 -7.43145 12
      vertex 5 -8.66025 12
    endloop
  endfacet
  facet normal 0.587783 -0.809019 0
    outer loop
      vertex 6.69131 -7.43145 12
      vertex 5 -8.66025 3
      vertex 6.69131 -7.43145 3
    endloop
  endfacet
  facet normal 0.587783 -0.809019 0
    outer loop
      vertex 5 -8.66025 -6
      vertex 6.69131 -7.43145 -3
      vertex 5 -8.66025 -3
    endloop
  endfacet
  facet normal 0.587783 -0.809019 0
    outer loop
      vertex 6.69131 -7.43145 -3
      vertex 5 -8.66025 -6
      vertex 6.69131 -7.43145 -6
    endloop
  endfacet
  facet normal 0.743147 -0.669129 0
    outer loop
      vertex 6.69131 -7.43145 12
      vertex 8.09017 -5.87785 3
      vertex 8.09017 -5.87785 12
    endloop
  endfacet
  facet normal 0.743147 -0.669129 0
    outer loop
      vertex 8.09017 -5.87785 3
      vertex 6.69131 -7.43145 12
      vertex 6.69131 -7.43145 3
    endloop
  endfacet
  facet normal 0.743147 -0.669129 0
    outer loop
      vertex 6.69131 -7.43145 -3
      vertex 8.09017 -5.87785 -6
      vertex 8.09017 -5.87785 -3
    endloop
  endfacet
  facet normal 0.743147 -0.669129 0
    outer loop
      vertex 8.09017 -5.87785 -6
      vertex 6.69131 -7.43145 -3
      vertex 6.69131 -7.43145 -6
    endloop
  endfacet
  facet normal 0.994522 -0.104526 0
    outer loop
      vertex 9.78148 -2.07912 12
      vertex 10 0 3
      vertex 10 0 12
    endloop
  endfacet
  facet normal 0.994522 -0.104526 0
    outer loop
      vertex 10 0 3
      vertex 9.78148 -2.07912 12
      vertex 9.78148 -2.07912 3
    endloop
  endfacet
  facet normal 0.994522 -0.104526 0
    outer loop
      vertex 9.78148 -2.07912 -3
      vertex 10 0 -6
      vertex 10 0 -3
    endloop
  endfacet
  facet normal 0.994522 -0.104526 0
    outer loop
      vertex 10 0 -6
      vertex 9.78148 -2.07912 -3
      vertex 9.78148 -2.07912 -6
    endloop
  endfacet
  facet normal -0.406736 -0.913546 0
    outer loop
      vertex -5 -8.66025 3
      vertex -3.09017 -9.51056 12
      vertex -5 -8.66025 12
    endloop
  endfacet
  facet normal -0.406736 -0.913546 -0
    outer loop
      vertex -3.09017 -9.51056 12
      vertex -5 -8.66025 3
      vertex -3.09017 -9.51056 3
    endloop
  endfacet
  facet normal -0.406736 -0.913546 0
    outer loop
      vertex -5 -8.66025 -6
      vertex -3.09017 -9.51056 -3
      vertex -5 -8.66025 -3
    endloop
  endfacet
  facet normal -0.406736 -0.913546 -0
    outer loop
      vertex -3.09017 -9.51056 -3
      vertex -5 -8.66025 -6
      vertex -3.09017 -9.51056 -6
    endloop
  endfacet
  facet normal 0.406736 0.913546 -0
    outer loop
      vertex 5 8.66025 -6
      vertex 3.09017 9.51056 -3
      vertex 5 8.66025 -3
    endloop
  endfacet
  facet normal 0.406736 0.913546 0
    outer loop
      vertex 3.09017 9.51056 -3
      vertex 5 8.66025 -6
      vertex 3.09017 9.51056 -6
    endloop
  endfacet
  facet normal 0.406736 0.913546 -0
    outer loop
      vertex 5 8.66025 3
      vertex 3.09017 9.51056 12
      vertex 5 8.66025 12
    endloop
  endfacet
  facet normal 0.406736 0.913546 0
    outer loop
      vertex 3.09017 9.51056 12
      vertex 5 8.66025 3
      vertex 3.09017 9.51056 3
    endloop
  endfacet
  facet normal 0.743147 0.669129 0
    outer loop
      vertex 8.09017 5.87785 -3
      vertex 6.69131 7.43145 -6
      vertex 6.69131 7.43145 -3
    endloop
  endfacet
  facet normal 0.743147 0.669129 0
    outer loop
      vertex 6.69131 7.43145 -6
      vertex 8.09017 5.87785 -3
      vertex 8.09017 5.87785 -6
    endloop
  endfacet
  facet normal 0.743147 0.669129 0
    outer loop
      vertex 8.09017 5.87785 12
      vertex 6.69131 7.43145 3
      vertex 6.69131 7.43145 12
    endloop
  endfacet
  facet normal 0.743147 0.669129 0
    outer loop
      vertex 6.69131 7.43145 3
      vertex 8.09017 5.87785 12
      vertex 8.09017 5.87785 3
    endloop
  endfacet
  facet normal -0.587783 -0.809019 0
    outer loop
      vertex -6.69131 -7.43145 3
      vertex -5 -8.66025 12
      vertex -6.69131 -7.43145 12
    endloop
  endfacet
  facet normal -0.587783 -0.809019 -0
    outer loop
      vertex -5 -8.66025 12
      vertex -6.69131 -7.43145 3
      vertex -5 -8.66025 3
    endloop
  endfacet
  facet normal -0.587783 -0.809019 0
    outer loop
      vertex -6.69131 -7.43145 -6
      vertex -5 -8.66025 -3
      vertex -6.69131 -7.43145 -3
    endloop
  endfacet
  facet normal -0.587783 -0.809019 -0
    outer loop
      vertex -5 -8.66025 -3
      vertex -6.69131 -7.43145 -6
      vertex -5 -8.66025 -6
    endloop
  endfacet
  facet normal -0.743147 0.669129 0
    outer loop
      vertex -8.09017 5.87785 -6
      vertex -6.69131 7.43145 -3
      vertex -6.69131 7.43145 -6
    endloop
  endfacet
  facet normal -0.743147 0.669129 0
    outer loop
      vertex -6.69131 7.43145 -3
      vertex -8.09017 5.87785 -6
      vertex -8.09017 5.87785 -3
    endloop
  endfacet
  facet normal -0.743147 0.669129 0
    outer loop
      vertex -8.09017 5.87785 3
      vertex -6.69131 7.43145 12
      vertex -6.69131 7.43145 3
    endloop
  endfacet
  facet normal -0.743147 0.669129 0
    outer loop
      vertex -6.69131 7.43145 12
      vertex -8.09017 5.87785 3
      vertex -8.09017 5.87785 12
    endloop
  endfacet
  facet normal 0 1 -0
    outer loop
      vertex 1.04528 9.94522 -6
      vertex -1.04528 9.94522 -3
      vertex 1.04528 9.94522 -3
    endloop
  endfacet
  facet normal 0 1 0
    outer loop
      vertex -1.04528 9.94522 -3
      vertex 1.04528 9.94522 -6
      vertex -1.04528 9.94522 -6
    endloop
  endfacet
  facet normal 0 1 -0
    outer loop
      vertex 1.04528 9.94522 3
      vertex -1.04528 9.94522 12
      vertex 1.04528 9.94522 12
    endloop
  endfacet
  facet normal 0 1 0
    outer loop
      vertex -1.04528 9.94522 12
      vertex 1.04528 9.94522 3
      vertex -1.04528 9.94522 3
    endloop
  endfacet
  facet normal 0.406736 -0.913546 0
    outer loop
      vertex 3.09017 -9.51056 3
      vertex 5 -8.66025 12
      vertex 3.09017 -9.51056 12
    endloop
  endfacet
  facet normal 0.406736 -0.913546 0
    outer loop
      vertex 5 -8.66025 12
      vertex 3.09017 -9.51056 3
      vertex 5 -8.66025 3
    endloop
  endfacet
  facet normal 0.406736 -0.913546 0
    outer loop
      vertex 3.09017 -9.51056 -6
      vertex 5 -8.66025 -3
      vertex 3.09017 -9.51056 -3
    endloop
  endfacet
  facet normal 0.406736 -0.913546 0
    outer loop
      vertex 5 -8.66025 -3
      vertex 3.09017 -9.51056 -6
      vertex 5 -8.66025 -6
    endloop
  endfacet
  facet normal 0.207914 -0.978147 0
    outer loop
      vertex 1.04528 -9.94522 3
      vertex 3.09017 -9.51056 12
      vertex 1.04528 -9.94522 12
    endloop
  endfacet
  facet normal 0.207914 -0.978147 0
    outer loop
      vertex 3.09017 -9.51056 12
      vertex 1.04528 -9.94522 3
      vertex 3.09017 -9.51056 3
    endloop
  endfacet
  facet normal 0.207914 -0.978147 0
    outer loop
      vertex 1.04528 -9.94522 -6
      vertex 3.09017 -9.51056 -3
      vertex 1.04528 -9.94522 -3
    endloop
  endfacet
  facet normal 0.207914 -0.978147 0
    outer loop
      vertex 3.09017 -9.51056 -3
      vertex 1.04528 -9.94522 -6
      vertex 3.09017 -9.51056 -6
    endloop
  endfacet
  facet normal -0.951055 0.309021 0
    outer loop
      vertex -9.78148 2.07912 -6
      vertex -9.13545 4.06737 -3
      vertex -9.13545 4.06737 -6
    endloop
  endfacet
  facet normal -0.951055 0.309021 0
    outer loop
      vertex -9.13545 4.06737 -3
      vertex -9.78148 2.07912 -6
      vertex -9.78148 2.07912 -3
    endloop
  endfacet
  facet normal -0.951055 0.309021 0
    outer loop
      vertex -9.78148 2.07912 3
      vertex -9.13545 4.06737 12
      vertex -9.13545 4.06737 3
    endloop
  endfacet
  facet normal -0.951055 0.309021 0
    outer loop
      vertex -9.13545 4.06737 12
      vertex -9.78148 2.07912 3
      vertex -9.78148 2.07912 12
    endloop
  endfacet
  facet normal 0 0 -1
    outer loop
      vertex 9.78148 -2.07912 -6
      vertex 9.78148 2.07912 -6
      vertex 10 0 -6
    endloop
  endfacet
  facet normal 0 0 -1
    outer loop
      vertex 9.13545 -4.06737 -6
      vertex 9.78148 2.07912 -6
      vertex 9.78148 -2.07912 -6
    endloop
  endfacet
  facet normal 0 0 -1
    outer loop
      vertex 9.13545 -4.06737 -6
      vertex 9.13545 4.06737 -6
      vertex 9.78148 2.07912 -6
    endloop
  endfacet
  facet normal 0 0 -1
    outer loop
      vertex 8.09017 -5.87785 -6
      vertex 9.13545 4.06737 -6
      vertex 9.13545 -4.06737 -6
    endloop
  endfacet
  facet normal 0 0 -1
    outer loop
      vertex 8.09017 -5.87785 -6
      vertex 8.09017 5.87785 -6
      vertex 9.13545 4.06737 -6
    endloop
  endfacet
  facet normal 0 0 -1
    outer loop
      vertex 6.69131 -7.43145 -6
      vertex 8.09017 5.87785 -6
      vertex 8.09017 -5.87785 -6
    endloop
  endfacet
  facet normal 0 0 -1
    outer loop
      vertex 6.69131 -7.43145 -6
      vertex 6.69131 7.43145 -6
      vertex 8.09017 5.87785 -6
    endloop
  endfacet
  facet normal 0 0 -1
    outer loop
      vertex 5 -8.66025 -6
      vertex 6.69131 7.43145 -6
      vertex 6.69131 -7.43145 -6
    endloop
  endfacet
  facet normal 0 0 -1
    outer loop
      vertex 5 -8.66025 -6
      vertex 5 8.66025 -6
      vertex 6.69131 7.43145 -6
    endloop
  endfacet
  facet normal 0 0 -1
    outer loop
      vertex 3.09017 -9.51056 -6
      vertex 5 8.66025 -6
      vertex 5 -8.66025 -6
    endloop
  endfacet
  facet normal 0 0 -1
    outer loop
      vertex 3.09017 -9.51056 -6
      vertex 3.09017 9.51056 -6
      vertex 5 8.66025 -6
    endloop
  endfacet
  facet normal 0 0 -1
    outer loop
      vertex 1.04528 -9.94522 -6
      vertex 3.09017 9.51056 -6
      vertex 3.09017 -9.51056 -6
    endloop
  endfacet
  facet normal 0 0 -1
    outer loop
      vertex 1.04528 -9.94522 -6
      vertex 1.04528 9.94522 -6
      vertex 3.09017 9.51056 -6
    endloop
  endfacet
  facet normal 0 0 -1
    outer loop
      vertex -1.04528 -9.94522 -6
      vertex 1.04528 9.94522 -6
      vertex 1.04528 -9.94522 -6
    endloop
  endfacet
  facet normal 0 0 -1
    outer loop
      vertex -1.04528 -9.94522 -6
      vertex -1.04528 9.94522 -6
      vertex 1.04528 9.94522 -6
    endloop
  endfacet
  facet normal 0 0 -1
    outer loop
      vertex -3.09017 -9.51056 -6
      vertex -1.04528 9.94522 -6
      vertex -1.04528 -9.94522 -6
    endloop
  endfacet
  facet normal 0 0 -1
    outer loop
      vertex -3.09017 -9.51056 -6
      vertex -3.09017 9.51056 -6
      vertex -1.04528 9.94522 -6
    endloop
  endfacet
  facet normal 0 0 -1
    outer loop
      vertex -5 -8.66025 -6
      vertex -3.09017 9.51056 -6
      vertex -3.09017 -9.51056 -6
    endloop
  endfacet
  facet normal 0 0 -1
    outer loop
      vertex -5 -8.66025 -6
      vertex -5 8.66025 -6
      vertex -3.09017 9.51056 -6
    endloop
  endfacet
  facet normal 0 0 -1
    outer loop
      vertex -6.69131 -7.43145 -6
      vertex -5 8.66025 -6
      vertex -5 -8.66025 -6
    endloop
  endfacet
  facet normal 0 0 -1
    outer loop
      vertex -6.69131 -7.43145 -6
      vertex -6.69131 7.43145 -6
      vertex -5 8.66025 -6
    endloop
  endfacet
  facet normal 0 0 -1
    outer loop
      vertex -8.09017 -5.87785 -6
      vertex -6.69131 7.43145 -6
      vertex -6.69131 -7.43145 -6
    endloop
  endfacet
  facet normal 0 0 -1
    outer loop
      vertex -8.09017 -5.87785 -6
      vertex -8.09017 5.87785 -6
      vertex -6.69131 7.43145 -6
    endloop
  endfacet
  facet normal 0 0 -1
    outer loop
      vertex -9.13545 -4.06737 -6
      vertex -8.09017 5.87785 -6
      vertex -8.09017 -5.87785 -6
    endloop
  endfacet
  facet normal 0 0 -1
    outer loop
      vertex -9.13545 -4.06737 -6
      vertex -9.13545 4.06737 -6
      vertex -8.09017 5.87785 -6
    endloop
  endfacet
  facet normal 0 0 -1
    outer loop
      vertex -9.78148 -2.07912 -6
      vertex -9.13545 4.06737 -6
      vertex -9.13545 -4.06737 -6
    endloop
  endfacet
  facet normal 0 0 -1
    outer loop
      vertex -9.78148 -2.07912 -6
      vertex -9.78148 2.07912 -6
      vertex -9.13545 4.06737 -6
    endloop
  endfacet
  facet normal 0 -0 -1
    outer loop
      vertex -9.78148 2.07912 -6
      vertex -9.78148 -2.07912 -6
      vertex -10 0 -6
    endloop
  endfacet
  facet normal -0.951055 -0.309021 0
    outer loop
      vertex -9.13545 -4.06737 -6
      vertex -9.78148 -2.07912 -3
      vertex -9.78148 -2.07912 -6
    endloop
  endfacet
  facet normal -0.951055 -0.309021 0
    outer loop
      vertex -9.78148 -2.07912 -3
      vertex -9.13545 -4.06737 -6
      vertex -9.13545 -4.06737 -3
    endloop
  endfacet
  facet normal -0.951055 -0.309021 0
    outer loop
      vertex -9.13545 -4.06737 3
      vertex -9.78148 -2.07912 12
      vertex -9.78148 -2.07912 3
    endloop
  endfacet
  facet normal -0.951055 -0.309021 0
    outer loop
      vertex -9.78148 -2.07912 12
      vertex -9.13545 -4.06737 3
      vertex -9.13545 -4.06737 12
    endloop
  endfacet
  facet normal -0.406736 0.913546 0
    outer loop
      vertex -3.09017 9.51056 -6
      vertex -5 8.66025 -3
      vertex -3.09017 9.51056 -3
    endloop
  endfacet
  facet normal -0.406736 0.913546 0
    outer loop
      vertex -5 8.66025 -3
      vertex -3.09017 9.51056 -6
      vertex -5 8.66025 -6
    endloop
  endfacet
  facet normal -0.406736 0.913546 0
    outer loop
      vertex -3.09017 9.51056 3
      vertex -5 8.66025 12
      vertex -3.09017 9.51056 12
    endloop
  endfacet
  facet normal -0.406736 0.913546 0
    outer loop
      vertex -5 8.66025 12
      vertex -3.09017 9.51056 3
      vertex -5 8.66025 3
    endloop
  endfacet
  facet normal 0 0 1
    outer loop
      vertex 9.78148 2.07912 12
      vertex 9.78148 -2.07912 12
      vertex 10 0 12
    endloop
  endfacet
  facet normal 0 0 1
    outer loop
      vertex 9.13545 4.06737 12
      vertex 9.78148 -2.07912 12
      vertex 9.78148 2.07912 12
    endloop
  endfacet
  facet normal 0 0 1
    outer loop
      vertex 9.13545 4.06737 12
      vertex 9.13545 -4.06737 12
      vertex 9.78148 -2.07912 12
    endloop
  endfacet
  facet normal 0 0 1
    outer loop
      vertex 8.09017 5.87785 12
      vertex 9.13545 -4.06737 12
      vertex 9.13545 4.06737 12
    endloop
  endfacet
  facet normal 0 0 1
    outer loop
      vertex 8.09017 5.87785 12
      vertex 8.09017 -5.87785 12
      vertex 9.13545 -4.06737 12
    endloop
  endfacet
  facet normal 0 0 1
    outer loop
      vertex 6.69131 7.43145 12
      vertex 8.09017 -5.87785 12
      vertex 8.09017 5.87785 12
    endloop
  endfacet
  facet normal 0 0 1
    outer loop
      vertex 6.69131 7.43145 12
      vertex 6.69131 -7.43145 12
      vertex 8.09017 -5.87785 12
    endloop
  endfacet
  facet normal 0 0 1
    outer loop
      vertex 5 8.66025 12
      vertex 6.69131 -7.43145 12
      vertex 6.69131 7.43145 12
    endloop
  endfacet
  facet normal 0 0 1
    outer loop
      vertex 5 8.66025 12
      vertex 5 -8.66025 12
      vertex 6.69131 -7.43145 12
    endloop
  endfacet
  facet normal 0 0 1
    outer loop
      vertex 3.09017 9.51056 12
      vertex 5 -8.66025 12
      vertex 5 8.66025 12
    endloop
  endfacet
  facet normal 0 0 1
    outer loop
      vertex 3.09017 9.51056 12
      vertex 3.09017 -9.51056 12
      vertex 5 -8.66025 12
    endloop
  endfacet
  facet normal 0 0 1
    outer loop
      vertex 1.04528 9.94522 12
      vertex 3.09017 -9.51056 12
      vertex 3.09017 9.51056 12
    endloop
  endfacet
  facet normal 0 0 1
    outer loop
      vertex 1.04528 9.94522 12
      vertex 1.04528 -9.94522 12
      vertex 3.09017 -9.51056 12
    endloop
  endfacet
  facet normal -0 0 1
    outer loop
      vertex -1.04528 9.94522 12
      vertex 1.04528 -9.94522 12
      vertex 1.04528 9.94522 12
    endloop
  endfacet
  facet normal 0 0 1
    outer loop
      vertex -1.04528 9.94522 12
      vertex -1.04528 -9.94522 12
      vertex 1.04528 -9.94522 12
    endloop
  endfacet
  facet normal -0 0 1
    outer loop
      vertex -3.09017 9.51056 12
      vertex -1.04528 -9.94522 12
      vertex -1.04528 9.94522 12
    endloop
  endfacet
  facet normal 0 0 1
    outer loop
      vertex -3.09017 9.51056 12
      vertex -3.09017 -9.51056 12
      vertex -1.04528 -9.94522 12
    endloop
  endfacet
  facet normal -0 0 1
    outer loop
      vertex -5 8.66025 12
      vertex -3.09017 -9.51056 12
      vertex -3.09017 9.51056 12
    endloop
  endfacet
  facet normal 0 0 1
    outer loop
      vertex -5 8.66025 12
      vertex -5 -8.66025 12
      vertex -3.09017 -9.51056 12
    endloop
  endfacet
  facet normal -0 0 1
    outer loop
      vertex -6.69131 7.43145 12
      vertex -5 -8.66025 12
      vertex -5 8.66025 12
    endloop
  endfacet
  facet normal 0 0 1
    outer loop
      vertex -6.69131 7.43145 12
      vertex -6.69131 -7.43145 12
      vertex -5 -8.66025 12
    endloop
  endfacet
  facet normal -0 0 1
    outer loop
      vertex -8.09017 5.87785 12
      vertex -6.69131 -7.43145 12
      vertex -6.69131 7.43145 12
    endloop
  endfacet
  facet normal 0 0 1
    outer loop
      vertex -8.09017 5.87785 12
      vertex -8.09017 -5.87785 12
      vertex -6.69131 -7.43145 12
    endloop
  endfacet
  facet normal -0 0 1
    outer loop
      vertex -9.13545 4.06737 12
      vertex -8.09017 -5.87785 12
      vertex -8.09017 5.87785 12
    endloop
  endfacet
  facet normal 0 0 1
    outer loop
      vertex -9.13545 4.06737 12
      vertex -9.13545 -4.06737 12
      vertex -8.09017 -5.87785 12
    endloop
  endfacet
  facet normal -0 0 1
    outer loop
      vertex -9.78148 2.07912 12
      vertex -9.13545 -4.06737 12
      vertex -9.13545 4.06737 12
    endloop
  endfacet
  facet normal 0 0 1
    outer loop
      vertex -9.78148 2.07912 12
      vertex -9.78148 -2.07912 12
      vertex -9.13545 -4.06737 12
    endloop
  endfacet
  facet normal 0 -0 1
    outer loop
      vertex -9.78148 -2.07912 12
      vertex -9.78148 2.07912 12
      vertex -10 0 12
    endloop
  endfacet
  facet normal -0.207914 -0.978147 0
    outer loop
      vertex -3.09017 -9.51056 3
      vertex -1.04528 -9.94522 12
      vertex -3.09017 -9.51056 12
    endloop
  endfacet
  facet normal -0.207914 -0.978147 -0
    outer loop
      vertex -1.04528 -9.94522 12
      vertex -3.09017 -9.51056 3
      vertex -1.04528 -9.94522 3
    endloop
  endfacet
  facet normal -0.207914 -0.978147 0
    outer loop
      vertex -3.09017 -9.51056 -6
      vertex -1.04528 -9.94522 -3
      vertex -3.09017 -9.51056 -3
    endloop
  endfacet
  facet normal -0.207914 -0.978147 -0
    outer loop
      vertex -1.04528 -9.94522 -3
      vertex -3.09017 -9.51056 -6
      vertex -1.04528 -9.94522 -6
    endloop
  endfacet
  facet normal 0.207914 0.978147 -0
    outer loop
      vertex 3.09017 9.51056 -6
      vertex 1.04528 9.94522 -3
      vertex 3.09017 9.51056 -3
    endloop
  endfacet
  facet normal 0.207914 0.978147 0
    outer loop
      vertex 1.04528 9.94522 -3
      vertex 3.09017 9.51056 -6
      vertex 1.04528 9.94522 -6
    endloop
  endfacet
  facet normal 0.207914 0.978147 -0
    outer loop
      vertex 3.09017 9.51056 3
      vertex 1.04528 9.94522 12
      vertex 3.09017 9.51056 12
    endloop
  endfacet
  facet normal 0.207914 0.978147 0
    outer loop
      vertex 1.04528 9.94522 12
      vertex 3.09017 9.51056 3
      vertex 1.04528 9.94522 3
    endloop
  endfacet
  facet normal -0.994522 -0.104526 0
    outer loop
      vertex -9.78148 -2.07912 -6
      vertex -10 0 -3
      vertex -10 0 -6
    endloop
  endfacet
  facet normal -0.994522 -0.104526 0
    outer loop
      vertex -10 0 -3
      vertex -9.78148 -2.07912 -6
      vertex -9.78148 -2.07912 -3
    endloop
  endfacet
  facet normal -0.994522 -0.104526 0
    outer loop
      vertex -9.78148 -2.07912 3
      vertex -10 0 12
      vertex -10 0 3
    endloop
  endfacet
  facet normal -0.994522 -0.104526 0
    outer loop
      vertex -10 0 12
      vertex -9.78148 -2.07912 3
      vertex -9.78148 -2.07912 12
    endloop
  endfacet
  facet normal -0.994522 0.104526 0
    outer loop
      vertex -10 0 -6
      vertex -9.78148 2.07912 -3
      vertex -9.78148 2.07912 -6
    endloop
  endfacet
  facet normal -0.994522 0.104526 0
    outer loop
      vertex -9.78148 2.07912 -3
      vertex -10 0 -6
      vertex -10 0 -3
    endloop
  endfacet
  facet normal -0.994522 0.104526 0
    outer loop
      vertex -10 0 3
      vertex -9.78148 2.07912 12
      vertex -9.78148 2.07912 3
    endloop
  endfacet
  facet normal -0.994522 0.104526 0
    outer loop
      vertex -9.78148 2.07912 12
      vertex -10 0 3
      vertex -10 0 12
    endloop
  endfacet
  facet normal -0.866026 -0.5 0
    outer loop
      vertex -8.09017 -5.87785 -6
      vertex -9.13545 -4.06737 -3
      vertex -9.13545 -4.06737 -6
    endloop
  endfacet
  facet normal -0.866026 -0.5 0
    outer loop
      vertex -9.13545 -4.06737 -3
      vertex -8.09017 -5.87785 -6
      vertex -8.09017 -5.87785 -3
    endloop
  endfacet
  facet normal -0.866026 -0.5 0
    outer loop
      vertex -8.09017 -5.87785 3
      vertex -9.13545 -4.06737 12
      vertex -9.13545 -4.06737 3
    endloop
  endfacet
  facet normal -0.866026 -0.5 0
    outer loop
      vertex -9.13545 -4.06737 12
      vertex -8.09017 -5.87785 3
      vertex -8.09017 -5.87785 12
    endloop
  endfacet
  facet normal -0.866026 0.5 0
    outer loop
      vertex -9.13545 4.06737 -6
      vertex -8.09017 5.87785 -3
      vertex -8.09017 5.87785 -6
    endloop
  endfacet
  facet normal -0.866026 0.5 0
    outer loop
      vertex -8.09017 5.87785 -3
      vertex -9.13545 4.06737 -6
      vertex -9.13545 4.06737 -3
    endloop
  endfacet
  facet normal -0.866026 0.5 0
    outer loop
      vertex -9.13545 4.06737 3
      vertex -8.09017 5.87785 12
      vertex -8.09017 5.87785 3
    endloop
  endfacet
  facet normal -0.866026 0.5 0
    outer loop
      vertex -8.09017 5.87785 12
      vertex -9.13545 4.06737 3
      vertex -9.13545 4.06737 12
    endloop
  endfacet
  facet normal 0.866026 -0.5 0
    outer loop
      vertex 8.09017 -5.87785 12
      vertex 9.13545 -4.06737 3
      vertex 9.13545 -4.06737 12
    endloop
  endfacet
  facet normal 0.866026 -0.5 0
    outer loop
      vertex 9.13545 -4.06737 3
      vertex 8.09017 -5.87785 12
      vertex 8.09017 -5.87785 3
    endloop
  endfacet
  facet normal 0.866026 -0.5 0
    outer loop
      vertex 8.09017 -5.87785 -3
      vertex 9.13545 -4.06737 -6
      vertex 9.13545 -4.06737 -3
    endloop
  endfacet
  facet normal 0.866026 -0.5 0
    outer loop
      vertex 9.13545 -4.06737 -6
      vertex 8.09017 -5.87785 -3
      vertex 8.09017 -5.87785 -6
    endloop
  endfacet
  facet normal 0.587783 0.809019 -0
    outer loop
      vertex 6.69131 7.43145 -6
      vertex 5 8.66025 -3
      vertex 6.69131 7.43145 -3
    endloop
  endfacet
  facet normal 0.587783 0.809019 0
    outer loop
      vertex 5 8.66025 -3
      vertex 6.69131 7.43145 -6
      vertex 5 8.66025 -6
    endloop
  endfacet
  facet normal 0.587783 0.809019 -0
    outer loop
      vertex 6.69131 7.43145 3
      vertex 5 8.66025 12
      vertex 6.69131 7.43145 12
    endloop
  endfacet
  facet normal 0.587783 0.809019 0
    outer loop
      vertex 5 8.66025 12
      vertex 6.69131 7.43145 3
      vertex 5 8.66025 3
    endloop
  endfacet
  facet normal -0.207914 0.978147 0
    outer loop
      vertex -1.04528 9.94522 -6
      vertex -3.09017 9.51056 -3
      vertex -1.04528 9.94522 -3
    endloop
  endfacet
  facet normal -0.207914 0.978147 0
    outer loop
      vertex -3.09017 9.51056 -3
      vertex -1.04528 9.94522 -6
      vertex -3.09017 9.51056 -6
    endloop
  endfacet
  facet normal -0.207914 0.978147 0
    outer loop
      vertex -1.04528 9.94522 3
      vertex -3.09017 9.51056 12
      vertex -1.04528 9.94522 12
    endloop
  endfacet
  facet normal -0.207914 0.978147 0
    outer loop
      vertex -3.09017 9.51056 12
      vertex -1.04528 9.94522 3
      vertex -3.09017 9.51056 3
    endloop
  endfacet
  facet normal 0 -1 0
    outer loop
      vertex -1.04528 -9.94522 3
      vertex 1.04528 -9.94522 12
      vertex -1.04528 -9.94522 12
    endloop
  endfacet
  facet normal 0 -1 -0
    outer loop
      vertex 1.04528 -9.94522 12
      vertex -1.04528 -9.94522 3
      vertex 1.04528 -9.94522 3
    endloop
  endfacet
  facet normal 0 -1 0
    outer loop
      vertex -1.04528 -9.94522 -6
      vertex 1.04528 -9.94522 -3
      vertex -1.04528 -9.94522 -3
    endloop
  endfacet
  facet normal 0 -1 -0
    outer loop
      vertex 1.04528 -9.94522 -3
      vertex -1.04528 -9.94522 -6
      vertex 1.04528 -9.94522 -6
    endloop
  endfacet
endsolid OpenSCAD_Model
