solid OpenSCAD_Model
  facet normal 1 -0 0
    outer loop
      vertex 10 -20 35
      vertex 10 20 25
      vertex 10 20 35
    endloop
  endfacet
  facet normal 1 0 0
    outer loop
      vertex 10 20 25
      vertex 10 -20 35
      vertex 10 -20 25
    endloop
  endfacet
  facet normal -0 0 1
    outer loop
      vertex -10 20 35
      vertex 10 -20 35
      vertex 10 20 35
    endloop
  endfacet
  facet normal 0 0 1
    outer loop
      vertex 10 -20 35
      vertex -10 20 35
      vertex -10 -20 35
    endloop
  endfacet
  facet normal 0 0 -1
    outer loop
      vertex -10 -20 25
      vertex 10 20 25
      vertex 10 -20 25
    endloop
  endfacet
  facet normal -0 0 -1
    outer loop
      vertex 10 20 25
      vertex -10 -20 25
      vertex -10 20 25
    endloop
  endfacet
  facet normal -1 0 0
    outer loop
      vertex -10 -20 25
      vertex -10 20 35
      vertex -10 20 25
    endloop
  endfacet
  facet normal -1 -0 0
    outer loop
      vertex -10 20 35
      vertex -10 -20 25
      vertex -10 -20 35
    endloop
  endfacet
  facet normal 0 1 -0
    outer loop
      vertex 10 20 25
      vertex -10 20 35
      vertex 10 20 35
    endloop
  endfacet
  facet normal 0 1 0
    outer loop
      vertex -10 20 35
      vertex 10 20 25
      vertex -10 20 25
    endloop
  endfacet
  facet normal 0 -1 0
    outer loop
      vertex -10 -20 25
      vertex 10 -20 35
      vertex -10 -20 35
    endloop
  endfacet
  facet normal 0 -1 -0
    outer loop
      vertex 10 -20 35
      vertex -10 -20 25
      vertex 10 -20 25
    endloop
  endfacet
  facet normal 1 -0 0
    outer loop
      vertex 10 -20 23
      vertex 10 20 13
      vertex 10 20 23
    endloop
  endfacet
  facet normal 1 0 0
    outer loop
      vertex 10 20 13
      vertex 10 -20 23
      vertex 10 -20 13
    endloop
  endfacet
  facet normal -0 0 1
    outer loop
      vertex -10 20 23
      vertex 10 -20 23
      vertex 10 20 23
    endloop
  endfacet
  facet normal 0 0 1
    outer loop
      vertex 10 -20 23
      vertex -10 20 23
      vertex -10 -20 23
    endloop
  endfacet
  facet normal 0 0 -1
    outer loop
      vertex -10 -20 13
      vertex 10 20 13
      vertex 10 -20 13
    endloop
  endfacet
  facet normal -0 0 -1
    outer loop
      vertex 10 20 13
      vertex -10 -20 13
      vertex -10 20 13
    endloop
  endfacet
  facet normal -1 0 0
    outer loop
      vertex -10 -20 13
      vertex -10 20 23
      vertex -10 20 13
    endloop
  endfacet
  facet normal -1 -0 0
    outer loop
      vertex -10 20 23
      vertex -10 -20 13
      vertex -10 -20 23
    endloop
  endfacet
  facet normal 0 1 -0
    outer loop
      vertex 10 20 13
      vertex -10 20 23
      vertex 10 20 23
    endloop
  endfacet
  facet normal 0 1 0
    outer loop
      vertex -10 20 23
      vertex 10 20 13
      vertex -10 20 13
    endloop
  endfacet
  facet normal 0 -1 0
    outer loop
      vertex -10 -20 13
      vertex 10 -20 23
      vertex -10 -20 23
    endloop
  endfacet
  facet normal 0 -1 -0
    outer loop
      vertex 10 -20 23
      vertex -10 -20 13
      vertex 10 -20 13
    endloop
  endfacet
  facet normal 1 -0 0
    outer loop
      vertex 10 -20 11
      vertex 10 20 1
      vertex 10 20 11
    endloop
  endfacet
  facet normal 1 0 0
    outer loop
      vertex 10 20 1
      vertex 10 -20 11
      vertex 10 -20 1
    endloop
  endfacet
  facet normal -0 0 1
    outer loop
      vertex -10 20 11
      vertex 10 -20 11
      vertex 10 20 11
    endloop
  endfacet
  facet normal 0 0 1
    outer loop
      vertex 10 -20 11
      vertex -10 20 11
      vertex -10 -20 11
    endloop
  endfacet
  facet normal 0 0 -1
    outer loop
      vertex -10 -20 1
      vertex 10 20 1
      vertex 10 -20 1
    endloop
  endfacet
  facet normal -0 0 -1
    outer loop
      vertex 10 20 1
      vertex -10 -20 1
      vertex -10 20 1
    endloop
  endfacet
  facet normal -1 0 0
    outer loop
      vertex -10 -20 1
      vertex -10 20 11
      vertex -10 20 1
    endloop
  endfacet
  facet normal -1 -0 0
    outer loop
      vertex -10 20 11
      vertex -10 -20 1
      vertex -10 -20 11
    endloop
  endfacet
  facet normal 0 1 -0
    outer loop
      vertex 10 20 1
      vertex -10 20 11
      vertex 10 20 11
    endloop
  endfacet
  facet normal 0 1 0
    outer loop
      vertex -10 20 11
      vertex 10 20 1
      vertex -10 20 1
    endloop
  endfacet
  facet normal 0 -1 0
    outer loop
      vertex -10 -20 1
      vertex 10 -20 11
      vertex -10 -20 11
    endloop
  endfacet
  facet normal 0 -1 -0
    outer loop
      vertex 10 -20 11
      vertex -10 -20 1
      vertex 10 -20 1
    endloop
  endfacet
  facet normal 1 -0 0
    outer loop
      vertex 10 -20 -1
      vertex 10 20 -11
      vertex 10 20 -1
    endloop
  endfacet
  facet normal 1 0 0
    outer loop
      vertex 10 20 -11
      vertex 10 -20 -1
      vertex 10 -20 -11
    endloop
  endfacet
  facet normal -0 0 1
    outer loop
      vertex -10 20 -1
      vertex 10 -20 -1
      vertex 10 20 -1
    endloop
  endfacet
  facet normal 0 0 1
    outer loop
      vertex 10 -20 -1
      vertex -10 20 -1
      vertex -10 -20 -1
    endloop
  endfacet
  facet normal 0 0 -1
    outer loop
      vertex -10 -20 -11
      vertex 10 20 -11
      vertex 10 -20 -11
    endloop
  endfacet
  facet normal -0 0 -1
    outer loop
      vertex 10 20 -11
      vertex -10 -20 -11
      vertex -10 20 -11
    endloop
  endfacet
  facet normal -1 0 0
    outer loop
      vertex -10 -20 -11
      vertex -10 20 -1
      vertex -10 20 -11
    endloop
  endfacet
  facet normal -1 -0 0
    outer loop
      vertex -10 20 -1
      vertex -10 -20 -11
      vertex -10 -20 -1
    endloop
  endfacet
  facet normal 0 1 -0
    outer loop
      vertex 10 20 -11
      vertex -10 20 -1
      vertex 10 20 -1
    endloop
  endfacet
  facet normal 0 1 0
    outer loop
      vertex -10 20 -1
      vertex 10 20 -11
      vertex -10 20 -11
    endloop
  endfacet
  facet normal 0 -1 0
    outer loop
      vertex -10 -20 -11
      vertex 10 -20 -1
      vertex -10 -20 -1
    endloop
  endfacet
  facet normal 0 -1 -0
    outer loop
      vertex 10 -20 -1
      vertex -10 -20 -11
      vertex 10 -20 -11
    endloop
  endfacet
  facet normal 1 -0 0
    outer loop
      vertex 10 -20 -13
      vertex 10 20 -23
      vertex 10 20 -13
    endloop
  endfacet
  facet normal 1 0 0
    outer loop
      vertex 10 20 -23
      vertex 10 -20 -13
      vertex 10 -20 -23
    endloop
  endfacet
  facet normal -0 0 1
    outer loop
      vertex -10 20 -13
      vertex 10 -20 -13
      vertex 10 20 -13
    endloop
  endfacet
  facet normal 0 0 1
    outer loop
      vertex 10 -20 -13
      vertex -10 20 -13
      vertex -10 -20 -13
    endloop
  endfacet
  facet normal 0 0 -1
    outer loop
      vertex -10 -20 -23
      vertex 10 20 -23
      vertex 10 -20 -23
    endloop
  endfacet
  facet normal -0 0 -1
    outer loop
      vertex 10 20 -23
      vertex -10 -20 -23
      vertex -10 20 -23
    endloop
  endfacet
  facet normal -1 0 0
    outer loop
      vertex -10 -20 -23
      vertex -10 20 -13
      vertex -10 20 -23
    endloop
  endfacet
  facet normal -1 -0 0
    outer loop
      vertex -10 20 -13
      vertex -10 -20 -23
      vertex -10 -20 -13
    endloop
  endfacet
  facet normal 0 1 -0
    outer loop
      vertex 10 20 -23
      vertex -10 20 -13
      vertex 10 20 -13
    endloop
  endfacet
  facet normal 0 1 0
    outer loop
      vertex -10 20 -13
      vertex 10 20 -23
      vertex -10 20 -23
    endloop
  endfacet
  facet normal 0 -1 0
    outer loop
      vertex -10 -20 -23
      vertex 10 -20 -13
      vertex -10 -20 -13
    endloop
  endfacet
  facet normal 0 -1 -0
    outer loop
      vertex 10 -20 -13
      vertex -10 -20 -23
      vertex 10 -20 -23
    endloop
  endfacet
  facet normal 1 -0 0
    outer loop
      vertex 10 -20 -25
      vertex 10 20 -35
      vertex 10 20 -25
    endloop
  endfacet
  facet normal 1 0 0
    outer loop
      vertex 10 20 -35
      vertex 10 -20 -25
      vertex 10 -20 -35
    endloop
  endfacet
  facet normal -0 0 1
    outer loop
      vertex -10 20 -25
      vertex 10 -20 -25
      vertex 10 20 -25
    endloop
  endfacet
  facet normal 0 0 1
    outer loop
      vertex 10 -20 -25
      vertex -10 20 -25
      vertex -10 -20 -25
    endloop
  endfacet
  facet normal 0 0 -1
    outer loop
      vertex -10 -20 -35
      vertex 10 20 -35
      vertex 10 -20 -35
    endloop
  endfacet
  facet normal -0 0 -1
    outer loop
      vertex 10 20 -35
      vertex -10 -20 -35
      vertex -10 20 -35
    endloop
  endfacet
  facet normal -1 0 0
    outer loop
      vertex -10 -20 -35
      vertex -10 20 -25
      vertex -10 20 -35
    endloop
  endfacet
  facet normal -1 -0 0
    outer loop
      vertex -10 20 -25
      vertex -10 -20 -35
      vertex -10 -20 -25
    endloop
  endfacet
  facet normal 0 1 -0
    outer loop
      vertex 10 20 -35
      vertex -10 20 -25
      vertex 10 20 -25
    endloop
  endfacet
  facet normal 0 1 0
    outer loop
      vertex -10 20 -25
      vertex 10 20 -35
      vertex -10 20 -35
    endloop
  endfacet
  facet normal 0 -1 0
    outer loop
      vertex -10 -20 -35
      vertex 10 -20 -25
      vertex -10 -20 -25
    endloop
  endfacet
  facet normal 0 -1 -0
    outer loop
      vertex 10 -20 -25
      vertex -10 -20 -35
      vertex 10 -20 -35
    endloop
  endfacet
endsolid OpenSCAD_Model
