solid OpenSCAD_Model
  facet normal -0.748527 0 -0.663104
    outer loop
      vertex -21.4582 8 1.85889
      vertex -22.7277 10 3.29193
      vertex -21.4582 10 1.85889
    endloop
  endfacet
  facet normal -0.748527 -0 -0.663104
    outer loop
      vertex -22.7277 10 3.29193
      vertex -21.4582 8 1.85889
      vertex -22.7277 8 3.29193
    endloop
  endfacet
  facet normal -0.970939 0 -0.239328
    outer loop
      vertex -21 8 0
      vertex -21.4582 10 1.85889
      vertex -21 10 0
    endloop
  endfacet
  facet normal -0.970939 -0 -0.239328
    outer loop
      vertex -21.4582 10 1.85889
      vertex -21 8 0
      vertex -21.4582 8 1.85889
    endloop
  endfacet
  facet normal 1 -0 0
    outer loop
      vertex -28.8838 8 0.957262
      vertex -28.8838 10 -0.957262
      vertex -28.8838 10 0.957262
    endloop
  endfacet
  facet normal 1 0 0
    outer loop
      vertex -28.8838 10 -0.957262
      vertex -28.8838 8 0.957262
      vertex -28.8838 8 -0.957262
    endloop
  endfacet
  facet normal -0.35459 0 -0.935022
    outer loop
      vertex -24.5179 8 3.97083
      vertex -22.7277 10 3.29193
      vertex -22.7277 8 3.29193
    endloop
  endfacet
  facet normal -0.35459 0 -0.935022
    outer loop
      vertex -22.7277 10 3.29193
      vertex -24.5179 8 3.97083
      vertex -24.5179 10 3.97083
    endloop
  endfacet
  facet normal -0.970939 0 0.239328
    outer loop
      vertex -21.4582 8 -1.85889
      vertex -21 10 0
      vertex -21.4582 10 -1.85889
    endloop
  endfacet
  facet normal -0.970939 0 0.239328
    outer loop
      vertex -21 10 0
      vertex -21.4582 8 -1.85889
      vertex -21 8 0
    endloop
  endfacet
  facet normal -0.748527 0 0.663104
    outer loop
      vertex -22.7277 8 -3.29193
      vertex -21.4582 10 -1.85889
      vertex -22.7277 10 -3.29193
    endloop
  endfacet
  facet normal -0.748527 0 0.663104
    outer loop
      vertex -21.4582 10 -1.85889
      vertex -22.7277 8 -3.29193
      vertex -21.4582 8 -1.85889
    endloop
  endfacet
  facet normal 0.88544 -0 0.464754
    outer loop
      vertex -28.8838 8 -0.957262
      vertex -27.994 10 -2.65249
      vertex -28.8838 10 -0.957262
    endloop
  endfacet
  facet normal 0.88544 0 0.464754
    outer loop
      vertex -27.994 10 -2.65249
      vertex -28.8838 8 -0.957262
      vertex -27.994 8 -2.65249
    endloop
  endfacet
  facet normal 0.120541 0 0.992708
    outer loop
      vertex -26.4184 10 -3.74006
      vertex -24.5179 8 -3.97083
      vertex -24.5179 10 -3.97083
    endloop
  endfacet
  facet normal 0.120541 0 0.992708
    outer loop
      vertex -24.5179 8 -3.97083
      vertex -26.4184 10 -3.74006
      vertex -26.4184 8 -3.74006
    endloop
  endfacet
  facet normal 0.568069 0 -0.822981
    outer loop
      vertex -27.994 8 2.65249
      vertex -26.4184 10 3.74006
      vertex -26.4184 8 3.74006
    endloop
  endfacet
  facet normal 0.568069 0 -0.822981
    outer loop
      vertex -26.4184 10 3.74006
      vertex -27.994 8 2.65249
      vertex -27.994 10 2.65249
    endloop
  endfacet
  facet normal 0.88544 0 -0.464754
    outer loop
      vertex -27.994 8 2.65249
      vertex -28.8838 10 0.957262
      vertex -27.994 10 2.65249
    endloop
  endfacet
  facet normal 0.88544 0 -0.464754
    outer loop
      vertex -28.8838 10 0.957262
      vertex -27.994 8 2.65249
      vertex -28.8838 8 0.957262
    endloop
  endfacet
  facet normal -0.35459 0 0.935022
    outer loop
      vertex -24.5179 10 -3.97083
      vertex -22.7277 8 -3.29193
      vertex -22.7277 10 -3.29193
    endloop
  endfacet
  facet normal -0.35459 0 0.935022
    outer loop
      vertex -22.7277 8 -3.29193
      vertex -24.5179 10 -3.97083
      vertex -24.5179 8 -3.97083
    endloop
  endfacet
  facet normal 0.120541 0 -0.992708
    outer loop
      vertex -26.4184 8 3.74006
      vertex -24.5179 10 3.97083
      vertex -24.5179 8 3.97083
    endloop
  endfacet
  facet normal 0.120541 0 -0.992708
    outer loop
      vertex -24.5179 10 3.97083
      vertex -26.4184 8 3.74006
      vertex -26.4184 10 3.74006
    endloop
  endfacet
  facet normal 0.568069 0 0.822981
    outer loop
      vertex -27.994 10 -2.65249
      vertex -26.4184 8 -3.74006
      vertex -26.4184 10 -3.74006
    endloop
  endfacet
  facet normal 0.568069 0 0.822981
    outer loop
      vertex -26.4184 8 -3.74006
      vertex -27.994 10 -2.65249
      vertex -27.994 8 -2.65249
    endloop
  endfacet
  facet normal -0.748527 0 -0.663104
    outer loop
      vertex 28.5418 8 1.85889
      vertex 27.2723 10 3.29193
      vertex 28.5418 10 1.85889
    endloop
  endfacet
  facet normal -0.748527 -0 -0.663104
    outer loop
      vertex 27.2723 10 3.29193
      vertex 28.5418 8 1.85889
      vertex 27.2723 8 3.29193
    endloop
  endfacet
  facet normal -0.970939 0 -0.239328
    outer loop
      vertex 29 8 0
      vertex 28.5418 10 1.85889
      vertex 29 10 0
    endloop
  endfacet
  facet normal -0.970939 -0 -0.239328
    outer loop
      vertex 28.5418 10 1.85889
      vertex 29 8 0
      vertex 28.5418 8 1.85889
    endloop
  endfacet
  facet normal 0.88544 0 -0.464754
    outer loop
      vertex 22.006 8 2.65249
      vertex 21.1162 10 0.957262
      vertex 22.006 10 2.65249
    endloop
  endfacet
  facet normal 0.88544 0 -0.464754
    outer loop
      vertex 21.1162 10 0.957262
      vertex 22.006 8 2.65249
      vertex 21.1162 8 0.957262
    endloop
  endfacet
  facet normal 1 -0 0
    outer loop
      vertex 21.1162 8 0.957262
      vertex 21.1162 10 -0.957262
      vertex 21.1162 10 0.957262
    endloop
  endfacet
  facet normal 1 0 0
    outer loop
      vertex 21.1162 10 -0.957262
      vertex 21.1162 8 0.957262
      vertex 21.1162 8 -0.957262
    endloop
  endfacet
  facet normal -0.35459 0 -0.935022
    outer loop
      vertex 25.4821 8 3.97083
      vertex 27.2723 10 3.29193
      vertex 27.2723 8 3.29193
    endloop
  endfacet
  facet normal -0.35459 0 -0.935022
    outer loop
      vertex 27.2723 10 3.29193
      vertex 25.4821 8 3.97083
      vertex 25.4821 10 3.97083
    endloop
  endfacet
  facet normal -0.970939 0 0.239328
    outer loop
      vertex 28.5418 8 -1.85889
      vertex 29 10 0
      vertex 28.5418 10 -1.85889
    endloop
  endfacet
  facet normal -0.970939 0 0.239328
    outer loop
      vertex 29 10 0
      vertex 28.5418 8 -1.85889
      vertex 29 8 0
    endloop
  endfacet
  facet normal 0.568069 0 -0.822981
    outer loop
      vertex 22.006 8 2.65249
      vertex 23.5816 10 3.74006
      vertex 23.5816 8 3.74006
    endloop
  endfacet
  facet normal 0.568069 0 -0.822981
    outer loop
      vertex 23.5816 10 3.74006
      vertex 22.006 8 2.65249
      vertex 22.006 10 2.65249
    endloop
  endfacet
  facet normal 0.88544 -0 0.464754
    outer loop
      vertex 21.1162 8 -0.957262
      vertex 22.006 10 -2.65249
      vertex 21.1162 10 -0.957262
    endloop
  endfacet
  facet normal 0.88544 0 0.464754
    outer loop
      vertex 22.006 10 -2.65249
      vertex 21.1162 8 -0.957262
      vertex 22.006 8 -2.65249
    endloop
  endfacet
  facet normal -0.748527 0 0.663104
    outer loop
      vertex 27.2723 8 -3.29193
      vertex 28.5418 10 -1.85889
      vertex 27.2723 10 -3.29193
    endloop
  endfacet
  facet normal -0.748527 0 0.663104
    outer loop
      vertex 28.5418 10 -1.85889
      vertex 27.2723 8 -3.29193
      vertex 28.5418 8 -1.85889
    endloop
  endfacet
  facet normal 0.120541 0 0.992708
    outer loop
      vertex 23.5816 10 -3.74006
      vertex 25.4821 8 -3.97083
      vertex 25.4821 10 -3.97083
    endloop
  endfacet
  facet normal 0.120541 0 0.992708
    outer loop
      vertex 25.4821 8 -3.97083
      vertex 23.5816 10 -3.74006
      vertex 23.5816 8 -3.74006
    endloop
  endfacet
  facet normal -0.35459 0 0.935022
    outer loop
      vertex 25.4821 10 -3.97083
      vertex 27.2723 8 -3.29193
      vertex 27.2723 10 -3.29193
    endloop
  endfacet
  facet normal -0.35459 0 0.935022
    outer loop
      vertex 27.2723 8 -3.29193
      vertex 25.4821 10 -3.97083
      vertex 25.4821 8 -3.97083
    endloop
  endfacet
  facet normal 0.120541 0 -0.992708
    outer loop
      vertex 23.5816 8 3.74006
      vertex 25.4821 10 3.97083
      vertex 25.4821 8 3.97083
    endloop
  endfacet
  facet normal 0.120541 0 -0.992708
    outer loop
      vertex 25.4821 10 3.97083
      vertex 23.5816 8 3.74006
      vertex 23.5816 10 3.74006
    endloop
  endfacet
  facet normal 0.568069 0 0.822981
    outer loop
      vertex 22.006 10 -2.65249
      vertex 23.5816 8 -3.74006
      vertex 23.5816 10 -3.74006
    endloop
  endfacet
  facet normal 0.568069 0 0.822981
    outer loop
      vertex 23.5816 8 -3.74006
      vertex 22.006 10 -2.65249
      vertex 22.006 8 -2.65249
    endloop
  endfacet
  facet normal -0.748527 0 -0.663104
    outer loop
      vertex -21.4582 -10 1.85889
      vertex -22.7277 -8 3.29193
      vertex -21.4582 -8 1.85889
    endloop
  endfacet
  facet normal -0.748527 -0 -0.663104
    outer loop
      vertex -22.7277 -8 3.29193
      vertex -21.4582 -10 1.85889
      vertex -22.7277 -10 3.29193
    endloop
  endfacet
  facet normal -0.970939 0 -0.239328
    outer loop
      vertex -21 -10 0
      vertex -21.4582 -8 1.85889
      vertex -21 -8 0
    endloop
  endfacet
  facet normal -0.970939 -0 -0.239328
    outer loop
      vertex -21.4582 -8 1.85889
      vertex -21 -10 0
      vertex -21.4582 -10 1.85889
    endloop
  endfacet
  facet normal 1 -0 0
    outer loop
      vertex -28.8838 -10 0.957262
      vertex -28.8838 -8 -0.957262
      vertex -28.8838 -8 0.957262
    endloop
  endfacet
  facet normal 1 0 0
    outer loop
      vertex -28.8838 -8 -0.957262
      vertex -28.8838 -10 0.957262
      vertex -28.8838 -10 -0.957262
    endloop
  endfacet
  facet normal -0.35459 0 -0.935022
    outer loop
      vertex -24.5179 -10 3.97083
      vertex -22.7277 -8 3.29193
      vertex -22.7277 -10 3.29193
    endloop
  endfacet
  facet normal -0.35459 0 -0.935022
    outer loop
      vertex -22.7277 -8 3.29193
      vertex -24.5179 -10 3.97083
      vertex -24.5179 -8 3.97083
    endloop
  endfacet
  facet normal -0.970939 0 0.239328
    outer loop
      vertex -21.4582 -10 -1.85889
      vertex -21 -8 0
      vertex -21.4582 -8 -1.85889
    endloop
  endfacet
  facet normal -0.970939 0 0.239328
    outer loop
      vertex -21 -8 0
      vertex -21.4582 -10 -1.85889
      vertex -21 -10 0
    endloop
  endfacet
  facet normal -0.748527 0 0.663104
    outer loop
      vertex -22.7277 -10 -3.29193
      vertex -21.4582 -8 -1.85889
      vertex -22.7277 -8 -3.29193
    endloop
  endfacet
  facet normal -0.748527 0 0.663104
    outer loop
      vertex -21.4582 -8 -1.85889
      vertex -22.7277 -10 -3.29193
      vertex -21.4582 -10 -1.85889
    endloop
  endfacet
  facet normal 0.120541 0 0.992708
    outer loop
      vertex -26.4184 -8 -3.74006
      vertex -24.5179 -10 -3.97083
      vertex -24.5179 -8 -3.97083
    endloop
  endfacet
  facet normal 0.120541 0 0.992708
    outer loop
      vertex -24.5179 -10 -3.97083
      vertex -26.4184 -8 -3.74006
      vertex -26.4184 -10 -3.74006
    endloop
  endfacet
  facet normal 0.568069 0 -0.822981
    outer loop
      vertex -27.994 -10 2.65249
      vertex -26.4184 -8 3.74006
      vertex -26.4184 -10 3.74006
    endloop
  endfacet
  facet normal 0.568069 0 -0.822981
    outer loop
      vertex -26.4184 -8 3.74006
      vertex -27.994 -10 2.65249
      vertex -27.994 -8 2.65249
    endloop
  endfacet
  facet normal 0.88544 0 -0.464754
    outer loop
      vertex -27.994 -10 2.65249
      vertex -28.8838 -8 0.957262
      vertex -27.994 -8 2.65249
    endloop
  endfacet
  facet normal 0.88544 0 -0.464754
    outer loop
      vertex -28.8838 -8 0.957262
      vertex -27.994 -10 2.65249
      vertex -28.8838 -10 0.957262
    endloop
  endfacet
  facet normal -0.35459 0 0.935022
    outer loop
      vertex -24.5179 -8 -3.97083
      vertex -22.7277 -10 -3.29193
      vertex -22.7277 -8 -3.29193
    endloop
  endfacet
  facet normal -0.35459 0 0.935022
    outer loop
      vertex -22.7277 -10 -3.29193
      vertex -24.5179 -8 -3.97083
      vertex -24.5179 -10 -3.97083
    endloop
  endfacet
  facet normal 0.120541 0 -0.992708
    outer loop
      vertex -26.4184 -10 3.74006
      vertex -24.5179 -8 3.97083
      vertex -24.5179 -10 3.97083
    endloop
  endfacet
  facet normal 0.120541 0 -0.992708
    outer loop
      vertex -24.5179 -8 3.97083
      vertex -26.4184 -10 3.74006
      vertex -26.4184 -8 3.74006
    endloop
  endfacet
  facet normal 0.568069 0 0.822981
    outer loop
      vertex -27.994 -8 -2.65249
      vertex -26.4184 -10 -3.74006
      vertex -26.4184 -8 -3.74006
    endloop
  endfacet
  facet normal 0.568069 0 0.822981
    outer loop
      vertex -26.4184 -10 -3.74006
      vertex -27.994 -8 -2.65249
      vertex -27.994 -10 -2.65249
    endloop
  endfacet
  facet normal 0.88544 -0 0.464754
    outer loop
      vertex -28.8838 -10 -0.957262
      vertex -27.994 -8 -2.65249
      vertex -28.8838 -8 -0.957262
    endloop
  endfacet
  facet normal 0.88544 0 0.464754
    outer loop
      vertex -27.994 -8 -2.65249
      vertex -28.8838 -10 -0.957262
      vertex -27.994 -10 -2.65249
    endloop
  endfacet
  facet normal -0.748527 0 -0.663104
    outer loop
      vertex 28.5418 -10 1.85889
      vertex 27.2723 -8 3.29193
      vertex 28.5418 -8 1.85889
    endloop
  endfacet
  facet normal -0.748527 -0 -0.663104
    outer loop
      vertex 27.2723 -8 3.29193
      vertex 28.5418 -10 1.85889
      vertex 27.2723 -10 3.29193
    endloop
  endfacet
  facet normal -0.970939 0 -0.239328
    outer loop
      vertex 29 -10 0
      vertex 28.5418 -8 1.85889
      vertex 29 -8 0
    endloop
  endfacet
  facet normal -0.970939 -0 -0.239328
    outer loop
      vertex 28.5418 -8 1.85889
      vertex 29 -10 0
      vertex 28.5418 -10 1.85889
    endloop
  endfacet
  facet normal 0.88544 0 -0.464754
    outer loop
      vertex 22.006 -10 2.65249
      vertex 21.1162 -8 0.957262
      vertex 22.006 -8 2.65249
    endloop
  endfacet
  facet normal 0.88544 0 -0.464754
    outer loop
      vertex 21.1162 -8 0.957262
      vertex 22.006 -10 2.65249
      vertex 21.1162 -10 0.957262
    endloop
  endfacet
  facet normal 1 -0 0
    outer loop
      vertex 21.1162 -10 0.957262
      vertex 21.1162 -8 -0.957262
      vertex 21.1162 -8 0.957262
    endloop
  endfacet
  facet normal 1 0 0
    outer loop
      vertex 21.1162 -8 -0.957262
      vertex 21.1162 -10 0.957262
      vertex 21.1162 -10 -0.957262
    endloop
  endfacet
  facet normal -0.35459 0 -0.935022
    outer loop
      vertex 25.4821 -10 3.97083
      vertex 27.2723 -8 3.29193
      vertex 27.2723 -10 3.29193
    endloop
  endfacet
  facet normal -0.35459 0 -0.935022
    outer loop
      vertex 27.2723 -8 3.29193
      vertex 25.4821 -10 3.97083
      vertex 25.4821 -8 3.97083
    endloop
  endfacet
  facet normal -0.970939 0 0.239328
    outer loop
      vertex 28.5418 -10 -1.85889
      vertex 29 -8 0
      vertex 28.5418 -8 -1.85889
    endloop
  endfacet
  facet normal -0.970939 0 0.239328
    outer loop
      vertex 29 -8 0
      vertex 28.5418 -10 -1.85889
      vertex 29 -10 0
    endloop
  endfacet
  facet normal 0.568069 0 -0.822981
    outer loop
      vertex 22.006 -10 2.65249
      vertex 23.5816 -8 3.74006
      vertex 23.5816 -10 3.74006
    endloop
  endfacet
  facet normal 0.568069 0 -0.822981
    outer loop
      vertex 23.5816 -8 3.74006
      vertex 22.006 -10 2.65249
      vertex 22.006 -8 2.65249
    endloop
  endfacet
  facet normal -0.748527 0 0.663104
    outer loop
      vertex 27.2723 -10 -3.29193
      vertex 28.5418 -8 -1.85889
      vertex 27.2723 -8 -3.29193
    endloop
  endfacet
  facet normal -0.748527 0 0.663104
    outer loop
      vertex 28.5418 -8 -1.85889
      vertex 27.2723 -10 -3.29193
      vertex 28.5418 -10 -1.85889
    endloop
  endfacet
  facet normal 0.120541 0 0.992708
    outer loop
      vertex 23.5816 -8 -3.74006
      vertex 25.4821 -10 -3.97083
      vertex 25.4821 -8 -3.97083
    endloop
  endfacet
  facet normal 0.120541 0 0.992708
    outer loop
      vertex 25.4821 -10 -3.97083
      vertex 23.5816 -8 -3.74006
      vertex 23.5816 -10 -3.74006
    endloop
  endfacet
  facet normal -0.35459 0 0.935022
    outer loop
      vertex 25.4821 -8 -3.97083
      vertex 27.2723 -10 -3.29193
      vertex 27.2723 -8 -3.29193
    endloop
  endfacet
  facet normal -0.35459 0 0.935022
    outer loop
      vertex 27.2723 -10 -3.29193
      vertex 25.4821 -8 -3.97083
      vertex 25.4821 -10 -3.97083
    endloop
  endfacet
  facet normal 0.120541 0 -0.992708
    outer loop
      vertex 23.5816 -10 3.74006
      vertex 25.4821 -8 3.97083
      vertex 25.4821 -10 3.97083
    endloop
  endfacet
  facet normal 0.120541 0 -0.992708
    outer loop
      vertex 25.4821 -8 3.97083
      vertex 23.5816 -10 3.74006
      vertex 23.5816 -8 3.74006
    endloop
  endfacet
  facet normal 0.568069 0 0.822981
    outer loop
      vertex 22.006 -8 -2.65249
      vertex 23.5816 -10 -3.74006
      vertex 23.5816 -8 -3.74006
    endloop
  endfacet
  facet normal 0.568069 0 0.822981
    outer loop
      vertex 23.5816 -10 -3.74006
      vertex 22.006 -8 -2.65249
      vertex 22.006 -10 -2.65249
    endloop
  endfacet
  facet normal 0.88544 -0 0.464754
    outer loop
      vertex 21.1162 -10 -0.957262
      vertex 22.006 -8 -2.65249
      vertex 21.1162 -8 -0.957262
    endloop
  endfacet
  facet normal 0.88544 0 0.464754
    outer loop
      vertex 22.006 -8 -2.65249
      vertex 21.1162 -10 -0.957262
      vertex 22.006 -10 -2.65249
    endloop
  endfacet
  facet normal 1 -0 0
    outer loop
      vertex 75 -10 10
      vertex 75 10 -10
      vertex 75 10 10
    endloop
  endfacet
  facet normal 1 0 0
    outer loop
      vertex 75 10 -10
      vertex 75 -10 10
      vertex 75 -10 -10
    endloop
  endfacet
  facet normal -0 0 1
    outer loop
      vertex -75 10 10
      vertex 75 -10 10
      vertex 75 10 10
    endloop
  endfacet
  facet normal 0 0 1
    outer loop
      vertex 75 -10 10
      vertex -75 10 10
      vertex -75 -10 10
    endloop
  endfacet
  facet normal 0 0 -1
    outer loop
      vertex -75 -10 -10
      vertex 75 10 -10
      vertex 75 -10 -10
    endloop
  endfacet
  facet normal -0 0 -1
    outer loop
      vertex 75 10 -10
      vertex -75 -10 -10
      vertex -75 10 -10
    endloop
  endfacet
  facet normal -1 0 0
    outer loop
      vertex -75 -10 -10
      vertex -75 10 10
      vertex -75 10 -10
    endloop
  endfacet
  facet normal -1 -0 0
    outer loop
      vertex -75 10 10
      vertex -75 -10 -10
      vertex -75 -10 10
    endloop
  endfacet
  facet normal 0 1 -0
    outer loop
      vertex 23.5816 10 3.74006
      vertex -24.5179 10 3.97083
      vertex 25.4821 10 3.97083
    endloop
  endfacet
  facet normal 0 1 0
    outer loop
      vertex 23.5816 10 3.74006
      vertex -22.7277 10 3.29193
      vertex -24.5179 10 3.97083
    endloop
  endfacet
  facet normal 0 1 -0
    outer loop
      vertex 22.006 10 2.65249
      vertex -22.7277 10 3.29193
      vertex 23.5816 10 3.74006
    endloop
  endfacet
  facet normal 0 1 0
    outer loop
      vertex 22.006 10 2.65249
      vertex -21.4582 10 1.85889
      vertex -22.7277 10 3.29193
    endloop
  endfacet
  facet normal 0 1 -0
    outer loop
      vertex 21.1162 10 0.957262
      vertex -21.4582 10 1.85889
      vertex 22.006 10 2.65249
    endloop
  endfacet
  facet normal 0 1 0
    outer loop
      vertex 21.1162 10 0.957262
      vertex -21 10 0
      vertex -21.4582 10 1.85889
    endloop
  endfacet
  facet normal 0 1 -0
    outer loop
      vertex 21.1162 10 -0.957262
      vertex -21 10 0
      vertex 21.1162 10 0.957262
    endloop
  endfacet
  facet normal 0 1 0
    outer loop
      vertex 21.1162 10 -0.957262
      vertex -21.4582 10 -1.85889
      vertex -21 10 0
    endloop
  endfacet
  facet normal 0 1 0
    outer loop
      vertex 22.006 10 -2.65249
      vertex -21.4582 10 -1.85889
      vertex 21.1162 10 -0.957262
    endloop
  endfacet
  facet normal 0 1 0
    outer loop
      vertex 22.006 10 -2.65249
      vertex -22.7277 10 -3.29193
      vertex -21.4582 10 -1.85889
    endloop
  endfacet
  facet normal 0 1 0
    outer loop
      vertex 23.5816 10 -3.74006
      vertex -22.7277 10 -3.29193
      vertex 22.006 10 -2.65249
    endloop
  endfacet
  facet normal 0 1 0
    outer loop
      vertex -24.5179 10 -3.97083
      vertex 23.5816 10 -3.74006
      vertex 25.4821 10 -3.97083
    endloop
  endfacet
  facet normal 0 1 0
    outer loop
      vertex 23.5816 10 -3.74006
      vertex -24.5179 10 -3.97083
      vertex -22.7277 10 -3.29193
    endloop
  endfacet
  facet normal 0 1 0
    outer loop
      vertex 75 10 10
      vertex 25.4821 10 3.97083
      vertex -75 10 10
    endloop
  endfacet
  facet normal 0 1 0
    outer loop
      vertex 75 10 10
      vertex 27.2723 10 3.29193
      vertex 25.4821 10 3.97083
    endloop
  endfacet
  facet normal 0 1 0
    outer loop
      vertex 75 10 10
      vertex 28.5418 10 1.85889
      vertex 27.2723 10 3.29193
    endloop
  endfacet
  facet normal 0 1 0
    outer loop
      vertex 75 10 10
      vertex 29 10 0
      vertex 28.5418 10 1.85889
    endloop
  endfacet
  facet normal 0 1 -0
    outer loop
      vertex 75 10 -10
      vertex 29 10 0
      vertex 75 10 10
    endloop
  endfacet
  facet normal 0 1 0
    outer loop
      vertex 29 10 0
      vertex 75 10 -10
      vertex 28.5418 10 -1.85889
    endloop
  endfacet
  facet normal 0 1 0
    outer loop
      vertex 28.5418 10 -1.85889
      vertex 75 10 -10
      vertex 27.2723 10 -3.29193
    endloop
  endfacet
  facet normal 0 1 0
    outer loop
      vertex 25.4821 10 -3.97083
      vertex 75 10 -10
      vertex -24.5179 10 -3.97083
    endloop
  endfacet
  facet normal 0 1 0
    outer loop
      vertex 27.2723 10 -3.29193
      vertex 75 10 -10
      vertex 25.4821 10 -3.97083
    endloop
  endfacet
  facet normal 0 1 -0
    outer loop
      vertex -24.5179 10 3.97083
      vertex -75 10 10
      vertex 25.4821 10 3.97083
    endloop
  endfacet
  facet normal 0 1 -0
    outer loop
      vertex -26.4184 10 3.74006
      vertex -75 10 10
      vertex -24.5179 10 3.97083
    endloop
  endfacet
  facet normal 0 1 -0
    outer loop
      vertex -27.994 10 2.65249
      vertex -75 10 10
      vertex -26.4184 10 3.74006
    endloop
  endfacet
  facet normal 0 1 -0
    outer loop
      vertex -28.8838 10 0.957262
      vertex -75 10 10
      vertex -27.994 10 2.65249
    endloop
  endfacet
  facet normal 0 1 -0
    outer loop
      vertex -28.8838 10 -0.957262
      vertex -75 10 10
      vertex -28.8838 10 0.957262
    endloop
  endfacet
  facet normal 0 1 0
    outer loop
      vertex -75 10 -10
      vertex -28.8838 10 -0.957262
      vertex -27.994 10 -2.65249
    endloop
  endfacet
  facet normal 0 1 0
    outer loop
      vertex -75 10 -10
      vertex -27.994 10 -2.65249
      vertex -26.4184 10 -3.74006
    endloop
  endfacet
  facet normal 0 1 0
    outer loop
      vertex -28.8838 10 -0.957262
      vertex -75 10 -10
      vertex -75 10 10
    endloop
  endfacet
  facet normal 0 1 0
    outer loop
      vertex -24.5179 10 -3.97083
      vertex -75 10 -10
      vertex -26.4184 10 -3.74006
    endloop
  endfacet
  facet normal 0 1 0
    outer loop
      vertex -75 10 -10
      vertex -24.5179 10 -3.97083
      vertex 75 10 -10
    endloop
  endfacet
  facet normal 0 -1 0
    outer loop
      vertex -24.5179 -10 3.97083
      vertex 23.5816 -10 3.74006
      vertex 25.4821 -10 3.97083
    endloop
  endfacet
  facet normal 0 -1 0
    outer loop
      vertex -22.7277 -10 3.29193
      vertex 23.5816 -10 3.74006
      vertex -24.5179 -10 3.97083
    endloop
  endfacet
  facet normal 0 -1 0
    outer loop
      vertex -22.7277 -10 3.29193
      vertex 22.006 -10 2.65249
      vertex 23.5816 -10 3.74006
    endloop
  endfacet
  facet normal 0 -1 0
    outer loop
      vertex -21.4582 -10 1.85889
      vertex 22.006 -10 2.65249
      vertex -22.7277 -10 3.29193
    endloop
  endfacet
  facet normal 0 -1 0
    outer loop
      vertex -21.4582 -10 1.85889
      vertex 21.1162 -10 0.957262
      vertex 22.006 -10 2.65249
    endloop
  endfacet
  facet normal 0 -1 0
    outer loop
      vertex -21 -10 0
      vertex 21.1162 -10 0.957262
      vertex -21.4582 -10 1.85889
    endloop
  endfacet
  facet normal 0 -1 0
    outer loop
      vertex -21 -10 0
      vertex 21.1162 -10 -0.957262
      vertex 21.1162 -10 0.957262
    endloop
  endfacet
  facet normal 0 -1 0
    outer loop
      vertex -21.4582 -10 -1.85889
      vertex 21.1162 -10 -0.957262
      vertex -21 -10 0
    endloop
  endfacet
  facet normal 0 -1 0
    outer loop
      vertex -21.4582 -10 -1.85889
      vertex 22.006 -10 -2.65249
      vertex 21.1162 -10 -0.957262
    endloop
  endfacet
  facet normal 0 -1 0
    outer loop
      vertex -22.7277 -10 -3.29193
      vertex 22.006 -10 -2.65249
      vertex -21.4582 -10 -1.85889
    endloop
  endfacet
  facet normal 0 -1 0
    outer loop
      vertex -22.7277 -10 -3.29193
      vertex 23.5816 -10 -3.74006
      vertex 22.006 -10 -2.65249
    endloop
  endfacet
  facet normal 0 -1 0
    outer loop
      vertex -24.5179 -10 -3.97083
      vertex 23.5816 -10 -3.74006
      vertex -22.7277 -10 -3.29193
    endloop
  endfacet
  facet normal 0 -1 -0
    outer loop
      vertex 23.5816 -10 -3.74006
      vertex -24.5179 -10 -3.97083
      vertex 25.4821 -10 -3.97083
    endloop
  endfacet
  facet normal 0 -1 0
    outer loop
      vertex -75 -10 10
      vertex -24.5179 -10 3.97083
      vertex 75 -10 10
    endloop
  endfacet
  facet normal 0 -1 0
    outer loop
      vertex -75 -10 10
      vertex -26.4184 -10 3.74006
      vertex -24.5179 -10 3.97083
    endloop
  endfacet
  facet normal 0 -1 0
    outer loop
      vertex -75 -10 10
      vertex -27.994 -10 2.65249
      vertex -26.4184 -10 3.74006
    endloop
  endfacet
  facet normal 0 -1 0
    outer loop
      vertex -75 -10 10
      vertex -28.8838 -10 0.957262
      vertex -27.994 -10 2.65249
    endloop
  endfacet
  facet normal 0 -1 0
    outer loop
      vertex -75 -10 10
      vertex -28.8838 -10 -0.957262
      vertex -28.8838 -10 0.957262
    endloop
  endfacet
  facet normal 0 -1 0
    outer loop
      vertex -75 -10 -10
      vertex -28.8838 -10 -0.957262
      vertex -75 -10 10
    endloop
  endfacet
  facet normal 0 -1 -0
    outer loop
      vertex -28.8838 -10 -0.957262
      vertex -75 -10 -10
      vertex -27.994 -10 -2.65249
    endloop
  endfacet
  facet normal 0 -1 -0
    outer loop
      vertex -24.5179 -10 -3.97083
      vertex -75 -10 -10
      vertex 25.4821 -10 -3.97083
    endloop
  endfacet
  facet normal 0 -1 -0
    outer loop
      vertex -26.4184 -10 -3.74006
      vertex -75 -10 -10
      vertex -24.5179 -10 -3.97083
    endloop
  endfacet
  facet normal 0 -1 -0
    outer loop
      vertex -27.994 -10 -2.65249
      vertex -75 -10 -10
      vertex -26.4184 -10 -3.74006
    endloop
  endfacet
  facet normal 0 -1 0
    outer loop
      vertex 25.4821 -10 3.97083
      vertex 75 -10 10
      vertex -24.5179 -10 3.97083
    endloop
  endfacet
  facet normal 0 -1 0
    outer loop
      vertex 27.2723 -10 3.29193
      vertex 75 -10 10
      vertex 25.4821 -10 3.97083
    endloop
  endfacet
  facet normal 0 -1 0
    outer loop
      vertex 28.5418 -10 1.85889
      vertex 75 -10 10
      vertex 27.2723 -10 3.29193
    endloop
  endfacet
  facet normal 0 -1 0
    outer loop
      vertex 29 -10 0
      vertex 75 -10 10
      vertex 28.5418 -10 1.85889
    endloop
  endfacet
  facet normal 0 -1 0
    outer loop
      vertex 75 -10 -10
      vertex 29 -10 0
      vertex 28.5418 -10 -1.85889
    endloop
  endfacet
  facet normal 0 -1 0
    outer loop
      vertex 75 -10 -10
      vertex 28.5418 -10 -1.85889
      vertex 27.2723 -10 -3.29193
    endloop
  endfacet
  facet normal 0 -1 0
    outer loop
      vertex 75 -10 -10
      vertex 27.2723 -10 -3.29193
      vertex 25.4821 -10 -3.97083
    endloop
  endfacet
  facet normal 0 -1 0
    outer loop
      vertex 29 -10 0
      vertex 75 -10 -10
      vertex 75 -10 10
    endloop
  endfacet
  facet normal 0 -1 0
    outer loop
      vertex 75 -10 -10
      vertex 25.4821 -10 -3.97083
      vertex -75 -10 -10
    endloop
  endfacet
  facet normal -1 0 0
    outer loop
      vertex 73 -8 -8
      vertex 73 8 8
      vertex 73 8 -8
    endloop
  endfacet
  facet normal -1 -0 0
    outer loop
      vertex 73 8 8
      vertex 73 -8 -8
      vertex 73 -8 8
    endloop
  endfacet
  facet normal 0 0 -1
    outer loop
      vertex -73 -8 8
      vertex 73 8 8
      vertex 73 -8 8
    endloop
  endfacet
  facet normal -0 0 -1
    outer loop
      vertex 73 8 8
      vertex -73 -8 8
      vertex -73 8 8
    endloop
  endfacet
  facet normal -0 0 1
    outer loop
      vertex -73 8 -8
      vertex 73 -8 -8
      vertex 73 8 -8
    endloop
  endfacet
  facet normal 0 0 1
    outer loop
      vertex 73 -8 -8
      vertex -73 8 -8
      vertex -73 -8 -8
    endloop
  endfacet
  facet normal 1 -0 0
    outer loop
      vertex -73 -8 8
      vertex -73 8 -8
      vertex -73 8 8
    endloop
  endfacet
  facet normal 1 0 0
    outer loop
      vertex -73 8 -8
      vertex -73 -8 8
      vertex -73 -8 -8
    endloop
  endfacet
  facet normal 0 -1 0
    outer loop
      vertex -24.5179 8 3.97083
      vertex 23.5816 8 3.74006
      vertex 25.4821 8 3.97083
    endloop
  endfacet
  facet normal 0 -1 0
    outer loop
      vertex -22.7277 8 3.29193
      vertex 23.5816 8 3.74006
      vertex -24.5179 8 3.97083
    endloop
  endfacet
  facet normal 0 -1 0
    outer loop
      vertex -22.7277 8 3.29193
      vertex 22.006 8 2.65249
      vertex 23.5816 8 3.74006
    endloop
  endfacet
  facet normal 0 -1 0
    outer loop
      vertex -21.4582 8 1.85889
      vertex 22.006 8 2.65249
      vertex -22.7277 8 3.29193
    endloop
  endfacet
  facet normal 0 -1 0
    outer loop
      vertex -21.4582 8 1.85889
      vertex 21.1162 8 0.957262
      vertex 22.006 8 2.65249
    endloop
  endfacet
  facet normal 0 -1 0
    outer loop
      vertex -21 8 0
      vertex 21.1162 8 0.957262
      vertex -21.4582 8 1.85889
    endloop
  endfacet
  facet normal 0 -1 0
    outer loop
      vertex -21 8 0
      vertex 21.1162 8 -0.957262
      vertex 21.1162 8 0.957262
    endloop
  endfacet
  facet normal 0 -1 0
    outer loop
      vertex -21.4582 8 -1.85889
      vertex 21.1162 8 -0.957262
      vertex -21 8 0
    endloop
  endfacet
  facet normal 0 -1 0
    outer loop
      vertex -21.4582 8 -1.85889
      vertex 22.006 8 -2.65249
      vertex 21.1162 8 -0.957262
    endloop
  endfacet
  facet normal 0 -1 0
    outer loop
      vertex -22.7277 8 -3.29193
      vertex 22.006 8 -2.65249
      vertex -21.4582 8 -1.85889
    endloop
  endfacet
  facet normal 0 -1 0
    outer loop
      vertex -22.7277 8 -3.29193
      vertex 23.5816 8 -3.74006
      vertex 22.006 8 -2.65249
    endloop
  endfacet
  facet normal 0 -1 0
    outer loop
      vertex -24.5179 8 -3.97083
      vertex 23.5816 8 -3.74006
      vertex -22.7277 8 -3.29193
    endloop
  endfacet
  facet normal 0 -1 -0
    outer loop
      vertex 23.5816 8 -3.74006
      vertex -24.5179 8 -3.97083
      vertex 25.4821 8 -3.97083
    endloop
  endfacet
  facet normal 0 -1 0
    outer loop
      vertex -73 8 8
      vertex -24.5179 8 3.97083
      vertex 73 8 8
    endloop
  endfacet
  facet normal 0 -1 0
    outer loop
      vertex -73 8 8
      vertex -26.4184 8 3.74006
      vertex -24.5179 8 3.97083
    endloop
  endfacet
  facet normal 0 -1 0
    outer loop
      vertex -73 8 8
      vertex -27.994 8 2.65249
      vertex -26.4184 8 3.74006
    endloop
  endfacet
  facet normal 0 -1 0
    outer loop
      vertex -73 8 8
      vertex -28.8838 8 0.957262
      vertex -27.994 8 2.65249
    endloop
  endfacet
  facet normal 0 -1 0
    outer loop
      vertex -73 8 8
      vertex -28.8838 8 -0.957262
      vertex -28.8838 8 0.957262
    endloop
  endfacet
  facet normal 0 -1 0
    outer loop
      vertex -73 8 -8
      vertex -28.8838 8 -0.957262
      vertex -73 8 8
    endloop
  endfacet
  facet normal 0 -1 -0
    outer loop
      vertex -28.8838 8 -0.957262
      vertex -73 8 -8
      vertex -27.994 8 -2.65249
    endloop
  endfacet
  facet normal 0 -1 -0
    outer loop
      vertex -24.5179 8 -3.97083
      vertex -73 8 -8
      vertex 25.4821 8 -3.97083
    endloop
  endfacet
  facet normal 0 -1 -0
    outer loop
      vertex -26.4184 8 -3.74006
      vertex -73 8 -8
      vertex -24.5179 8 -3.97083
    endloop
  endfacet
  facet normal 0 -1 -0
    outer loop
      vertex -27.994 8 -2.65249
      vertex -73 8 -8
      vertex -26.4184 8 -3.74006
    endloop
  endfacet
  facet normal 0 -1 0
    outer loop
      vertex 25.4821 8 3.97083
      vertex 73 8 8
      vertex -24.5179 8 3.97083
    endloop
  endfacet
  facet normal 0 -1 0
    outer loop
      vertex 27.2723 8 3.29193
      vertex 73 8 8
      vertex 25.4821 8 3.97083
    endloop
  endfacet
  facet normal 0 -1 0
    outer loop
      vertex 28.5418 8 1.85889
      vertex 73 8 8
      vertex 27.2723 8 3.29193
    endloop
  endfacet
  facet normal 0 -1 0
    outer loop
      vertex 29 8 0
      vertex 73 8 8
      vertex 28.5418 8 1.85889
    endloop
  endfacet
  facet normal 0 -1 0
    outer loop
      vertex 73 8 -8
      vertex 29 8 0
      vertex 28.5418 8 -1.85889
    endloop
  endfacet
  facet normal 0 -1 0
    outer loop
      vertex 73 8 -8
      vertex 28.5418 8 -1.85889
      vertex 27.2723 8 -3.29193
    endloop
  endfacet
  facet normal 0 -1 0
    outer loop
      vertex 73 8 -8
      vertex 27.2723 8 -3.29193
      vertex 25.4821 8 -3.97083
    endloop
  endfacet
  facet normal 0 -1 0
    outer loop
      vertex 29 8 0
      vertex 73 8 -8
      vertex 73 8 8
    endloop
  endfacet
  facet normal 0 -1 0
    outer loop
      vertex 73 8 -8
      vertex 25.4821 8 -3.97083
      vertex -73 8 -8
    endloop
  endfacet
  facet normal 0 1 -0
    outer loop
      vertex 23.5816 -8 3.74006
      vertex -24.5179 -8 3.97083
      vertex 25.4821 -8 3.97083
    endloop
  endfacet
  facet normal 0 1 0
    outer loop
      vertex 23.5816 -8 3.74006
      vertex -22.7277 -8 3.29193
      vertex -24.5179 -8 3.97083
    endloop
  endfacet
  facet normal 0 1 -0
    outer loop
      vertex 22.006 -8 2.65249
      vertex -22.7277 -8 3.29193
      vertex 23.5816 -8 3.74006
    endloop
  endfacet
  facet normal 0 1 0
    outer loop
      vertex 22.006 -8 2.65249
      vertex -21.4582 -8 1.85889
      vertex -22.7277 -8 3.29193
    endloop
  endfacet
  facet normal 0 1 -0
    outer loop
      vertex 21.1162 -8 0.957262
      vertex -21.4582 -8 1.85889
      vertex 22.006 -8 2.65249
    endloop
  endfacet
  facet normal 0 1 0
    outer loop
      vertex 21.1162 -8 0.957262
      vertex -21 -8 0
      vertex -21.4582 -8 1.85889
    endloop
  endfacet
  facet normal 0 1 -0
    outer loop
      vertex 21.1162 -8 -0.957262
      vertex -21 -8 0
      vertex 21.1162 -8 0.957262
    endloop
  endfacet
  facet normal 0 1 0
    outer loop
      vertex 21.1162 -8 -0.957262
      vertex -21.4582 -8 -1.85889
      vertex -21 -8 0
    endloop
  endfacet
  facet normal 0 1 0
    outer loop
      vertex 22.006 -8 -2.65249
      vertex -21.4582 -8 -1.85889
      vertex 21.1162 -8 -0.957262
    endloop
  endfacet
  facet normal 0 1 0
    outer loop
      vertex 22.006 -8 -2.65249
      vertex -22.7277 -8 -3.29193
      vertex -21.4582 -8 -1.85889
    endloop
  endfacet
  facet normal 0 1 0
    outer loop
      vertex 23.5816 -8 -3.74006
      vertex -22.7277 -8 -3.29193
      vertex 22.006 -8 -2.65249
    endloop
  endfacet
  facet normal 0 1 0
    outer loop
      vertex -24.5179 -8 -3.97083
      vertex 23.5816 -8 -3.74006
      vertex 25.4821 -8 -3.97083
    endloop
  endfacet
  facet normal 0 1 0
    outer loop
      vertex 23.5816 -8 -3.74006
      vertex -24.5179 -8 -3.97083
      vertex -22.7277 -8 -3.29193
    endloop
  endfacet
  facet normal 0 1 0
    outer loop
      vertex 73 -8 8
      vertex 25.4821 -8 3.97083
      vertex -73 -8 8
    endloop
  endfacet
  facet normal 0 1 0
    outer loop
      vertex 73 -8 8
      vertex 27.2723 -8 3.29193
      vertex 25.4821 -8 3.97083
    endloop
  endfacet
  facet normal 0 1 0
    outer loop
      vertex 73 -8 8
      vertex 28.5418 -8 1.85889
      vertex 27.2723 -8 3.29193
    endloop
  endfacet
  facet normal 0 1 0
    outer loop
      vertex 73 -8 8
      vertex 29 -8 0
      vertex 28.5418 -8 1.85889
    endloop
  endfacet
  facet normal 0 1 -0
    outer loop
      vertex 73 -8 -8
      vertex 29 -8 0
      vertex 73 -8 8
    endloop
  endfacet
  facet normal 0 1 0
    outer loop
      vertex 29 -8 0
      vertex 73 -8 -8
      vertex 28.5418 -8 -1.85889
    endloop
  endfacet
  facet normal 0 1 0
    outer loop
      vertex 28.5418 -8 -1.85889
      vertex 73 -8 -8
      vertex 27.2723 -8 -3.29193
    endloop
  endfacet
  facet normal 0 1 0
    outer loop
      vertex 25.4821 -8 -3.97083
      vertex 73 -8 -8
      vertex -24.5179 -8 -3.97083
    endloop
  endfacet
  facet normal 0 1 0
    outer loop
      vertex 27.2723 -8 -3.29193
      vertex 73 -8 -8
      vertex 25.4821 -8 -3.97083
    endloop
  endfacet
  facet normal 0 1 -0
    outer loop
      vertex -24.5179 -8 3.97083
      vertex -73 -8 8
      vertex 25.4821 -8 3.97083
    endloop
  endfacet
  facet normal 0 1 -0
    outer loop
      vertex -26.4184 -8 3.74006
      vertex -73 -8 8
      vertex -24.5179 -8 3.97083
    endloop
  endfacet
  facet normal 0 1 -0
    outer loop
      vertex -27.994 -8 2.65249
      vertex -73 -8 8
      vertex -26.4184 -8 3.74006
    endloop
  endfacet
  facet normal 0 1 -0
    outer loop
      vertex -28.8838 -8 0.957262
      vertex -73 -8 8
      vertex -27.994 -8 2.65249
    endloop
  endfacet
  facet normal 0 1 -0
    outer loop
      vertex -28.8838 -8 -0.957262
      vertex -73 -8 8
      vertex -28.8838 -8 0.957262
    endloop
  endfacet
  facet normal 0 1 0
    outer loop
      vertex -73 -8 -8
      vertex -28.8838 -8 -0.957262
      vertex -27.994 -8 -2.65249
    endloop
  endfacet
  facet normal 0 1 0
    outer loop
      vertex -73 -8 -8
      vertex -27.994 -8 -2.65249
      vertex -26.4184 -8 -3.74006
    endloop
  endfacet
  facet normal 0 1 0
    outer loop
      vertex -28.8838 -8 -0.957262
      vertex -73 -8 -8
      vertex -73 -8 8
    endloop
  endfacet
  facet normal 0 1 0
    outer loop
      vertex -24.5179 -8 -3.97083
      vertex -73 -8 -8
      vertex -26.4184 -8 -3.74006
    endloop
  endfacet
  facet normal 0 1 0
    outer loop
      vertex -73 -8 -8
      vertex -24.5179 -8 -3.97083
      vertex 73 -8 -8
    endloop
  endfacet
endsolid OpenSCAD_Model
