solid OpenSCAD_Model
  facet normal 1 -0 0
    outer loop
      vertex 20 -10 10
      vertex 20 10 0
      vertex 20 10 10
    endloop
  endfacet
  facet normal 1 0 0
    outer loop
      vertex 20 10 0
      vertex 20 -10 10
      vertex 20 -10 0
    endloop
  endfacet
  facet normal -0 0 1
    outer loop
      vertex -20 10 10
      vertex 20 -10 10
      vertex 20 10 10
    endloop
  endfacet
  facet normal 0 0 1
    outer loop
      vertex 20 -10 10
      vertex -20 10 10
      vertex -20 -10 10
    endloop
  endfacet
  facet normal 0 0 -1
    outer loop
      vertex -20 -10 0
      vertex 20 10 0
      vertex 20 -10 0
    endloop
  endfacet
  facet normal -0 0 -1
    outer loop
      vertex 20 10 0
      vertex -20 -10 0
      vertex -20 10 0
    endloop
  endfacet
  facet normal -1 0 0
    outer loop
      vertex -20 -10 0
      vertex -20 10 10
      vertex -20 10 0
    endloop
  endfacet
  facet normal -1 -0 0
    outer loop
      vertex -20 10 10
      vertex -20 -10 0
      vertex -20 -10 10
    endloop
  endfacet
  facet normal 0 1 -0
    outer loop
      vertex 20 10 0
      vertex -20 10 10
      vertex 20 10 10
    endloop
  endfacet
  facet normal 0 1 0
    outer loop
      vertex -20 10 10
      vertex 20 10 0
      vertex -20 10 0
    endloop
  endfacet
  facet normal 0 -1 0
    outer loop
      vertex -20 -10 0
      vertex 20 -10 10
      vertex -20 -10 10
    endloop
  endfacet
  facet normal 0 -1 -0
    outer loop
      vertex 20 -10 10
      vertex -20 -10 0
      vertex 20 -10 0
    endloop
  endfacet
  facet normal 1 -0 0
    outer loop
      vertex 65 -10 10
      vertex 65 10 0
      vertex 65 10 10
    endloop
  endfacet
  facet normal 1 0 0
    outer loop
      vertex 65 10 0
      vertex 65 -10 10
      vertex 65 -10 0
    endloop
  endfacet
  facet normal -0 0 1
    outer loop
      vertex 25 10 10
      vertex 65 -10 10
      vertex 65 10 10
    endloop
  endfacet
  facet normal 0 0 1
    outer loop
      vertex 65 -10 10
      vertex 25 10 10
      vertex 25 -10 10
    endloop
  endfacet
  facet normal 0 0 -1
    outer loop
      vertex 25 -10 0
      vertex 65 10 0
      vertex 65 -10 0
    endloop
  endfacet
  facet normal -0 0 -1
    outer loop
      vertex 65 10 0
      vertex 25 -10 0
      vertex 25 10 0
    endloop
  endfacet
  facet normal -1 0 0
    outer loop
      vertex 25 -10 0
      vertex 25 10 10
      vertex 25 10 0
    endloop
  endfacet
  facet normal -1 -0 0
    outer loop
      vertex 25 10 10
      vertex 25 -10 0
      vertex 25 -10 10
    endloop
  endfacet
  facet normal 0 1 -0
    outer loop
      vertex 65 10 0
      vertex 25 10 10
      vertex 65 10 10
    endloop
  endfacet
  facet normal 0 1 0
    outer loop
      vertex 25 10 10
      vertex 65 10 0
      vertex 25 10 0
    endloop
  endfacet
  facet normal 0 -1 0
    outer loop
      vertex 25 -10 0
      vertex 65 -10 10
      vertex 25 -10 10
    endloop
  endfacet
  facet normal 0 -1 -0
    outer loop
      vertex 65 -10 10
      vertex 25 -10 0
      vertex 65 -10 0
    endloop
  endfacet
  facet normal 1 -0 0
    outer loop
      vertex 110 -10 10
      vertex 110 10 0
      vertex 110 10 10
    endloop
  endfacet
  facet normal 1 0 0
    outer loop
      vertex 110 10 0
      vertex 110 -10 10
      vertex 110 -10 0
    endloop
  endfacet
  facet normal -0 0 1
    outer loop
      vertex 70 10 10
      vertex 110 -10 10
      vertex 110 10 10
    endloop
  endfacet
  facet normal 0 0 1
    outer loop
      vertex 110 -10 10
      vertex 70 10 10
      vertex 70 -10 10
    endloop
  endfacet
  facet normal 0 0 -1
    outer loop
      vertex 70 -10 0
      vertex 110 10 0
      vertex 110 -10 0
    endloop
  endfacet
  facet normal -0 0 -1
    outer loop
      vertex 110 10 0
      vertex 70 -10 0
      vertex 70 10 0
    endloop
  endfacet
  facet normal -1 0 0
    outer loop
      vertex 70 -10 0
      vertex 70 10 10
      vertex 70 10 0
    endloop
  endfacet
  facet normal -1 -0 0
    outer loop
      vertex 70 10 10
      vertex 70 -10 0
      vertex 70 -10 10
    endloop
  endfacet
  facet normal 0 1 -0
    outer loop
      vertex 110 10 0
      vertex 70 10 10
      vertex 110 10 10
    endloop
  endfacet
  facet normal 0 1 0
    outer loop
      vertex 70 10 10
      vertex 110 10 0
      vertex 70 10 0
    endloop
  endfacet
  facet normal 0 -1 0
    outer loop
      vertex 70 -10 0
      vertex 110 -10 10
      vertex 70 -10 10
    endloop
  endfacet
  facet normal 0 -1 -0
    outer loop
      vertex 110 -10 10
      vertex 70 -10 0
      vertex 110 -10 0
    endloop
  endfacet
  facet normal 1 -0 0
    outer loop
      vertex 155 -10 10
      vertex 155 10 0
      vertex 155 10 10
    endloop
  endfacet
  facet normal 1 0 0
    outer loop
      vertex 155 10 0
      vertex 155 -10 10
      vertex 155 -10 0
    endloop
  endfacet
  facet normal -0 0 1
    outer loop
      vertex 115 10 10
      vertex 155 -10 10
      vertex 155 10 10
    endloop
  endfacet
  facet normal 0 0 1
    outer loop
      vertex 155 -10 10
      vertex 115 10 10
      vertex 115 -10 10
    endloop
  endfacet
  facet normal 0 0 -1
    outer loop
      vertex 115 -10 0
      vertex 155 10 0
      vertex 155 -10 0
    endloop
  endfacet
  facet normal -0 0 -1
    outer loop
      vertex 155 10 0
      vertex 115 -10 0
      vertex 115 10 0
    endloop
  endfacet
  facet normal -1 0 0
    outer loop
      vertex 115 -10 0
      vertex 115 10 10
      vertex 115 10 0
    endloop
  endfacet
  facet normal -1 -0 0
    outer loop
      vertex 115 10 10
      vertex 115 -10 0
      vertex 115 -10 10
    endloop
  endfacet
  facet normal 0 1 -0
    outer loop
      vertex 155 10 0
      vertex 115 10 10
      vertex 155 10 10
    endloop
  endfacet
  facet normal 0 1 0
    outer loop
      vertex 115 10 10
      vertex 155 10 0
      vertex 115 10 0
    endloop
  endfacet
  facet normal 0 -1 0
    outer loop
      vertex 115 -10 0
      vertex 155 -10 10
      vertex 115 -10 10
    endloop
  endfacet
  facet normal 0 -1 -0
    outer loop
      vertex 155 -10 10
      vertex 115 -10 0
      vertex 155 -10 0
    endloop
  endfacet
  facet normal 1 -0 0
    outer loop
      vertex 200 -10 10
      vertex 200 10 0
      vertex 200 10 10
    endloop
  endfacet
  facet normal 1 0 0
    outer loop
      vertex 200 10 0
      vertex 200 -10 10
      vertex 200 -10 0
    endloop
  endfacet
  facet normal -0 0 1
    outer loop
      vertex 160 10 10
      vertex 200 -10 10
      vertex 200 10 10
    endloop
  endfacet
  facet normal 0 0 1
    outer loop
      vertex 200 -10 10
      vertex 160 10 10
      vertex 160 -10 10
    endloop
  endfacet
  facet normal 0 0 -1
    outer loop
      vertex 160 -10 0
      vertex 200 10 0
      vertex 200 -10 0
    endloop
  endfacet
  facet normal -0 0 -1
    outer loop
      vertex 200 10 0
      vertex 160 -10 0
      vertex 160 10 0
    endloop
  endfacet
  facet normal -1 0 0
    outer loop
      vertex 160 -10 0
      vertex 160 10 10
      vertex 160 10 0
    endloop
  endfacet
  facet normal -1 -0 0
    outer loop
      vertex 160 10 10
      vertex 160 -10 0
      vertex 160 -10 10
    endloop
  endfacet
  facet normal 0 1 -0
    outer loop
      vertex 200 10 0
      vertex 160 10 10
      vertex 200 10 10
    endloop
  endfacet
  facet normal 0 1 0
    outer loop
      vertex 160 10 10
      vertex 200 10 0
      vertex 160 10 0
    endloop
  endfacet
  facet normal 0 -1 0
    outer loop
      vertex 160 -10 0
      vertex 200 -10 10
      vertex 160 -10 10
    endloop
  endfacet
  facet normal 0 -1 -0
    outer loop
      vertex 200 -10 10
      vertex 160 -10 0
      vertex 200 -10 0
    endloop
  endfacet
  facet normal 1 -0 0
    outer loop
      vertex 245 -10 10
      vertex 245 10 0
      vertex 245 10 10
    endloop
  endfacet
  facet normal 1 0 0
    outer loop
      vertex 245 10 0
      vertex 245 -10 10
      vertex 245 -10 0
    endloop
  endfacet
  facet normal -0 0 1
    outer loop
      vertex 205 10 10
      vertex 245 -10 10
      vertex 245 10 10
    endloop
  endfacet
  facet normal 0 0 1
    outer loop
      vertex 245 -10 10
      vertex 205 10 10
      vertex 205 -10 10
    endloop
  endfacet
  facet normal 0 0 -1
    outer loop
      vertex 205 -10 0
      vertex 245 10 0
      vertex 245 -10 0
    endloop
  endfacet
  facet normal -0 0 -1
    outer loop
      vertex 245 10 0
      vertex 205 -10 0
      vertex 205 10 0
    endloop
  endfacet
  facet normal -1 0 0
    outer loop
      vertex 205 -10 0
      vertex 205 10 10
      vertex 205 10 0
    endloop
  endfacet
  facet normal -1 -0 0
    outer loop
      vertex 205 10 10
      vertex 205 -10 0
      vertex 205 -10 10
    endloop
  endfacet
  facet normal 0 1 -0
    outer loop
      vertex 245 10 0
      vertex 205 10 10
      vertex 245 10 10
    endloop
  endfacet
  facet normal 0 1 0
    outer loop
      vertex 205 10 10
      vertex 245 10 0
      vertex 205 10 0
    endloop
  endfacet
  facet normal 0 -1 0
    outer loop
      vertex 205 -10 0
      vertex 245 -10 10
      vertex 205 -10 10
    endloop
  endfacet
  facet normal 0 -1 -0
    outer loop
      vertex 245 -10 10
      vertex 205 -10 0
      vertex 245 -10 0
    endloop
  endfacet
endsolid OpenSCAD_Model
