solid OpenSCAD_Model
  facet normal 1 -0 0
    outer loop
      vertex 10 -5 14.5
      vertex 10 5 6.5
      vertex 10 5 14.5
    endloop
  endfacet
  facet normal 1 0 0
    outer loop
      vertex 10 5 6.5
      vertex 10 -5 14.5
      vertex 10 -5 6.5
    endloop
  endfacet
  facet normal -0 0 1
    outer loop
      vertex -10 5 14.5
      vertex 10 -5 14.5
      vertex 10 5 14.5
    endloop
  endfacet
  facet normal 0 0 1
    outer loop
      vertex 10 -5 14.5
      vertex -10 5 14.5
      vertex -10 -5 14.5
    endloop
  endfacet
  facet normal 0 0 -1
    outer loop
      vertex -10 -5 6.5
      vertex 10 5 6.5
      vertex 10 -5 6.5
    endloop
  endfacet
  facet normal -0 0 -1
    outer loop
      vertex 10 5 6.5
      vertex -10 -5 6.5
      vertex -10 5 6.5
    endloop
  endfacet
  facet normal -1 0 0
    outer loop
      vertex -10 -5 6.5
      vertex -10 5 14.5
      vertex -10 5 6.5
    endloop
  endfacet
  facet normal -1 -0 0
    outer loop
      vertex -10 5 14.5
      vertex -10 -5 6.5
      vertex -10 -5 14.5
    endloop
  endfacet
  facet normal 0 1 -0
    outer loop
      vertex 10 5 6.5
      vertex -10 5 14.5
      vertex 10 5 14.5
    endloop
  endfacet
  facet normal 0 1 0
    outer loop
      vertex -10 5 14.5
      vertex 10 5 6.5
      vertex -10 5 6.5
    endloop
  endfacet
  facet normal 0 -1 0
    outer loop
      vertex -10 -5 6.5
      vertex 10 -5 14.5
      vertex -10 -5 14.5
    endloop
  endfacet
  facet normal 0 -1 -0
    outer loop
      vertex 10 -5 14.5
      vertex -10 -5 6.5
      vertex 10 -5 6.5
    endloop
  endfacet
  facet normal 1 -0 0
    outer loop
      vertex 10 -5 5.75
      vertex 10 5 -5
      vertex 10 5 5.75
    endloop
  endfacet
  facet normal 1 0 0
    outer loop
      vertex 10 5 -5
      vertex 10 -5 5.75
      vertex 10 -5 -5
    endloop
  endfacet
  facet normal 0 0 -1
    outer loop
      vertex -10 -5 -5
      vertex 10 5 -5
      vertex 10 -5 -5
    endloop
  endfacet
  facet normal -0 0 -1
    outer loop
      vertex 10 5 -5
      vertex -10 -5 -5
      vertex -10 5 -5
    endloop
  endfacet
  facet normal -1 0 0
    outer loop
      vertex -10 -5 -5
      vertex -10 5 5.75
      vertex -10 5 -5
    endloop
  endfacet
  facet normal -1 -0 0
    outer loop
      vertex -10 5 5.75
      vertex -10 -5 -5
      vertex -10 -5 5.75
    endloop
  endfacet
  facet normal 0 1 -0
    outer loop
      vertex 10 5 -5
      vertex -10 5 5.75
      vertex 10 5 5.75
    endloop
  endfacet
  facet normal 0 1 0
    outer loop
      vertex -10 5 5.75
      vertex 10 5 -5
      vertex -10 5 -5
    endloop
  endfacet
  facet normal 0 -1 0
    outer loop
      vertex -10 -5 -5
      vertex 10 -5 5.75
      vertex -10 -5 5.75
    endloop
  endfacet
  facet normal 0 -1 -0
    outer loop
      vertex 10 -5 5.75
      vertex -10 -5 -5
      vertex 10 -5 -5
    endloop
  endfacet
  facet normal -1 0 0
    outer loop
      vertex -10 -5 -14.5
      vertex -10 5 -5.75
      vertex -10 5 -14.5
    endloop
  endfacet
  facet normal -1 -0 0
    outer loop
      vertex -10 5 -5.75
      vertex -10 -5 -14.5
      vertex -10 -5 -5.75
    endloop
  endfacet
  facet normal 0 0 -1
    outer loop
      vertex -10 -5 -14.5
      vertex 10 5 -14.5
      vertex 10 -5 -14.5
    endloop
  endfacet
  facet normal -0 0 -1
    outer loop
      vertex 10 5 -14.5
      vertex -10 -5 -14.5
      vertex -10 5 -14.5
    endloop
  endfacet
  facet normal 1 -0 0
    outer loop
      vertex 10 -5 -5.75
      vertex 10 5 -14.5
      vertex 10 5 -5.75
    endloop
  endfacet
  facet normal 1 0 0
    outer loop
      vertex 10 5 -14.5
      vertex 10 -5 -5.75
      vertex 10 -5 -14.5
    endloop
  endfacet
  facet normal 0 -1 0
    outer loop
      vertex -10 -5 -14.5
      vertex 10 -5 -5.75
      vertex -10 -5 -5.75
    endloop
  endfacet
  facet normal 0 -1 -0
    outer loop
      vertex 10 -5 -5.75
      vertex -10 -5 -14.5
      vertex 10 -5 -14.5
    endloop
  endfacet
  facet normal 0 1 -0
    outer loop
      vertex 10 5 -14.5
      vertex -10 5 -5.75
      vertex 10 5 -5.75
    endloop
  endfacet
  facet normal 0 1 0
    outer loop
      vertex -10 5 -5.75
      vertex 10 5 -14.5
      vertex -10 5 -14.5
    endloop
  endfacet
  facet normal -0 0 1
    outer loop
      vertex -10 5 5.75
      vertex 10 -5 5.75
      vertex 10 5 5.75
    endloop
  endfacet
  facet normal 0 0 1
    outer loop
      vertex 10 -5 5.75
      vertex -10 5 5.75
      vertex -10 -5 5.75
    endloop
  endfacet
  facet normal -0 0 1
    outer loop
      vertex -10 5 -5.75
      vertex 10 -5 -5.75
      vertex 10 5 -5.75
    endloop
  endfacet
  facet normal 0 0 1
    outer loop
      vertex 10 -5 -5.75
      vertex -10 5 -5.75
      vertex -10 -5 -5.75
    endloop
  endfacet
endsolid OpenSCAD_Model
