solid OpenSCAD_Model
  facet normal 1 -0 0
    outer loop
      vertex 30 -15 60
      vertex 30 15 40
      vertex 30 15 60
    endloop
  endfacet
  facet normal 1 0 0
    outer loop
      vertex 30 15 40
      vertex 30 -15 60
      vertex 30 -15 40
    endloop
  endfacet
  facet normal -0 0 1
    outer loop
      vertex -30 15 60
      vertex 30 -15 60
      vertex 30 15 60
    endloop
  endfacet
  facet normal 0 0 1
    outer loop
      vertex 30 -15 60
      vertex -30 15 60
      vertex -30 -15 60
    endloop
  endfacet
  facet normal 0 0 -1
    outer loop
      vertex 30 -15 40
      vertex 20 -10 40
      vertex 30 15 40
    endloop
  endfacet
  facet normal 0 0 -1
    outer loop
      vertex 30 -15 40
      vertex -20 -10 40
      vertex 20 -10 40
    endloop
  endfacet
  facet normal -0 0 -1
    outer loop
      vertex -20 -10 40
      vertex -30 -15 40
      vertex -20 10 40
    endloop
  endfacet
  facet normal 0 0 -1
    outer loop
      vertex -30 -15 40
      vertex -20 -10 40
      vertex 30 -15 40
    endloop
  endfacet
  facet normal 0 0 -1
    outer loop
      vertex 20 10 40
      vertex 30 15 40
      vertex 20 -10 40
    endloop
  endfacet
  facet normal 0 0 -1
    outer loop
      vertex -20 10 40
      vertex 30 15 40
      vertex 20 10 40
    endloop
  endfacet
  facet normal 0 0 -1
    outer loop
      vertex -20 10 40
      vertex -30 15 40
      vertex 30 15 40
    endloop
  endfacet
  facet normal 0 0 -1
    outer loop
      vertex -30 15 40
      vertex -20 10 40
      vertex -30 -15 40
    endloop
  endfacet
  facet normal -1 0 0
    outer loop
      vertex -30 -15 40
      vertex -30 15 60
      vertex -30 15 40
    endloop
  endfacet
  facet normal -1 -0 0
    outer loop
      vertex -30 15 60
      vertex -30 -15 40
      vertex -30 -15 60
    endloop
  endfacet
  facet normal 0 1 -0
    outer loop
      vertex 30 15 40
      vertex -30 15 60
      vertex 30 15 60
    endloop
  endfacet
  facet normal 0 1 0
    outer loop
      vertex -30 15 60
      vertex 30 15 40
      vertex -30 15 40
    endloop
  endfacet
  facet normal 0 -1 0
    outer loop
      vertex -30 -15 40
      vertex 30 -15 60
      vertex -30 -15 60
    endloop
  endfacet
  facet normal 0 -1 -0
    outer loop
      vertex 30 -15 60
      vertex -30 -15 40
      vertex 30 -15 40
    endloop
  endfacet
  facet normal 1 -0 0
    outer loop
      vertex 20 -10 40
      vertex 20 10 27.5
      vertex 20 10 40
    endloop
  endfacet
  facet normal 1 0 0
    outer loop
      vertex 20 10 27.5
      vertex 20 -10 40
      vertex 20 -10 27.5
    endloop
  endfacet
  facet normal 0 0 -1
    outer loop
      vertex -20 -10 27.5
      vertex 20 10 27.5
      vertex 20 -10 27.5
    endloop
  endfacet
  facet normal -0 0 -1
    outer loop
      vertex 20 10 27.5
      vertex -20 -10 27.5
      vertex -20 10 27.5
    endloop
  endfacet
  facet normal -1 0 0
    outer loop
      vertex -20 -10 27.5
      vertex -20 10 40
      vertex -20 10 27.5
    endloop
  endfacet
  facet normal -1 -0 0
    outer loop
      vertex -20 10 40
      vertex -20 -10 27.5
      vertex -20 -10 40
    endloop
  endfacet
  facet normal 0 1 -0
    outer loop
      vertex 20 10 27.5
      vertex -20 10 40
      vertex 20 10 40
    endloop
  endfacet
  facet normal 0 1 0
    outer loop
      vertex -20 10 40
      vertex 20 10 27.5
      vertex -20 10 27.5
    endloop
  endfacet
  facet normal 0 -1 0
    outer loop
      vertex -20 -10 27.5
      vertex 20 -10 40
      vertex -20 -10 40
    endloop
  endfacet
  facet normal 0 -1 -0
    outer loop
      vertex 20 -10 40
      vertex -20 -10 27.5
      vertex 20 -10 27.5
    endloop
  endfacet
  facet normal 1 -0 0
    outer loop
      vertex 15 -7.5 25
      vertex 15 7.5 15
      vertex 15 7.5 25
    endloop
  endfacet
  facet normal 1 0 0
    outer loop
      vertex 15 7.5 15
      vertex 15 -7.5 25
      vertex 15 -7.5 15
    endloop
  endfacet
  facet normal -0 0 1
    outer loop
      vertex -15 7.5 25
      vertex 15 -7.5 25
      vertex 15 7.5 25
    endloop
  endfacet
  facet normal 0 0 1
    outer loop
      vertex 15 -7.5 25
      vertex -15 7.5 25
      vertex -15 -7.5 25
    endloop
  endfacet
  facet normal 0 0 -1
    outer loop
      vertex 7.5 -7.5 15
      vertex 15 7.5 15
      vertex 15 -7.5 15
    endloop
  endfacet
  facet normal -0 0 -1
    outer loop
      vertex 15 7.5 15
      vertex 7.5 -7.5 15
      vertex 7.5 7.5 15
    endloop
  endfacet
  facet normal 0 0 -1
    outer loop
      vertex -15 -7.5 15
      vertex -7.5 7.5 15
      vertex -7.5 -7.5 15
    endloop
  endfacet
  facet normal -0 0 -1
    outer loop
      vertex -7.5 7.5 15
      vertex -15 -7.5 15
      vertex -15 7.5 15
    endloop
  endfacet
  facet normal -1 0 0
    outer loop
      vertex -15 -7.5 15
      vertex -15 7.5 25
      vertex -15 7.5 15
    endloop
  endfacet
  facet normal -1 -0 0
    outer loop
      vertex -15 7.5 25
      vertex -15 -7.5 15
      vertex -15 -7.5 25
    endloop
  endfacet
  facet normal 0 1 -0
    outer loop
      vertex 7.5 7.5 0
      vertex -7.5 7.5 15
      vertex 7.5 7.5 15
    endloop
  endfacet
  facet normal 0 1 0
    outer loop
      vertex -7.5 7.5 15
      vertex 7.5 7.5 0
      vertex -7.5 7.5 0
    endloop
  endfacet
  facet normal 0 1 0
    outer loop
      vertex 7.5 7.5 15
      vertex 15 7.5 25
      vertex 15 7.5 15
    endloop
  endfacet
  facet normal 0 1 0
    outer loop
      vertex 15 7.5 25
      vertex 7.5 7.5 15
      vertex -15 7.5 25
    endloop
  endfacet
  facet normal 0 1 -0
    outer loop
      vertex -7.5 7.5 15
      vertex -15 7.5 25
      vertex 7.5 7.5 15
    endloop
  endfacet
  facet normal 0 1 0
    outer loop
      vertex -15 7.5 25
      vertex -7.5 7.5 15
      vertex -15 7.5 15
    endloop
  endfacet
  facet normal 0 -1 0
    outer loop
      vertex -7.5 -7.5 0
      vertex 7.5 -7.5 15
      vertex -7.5 -7.5 15
    endloop
  endfacet
  facet normal 0 -1 -0
    outer loop
      vertex 7.5 -7.5 15
      vertex -7.5 -7.5 0
      vertex 7.5 -7.5 0
    endloop
  endfacet
  facet normal 0 -1 0
    outer loop
      vertex -7.5 -7.5 15
      vertex -15 -7.5 25
      vertex -15 -7.5 15
    endloop
  endfacet
  facet normal 0 -1 0
    outer loop
      vertex -15 -7.5 25
      vertex -7.5 -7.5 15
      vertex 15 -7.5 25
    endloop
  endfacet
  facet normal 0 -1 0
    outer loop
      vertex 7.5 -7.5 15
      vertex 15 -7.5 25
      vertex -7.5 -7.5 15
    endloop
  endfacet
  facet normal 0 -1 -0
    outer loop
      vertex 15 -7.5 25
      vertex 7.5 -7.5 15
      vertex 15 -7.5 15
    endloop
  endfacet
  facet normal 1 -0 0
    outer loop
      vertex 7.5 -7.5 15
      vertex 7.5 7.5 0
      vertex 7.5 7.5 15
    endloop
  endfacet
  facet normal 1 0 0
    outer loop
      vertex 7.5 7.5 0
      vertex 7.5 -7.5 15
      vertex 7.5 -7.5 0
    endloop
  endfacet
  facet normal 0 0 -1
    outer loop
      vertex -7.5 -7.5 0
      vertex 7.5 7.5 0
      vertex 7.5 -7.5 0
    endloop
  endfacet
  facet normal -0 0 -1
    outer loop
      vertex 7.5 7.5 0
      vertex -7.5 -7.5 0
      vertex -7.5 7.5 0
    endloop
  endfacet
  facet normal -1 0 0
    outer loop
      vertex -7.5 -7.5 0
      vertex -7.5 7.5 15
      vertex -7.5 7.5 0
    endloop
  endfacet
  facet normal -1 -0 0
    outer loop
      vertex -7.5 7.5 15
      vertex -7.5 -7.5 0
      vertex -7.5 -7.5 15
    endloop
  endfacet
endsolid OpenSCAD_Model
