solid OpenSCAD_Model
  facet normal 1 -0 0
    outer loop
      vertex 50 -25 2.5
      vertex 50 25 -2.5
      vertex 50 25 2.5
    endloop
  endfacet
  facet normal 1 0 0
    outer loop
      vertex 50 25 -2.5
      vertex 50 -25 2.5
      vertex 50 -25 -2.5
    endloop
  endfacet
  facet normal 0 0 1
    outer loop
      vertex 10 5 2.5
      vertex 50 25 2.5
      vertex 10 15 2.5
    endloop
  endfacet
  facet normal 0 0 1
    outer loop
      vertex 50 25 2.5
      vertex -10 15 2.5
      vertex 10 15 2.5
    endloop
  endfacet
  facet normal 0 0 1
    outer loop
      vertex -10 15 2.5
      vertex -50 25 2.5
      vertex -10 5 2.5
    endloop
  endfacet
  facet normal -0 0 1
    outer loop
      vertex -50 25 2.5
      vertex -10 15 2.5
      vertex 50 25 2.5
    endloop
  endfacet
  facet normal 0 0 1
    outer loop
      vertex 50 25 2.5
      vertex 10 5 2.5
      vertex 50 -25 2.5
    endloop
  endfacet
  facet normal -0 0 1
    outer loop
      vertex -10 5 2.5
      vertex 50 -25 2.5
      vertex 10 5 2.5
    endloop
  endfacet
  facet normal 0 0 1
    outer loop
      vertex -50 -25 2.5
      vertex -10 5 2.5
      vertex -50 25 2.5
    endloop
  endfacet
  facet normal 0 0 1
    outer loop
      vertex -10 5 2.5
      vertex -50 -25 2.5
      vertex 50 -25 2.5
    endloop
  endfacet
  facet normal 0 0 -1
    outer loop
      vertex 50 -25 -2.5
      vertex 10 5 -2.5
      vertex 50 25 -2.5
    endloop
  endfacet
  facet normal 0 0 -1
    outer loop
      vertex 50 -25 -2.5
      vertex -10 5 -2.5
      vertex 10 5 -2.5
    endloop
  endfacet
  facet normal 0 0 -1
    outer loop
      vertex -50 25 -2.5
      vertex -10 5 -2.5
      vertex -50 -25 -2.5
    endloop
  endfacet
  facet normal 0 0 -1
    outer loop
      vertex -50 -25 -2.5
      vertex -10 5 -2.5
      vertex 50 -25 -2.5
    endloop
  endfacet
  facet normal 0 0 -1
    outer loop
      vertex 10 15 -2.5
      vertex 50 25 -2.5
      vertex 10 5 -2.5
    endloop
  endfacet
  facet normal 0 0 -1
    outer loop
      vertex -10 15 -2.5
      vertex 50 25 -2.5
      vertex 10 15 -2.5
    endloop
  endfacet
  facet normal 0 0 -1
    outer loop
      vertex -10 15 -2.5
      vertex -50 25 -2.5
      vertex 50 25 -2.5
    endloop
  endfacet
  facet normal 0 0 -1
    outer loop
      vertex -10 5 -2.5
      vertex -50 25 -2.5
      vertex -10 15 -2.5
    endloop
  endfacet
  facet normal -1 0 0
    outer loop
      vertex -50 -25 -2.5
      vertex -50 25 2.5
      vertex -50 25 -2.5
    endloop
  endfacet
  facet normal -1 -0 0
    outer loop
      vertex -50 25 2.5
      vertex -50 -25 -2.5
      vertex -50 -25 2.5
    endloop
  endfacet
  facet normal 0 1 -0
    outer loop
      vertex 50 25 -2.5
      vertex -50 25 2.5
      vertex 50 25 2.5
    endloop
  endfacet
  facet normal 0 1 0
    outer loop
      vertex -50 25 2.5
      vertex 50 25 -2.5
      vertex -50 25 -2.5
    endloop
  endfacet
  facet normal 0 -1 0
    outer loop
      vertex -50 -25 -2.5
      vertex 50 -25 2.5
      vertex -50 -25 2.5
    endloop
  endfacet
  facet normal 0 -1 -0
    outer loop
      vertex 50 -25 2.5
      vertex -50 -25 -2.5
      vertex 50 -25 -2.5
    endloop
  endfacet
  facet normal -1 0 0
    outer loop
      vertex 10 5 -2.5
      vertex 10 15 2.5
      vertex 10 15 -2.5
    endloop
  endfacet
  facet normal -1 -0 0
    outer loop
      vertex 10 15 2.5
      vertex 10 5 -2.5
      vertex 10 5 2.5
    endloop
  endfacet
  facet normal 1 -0 0
    outer loop
      vertex -10 5 2.5
      vertex -10 15 -2.5
      vertex -10 15 2.5
    endloop
  endfacet
  facet normal 1 0 0
    outer loop
      vertex -10 15 -2.5
      vertex -10 5 2.5
      vertex -10 5 -2.5
    endloop
  endfacet
  facet normal 0 -1 0
    outer loop
      vertex -10 15 -2.5
      vertex 10 15 2.5
      vertex -10 15 2.5
    endloop
  endfacet
  facet normal 0 -1 -0
    outer loop
      vertex 10 15 2.5
      vertex -10 15 -2.5
      vertex 10 15 -2.5
    endloop
  endfacet
  facet normal 0 1 -0
    outer loop
      vertex 10 5 -2.5
      vertex -10 5 2.5
      vertex 10 5 2.5
    endloop
  endfacet
  facet normal 0 1 0
    outer loop
      vertex -10 5 2.5
      vertex 10 5 -2.5
      vertex -10 5 -2.5
    endloop
  endfacet
  facet normal 1 -0 0
    outer loop
      vertex 50 -25 -12.5
      vertex 50 25 -17.5
      vertex 50 25 -12.5
    endloop
  endfacet
  facet normal 1 0 0
    outer loop
      vertex 50 25 -17.5
      vertex 50 -25 -12.5
      vertex 50 -25 -17.5
    endloop
  endfacet
  facet normal 0 0 1
    outer loop
      vertex 10 5 -12.5
      vertex 50 25 -12.5
      vertex 10 15 -12.5
    endloop
  endfacet
  facet normal 0 0 1
    outer loop
      vertex 50 25 -12.5
      vertex -10 15 -12.5
      vertex 10 15 -12.5
    endloop
  endfacet
  facet normal 0 0 1
    outer loop
      vertex -10 15 -12.5
      vertex -50 25 -12.5
      vertex -10 5 -12.5
    endloop
  endfacet
  facet normal -0 0 1
    outer loop
      vertex -50 25 -12.5
      vertex -10 15 -12.5
      vertex 50 25 -12.5
    endloop
  endfacet
  facet normal 0 0 1
    outer loop
      vertex 50 25 -12.5
      vertex 10 5 -12.5
      vertex 50 -25 -12.5
    endloop
  endfacet
  facet normal -0 0 1
    outer loop
      vertex -10 5 -12.5
      vertex 50 -25 -12.5
      vertex 10 5 -12.5
    endloop
  endfacet
  facet normal 0 0 1
    outer loop
      vertex -50 -25 -12.5
      vertex -10 5 -12.5
      vertex -50 25 -12.5
    endloop
  endfacet
  facet normal 0 0 1
    outer loop
      vertex -10 5 -12.5
      vertex -50 -25 -12.5
      vertex 50 -25 -12.5
    endloop
  endfacet
  facet normal 0 0 -1
    outer loop
      vertex 50 -25 -17.5
      vertex 10 5 -17.5
      vertex 50 25 -17.5
    endloop
  endfacet
  facet normal 0 0 -1
    outer loop
      vertex 50 -25 -17.5
      vertex -10 5 -17.5
      vertex 10 5 -17.5
    endloop
  endfacet
  facet normal 0 0 -1
    outer loop
      vertex -50 25 -17.5
      vertex -10 5 -17.5
      vertex -50 -25 -17.5
    endloop
  endfacet
  facet normal 0 0 -1
    outer loop
      vertex -50 -25 -17.5
      vertex -10 5 -17.5
      vertex 50 -25 -17.5
    endloop
  endfacet
  facet normal 0 0 -1
    outer loop
      vertex 10 15 -17.5
      vertex 50 25 -17.5
      vertex 10 5 -17.5
    endloop
  endfacet
  facet normal 0 0 -1
    outer loop
      vertex -10 15 -17.5
      vertex 50 25 -17.5
      vertex 10 15 -17.5
    endloop
  endfacet
  facet normal 0 0 -1
    outer loop
      vertex -10 15 -17.5
      vertex -50 25 -17.5
      vertex 50 25 -17.5
    endloop
  endfacet
  facet normal 0 0 -1
    outer loop
      vertex -10 5 -17.5
      vertex -50 25 -17.5
      vertex -10 15 -17.5
    endloop
  endfacet
  facet normal -1 0 0
    outer loop
      vertex -50 -25 -17.5
      vertex -50 25 -12.5
      vertex -50 25 -17.5
    endloop
  endfacet
  facet normal -1 -0 0
    outer loop
      vertex -50 25 -12.5
      vertex -50 -25 -17.5
      vertex -50 -25 -12.5
    endloop
  endfacet
  facet normal 0 1 -0
    outer loop
      vertex 50 25 -17.5
      vertex -50 25 -12.5
      vertex 50 25 -12.5
    endloop
  endfacet
  facet normal 0 1 0
    outer loop
      vertex -50 25 -12.5
      vertex 50 25 -17.5
      vertex -50 25 -17.5
    endloop
  endfacet
  facet normal 0 -1 0
    outer loop
      vertex -50 -25 -17.5
      vertex 50 -25 -12.5
      vertex -50 -25 -12.5
    endloop
  endfacet
  facet normal 0 -1 -0
    outer loop
      vertex 50 -25 -12.5
      vertex -50 -25 -17.5
      vertex 50 -25 -17.5
    endloop
  endfacet
  facet normal -1 0 0
    outer loop
      vertex 10 5 -17.5
      vertex 10 15 -12.5
      vertex 10 15 -17.5
    endloop
  endfacet
  facet normal -1 -0 0
    outer loop
      vertex 10 15 -12.5
      vertex 10 5 -17.5
      vertex 10 5 -12.5
    endloop
  endfacet
  facet normal 1 -0 0
    outer loop
      vertex -10 5 -12.5
      vertex -10 15 -17.5
      vertex -10 15 -12.5
    endloop
  endfacet
  facet normal 1 0 0
    outer loop
      vertex -10 15 -17.5
      vertex -10 5 -12.5
      vertex -10 5 -17.5
    endloop
  endfacet
  facet normal 0 -1 0
    outer loop
      vertex -10 15 -17.5
      vertex 10 15 -12.5
      vertex -10 15 -12.5
    endloop
  endfacet
  facet normal 0 -1 -0
    outer loop
      vertex 10 15 -12.5
      vertex -10 15 -17.5
      vertex 10 15 -17.5
    endloop
  endfacet
  facet normal 0 1 -0
    outer loop
      vertex 10 5 -17.5
      vertex -10 5 -12.5
      vertex 10 5 -12.5
    endloop
  endfacet
  facet normal 0 1 0
    outer loop
      vertex -10 5 -12.5
      vertex 10 5 -17.5
      vertex -10 5 -17.5
    endloop
  endfacet
  facet normal 1 -0 0
    outer loop
      vertex 50 -25 -27.5
      vertex 50 25 -32.5
      vertex 50 25 -27.5
    endloop
  endfacet
  facet normal 1 0 0
    outer loop
      vertex 50 25 -32.5
      vertex 50 -25 -27.5
      vertex 50 -25 -32.5
    endloop
  endfacet
  facet normal 0 0 1
    outer loop
      vertex 10 5 -27.5
      vertex 50 25 -27.5
      vertex 10 15 -27.5
    endloop
  endfacet
  facet normal 0 0 1
    outer loop
      vertex 50 25 -27.5
      vertex -10 15 -27.5
      vertex 10 15 -27.5
    endloop
  endfacet
  facet normal 0 0 1
    outer loop
      vertex -10 15 -27.5
      vertex -50 25 -27.5
      vertex -10 5 -27.5
    endloop
  endfacet
  facet normal -0 0 1
    outer loop
      vertex -50 25 -27.5
      vertex -10 15 -27.5
      vertex 50 25 -27.5
    endloop
  endfacet
  facet normal 0 0 1
    outer loop
      vertex 50 25 -27.5
      vertex 10 5 -27.5
      vertex 50 -25 -27.5
    endloop
  endfacet
  facet normal -0 0 1
    outer loop
      vertex -10 5 -27.5
      vertex 50 -25 -27.5
      vertex 10 5 -27.5
    endloop
  endfacet
  facet normal 0 0 1
    outer loop
      vertex -50 -25 -27.5
      vertex -10 5 -27.5
      vertex -50 25 -27.5
    endloop
  endfacet
  facet normal 0 0 1
    outer loop
      vertex -10 5 -27.5
      vertex -50 -25 -27.5
      vertex 50 -25 -27.5
    endloop
  endfacet
  facet normal 0 0 -1
    outer loop
      vertex 50 -25 -32.5
      vertex 10 5 -32.5
      vertex 50 25 -32.5
    endloop
  endfacet
  facet normal 0 0 -1
    outer loop
      vertex 50 -25 -32.5
      vertex -10 5 -32.5
      vertex 10 5 -32.5
    endloop
  endfacet
  facet normal 0 0 -1
    outer loop
      vertex -50 25 -32.5
      vertex -10 5 -32.5
      vertex -50 -25 -32.5
    endloop
  endfacet
  facet normal 0 0 -1
    outer loop
      vertex -50 -25 -32.5
      vertex -10 5 -32.5
      vertex 50 -25 -32.5
    endloop
  endfacet
  facet normal 0 0 -1
    outer loop
      vertex 10 15 -32.5
      vertex 50 25 -32.5
      vertex 10 5 -32.5
    endloop
  endfacet
  facet normal 0 0 -1
    outer loop
      vertex -10 15 -32.5
      vertex 50 25 -32.5
      vertex 10 15 -32.5
    endloop
  endfacet
  facet normal 0 0 -1
    outer loop
      vertex -10 15 -32.5
      vertex -50 25 -32.5
      vertex 50 25 -32.5
    endloop
  endfacet
  facet normal 0 0 -1
    outer loop
      vertex -10 5 -32.5
      vertex -50 25 -32.5
      vertex -10 15 -32.5
    endloop
  endfacet
  facet normal -1 0 0
    outer loop
      vertex -50 -25 -32.5
      vertex -50 25 -27.5
      vertex -50 25 -32.5
    endloop
  endfacet
  facet normal -1 -0 0
    outer loop
      vertex -50 25 -27.5
      vertex -50 -25 -32.5
      vertex -50 -25 -27.5
    endloop
  endfacet
  facet normal 0 1 -0
    outer loop
      vertex 50 25 -32.5
      vertex -50 25 -27.5
      vertex 50 25 -27.5
    endloop
  endfacet
  facet normal 0 1 0
    outer loop
      vertex -50 25 -27.5
      vertex 50 25 -32.5
      vertex -50 25 -32.5
    endloop
  endfacet
  facet normal 0 -1 0
    outer loop
      vertex -50 -25 -32.5
      vertex 50 -25 -27.5
      vertex -50 -25 -27.5
    endloop
  endfacet
  facet normal 0 -1 -0
    outer loop
      vertex 50 -25 -27.5
      vertex -50 -25 -32.5
      vertex 50 -25 -32.5
    endloop
  endfacet
  facet normal -1 0 0
    outer loop
      vertex 10 5 -32.5
      vertex 10 15 -27.5
      vertex 10 15 -32.5
    endloop
  endfacet
  facet normal -1 -0 0
    outer loop
      vertex 10 15 -27.5
      vertex 10 5 -32.5
      vertex 10 5 -27.5
    endloop
  endfacet
  facet normal 1 -0 0
    outer loop
      vertex -10 5 -27.5
      vertex -10 15 -32.5
      vertex -10 15 -27.5
    endloop
  endfacet
  facet normal 1 0 0
    outer loop
      vertex -10 15 -32.5
      vertex -10 5 -27.5
      vertex -10 5 -32.5
    endloop
  endfacet
  facet normal 0 -1 0
    outer loop
      vertex -10 15 -32.5
      vertex 10 15 -27.5
      vertex -10 15 -27.5
    endloop
  endfacet
  facet normal 0 -1 -0
    outer loop
      vertex 10 15 -27.5
      vertex -10 15 -32.5
      vertex 10 15 -32.5
    endloop
  endfacet
  facet normal 0 1 -0
    outer loop
      vertex 10 5 -32.5
      vertex -10 5 -27.5
      vertex 10 5 -27.5
    endloop
  endfacet
  facet normal 0 1 0
    outer loop
      vertex -10 5 -27.5
      vertex 10 5 -32.5
      vertex -10 5 -32.5
    endloop
  endfacet
  facet normal 1 -0 0
    outer loop
      vertex 50 -25 -42.5
      vertex 50 25 -47.5
      vertex 50 25 -42.5
    endloop
  endfacet
  facet normal 1 0 0
    outer loop
      vertex 50 25 -47.5
      vertex 50 -25 -42.5
      vertex 50 -25 -47.5
    endloop
  endfacet
  facet normal 0 0 1
    outer loop
      vertex 10 5 -42.5
      vertex 50 25 -42.5
      vertex 10 15 -42.5
    endloop
  endfacet
  facet normal 0 0 1
    outer loop
      vertex 50 25 -42.5
      vertex -10 15 -42.5
      vertex 10 15 -42.5
    endloop
  endfacet
  facet normal 0 0 1
    outer loop
      vertex -10 15 -42.5
      vertex -50 25 -42.5
      vertex -10 5 -42.5
    endloop
  endfacet
  facet normal -0 0 1
    outer loop
      vertex -50 25 -42.5
      vertex -10 15 -42.5
      vertex 50 25 -42.5
    endloop
  endfacet
  facet normal 0 0 1
    outer loop
      vertex 50 25 -42.5
      vertex 10 5 -42.5
      vertex 50 -25 -42.5
    endloop
  endfacet
  facet normal -0 0 1
    outer loop
      vertex -10 5 -42.5
      vertex 50 -25 -42.5
      vertex 10 5 -42.5
    endloop
  endfacet
  facet normal 0 0 1
    outer loop
      vertex -50 -25 -42.5
      vertex -10 5 -42.5
      vertex -50 25 -42.5
    endloop
  endfacet
  facet normal 0 0 1
    outer loop
      vertex -10 5 -42.5
      vertex -50 -25 -42.5
      vertex 50 -25 -42.5
    endloop
  endfacet
  facet normal 0 0 -1
    outer loop
      vertex 50 -25 -47.5
      vertex 10 5 -47.5
      vertex 50 25 -47.5
    endloop
  endfacet
  facet normal 0 0 -1
    outer loop
      vertex 50 -25 -47.5
      vertex -10 5 -47.5
      vertex 10 5 -47.5
    endloop
  endfacet
  facet normal 0 0 -1
    outer loop
      vertex -50 25 -47.5
      vertex -10 5 -47.5
      vertex -50 -25 -47.5
    endloop
  endfacet
  facet normal 0 0 -1
    outer loop
      vertex -50 -25 -47.5
      vertex -10 5 -47.5
      vertex 50 -25 -47.5
    endloop
  endfacet
  facet normal 0 0 -1
    outer loop
      vertex 10 15 -47.5
      vertex 50 25 -47.5
      vertex 10 5 -47.5
    endloop
  endfacet
  facet normal 0 0 -1
    outer loop
      vertex -10 15 -47.5
      vertex 50 25 -47.5
      vertex 10 15 -47.5
    endloop
  endfacet
  facet normal 0 0 -1
    outer loop
      vertex -10 15 -47.5
      vertex -50 25 -47.5
      vertex 50 25 -47.5
    endloop
  endfacet
  facet normal 0 0 -1
    outer loop
      vertex -10 5 -47.5
      vertex -50 25 -47.5
      vertex -10 15 -47.5
    endloop
  endfacet
  facet normal -1 0 0
    outer loop
      vertex -50 -25 -47.5
      vertex -50 25 -42.5
      vertex -50 25 -47.5
    endloop
  endfacet
  facet normal -1 -0 0
    outer loop
      vertex -50 25 -42.5
      vertex -50 -25 -47.5
      vertex -50 -25 -42.5
    endloop
  endfacet
  facet normal 0 1 -0
    outer loop
      vertex 50 25 -47.5
      vertex -50 25 -42.5
      vertex 50 25 -42.5
    endloop
  endfacet
  facet normal 0 1 0
    outer loop
      vertex -50 25 -42.5
      vertex 50 25 -47.5
      vertex -50 25 -47.5
    endloop
  endfacet
  facet normal 0 -1 0
    outer loop
      vertex -50 -25 -47.5
      vertex 50 -25 -42.5
      vertex -50 -25 -42.5
    endloop
  endfacet
  facet normal 0 -1 -0
    outer loop
      vertex 50 -25 -42.5
      vertex -50 -25 -47.5
      vertex 50 -25 -47.5
    endloop
  endfacet
  facet normal -1 0 0
    outer loop
      vertex 10 5 -47.5
      vertex 10 15 -42.5
      vertex 10 15 -47.5
    endloop
  endfacet
  facet normal -1 -0 0
    outer loop
      vertex 10 15 -42.5
      vertex 10 5 -47.5
      vertex 10 5 -42.5
    endloop
  endfacet
  facet normal 1 -0 0
    outer loop
      vertex -10 5 -42.5
      vertex -10 15 -47.5
      vertex -10 15 -42.5
    endloop
  endfacet
  facet normal 1 0 0
    outer loop
      vertex -10 15 -47.5
      vertex -10 5 -42.5
      vertex -10 5 -47.5
    endloop
  endfacet
  facet normal 0 -1 0
    outer loop
      vertex -10 15 -47.5
      vertex 10 15 -42.5
      vertex -10 15 -42.5
    endloop
  endfacet
  facet normal 0 -1 -0
    outer loop
      vertex 10 15 -42.5
      vertex -10 15 -47.5
      vertex 10 15 -47.5
    endloop
  endfacet
  facet normal 0 1 -0
    outer loop
      vertex 10 5 -47.5
      vertex -10 5 -42.5
      vertex 10 5 -42.5
    endloop
  endfacet
  facet normal 0 1 0
    outer loop
      vertex -10 5 -42.5
      vertex 10 5 -47.5
      vertex -10 5 -47.5
    endloop
  endfacet
  facet normal 1 -0 0
    outer loop
      vertex 50 -25 -57.5
      vertex 50 25 -62.5
      vertex 50 25 -57.5
    endloop
  endfacet
  facet normal 1 0 0
    outer loop
      vertex 50 25 -62.5
      vertex 50 -25 -57.5
      vertex 50 -25 -62.5
    endloop
  endfacet
  facet normal 0 0 1
    outer loop
      vertex 10 5 -57.5
      vertex 50 25 -57.5
      vertex 10 15 -57.5
    endloop
  endfacet
  facet normal 0 0 1
    outer loop
      vertex 50 25 -57.5
      vertex -10 15 -57.5
      vertex 10 15 -57.5
    endloop
  endfacet
  facet normal 0 0 1
    outer loop
      vertex -10 15 -57.5
      vertex -50 25 -57.5
      vertex -10 5 -57.5
    endloop
  endfacet
  facet normal -0 0 1
    outer loop
      vertex -50 25 -57.5
      vertex -10 15 -57.5
      vertex 50 25 -57.5
    endloop
  endfacet
  facet normal 0 0 1
    outer loop
      vertex 50 25 -57.5
      vertex 10 5 -57.5
      vertex 50 -25 -57.5
    endloop
  endfacet
  facet normal -0 0 1
    outer loop
      vertex -10 5 -57.5
      vertex 50 -25 -57.5
      vertex 10 5 -57.5
    endloop
  endfacet
  facet normal 0 0 1
    outer loop
      vertex -50 -25 -57.5
      vertex -10 5 -57.5
      vertex -50 25 -57.5
    endloop
  endfacet
  facet normal 0 0 1
    outer loop
      vertex -10 5 -57.5
      vertex -50 -25 -57.5
      vertex 50 -25 -57.5
    endloop
  endfacet
  facet normal 0 0 -1
    outer loop
      vertex 50 -25 -62.5
      vertex 10 5 -62.5
      vertex 50 25 -62.5
    endloop
  endfacet
  facet normal 0 0 -1
    outer loop
      vertex 50 -25 -62.5
      vertex -10 5 -62.5
      vertex 10 5 -62.5
    endloop
  endfacet
  facet normal 0 0 -1
    outer loop
      vertex -50 25 -62.5
      vertex -10 5 -62.5
      vertex -50 -25 -62.5
    endloop
  endfacet
  facet normal 0 0 -1
    outer loop
      vertex -50 -25 -62.5
      vertex -10 5 -62.5
      vertex 50 -25 -62.5
    endloop
  endfacet
  facet normal 0 0 -1
    outer loop
      vertex 10 15 -62.5
      vertex 50 25 -62.5
      vertex 10 5 -62.5
    endloop
  endfacet
  facet normal 0 0 -1
    outer loop
      vertex -10 15 -62.5
      vertex 50 25 -62.5
      vertex 10 15 -62.5
    endloop
  endfacet
  facet normal 0 0 -1
    outer loop
      vertex -10 15 -62.5
      vertex -50 25 -62.5
      vertex 50 25 -62.5
    endloop
  endfacet
  facet normal 0 0 -1
    outer loop
      vertex -10 5 -62.5
      vertex -50 25 -62.5
      vertex -10 15 -62.5
    endloop
  endfacet
  facet normal -1 0 0
    outer loop
      vertex -50 -25 -62.5
      vertex -50 25 -57.5
      vertex -50 25 -62.5
    endloop
  endfacet
  facet normal -1 -0 0
    outer loop
      vertex -50 25 -57.5
      vertex -50 -25 -62.5
      vertex -50 -25 -57.5
    endloop
  endfacet
  facet normal 0 1 -0
    outer loop
      vertex 50 25 -62.5
      vertex -50 25 -57.5
      vertex 50 25 -57.5
    endloop
  endfacet
  facet normal 0 1 0
    outer loop
      vertex -50 25 -57.5
      vertex 50 25 -62.5
      vertex -50 25 -62.5
    endloop
  endfacet
  facet normal 0 -1 0
    outer loop
      vertex -50 -25 -62.5
      vertex 50 -25 -57.5
      vertex -50 -25 -57.5
    endloop
  endfacet
  facet normal 0 -1 -0
    outer loop
      vertex 50 -25 -57.5
      vertex -50 -25 -62.5
      vertex 50 -25 -62.5
    endloop
  endfacet
  facet normal -1 0 0
    outer loop
      vertex 10 5 -62.5
      vertex 10 15 -57.5
      vertex 10 15 -62.5
    endloop
  endfacet
  facet normal -1 -0 0
    outer loop
      vertex 10 15 -57.5
      vertex 10 5 -62.5
      vertex 10 5 -57.5
    endloop
  endfacet
  facet normal 1 -0 0
    outer loop
      vertex -10 5 -57.5
      vertex -10 15 -62.5
      vertex -10 15 -57.5
    endloop
  endfacet
  facet normal 1 0 0
    outer loop
      vertex -10 15 -62.5
      vertex -10 5 -57.5
      vertex -10 5 -62.5
    endloop
  endfacet
  facet normal 0 -1 0
    outer loop
      vertex -10 15 -62.5
      vertex 10 15 -57.5
      vertex -10 15 -57.5
    endloop
  endfacet
  facet normal 0 -1 -0
    outer loop
      vertex 10 15 -57.5
      vertex -10 15 -62.5
      vertex 10 15 -62.5
    endloop
  endfacet
  facet normal 0 1 -0
    outer loop
      vertex 10 5 -62.5
      vertex -10 5 -57.5
      vertex 10 5 -57.5
    endloop
  endfacet
  facet normal 0 1 0
    outer loop
      vertex -10 5 -57.5
      vertex 10 5 -62.5
      vertex -10 5 -62.5
    endloop
  endfacet
  facet normal 1 -0 0
    outer loop
      vertex 50 -25 -72.5
      vertex 50 25 -77.5
      vertex 50 25 -72.5
    endloop
  endfacet
  facet normal 1 0 0
    outer loop
      vertex 50 25 -77.5
      vertex 50 -25 -72.5
      vertex 50 -25 -77.5
    endloop
  endfacet
  facet normal 0 0 1
    outer loop
      vertex 10 5 -72.5
      vertex 50 25 -72.5
      vertex 10 15 -72.5
    endloop
  endfacet
  facet normal 0 0 1
    outer loop
      vertex 50 25 -72.5
      vertex -10 15 -72.5
      vertex 10 15 -72.5
    endloop
  endfacet
  facet normal 0 0 1
    outer loop
      vertex -10 15 -72.5
      vertex -50 25 -72.5
      vertex -10 5 -72.5
    endloop
  endfacet
  facet normal -0 0 1
    outer loop
      vertex -50 25 -72.5
      vertex -10 15 -72.5
      vertex 50 25 -72.5
    endloop
  endfacet
  facet normal 0 0 1
    outer loop
      vertex 50 25 -72.5
      vertex 10 5 -72.5
      vertex 50 -25 -72.5
    endloop
  endfacet
  facet normal -0 0 1
    outer loop
      vertex -10 5 -72.5
      vertex 50 -25 -72.5
      vertex 10 5 -72.5
    endloop
  endfacet
  facet normal 0 0 1
    outer loop
      vertex -50 -25 -72.5
      vertex -10 5 -72.5
      vertex -50 25 -72.5
    endloop
  endfacet
  facet normal 0 0 1
    outer loop
      vertex -10 5 -72.5
      vertex -50 -25 -72.5
      vertex 50 -25 -72.5
    endloop
  endfacet
  facet normal 0 0 -1
    outer loop
      vertex 50 -25 -77.5
      vertex 10 5 -77.5
      vertex 50 25 -77.5
    endloop
  endfacet
  facet normal 0 0 -1
    outer loop
      vertex 50 -25 -77.5
      vertex -10 5 -77.5
      vertex 10 5 -77.5
    endloop
  endfacet
  facet normal 0 0 -1
    outer loop
      vertex -50 25 -77.5
      vertex -10 5 -77.5
      vertex -50 -25 -77.5
    endloop
  endfacet
  facet normal 0 0 -1
    outer loop
      vertex -50 -25 -77.5
      vertex -10 5 -77.5
      vertex 50 -25 -77.5
    endloop
  endfacet
  facet normal 0 0 -1
    outer loop
      vertex 10 15 -77.5
      vertex 50 25 -77.5
      vertex 10 5 -77.5
    endloop
  endfacet
  facet normal 0 0 -1
    outer loop
      vertex -10 15 -77.5
      vertex 50 25 -77.5
      vertex 10 15 -77.5
    endloop
  endfacet
  facet normal 0 0 -1
    outer loop
      vertex -10 15 -77.5
      vertex -50 25 -77.5
      vertex 50 25 -77.5
    endloop
  endfacet
  facet normal 0 0 -1
    outer loop
      vertex -10 5 -77.5
      vertex -50 25 -77.5
      vertex -10 15 -77.5
    endloop
  endfacet
  facet normal -1 0 0
    outer loop
      vertex -50 -25 -77.5
      vertex -50 25 -72.5
      vertex -50 25 -77.5
    endloop
  endfacet
  facet normal -1 -0 0
    outer loop
      vertex -50 25 -72.5
      vertex -50 -25 -77.5
      vertex -50 -25 -72.5
    endloop
  endfacet
  facet normal 0 1 -0
    outer loop
      vertex 50 25 -77.5
      vertex -50 25 -72.5
      vertex 50 25 -72.5
    endloop
  endfacet
  facet normal 0 1 0
    outer loop
      vertex -50 25 -72.5
      vertex 50 25 -77.5
      vertex -50 25 -77.5
    endloop
  endfacet
  facet normal 0 -1 0
    outer loop
      vertex -50 -25 -77.5
      vertex 50 -25 -72.5
      vertex -50 -25 -72.5
    endloop
  endfacet
  facet normal 0 -1 -0
    outer loop
      vertex 50 -25 -72.5
      vertex -50 -25 -77.5
      vertex 50 -25 -77.5
    endloop
  endfacet
  facet normal -1 0 0
    outer loop
      vertex 10 5 -77.5
      vertex 10 15 -72.5
      vertex 10 15 -77.5
    endloop
  endfacet
  facet normal -1 -0 0
    outer loop
      vertex 10 15 -72.5
      vertex 10 5 -77.5
      vertex 10 5 -72.5
    endloop
  endfacet
  facet normal 1 -0 0
    outer loop
      vertex -10 5 -72.5
      vertex -10 15 -77.5
      vertex -10 15 -72.5
    endloop
  endfacet
  facet normal 1 0 0
    outer loop
      vertex -10 15 -77.5
      vertex -10 5 -72.5
      vertex -10 5 -77.5
    endloop
  endfacet
  facet normal 0 -1 0
    outer loop
      vertex -10 15 -77.5
      vertex 10 15 -72.5
      vertex -10 15 -72.5
    endloop
  endfacet
  facet normal 0 -1 -0
    outer loop
      vertex 10 15 -72.5
      vertex -10 15 -77.5
      vertex 10 15 -77.5
    endloop
  endfacet
  facet normal 0 1 -0
    outer loop
      vertex 10 5 -77.5
      vertex -10 5 -72.5
      vertex 10 5 -72.5
    endloop
  endfacet
  facet normal 0 1 0
    outer loop
      vertex -10 5 -72.5
      vertex 10 5 -77.5
      vertex -10 5 -77.5
    endloop
  endfacet
endsolid OpenSCAD_Model
