solid OpenSCAD_Model
  facet normal 1 -0 0
    outer loop
      vertex 10 -10 -5
      vertex 10 10 -10
      vertex 10 10 -5
    endloop
  endfacet
  facet normal 1 0 0
    outer loop
      vertex 10 10 -10
      vertex 10 -10 -5
      vertex 10 -10 -10
    endloop
  endfacet
  facet normal -0 0 1
    outer loop
      vertex -10 10 -5
      vertex 10 -10 -5
      vertex 10 10 -5
    endloop
  endfacet
  facet normal 0 0 1
    outer loop
      vertex 10 -10 -5
      vertex -10 10 -5
      vertex -10 -10 -5
    endloop
  endfacet
  facet normal 0 0 -1
    outer loop
      vertex -10 -10 -10
      vertex 10 10 -10
      vertex 10 -10 -10
    endloop
  endfacet
  facet normal -0 0 -1
    outer loop
      vertex 10 10 -10
      vertex -10 -10 -10
      vertex -10 10 -10
    endloop
  endfacet
  facet normal -1 0 0
    outer loop
      vertex -10 -10 -10
      vertex -10 10 -5
      vertex -10 10 -10
    endloop
  endfacet
  facet normal -1 -0 0
    outer loop
      vertex -10 10 -5
      vertex -10 -10 -10
      vertex -10 -10 -5
    endloop
  endfacet
  facet normal 0 1 -0
    outer loop
      vertex 10 10 -10
      vertex -10 10 -5
      vertex 10 10 -5
    endloop
  endfacet
  facet normal 0 1 0
    outer loop
      vertex -10 10 -5
      vertex 10 10 -10
      vertex -10 10 -10
    endloop
  endfacet
  facet normal 0 -1 0
    outer loop
      vertex -10 -10 -10
      vertex 10 -10 -5
      vertex -10 -10 -5
    endloop
  endfacet
  facet normal 0 -1 -0
    outer loop
      vertex 10 -10 -5
      vertex -10 -10 -10
      vertex 10 -10 -10
    endloop
  endfacet
  facet normal 1 -0 0
    outer loop
      vertex 35 -25 10
      vertex 35 25 5
      vertex 35 25 10
    endloop
  endfacet
  facet normal 1 0 0
    outer loop
      vertex 35 25 5
      vertex 35 -25 10
      vertex 35 -25 5
    endloop
  endfacet
  facet normal -0 0 1
    outer loop
      vertex -35 25 10
      vertex 35 -25 10
      vertex 35 25 10
    endloop
  endfacet
  facet normal 0 0 1
    outer loop
      vertex 35 -25 10
      vertex -35 25 10
      vertex -35 -25 10
    endloop
  endfacet
  facet normal 0 0 -1
    outer loop
      vertex -35 -25 5
      vertex 35 25 5
      vertex 35 -25 5
    endloop
  endfacet
  facet normal -0 0 -1
    outer loop
      vertex 35 25 5
      vertex -35 -25 5
      vertex -35 25 5
    endloop
  endfacet
  facet normal -1 0 0
    outer loop
      vertex -35 -25 5
      vertex -35 25 10
      vertex -35 25 5
    endloop
  endfacet
  facet normal -1 -0 0
    outer loop
      vertex -35 25 10
      vertex -35 -25 5
      vertex -35 -25 10
    endloop
  endfacet
  facet normal 0 1 -0
    outer loop
      vertex 35 25 5
      vertex -35 25 10
      vertex 35 25 10
    endloop
  endfacet
  facet normal 0 1 0
    outer loop
      vertex -35 25 10
      vertex 35 25 5
      vertex -35 25 5
    endloop
  endfacet
  facet normal 0 -1 0
    outer loop
      vertex -35 -25 5
      vertex 35 -25 10
      vertex -35 -25 10
    endloop
  endfacet
  facet normal 0 -1 -0
    outer loop
      vertex 35 -25 10
      vertex -35 -25 5
      vertex 35 -25 5
    endloop
  endfacet
endsolid OpenSCAD_Model
