solid OpenSCAD_Model
  facet normal 1 -0 0
    outer loop
      vertex 5 -5 5
      vertex 5 5 -5
      vertex 5 5 5
    endloop
  endfacet
  facet normal 1 0 0
    outer loop
      vertex 5 5 -5
      vertex 5 -5 5
      vertex 5 -5 -5
    endloop
  endfacet
  facet normal -0 0 1
    outer loop
      vertex -5 5 5
      vertex 5 -5 5
      vertex 5 5 5
    endloop
  endfacet
  facet normal 0 0 1
    outer loop
      vertex 5 -5 5
      vertex -5 5 5
      vertex -5 -5 5
    endloop
  endfacet
  facet normal 0 0 -1
    outer loop
      vertex -5 -5 -5
      vertex 5 5 -5
      vertex 5 -5 -5
    endloop
  endfacet
  facet normal -0 0 -1
    outer loop
      vertex 5 5 -5
      vertex -5 -5 -5
      vertex -5 5 -5
    endloop
  endfacet
  facet normal -1 0 0
    outer loop
      vertex -5 -5 -5
      vertex -5 5 5
      vertex -5 5 -5
    endloop
  endfacet
  facet normal -1 -0 0
    outer loop
      vertex -5 5 5
      vertex -5 -5 -5
      vertex -5 -5 5
    endloop
  endfacet
  facet normal 0 1 -0
    outer loop
      vertex 5 5 -5
      vertex -5 5 5
      vertex 5 5 5
    endloop
  endfacet
  facet normal 0 1 0
    outer loop
      vertex -5 5 5
      vertex 5 5 -5
      vertex -5 5 -5
    endloop
  endfacet
  facet normal 0 -1 0
    outer loop
      vertex -5 -5 -5
      vertex 5 -5 5
      vertex -5 -5 5
    endloop
  endfacet
  facet normal 0 -1 -0
    outer loop
      vertex 5 -5 5
      vertex -5 -5 -5
      vertex 5 -5 -5
    endloop
  endfacet
  facet normal 1 -0 0
    outer loop
      vertex 5 -5 -10
      vertex 5 5 -20
      vertex 5 5 -10
    endloop
  endfacet
  facet normal 1 0 0
    outer loop
      vertex 5 5 -20
      vertex 5 -5 -10
      vertex 5 -5 -20
    endloop
  endfacet
  facet normal -0 0 1
    outer loop
      vertex -5 5 -10
      vertex 5 -5 -10
      vertex 5 5 -10
    endloop
  endfacet
  facet normal 0 0 1
    outer loop
      vertex 5 -5 -10
      vertex -5 5 -10
      vertex -5 -5 -10
    endloop
  endfacet
  facet normal 0 0 -1
    outer loop
      vertex -5 -5 -20
      vertex 5 5 -20
      vertex 5 -5 -20
    endloop
  endfacet
  facet normal -0 0 -1
    outer loop
      vertex 5 5 -20
      vertex -5 -5 -20
      vertex -5 5 -20
    endloop
  endfacet
  facet normal -1 0 0
    outer loop
      vertex -5 -5 -20
      vertex -5 5 -10
      vertex -5 5 -20
    endloop
  endfacet
  facet normal -1 -0 0
    outer loop
      vertex -5 5 -10
      vertex -5 -5 -20
      vertex -5 -5 -10
    endloop
  endfacet
  facet normal 0 1 -0
    outer loop
      vertex 5 5 -20
      vertex -5 5 -10
      vertex 5 5 -10
    endloop
  endfacet
  facet normal 0 1 0
    outer loop
      vertex -5 5 -10
      vertex 5 5 -20
      vertex -5 5 -20
    endloop
  endfacet
  facet normal 0 -1 0
    outer loop
      vertex -5 -5 -20
      vertex 5 -5 -10
      vertex -5 -5 -10
    endloop
  endfacet
  facet normal 0 -1 -0
    outer loop
      vertex 5 -5 -10
      vertex -5 -5 -20
      vertex 5 -5 -20
    endloop
  endfacet
  facet normal 1 -0 0
    outer loop
      vertex 5 -5 -25
      vertex 5 5 -35
      vertex 5 5 -25
    endloop
  endfacet
  facet normal 1 0 0
    outer loop
      vertex 5 5 -35
      vertex 5 -5 -25
      vertex 5 -5 -35
    endloop
  endfacet
  facet normal -0 0 1
    outer loop
      vertex -5 5 -25
      vertex 5 -5 -25
      vertex 5 5 -25
    endloop
  endfacet
  facet normal 0 0 1
    outer loop
      vertex 5 -5 -25
      vertex -5 5 -25
      vertex -5 -5 -25
    endloop
  endfacet
  facet normal 0 0 -1
    outer loop
      vertex -5 -5 -35
      vertex 5 5 -35
      vertex 5 -5 -35
    endloop
  endfacet
  facet normal -0 0 -1
    outer loop
      vertex 5 5 -35
      vertex -5 -5 -35
      vertex -5 5 -35
    endloop
  endfacet
  facet normal -1 0 0
    outer loop
      vertex -5 -5 -35
      vertex -5 5 -25
      vertex -5 5 -35
    endloop
  endfacet
  facet normal -1 -0 0
    outer loop
      vertex -5 5 -25
      vertex -5 -5 -35
      vertex -5 -5 -25
    endloop
  endfacet
  facet normal 0 1 -0
    outer loop
      vertex 5 5 -35
      vertex -5 5 -25
      vertex 5 5 -25
    endloop
  endfacet
  facet normal 0 1 0
    outer loop
      vertex -5 5 -25
      vertex 5 5 -35
      vertex -5 5 -35
    endloop
  endfacet
  facet normal 0 -1 0
    outer loop
      vertex -5 -5 -35
      vertex 5 -5 -25
      vertex -5 -5 -25
    endloop
  endfacet
  facet normal 0 -1 -0
    outer loop
      vertex 5 -5 -25
      vertex -5 -5 -35
      vertex 5 -5 -35
    endloop
  endfacet
  facet normal 1 -0 0
    outer loop
      vertex 5 -5 -40
      vertex 5 5 -50
      vertex 5 5 -40
    endloop
  endfacet
  facet normal 1 0 0
    outer loop
      vertex 5 5 -50
      vertex 5 -5 -40
      vertex 5 -5 -50
    endloop
  endfacet
  facet normal -0 0 1
    outer loop
      vertex -5 5 -40
      vertex 5 -5 -40
      vertex 5 5 -40
    endloop
  endfacet
  facet normal 0 0 1
    outer loop
      vertex 5 -5 -40
      vertex -5 5 -40
      vertex -5 -5 -40
    endloop
  endfacet
  facet normal 0 0 -1
    outer loop
      vertex -5 -5 -50
      vertex 5 5 -50
      vertex 5 -5 -50
    endloop
  endfacet
  facet normal -0 0 -1
    outer loop
      vertex 5 5 -50
      vertex -5 -5 -50
      vertex -5 5 -50
    endloop
  endfacet
  facet normal -1 0 0
    outer loop
      vertex -5 -5 -50
      vertex -5 5 -40
      vertex -5 5 -50
    endloop
  endfacet
  facet normal -1 -0 0
    outer loop
      vertex -5 5 -40
      vertex -5 -5 -50
      vertex -5 -5 -40
    endloop
  endfacet
  facet normal 0 1 -0
    outer loop
      vertex 5 5 -50
      vertex -5 5 -40
      vertex 5 5 -40
    endloop
  endfacet
  facet normal 0 1 0
    outer loop
      vertex -5 5 -40
      vertex 5 5 -50
      vertex -5 5 -50
    endloop
  endfacet
  facet normal 0 -1 0
    outer loop
      vertex -5 -5 -50
      vertex 5 -5 -40
      vertex -5 -5 -40
    endloop
  endfacet
  facet normal 0 -1 -0
    outer loop
      vertex 5 -5 -40
      vertex -5 -5 -50
      vertex 5 -5 -50
    endloop
  endfacet
  facet normal 1 -0 0
    outer loop
      vertex 5 -5 -55
      vertex 5 5 -65
      vertex 5 5 -55
    endloop
  endfacet
  facet normal 1 0 0
    outer loop
      vertex 5 5 -65
      vertex 5 -5 -55
      vertex 5 -5 -65
    endloop
  endfacet
  facet normal -0 0 1
    outer loop
      vertex -5 5 -55
      vertex 5 -5 -55
      vertex 5 5 -55
    endloop
  endfacet
  facet normal 0 0 1
    outer loop
      vertex 5 -5 -55
      vertex -5 5 -55
      vertex -5 -5 -55
    endloop
  endfacet
  facet normal 0 0 -1
    outer loop
      vertex -5 -5 -65
      vertex 5 5 -65
      vertex 5 -5 -65
    endloop
  endfacet
  facet normal -0 0 -1
    outer loop
      vertex 5 5 -65
      vertex -5 -5 -65
      vertex -5 5 -65
    endloop
  endfacet
  facet normal -1 0 0
    outer loop
      vertex -5 -5 -65
      vertex -5 5 -55
      vertex -5 5 -65
    endloop
  endfacet
  facet normal -1 -0 0
    outer loop
      vertex -5 5 -55
      vertex -5 -5 -65
      vertex -5 -5 -55
    endloop
  endfacet
  facet normal 0 1 -0
    outer loop
      vertex 5 5 -65
      vertex -5 5 -55
      vertex 5 5 -55
    endloop
  endfacet
  facet normal 0 1 0
    outer loop
      vertex -5 5 -55
      vertex 5 5 -65
      vertex -5 5 -65
    endloop
  endfacet
  facet normal 0 -1 0
    outer loop
      vertex -5 -5 -65
      vertex 5 -5 -55
      vertex -5 -5 -55
    endloop
  endfacet
  facet normal 0 -1 -0
    outer loop
      vertex 5 -5 -55
      vertex -5 -5 -65
      vertex 5 -5 -65
    endloop
  endfacet
  facet normal 1 -0 0
    outer loop
      vertex 5 -5 -70
      vertex 5 5 -80
      vertex 5 5 -70
    endloop
  endfacet
  facet normal 1 0 0
    outer loop
      vertex 5 5 -80
      vertex 5 -5 -70
      vertex 5 -5 -80
    endloop
  endfacet
  facet normal -0 0 1
    outer loop
      vertex -5 5 -70
      vertex 5 -5 -70
      vertex 5 5 -70
    endloop
  endfacet
  facet normal 0 0 1
    outer loop
      vertex 5 -5 -70
      vertex -5 5 -70
      vertex -5 -5 -70
    endloop
  endfacet
  facet normal 0 0 -1
    outer loop
      vertex -5 -5 -80
      vertex 5 5 -80
      vertex 5 -5 -80
    endloop
  endfacet
  facet normal -0 0 -1
    outer loop
      vertex 5 5 -80
      vertex -5 -5 -80
      vertex -5 5 -80
    endloop
  endfacet
  facet normal -1 0 0
    outer loop
      vertex -5 -5 -80
      vertex -5 5 -70
      vertex -5 5 -80
    endloop
  endfacet
  facet normal -1 -0 0
    outer loop
      vertex -5 5 -70
      vertex -5 -5 -80
      vertex -5 -5 -70
    endloop
  endfacet
  facet normal 0 1 -0
    outer loop
      vertex 5 5 -80
      vertex -5 5 -70
      vertex 5 5 -70
    endloop
  endfacet
  facet normal 0 1 0
    outer loop
      vertex -5 5 -70
      vertex 5 5 -80
      vertex -5 5 -80
    endloop
  endfacet
  facet normal 0 -1 0
    outer loop
      vertex -5 -5 -80
      vertex 5 -5 -70
      vertex -5 -5 -70
    endloop
  endfacet
  facet normal 0 -1 -0
    outer loop
      vertex 5 -5 -70
      vertex -5 -5 -80
      vertex 5 -5 -80
    endloop
  endfacet
endsolid OpenSCAD_Model
