solid OpenSCAD_Model
  facet normal 1 -0 0
    outer loop
      vertex 20 0 30
      vertex 20 10 20
      vertex 20 10 30
    endloop
  endfacet
  facet normal 1 0 0
    outer loop
      vertex 20 10 20
      vertex 20 0 30
      vertex 20 0 20
    endloop
  endfacet
  facet normal -0 0 1
    outer loop
      vertex 0 10 30
      vertex 10 0 30
      vertex 10 10 30
    endloop
  endfacet
  facet normal 0 0 1
    outer loop
      vertex 10 0 30
      vertex 0 10 30
      vertex 0 0 30
    endloop
  endfacet
  facet normal -0 0 1
    outer loop
      vertex 10 10 30
      vertex 20 0 30
      vertex 20 10 30
    endloop
  endfacet
  facet normal 0 0 1
    outer loop
      vertex 20 0 30
      vertex 10 10 30
      vertex 10 0 30
    endloop
  endfacet
  facet normal 0 0 -1
    outer loop
      vertex 10 0 20
      vertex 20 10 20
      vertex 20 0 20
    endloop
  endfacet
  facet normal -0 0 -1
    outer loop
      vertex 20 10 20
      vertex 10 0 20
      vertex 10 10 20
    endloop
  endfacet
  facet normal 0 0 -1
    outer loop
      vertex 0 0 20
      vertex 10 10 20
      vertex 10 0 20
    endloop
  endfacet
  facet normal -0 0 -1
    outer loop
      vertex 10 10 20
      vertex 0 0 20
      vertex 0 10 20
    endloop
  endfacet
  facet normal -1 0 0
    outer loop
      vertex 0 0 20
      vertex 0 10 30
      vertex 0 10 20
    endloop
  endfacet
  facet normal -1 -0 0
    outer loop
      vertex 0 10 30
      vertex 0 0 20
      vertex 0 0 30
    endloop
  endfacet
  facet normal 0 1 0
    outer loop
      vertex 5.3806 10 23.0866
      vertex 4.55496 10 23.0501
      vertex 5.35168 10 23.232
    endloop
  endfacet
  facet normal -0 1 0
    outer loop
      vertex 4.55496 10 23.0501
      vertex 5.3806 10 23.0866
      vertex 6.46447 10 21.4645
    endloop
  endfacet
  facet normal 0 1 -0
    outer loop
      vertex 5.3806 10 26.9134
      vertex 4.55496 10 26.9499
      vertex 6.46447 10 28.5355
    endloop
  endfacet
  facet normal 0 1 0
    outer loop
      vertex 4.55496 10 26.9499
      vertex 5.3806 10 26.9134
      vertex 5.35168 10 26.768
    endloop
  endfacet
  facet normal 0 1 -0
    outer loop
      vertex 8.08658 10 29.6194
      vertex 0 10 30
      vertex 10 10 30
    endloop
  endfacet
  facet normal 0 1 -0
    outer loop
      vertex 6.46447 10 28.5355
      vertex 0 10 30
      vertex 8.08658 10 29.6194
    endloop
  endfacet
  facet normal 0 1 -0
    outer loop
      vertex 4.55496 10 26.9499
      vertex 0 10 30
      vertex 6.46447 10 28.5355
    endloop
  endfacet
  facet normal 0 1 -0
    outer loop
      vertex 3.19806 10 25.8678
      vertex 0 10 30
      vertex 4.55496 10 26.9499
    endloop
  endfacet
  facet normal 0 1 -0
    outer loop
      vertex 3.19806 10 24.1322
      vertex 0 10 30
      vertex 3.19806 10 25.8678
    endloop
  endfacet
  facet normal 0 1 0
    outer loop
      vertex 0 10 20
      vertex 4.55496 10 23.0501
      vertex 6.46447 10 21.4645
    endloop
  endfacet
  facet normal 0 1 0
    outer loop
      vertex 3.19806 10 24.1322
      vertex 0 10 20
      vertex 0 10 30
    endloop
  endfacet
  facet normal 0 1 0
    outer loop
      vertex 4.55496 10 23.0501
      vertex 0 10 20
      vertex 3.19806 10 24.1322
    endloop
  endfacet
  facet normal 0 1 0
    outer loop
      vertex 8.08658 10 20.3806
      vertex 0 10 20
      vertex 6.46447 10 21.4645
    endloop
  endfacet
  facet normal 0 1 0
    outer loop
      vertex 0 10 20
      vertex 8.08658 10 20.3806
      vertex 10 10 20
    endloop
  endfacet
  facet normal 0 1 0
    outer loop
      vertex 20 10 30
      vertex 11.9134 10 29.6194
      vertex 10 10 30
    endloop
  endfacet
  facet normal 0 1 0
    outer loop
      vertex 20 10 30
      vertex 13.5355 10 28.5355
      vertex 11.9134 10 29.6194
    endloop
  endfacet
  facet normal 0 1 0
    outer loop
      vertex 20 10 30
      vertex 14.6194 10 26.9134
      vertex 13.5355 10 28.5355
    endloop
  endfacet
  facet normal 0 1 0
    outer loop
      vertex 20 10 30
      vertex 15 10 25
      vertex 14.6194 10 26.9134
    endloop
  endfacet
  facet normal 0 1 -0
    outer loop
      vertex 20 10 20
      vertex 15 10 25
      vertex 20 10 30
    endloop
  endfacet
  facet normal 0 1 0
    outer loop
      vertex 15 10 25
      vertex 20 10 20
      vertex 14.6194 10 23.0866
    endloop
  endfacet
  facet normal 0 1 0
    outer loop
      vertex 14.6194 10 23.0866
      vertex 20 10 20
      vertex 13.5355 10 21.4645
    endloop
  endfacet
  facet normal 0 1 0
    outer loop
      vertex 20 10 20
      vertex 11.9134 10 20.3806
      vertex 13.5355 10 21.4645
    endloop
  endfacet
  facet normal 0 1 0
    outer loop
      vertex 11.9134 10 20.3806
      vertex 20 10 20
      vertex 10 10 20
    endloop
  endfacet
  facet normal 0 -1 0
    outer loop
      vertex 0 0 30
      vertex 8.08658 0 29.6194
      vertex 10 0 30
    endloop
  endfacet
  facet normal 0 -1 0
    outer loop
      vertex 0 0 30
      vertex 6.46447 0 28.5355
      vertex 8.08658 0 29.6194
    endloop
  endfacet
  facet normal 0 -1 0
    outer loop
      vertex 0 0 30
      vertex 4.55496 0 26.9499
      vertex 6.46447 0 28.5355
    endloop
  endfacet
  facet normal 0 -1 0
    outer loop
      vertex 0 0 30
      vertex 3.19806 0 25.8678
      vertex 4.55496 0 26.9499
    endloop
  endfacet
  facet normal 0 -1 0
    outer loop
      vertex 0 0 30
      vertex 3.19806 0 24.1322
      vertex 3.19806 0 25.8678
    endloop
  endfacet
  facet normal 0 -1 0
    outer loop
      vertex 0 0 20
      vertex 4.55496 0 23.0501
      vertex 3.19806 0 24.1322
    endloop
  endfacet
  facet normal 0 -1 0
    outer loop
      vertex 0 0 20
      vertex 3.19806 0 24.1322
      vertex 0 0 30
    endloop
  endfacet
  facet normal 0 -1 -0
    outer loop
      vertex 4.55496 0 23.0501
      vertex 0 0 20
      vertex 6.46447 0 21.4645
    endloop
  endfacet
  facet normal 0 -1 0
    outer loop
      vertex 0 0 20
      vertex 8.08658 0 20.3806
      vertex 6.46447 0 21.4645
    endloop
  endfacet
  facet normal 0 -1 -0
    outer loop
      vertex 8.08658 0 20.3806
      vertex 0 0 20
      vertex 10 0 20
    endloop
  endfacet
  facet normal 0 -1 0
    outer loop
      vertex 4.55496 0 26.9499
      vertex 5.3806 0 26.9134
      vertex 6.46447 0 28.5355
    endloop
  endfacet
  facet normal -0 -1 0
    outer loop
      vertex 5.3806 0 26.9134
      vertex 4.55496 0 26.9499
      vertex 5.35168 0 26.768
    endloop
  endfacet
  facet normal 0 -1 0
    outer loop
      vertex 4.55496 0 23.0501
      vertex 5.3806 0 23.0866
      vertex 5.35168 0 23.232
    endloop
  endfacet
  facet normal 0 -1 -0
    outer loop
      vertex 5.3806 0 23.0866
      vertex 4.55496 0 23.0501
      vertex 6.46447 0 21.4645
    endloop
  endfacet
  facet normal 0 -1 0
    outer loop
      vertex 11.9134 0 29.6194
      vertex 20 0 30
      vertex 10 0 30
    endloop
  endfacet
  facet normal 0 -1 0
    outer loop
      vertex 13.5355 0 28.5355
      vertex 20 0 30
      vertex 11.9134 0 29.6194
    endloop
  endfacet
  facet normal 0 -1 0
    outer loop
      vertex 14.6194 0 26.9134
      vertex 20 0 30
      vertex 13.5355 0 28.5355
    endloop
  endfacet
  facet normal 0 -1 0
    outer loop
      vertex 15 0 25
      vertex 20 0 30
      vertex 14.6194 0 26.9134
    endloop
  endfacet
  facet normal 0 -1 0
    outer loop
      vertex 20 0 20
      vertex 15 0 25
      vertex 14.6194 0 23.0866
    endloop
  endfacet
  facet normal 0 -1 0
    outer loop
      vertex 20 0 20
      vertex 14.6194 0 23.0866
      vertex 13.5355 0 21.4645
    endloop
  endfacet
  facet normal 0 -1 0
    outer loop
      vertex 15 0 25
      vertex 20 0 20
      vertex 20 0 30
    endloop
  endfacet
  facet normal 0 -1 0
    outer loop
      vertex 11.9134 0 20.3806
      vertex 20 0 20
      vertex 13.5355 0 21.4645
    endloop
  endfacet
  facet normal 0 -1 0
    outer loop
      vertex 20 0 20
      vertex 11.9134 0 20.3806
      vertex 10 0 20
    endloop
  endfacet
  facet normal 0.980788 0 -0.195078
    outer loop
      vertex 5.3806 0 26.9134
      vertex 5.35168 10 26.768
      vertex 5.3806 10 26.9134
    endloop
  endfacet
  facet normal 0.980788 0 -0.195078
    outer loop
      vertex 5.35168 10 26.768
      vertex 5.3806 0 26.9134
      vertex 5.35168 0 26.768
    endloop
  endfacet
  facet normal -0.980785 0 0.195091
    outer loop
      vertex 14.6194 0 23.0866
      vertex 15 10 25
      vertex 14.6194 10 23.0866
    endloop
  endfacet
  facet normal -0.980785 0 0.195091
    outer loop
      vertex 15 10 25
      vertex 14.6194 0 23.0866
      vertex 15 0 25
    endloop
  endfacet
  facet normal -0.980785 0 -0.195091
    outer loop
      vertex 15 0 25
      vertex 14.6194 10 26.9134
      vertex 15 10 25
    endloop
  endfacet
  facet normal -0.980785 -0 -0.195091
    outer loop
      vertex 14.6194 10 26.9134
      vertex 15 0 25
      vertex 14.6194 0 26.9134
    endloop
  endfacet
  facet normal -0.195091 0 -0.980785
    outer loop
      vertex 10 0 30
      vertex 11.9134 10 29.6194
      vertex 11.9134 0 29.6194
    endloop
  endfacet
  facet normal -0.195091 0 -0.980785
    outer loop
      vertex 11.9134 10 29.6194
      vertex 10 0 30
      vertex 10 10 30
    endloop
  endfacet
  facet normal -0.831458 0 -0.555587
    outer loop
      vertex 14.6194 0 26.9134
      vertex 13.5355 10 28.5355
      vertex 14.6194 10 26.9134
    endloop
  endfacet
  facet normal -0.831458 -0 -0.555587
    outer loop
      vertex 13.5355 10 28.5355
      vertex 14.6194 0 26.9134
      vertex 13.5355 0 28.5355
    endloop
  endfacet
  facet normal -0.555587 0 0.831458
    outer loop
      vertex 11.9134 10 20.3806
      vertex 13.5355 0 21.4645
      vertex 13.5355 10 21.4645
    endloop
  endfacet
  facet normal -0.555587 0 0.831458
    outer loop
      vertex 13.5355 0 21.4645
      vertex 11.9134 10 20.3806
      vertex 11.9134 0 20.3806
    endloop
  endfacet
  facet normal -0.831458 0 0.555587
    outer loop
      vertex 13.5355 0 21.4645
      vertex 14.6194 10 23.0866
      vertex 13.5355 10 21.4645
    endloop
  endfacet
  facet normal -0.831458 0 0.555587
    outer loop
      vertex 14.6194 10 23.0866
      vertex 13.5355 0 21.4645
      vertex 14.6194 0 23.0866
    endloop
  endfacet
  facet normal -0.555587 0 -0.831458
    outer loop
      vertex 11.9134 0 29.6194
      vertex 13.5355 10 28.5355
      vertex 13.5355 0 28.5355
    endloop
  endfacet
  facet normal -0.555587 0 -0.831458
    outer loop
      vertex 13.5355 10 28.5355
      vertex 11.9134 0 29.6194
      vertex 11.9134 10 29.6194
    endloop
  endfacet
  facet normal 0.980788 -0 0.195078
    outer loop
      vertex 5.35168 0 23.232
      vertex 5.3806 10 23.0866
      vertex 5.35168 10 23.232
    endloop
  endfacet
  facet normal 0.980788 0 0.195078
    outer loop
      vertex 5.3806 10 23.0866
      vertex 5.35168 0 23.232
      vertex 5.3806 0 23.0866
    endloop
  endfacet
  facet normal 0.555585 0 -0.83146
    outer loop
      vertex 6.46447 0 28.5355
      vertex 8.08658 10 29.6194
      vertex 8.08658 0 29.6194
    endloop
  endfacet
  facet normal 0.555585 0 -0.83146
    outer loop
      vertex 8.08658 10 29.6194
      vertex 6.46447 0 28.5355
      vertex 6.46447 10 28.5355
    endloop
  endfacet
  facet normal 0.195089 0 0.980786
    outer loop
      vertex 8.08658 10 20.3806
      vertex 10 0 20
      vertex 10 10 20
    endloop
  endfacet
  facet normal 0.195089 0 0.980786
    outer loop
      vertex 10 0 20
      vertex 8.08658 10 20.3806
      vertex 8.08658 0 20.3806
    endloop
  endfacet
  facet normal -0.195091 0 0.980785
    outer loop
      vertex 10 10 20
      vertex 11.9134 0 20.3806
      vertex 11.9134 10 20.3806
    endloop
  endfacet
  facet normal -0.195091 0 0.980785
    outer loop
      vertex 11.9134 0 20.3806
      vertex 10 10 20
      vertex 10 0 20
    endloop
  endfacet
  facet normal 0.195089 0 -0.980786
    outer loop
      vertex 8.08658 0 29.6194
      vertex 10 10 30
      vertex 10 0 30
    endloop
  endfacet
  facet normal 0.195089 0 -0.980786
    outer loop
      vertex 10 10 30
      vertex 8.08658 0 29.6194
      vertex 8.08658 10 29.6194
    endloop
  endfacet
  facet normal 0.831465 0 -0.555576
    outer loop
      vertex 6.46447 0 28.5355
      vertex 5.3806 10 26.9134
      vertex 6.46447 10 28.5355
    endloop
  endfacet
  facet normal 0.831465 0 -0.555576
    outer loop
      vertex 5.3806 10 26.9134
      vertex 6.46447 0 28.5355
      vertex 5.3806 0 26.9134
    endloop
  endfacet
  facet normal 0.831465 -0 0.555576
    outer loop
      vertex 5.3806 0 23.0866
      vertex 6.46447 10 21.4645
      vertex 5.3806 10 23.0866
    endloop
  endfacet
  facet normal 0.831465 0 0.555576
    outer loop
      vertex 6.46447 10 21.4645
      vertex 5.3806 0 23.0866
      vertex 6.46447 0 21.4645
    endloop
  endfacet
  facet normal 0.555585 0 0.83146
    outer loop
      vertex 6.46447 10 21.4645
      vertex 8.08658 0 20.3806
      vertex 8.08658 10 20.3806
    endloop
  endfacet
  facet normal 0.555585 0 0.83146
    outer loop
      vertex 8.08658 0 20.3806
      vertex 6.46447 10 21.4645
      vertex 6.46447 0 21.4645
    endloop
  endfacet
  facet normal -0.222584 0 -0.974914
    outer loop
      vertex 4.55496 0 26.9499
      vertex 5.35168 10 26.768
      vertex 5.35168 0 26.768
    endloop
  endfacet
  facet normal -0.222584 0 -0.974914
    outer loop
      vertex 5.35168 10 26.768
      vertex 4.55496 0 26.9499
      vertex 4.55496 10 26.9499
    endloop
  endfacet
  facet normal 0.623493 0 -0.781829
    outer loop
      vertex 3.19806 0 25.8678
      vertex 4.55496 10 26.9499
      vertex 4.55496 0 26.9499
    endloop
  endfacet
  facet normal 0.623493 0 -0.781829
    outer loop
      vertex 4.55496 10 26.9499
      vertex 3.19806 0 25.8678
      vertex 3.19806 10 25.8678
    endloop
  endfacet
  facet normal 0.623493 0 0.781829
    outer loop
      vertex 3.19806 10 24.1322
      vertex 4.55496 0 23.0501
      vertex 4.55496 10 23.0501
    endloop
  endfacet
  facet normal 0.623493 0 0.781829
    outer loop
      vertex 4.55496 0 23.0501
      vertex 3.19806 10 24.1322
      vertex 3.19806 0 24.1322
    endloop
  endfacet
  facet normal -0.222584 0 0.974914
    outer loop
      vertex 4.55496 10 23.0501
      vertex 5.35168 0 23.232
      vertex 5.35168 10 23.232
    endloop
  endfacet
  facet normal -0.222584 0 0.974914
    outer loop
      vertex 5.35168 0 23.232
      vertex 4.55496 10 23.0501
      vertex 4.55496 0 23.0501
    endloop
  endfacet
  facet normal 1 -0 0
    outer loop
      vertex 3.19806 0 25.8678
      vertex 3.19806 10 24.1322
      vertex 3.19806 10 25.8678
    endloop
  endfacet
  facet normal 1 0 0
    outer loop
      vertex 3.19806 10 24.1322
      vertex 3.19806 0 25.8678
      vertex 3.19806 0 24.1322
    endloop
  endfacet
  facet normal 1 -0 0
    outer loop
      vertex 50 0 30
      vertex 50 10 20
      vertex 50 10 30
    endloop
  endfacet
  facet normal 1 0 0
    outer loop
      vertex 50 10 20
      vertex 50 0 30
      vertex 50 0 20
    endloop
  endfacet
  facet normal -0 0 1
    outer loop
      vertex 30 10 30
      vertex 40 0 30
      vertex 40 10 30
    endloop
  endfacet
  facet normal 0 0 1
    outer loop
      vertex 40 0 30
      vertex 30 10 30
      vertex 30 0 30
    endloop
  endfacet
  facet normal -0 0 1
    outer loop
      vertex 40 10 30
      vertex 50 0 30
      vertex 50 10 30
    endloop
  endfacet
  facet normal 0 0 1
    outer loop
      vertex 50 0 30
      vertex 40 10 30
      vertex 40 0 30
    endloop
  endfacet
  facet normal 0 0 -1
    outer loop
      vertex 40 0 20
      vertex 50 10 20
      vertex 50 0 20
    endloop
  endfacet
  facet normal -0 0 -1
    outer loop
      vertex 50 10 20
      vertex 40 0 20
      vertex 40 10 20
    endloop
  endfacet
  facet normal 0 0 -1
    outer loop
      vertex 30 0 20
      vertex 40 10 20
      vertex 40 0 20
    endloop
  endfacet
  facet normal -0 0 -1
    outer loop
      vertex 40 10 20
      vertex 30 0 20
      vertex 30 10 20
    endloop
  endfacet
  facet normal -1 0 0
    outer loop
      vertex 30 0 20
      vertex 30 10 30
      vertex 30 10 20
    endloop
  endfacet
  facet normal -1 -0 0
    outer loop
      vertex 30 10 30
      vertex 30 0 20
      vertex 30 0 30
    endloop
  endfacet
  facet normal 0 1 0
    outer loop
      vertex 35.3806 10 23.0866
      vertex 34.555 10 23.0501
      vertex 35.3517 10 23.232
    endloop
  endfacet
  facet normal -0 1 0
    outer loop
      vertex 34.555 10 23.0501
      vertex 35.3806 10 23.0866
      vertex 36.4645 10 21.4645
    endloop
  endfacet
  facet normal 0 1 -0
    outer loop
      vertex 35.3806 10 26.9134
      vertex 34.555 10 26.9499
      vertex 36.4645 10 28.5355
    endloop
  endfacet
  facet normal 0 1 0
    outer loop
      vertex 34.555 10 26.9499
      vertex 35.3806 10 26.9134
      vertex 35.3517 10 26.768
    endloop
  endfacet
  facet normal 0 1 -0
    outer loop
      vertex 38.0866 10 29.6194
      vertex 30 10 30
      vertex 40 10 30
    endloop
  endfacet
  facet normal 0 1 -0
    outer loop
      vertex 36.4645 10 28.5355
      vertex 30 10 30
      vertex 38.0866 10 29.6194
    endloop
  endfacet
  facet normal 0 1 -0
    outer loop
      vertex 34.555 10 26.9499
      vertex 30 10 30
      vertex 36.4645 10 28.5355
    endloop
  endfacet
  facet normal 0 1 -0
    outer loop
      vertex 33.1981 10 25.8678
      vertex 30 10 30
      vertex 34.555 10 26.9499
    endloop
  endfacet
  facet normal 0 1 -0
    outer loop
      vertex 33.1981 10 24.1322
      vertex 30 10 30
      vertex 33.1981 10 25.8678
    endloop
  endfacet
  facet normal 0 1 0
    outer loop
      vertex 30 10 20
      vertex 34.555 10 23.0501
      vertex 36.4645 10 21.4645
    endloop
  endfacet
  facet normal 0 1 0
    outer loop
      vertex 33.1981 10 24.1322
      vertex 30 10 20
      vertex 30 10 30
    endloop
  endfacet
  facet normal 0 1 0
    outer loop
      vertex 34.555 10 23.0501
      vertex 30 10 20
      vertex 33.1981 10 24.1322
    endloop
  endfacet
  facet normal 0 1 0
    outer loop
      vertex 38.0866 10 20.3806
      vertex 30 10 20
      vertex 36.4645 10 21.4645
    endloop
  endfacet
  facet normal 0 1 0
    outer loop
      vertex 30 10 20
      vertex 38.0866 10 20.3806
      vertex 40 10 20
    endloop
  endfacet
  facet normal 0 1 0
    outer loop
      vertex 50 10 30
      vertex 41.9134 10 29.6194
      vertex 40 10 30
    endloop
  endfacet
  facet normal 0 1 0
    outer loop
      vertex 50 10 30
      vertex 43.5355 10 28.5355
      vertex 41.9134 10 29.6194
    endloop
  endfacet
  facet normal 0 1 0
    outer loop
      vertex 50 10 30
      vertex 44.6194 10 26.9134
      vertex 43.5355 10 28.5355
    endloop
  endfacet
  facet normal 0 1 0
    outer loop
      vertex 50 10 30
      vertex 45 10 25
      vertex 44.6194 10 26.9134
    endloop
  endfacet
  facet normal 0 1 -0
    outer loop
      vertex 50 10 20
      vertex 45 10 25
      vertex 50 10 30
    endloop
  endfacet
  facet normal 0 1 0
    outer loop
      vertex 45 10 25
      vertex 50 10 20
      vertex 44.6194 10 23.0866
    endloop
  endfacet
  facet normal 0 1 0
    outer loop
      vertex 44.6194 10 23.0866
      vertex 50 10 20
      vertex 43.5355 10 21.4645
    endloop
  endfacet
  facet normal 0 1 0
    outer loop
      vertex 50 10 20
      vertex 41.9134 10 20.3806
      vertex 43.5355 10 21.4645
    endloop
  endfacet
  facet normal 0 1 0
    outer loop
      vertex 41.9134 10 20.3806
      vertex 50 10 20
      vertex 40 10 20
    endloop
  endfacet
  facet normal 0 -1 0
    outer loop
      vertex 30 0 30
      vertex 38.0866 0 29.6194
      vertex 40 0 30
    endloop
  endfacet
  facet normal 0 -1 0
    outer loop
      vertex 30 0 30
      vertex 36.4645 0 28.5355
      vertex 38.0866 0 29.6194
    endloop
  endfacet
  facet normal 0 -1 0
    outer loop
      vertex 30 0 30
      vertex 34.555 0 26.9499
      vertex 36.4645 0 28.5355
    endloop
  endfacet
  facet normal 0 -1 0
    outer loop
      vertex 30 0 30
      vertex 33.1981 0 25.8678
      vertex 34.555 0 26.9499
    endloop
  endfacet
  facet normal 0 -1 0
    outer loop
      vertex 30 0 30
      vertex 33.1981 0 24.1322
      vertex 33.1981 0 25.8678
    endloop
  endfacet
  facet normal 0 -1 0
    outer loop
      vertex 30 0 20
      vertex 34.555 0 23.0501
      vertex 33.1981 0 24.1322
    endloop
  endfacet
  facet normal 0 -1 0
    outer loop
      vertex 30 0 20
      vertex 33.1981 0 24.1322
      vertex 30 0 30
    endloop
  endfacet
  facet normal 0 -1 -0
    outer loop
      vertex 34.555 0 23.0501
      vertex 30 0 20
      vertex 36.4645 0 21.4645
    endloop
  endfacet
  facet normal 0 -1 0
    outer loop
      vertex 30 0 20
      vertex 38.0866 0 20.3806
      vertex 36.4645 0 21.4645
    endloop
  endfacet
  facet normal 0 -1 -0
    outer loop
      vertex 38.0866 0 20.3806
      vertex 30 0 20
      vertex 40 0 20
    endloop
  endfacet
  facet normal 0 -1 0
    outer loop
      vertex 34.555 0 26.9499
      vertex 35.3806 0 26.9134
      vertex 36.4645 0 28.5355
    endloop
  endfacet
  facet normal -0 -1 0
    outer loop
      vertex 35.3806 0 26.9134
      vertex 34.555 0 26.9499
      vertex 35.3517 0 26.768
    endloop
  endfacet
  facet normal 0 -1 0
    outer loop
      vertex 34.555 0 23.0501
      vertex 35.3806 0 23.0866
      vertex 35.3517 0 23.232
    endloop
  endfacet
  facet normal 0 -1 -0
    outer loop
      vertex 35.3806 0 23.0866
      vertex 34.555 0 23.0501
      vertex 36.4645 0 21.4645
    endloop
  endfacet
  facet normal 0 -1 0
    outer loop
      vertex 41.9134 0 29.6194
      vertex 50 0 30
      vertex 40 0 30
    endloop
  endfacet
  facet normal 0 -1 0
    outer loop
      vertex 43.5355 0 28.5355
      vertex 50 0 30
      vertex 41.9134 0 29.6194
    endloop
  endfacet
  facet normal 0 -1 0
    outer loop
      vertex 44.6194 0 26.9134
      vertex 50 0 30
      vertex 43.5355 0 28.5355
    endloop
  endfacet
  facet normal 0 -1 0
    outer loop
      vertex 45 0 25
      vertex 50 0 30
      vertex 44.6194 0 26.9134
    endloop
  endfacet
  facet normal 0 -1 0
    outer loop
      vertex 50 0 20
      vertex 45 0 25
      vertex 44.6194 0 23.0866
    endloop
  endfacet
  facet normal 0 -1 0
    outer loop
      vertex 50 0 20
      vertex 44.6194 0 23.0866
      vertex 43.5355 0 21.4645
    endloop
  endfacet
  facet normal 0 -1 0
    outer loop
      vertex 45 0 25
      vertex 50 0 20
      vertex 50 0 30
    endloop
  endfacet
  facet normal 0 -1 0
    outer loop
      vertex 41.9134 0 20.3806
      vertex 50 0 20
      vertex 43.5355 0 21.4645
    endloop
  endfacet
  facet normal 0 -1 0
    outer loop
      vertex 50 0 20
      vertex 41.9134 0 20.3806
      vertex 40 0 20
    endloop
  endfacet
  facet normal 0.980813 0 -0.194948
    outer loop
      vertex 35.3806 0 26.9134
      vertex 35.3517 10 26.768
      vertex 35.3806 10 26.9134
    endloop
  endfacet
  facet normal 0.980813 0 -0.194948
    outer loop
      vertex 35.3517 10 26.768
      vertex 35.3806 0 26.9134
      vertex 35.3517 0 26.768
    endloop
  endfacet
  facet normal -0.980785 0 0.195091
    outer loop
      vertex 44.6194 0 23.0866
      vertex 45 10 25
      vertex 44.6194 10 23.0866
    endloop
  endfacet
  facet normal -0.980785 0 0.195091
    outer loop
      vertex 45 10 25
      vertex 44.6194 0 23.0866
      vertex 45 0 25
    endloop
  endfacet
  facet normal -0.980785 0 -0.195091
    outer loop
      vertex 45 0 25
      vertex 44.6194 10 26.9134
      vertex 45 10 25
    endloop
  endfacet
  facet normal -0.980785 -0 -0.195091
    outer loop
      vertex 44.6194 10 26.9134
      vertex 45 0 25
      vertex 44.6194 0 26.9134
    endloop
  endfacet
  facet normal -0.195091 0 -0.980785
    outer loop
      vertex 40 0 30
      vertex 41.9134 10 29.6194
      vertex 41.9134 0 29.6194
    endloop
  endfacet
  facet normal -0.195091 0 -0.980785
    outer loop
      vertex 41.9134 10 29.6194
      vertex 40 0 30
      vertex 40 10 30
    endloop
  endfacet
  facet normal -0.831458 0 -0.555587
    outer loop
      vertex 44.6194 0 26.9134
      vertex 43.5355 10 28.5355
      vertex 44.6194 10 26.9134
    endloop
  endfacet
  facet normal -0.831458 -0 -0.555587
    outer loop
      vertex 43.5355 10 28.5355
      vertex 44.6194 0 26.9134
      vertex 43.5355 0 28.5355
    endloop
  endfacet
  facet normal -0.555587 0 0.831458
    outer loop
      vertex 41.9134 10 20.3806
      vertex 43.5355 0 21.4645
      vertex 43.5355 10 21.4645
    endloop
  endfacet
  facet normal -0.555587 0 0.831458
    outer loop
      vertex 43.5355 0 21.4645
      vertex 41.9134 10 20.3806
      vertex 41.9134 0 20.3806
    endloop
  endfacet
  facet normal -0.831458 0 0.555587
    outer loop
      vertex 43.5355 0 21.4645
      vertex 44.6194 10 23.0866
      vertex 43.5355 10 21.4645
    endloop
  endfacet
  facet normal -0.831458 0 0.555587
    outer loop
      vertex 44.6194 10 23.0866
      vertex 43.5355 0 21.4645
      vertex 44.6194 0 23.0866
    endloop
  endfacet
  facet normal -0.555587 0 -0.831458
    outer loop
      vertex 41.9134 0 29.6194
      vertex 43.5355 10 28.5355
      vertex 43.5355 0 28.5355
    endloop
  endfacet
  facet normal -0.555587 0 -0.831458
    outer loop
      vertex 43.5355 10 28.5355
      vertex 41.9134 0 29.6194
      vertex 41.9134 10 29.6194
    endloop
  endfacet
  facet normal 0.980813 -0 0.194948
    outer loop
      vertex 35.3517 0 23.232
      vertex 35.3806 10 23.0866
      vertex 35.3517 10 23.232
    endloop
  endfacet
  facet normal 0.980813 0 0.194948
    outer loop
      vertex 35.3806 10 23.0866
      vertex 35.3517 0 23.232
      vertex 35.3806 0 23.0866
    endloop
  endfacet
  facet normal 0.555587 0 -0.831458
    outer loop
      vertex 36.4645 0 28.5355
      vertex 38.0866 10 29.6194
      vertex 38.0866 0 29.6194
    endloop
  endfacet
  facet normal 0.555587 0 -0.831458
    outer loop
      vertex 38.0866 10 29.6194
      vertex 36.4645 0 28.5355
      vertex 36.4645 10 28.5355
    endloop
  endfacet
  facet normal 0.195091 0 0.980785
    outer loop
      vertex 38.0866 10 20.3806
      vertex 40 0 20
      vertex 40 10 20
    endloop
  endfacet
  facet normal 0.195091 0 0.980785
    outer loop
      vertex 40 0 20
      vertex 38.0866 10 20.3806
      vertex 38.0866 0 20.3806
    endloop
  endfacet
  facet normal -0.195091 0 0.980785
    outer loop
      vertex 40 10 20
      vertex 41.9134 0 20.3806
      vertex 41.9134 10 20.3806
    endloop
  endfacet
  facet normal -0.195091 0 0.980785
    outer loop
      vertex 41.9134 0 20.3806
      vertex 40 10 20
      vertex 40 0 20
    endloop
  endfacet
  facet normal 0.195091 0 -0.980785
    outer loop
      vertex 38.0866 0 29.6194
      vertex 40 10 30
      vertex 40 0 30
    endloop
  endfacet
  facet normal 0.195091 0 -0.980785
    outer loop
      vertex 40 10 30
      vertex 38.0866 0 29.6194
      vertex 38.0866 10 29.6194
    endloop
  endfacet
  facet normal 0.831458 0 -0.555587
    outer loop
      vertex 36.4645 0 28.5355
      vertex 35.3806 10 26.9134
      vertex 36.4645 10 28.5355
    endloop
  endfacet
  facet normal 0.831458 0 -0.555587
    outer loop
      vertex 35.3806 10 26.9134
      vertex 36.4645 0 28.5355
      vertex 35.3806 0 26.9134
    endloop
  endfacet
  facet normal 0.831458 -0 0.555587
    outer loop
      vertex 35.3806 0 23.0866
      vertex 36.4645 10 21.4645
      vertex 35.3806 10 23.0866
    endloop
  endfacet
  facet normal 0.831458 0 0.555587
    outer loop
      vertex 36.4645 10 21.4645
      vertex 35.3806 0 23.0866
      vertex 36.4645 0 21.4645
    endloop
  endfacet
  facet normal 0.555587 0 0.831458
    outer loop
      vertex 36.4645 10 21.4645
      vertex 38.0866 0 20.3806
      vertex 38.0866 10 20.3806
    endloop
  endfacet
  facet normal 0.555587 0 0.831458
    outer loop
      vertex 38.0866 0 20.3806
      vertex 36.4645 10 21.4645
      vertex 36.4645 0 21.4645
    endloop
  endfacet
  facet normal -0.222589 0 -0.974912
    outer loop
      vertex 34.555 0 26.9499
      vertex 35.3517 10 26.768
      vertex 35.3517 0 26.768
    endloop
  endfacet
  facet normal -0.222589 0 -0.974912
    outer loop
      vertex 35.3517 10 26.768
      vertex 34.555 0 26.9499
      vertex 34.555 10 26.9499
    endloop
  endfacet
  facet normal 0.623493 0 -0.781829
    outer loop
      vertex 33.1981 0 25.8678
      vertex 34.555 10 26.9499
      vertex 34.555 0 26.9499
    endloop
  endfacet
  facet normal 0.623493 0 -0.781829
    outer loop
      vertex 34.555 10 26.9499
      vertex 33.1981 0 25.8678
      vertex 33.1981 10 25.8678
    endloop
  endfacet
  facet normal 0.623493 0 0.781829
    outer loop
      vertex 33.1981 10 24.1322
      vertex 34.555 0 23.0501
      vertex 34.555 10 23.0501
    endloop
  endfacet
  facet normal 0.623493 0 0.781829
    outer loop
      vertex 34.555 0 23.0501
      vertex 33.1981 10 24.1322
      vertex 33.1981 0 24.1322
    endloop
  endfacet
  facet normal -0.222589 0 0.974912
    outer loop
      vertex 34.555 10 23.0501
      vertex 35.3517 0 23.232
      vertex 35.3517 10 23.232
    endloop
  endfacet
  facet normal -0.222589 0 0.974912
    outer loop
      vertex 35.3517 0 23.232
      vertex 34.555 10 23.0501
      vertex 34.555 0 23.0501
    endloop
  endfacet
  facet normal 1 -0 0
    outer loop
      vertex 33.1981 0 25.8678
      vertex 33.1981 10 24.1322
      vertex 33.1981 10 25.8678
    endloop
  endfacet
  facet normal 1 0 0
    outer loop
      vertex 33.1981 10 24.1322
      vertex 33.1981 0 25.8678
      vertex 33.1981 0 24.1322
    endloop
  endfacet
  facet normal 1 -0 0
    outer loop
      vertex 20 0 5
      vertex 20 10 0
      vertex 20 10 5
    endloop
  endfacet
  facet normal 1 0 0
    outer loop
      vertex 20 10 0
      vertex 20 0 5
      vertex 20 0 0
    endloop
  endfacet
  facet normal 0 0 -1
    outer loop
      vertex 0 10 5
      vertex 10 20 5
      vertex 10 10 5
    endloop
  endfacet
  facet normal -0 0 -1
    outer loop
      vertex 10 20 5
      vertex 0 10 5
      vertex 0 20 5
    endloop
  endfacet
  facet normal -0 0 1
    outer loop
      vertex 10 10 5
      vertex 20 0 5
      vertex 20 10 5
    endloop
  endfacet
  facet normal 0 0 1
    outer loop
      vertex 20 0 5
      vertex 10 10 5
      vertex 10 0 5
    endloop
  endfacet
  facet normal 0 0 -1
    outer loop
      vertex 0 0 0
      vertex 20 10 0
      vertex 20 0 0
    endloop
  endfacet
  facet normal -0 0 -1
    outer loop
      vertex 20 10 0
      vertex 0 0 0
      vertex 0 10 0
    endloop
  endfacet
  facet normal -1 0 0
    outer loop
      vertex 0 10 0
      vertex 0 0 0
      vertex 0 10 5
    endloop
  endfacet
  facet normal -1 0 0
    outer loop
      vertex 0 10 5
      vertex 0 20 10
      vertex 0 20 5
    endloop
  endfacet
  facet normal -1 0 0
    outer loop
      vertex 0 0 10
      vertex 0 10 5
      vertex 0 0 0
    endloop
  endfacet
  facet normal -1 0 0
    outer loop
      vertex 0 10 5
      vertex 0 0 10
      vertex 0 20 10
    endloop
  endfacet
  facet normal 0 1 -0
    outer loop
      vertex 11.247 10 4.06366
      vertex 10 10 5
      vertex 20 10 5
    endloop
  endfacet
  facet normal 0 1 0
    outer loop
      vertex 8.19806 10 3.36777
      vertex 10 10 5
      vertex 9.55496 10 4.44986
    endloop
  endfacet
  facet normal 0 1 0
    outer loop
      vertex 10 10 5
      vertex 11.247 10 4.06366
      vertex 9.55496 10 4.44986
    endloop
  endfacet
  facet normal 0 1 0
    outer loop
      vertex 20 10 5
      vertex 12 10 2.5
      vertex 11.247 10 4.06366
    endloop
  endfacet
  facet normal 0 1 -0
    outer loop
      vertex 20 10 0
      vertex 12 10 2.5
      vertex 20 10 5
    endloop
  endfacet
  facet normal 0 1 0
    outer loop
      vertex 11.247 10 0.936337
      vertex 20 10 0
      vertex 9.55496 10 0.550143
    endloop
  endfacet
  facet normal 0 1 0
    outer loop
      vertex 12 10 2.5
      vertex 20 10 0
      vertex 11.247 10 0.936337
    endloop
  endfacet
  facet normal 0 1 0
    outer loop
      vertex 10 10 5
      vertex 8.19806 10 3.36777
      vertex 0 10 5
    endloop
  endfacet
  facet normal 0 1 -0
    outer loop
      vertex 8.19806 10 1.63223
      vertex 0 10 5
      vertex 8.19806 10 3.36777
    endloop
  endfacet
  facet normal 0 1 0
    outer loop
      vertex 0 10 0
      vertex 8.19806 10 1.63223
      vertex 9.55496 10 0.550143
    endloop
  endfacet
  facet normal 0 1 0
    outer loop
      vertex 8.19806 10 1.63223
      vertex 0 10 0
      vertex 0 10 5
    endloop
  endfacet
  facet normal 0 1 0
    outer loop
      vertex 0 10 0
      vertex 9.55496 10 0.550143
      vertex 20 10 0
    endloop
  endfacet
  facet normal 0 -1 0
    outer loop
      vertex 8.19806 0 3.36777
      vertex 10 0 10
      vertex 0 0 10
    endloop
  endfacet
  facet normal 0 -1 0
    outer loop
      vertex 11.247 0 4.06366
      vertex 10 0 5
      vertex 9.55496 0 4.44986
    endloop
  endfacet
  facet normal 0 -1 -0
    outer loop
      vertex 10 0 10
      vertex 9.55496 0 4.44986
      vertex 10 0 5
    endloop
  endfacet
  facet normal 0 -1 0
    outer loop
      vertex 10 0 10
      vertex 8.19806 0 3.36777
      vertex 9.55496 0 4.44986
    endloop
  endfacet
  facet normal 0 -1 0
    outer loop
      vertex 0 0 0
      vertex 8.19806 0 3.36777
      vertex 0 0 10
    endloop
  endfacet
  facet normal 0 -1 -0
    outer loop
      vertex 8.19806 0 1.63223
      vertex 0 0 0
      vertex 9.55496 0 0.550143
    endloop
  endfacet
  facet normal 0 -1 -0
    outer loop
      vertex 8.19806 0 3.36777
      vertex 0 0 0
      vertex 8.19806 0 1.63223
    endloop
  endfacet
  facet normal 0 -1 0
    outer loop
      vertex 10 0 5
      vertex 11.247 0 4.06366
      vertex 20 0 5
    endloop
  endfacet
  facet normal 0 -1 0
    outer loop
      vertex 12 0 2.5
      vertex 20 0 5
      vertex 11.247 0 4.06366
    endloop
  endfacet
  facet normal 0 -1 0
    outer loop
      vertex 20 0 0
      vertex 12 0 2.5
      vertex 11.247 0 0.936337
    endloop
  endfacet
  facet normal 0 -1 0
    outer loop
      vertex 12 0 2.5
      vertex 20 0 0
      vertex 20 0 5
    endloop
  endfacet
  facet normal 0 -1 0
    outer loop
      vertex 9.55496 0 0.550143
      vertex 20 0 0
      vertex 11.247 0 0.936337
    endloop
  endfacet
  facet normal 0 -1 0
    outer loop
      vertex 20 0 0
      vertex 9.55496 0 0.550143
      vertex 0 0 0
    endloop
  endfacet
  facet normal 1 0 0
    outer loop
      vertex 10 20 10
      vertex 10 10 5
      vertex 10 20 5
    endloop
  endfacet
  facet normal 1 -0 0
    outer loop
      vertex 10 0 10
      vertex 10 10 5
      vertex 10 20 10
    endloop
  endfacet
  facet normal 1 0 0
    outer loop
      vertex 10 10 5
      vertex 10 0 10
      vertex 10 0 5
    endloop
  endfacet
  facet normal -0 0 1
    outer loop
      vertex 0 20 10
      vertex 10 0 10
      vertex 10 20 10
    endloop
  endfacet
  facet normal 0 0 1
    outer loop
      vertex 10 0 10
      vertex 0 20 10
      vertex 0 0 10
    endloop
  endfacet
  facet normal 0 1 0
    outer loop
      vertex 10 20 10
      vertex 4.55496 20 9.44986
      vertex 0 20 10
    endloop
  endfacet
  facet normal 0 1 0
    outer loop
      vertex 10 20 10
      vertex 6.24698 20 9.06366
      vertex 4.55496 20 9.44986
    endloop
  endfacet
  facet normal 0 1 0
    outer loop
      vertex 10 20 10
      vertex 7 20 7.5
      vertex 6.24698 20 9.06366
    endloop
  endfacet
  facet normal 0 1 -0
    outer loop
      vertex 10 20 5
      vertex 7 20 7.5
      vertex 10 20 10
    endloop
  endfacet
  facet normal 0 1 0
    outer loop
      vertex 6.24698 20 5.93634
      vertex 10 20 5
      vertex 4.55496 20 5.55014
    endloop
  endfacet
  facet normal 0 1 0
    outer loop
      vertex 7 20 7.5
      vertex 10 20 5
      vertex 6.24698 20 5.93634
    endloop
  endfacet
  facet normal 0 1 -0
    outer loop
      vertex 3.19806 20 8.36777
      vertex 0 20 10
      vertex 4.55496 20 9.44986
    endloop
  endfacet
  facet normal 0 1 -0
    outer loop
      vertex 3.19806 20 6.63223
      vertex 0 20 10
      vertex 3.19806 20 8.36777
    endloop
  endfacet
  facet normal 0 1 0
    outer loop
      vertex 3.19806 20 6.63223
      vertex 0 20 5
      vertex 0 20 10
    endloop
  endfacet
  facet normal 0 1 0
    outer loop
      vertex 4.55496 20 5.55014
      vertex 0 20 5
      vertex 3.19806 20 6.63223
    endloop
  endfacet
  facet normal 0 1 0
    outer loop
      vertex 0 20 5
      vertex 4.55496 20 5.55014
      vertex 10 20 5
    endloop
  endfacet
  facet normal -0.222523 0 -0.974928
    outer loop
      vertex 9.55496 0 4.44986
      vertex 11.247 10 4.06366
      vertex 11.247 0 4.06366
    endloop
  endfacet
  facet normal -0.222523 0 -0.974928
    outer loop
      vertex 11.247 10 4.06366
      vertex 9.55496 0 4.44986
      vertex 9.55496 10 4.44986
    endloop
  endfacet
  facet normal -0.900973 0 -0.433875
    outer loop
      vertex 12 0 2.5
      vertex 11.247 10 4.06366
      vertex 12 10 2.5
    endloop
  endfacet
  facet normal -0.900973 -0 -0.433875
    outer loop
      vertex 11.247 10 4.06366
      vertex 12 0 2.5
      vertex 11.247 0 4.06366
    endloop
  endfacet
  facet normal -0.900973 0 0.433874
    outer loop
      vertex 11.247 0 0.936337
      vertex 12 10 2.5
      vertex 11.247 10 0.936337
    endloop
  endfacet
  facet normal -0.900973 0 0.433874
    outer loop
      vertex 12 10 2.5
      vertex 11.247 0 0.936337
      vertex 12 0 2.5
    endloop
  endfacet
  facet normal 0.623489 0 -0.781832
    outer loop
      vertex 8.19806 0 3.36777
      vertex 9.55496 10 4.44986
      vertex 9.55496 0 4.44986
    endloop
  endfacet
  facet normal 0.623489 0 -0.781832
    outer loop
      vertex 9.55496 10 4.44986
      vertex 8.19806 0 3.36777
      vertex 8.19806 10 3.36777
    endloop
  endfacet
  facet normal 0.623488 0 0.781833
    outer loop
      vertex 8.19806 10 1.63223
      vertex 9.55496 0 0.550143
      vertex 9.55496 10 0.550143
    endloop
  endfacet
  facet normal 0.623488 0 0.781833
    outer loop
      vertex 9.55496 0 0.550143
      vertex 8.19806 10 1.63223
      vertex 8.19806 0 1.63223
    endloop
  endfacet
  facet normal -0.222519 0 0.974928
    outer loop
      vertex 9.55496 10 0.550143
      vertex 11.247 0 0.936337
      vertex 11.247 10 0.936337
    endloop
  endfacet
  facet normal -0.222519 0 0.974928
    outer loop
      vertex 11.247 0 0.936337
      vertex 9.55496 10 0.550143
      vertex 9.55496 0 0.550143
    endloop
  endfacet
  facet normal 1 -0 0
    outer loop
      vertex 8.19806 0 3.36777
      vertex 8.19806 10 1.63223
      vertex 8.19806 10 3.36777
    endloop
  endfacet
  facet normal 1 0 0
    outer loop
      vertex 8.19806 10 1.63223
      vertex 8.19806 0 3.36777
      vertex 8.19806 0 1.63223
    endloop
  endfacet
  facet normal -0.222525 0 -0.974927
    outer loop
      vertex 4.55496 10 9.44986
      vertex 6.24698 20 9.06366
      vertex 6.24698 10 9.06366
    endloop
  endfacet
  facet normal -0.222525 0 -0.974927
    outer loop
      vertex 6.24698 20 9.06366
      vertex 4.55496 10 9.44986
      vertex 4.55496 20 9.44986
    endloop
  endfacet
  facet normal -0.900969 0 -0.433884
    outer loop
      vertex 7 10 7.5
      vertex 6.24698 20 9.06366
      vertex 7 20 7.5
    endloop
  endfacet
  facet normal -0.900969 -0 -0.433884
    outer loop
      vertex 6.24698 20 9.06366
      vertex 7 10 7.5
      vertex 6.24698 10 9.06366
    endloop
  endfacet
  facet normal -0.900969 0 0.433884
    outer loop
      vertex 6.24698 10 5.93634
      vertex 7 20 7.5
      vertex 6.24698 20 5.93634
    endloop
  endfacet
  facet normal -0.900969 0 0.433884
    outer loop
      vertex 7 20 7.5
      vertex 6.24698 10 5.93634
      vertex 7 10 7.5
    endloop
  endfacet
  facet normal 0.623489 0 -0.781832
    outer loop
      vertex 3.19806 10 8.36777
      vertex 4.55496 20 9.44986
      vertex 4.55496 10 9.44986
    endloop
  endfacet
  facet normal 0.623489 0 -0.781832
    outer loop
      vertex 4.55496 20 9.44986
      vertex 3.19806 10 8.36777
      vertex 3.19806 20 8.36777
    endloop
  endfacet
  facet normal 0 1 0
    outer loop
      vertex 6.24698 10 9.06366
      vertex 3.19806 10 8.36777
      vertex 4.55496 10 9.44986
    endloop
  endfacet
  facet normal 0 1 0
    outer loop
      vertex 7 10 7.5
      vertex 3.19806 10 8.36777
      vertex 6.24698 10 9.06366
    endloop
  endfacet
  facet normal 0 1 0
    outer loop
      vertex 7 10 7.5
      vertex 3.19806 10 6.63223
      vertex 3.19806 10 8.36777
    endloop
  endfacet
  facet normal 0 1 -0
    outer loop
      vertex 6.24698 10 5.93634
      vertex 3.19806 10 6.63223
      vertex 7 10 7.5
    endloop
  endfacet
  facet normal 0 1 0
    outer loop
      vertex 3.19806 10 6.63223
      vertex 6.24698 10 5.93634
      vertex 4.55496 10 5.55014
    endloop
  endfacet
  facet normal 0.623489 0 0.781832
    outer loop
      vertex 3.19806 20 6.63223
      vertex 4.55496 10 5.55014
      vertex 4.55496 20 5.55014
    endloop
  endfacet
  facet normal 0.623489 0 0.781832
    outer loop
      vertex 4.55496 10 5.55014
      vertex 3.19806 20 6.63223
      vertex 3.19806 10 6.63223
    endloop
  endfacet
  facet normal -0.222525 0 0.974927
    outer loop
      vertex 4.55496 20 5.55014
      vertex 6.24698 10 5.93634
      vertex 6.24698 20 5.93634
    endloop
  endfacet
  facet normal -0.222525 0 0.974927
    outer loop
      vertex 6.24698 10 5.93634
      vertex 4.55496 20 5.55014
      vertex 4.55496 10 5.55014
    endloop
  endfacet
  facet normal 1 -0 0
    outer loop
      vertex 3.19806 10 8.36777
      vertex 3.19806 20 6.63223
      vertex 3.19806 20 8.36777
    endloop
  endfacet
  facet normal 1 0 0
    outer loop
      vertex 3.19806 20 6.63223
      vertex 3.19806 10 8.36777
      vertex 3.19806 10 6.63223
    endloop
  endfacet
  facet normal 1 -0 0
    outer loop
      vertex 50 0 5
      vertex 50 10 0
      vertex 50 10 5
    endloop
  endfacet
  facet normal 1 0 0
    outer loop
      vertex 50 10 0
      vertex 50 0 5
      vertex 50 0 0
    endloop
  endfacet
  facet normal 0 0 -1
    outer loop
      vertex 30 10 5
      vertex 40 20 5
      vertex 40 10 5
    endloop
  endfacet
  facet normal -0 0 -1
    outer loop
      vertex 40 20 5
      vertex 30 10 5
      vertex 30 20 5
    endloop
  endfacet
  facet normal -0 0 1
    outer loop
      vertex 40 10 5
      vertex 50 0 5
      vertex 50 10 5
    endloop
  endfacet
  facet normal 0 0 1
    outer loop
      vertex 50 0 5
      vertex 40 10 5
      vertex 40 0 5
    endloop
  endfacet
  facet normal 0 0 -1
    outer loop
      vertex 30 0 0
      vertex 50 10 0
      vertex 50 0 0
    endloop
  endfacet
  facet normal -0 0 -1
    outer loop
      vertex 50 10 0
      vertex 30 0 0
      vertex 30 10 0
    endloop
  endfacet
  facet normal -1 0 0
    outer loop
      vertex 30 10 0
      vertex 30 0 0
      vertex 30 10 5
    endloop
  endfacet
  facet normal -1 0 0
    outer loop
      vertex 30 10 5
      vertex 30 20 10
      vertex 30 20 5
    endloop
  endfacet
  facet normal -1 0 0
    outer loop
      vertex 30 0 10
      vertex 30 10 5
      vertex 30 0 0
    endloop
  endfacet
  facet normal -1 0 0
    outer loop
      vertex 30 10 5
      vertex 30 0 10
      vertex 30 20 10
    endloop
  endfacet
  facet normal 0 1 -0
    outer loop
      vertex 41.247 10 4.06366
      vertex 40 10 5
      vertex 50 10 5
    endloop
  endfacet
  facet normal 0 1 0
    outer loop
      vertex 38.1981 10 3.36777
      vertex 40 10 5
      vertex 39.555 10 4.44986
    endloop
  endfacet
  facet normal 0 1 0
    outer loop
      vertex 40 10 5
      vertex 41.247 10 4.06366
      vertex 39.555 10 4.44986
    endloop
  endfacet
  facet normal 0 1 0
    outer loop
      vertex 50 10 5
      vertex 42 10 2.5
      vertex 41.247 10 4.06366
    endloop
  endfacet
  facet normal 0 1 -0
    outer loop
      vertex 50 10 0
      vertex 42 10 2.5
      vertex 50 10 5
    endloop
  endfacet
  facet normal 0 1 0
    outer loop
      vertex 41.247 10 0.936337
      vertex 50 10 0
      vertex 39.555 10 0.550143
    endloop
  endfacet
  facet normal 0 1 0
    outer loop
      vertex 42 10 2.5
      vertex 50 10 0
      vertex 41.247 10 0.936337
    endloop
  endfacet
  facet normal 0 1 0
    outer loop
      vertex 40 10 5
      vertex 38.1981 10 3.36777
      vertex 30 10 5
    endloop
  endfacet
  facet normal 0 1 -0
    outer loop
      vertex 38.1981 10 1.63223
      vertex 30 10 5
      vertex 38.1981 10 3.36777
    endloop
  endfacet
  facet normal 0 1 0
    outer loop
      vertex 30 10 0
      vertex 38.1981 10 1.63223
      vertex 39.555 10 0.550143
    endloop
  endfacet
  facet normal 0 1 0
    outer loop
      vertex 38.1981 10 1.63223
      vertex 30 10 0
      vertex 30 10 5
    endloop
  endfacet
  facet normal 0 1 0
    outer loop
      vertex 30 10 0
      vertex 39.555 10 0.550143
      vertex 50 10 0
    endloop
  endfacet
  facet normal 0 -1 0
    outer loop
      vertex 38.1981 0 3.36777
      vertex 40 0 10
      vertex 30 0 10
    endloop
  endfacet
  facet normal 0 -1 0
    outer loop
      vertex 41.247 0 4.06366
      vertex 40 0 5
      vertex 39.555 0 4.44986
    endloop
  endfacet
  facet normal 0 -1 -0
    outer loop
      vertex 40 0 10
      vertex 39.555 0 4.44986
      vertex 40 0 5
    endloop
  endfacet
  facet normal 0 -1 0
    outer loop
      vertex 40 0 10
      vertex 38.1981 0 3.36777
      vertex 39.555 0 4.44986
    endloop
  endfacet
  facet normal 0 -1 0
    outer loop
      vertex 30 0 0
      vertex 38.1981 0 3.36777
      vertex 30 0 10
    endloop
  endfacet
  facet normal 0 -1 -0
    outer loop
      vertex 38.1981 0 1.63223
      vertex 30 0 0
      vertex 39.555 0 0.550143
    endloop
  endfacet
  facet normal 0 -1 -0
    outer loop
      vertex 38.1981 0 3.36777
      vertex 30 0 0
      vertex 38.1981 0 1.63223
    endloop
  endfacet
  facet normal 0 -1 0
    outer loop
      vertex 40 0 5
      vertex 41.247 0 4.06366
      vertex 50 0 5
    endloop
  endfacet
  facet normal 0 -1 0
    outer loop
      vertex 42 0 2.5
      vertex 50 0 5
      vertex 41.247 0 4.06366
    endloop
  endfacet
  facet normal 0 -1 0
    outer loop
      vertex 50 0 0
      vertex 42 0 2.5
      vertex 41.247 0 0.936337
    endloop
  endfacet
  facet normal 0 -1 0
    outer loop
      vertex 42 0 2.5
      vertex 50 0 0
      vertex 50 0 5
    endloop
  endfacet
  facet normal 0 -1 0
    outer loop
      vertex 39.555 0 0.550143
      vertex 50 0 0
      vertex 41.247 0 0.936337
    endloop
  endfacet
  facet normal 0 -1 0
    outer loop
      vertex 50 0 0
      vertex 39.555 0 0.550143
      vertex 30 0 0
    endloop
  endfacet
  facet normal 1 0 0
    outer loop
      vertex 40 20 10
      vertex 40 10 5
      vertex 40 20 5
    endloop
  endfacet
  facet normal 1 -0 0
    outer loop
      vertex 40 0 10
      vertex 40 10 5
      vertex 40 20 10
    endloop
  endfacet
  facet normal 1 0 0
    outer loop
      vertex 40 10 5
      vertex 40 0 10
      vertex 40 0 5
    endloop
  endfacet
  facet normal -0 0 1
    outer loop
      vertex 30 20 10
      vertex 40 0 10
      vertex 40 20 10
    endloop
  endfacet
  facet normal 0 0 1
    outer loop
      vertex 40 0 10
      vertex 30 20 10
      vertex 30 0 10
    endloop
  endfacet
  facet normal 0 1 0
    outer loop
      vertex 40 20 10
      vertex 34.555 20 9.44986
      vertex 30 20 10
    endloop
  endfacet
  facet normal 0 1 0
    outer loop
      vertex 40 20 10
      vertex 36.247 20 9.06366
      vertex 34.555 20 9.44986
    endloop
  endfacet
  facet normal 0 1 0
    outer loop
      vertex 40 20 10
      vertex 37 20 7.5
      vertex 36.247 20 9.06366
    endloop
  endfacet
  facet normal 0 1 -0
    outer loop
      vertex 40 20 5
      vertex 37 20 7.5
      vertex 40 20 10
    endloop
  endfacet
  facet normal 0 1 0
    outer loop
      vertex 36.247 20 5.93634
      vertex 40 20 5
      vertex 34.555 20 5.55014
    endloop
  endfacet
  facet normal 0 1 0
    outer loop
      vertex 37 20 7.5
      vertex 40 20 5
      vertex 36.247 20 5.93634
    endloop
  endfacet
  facet normal 0 1 -0
    outer loop
      vertex 33.1981 20 8.36777
      vertex 30 20 10
      vertex 34.555 20 9.44986
    endloop
  endfacet
  facet normal 0 1 -0
    outer loop
      vertex 33.1981 20 6.63223
      vertex 30 20 10
      vertex 33.1981 20 8.36777
    endloop
  endfacet
  facet normal 0 1 0
    outer loop
      vertex 33.1981 20 6.63223
      vertex 30 20 5
      vertex 30 20 10
    endloop
  endfacet
  facet normal 0 1 0
    outer loop
      vertex 34.555 20 5.55014
      vertex 30 20 5
      vertex 33.1981 20 6.63223
    endloop
  endfacet
  facet normal 0 1 0
    outer loop
      vertex 30 20 5
      vertex 34.555 20 5.55014
      vertex 40 20 5
    endloop
  endfacet
  facet normal -0.222528 0 -0.974926
    outer loop
      vertex 39.555 0 4.44986
      vertex 41.247 10 4.06366
      vertex 41.247 0 4.06366
    endloop
  endfacet
  facet normal -0.222528 0 -0.974926
    outer loop
      vertex 41.247 10 4.06366
      vertex 39.555 0 4.44986
      vertex 39.555 10 4.44986
    endloop
  endfacet
  facet normal -0.900973 0 -0.433875
    outer loop
      vertex 42 0 2.5
      vertex 41.247 10 4.06366
      vertex 42 10 2.5
    endloop
  endfacet
  facet normal -0.900973 -0 -0.433875
    outer loop
      vertex 41.247 10 4.06366
      vertex 42 0 2.5
      vertex 41.247 0 4.06366
    endloop
  endfacet
  facet normal -0.900973 0 0.433874
    outer loop
      vertex 41.247 0 0.936337
      vertex 42 10 2.5
      vertex 41.247 10 0.936337
    endloop
  endfacet
  facet normal -0.900973 0 0.433874
    outer loop
      vertex 42 10 2.5
      vertex 41.247 0 0.936337
      vertex 42 0 2.5
    endloop
  endfacet
  facet normal 0.623489 0 -0.781832
    outer loop
      vertex 38.1981 0 3.36777
      vertex 39.555 10 4.44986
      vertex 39.555 0 4.44986
    endloop
  endfacet
  facet normal 0.623489 0 -0.781832
    outer loop
      vertex 39.555 10 4.44986
      vertex 38.1981 0 3.36777
      vertex 38.1981 10 3.36777
    endloop
  endfacet
  facet normal 0.623488 0 0.781833
    outer loop
      vertex 38.1981 10 1.63223
      vertex 39.555 0 0.550143
      vertex 39.555 10 0.550143
    endloop
  endfacet
  facet normal 0.623488 0 0.781833
    outer loop
      vertex 39.555 0 0.550143
      vertex 38.1981 10 1.63223
      vertex 38.1981 0 1.63223
    endloop
  endfacet
  facet normal -0.222524 0 0.974927
    outer loop
      vertex 39.555 10 0.550143
      vertex 41.247 0 0.936337
      vertex 41.247 10 0.936337
    endloop
  endfacet
  facet normal -0.222524 0 0.974927
    outer loop
      vertex 41.247 0 0.936337
      vertex 39.555 10 0.550143
      vertex 39.555 0 0.550143
    endloop
  endfacet
  facet normal 1 -0 0
    outer loop
      vertex 38.1981 0 3.36777
      vertex 38.1981 10 1.63223
      vertex 38.1981 10 3.36777
    endloop
  endfacet
  facet normal 1 0 0
    outer loop
      vertex 38.1981 10 1.63223
      vertex 38.1981 0 3.36777
      vertex 38.1981 0 1.63223
    endloop
  endfacet
  facet normal -0.222528 0 -0.974926
    outer loop
      vertex 34.555 10 9.44986
      vertex 36.247 20 9.06366
      vertex 36.247 10 9.06366
    endloop
  endfacet
  facet normal -0.222528 0 -0.974926
    outer loop
      vertex 36.247 20 9.06366
      vertex 34.555 10 9.44986
      vertex 34.555 20 9.44986
    endloop
  endfacet
  facet normal -0.900973 0 -0.433875
    outer loop
      vertex 37 10 7.5
      vertex 36.247 20 9.06366
      vertex 37 20 7.5
    endloop
  endfacet
  facet normal -0.900973 -0 -0.433875
    outer loop
      vertex 36.247 20 9.06366
      vertex 37 10 7.5
      vertex 36.247 10 9.06366
    endloop
  endfacet
  facet normal -0.900973 0 0.433875
    outer loop
      vertex 36.247 10 5.93634
      vertex 37 20 7.5
      vertex 36.247 20 5.93634
    endloop
  endfacet
  facet normal -0.900973 0 0.433875
    outer loop
      vertex 37 20 7.5
      vertex 36.247 10 5.93634
      vertex 37 10 7.5
    endloop
  endfacet
  facet normal 0.623489 0 -0.781832
    outer loop
      vertex 33.1981 10 8.36777
      vertex 34.555 20 9.44986
      vertex 34.555 10 9.44986
    endloop
  endfacet
  facet normal 0.623489 0 -0.781832
    outer loop
      vertex 34.555 20 9.44986
      vertex 33.1981 10 8.36777
      vertex 33.1981 20 8.36777
    endloop
  endfacet
  facet normal 0 1 0
    outer loop
      vertex 36.247 10 9.06366
      vertex 33.1981 10 8.36777
      vertex 34.555 10 9.44986
    endloop
  endfacet
  facet normal 0 1 0
    outer loop
      vertex 37 10 7.5
      vertex 33.1981 10 8.36777
      vertex 36.247 10 9.06366
    endloop
  endfacet
  facet normal 0 1 0
    outer loop
      vertex 37 10 7.5
      vertex 33.1981 10 6.63223
      vertex 33.1981 10 8.36777
    endloop
  endfacet
  facet normal 0 1 -0
    outer loop
      vertex 36.247 10 5.93634
      vertex 33.1981 10 6.63223
      vertex 37 10 7.5
    endloop
  endfacet
  facet normal 0 1 0
    outer loop
      vertex 33.1981 10 6.63223
      vertex 36.247 10 5.93634
      vertex 34.555 10 5.55014
    endloop
  endfacet
  facet normal 0.623489 0 0.781832
    outer loop
      vertex 33.1981 20 6.63223
      vertex 34.555 10 5.55014
      vertex 34.555 20 5.55014
    endloop
  endfacet
  facet normal 0.623489 0 0.781832
    outer loop
      vertex 34.555 10 5.55014
      vertex 33.1981 20 6.63223
      vertex 33.1981 10 6.63223
    endloop
  endfacet
  facet normal -0.222528 0 0.974926
    outer loop
      vertex 34.555 20 5.55014
      vertex 36.247 10 5.93634
      vertex 36.247 20 5.93634
    endloop
  endfacet
  facet normal -0.222528 0 0.974926
    outer loop
      vertex 36.247 10 5.93634
      vertex 34.555 20 5.55014
      vertex 34.555 10 5.55014
    endloop
  endfacet
  facet normal 1 -0 0
    outer loop
      vertex 33.1981 10 8.36777
      vertex 33.1981 20 6.63223
      vertex 33.1981 20 8.36777
    endloop
  endfacet
  facet normal 1 0 0
    outer loop
      vertex 33.1981 20 6.63223
      vertex 33.1981 10 8.36777
      vertex 33.1981 10 6.63223
    endloop
  endfacet
endsolid OpenSCAD_Model
