solid OpenSCAD_Model
  facet normal 1 -0 0
    outer loop
      vertex 50 0 40
      vertex 50 30 0
      vertex 50 30 40
    endloop
  endfacet
  facet normal 1 0 0
    outer loop
      vertex 50 30 0
      vertex 50 0 40
      vertex 50 0 0
    endloop
  endfacet
  facet normal -0 0 1
    outer loop
      vertex 0 30 15
      vertex 8 0 15
      vertex 8 30 15
    endloop
  endfacet
  facet normal 0 0 1
    outer loop
      vertex 8 0 15
      vertex 0 30 15
      vertex 0 0 15
    endloop
  endfacet
  facet normal -1 0 0
    outer loop
      vertex 0 0 0
      vertex 0 30 15
      vertex 0 30 0
    endloop
  endfacet
  facet normal -1 -0 0
    outer loop
      vertex 0 30 15
      vertex 0 0 0
      vertex 0 0 15
    endloop
  endfacet
  facet normal 0 1 0
    outer loop
      vertex 50 30 40
      vertex 40 30 35
      vertex 40 30 40
    endloop
  endfacet
  facet normal 0 1 0
    outer loop
      vertex 40 30 35
      vertex 32 30 30
      vertex 32 30 35
    endloop
  endfacet
  facet normal 0 1 -0
    outer loop
      vertex 50 30 0
      vertex 40 30 35
      vertex 50 30 40
    endloop
  endfacet
  facet normal 0 1 0
    outer loop
      vertex 32 30 30
      vertex 24 30 25
      vertex 24 30 30
    endloop
  endfacet
  facet normal 0 1 0
    outer loop
      vertex 40 30 35
      vertex 50 30 0
      vertex 32 30 30
    endloop
  endfacet
  facet normal 0 1 0
    outer loop
      vertex 24 30 25
      vertex 16 30 20
      vertex 16 30 25
    endloop
  endfacet
  facet normal 0 1 0
    outer loop
      vertex 32 30 30
      vertex 50 30 0
      vertex 24 30 25
    endloop
  endfacet
  facet normal 0 1 0
    outer loop
      vertex 16 30 20
      vertex 8 30 15
      vertex 8 30 20
    endloop
  endfacet
  facet normal 0 1 0
    outer loop
      vertex 24 30 25
      vertex 50 30 0
      vertex 16 30 20
    endloop
  endfacet
  facet normal 0 1 0
    outer loop
      vertex 16 30 20
      vertex 50 30 0
      vertex 8 30 15
    endloop
  endfacet
  facet normal 0 1 0
    outer loop
      vertex 0 30 0
      vertex 8 30 15
      vertex 50 30 0
    endloop
  endfacet
  facet normal 0 1 0
    outer loop
      vertex 8 30 15
      vertex 0 30 0
      vertex 0 30 15
    endloop
  endfacet
  facet normal 0 -1 0
    outer loop
      vertex 0 0 15
      vertex 0 0 0
      vertex 8 0 15
    endloop
  endfacet
  facet normal 0 -1 0
    outer loop
      vertex 8 0 20
      vertex 8 0 15
      vertex 16 0 20
    endloop
  endfacet
  facet normal 0 -1 0
    outer loop
      vertex 16 0 25
      vertex 16 0 20
      vertex 24 0 25
    endloop
  endfacet
  facet normal 0 -1 0
    outer loop
      vertex 24 0 30
      vertex 24 0 25
      vertex 32 0 30
    endloop
  endfacet
  facet normal 0 -1 0
    outer loop
      vertex 32 0 35
      vertex 32 0 30
      vertex 40 0 35
    endloop
  endfacet
  facet normal 0 -1 0
    outer loop
      vertex 40 0 35
      vertex 50 0 40
      vertex 40 0 40
    endloop
  endfacet
  facet normal 0 -1 0
    outer loop
      vertex 50 0 0
      vertex 40 0 35
      vertex 32 0 30
    endloop
  endfacet
  facet normal 0 -1 0
    outer loop
      vertex 50 0 0
      vertex 32 0 30
      vertex 24 0 25
    endloop
  endfacet
  facet normal 0 -1 0
    outer loop
      vertex 50 0 0
      vertex 24 0 25
      vertex 16 0 20
    endloop
  endfacet
  facet normal 0 -1 0
    outer loop
      vertex 50 0 0
      vertex 16 0 20
      vertex 8 0 15
    endloop
  endfacet
  facet normal 0 -1 0
    outer loop
      vertex 50 0 0
      vertex 8 0 15
      vertex 0 0 0
    endloop
  endfacet
  facet normal 0 -1 0
    outer loop
      vertex 40 0 35
      vertex 50 0 0
      vertex 50 0 40
    endloop
  endfacet
  facet normal -0 0 1
    outer loop
      vertex 8 30 20
      vertex 16 0 20
      vertex 16 30 20
    endloop
  endfacet
  facet normal 0 0 1
    outer loop
      vertex 16 0 20
      vertex 8 30 20
      vertex 8 0 20
    endloop
  endfacet
  facet normal -1 0 0
    outer loop
      vertex 8 0 15
      vertex 8 30 20
      vertex 8 30 15
    endloop
  endfacet
  facet normal -1 -0 0
    outer loop
      vertex 8 30 20
      vertex 8 0 15
      vertex 8 0 20
    endloop
  endfacet
  facet normal -0 0 1
    outer loop
      vertex 16 30 25
      vertex 24 0 25
      vertex 24 30 25
    endloop
  endfacet
  facet normal 0 0 1
    outer loop
      vertex 24 0 25
      vertex 16 30 25
      vertex 16 0 25
    endloop
  endfacet
  facet normal -1 0 0
    outer loop
      vertex 16 0 20
      vertex 16 30 25
      vertex 16 30 20
    endloop
  endfacet
  facet normal -1 -0 0
    outer loop
      vertex 16 30 25
      vertex 16 0 20
      vertex 16 0 25
    endloop
  endfacet
  facet normal -0 0 1
    outer loop
      vertex 24 30 30
      vertex 32 0 30
      vertex 32 30 30
    endloop
  endfacet
  facet normal 0 0 1
    outer loop
      vertex 32 0 30
      vertex 24 30 30
      vertex 24 0 30
    endloop
  endfacet
  facet normal -1 0 0
    outer loop
      vertex 24 0 25
      vertex 24 30 30
      vertex 24 30 25
    endloop
  endfacet
  facet normal -1 -0 0
    outer loop
      vertex 24 30 30
      vertex 24 0 25
      vertex 24 0 30
    endloop
  endfacet
  facet normal -0 0 1
    outer loop
      vertex 32 30 35
      vertex 40 0 35
      vertex 40 30 35
    endloop
  endfacet
  facet normal 0 0 1
    outer loop
      vertex 40 0 35
      vertex 32 30 35
      vertex 32 0 35
    endloop
  endfacet
  facet normal -1 0 0
    outer loop
      vertex 32 0 30
      vertex 32 30 35
      vertex 32 30 30
    endloop
  endfacet
  facet normal -1 -0 0
    outer loop
      vertex 32 30 35
      vertex 32 0 30
      vertex 32 0 35
    endloop
  endfacet
  facet normal -0 0 1
    outer loop
      vertex 40 30 40
      vertex 50 0 40
      vertex 50 30 40
    endloop
  endfacet
  facet normal 0 0 1
    outer loop
      vertex 50 0 40
      vertex 40 30 40
      vertex 40 0 40
    endloop
  endfacet
  facet normal -1 0 0
    outer loop
      vertex 40 0 35
      vertex 40 30 40
      vertex 40 30 35
    endloop
  endfacet
  facet normal -1 -0 0
    outer loop
      vertex 40 30 40
      vertex 40 0 35
      vertex 40 0 40
    endloop
  endfacet
  facet normal 0 0 -1
    outer loop
      vertex 0 0 0
      vertex 50 30 0
      vertex 50 0 0
    endloop
  endfacet
  facet normal -0 0 -1
    outer loop
      vertex 50 30 0
      vertex 0 0 0
      vertex 0 30 0
    endloop
  endfacet
endsolid OpenSCAD_Model
