solid OpenSCAD_Model
  facet normal 1 0 0
    outer loop
      vertex 75 -6 135
      vertex 75 -10 135
      vertex 75 -6 119
    endloop
  endfacet
  facet normal 1 -0 0
    outer loop
      vertex 75 -6 119
      vertex 75 10 115
      vertex 75 10 119
    endloop
  endfacet
  facet normal 1 0 0
    outer loop
      vertex 75 -6 119
      vertex 75 -10 115
      vertex 75 10 115
    endloop
  endfacet
  facet normal 1 0 0
    outer loop
      vertex 75 -10 115
      vertex 75 -6 119
      vertex 75 -10 135
    endloop
  endfacet
  facet normal 0 0 1
    outer loop
      vertex -71 10 135
      vertex -75 10 135
      vertex -71 -6 135
    endloop
  endfacet
  facet normal -0 0 1
    outer loop
      vertex -71 -6 135
      vertex 75 -10 135
      vertex 75 -6 135
    endloop
  endfacet
  facet normal 0 0 1
    outer loop
      vertex -71 -6 135
      vertex -75 -10 135
      vertex 75 -10 135
    endloop
  endfacet
  facet normal 0 0 1
    outer loop
      vertex -75 -10 135
      vertex -71 -6 135
      vertex -75 10 135
    endloop
  endfacet
  facet normal 0 0 -1
    outer loop
      vertex -75 -10 115
      vertex 75 10 115
      vertex 75 -10 115
    endloop
  endfacet
  facet normal -0 0 -1
    outer loop
      vertex 75 10 115
      vertex -75 -10 115
      vertex -75 10 115
    endloop
  endfacet
  facet normal -1 0 0
    outer loop
      vertex -75 -10 115
      vertex -75 10 135
      vertex -75 10 115
    endloop
  endfacet
  facet normal -1 -0 0
    outer loop
      vertex -75 10 135
      vertex -75 -10 115
      vertex -75 -10 135
    endloop
  endfacet
  facet normal 0 1 0
    outer loop
      vertex 75 10 119
      vertex 75 10 115
      vertex -71 10 119
    endloop
  endfacet
  facet normal 0 1 -0
    outer loop
      vertex -71 10 119
      vertex -75 10 135
      vertex -71 10 135
    endloop
  endfacet
  facet normal 0 1 0
    outer loop
      vertex -71 10 119
      vertex -75 10 115
      vertex -75 10 135
    endloop
  endfacet
  facet normal 0 1 0
    outer loop
      vertex -75 10 115
      vertex -71 10 119
      vertex 75 10 115
    endloop
  endfacet
  facet normal 0 -1 0
    outer loop
      vertex -75 -10 115
      vertex 75 -10 135
      vertex -75 -10 135
    endloop
  endfacet
  facet normal 0 -1 -0
    outer loop
      vertex 75 -10 135
      vertex -75 -10 115
      vertex 75 -10 115
    endloop
  endfacet
  facet normal -0 0 1
    outer loop
      vertex -71 10 119
      vertex 75 -6 119
      vertex 75 10 119
    endloop
  endfacet
  facet normal 0 0 1
    outer loop
      vertex 75 -6 119
      vertex -71 10 119
      vertex -71 -6 119
    endloop
  endfacet
  facet normal 1 -0 0
    outer loop
      vertex -71 -6 135
      vertex -71 10 119
      vertex -71 10 135
    endloop
  endfacet
  facet normal 1 0 0
    outer loop
      vertex -71 10 119
      vertex -71 -6 135
      vertex -71 -6 119
    endloop
  endfacet
  facet normal 0 1 -0
    outer loop
      vertex 75 -6 119
      vertex -71 -6 135
      vertex 75 -6 135
    endloop
  endfacet
  facet normal 0 1 0
    outer loop
      vertex -71 -6 135
      vertex 75 -6 119
      vertex -71 -6 119
    endloop
  endfacet
  facet normal 1 0 0
    outer loop
      vertex 75 -6 110
      vertex 75 -10 110
      vertex 75 -6 94
    endloop
  endfacet
  facet normal 1 -0 0
    outer loop
      vertex 75 -6 94
      vertex 75 10 90
      vertex 75 10 94
    endloop
  endfacet
  facet normal 1 0 0
    outer loop
      vertex 75 -6 94
      vertex 75 -10 90
      vertex 75 10 90
    endloop
  endfacet
  facet normal 1 0 0
    outer loop
      vertex 75 -10 90
      vertex 75 -6 94
      vertex 75 -10 110
    endloop
  endfacet
  facet normal 0 0 1
    outer loop
      vertex -71 10 110
      vertex -75 10 110
      vertex -71 -6 110
    endloop
  endfacet
  facet normal -0 0 1
    outer loop
      vertex -71 -6 110
      vertex 75 -10 110
      vertex 75 -6 110
    endloop
  endfacet
  facet normal 0 0 1
    outer loop
      vertex -71 -6 110
      vertex -75 -10 110
      vertex 75 -10 110
    endloop
  endfacet
  facet normal 0 0 1
    outer loop
      vertex -75 -10 110
      vertex -71 -6 110
      vertex -75 10 110
    endloop
  endfacet
  facet normal 0 0 -1
    outer loop
      vertex -75 -10 90
      vertex 75 10 90
      vertex 75 -10 90
    endloop
  endfacet
  facet normal -0 0 -1
    outer loop
      vertex 75 10 90
      vertex -75 -10 90
      vertex -75 10 90
    endloop
  endfacet
  facet normal -1 0 0
    outer loop
      vertex -75 -10 90
      vertex -75 10 110
      vertex -75 10 90
    endloop
  endfacet
  facet normal -1 -0 0
    outer loop
      vertex -75 10 110
      vertex -75 -10 90
      vertex -75 -10 110
    endloop
  endfacet
  facet normal 0 1 0
    outer loop
      vertex 75 10 94
      vertex 75 10 90
      vertex -71 10 94
    endloop
  endfacet
  facet normal 0 1 -0
    outer loop
      vertex -71 10 94
      vertex -75 10 110
      vertex -71 10 110
    endloop
  endfacet
  facet normal 0 1 0
    outer loop
      vertex -71 10 94
      vertex -75 10 90
      vertex -75 10 110
    endloop
  endfacet
  facet normal 0 1 0
    outer loop
      vertex -75 10 90
      vertex -71 10 94
      vertex 75 10 90
    endloop
  endfacet
  facet normal 0 -1 0
    outer loop
      vertex -75 -10 90
      vertex 75 -10 110
      vertex -75 -10 110
    endloop
  endfacet
  facet normal 0 -1 -0
    outer loop
      vertex 75 -10 110
      vertex -75 -10 90
      vertex 75 -10 90
    endloop
  endfacet
  facet normal -0 0 1
    outer loop
      vertex -71 10 94
      vertex 75 -6 94
      vertex 75 10 94
    endloop
  endfacet
  facet normal 0 0 1
    outer loop
      vertex 75 -6 94
      vertex -71 10 94
      vertex -71 -6 94
    endloop
  endfacet
  facet normal 1 -0 0
    outer loop
      vertex -71 -6 110
      vertex -71 10 94
      vertex -71 10 110
    endloop
  endfacet
  facet normal 1 0 0
    outer loop
      vertex -71 10 94
      vertex -71 -6 110
      vertex -71 -6 94
    endloop
  endfacet
  facet normal 0 1 -0
    outer loop
      vertex 75 -6 94
      vertex -71 -6 110
      vertex 75 -6 110
    endloop
  endfacet
  facet normal 0 1 0
    outer loop
      vertex -71 -6 110
      vertex 75 -6 94
      vertex -71 -6 94
    endloop
  endfacet
  facet normal 1 0 0
    outer loop
      vertex 75 -6 85
      vertex 75 -10 85
      vertex 75 -6 69
    endloop
  endfacet
  facet normal 1 -0 0
    outer loop
      vertex 75 -6 69
      vertex 75 10 65
      vertex 75 10 69
    endloop
  endfacet
  facet normal 1 0 0
    outer loop
      vertex 75 -6 69
      vertex 75 -10 65
      vertex 75 10 65
    endloop
  endfacet
  facet normal 1 0 0
    outer loop
      vertex 75 -10 65
      vertex 75 -6 69
      vertex 75 -10 85
    endloop
  endfacet
  facet normal 0 0 1
    outer loop
      vertex -71 10 85
      vertex -75 10 85
      vertex -71 -6 85
    endloop
  endfacet
  facet normal -0 0 1
    outer loop
      vertex -71 -6 85
      vertex 75 -10 85
      vertex 75 -6 85
    endloop
  endfacet
  facet normal 0 0 1
    outer loop
      vertex -71 -6 85
      vertex -75 -10 85
      vertex 75 -10 85
    endloop
  endfacet
  facet normal 0 0 1
    outer loop
      vertex -75 -10 85
      vertex -71 -6 85
      vertex -75 10 85
    endloop
  endfacet
  facet normal 0 0 -1
    outer loop
      vertex -75 -10 65
      vertex 75 10 65
      vertex 75 -10 65
    endloop
  endfacet
  facet normal -0 0 -1
    outer loop
      vertex 75 10 65
      vertex -75 -10 65
      vertex -75 10 65
    endloop
  endfacet
  facet normal -1 0 0
    outer loop
      vertex -75 -10 65
      vertex -75 10 85
      vertex -75 10 65
    endloop
  endfacet
  facet normal -1 -0 0
    outer loop
      vertex -75 10 85
      vertex -75 -10 65
      vertex -75 -10 85
    endloop
  endfacet
  facet normal 0 1 0
    outer loop
      vertex 75 10 69
      vertex 75 10 65
      vertex -71 10 69
    endloop
  endfacet
  facet normal 0 1 -0
    outer loop
      vertex -71 10 69
      vertex -75 10 85
      vertex -71 10 85
    endloop
  endfacet
  facet normal 0 1 0
    outer loop
      vertex -71 10 69
      vertex -75 10 65
      vertex -75 10 85
    endloop
  endfacet
  facet normal 0 1 0
    outer loop
      vertex -75 10 65
      vertex -71 10 69
      vertex 75 10 65
    endloop
  endfacet
  facet normal 0 -1 0
    outer loop
      vertex -75 -10 65
      vertex 75 -10 85
      vertex -75 -10 85
    endloop
  endfacet
  facet normal 0 -1 -0
    outer loop
      vertex 75 -10 85
      vertex -75 -10 65
      vertex 75 -10 65
    endloop
  endfacet
  facet normal -0 0 1
    outer loop
      vertex -71 10 69
      vertex 75 -6 69
      vertex 75 10 69
    endloop
  endfacet
  facet normal 0 0 1
    outer loop
      vertex 75 -6 69
      vertex -71 10 69
      vertex -71 -6 69
    endloop
  endfacet
  facet normal 1 -0 0
    outer loop
      vertex -71 -6 85
      vertex -71 10 69
      vertex -71 10 85
    endloop
  endfacet
  facet normal 1 0 0
    outer loop
      vertex -71 10 69
      vertex -71 -6 85
      vertex -71 -6 69
    endloop
  endfacet
  facet normal 0 1 -0
    outer loop
      vertex 75 -6 69
      vertex -71 -6 85
      vertex 75 -6 85
    endloop
  endfacet
  facet normal 0 1 0
    outer loop
      vertex -71 -6 85
      vertex 75 -6 69
      vertex -71 -6 69
    endloop
  endfacet
  facet normal 1 0 0
    outer loop
      vertex 75 -6 60
      vertex 75 -10 60
      vertex 75 -6 44
    endloop
  endfacet
  facet normal 1 -0 0
    outer loop
      vertex 75 -6 44
      vertex 75 10 40
      vertex 75 10 44
    endloop
  endfacet
  facet normal 1 0 0
    outer loop
      vertex 75 -6 44
      vertex 75 -10 40
      vertex 75 10 40
    endloop
  endfacet
  facet normal 1 0 0
    outer loop
      vertex 75 -10 40
      vertex 75 -6 44
      vertex 75 -10 60
    endloop
  endfacet
  facet normal 0 0 1
    outer loop
      vertex -71 10 60
      vertex -75 10 60
      vertex -71 -6 60
    endloop
  endfacet
  facet normal -0 0 1
    outer loop
      vertex -71 -6 60
      vertex 75 -10 60
      vertex 75 -6 60
    endloop
  endfacet
  facet normal 0 0 1
    outer loop
      vertex -71 -6 60
      vertex -75 -10 60
      vertex 75 -10 60
    endloop
  endfacet
  facet normal 0 0 1
    outer loop
      vertex -75 -10 60
      vertex -71 -6 60
      vertex -75 10 60
    endloop
  endfacet
  facet normal 0 0 -1
    outer loop
      vertex -75 -10 40
      vertex 75 10 40
      vertex 75 -10 40
    endloop
  endfacet
  facet normal -0 0 -1
    outer loop
      vertex 75 10 40
      vertex -75 -10 40
      vertex -75 10 40
    endloop
  endfacet
  facet normal -1 0 0
    outer loop
      vertex -75 -10 40
      vertex -75 10 60
      vertex -75 10 40
    endloop
  endfacet
  facet normal -1 -0 0
    outer loop
      vertex -75 10 60
      vertex -75 -10 40
      vertex -75 -10 60
    endloop
  endfacet
  facet normal 0 1 0
    outer loop
      vertex 75 10 44
      vertex 75 10 40
      vertex -71 10 44
    endloop
  endfacet
  facet normal 0 1 -0
    outer loop
      vertex -71 10 44
      vertex -75 10 60
      vertex -71 10 60
    endloop
  endfacet
  facet normal 0 1 0
    outer loop
      vertex -71 10 44
      vertex -75 10 40
      vertex -75 10 60
    endloop
  endfacet
  facet normal 0 1 0
    outer loop
      vertex -75 10 40
      vertex -71 10 44
      vertex 75 10 40
    endloop
  endfacet
  facet normal 0 -1 0
    outer loop
      vertex -75 -10 40
      vertex 75 -10 60
      vertex -75 -10 60
    endloop
  endfacet
  facet normal 0 -1 -0
    outer loop
      vertex 75 -10 60
      vertex -75 -10 40
      vertex 75 -10 40
    endloop
  endfacet
  facet normal -0 0 1
    outer loop
      vertex -71 10 44
      vertex 75 -6 44
      vertex 75 10 44
    endloop
  endfacet
  facet normal 0 0 1
    outer loop
      vertex 75 -6 44
      vertex -71 10 44
      vertex -71 -6 44
    endloop
  endfacet
  facet normal 1 -0 0
    outer loop
      vertex -71 -6 60
      vertex -71 10 44
      vertex -71 10 60
    endloop
  endfacet
  facet normal 1 0 0
    outer loop
      vertex -71 10 44
      vertex -71 -6 60
      vertex -71 -6 44
    endloop
  endfacet
  facet normal 0 1 -0
    outer loop
      vertex 75 -6 44
      vertex -71 -6 60
      vertex 75 -6 60
    endloop
  endfacet
  facet normal 0 1 0
    outer loop
      vertex -71 -6 60
      vertex 75 -6 44
      vertex -71 -6 44
    endloop
  endfacet
  facet normal 1 0 0
    outer loop
      vertex 75 -6 35
      vertex 75 -10 35
      vertex 75 -6 19
    endloop
  endfacet
  facet normal 1 -0 0
    outer loop
      vertex 75 -6 19
      vertex 75 10 15
      vertex 75 10 19
    endloop
  endfacet
  facet normal 1 0 0
    outer loop
      vertex 75 -6 19
      vertex 75 -10 15
      vertex 75 10 15
    endloop
  endfacet
  facet normal 1 0 0
    outer loop
      vertex 75 -10 15
      vertex 75 -6 19
      vertex 75 -10 35
    endloop
  endfacet
  facet normal 0 0 1
    outer loop
      vertex -71 10 35
      vertex -75 10 35
      vertex -71 -6 35
    endloop
  endfacet
  facet normal -0 0 1
    outer loop
      vertex -71 -6 35
      vertex 75 -10 35
      vertex 75 -6 35
    endloop
  endfacet
  facet normal 0 0 1
    outer loop
      vertex -71 -6 35
      vertex -75 -10 35
      vertex 75 -10 35
    endloop
  endfacet
  facet normal 0 0 1
    outer loop
      vertex -75 -10 35
      vertex -71 -6 35
      vertex -75 10 35
    endloop
  endfacet
  facet normal 0 0 -1
    outer loop
      vertex -75 -10 15
      vertex 75 10 15
      vertex 75 -10 15
    endloop
  endfacet
  facet normal -0 0 -1
    outer loop
      vertex 75 10 15
      vertex -75 -10 15
      vertex -75 10 15
    endloop
  endfacet
  facet normal -1 0 0
    outer loop
      vertex -75 -10 15
      vertex -75 10 35
      vertex -75 10 15
    endloop
  endfacet
  facet normal -1 -0 0
    outer loop
      vertex -75 10 35
      vertex -75 -10 15
      vertex -75 -10 35
    endloop
  endfacet
  facet normal 0 1 0
    outer loop
      vertex 75 10 19
      vertex 75 10 15
      vertex -71 10 19
    endloop
  endfacet
  facet normal 0 1 -0
    outer loop
      vertex -71 10 19
      vertex -75 10 35
      vertex -71 10 35
    endloop
  endfacet
  facet normal 0 1 0
    outer loop
      vertex -71 10 19
      vertex -75 10 15
      vertex -75 10 35
    endloop
  endfacet
  facet normal 0 1 0
    outer loop
      vertex -75 10 15
      vertex -71 10 19
      vertex 75 10 15
    endloop
  endfacet
  facet normal 0 -1 0
    outer loop
      vertex -75 -10 15
      vertex 75 -10 35
      vertex -75 -10 35
    endloop
  endfacet
  facet normal 0 -1 -0
    outer loop
      vertex 75 -10 35
      vertex -75 -10 15
      vertex 75 -10 15
    endloop
  endfacet
  facet normal -0 0 1
    outer loop
      vertex -71 10 19
      vertex 75 -6 19
      vertex 75 10 19
    endloop
  endfacet
  facet normal 0 0 1
    outer loop
      vertex 75 -6 19
      vertex -71 10 19
      vertex -71 -6 19
    endloop
  endfacet
  facet normal 1 -0 0
    outer loop
      vertex -71 -6 35
      vertex -71 10 19
      vertex -71 10 35
    endloop
  endfacet
  facet normal 1 0 0
    outer loop
      vertex -71 10 19
      vertex -71 -6 35
      vertex -71 -6 19
    endloop
  endfacet
  facet normal 0 1 -0
    outer loop
      vertex 75 -6 19
      vertex -71 -6 35
      vertex 75 -6 35
    endloop
  endfacet
  facet normal 0 1 0
    outer loop
      vertex -71 -6 35
      vertex 75 -6 19
      vertex -71 -6 19
    endloop
  endfacet
  facet normal 1 0 0
    outer loop
      vertex 75 -6 10
      vertex 75 -10 10
      vertex 75 -6 -6
    endloop
  endfacet
  facet normal 1 -0 0
    outer loop
      vertex 75 -6 -6
      vertex 75 10 -10
      vertex 75 10 -6
    endloop
  endfacet
  facet normal 1 0 0
    outer loop
      vertex 75 -6 -6
      vertex 75 -10 -10
      vertex 75 10 -10
    endloop
  endfacet
  facet normal 1 0 0
    outer loop
      vertex 75 -10 -10
      vertex 75 -6 -6
      vertex 75 -10 10
    endloop
  endfacet
  facet normal 0 0 1
    outer loop
      vertex -71 10 10
      vertex -75 10 10
      vertex -71 -6 10
    endloop
  endfacet
  facet normal -0 0 1
    outer loop
      vertex -71 -6 10
      vertex 75 -10 10
      vertex 75 -6 10
    endloop
  endfacet
  facet normal 0 0 1
    outer loop
      vertex -71 -6 10
      vertex -75 -10 10
      vertex 75 -10 10
    endloop
  endfacet
  facet normal 0 0 1
    outer loop
      vertex -75 -10 10
      vertex -71 -6 10
      vertex -75 10 10
    endloop
  endfacet
  facet normal 0 0 -1
    outer loop
      vertex -75 -10 -10
      vertex 75 10 -10
      vertex 75 -10 -10
    endloop
  endfacet
  facet normal -0 0 -1
    outer loop
      vertex 75 10 -10
      vertex -75 -10 -10
      vertex -75 10 -10
    endloop
  endfacet
  facet normal -1 0 0
    outer loop
      vertex -75 -10 -10
      vertex -75 10 10
      vertex -75 10 -10
    endloop
  endfacet
  facet normal -1 -0 0
    outer loop
      vertex -75 10 10
      vertex -75 -10 -10
      vertex -75 -10 10
    endloop
  endfacet
  facet normal 0 1 0
    outer loop
      vertex 75 10 -6
      vertex 75 10 -10
      vertex -71 10 -6
    endloop
  endfacet
  facet normal 0 1 -0
    outer loop
      vertex -71 10 -6
      vertex -75 10 10
      vertex -71 10 10
    endloop
  endfacet
  facet normal 0 1 0
    outer loop
      vertex -71 10 -6
      vertex -75 10 -10
      vertex -75 10 10
    endloop
  endfacet
  facet normal 0 1 0
    outer loop
      vertex -75 10 -10
      vertex -71 10 -6
      vertex 75 10 -10
    endloop
  endfacet
  facet normal 0 -1 0
    outer loop
      vertex -75 -10 -10
      vertex 75 -10 10
      vertex -75 -10 10
    endloop
  endfacet
  facet normal 0 -1 -0
    outer loop
      vertex 75 -10 10
      vertex -75 -10 -10
      vertex 75 -10 -10
    endloop
  endfacet
  facet normal -0 0 1
    outer loop
      vertex -71 10 -6
      vertex 75 -6 -6
      vertex 75 10 -6
    endloop
  endfacet
  facet normal 0 0 1
    outer loop
      vertex 75 -6 -6
      vertex -71 10 -6
      vertex -71 -6 -6
    endloop
  endfacet
  facet normal 1 -0 0
    outer loop
      vertex -71 -6 10
      vertex -71 10 -6
      vertex -71 10 10
    endloop
  endfacet
  facet normal 1 0 0
    outer loop
      vertex -71 10 -6
      vertex -71 -6 10
      vertex -71 -6 -6
    endloop
  endfacet
  facet normal 0 1 -0
    outer loop
      vertex 75 -6 -6
      vertex -71 -6 10
      vertex 75 -6 10
    endloop
  endfacet
  facet normal 0 1 0
    outer loop
      vertex -71 -6 10
      vertex 75 -6 -6
      vertex -71 -6 -6
    endloop
  endfacet
endsolid OpenSCAD_Model
