solid OpenSCAD_Model
  facet normal 1 0 0
    outer loop
      vertex 10 5 20
      vertex 10 -5 20
      vertex 10 5 10
    endloop
  endfacet
  facet normal 1 -0 0
    outer loop
      vertex 10 5 10
      vertex 10 10 0
      vertex 10 10 10
    endloop
  endfacet
  facet normal 1 0 0
    outer loop
      vertex 10 -5 10
      vertex 10 5 10
      vertex 10 -5 20
    endloop
  endfacet
  facet normal 1 0 0
    outer loop
      vertex 10 5 10
      vertex 10 -5 10
      vertex 10 10 0
    endloop
  endfacet
  facet normal 1 0 0
    outer loop
      vertex 10 -10 0
      vertex 10 -5 10
      vertex 10 -10 10
    endloop
  endfacet
  facet normal 1 0 0
    outer loop
      vertex 10 -5 10
      vertex 10 -10 0
      vertex 10 10 0
    endloop
  endfacet
  facet normal -0 0 1
    outer loop
      vertex -10 5 20
      vertex -5 0 20
      vertex -5 5 20
    endloop
  endfacet
  facet normal 0 0 1
    outer loop
      vertex -10 -5 20
      vertex -5 0 20
      vertex -10 5 20
    endloop
  endfacet
  facet normal 0 0 1
    outer loop
      vertex -5 0 20
      vertex -10 -5 20
      vertex -5 -5 20
    endloop
  endfacet
  facet normal 0 0 1
    outer loop
      vertex 5 0 20
      vertex 10 5 20
      vertex 5 5 20
    endloop
  endfacet
  facet normal 0 0 1
    outer loop
      vertex 10 5 20
      vertex 5 0 20
      vertex 10 -5 20
    endloop
  endfacet
  facet normal 0 0 1
    outer loop
      vertex 10 -5 20
      vertex 5 0 20
      vertex 5 -5 20
    endloop
  endfacet
  facet normal 0 0 -1
    outer loop
      vertex -5 0 20
      vertex 5 5 20
      vertex 5 0 20
    endloop
  endfacet
  facet normal -0 0 -1
    outer loop
      vertex 5 5 20
      vertex -5 0 20
      vertex -5 5 20
    endloop
  endfacet
  facet normal -0 0 1
    outer loop
      vertex -10 10 10
      vertex -5 5 10
      vertex -5 10 10
    endloop
  endfacet
  facet normal 0 0 1
    outer loop
      vertex -5 5 10
      vertex -10 10 10
      vertex -10 5 10
    endloop
  endfacet
  facet normal -0 0 1
    outer loop
      vertex 5 10 10
      vertex 10 5 10
      vertex 10 10 10
    endloop
  endfacet
  facet normal 0 0 1
    outer loop
      vertex 10 5 10
      vertex 5 10 10
      vertex 5 5 10
    endloop
  endfacet
  facet normal 0 0 1
    outer loop
      vertex 5 5 10
      vertex -5 5 10
      vertex 5 -5 10
    endloop
  endfacet
  facet normal -0 0 1
    outer loop
      vertex 5 -5 10
      vertex 10 -10 10
      vertex 10 -5 10
    endloop
  endfacet
  facet normal 0 0 1
    outer loop
      vertex -5 -5 10
      vertex 5 -5 10
      vertex -5 5 10
    endloop
  endfacet
  facet normal 0 0 1
    outer loop
      vertex 5 -5 10
      vertex -5 -5 10
      vertex 10 -10 10
    endloop
  endfacet
  facet normal 0 0 1
    outer loop
      vertex -10 -10 10
      vertex -5 -5 10
      vertex -10 -5 10
    endloop
  endfacet
  facet normal 0 0 1
    outer loop
      vertex -5 -5 10
      vertex -10 -10 10
      vertex 10 -10 10
    endloop
  endfacet
  facet normal -1 0 0
    outer loop
      vertex -10 10 0
      vertex -10 5 10
      vertex -10 10 10
    endloop
  endfacet
  facet normal -1 0 0
    outer loop
      vertex -10 5 10
      vertex -10 -5 10
      vertex -10 5 20
    endloop
  endfacet
  facet normal -1 0 0
    outer loop
      vertex -10 10 0
      vertex -10 -5 10
      vertex -10 5 10
    endloop
  endfacet
  facet normal -1 0 0
    outer loop
      vertex -10 -10 0
      vertex -10 -5 10
      vertex -10 10 0
    endloop
  endfacet
  facet normal -1 -0 0
    outer loop
      vertex -10 -5 10
      vertex -10 -10 0
      vertex -10 -10 10
    endloop
  endfacet
  facet normal -1 -0 0
    outer loop
      vertex -10 5 20
      vertex -10 -5 10
      vertex -10 -5 20
    endloop
  endfacet
  facet normal 0 1 -0
    outer loop
      vertex -5 5 10
      vertex -10 5 20
      vertex -5 5 20
    endloop
  endfacet
  facet normal 0 1 0
    outer loop
      vertex -10 5 20
      vertex -5 5 10
      vertex -10 5 10
    endloop
  endfacet
  facet normal 0 1 -0
    outer loop
      vertex 10 5 10
      vertex 5 5 20
      vertex 10 5 20
    endloop
  endfacet
  facet normal 0 1 0
    outer loop
      vertex 5 5 20
      vertex 10 5 10
      vertex 5 5 10
    endloop
  endfacet
  facet normal 0 -1 0
    outer loop
      vertex -10 -5 10
      vertex -5 -5 20
      vertex -10 -5 20
    endloop
  endfacet
  facet normal 0 -1 -0
    outer loop
      vertex -5 -5 20
      vertex -10 -5 10
      vertex -5 -5 10
    endloop
  endfacet
  facet normal 0 -1 0
    outer loop
      vertex 5 -5 10
      vertex 10 -5 20
      vertex 5 -5 20
    endloop
  endfacet
  facet normal 0 -1 -0
    outer loop
      vertex 10 -5 20
      vertex 5 -5 10
      vertex 10 -5 10
    endloop
  endfacet
  facet normal 1 0 0
    outer loop
      vertex 5 10 30
      vertex 5 5 20
      vertex 5 10 10
    endloop
  endfacet
  facet normal 1 -0 0
    outer loop
      vertex 5 0 30
      vertex 5 5 20
      vertex 5 10 30
    endloop
  endfacet
  facet normal 1 0 0
    outer loop
      vertex 5 5 20
      vertex 5 0 30
      vertex 5 0 20
    endloop
  endfacet
  facet normal 1 0 0
    outer loop
      vertex 5 10 10
      vertex 5 5 20
      vertex 5 5 10
    endloop
  endfacet
  facet normal -0 0 1
    outer loop
      vertex -5 10 30
      vertex 5 0 30
      vertex 5 10 30
    endloop
  endfacet
  facet normal 0 0 1
    outer loop
      vertex 5 0 30
      vertex -5 10 30
      vertex -5 0 30
    endloop
  endfacet
  facet normal -1 0 0
    outer loop
      vertex -5 5 20
      vertex -5 10 10
      vertex -5 5 10
    endloop
  endfacet
  facet normal -1 0 0
    outer loop
      vertex -5 10 10
      vertex -5 5 20
      vertex -5 10 30
    endloop
  endfacet
  facet normal -1 0 0
    outer loop
      vertex -5 0 30
      vertex -5 5 20
      vertex -5 0 20
    endloop
  endfacet
  facet normal -1 0 0
    outer loop
      vertex -5 5 20
      vertex -5 0 30
      vertex -5 10 30
    endloop
  endfacet
  facet normal 0 1 -0
    outer loop
      vertex 10 10 0
      vertex 5 10 10
      vertex 10 10 10
    endloop
  endfacet
  facet normal 0 1 0
    outer loop
      vertex 5 10 10
      vertex 10 10 0
      vertex -5 10 10
    endloop
  endfacet
  facet normal 0 1 0
    outer loop
      vertex -10 10 0
      vertex -5 10 10
      vertex 10 10 0
    endloop
  endfacet
  facet normal 0 1 0
    outer loop
      vertex -5 10 10
      vertex -10 10 0
      vertex -10 10 10
    endloop
  endfacet
  facet normal 0 1 -0
    outer loop
      vertex 5 10 10
      vertex -5 10 30
      vertex 5 10 30
    endloop
  endfacet
  facet normal 0 1 0
    outer loop
      vertex -5 10 30
      vertex 5 10 10
      vertex -5 10 10
    endloop
  endfacet
  facet normal 0 -1 0
    outer loop
      vertex -5 0 20
      vertex 5 0 30
      vertex -5 0 30
    endloop
  endfacet
  facet normal 0 -1 -0
    outer loop
      vertex 5 0 30
      vertex -5 0 20
      vertex 5 0 20
    endloop
  endfacet
  facet normal -1 0 0
    outer loop
      vertex 5 5 10
      vertex 5 0 20
      vertex 5 5 20
    endloop
  endfacet
  facet normal -1 0 0
    outer loop
      vertex 5 -5 10
      vertex 5 0 20
      vertex 5 5 10
    endloop
  endfacet
  facet normal -1 -0 0
    outer loop
      vertex 5 0 20
      vertex 5 -5 10
      vertex 5 -5 20
    endloop
  endfacet
  facet normal 1 -0 0
    outer loop
      vertex -5 0 20
      vertex -5 5 10
      vertex -5 5 20
    endloop
  endfacet
  facet normal 1 0 0
    outer loop
      vertex -5 -5 10
      vertex -5 0 20
      vertex -5 -5 20
    endloop
  endfacet
  facet normal 1 0 0
    outer loop
      vertex -5 0 20
      vertex -5 -5 10
      vertex -5 5 10
    endloop
  endfacet
  facet normal 0 -1 0
    outer loop
      vertex -5 5 10
      vertex 5 5 20
      vertex -5 5 20
    endloop
  endfacet
  facet normal 0 -1 -0
    outer loop
      vertex 5 5 20
      vertex -5 5 10
      vertex 5 5 10
    endloop
  endfacet
  facet normal 0 0 -1
    outer loop
      vertex -10 -10 0
      vertex 10 10 0
      vertex 10 -10 0
    endloop
  endfacet
  facet normal -0 0 -1
    outer loop
      vertex 10 10 0
      vertex -10 -10 0
      vertex -10 10 0
    endloop
  endfacet
  facet normal 0 -1 0
    outer loop
      vertex -10 -10 0
      vertex 10 -10 10
      vertex -10 -10 10
    endloop
  endfacet
  facet normal 0 -1 -0
    outer loop
      vertex 10 -10 10
      vertex -10 -10 0
      vertex 10 -10 0
    endloop
  endfacet
endsolid OpenSCAD_Model
