solid OpenSCAD_Model
  facet normal 0 0 -1
    outer loop
      vertex 0 5 0
      vertex 20 0 0
      vertex 0 0 0
    endloop
  endfacet
  facet normal 0 0 -1
    outer loop
      vertex 20 0 0
      vertex 0 5 0
      vertex 20 10 0
    endloop
  endfacet
  facet normal 1 -0 0
    outer loop
      vertex 20 0 10
      vertex 20 10 0
      vertex 20 10 10
    endloop
  endfacet
  facet normal 1 0 0
    outer loop
      vertex 20 10 0
      vertex 20 0 10
      vertex 20 0 0
    endloop
  endfacet
  facet normal 0 -1 0
    outer loop
      vertex 0 0 5
      vertex 20 0 10
      vertex 0 0 10
    endloop
  endfacet
  facet normal 0 -1 0
    outer loop
      vertex 20 0 0
      vertex 0 0 5
      vertex 0 0 0
    endloop
  endfacet
  facet normal 0 -1 0
    outer loop
      vertex 0 0 5
      vertex 20 0 0
      vertex 20 0 10
    endloop
  endfacet
  facet normal -1 0 0
    outer loop
      vertex 0 0 5
      vertex 0 5 10
      vertex 0 5 0
    endloop
  endfacet
  facet normal -1 0 0
    outer loop
      vertex 0 0 5
      vertex 0 5 0
      vertex 0 0 0
    endloop
  endfacet
  facet normal -1 -0 0
    outer loop
      vertex 0 5 10
      vertex 0 0 5
      vertex 0 4 10
    endloop
  endfacet
  facet normal -1 -0 0
    outer loop
      vertex 0 4 10
      vertex 0 0 5
      vertex 0 0 10
    endloop
  endfacet
  facet normal -0.242536 0.970143 0
    outer loop
      vertex 20 10 0
      vertex 0 5 10
      vertex 20 10 10
    endloop
  endfacet
  facet normal -0.242536 0.970143 0
    outer loop
      vertex 0 5 10
      vertex 20 10 0
      vertex 0 5 0
    endloop
  endfacet
  facet normal -0 0 1
    outer loop
      vertex 0 5 10
      vertex 20 0 10
      vertex 20 10 10
    endloop
  endfacet
  facet normal -0 0 1
    outer loop
      vertex 0 4 10
      vertex 20 0 10
      vertex 0 5 10
    endloop
  endfacet
  facet normal 0 0 1
    outer loop
      vertex 20 0 10
      vertex 0 4 10
      vertex 0 0 10
    endloop
  endfacet
  facet normal 0 0 -1
    outer loop
      vertex 0 0 10
      vertex -6 10 10
      vertex 0 4 10
    endloop
  endfacet
  facet normal -0 -0 -1
    outer loop
      vertex -6 10 10
      vertex 0 0 10
      vertex -10 10 10
    endloop
  endfacet
  facet normal 0 0 -1
    outer loop
      vertex -6 10 10
      vertex 0 20 10
      vertex 0 16 10
    endloop
  endfacet
  facet normal 0 0 -1
    outer loop
      vertex 0 20 10
      vertex -6 10 10
      vertex -10 10 10
    endloop
  endfacet
  facet normal 1 -0 0
    outer loop
      vertex 0 0 20
      vertex 0 4 10
      vertex 0 4 20
    endloop
  endfacet
  facet normal 1 0 0
    outer loop
      vertex 0 4 10
      vertex 0 0 20
      vertex 0 0 10
    endloop
  endfacet
  facet normal 1 -0 0
    outer loop
      vertex 0 16 20
      vertex 0 20 10
      vertex 0 20 20
    endloop
  endfacet
  facet normal 1 0 0
    outer loop
      vertex 0 20 10
      vertex 0 16 20
      vertex 0 16 10
    endloop
  endfacet
  facet normal 0 0 1
    outer loop
      vertex 0 20 20
      vertex -6 10 20
      vertex 0 16 20
    endloop
  endfacet
  facet normal 0 -0 1
    outer loop
      vertex -6 10 20
      vertex 0 20 20
      vertex -10 10 20
    endloop
  endfacet
  facet normal 0 0 1
    outer loop
      vertex -6 10 20
      vertex 0 0 20
      vertex 0 4 20
    endloop
  endfacet
  facet normal 0 0 1
    outer loop
      vertex 0 0 20
      vertex -6 10 20
      vertex -10 10 20
    endloop
  endfacet
  facet normal -0.707107 0.707107 0
    outer loop
      vertex -10 10 10
      vertex 0 20 20
      vertex 0 20 10
    endloop
  endfacet
  facet normal -0.707107 0.707107 0
    outer loop
      vertex 0 20 20
      vertex -10 10 10
      vertex -10 10 20
    endloop
  endfacet
  facet normal -0.707107 -0.707107 0
    outer loop
      vertex 0 0 10
      vertex -10 10 20
      vertex -10 10 10
    endloop
  endfacet
  facet normal -0.707107 -0.707107 0
    outer loop
      vertex -10 10 20
      vertex 0 0 10
      vertex 0 0 20
    endloop
  endfacet
  facet normal 0.707107 -0.707107 0
    outer loop
      vertex -6 10 20
      vertex 0 16 10
      vertex 0 16 20
    endloop
  endfacet
  facet normal 0.707107 -0.707107 0
    outer loop
      vertex 0 16 10
      vertex -6 10 20
      vertex -6 10 10
    endloop
  endfacet
  facet normal 0.707107 0.707107 0
    outer loop
      vertex 0 4 20
      vertex -6 10 10
      vertex -6 10 20
    endloop
  endfacet
  facet normal 0.707107 0.707107 0
    outer loop
      vertex -6 10 10
      vertex 0 4 20
      vertex 0 4 10
    endloop
  endfacet
  facet normal 0 0 -1
    outer loop
      vertex 25 0 20
      vertex 5 0 20
      vertex 15 10 20
    endloop
  endfacet
  facet normal 0 -1 0
    outer loop
      vertex 5 0 20
      vertex 25 0 30
      vertex 5 0 30
    endloop
  endfacet
  facet normal 0 -1 -0
    outer loop
      vertex 25 0 30
      vertex 5 0 20
      vertex 25 0 20
    endloop
  endfacet
  facet normal 0 0 1
    outer loop
      vertex 15 10 30
      vertex 5 0 30
      vertex 25 0 30
    endloop
  endfacet
  facet normal 0.707107 0.707107 0
    outer loop
      vertex 25 0 30
      vertex 15 10 20
      vertex 15 10 30
    endloop
  endfacet
  facet normal 0.707107 0.707107 0
    outer loop
      vertex 15 10 20
      vertex 25 0 30
      vertex 25 0 20
    endloop
  endfacet
  facet normal -0.707107 0.707107 0
    outer loop
      vertex 5 0 20
      vertex 15 10 30
      vertex 15 10 20
    endloop
  endfacet
  facet normal -0.707107 0.707107 0
    outer loop
      vertex 15 10 30
      vertex 5 0 20
      vertex 5 0 30
    endloop
  endfacet
endsolid OpenSCAD_Model
