solid OpenSCAD_Model
  facet normal 1 -0 0
    outer loop
      vertex 30 0 40
      vertex 30 20 0
      vertex 30 20 40
    endloop
  endfacet
  facet normal 1 0 0
    outer loop
      vertex 30 20 0
      vertex 30 0 40
      vertex 30 0 0
    endloop
  endfacet
  facet normal -0 0 1
    outer loop
      vertex 0 20 40
      vertex 10 0 40
      vertex 10 20 40
    endloop
  endfacet
  facet normal 0 0 1
    outer loop
      vertex 10 0 40
      vertex 0 20 40
      vertex 0 0 40
    endloop
  endfacet
  facet normal -0 0 1
    outer loop
      vertex 20 20 40
      vertex 30 0 40
      vertex 30 20 40
    endloop
  endfacet
  facet normal 0 0 1
    outer loop
      vertex 30 0 40
      vertex 20 20 40
      vertex 20 0 40
    endloop
  endfacet
  facet normal 0 0 -1
    outer loop
      vertex 0 0 0
      vertex 30 20 0
      vertex 30 0 0
    endloop
  endfacet
  facet normal -0 0 -1
    outer loop
      vertex 30 20 0
      vertex 0 0 0
      vertex 0 20 0
    endloop
  endfacet
  facet normal -1 0 0
    outer loop
      vertex 0 0 0
      vertex 0 20 40
      vertex 0 20 0
    endloop
  endfacet
  facet normal -1 -0 0
    outer loop
      vertex 0 20 40
      vertex 0 0 0
      vertex 0 0 40
    endloop
  endfacet
  facet normal 0 1 0
    outer loop
      vertex 30 20 40
      vertex 20 20 20
      vertex 20 20 40
    endloop
  endfacet
  facet normal 0 1 0
    outer loop
      vertex 20 20 20
      vertex 30 20 0
      vertex 10 20 20
    endloop
  endfacet
  facet normal 0 1 -0
    outer loop
      vertex 30 20 0
      vertex 20 20 20
      vertex 30 20 40
    endloop
  endfacet
  facet normal 0 1 -0
    outer loop
      vertex 10 20 20
      vertex 0 20 40
      vertex 10 20 40
    endloop
  endfacet
  facet normal 0 1 0
    outer loop
      vertex 10 20 20
      vertex 0 20 0
      vertex 0 20 40
    endloop
  endfacet
  facet normal 0 1 0
    outer loop
      vertex 0 20 0
      vertex 10 20 20
      vertex 30 20 0
    endloop
  endfacet
  facet normal 0 -1 0
    outer loop
      vertex 0 0 40
      vertex 10 0 20
      vertex 10 0 40
    endloop
  endfacet
  facet normal 0 -1 -0
    outer loop
      vertex 10 0 20
      vertex 0 0 0
      vertex 20 0 20
    endloop
  endfacet
  facet normal 0 -1 0
    outer loop
      vertex 0 0 0
      vertex 10 0 20
      vertex 0 0 40
    endloop
  endfacet
  facet normal 0 -1 0
    outer loop
      vertex 20 0 20
      vertex 30 0 40
      vertex 20 0 40
    endloop
  endfacet
  facet normal 0 -1 0
    outer loop
      vertex 20 0 20
      vertex 30 0 0
      vertex 30 0 40
    endloop
  endfacet
  facet normal 0 -1 0
    outer loop
      vertex 30 0 0
      vertex 20 0 20
      vertex 0 0 0
    endloop
  endfacet
  facet normal -1 0 0
    outer loop
      vertex 20 0 20
      vertex 20 20 40
      vertex 20 20 20
    endloop
  endfacet
  facet normal -1 -0 0
    outer loop
      vertex 20 20 40
      vertex 20 0 20
      vertex 20 0 40
    endloop
  endfacet
  facet normal -0 0 1
    outer loop
      vertex 10 20 20
      vertex 20 0 20
      vertex 20 20 20
    endloop
  endfacet
  facet normal 0 0 1
    outer loop
      vertex 20 0 20
      vertex 10 20 20
      vertex 10 0 20
    endloop
  endfacet
  facet normal 1 -0 0
    outer loop
      vertex 10 0 40
      vertex 10 20 20
      vertex 10 20 40
    endloop
  endfacet
  facet normal 1 0 0
    outer loop
      vertex 10 20 20
      vertex 10 0 40
      vertex 10 0 20
    endloop
  endfacet
  facet normal 1 -0 0
    outer loop
      vertex 20 0 70
      vertex 20 20 65
      vertex 20 20 70
    endloop
  endfacet
  facet normal 1 0 0
    outer loop
      vertex 20 0 40
      vertex 20 20 65
      vertex 20 0 70
    endloop
  endfacet
  facet normal 1 0 0
    outer loop
      vertex 20 20 65
      vertex 20 0 40
      vertex 20 20 40
    endloop
  endfacet
  facet normal 0 0 1
    outer loop
      vertex 60 30 70
      vertex 20 20 70
      vertex 60 20 70
    endloop
  endfacet
  facet normal -0 0 1
    outer loop
      vertex 10 30 70
      vertex 20 20 70
      vertex 60 30 70
    endloop
  endfacet
  facet normal 0 0 1
    outer loop
      vertex 10 0 70
      vertex 20 20 70
      vertex 10 30 70
    endloop
  endfacet
  facet normal 0 0 1
    outer loop
      vertex 20 20 70
      vertex 10 0 70
      vertex 20 0 70
    endloop
  endfacet
  facet normal 0 0 -1
    outer loop
      vertex 10 0 40
      vertex 20 20 40
      vertex 20 0 40
    endloop
  endfacet
  facet normal -0 0 -1
    outer loop
      vertex 20 20 40
      vertex 10 0 40
      vertex 10 20 40
    endloop
  endfacet
  facet normal -1 0 0
    outer loop
      vertex 10 20 40
      vertex 10 0 40
      vertex 10 20 65
    endloop
  endfacet
  facet normal -1 0 0
    outer loop
      vertex 10 20 65
      vertex 10 30 70
      vertex 10 30 65
    endloop
  endfacet
  facet normal -1 0 0
    outer loop
      vertex 10 20 65
      vertex 10 0 70
      vertex 10 30 70
    endloop
  endfacet
  facet normal -1 0 0
    outer loop
      vertex 10 0 70
      vertex 10 20 65
      vertex 10 0 40
    endloop
  endfacet
  facet normal 0 1 -0
    outer loop
      vertex 20 20 40
      vertex 10 20 65
      vertex 20 20 65
    endloop
  endfacet
  facet normal 0 1 0
    outer loop
      vertex 10 20 65
      vertex 20 20 40
      vertex 10 20 40
    endloop
  endfacet
  facet normal 0 -1 0
    outer loop
      vertex 20 20 65
      vertex 60 20 70
      vertex 20 20 70
    endloop
  endfacet
  facet normal 0 -1 -0
    outer loop
      vertex 60 20 70
      vertex 20 20 65
      vertex 60 20 65
    endloop
  endfacet
  facet normal 0 -1 0
    outer loop
      vertex 10 0 40
      vertex 20 0 70
      vertex 10 0 70
    endloop
  endfacet
  facet normal 0 -1 -0
    outer loop
      vertex 20 0 70
      vertex 10 0 40
      vertex 20 0 40
    endloop
  endfacet
  facet normal 1 -0 0
    outer loop
      vertex 60 20 70
      vertex 60 30 65
      vertex 60 30 70
    endloop
  endfacet
  facet normal 1 0 0
    outer loop
      vertex 60 30 65
      vertex 60 20 70
      vertex 60 20 65
    endloop
  endfacet
  facet normal 0 0 -1
    outer loop
      vertex 20 20 65
      vertex 60 30 65
      vertex 60 20 65
    endloop
  endfacet
  facet normal 0 0 -1
    outer loop
      vertex 10 30 65
      vertex 20 20 65
      vertex 10 20 65
    endloop
  endfacet
  facet normal 0 0 -1
    outer loop
      vertex 20 20 65
      vertex 10 30 65
      vertex 60 30 65
    endloop
  endfacet
  facet normal 0 1 -0
    outer loop
      vertex 60 30 65
      vertex 10 30 70
      vertex 60 30 70
    endloop
  endfacet
  facet normal 0 1 0
    outer loop
      vertex 10 30 70
      vertex 60 30 65
      vertex 10 30 65
    endloop
  endfacet
endsolid OpenSCAD_Model
