solid OpenSCAD_Model
  facet normal -0 0 1
    outer loop
      vertex 0 20 40
      vertex 40 0 40
      vertex 40 20 40
    endloop
  endfacet
  facet normal 0 0 1
    outer loop
      vertex 40 0 40
      vertex 0 20 40
      vertex 0 0 40
    endloop
  endfacet
  facet normal -0 0 1
    outer loop
      vertex 20 20 30
      vertex 34.1421 0 30
      vertex 34.1421 20 30
    endloop
  endfacet
  facet normal 0 0 1
    outer loop
      vertex 34.1421 0 30
      vertex 20 20 30
      vertex 20 0 30
    endloop
  endfacet
  facet normal 0 0 1
    outer loop
      vertex 14.1421 20 30
      vertex 10 15 30
      vertex 14.1421 0 30
    endloop
  endfacet
  facet normal -0 0 1
    outer loop
      vertex 0 20 30
      vertex 10 15 30
      vertex 14.1421 20 30
    endloop
  endfacet
  facet normal 0 0 1
    outer loop
      vertex 10 15 30
      vertex 0 20 30
      vertex 0 15 30
    endloop
  endfacet
  facet normal -0 0 1
    outer loop
      vertex 10 5 30
      vertex 14.1421 0 30
      vertex 10 15 30
    endloop
  endfacet
  facet normal 0 0 1
    outer loop
      vertex 0 0 30
      vertex 10 5 30
      vertex 0 5 30
    endloop
  endfacet
  facet normal 0 0 1
    outer loop
      vertex 10 5 30
      vertex 0 0 30
      vertex 14.1421 0 30
    endloop
  endfacet
  facet normal -1 0 0
    outer loop
      vertex 0 15 30
      vertex 0 20 40
      vertex 0 20 30
    endloop
  endfacet
  facet normal -1 0 0
    outer loop
      vertex 0 5 30
      vertex 0 20 40
      vertex 0 15 30
    endloop
  endfacet
  facet normal -1 0 0
    outer loop
      vertex 0 0 40
      vertex 0 5 30
      vertex 0 0 30
    endloop
  endfacet
  facet normal -1 0 0
    outer loop
      vertex 0 5 30
      vertex 0 0 40
      vertex 0 20 40
    endloop
  endfacet
  facet normal 0 1 -0
    outer loop
      vertex 20 20 30
      vertex 7.07107 20 37.0711
      vertex 27.0711 20 37.0711
    endloop
  endfacet
  facet normal 0 1 0
    outer loop
      vertex 7.07107 20 37.0711
      vertex 20 20 30
      vertex 14.1421 20 30
    endloop
  endfacet
  facet normal 0 1 0
    outer loop
      vertex 40 20 40
      vertex 27.0711 20 37.0711
      vertex 0 20 40
    endloop
  endfacet
  facet normal 0 1 0
    outer loop
      vertex 40 20 40
      vertex 34.1421 20 30
      vertex 27.0711 20 37.0711
    endloop
  endfacet
  facet normal 0 1 -0
    outer loop
      vertex 30 20 20
      vertex 20 20 30
      vertex 34.1421 20 30
    endloop
  endfacet
  facet normal 0 1 0
    outer loop
      vertex 20 20 30
      vertex 30 20 20
      vertex 14.1421 20 30
    endloop
  endfacet
  facet normal 0 1 0
    outer loop
      vertex 30 20 20
      vertex 34.1421 20 30
      vertex 37.0711 20 27.0711
    endloop
  endfacet
  facet normal 0 1 0
    outer loop
      vertex 40 20 40
      vertex 37.0711 20 27.0711
      vertex 34.1421 20 30
    endloop
  endfacet
  facet normal -0 1 0
    outer loop
      vertex 37.0711 20 27.0711
      vertex 40 20 40
      vertex 40 20 24.1421
    endloop
  endfacet
  facet normal 0 1 -0
    outer loop
      vertex 7.07107 20 37.0711
      vertex 0 20 40
      vertex 27.0711 20 37.0711
    endloop
  endfacet
  facet normal 0 1 0
    outer loop
      vertex 0 20 40
      vertex 7.07107 20 37.0711
      vertex 0 20 30
    endloop
  endfacet
  facet normal 0 1 0
    outer loop
      vertex 0 20 20
      vertex 14.1421 20 30
      vertex 30 20 20
    endloop
  endfacet
  facet normal 0 1 0
    outer loop
      vertex 14.1421 20 30
      vertex 0 20 20
      vertex 0 20 30
    endloop
  endfacet
  facet normal 0 -1 0
    outer loop
      vertex 14.1421 0 30
      vertex 27.0711 0 37.0711
      vertex 7.07107 0 37.0711
    endloop
  endfacet
  facet normal 0 -1 0
    outer loop
      vertex 27.0711 0 37.0711
      vertex 14.1421 0 30
      vertex 20 0 30
    endloop
  endfacet
  facet normal 0 -1 0
    outer loop
      vertex 27.0711 0 37.0711
      vertex 0 0 40
      vertex 7.07107 0 37.0711
    endloop
  endfacet
  facet normal -0 -1 0
    outer loop
      vertex 7.07107 0 37.0711
      vertex 0 0 40
      vertex 0 0 30
    endloop
  endfacet
  facet normal 0 -1 0
    outer loop
      vertex 0 0 40
      vertex 27.0711 0 37.0711
      vertex 40 0 40
    endloop
  endfacet
  facet normal 0 -1 0
    outer loop
      vertex 34.1421 0 30
      vertex 40 0 40
      vertex 27.0711 0 37.0711
    endloop
  endfacet
  facet normal 0 -1 0
    outer loop
      vertex 37.0711 0 27.0711
      vertex 40 0 40
      vertex 34.1421 0 30
    endloop
  endfacet
  facet normal 0 -1 -0
    outer loop
      vertex 40 0 40
      vertex 37.0711 0 27.0711
      vertex 40 0 24.1421
    endloop
  endfacet
  facet normal 0 -1 0
    outer loop
      vertex 0 0 20
      vertex 14.1421 0 30
      vertex 0 0 30
    endloop
  endfacet
  facet normal 0 -1 0
    outer loop
      vertex 30 0 20
      vertex 14.1421 0 30
      vertex 0 0 20
    endloop
  endfacet
  facet normal 0 -1 0
    outer loop
      vertex 20 0 30
      vertex 30 0 20
      vertex 34.1421 0 30
    endloop
  endfacet
  facet normal 0 -1 0
    outer loop
      vertex 14.1421 0 30
      vertex 30 0 20
      vertex 20 0 30
    endloop
  endfacet
  facet normal 0 -1 -0
    outer loop
      vertex 34.1421 0 30
      vertex 30 0 20
      vertex 37.0711 0 27.0711
    endloop
  endfacet
  facet normal -0.70711 0 -0.707103
    outer loop
      vertex 14.1421 0 30
      vertex 7.07107 20 37.0711
      vertex 14.1421 20 30
    endloop
  endfacet
  facet normal -0.70711 -0 -0.707103
    outer loop
      vertex 7.07107 20 37.0711
      vertex 14.1421 0 30
      vertex 7.07107 0 37.0711
    endloop
  endfacet
  facet normal 0.707108 0 -0.707105
    outer loop
      vertex 7.07107 20 37.0711
      vertex 0 15 30
      vertex 0 20 30
    endloop
  endfacet
  facet normal 0.707108 0 -0.707105
    outer loop
      vertex 7.07107 20 37.0711
      vertex 0 5 30
      vertex 0 15 30
    endloop
  endfacet
  facet normal 0.707108 0 -0.707105
    outer loop
      vertex 7.07107 0 37.0711
      vertex 0 5 30
      vertex 7.07107 20 37.0711
    endloop
  endfacet
  facet normal 0.707108 0 -0.707105
    outer loop
      vertex 0 5 30
      vertex 7.07107 0 37.0711
      vertex 0 0 30
    endloop
  endfacet
  facet normal 1 -0 0
    outer loop
      vertex 40 0 40
      vertex 40 20 24.1421
      vertex 40 20 40
    endloop
  endfacet
  facet normal 1 0 0
    outer loop
      vertex 40 20 24.1421
      vertex 40 0 40
      vertex 40 0 24.1421
    endloop
  endfacet
  facet normal -0.707112 0 -0.707102
    outer loop
      vertex 34.1421 0 30
      vertex 27.0711 20 37.0711
      vertex 34.1421 20 30
    endloop
  endfacet
  facet normal -0.707112 -0 -0.707102
    outer loop
      vertex 27.0711 20 37.0711
      vertex 34.1421 0 30
      vertex 27.0711 0 37.0711
    endloop
  endfacet
  facet normal 0.707107 0 -0.707107
    outer loop
      vertex 27.0711 0 37.0711
      vertex 20 20 30
      vertex 27.0711 20 37.0711
    endloop
  endfacet
  facet normal 0.707107 0 -0.707107
    outer loop
      vertex 20 20 30
      vertex 27.0711 0 37.0711
      vertex 20 0 30
    endloop
  endfacet
  facet normal -0 0 1
    outer loop
      vertex 0 15 30
      vertex 10 5 30
      vertex 10 15 30
    endloop
  endfacet
  facet normal 0 0 1
    outer loop
      vertex 10 5 30
      vertex 0 15 30
      vertex 0 5 30
    endloop
  endfacet
  facet normal 0 0 -1
    outer loop
      vertex 0 0 20
      vertex 30 20 20
      vertex 30 0 20
    endloop
  endfacet
  facet normal -0 0 -1
    outer loop
      vertex 30 20 20
      vertex 0 0 20
      vertex 0 20 20
    endloop
  endfacet
  facet normal -1 0 0
    outer loop
      vertex 0 20 20
      vertex 0 15 30
      vertex 0 20 30
    endloop
  endfacet
  facet normal -1 0 0
    outer loop
      vertex 0 20 20
      vertex 0 5 30
      vertex 0 15 30
    endloop
  endfacet
  facet normal -1 0 0
    outer loop
      vertex 0 0 20
      vertex 0 5 30
      vertex 0 20 20
    endloop
  endfacet
  facet normal -1 -0 0
    outer loop
      vertex 0 5 30
      vertex 0 0 20
      vertex 0 0 30
    endloop
  endfacet
  facet normal -0.707119 0 -0.707095
    outer loop
      vertex 40 0 24.1421
      vertex 37.0711 20 27.0711
      vertex 40 20 24.1421
    endloop
  endfacet
  facet normal -0.707119 -0 -0.707095
    outer loop
      vertex 37.0711 20 27.0711
      vertex 40 0 24.1421
      vertex 37.0711 0 27.0711
    endloop
  endfacet
  facet normal 0.707107 0 -0.707107
    outer loop
      vertex 37.0711 0 27.0711
      vertex 30 20 20
      vertex 37.0711 20 27.0711
    endloop
  endfacet
  facet normal 0.707107 0 -0.707107
    outer loop
      vertex 30 20 20
      vertex 37.0711 0 27.0711
      vertex 30 0 20
    endloop
  endfacet
  facet normal 1 -0 0
    outer loop
      vertex 40 0 15
      vertex 40 20 4.14214
      vertex 40 20 15
    endloop
  endfacet
  facet normal 1 0 0
    outer loop
      vertex 40 20 4.14214
      vertex 40 0 15
      vertex 40 0 4.14214
    endloop
  endfacet
  facet normal 0 0 -1
    outer loop
      vertex 0 0 0
      vertex 30 20 0
      vertex 30 0 0
    endloop
  endfacet
  facet normal -0 0 -1
    outer loop
      vertex 30 20 0
      vertex 0 0 0
      vertex 0 20 0
    endloop
  endfacet
  facet normal -1 0 0
    outer loop
      vertex 0 0 0
      vertex 0 20 15
      vertex 0 20 0
    endloop
  endfacet
  facet normal -1 -0 0
    outer loop
      vertex 0 20 15
      vertex 0 0 0
      vertex 0 0 15
    endloop
  endfacet
  facet normal 0 1 0
    outer loop
      vertex 40 20 15
      vertex 37.0711 20 7.07107
      vertex 0 20 15
    endloop
  endfacet
  facet normal -0 1 0
    outer loop
      vertex 37.0711 20 7.07107
      vertex 40 20 15
      vertex 40 20 4.14214
    endloop
  endfacet
  facet normal 0 1 -0
    outer loop
      vertex 30 20 0
      vertex 0 20 15
      vertex 37.0711 20 7.07107
    endloop
  endfacet
  facet normal 0 1 0
    outer loop
      vertex 0 20 15
      vertex 30 20 0
      vertex 0 20 0
    endloop
  endfacet
  facet normal 0 -1 0
    outer loop
      vertex 0 0 15
      vertex 37.0711 0 7.07107
      vertex 40 0 15
    endloop
  endfacet
  facet normal 0 -1 0
    outer loop
      vertex 30 0 0
      vertex 0 0 15
      vertex 0 0 0
    endloop
  endfacet
  facet normal 0 -1 0
    outer loop
      vertex 0 0 15
      vertex 30 0 0
      vertex 37.0711 0 7.07107
    endloop
  endfacet
  facet normal 0 -1 -0
    outer loop
      vertex 40 0 15
      vertex 37.0711 0 7.07107
      vertex 40 0 4.14214
    endloop
  endfacet
  facet normal -0.70711 0 -0.707103
    outer loop
      vertex 40 0 4.14214
      vertex 37.0711 20 7.07107
      vertex 40 20 4.14214
    endloop
  endfacet
  facet normal -0.70711 -0 -0.707103
    outer loop
      vertex 37.0711 20 7.07107
      vertex 40 0 4.14214
      vertex 37.0711 0 7.07107
    endloop
  endfacet
  facet normal 0.707105 0 -0.707108
    outer loop
      vertex 37.0711 0 7.07107
      vertex 30 20 0
      vertex 37.0711 20 7.07107
    endloop
  endfacet
  facet normal 0.707105 0 -0.707108
    outer loop
      vertex 30 20 0
      vertex 37.0711 0 7.07107
      vertex 30 0 0
    endloop
  endfacet
  facet normal -0 0 1
    outer loop
      vertex 0 20 15
      vertex 40 0 15
      vertex 40 20 15
    endloop
  endfacet
  facet normal 0 0 1
    outer loop
      vertex 40 0 15
      vertex 0 20 15
      vertex 0 0 15
    endloop
  endfacet
endsolid OpenSCAD_Model
