solid OpenSCAD_Model
  facet normal 1 -0 0
    outer loop
      vertex 10 -5 17.5
      vertex 10 5 7.5
      vertex 10 5 17.5
    endloop
  endfacet
  facet normal 1 0 0
    outer loop
      vertex 10 5 7.5
      vertex 10 -5 17.5
      vertex 10 -5 7.5
    endloop
  endfacet
  facet normal 0 0 -1
    outer loop
      vertex -8.5 -5 12.5
      vertex 8.5 5 12.5
      vertex 8.5 -5 12.5
    endloop
  endfacet
  facet normal -0 0 -1
    outer loop
      vertex 8.5 5 12.5
      vertex -8.5 -5 12.5
      vertex -8.5 5 12.5
    endloop
  endfacet
  facet normal 0 0 -1
    outer loop
      vertex -10 -5 7.5
      vertex 10 5 7.5
      vertex 10 -5 7.5
    endloop
  endfacet
  facet normal -0 0 -1
    outer loop
      vertex 10 5 7.5
      vertex -10 -5 7.5
      vertex -10 5 7.5
    endloop
  endfacet
  facet normal -1 0 0
    outer loop
      vertex -10 -5 7.5
      vertex -10 5 17.5
      vertex -10 5 7.5
    endloop
  endfacet
  facet normal -1 -0 0
    outer loop
      vertex -10 5 17.5
      vertex -10 -5 7.5
      vertex -10 -5 17.5
    endloop
  endfacet
  facet normal 0 1 0
    outer loop
      vertex 10 5 17.5
      vertex 8.5 5 12.5
      vertex -10 5 17.5
    endloop
  endfacet
  facet normal 0 1 -0
    outer loop
      vertex 10 5 7.5
      vertex 8.5 5 12.5
      vertex 10 5 17.5
    endloop
  endfacet
  facet normal 0 1 0
    outer loop
      vertex 8.5 5 11.25
      vertex 10 5 7.5
      vertex -8.5 5 11.25
    endloop
  endfacet
  facet normal 0 1 0
    outer loop
      vertex 8.5 5 12.5
      vertex 10 5 7.5
      vertex 8.5 5 11.25
    endloop
  endfacet
  facet normal 0 1 -0
    outer loop
      vertex -8.5 5 12.5
      vertex -10 5 17.5
      vertex 8.5 5 12.5
    endloop
  endfacet
  facet normal 0 1 0
    outer loop
      vertex -10 5 7.5
      vertex -8.5 5 12.5
      vertex -8.5 5 11.25
    endloop
  endfacet
  facet normal 0 1 0
    outer loop
      vertex -8.5 5 12.5
      vertex -10 5 7.5
      vertex -10 5 17.5
    endloop
  endfacet
  facet normal 0 1 0
    outer loop
      vertex -10 5 7.5
      vertex -8.5 5 11.25
      vertex 10 5 7.5
    endloop
  endfacet
  facet normal 0 -1 0
    outer loop
      vertex -10 -5 17.5
      vertex -8.5 -5 12.5
      vertex 10 -5 17.5
    endloop
  endfacet
  facet normal 0 -1 0
    outer loop
      vertex -10 -5 7.5
      vertex -8.5 -5 12.5
      vertex -10 -5 17.5
    endloop
  endfacet
  facet normal 0 -1 -0
    outer loop
      vertex -8.5 -5 11.25
      vertex -10 -5 7.5
      vertex 8.5 -5 11.25
    endloop
  endfacet
  facet normal 0 -1 -0
    outer loop
      vertex -8.5 -5 12.5
      vertex -10 -5 7.5
      vertex -8.5 -5 11.25
    endloop
  endfacet
  facet normal 0 -1 0
    outer loop
      vertex 8.5 -5 12.5
      vertex 10 -5 17.5
      vertex -8.5 -5 12.5
    endloop
  endfacet
  facet normal 0 -1 0
    outer loop
      vertex 10 -5 7.5
      vertex 8.5 -5 12.5
      vertex 8.5 -5 11.25
    endloop
  endfacet
  facet normal 0 -1 0
    outer loop
      vertex 8.5 -5 12.5
      vertex 10 -5 7.5
      vertex 10 -5 17.5
    endloop
  endfacet
  facet normal 0 -1 0
    outer loop
      vertex 10 -5 7.5
      vertex 8.5 -5 11.25
      vertex -10 -5 7.5
    endloop
  endfacet
  facet normal -1 0 0
    outer loop
      vertex 8.5 -5 11.25
      vertex 8.5 5 12.5
      vertex 8.5 5 11.25
    endloop
  endfacet
  facet normal -1 -0 0
    outer loop
      vertex 8.5 5 12.5
      vertex 8.5 -5 11.25
      vertex 8.5 -5 12.5
    endloop
  endfacet
  facet normal -0 0 1
    outer loop
      vertex -8.5 5 11.25
      vertex 8.5 -5 11.25
      vertex 8.5 5 11.25
    endloop
  endfacet
  facet normal 0 0 1
    outer loop
      vertex 8.5 -5 11.25
      vertex -8.5 5 11.25
      vertex -8.5 -5 11.25
    endloop
  endfacet
  facet normal 1 -0 0
    outer loop
      vertex -8.5 -5 12.5
      vertex -8.5 5 11.25
      vertex -8.5 5 12.5
    endloop
  endfacet
  facet normal 1 0 0
    outer loop
      vertex -8.5 5 11.25
      vertex -8.5 -5 12.5
      vertex -8.5 -5 11.25
    endloop
  endfacet
  facet normal 1 -0 0
    outer loop
      vertex 20 -10 5
      vertex 20 10 -15
      vertex 20 10 5
    endloop
  endfacet
  facet normal 1 0 0
    outer loop
      vertex 20 10 -15
      vertex 20 -10 5
      vertex 20 -10 -15
    endloop
  endfacet
  facet normal -0 0 1
    outer loop
      vertex -20 10 5
      vertex -15 -10 5
      vertex -15 10 5
    endloop
  endfacet
  facet normal 0 0 1
    outer loop
      vertex -15 -10 5
      vertex -20 10 5
      vertex -20 -10 5
    endloop
  endfacet
  facet normal -0 0 1
    outer loop
      vertex 15 10 5
      vertex 20 -10 5
      vertex 20 10 5
    endloop
  endfacet
  facet normal 0 0 1
    outer loop
      vertex 20 -10 5
      vertex 15 10 5
      vertex 15 -10 5
    endloop
  endfacet
  facet normal -1 0 0
    outer loop
      vertex -20 -10 -15
      vertex -20 10 5
      vertex -20 10 -15
    endloop
  endfacet
  facet normal -1 -0 0
    outer loop
      vertex -20 10 5
      vertex -20 -10 -15
      vertex -20 -10 5
    endloop
  endfacet
  facet normal 0 1 0
    outer loop
      vertex 20 10 5
      vertex 15 10 2.5
      vertex 15 10 5
    endloop
  endfacet
  facet normal 0 1 0
    outer loop
      vertex 15 10 2.5
      vertex 20 10 -15
      vertex -15 10 2.5
    endloop
  endfacet
  facet normal 0 1 -0
    outer loop
      vertex 20 10 -15
      vertex 15 10 2.5
      vertex 20 10 5
    endloop
  endfacet
  facet normal 0 1 -0
    outer loop
      vertex -15 10 2.5
      vertex -20 10 5
      vertex -15 10 5
    endloop
  endfacet
  facet normal 0 1 0
    outer loop
      vertex -20 10 -15
      vertex -15 10 2.5
      vertex 20 10 -15
    endloop
  endfacet
  facet normal 0 1 0
    outer loop
      vertex -15 10 2.5
      vertex -20 10 -15
      vertex -20 10 5
    endloop
  endfacet
  facet normal 0 -1 0
    outer loop
      vertex -20 -10 5
      vertex -15 -10 2.5
      vertex -15 -10 5
    endloop
  endfacet
  facet normal 0 -1 -0
    outer loop
      vertex -15 -10 2.5
      vertex -20 -10 -15
      vertex 15 -10 2.5
    endloop
  endfacet
  facet normal 0 -1 0
    outer loop
      vertex -20 -10 -15
      vertex -15 -10 2.5
      vertex -20 -10 5
    endloop
  endfacet
  facet normal 0 -1 0
    outer loop
      vertex 15 -10 2.5
      vertex 20 -10 5
      vertex 15 -10 5
    endloop
  endfacet
  facet normal 0 -1 0
    outer loop
      vertex 20 -10 -15
      vertex 15 -10 2.5
      vertex -20 -10 -15
    endloop
  endfacet
  facet normal 0 -1 0
    outer loop
      vertex 15 -10 2.5
      vertex 20 -10 -15
      vertex 20 -10 5
    endloop
  endfacet
  facet normal -1 0 0
    outer loop
      vertex 15 -10 2.5
      vertex 15 10 5
      vertex 15 10 2.5
    endloop
  endfacet
  facet normal -1 -0 0
    outer loop
      vertex 15 10 5
      vertex 15 -10 2.5
      vertex 15 -10 5
    endloop
  endfacet
  facet normal -0 0 1
    outer loop
      vertex -15 10 2.5
      vertex 15 -10 2.5
      vertex 15 10 2.5
    endloop
  endfacet
  facet normal 0 0 1
    outer loop
      vertex 15 -10 2.5
      vertex -15 10 2.5
      vertex -15 -10 2.5
    endloop
  endfacet
  facet normal 1 -0 0
    outer loop
      vertex -15 -10 5
      vertex -15 10 2.5
      vertex -15 10 5
    endloop
  endfacet
  facet normal 1 0 0
    outer loop
      vertex -15 10 2.5
      vertex -15 -10 5
      vertex -15 -10 2.5
    endloop
  endfacet
  facet normal 0 0 -1
    outer loop
      vertex -20 -10 -15
      vertex 20 10 -15
      vertex 20 -10 -15
    endloop
  endfacet
  facet normal -0 0 -1
    outer loop
      vertex 20 10 -15
      vertex -20 -10 -15
      vertex -20 10 -15
    endloop
  endfacet
  facet normal -0 0 1
    outer loop
      vertex -10 5 17.5
      vertex 10 -5 17.5
      vertex 10 5 17.5
    endloop
  endfacet
  facet normal 0 0 1
    outer loop
      vertex 10 -5 17.5
      vertex -10 5 17.5
      vertex -10 -5 17.5
    endloop
  endfacet
endsolid OpenSCAD_Model
