solid OpenSCAD_Model
  facet normal 1 -0 0
    outer loop
      vertex 25 -15 10
      vertex 25 15 0
      vertex 25 15 10
    endloop
  endfacet
  facet normal 1 0 0
    outer loop
      vertex 25 15 0
      vertex 25 -15 10
      vertex 25 -15 0
    endloop
  endfacet
  facet normal -0 0 1
    outer loop
      vertex -25 15 10
      vertex 25 -15 10
      vertex 25 15 10
    endloop
  endfacet
  facet normal 0 0 1
    outer loop
      vertex 25 -15 10
      vertex -25 15 10
      vertex -25 -15 10
    endloop
  endfacet
  facet normal 0 0 -1
    outer loop
      vertex -25 -15 0
      vertex 25 15 0
      vertex 25 -15 0
    endloop
  endfacet
  facet normal -0 0 -1
    outer loop
      vertex 25 15 0
      vertex -25 -15 0
      vertex -25 15 0
    endloop
  endfacet
  facet normal -1 0 0
    outer loop
      vertex -25 -15 0
      vertex -25 15 10
      vertex -25 15 0
    endloop
  endfacet
  facet normal -1 -0 0
    outer loop
      vertex -25 15 10
      vertex -25 -15 0
      vertex -25 -15 10
    endloop
  endfacet
  facet normal 0 1 -0
    outer loop
      vertex 25 15 0
      vertex -25 15 10
      vertex 25 15 10
    endloop
  endfacet
  facet normal 0 1 0
    outer loop
      vertex -25 15 10
      vertex 25 15 0
      vertex -25 15 0
    endloop
  endfacet
  facet normal 0 -1 0
    outer loop
      vertex -25 -15 0
      vertex 25 -15 10
      vertex -25 -15 10
    endloop
  endfacet
  facet normal 0 -1 -0
    outer loop
      vertex 25 -15 10
      vertex -25 -15 0
      vertex 25 -15 0
    endloop
  endfacet
  facet normal 1 -0 0
    outer loop
      vertex 25 -15 16
      vertex 25 15 14
      vertex 25 15 16
    endloop
  endfacet
  facet normal 1 0 0
    outer loop
      vertex 25 15 14
      vertex 25 -15 16
      vertex 25 -15 14
    endloop
  endfacet
  facet normal -0 0 1
    outer loop
      vertex -25 15 16
      vertex 25 -15 16
      vertex 25 15 16
    endloop
  endfacet
  facet normal 0 0 1
    outer loop
      vertex 25 -15 16
      vertex -25 15 16
      vertex -25 -15 16
    endloop
  endfacet
  facet normal 0 0 -1
    outer loop
      vertex -25 -15 14
      vertex 25 15 14
      vertex 25 -15 14
    endloop
  endfacet
  facet normal -0 0 -1
    outer loop
      vertex 25 15 14
      vertex -25 -15 14
      vertex -25 15 14
    endloop
  endfacet
  facet normal -1 0 0
    outer loop
      vertex -25 -15 14
      vertex -25 15 16
      vertex -25 15 14
    endloop
  endfacet
  facet normal -1 -0 0
    outer loop
      vertex -25 15 16
      vertex -25 -15 14
      vertex -25 -15 16
    endloop
  endfacet
  facet normal 0 1 -0
    outer loop
      vertex 25 15 14
      vertex -25 15 16
      vertex 25 15 16
    endloop
  endfacet
  facet normal 0 1 0
    outer loop
      vertex -25 15 16
      vertex 25 15 14
      vertex -25 15 14
    endloop
  endfacet
  facet normal 0 -1 0
    outer loop
      vertex -25 -15 14
      vertex 25 -15 16
      vertex -25 -15 16
    endloop
  endfacet
  facet normal 0 -1 -0
    outer loop
      vertex 25 -15 16
      vertex -25 -15 14
      vertex 25 -15 14
    endloop
  endfacet
endsolid OpenSCAD_Model
